<?xml version="1.0" encoding="utf-8"?>
<!-- Generator: Adobe Illustrator 15.0.2, SVG Export Plug-In  -->
<!DOCTYPE svg PUBLIC "-//W3C//DTD SVG 1.1//EN" "http://www.w3.org/Graphics/SVG/1.1/DTD/svg11.dtd" [
	<!ENTITY ns_flows "http://ns.adobe.com/Flows/1.0/">
]>
<svg version="1.1"
	 xmlns="http://www.w3.org/2000/svg" xmlns:xlink="http://www.w3.org/1999/xlink" xmlns:a="http://ns.adobe.com/AdobeSVGViewerExtensions/3.0/"
	 x="0px" y="0px" width="98px" height="95px" viewBox="0 0 98 95" overflow="visible" enable-background="new 0 0 98 95"
	 xml:space="preserve">
<defs>
</defs>
<path fill="#FFFFFF" d="M58.657,40.42h12.786v1.823H60.855v14.608h10.963v1.797H58.657V40.42z M70.131,49.24h-8.792v-6.515h10.104
	v1.796h-7.907v3.002h6.595V49.24L70.131,49.24z M71.818,56.37H61.339v-6.647h8.792v1.688h-6.595v3.137h8.282V56.37z"/>
<path fill="#FFFFFF" d="M74.285,40.42h2.466l5.2,8.311l-6.406,9.918h-2.251l6.3-9.783L74.285,40.42z M82.273,49.158l5.925,9.49
	h-2.413l-3.674-6.191l-3.752,6.191h-2.227L82.273,49.158z M77.341,40.42h2.386l2.735,4.61l2.706-4.61h2.198l-5.093,7.908
	L77.341,40.42z M88.812,58.648l-6.217-9.918l5.387-8.312h2.252l-5.279,8.229l6.271,9.998h-2.414V58.648z"/>
<path fill="#FFFFFF" d="M20.37,19.768h7.785c3.563,0,5.859,1.637,5.859,4.645c0,2.138-1.056,3.326-2.48,3.854
	c1.663,0.475,3.246,1.689,3.246,4.249c0,3.272-2.402,5.199-6.862,5.199H20.37V19.768z M27.494,26.788
	c1.321,0,1.822-0.606,1.822-1.61c0-1.002-0.449-1.636-1.768-1.636h-2.533v3.246H27.494z M27.891,33.94
	c1.557,0,2.084-0.712,2.084-1.874c0-1.161-0.554-1.847-2.084-1.847h-2.876v3.721H27.891z"/>
<path fill="#FFFFFF" d="M37.63,19.768h4.803v17.946H37.63V19.768z"/>
<path fill="#FFFFFF" d="M56.396,19.768h5.196l-5.964,7.786l6.678,10.161h-5.675l-4.274-6.519l-1.504,1.848v4.671H46.05V19.768h4.804
	v7.442L56.396,19.768z"/>
<path fill="#FFFFFF" d="M64.445,19.768h12.589v4.038h-7.786v2.956h6.493v3.827h-6.493v3.087h8.154v4.038H64.445V19.768z"/>
<path fill="#FFFFFF" d="M15.029,37.689C11.412,27.034,9.565,17.8,8.744,12.876c6.091-1.667,20.898-5.071,40.109-5.071
	c13.758,0,27.254,1.726,40.147,5.134c-0.852,4.943-2.738,14.169-6.369,24.75h4.579c3.95-11.875,5.756-21.901,6.39-25.999
	l0.295-1.904L92.039,9.27C78.204,5.421,63.674,3.468,48.854,3.468c-22.126,0-38.64,4.417-43.173,5.771L3.876,9.777l0.28,1.861
	c0.611,4.089,2.367,14.109,6.299,26.051H15.029z"/>
<path fill="#FFFFFF" d="M58.657,40.42h12.786v1.823H60.855v14.608h10.963v1.797H58.657V40.42z M70.131,49.24h-8.792v-6.515h10.104
	v1.796h-7.907v3.002h6.595V49.24L70.131,49.24z M71.818,56.37H61.339v-6.647h8.792v1.688h-6.595v3.137h8.282V56.37z"/>
<path fill="#FFFFFF" d="M74.285,40.42h2.466l5.2,8.311l-6.406,9.918h-2.251l6.3-9.783L74.285,40.42z M82.273,49.158l5.925,9.49
	h-2.413l-3.674-6.191l-3.752,6.191h-2.227L82.273,49.158z M77.341,40.42h2.386l2.735,4.61l2.706-4.61h2.198l-5.093,7.908
	L77.341,40.42z M88.812,58.648l-6.217-9.918l5.387-8.312h2.252l-5.279,8.229l6.271,9.998h-2.414V58.648z"/>
<path fill="#FFFFFF" d="M20.37,19.768h7.785c3.563,0,5.859,1.637,5.859,4.645c0,2.138-1.056,3.326-2.48,3.854
	c1.663,0.475,3.246,1.689,3.246,4.249c0,3.272-2.402,5.199-6.862,5.199H20.37V19.768z M27.494,26.788
	c1.321,0,1.822-0.606,1.822-1.61c0-1.002-0.449-1.636-1.768-1.636h-2.533v3.246H27.494z M27.891,33.94
	c1.557,0,2.084-0.712,2.084-1.874c0-1.161-0.554-1.847-2.084-1.847h-2.876v3.721H27.891z"/>
<path fill="#FFFFFF" d="M37.63,19.768h4.803v17.946H37.63V19.768z"/>
<path fill="#FFFFFF" d="M56.396,19.768h5.196l-5.964,7.786l6.678,10.161h-5.675l-4.274-6.519l-1.504,1.848v4.671H46.05V19.768h4.804
	v7.442L56.396,19.768z"/>
<path fill="#FFFFFF" d="M64.445,19.768h12.589v4.038h-7.786v2.956h6.493v3.827h-6.493v3.087h8.154v4.038H64.445V19.768z"/>
<path fill="#FFFFFF" d="M15.029,37.689C11.412,27.034,9.565,17.8,8.744,12.876c6.091-1.667,20.898-5.071,40.109-5.071
	c13.758,0,27.254,1.726,40.147,5.134c-0.852,4.943-2.738,14.169-6.369,24.75h4.579c3.95-11.875,5.756-21.901,6.39-25.999
	l0.295-1.904L92.039,9.27C78.204,5.421,63.674,3.468,48.854,3.468c-22.126,0-38.64,4.417-43.173,5.771L3.876,9.777l0.28,1.861
	c0.611,4.089,2.367,14.109,6.299,26.051H15.029z"/>
<polygon fill="#FFFFFF" points="75.288,62.117 55.189,62.117 55.189,36.952 74.913,36.952 74.913,47.99 73.6,47.99 73.6,51.078 
	75.288,51.078 "/>
<path fill="#FFFFFF" d="M27.917,41.183H16.901V16.299h11.253c5.579,0,9.327,3.261,9.327,8.113c0,1.239-0.242,2.382-0.698,3.388
	c0.949,1.289,1.464,2.896,1.464,4.715C38.248,36.513,35.542,41.183,27.917,41.183z"/>
<rect x="34.162" y="16.299" fill="#FFFFFF" width="11.74" height="24.883"/>
<polygon fill="#FFFFFF" points="68.736,41.183 54.76,41.183 54.32,40.515 54.32,41.183 42.582,41.183 42.582,16.299 54.32,16.299 
	54.32,16.745 54.652,16.299 68.62,16.299 59.882,27.708 "/>
<polygon fill="#FFFFFF" points="80.872,41.183 60.977,41.183 60.977,16.299 80.503,16.299 80.503,27.274 79.209,27.274 
	79.209,30.208 80.872,30.208 "/>
<path fill="#EEF2F3" d="M96.581,36.952h-5.484c3.661-11.452,5.358-21.023,5.933-24.731l0.766-4.951l-4.826-1.342
	C78.83,1.994,63.988,0,48.854,0C26.26,0,9.337,4.527,4.688,5.915L0,7.314l0.726,4.836c0.583,3.9,2.377,14.3,6.435,26.625
	l0.503,1.528v21.815h9.506l0.511,0.911c7.769,13.84,17.277,24.084,28.259,30.447l2.826,1.639l2.828-1.639
	c10.979-6.36,20.504-16.602,28.313-30.439l0.519-0.92h17.071l-8.435-13.446L96.581,36.952z"/>
<path fill="#2C3E50" d="M11.132,40.42h2.198v18.229h-2.198V40.42z M13.812,58.648V40.42h2.198v18.229H13.812L13.812,58.648z"/>
<path fill="#2C3E50" d="M21.774,58.648h-2.038v-18.47c0-0.161,0.081-0.294,0.375-0.053l11.5,9.516V40.42h2.038v13.484l-11.875-9.731
	V58.648z M24.267,49.48v9.168h-2.01V45.192l11.874,9.73V40.42h2.011v18.496c0,0.215-0.081,0.295-0.375,0.055L24.267,49.48z"/>
<path fill="#2C3E50" d="M39.76,40.42h7.05c5.254,0,9.222,3.458,9.222,9.115c0,5.654-3.968,9.113-9.222,9.113h-7.05V40.42z
	 M41.958,56.826h4.583c4.236,0,7.238-2.788,7.238-7.291c0-4.505-3.002-7.292-7.238-7.292h-4.583V56.826z M42.44,42.726h4.101
	c3.968,0,6.755,2.626,6.755,6.81c0,4.181-2.787,6.81-6.755,6.81H42.44V42.726z M46.273,54.521c2.95,0,4.771-1.957,4.771-4.985
	c0-3.03-1.822-4.987-4.771-4.987h-1.635v9.973H46.273L46.273,54.521z"/>
<path fill="#2C3E50" d="M58.657,40.42h12.786v1.823H60.855v14.608h10.963v1.797H58.657V40.42z M70.131,49.24h-8.792v-6.515h10.104
	v1.796h-7.907v3.002h6.595V49.24L70.131,49.24z M71.818,56.37H61.339v-6.647h8.792v1.688h-6.595v3.137h8.282V56.37z"/>
<path fill="#2C3E50" d="M74.285,40.42h2.466l5.2,8.311l-6.406,9.918h-2.251l6.3-9.783L74.285,40.42z M82.273,49.158l5.925,9.49
	h-2.413l-3.674-6.191l-3.752,6.191h-2.227L82.273,49.158z M77.341,40.42h2.386l2.735,4.61l2.706-4.61h2.198l-5.093,7.908
	L77.341,40.42z M88.812,58.648l-6.217-9.918l5.387-8.312h2.252l-5.279,8.229l6.271,9.998h-2.414V58.648z"/>
<path fill="#2C3E50" d="M20.37,19.768h7.785c3.563,0,5.859,1.637,5.859,4.645c0,2.138-1.056,3.326-2.48,3.854
	c1.663,0.475,3.246,1.689,3.246,4.249c0,3.272-2.402,5.199-6.862,5.199H20.37V19.768z M27.494,26.788
	c1.321,0,1.822-0.606,1.822-1.61c0-1.002-0.449-1.636-1.768-1.636h-2.533v3.246H27.494z M27.891,33.94
	c1.557,0,2.084-0.712,2.084-1.874c0-1.161-0.554-1.847-2.084-1.847h-2.876v3.721H27.891z"/>
<path fill="#2C3E50" d="M37.63,19.768h4.803v17.946H37.63V19.768z"/>
<path fill="#2C3E50" d="M56.396,19.768h5.196l-5.964,7.786l6.678,10.161h-5.675l-4.274-6.519l-1.504,1.848v4.671H46.05V19.768h4.804
	v7.442L56.396,19.768z"/>
<path fill="#2C3E50" d="M64.445,19.768h12.589v4.038h-7.786v2.956h6.493v3.827h-6.493v3.087h8.154v4.038H64.445V19.768z"/>
<path fill="#2C3E50" d="M15.029,37.689C11.412,27.034,9.565,17.8,8.744,12.876c6.091-1.667,20.898-5.071,40.109-5.071
	c13.758,0,27.254,1.726,40.147,5.134c-0.852,4.943-2.738,14.169-6.369,24.75h4.579c3.95-11.875,5.756-21.901,6.39-25.999
	l0.295-1.904L92.039,9.27C78.204,5.421,63.674,3.468,48.854,3.468c-22.126,0-38.64,4.417-43.173,5.771L3.876,9.777l0.28,1.861
	c0.611,4.089,2.367,14.109,6.299,26.051H15.029z"/>
<path fill="#2C3E50" d="M71.877,61.332c-5.662,9.512-13.209,18.679-23.109,24.744c-9.899-6.065-17.424-15.232-23.06-24.744h-5.002
	c6.27,11.17,15.011,22.212,26.974,29.145l1.087,0.631l1.088-0.631c11.965-6.932,20.729-17.975,27.031-29.145H71.877z"/>
</svg>
