<?xml version="1.0" encoding="utf-8"?>
<!-- Generator: Adobe Illustrator 15.0.2, SVG Export Plug-In  -->
<!DOCTYPE svg PUBLIC "-//W3C//DTD SVG 1.1//EN" "http://www.w3.org/Graphics/SVG/1.1/DTD/svg11.dtd" [
	<!ENTITY ns_flows "http://ns.adobe.com/Flows/1.0/">
]>
<svg version="1.1"
	 xmlns="http://www.w3.org/2000/svg" xmlns:xlink="http://www.w3.org/1999/xlink" xmlns:a="http://ns.adobe.com/AdobeSVGViewerExtensions/3.0/"
	 x="0px" y="0px" width="1139px" height="1139px" viewBox="0 0 1139 1139"
	 overflow="visible" enable-background="new 0 0 1139 1139" xml:space="preserve">
<defs>
</defs>
<rect x="686.867" y="86.04" transform="matrix(0.951 0.3093 -0.3093 0.951 135.1422 -196.5898)" fill="#95A5A5" width="1.56" height="483.85"/>
<rect x="620.811" y="73.114" transform="matrix(0.9985 0.0545 -0.0545 0.9985 17.9824 -33.4106)" fill="#95A5A5" width="1.559" height="479.794"/>
<rect x="212.827" y="327.184" transform="matrix(0.3096 0.9509 -0.9509 0.3096 625.8047 -205.9816)" fill="#95A5A5" width="483.847" height="1.562"/>
<rect x="280.911" y="312.231" transform="matrix(0.0553 0.9985 -0.9985 0.0553 804.5429 -224.3062)" fill="#95A5A5" width="479.793" height="1.561"/>
<rect x="837.128" y="308.335" transform="matrix(0.2057 0.9786 -0.9786 0.2057 1204.0168 -382.9304)" fill="#95A5A5" width="1.562" height="483.847"/>
<rect x="817.074" y="245.67" transform="matrix(0.4507 0.8927 -0.8927 0.4507 882.6898 -463.3587)" fill="#95A5A5" width="1.562" height="479.793"/>
<rect x="720.758" y="106.593" transform="matrix(0.7423 0.6701 -0.6701 0.7423 419.4899 -393.6745)" fill="#95A5A5" width="1.562" height="483.849"/>
<rect x="766.718" y="158.37" transform="matrix(0.5456 0.838 -0.838 0.5456 682.4674 -462.2224)" fill="#95A5A5" width="1.562" height="479.792"/>
<rect x="478.515" y="790.711" transform="matrix(0.6681 0.7441 -0.7441 0.6681 828.0433 -273.3616)" fill="#95A5A5" width="483.846" height="1.56"/>
<rect x="526.559" y="741.015" transform="matrix(0.8366 0.5478 -0.5478 0.8366 531.541 -298.6511)" fill="#95A5A5" width="479.792" height="1.559"/>
<rect x="595.119" y="589.106" transform="matrix(0.9781 0.2081 -0.2081 0.9781 141.0471 -161.244)" fill="#95A5A5" width="483.848" height="1.559"/>
<rect x="577.016" y="653.773" transform="matrix(0.892 0.452 -0.452 0.892 384.1091 -298.5823)" fill="#95A5A5" width="479.793" height="1.561"/>
<rect x="452.003" y="568.345" transform="matrix(0.9504 0.3112 -0.3112 0.9504 274.5929 -100.6627)" fill="#95A5A5" width="1.56" height="483.846"/>
<rect x="518.042" y="585.405" transform="matrix(0.9983 0.0576 -0.0576 0.9983 48.3701 -28.4982)" fill="#95A5A5" width="1.561" height="479.791"/>
<rect x="443.753" y="809.759" transform="matrix(0.3085 0.9512 -0.9512 0.3085 1245.1401 -91.7522)" fill="#95A5A5" width="483.849" height="1.559"/>
<rect x="379.708" y="824.635" transform="matrix(0.0541 0.9985 -0.9985 0.0541 1410.26 162.028)" fill="#95A5A5" width="479.792" height="1.561"/>
<rect x="301.995" y="345.882" transform="matrix(0.2059 0.9786 -0.9786 0.2059 815.6646 170.5128)" fill="#95A5A5" width="1.561" height="483.847"/>
<rect x="320.974" y="412.28" transform="matrix(0.4507 0.8927 -0.8927 0.4507 760.1085 71.7476)" fill="#95A5A5" width="1.559" height="482.479"/>
<rect x="418.134" y="547.755" transform="matrix(0.742 0.6704 -0.6704 0.742 637.4775 -77.104)" fill="#95A5A5" width="1.562" height="483.848"/>
<rect x="372.232" y="499.98" transform="matrix(0.5461 0.8377 -0.8377 0.5461 789.0901 23.3352)" fill="#95A5A5" width="1.557" height="479.794"/>
<rect x="176.883" y="345.928" transform="matrix(0.6672 0.7448 -0.7448 0.6672 397.6038 -196.574)" fill="#95A5A5" width="483.847" height="1.562"/>
<rect x="131.643" y="395.07" transform="matrix(0.8357 0.5492 -0.5492 0.8357 278.5772 -139.3904)" fill="#95A5A5" width="481.178" height="1.56"/>
<rect x="60.046" y="547.4" transform="matrix(0.9779 0.2092 -0.2092 0.9779 121.353 -51.0402)" fill="#95A5A5" width="483.848" height="1.56"/>
<rect x="81.104" y="482.253" transform="matrix(0.8911 0.4539 -0.4539 0.8911 254.2763 -93.3798)" fill="#95A5A5" width="481.137" height="1.558"/>
<circle fill="#95A5A5" cx="569.313" cy="569.316" r="45.644"/>
<circle fill="#95A5A5" stroke="#FFFFFF" stroke-miterlimit="10" cx="569.312" cy="569.316" r="20.198"/>
<path fill="#95A5A5" d="M569.312,590.294c-11.567,0-20.979-9.409-20.979-20.978c0-11.569,9.412-20.979,20.979-20.979
	c11.568,0,20.979,9.409,20.979,20.979C590.291,580.885,580.88,590.294,569.312,590.294z M569.312,549.897
	c-10.708,0-19.419,8.71-19.419,19.419c0,10.708,8.711,19.418,19.419,19.418c10.708,0,19.418-8.71,19.418-19.418
	C588.73,558.607,580.02,549.897,569.312,549.897z"/>
<path fill="#95A5A5" d="M569.316,1138.633c-76.848,0-151.408-15.058-221.61-44.749c-67.796-28.677-128.679-69.725-180.957-122.001
	c-52.277-52.276-93.325-113.16-122.001-180.958C15.056,720.725,0,646.162,0,569.315c0-76.848,15.056-151.409,44.748-221.61
	c28.676-67.795,69.724-128.678,122.001-180.955c52.278-52.281,113.161-93.327,180.957-122.002C417.908,15.056,492.468,0,569.316,0
	c76.847,0,151.408,15.056,221.609,44.748c67.797,28.675,128.682,69.722,180.958,122.002c52.28,52.277,93.327,113.16,122.002,180.955
	c29.692,70.201,44.748,144.763,44.748,221.61c0,76.847-15.056,151.409-44.748,221.609
	c-28.675,67.798-69.722,128.682-122.002,180.958c-52.276,52.276-113.161,93.324-180.958,122.001
	C720.724,1123.575,646.163,1138.633,569.316,1138.633z M569.316,41.945c-290.792,0-527.37,236.576-527.37,527.37
	s236.577,527.369,527.37,527.369c290.794,0,527.373-236.575,527.373-527.369S860.11,41.945,569.316,41.945z"/>
<path fill="#95A5A5" d="M569.316,1081.151c-136.716,0-265.25-53.239-361.923-149.913C110.72,834.566,57.48,706.032,57.48,569.315
	c0-136.718,53.24-265.25,149.913-361.922C304.067,110.718,432.6,57.479,569.316,57.479s265.25,53.238,361.923,149.914
	c96.672,96.674,149.912,225.207,149.912,361.922c0,136.717-53.24,265.251-149.912,361.923
	C834.567,1027.912,706.032,1081.151,569.316,1081.151z M569.316,68.354c-276.231,0-500.96,224.73-500.96,500.962
	c0,276.23,224.729,500.961,500.96,500.961c276.232,0,500.96-224.73,500.96-500.961C1070.276,293.084,845.548,68.354,569.316,68.354z
	"/>
</svg>
