<svg enable-background="new 0 0 1139 1139" height="1139" viewBox="0 0 1139 1139" width="1139" xmlns="http://www.w3.org/2000/svg"><g fill="#95a5a5"><path d="m686.867 86.04h1.56v483.85h-1.56z" transform="matrix(.951 .3093 -.3093 .951 135.1422 -196.5898)"/><path d="m620.811 73.114h1.559v479.794h-1.559z" transform="matrix(.9985 .0545 -.0545 .9985 17.9824 -33.4106)"/><path d="m212.827 327.184h483.847v1.562h-483.847z" transform="matrix(.3096 .9509 -.9509 .3096 625.8047 -205.9816)"/><path d="m280.911 312.231h479.793v1.561h-479.793z" transform="matrix(.0553 .9985 -.9985 .0553 804.5429 -224.3062)"/><path d="m837.128 308.335h1.562v483.847h-1.562z" transform="matrix(.2057 .9786 -.9786 .2057 1204.0168 -382.9304)"/><path d="m817.074 245.67h1.562v479.793h-1.562z" transform="matrix(.4507 .8927 -.8927 .4507 882.6898 -463.3587)"/><path d="m720.758 106.593h1.562v483.849h-1.562z" transform="matrix(.7423 .6701 -.6701 .7423 419.4899 -393.6745)"/><path d="m766.718 158.37h1.562v479.792h-1.562z" transform="matrix(.5456 .838 -.838 .5456 682.4674 -462.2224)"/><path d="m478.515 790.711h483.846v1.56h-483.846z" transform="matrix(.6681 .7441 -.7441 .6681 828.0433 -273.3616)"/><path d="m526.559 741.015h479.792v1.559h-479.792z" transform="matrix(.8366 .5478 -.5478 .8366 531.541 -298.6511)"/><path d="m595.119 589.106h483.848v1.559h-483.848z" transform="matrix(.9781 .2081 -.2081 .9781 141.0471 -161.244)"/><path d="m577.016 653.773h479.793v1.561h-479.793z" transform="matrix(.892 .452 -.452 .892 384.1091 -298.5823)"/><path d="m452.003 568.345h1.56v483.846h-1.56z" transform="matrix(.9504 .3112 -.3112 .9504 274.5929 -100.6627)"/><path d="m518.042 585.405h1.561v479.791h-1.561z" transform="matrix(.9983 .0576 -.0576 .9983 48.3701 -28.4982)"/><path d="m443.753 809.759h483.849v1.559h-483.849z" transform="matrix(.3085 .9512 -.9512 .3085 1245.1401 -91.7522)"/><path d="m379.708 824.635h479.792v1.561h-479.792z" transform="matrix(.0541 .9985 -.9985 .0541 1410.26 162.028)"/><path d="m301.995 345.882h1.561v483.847h-1.561z" transform="matrix(.2059 .9786 -.9786 .2059 815.6646 170.5128)"/><path d="m320.974 412.28h1.559v482.479h-1.559z" transform="matrix(.4507 .8927 -.8927 .4507 760.1085 71.7476)"/><path d="m418.134 547.755h1.562v483.848h-1.562z" transform="matrix(.742 .6704 -.6704 .742 637.4775 -77.104)"/><path d="m372.232 499.98h1.557v479.794h-1.557z" transform="matrix(.5461 .8377 -.8377 .5461 789.0901 23.3352)"/><path d="m176.883 345.928h483.847v1.562h-483.847z" transform="matrix(.6672 .7448 -.7448 .6672 397.6038 -196.574)"/><path d="m131.643 395.07h481.178v1.56h-481.178z" transform="matrix(.8357 .5492 -.5492 .8357 278.5772 -139.3904)"/><path d="m60.046 547.4h483.848v1.56h-483.848z" transform="matrix(.9779 .2092 -.2092 .9779 121.353 -51.0402)"/><path d="m81.104 482.253h481.137v1.558h-481.137z" transform="matrix(.8911 .4539 -.4539 .8911 254.2763 -93.3798)"/><circle cx="569.313" cy="569.316" r="45.644"/><circle cx="569.312" cy="569.316" r="20.198" stroke="#fff" stroke-miterlimit="10"/><path d="m569.312 590.294c-11.567 0-20.979-9.409-20.979-20.978s9.412-20.979 20.979-20.979c11.568 0 20.979 9.409 20.979 20.979 0 11.569-9.411 20.978-20.979 20.978zm0-40.397c-10.708 0-19.419 8.71-19.419 19.419 0 10.708 8.711 19.418 19.419 19.418s19.418-8.71 19.418-19.418c0-10.709-8.71-19.419-19.418-19.419z"/><path d="m569.316 1138.633c-76.848 0-151.408-15.058-221.61-44.749-67.796-28.677-128.679-69.725-180.957-122.001-52.277-52.276-93.325-113.16-122.001-180.958-29.692-70.2-44.748-144.763-44.748-221.61 0-76.848 15.056-151.409 44.748-221.61 28.676-67.795 69.724-128.678 122.001-180.955 52.278-52.281 113.161-93.327 180.957-122.002 70.202-29.692 144.762-44.748 221.61-44.748 76.847 0 151.408 15.056 221.609 44.748 67.797 28.675 128.682 69.722 180.958 122.002 52.28 52.277 93.327 113.16 122.002 180.955 29.692 70.201 44.748 144.763 44.748 221.61s-15.056 151.409-44.748 221.609c-28.675 67.798-69.722 128.682-122.002 180.958-52.276 52.276-113.161 93.324-180.958 122.001-70.201 29.692-144.762 44.75-221.609 44.75zm0-1096.688c-290.792 0-527.37 236.576-527.37 527.37s236.577 527.369 527.37 527.369c290.794 0 527.373-236.575 527.373-527.369s-236.579-527.37-527.373-527.37z"/><path d="m569.316 1081.151c-136.716 0-265.25-53.239-361.923-149.913-96.673-96.672-149.913-225.206-149.913-361.923 0-136.718 53.24-265.25 149.913-361.922 96.674-96.675 225.207-149.914 361.923-149.914s265.25 53.238 361.923 149.914c96.672 96.674 149.912 225.207 149.912 361.922 0 136.717-53.24 265.251-149.912 361.923-96.672 96.674-225.207 149.913-361.923 149.913zm0-1012.797c-276.231 0-500.96 224.73-500.96 500.962 0 276.23 224.729 500.961 500.96 500.961 276.232 0 500.96-224.73 500.96-500.961 0-276.232-224.728-500.962-500.96-500.962z"/></g></svg>