<svg id="Layer_17" data-name="Layer 17" xmlns="http://www.w3.org/2000/svg" viewBox="0 0 75.45 47.97"><defs><style>.cls-1{fill:#fff;}</style></defs><title>bike_photo_placeholder</title><path class="cls-1" d="M1995.41,3036.29a14,14,0,1,1,14-14A14,14,0,0,1,1995.41,3036.29Zm0-25a11,11,0,1,0,11,11A11,11,0,0,0,1995.41,3011.3Z" transform="translate(-1981.42 -2988.32)"/><path class="cls-1" d="M2042.87,3036.29a14,14,0,1,1,14-14A14,14,0,0,1,2042.87,3036.29Zm0-25a11,11,0,1,0,11,11A11,11,0,0,0,2042.87,3011.3Z" transform="translate(-1981.42 -2988.32)"/><path class="cls-1" d="M2016.64,3023.8h-21.23a1.5,1.5,0,0,1-1.13-2.48l13.35-15.4-3.59-8a1.5,1.5,0,1,1,2.74-1.23l3.44,7.65,23.35-7.15a1.5,1.5,0,0,1,1.65,2.32l-17.35,23.65,0,0h0a1.49,1.49,0,0,1-.84.53l-0.18,0h-0.15Zm-17.95-3h15.63l-5.34-11.87Zm12.76-13.69,5.5,12.23,13.16-17.94Z" transform="translate(-1981.42 -2988.32)"/><path class="cls-1" d="M2011.65,2998.81h-10a1.5,1.5,0,0,1,0-3h10A1.5,1.5,0,0,1,2011.65,2998.81Z" transform="translate(-1981.42 -2988.32)"/><path class="cls-1" d="M2042.87,3023.8a1.5,1.5,0,0,1-1.4-1l-11.24-30a1.5,1.5,0,0,1,.93-1.95l7.49-2.5a1.5,1.5,0,1,1,.95,2.85l-6,2,10.69,28.52A1.5,1.5,0,0,1,2042.87,3023.8Z" transform="translate(-1981.42 -2988.32)"/></svg>