<svg id="Layer_10" data-name="Layer 10" xmlns="http://www.w3.org/2000/svg" viewBox="0 0 40.09 40.09"><defs><style>.cls-1{fill:#a4a4a4;}</style></defs><title>facebook</title><g id="Facebook"><path class="cls-1" d="M3391.42,3116.14a20,20,0,1,1,20-20A20.07,20.07,0,0,1,3391.42,3116.14Zm0-38.57a18.52,18.52,0,1,0,18.52,18.52A18.54,18.54,0,0,0,3391.42,3077.58Z" transform="translate(-3371.37 -3076.05)"/><path id="Facebook-2" data-name="Facebook" class="cls-1" d="M3400.59,3104a1,1,0,0,1-1,1h-4.75v-7.22h2.42l0.36-2.81h-2.79v-1.8a1.17,1.17,0,0,1,1.39-1.37h1.49v-2.52a19.91,19.91,0,0,0-2.17-.11,3.39,3.39,0,0,0-3.62,3.72V3095h-2.43v2.81h2.43v7.22H3383a1,1,0,0,1-1-1v-16.59a1,1,0,0,1,1-1h16.59a1,1,0,0,1,1,1V3104Z" transform="translate(-3371.37 -3076.05)"/></g></svg>