<svg width="39" height="38" viewBox="0 0 39 38" fill="none" xmlns="http://www.w3.org/2000/svg">
  <path fill-rule="evenodd" clip-rule="evenodd" d="M29.0601 9.07195C31.7956 11.7659 33.1633 15.3043 33.1633 18.843H38.2723C38.2723 14.0207 36.4042 9.19851 32.6681 5.51911L32.6677 5.51879C28.9319 1.83939 24.035 0 19.1387 0V5.03107C22.7316 5.03107 26.3249 6.37803 29.0601 9.07195Z" fill="#FFF"/>
<path fill-rule="evenodd" clip-rule="evenodd" d="M2.58016 28.2838L7.00099 25.7629C5.19828 22.6959 4.58218 18.9521 5.5851 15.2664C6.58483 11.5924 9.00683 8.66041 12.1116 6.89012L9.55182 2.53613C5.32074 4.94866 2.0221 8.94777 0.656595 13.966C-0.713054 18.9999 0.122767 24.1038 2.58016 28.2838Z" fill="#FFF"/>
<path fill-rule="evenodd" clip-rule="evenodd" d="M9.81152 35.2903C14.0069 37.5983 19.0818 38.3655 24.0903 37.0437C29.1859 35.6989 33.2467 32.4504 35.6965 28.2836L31.2753 25.7627C29.4777 28.8203 26.5005 31.2055 22.7698 32.19C19.1028 33.1576 15.3804 32.5923 12.3021 30.8987L9.81152 35.2903Z" fill="#FFF"/>
</svg>
