<svg id="Layer_10" data-name="Layer 10" xmlns="http://www.w3.org/2000/svg" viewBox="0 0 40.09 40.09"><defs><style>.cls-1{fill:#a4a4a4;}</style></defs><title>instagram</title><g id="Instagram"><path id="Instagram-2" data-name="Instagram" class="cls-1" d="M3558.16,3083.19H3544a2.21,2.21,0,0,0-2.21,2.21v14.2a2.21,2.21,0,0,0,2.21,2.21h14.19a2.21,2.21,0,0,0,2.21-2.21v-14.2A2.21,2.21,0,0,0,3558.16,3083.19Zm-3,2.91a0.58,0.58,0,0,1,.58-0.58h1.75a0.58,0.58,0,0,1,.58.58v1.75a0.58,0.58,0,0,1-.58.58h-1.75a0.58,0.58,0,0,1-.58-0.58v-1.75Zm-4.05,2.85a3.57,3.57,0,1,1-3.58,3.57A3.58,3.58,0,0,1,3551.08,3089Zm7.54,10.53a0.58,0.58,0,0,1-.58.58h-14a0.58,0.58,0,0,1-.58-0.58v-8.73h2.33a3.55,3.55,0,0,0-.41,1.77,5.66,5.66,0,0,0,11.33,0,3,3,0,0,0-.45-1.77h2.33v8.73Z" transform="translate(-3530.53 -3072.51)"/><path class="cls-1" d="M3550.58,3112.6a20,20,0,1,1,20-20A20.07,20.07,0,0,1,3550.58,3112.6Zm0-38.57a18.52,18.52,0,1,0,18.52,18.52A18.54,18.54,0,0,0,3550.58,3074Z" transform="translate(-3530.53 -3072.51)"/></g></svg>