<svg viewBox="0 0 33.89 47.79" xmlns="http://www.w3.org/2000/svg"><g fill="#3498db"><circle cx="16.94" cy="30.07" r=".77"/><path d="m11740.89 1368a2.27 2.27 0 1 1 2.27-2.27 2.28 2.28 0 0 1 -2.27 2.27zm0-3a.73.73 0 1 0 .73.73.73.73 0 0 0 -.73-.73z" transform="translate(-11723.95 -1335.67)"/><path d="m15.44 30.85h3v5.84h-3z"/><g transform="translate(-11723.95 -1335.67)"><path d="m11756.34 1383.46h-30.89a1.5 1.5 0 0 1 -1.5-1.5v-26.26a1.5 1.5 0 0 1 1.5-1.5h30.89a1.5 1.5 0 0 1 1.5 1.5v26.3a1.5 1.5 0 0 1 -1.5 1.46zm-29.39-3h27.89v-23.26h-27.89z"/><path d="m11753.2 1355.7h-3v-7c0-4.87-3.74-10.08-9.31-10.08s-9.31 5.21-9.31 10.08v7h-3v-7c0-7.09 5.64-13.08 12.31-13.08s12.31 6 12.31 13.08z"/></g></g></svg>