<svg xmlns="http://www.w3.org/2000/svg" viewBox="0 0 33.89 47.79">
  <defs>
    <style>
      .a {
        fill: #3498db;
      }
    </style>
  </defs>
  <title>lock_icon</title>
  <g>
    <g>
      <circle class="a" cx="16.94" cy="30.07" r="0.77"/>
      <path class="a" d="M11740.89,1368a2.27,2.27,0,1,1,2.27-2.27A2.28,2.28,0,0,1,11740.89,1368Zm0-3a0.73,0.73,0,1,0,.73.73A0.73,0.73,0,0,0,11740.89,1365Z" transform="translate(-11723.95 -1335.67)"/>
    </g>
    <rect class="a" x="15.44" y="30.85" width="3" height="5.84"/>
    <path class="a" d="M11756.34,1383.46h-30.89a1.5,1.5,0,0,1-1.5-1.5V1355.7a1.5,1.5,0,0,1,1.5-1.5h30.89a1.5,1.5,0,0,1,1.5,1.5V1382A1.5,1.5,0,0,1,11756.34,1383.46Zm-29.39-3h27.89V1357.2h-27.89v23.26Z" transform="translate(-11723.95 -1335.67)"/>
    <path class="a" d="M11753.2,1355.7h-3v-7c0-4.87-3.74-10.08-9.31-10.08s-9.31,5.21-9.31,10.08v7h-3v-7c0-7.09,5.64-13.08,12.31-13.08s12.31,6,12.31,13.08v7Z" transform="translate(-11723.95 -1335.67)"/>
  </g>
</svg>
