<svg id="Wireframes" xmlns="http://www.w3.org/2000/svg" viewBox="0 0 54.86 11.53"><defs><style>.cls-1{fill:#fff;}</style></defs><title>strava_login</title><path class="cls-1" d="M2422,1967.52a9.6,9.6,0,0,1-2.92-.43,6.48,6.48,0,0,1-2.33-1.3l1.83-2.18a5.44,5.44,0,0,0,1.76.92,6.31,6.31,0,0,0,1.83.28,1.45,1.45,0,0,0,.67-0.12,0.36,0.36,0,0,0,.2-0.32v0a0.43,0.43,0,0,0-.3-0.37,5.19,5.19,0,0,0-1.12-.31q-0.86-.18-1.65-0.41a5.66,5.66,0,0,1-1.38-.6,2.89,2.89,0,0,1-.95-0.92,2.5,2.5,0,0,1-.35-1.36v0a3.24,3.24,0,0,1,.29-1.36,3.1,3.1,0,0,1,.83-1.1,4,4,0,0,1,1.36-.73,6,6,0,0,1,1.87-.26,8.73,8.73,0,0,1,2.61.35,6.23,6.23,0,0,1,2,1.05l-1.67,2.31a5.14,5.14,0,0,0-1.54-.77,5.37,5.37,0,0,0-1.53-.24,1.06,1.06,0,0,0-.56.12,0.35,0.35,0,0,0-.18.31v0a0.42,0.42,0,0,0,.28.35,4.69,4.69,0,0,0,1.08.31,15.21,15.21,0,0,1,1.79.42,5.29,5.29,0,0,1,1.38.64,2.82,2.82,0,0,1,.89.93,2.59,2.59,0,0,1,.31,1.32v0a3.18,3.18,0,0,1-.32,1.45,3.1,3.1,0,0,1-.91,1.09,4.31,4.31,0,0,1-1.42.69,6.7,6.7,0,0,1-1.87.24h0Z" transform="translate(-2416.72 -1956.44)"/><polygon class="cls-1" points="12.61 3.54 9.59 3.54 9.59 0.64 19.05 0.64 19.05 3.54 16.03 3.54 16.03 10.89 12.61 10.89 12.61 3.54"/><path class="cls-1" d="M2441.16,1962a1.58,1.58,0,0,0,1-.26,0.87,0.87,0,0,0,.35-0.73v0a0.83,0.83,0,0,0-.35-0.74,1.65,1.65,0,0,0-1-.24h-1.49v2h1.48Zm-4.91-4.88h5a6.86,6.86,0,0,1,2.26.32,3.76,3.76,0,0,1,1.43.86,3.12,3.12,0,0,1,.7,1.05,3.72,3.72,0,0,1,.23,1.38v0a3.23,3.23,0,0,1-.54,1.9,3.73,3.73,0,0,1-1.48,1.23l2.39,3.48h-3.91l-1.93-2.93h-0.73v2.93h-3.43v-10.25h0Z" transform="translate(-2416.72 -1956.44)"/><polygon class="cls-1" points="49.35 6.48 51.58 10.89 54.86 10.89 49.35 0 43.83 10.89 47.12 10.89 49.35 6.48"/><polygon class="cls-1" points="33.99 6.48 36.23 10.89 39.51 10.89 33.99 0 28.48 10.89 31.76 10.89 33.99 6.48"/><polygon class="cls-1" points="41.67 5.05 39.44 0.64 36.15 0.64 41.67 11.53 47.19 0.64 43.91 0.64 41.67 5.05"/></svg>