<svg id="Layer_10" data-name="Layer 10" xmlns="http://www.w3.org/2000/svg" viewBox="0 0 40.09 40.09"><defs><style>.cls-1{fill:#a4a4a4;}</style></defs><title>twitter</title><g id="Twitter"><path id="Twitter-2" data-name="Twitter" class="cls-1" d="M3496.6,3084.81a7.69,7.69,0,0,1-2.48,1,3.85,3.85,0,0,0-2.85-1.26,4,4,0,0,0-3.9,4,4.08,4.08,0,0,0,.1.91,11,11,0,0,1-8-4.18,4.07,4.07,0,0,0-.53,2,4,4,0,0,0,1.74,3.33,3.83,3.83,0,0,1-1.77-.5v0a4,4,0,0,0,3.13,3.92,3.72,3.72,0,0,1-1,.14,3.79,3.79,0,0,1-.73-0.07,3.92,3.92,0,0,0,3.65,2.78,7.71,7.71,0,0,1-4.85,1.71,7.81,7.81,0,0,1-.93-0.05,10.87,10.87,0,0,0,6,1.8c7.18,0,11.1-6.1,11.1-11.39,0-.17,0-0.35,0-0.52a8,8,0,0,0,1.95-2.07,7.62,7.62,0,0,1-2.24.63A4,4,0,0,0,3496.6,3084.81Z" transform="translate(-3467.8 -3072.51)"/><path class="cls-1" d="M3487.85,3112.6a20,20,0,1,1,20-20A20.07,20.07,0,0,1,3487.85,3112.6Zm0-38.57a18.52,18.52,0,1,0,18.52,18.52A18.54,18.54,0,0,0,3487.85,3074Z" transform="translate(-3467.8 -3072.51)"/></g></svg>