<svg enable-background="new 0.001 0 278 626" height="626" viewBox=".001 0 278 626" width="278" xmlns="http://www.w3.org/2000/svg"><g clip-rule="evenodd" fill-rule="evenodd"><path d="m144.654 84.625c-8.822 4.486-16.955 9.66-25.921 14.003-1.633-18.738-.329-39.236-1.489-58.396-.239-3.949-.443-8.699-1.49-12.216-.318-1.07-1.434-1.921-1.787-2.979-.658-1.972-.409-4.758-.596-7.151-.299-3.826-1.311-7.586-.895-12.811 7.432-1.707 16.361-1.913 24.134-3.277 2.741 1.001 4.421 4.077 4.767 8.342 1.521 18.789 3.054 42.014 3.873 60.482.201 4.511-.322 10.292-.596 14.003z" fill="#fff"/><path d="m110.094 2.989c1.199 6.294.458 13.296 1.489 19.962.416 2.686 1.765 4.909 2.384 7.449 2.008 8.242 1.557 16.642 1.787 25.623.312 12.136.688 24.68.895 37.54.188 11.752 1.413 23.271 2.682 34.562 1.318 11.749 2.973 23.021 2.979 33.965.004 6.185 1.086 12.927 1.49 19.366.316 5.032-.07 10.021-.298 15.195-.407 9.241.903 19.657 2.085 29.198.805 6.489.478 13.524.596 20.26.13 7.314.193 14.588.596 22.048-2.726-.87-6.872-1.001-9.235-.597-1.011-13.854-1.819-28.22-1.788-42.604.017-7.46-.466-13.749-.894-22.346-.353-7.087-2.585-13.982-2.979-20.856-.123-2.146.151-4.175 0-6.256-.143-1.977-.765-3.964-.895-5.959-.398-6.187.571-12.789.597-18.771.042-9.774-1.779-19.331-2.086-29.497-.145-4.806-1.604-9.674-2.085-14.599-.46-4.713-.328-9.513-.596-14.301-.541-9.633-2.564-19.214-2.682-28.9-.016-1.267.301-2.649.298-3.873-.044-16.622-4.688-32.695-4.171-49.458-1.001-1.937-1.244-2.791-1.191-5.661 3.612-.558 7.074-1.266 11.022-1.49z" fill="#95a5a6"/><path d="m236.718 235.978c4.084 2.995 5.077 11.165 3.575 18.472-.811 3.945-2.931 7.854-.596 12.217 1.273 2.379 3.704 2.333 5.065 5.064-4.311 4.49-7.289-3.715-7.747-7.448-.635-5.184 2.314-11.912.895-17.281-2.444-9.237-11.414.339-14.6 3.874-6.852 11.721-14.883 22.259-22.941 32.773-2.773 1.3-5.936 2.841-8.641 1.191-.357-2.207 2.043-3.065 2.98-4.469 2.344-3.516 3.494-7.15 6.256-10.428 3.895-4.623 8.071-9.709 11.322-15.195 8.661-5.741 12.749-16.052 24.432-18.77z" fill="#95a5a6"/><path d="m185.77 266.368c1.643 6.241 1.863 11.57 3.576 16.982-1.581 1.971-4.404 1.324-6.854 1.788-3.061.579-5.836 2.907-8.64 2.085.196-4.642-1.817-11.224-2.979-16.387 4.528-1.699 10.006-5.048 14.897-4.468z" fill="#fff"/><path d="m180.407 288.713c-.549 1.735-2.89 1.679-3.874 2.979-8.668.171-13.205 7.618-21.451 6.555-3.906-.504-8.961-5.052-12.811-7.746-4.188-2.933-8.957-5.364-12.515-7.747-3.868-2.591-6.843-6.383-11.619-8.045-3.818.75-6.273 2.863-9.235 4.47-.908-.482-1.27-1.513-1.789-2.384.684-1.965 3.213-2.814 5.363-3.873 1.896-.933 4.143-2.512 5.959-2.979 4.68-1.206 7.05 1.457 10.428 3.873 6.229 6.781 14.65 11.37 21.154 17.876 8.16.705 14.621-1.519 21.153-3.277 2.213 2.218 5.898.911 9.237.298z" fill="#95a5a6"/><path d="m103.539 277.392c2.551.629 3.944 4.538 2.383 7.448-1.146 2.137-5.459 4.803-8.342 7.448-1.985 1.822-7.228 6.919-8.938 6.853-3.442-.132-4.084-7.084-1.788-9.832 1.268-1.517 4.959-1.405 6.854-2.682 4.229-2.847 6.31-7.333 9.831-9.235z" fill="#95a5a6"/><path d="m118.436 277.987c3.671 1.602 8.318 3.355 9.534 6.854 1.021 2.935.285 8.127.596 12.812.346 5.206 1.528 10.548 2.086 16.089.926 9.188.872 17.975 2.384 27.112 1.264 7.645 1.68 15.122 2.085 23.239.37 7.393 3.164 15.484 1.49 22.644-.605 2.588-2.361 5.53-3.575 7.746-1.398 2.553-2.33 5.249-4.172 6.853-1.111-12.093-2.311-23.828-2.979-36.944-.106-2.113-.118-4.171-.298-6.257-.144-1.678-1.002-3.326-1.191-5.064-.674-6.203-.002-12.568-.299-18.473-.145-2.905-.868-5.803-1.191-8.641-.507-4.453-.28-8.951-.596-13.406-.361-5.122-2.142-10.086-2.681-15.195-.644-6.088-.425-12.371-1.192-18.473-.001-.3-.001-.597-.001-.896z" fill="#95a5a6"/><path d="m92.217 284.542c-5.725.391-10.093 5.239-9.533 11.321.424 4.622 5.726 8.296 9.831 4.172 1.042 2.545-1.827 3.734-3.277 5.064-3.642 3.344-7.301 7.543-12.215 9.832-4.622 4.416-8.616 9.459-18.175 8.938-6.644-3.784-8.343-12.513-9.832-21.452 6.011-10.375 18.953-13.82 29.198-19.962 1.152.159 1.455-.532 2.682-.298 1.943-1.541 6.152-2.363 8.64-.894 1.008.98 2.049 1.925 2.681 3.279z" fill="#1a1a1a"/><path d="m197.39 335.192c-.905.789-3.585 1.371-5.064.596-3.206-2.861-3.994-9.043-5.661-14.896-2-7.024-3.74-12.244-5.66-19.068-.832-2.951-2.649-6.373-2.086-8.342.74-2.592 5.486-3.391 7.448-3.874.981 1.7.833 4.53 2.384 5.661 1.247 11.577 5.372 22.823 7.448 34.562.14.854 1.188.799 1.489 1.489.091 1.48-.047 2.732-.298 3.872z" fill="#3498db"/><path d="m177.428 300.929c1.711.275 1.312 2.66 2.086 3.873-7.742 10.333-13.971 22.181-22.047 32.178-1.906 3.978-4.545 7.49-7.152 11.023-4.443 6.026-7.395 13.048-13.108 17.876-.291-6.892 4.833-9.854 8.044-14.896 7.176-11.267 13.807-22.715 21.75-32.476 3.155-6.178 6.999-11.671 10.427-17.578z" fill="#3498db"/><path d="m72.255 323.274c.481-.084.514.282.894.299-2.158 15.553-2.752 30.641-5.959 44.69-.217.953-.1 2.905-1.489 3.278-2.677-1.713.072-4.023.596-5.959.763-2.818.924-6.82 1.49-10.727 1.404-9.684 1.919-22.224 4.469-30.688-.001-.296-.001-.594-.001-.893z" fill="#3498db"/><path d="m69.275 324.466c.346-.048.53.065.596.298-1.509 6.277-2.305 12.934-4.171 19.068-.569 1.872-2.002 3.475-2.384 5.363-.177.879.259 1.773 0 2.682-.498 1.751-1.578 3.348-2.085 5.064-.588 1.986-.654 3.955-1.192 5.959-1.14 4.25-3.098 8.305-3.574 12.811-.447 4.22-1.572 6.084-2.385 10.131-2.319 11.564-6.191 22.742-8.044 34.561-1.821 2.053-1.16 6.586-4.767 6.854-1.037-1.555.87-3.326 0-4.768 5.73-13.681 8.568-28.633 12.215-43.797.797-3.313 2.223-6.84 2.98-10.131.273-1.193.283-2.406.595-3.574.946-3.539 2.556-6.922 3.575-10.428 1.012-3.476 1.138-7.057 1.788-10.429 1.319-6.832 4.876-13.444 6.853-19.664z" fill="#3498db"/><path d="m216.756 325.36c1.664 2.8-.407 3.046-2.979 4.47-2.665 1.476-8.204 4.321-11.024 6.257-4.795 3.293-8.16 7.639-12.215 11.321 1.082-3.387 2.581-6.356 4.469-8.938 4.658.245 5.785-4.486 4.768-8.938 4.963-1.998 10.367-6.582 16.981-4.172z" fill="#b3b3b3"/><path d="m186.068 327.148c.995 2.815-1.219 4.646-2.682 5.958-2.141 5.309-6.66 8.938-9.832 13.408-3.203 4.514-5.406 9.616-9.236 13.705-3.185 4.408-6.578 8.732-9.533 13.407-2.958 4.678-5.794 9.463-9.236 13.705 1.061-4.222 3.331-7.735 5.064-11.321 1.736-3.594 4.043-7.066 5.363-10.727.418-1.158.135-2.684.596-3.873.375-.969 1.453-1.443 2.383-2.682 2.142-2.848 3.752-5.821 6.258-8.64 1.521-1.712 3.352-3.198 4.767-5.065 2.825-3.728 5.859-7.162 8.938-10.726 2.345-2.714 3.485-5.519 6.257-7.448.481-.083.512.282.893.299z" fill="#3498db"/><path d="m79.703 329.532c4.719 5.234 8.006 11.807 12.216 18.174.738 1.115 1.914 1.867 2.682 2.979 1.212 1.755 1.712 4.235 2.979 6.257 2.295 3.66 4.907 7.154 7.449 11.023 2.26 3.443 4.451 6.649 6.852 10.428-.588 1.002-.752 2.426-1.787 2.979-5.133-6.189-8.373-14.271-13.706-20.26.239-1.034-.443-1.146-.298-2.085-4.86-7.058-9.463-14.372-12.812-22.941-.211-1.08-1.651-.931-2.085-1.788-.145-1.94-1.318-2.852-1.49-4.766z" fill="#3498db"/><path d="m183.089 426.362c6.016 14.891 15.575 28.551 26.219 42.902 5.056 6.818 9.321 12.898 15.493 19.068 1.371 1.371 2.658 2.971 4.171 4.471 3.546 3.51 9.479 9.672 14.003 11.619 6.523 2.807 16.256-2.221 19.366-6.555 1.457-2.029 2.591-6.684 3.575-10.131 3.301-11.547 3.236-28.375 2.979-41.711-.255-13.184-4.44-26.105-7.746-38.137-1.327-4.83-3.095-9.514-4.767-14.002-3.764-10.104-7.119-19.402-11.62-26.219-2.548-3.857-6.389-9.094-9.236-11.918-2.667-2.646-7.029-4.778-11.023-7.15-1.626-.967-3.878-2.131-5.959-2.98-6.134-2.502-12.835-4.337-20.856-2.383 1.496-3.339 5.692-5.262 8.641-6.555 4.699-2.062 12.146 2.397 17.28 5.064 12.306 6.394 25.422 14.137 32.178 26.219 7.114 12.722 11.362 29.759 14.599 45.585 2.562 12.525 3.879 25.503 5.363 39.031.493 4.488 1.346 9.117 1.191 13.109-.334 8.691-2.437 20.275-4.469 28.006-.787 2.996-3.414 5.889-5.363 8.938-3.682 5.768-8.239 11.092-16.088 12.217-8.021 1.148-16.698-2.613-22.048-7.746-2.066-1.982-3.112-4.551-5.661-7.449-3.107-3.533-6.932-6.988-10.428-11.023-3.188-3.678-6.305-7.861-9.236-11.918-2.879-3.984-6.258-8.297-8.938-12.514-2.839-4.463-6.139-9.639-7.151-14.002-.315-1.361.003-2.711-.298-4.172-.331-1.611-1.347-3.098-1.787-4.768-1.242-4.7-1.105-9.927-2.384-14.896z" fill="#333"/><path d="m81.193 339.364c8.59 17.131 16.344 35.1 22.941 54.225-1.869-.279-2.266.912-3.576 1.191-7.208-18.373-13.165-36.313-19.365-55.416z" fill="#3498db"/><path d="m189.941 341.151c.453 1.551-1.258 3.504-1.788 5.064-.516-1.615.915-3.847 1.788-5.064z" fill="#3498db"/><path d="m205.732 345.024c1.325-.233 1.788.396 2.979.299 7 25.178 16.363 49.58 22.346 74.784-3.121.018-2.9-5.823-5.064-7.748-4.104-11.76-6.659-25.221-10.428-38.435-2.863-10.041-5.1-20.28-9.534-28.006-.349-.048-.252-.543-.299-.894z" fill="#3498db"/><path d="m187.855 347.408c.581 1.384.144 4.308-.596 5.362-1.244-.935.109-4.197.596-5.362z" fill="#3498db"/><path d="m184.578 348.301c1.559.232-.101 3.433 0 5.363.07 1.32.93 2.623.895 3.575-.1 2.687-2.212 6.194-3.277 9.534-1.65 5.169-3.309 10.273-3.874 15.791-1.888 18.427 1.327 36.311 3.874 53.034.367 2.416.91 5.277 1.489 7.746.414 1.764 2.489 4.461.298 6.258-1.443-1.195-1.506-2.965-2.383-4.471-3.461-5.943-5.566-13.877-7.449-22.643-1.86-8.663-3.123-15.875-2.682-25.921.5-11.365 2.93-20.536 5.661-29.496 1.917-6.287 4.716-11.583 7.15-17.28.121-.281-.159-1.191.298-1.49z" fill="#b3b3b3"/><path d="m144.356 349.196c-.946 3.045-3.945 5.563-7.448 5.064-.779-1.422-.879-4.322.298-5.363 2.649.496 5.55-1.027 7.15.299z" fill="#4d4d4d"/><path d="m135.12 403.42c-1.213-.078-2.021-.561-2.979-.894.159-4.271 3.291-7.788 5.065-11.918 2.323-5.405 5.312-9.864 8.044-15.194.884-1.723 2.064-3.551 2.682-5.065 1.805-4.43 3.429-10.517-1.787-12.216.961-1.621 1.044-4.12 3.277-4.469 8.953 5.921 1.579 15.686-2.086 23.537-2.574 5.516-5.057 10.624-6.555 15.493-1.959 1.815-2.335 5.213-4.171 7.15-.464 1.225-.637 2.74-1.49 3.576z" fill="#4d4d4d"/><path d="m188.451 355.154c1.521 10.431 5.918 20.331 8.938 29.794 1.569 4.916 1.892 10.094 3.277 14.897 1.683 5.829 4.114 11.62 6.556 16.982 2.441 5.365 5.778 10.593 5.959 16.685-2.084-2.615-2.984-6.154-4.172-9.236-3.449-8.954-7.688-18.944-11.023-28.9-3.113-13.374-7.405-25.567-10.429-39.03.614-.082.281-1.11.894-1.192z" fill="#3498db"/><path d="m123.501 362.602c.481-.084.513.282.894.299.353 1.424-.392 4.441.298 6.257-1.25.438-1.557 1.819-2.979 2.085-.078 1.609-.627 2.75-1.787 3.277-.562 4.919-4.334 7.754-6.555 11.62-1.78 3.097-2.452 7.22-5.959 8.342 3.192-12.796 11.165-20.814 16.088-31.88z" fill="#4d4d4d"/><path d="m89.834 405.506c-1.717 1.064-3.264 2.299-6.258 2.085-3.04-15.829-14.74-22.997-25.324-31.283.104-1.684.646-2.931.894-4.47h.894c8.809 3.248 17.834 10.051 24.729 16.982 3.813 3.835 7.337 8.58 5.065 16.686z" fill="#b3b3b3"/><path d="m52.591 377.797c-8.46-1.031-15.235 1.952-21.153 3.873-1.275-2.35 2.414-4.707 5.064-6.256 4.699-2.747 14.014-4.441 16.089 2.383z" fill="#333"/><path d="m29.352 381.969c-1.471 6.771-6.671 9.814-9.534 15.195-.61 2.667-1.788 4.766-3.277 6.554-1.718 5.433-3.915 10.386-4.171 17.281-1.498.287-3.624-1.58-5.363-1.191 4.73-14.582 12.536-26.231 20.855-37.243.227-.301.434-.538.597-.895.48-.084.512.282.893.299z" fill="#333"/><path d="m63.019 384.948c4.66.52 2.447 5.162 1.489 9.236-.64 2.725-.699 5.165-.893 7.15-.539 5.525-2.198 11.729-2.682 17.579-.393 4.738-.055 9.363-2.086 12.513-1.502-1.773-.337-4.479 0-6.555 1.091-6.736 1.181-13.278 1.787-21.749.444-6.186 1.989-12.606 2.385-18.174z" fill="#3498db"/><path d="m138.993 409.081c1.227 3.258-.946 6.572-3.873 6.854-2.12.203-4.909-1.629-6.853-2.384-2.168-.842-4.578-2.034-7.448-2.979-8.636-2.843-16.751-3.408-19.962-10.13.363-3.022 3.904-6.649 6.256-3.276 10.322.115 16.287 7.145 26.219 8.64 1.215 1.763 3.578 2.38 5.661 3.275z" fill="#f39c12"/><path d="m86.854 409.677c.553.64.202 2.183.299 3.277-1.57.019-2.188.991-3.874.894-.433-1.254-1.01-2.366-1.191-3.873 1.799.111 3.291-.084 4.766-.298z" fill="#333"/><path d="m126.182 416.53c.276 1.566-2.143.438-2.681 1.192-4.597 3.025-4.227 13.589 1.489 14.896 1.284.135 2.107-1.25 2.979-.596.444 4.432 1.316 10.721 1.489 16.387-.967.225-1.305 1.078-1.787 1.789-1.244.066-1.407-.486-2.383 0-4.936 2.338-10.158 3.535-14.897 2.979-14.667-1.719-15.437-28.355-8.045-39.03 1.483-2.143 4.639-2.103 6.853-3.873 5.619 2.126 12.444 3.05 16.983 6.256zm-24.729 2.086c-2.695 5.34 1.4 13.311 8.342 13.11 6.293-.184 10.83-8.857 7.15-14.003-1.836-2.571-6.248-3.724-11.023-2.683-2.797.611-3.338 1.335-4.469 3.576zm2.383 19.961c-1.832 3.617 1.086 9.393 3.874 11.621 5.871 4.691 17.137.932 16.982-6.258-.116-5.42-6.758-9.943-12.216-9.533-.184.014-.329.301-.298.297-4.51.367-7.378 1.975-8.342 3.873z" fill="#b3b3b3"/><path d="m105.922 415.04c4.775-1.041 9.188.111 11.023 2.683 3.68 5.146-.857 13.82-7.15 14.003-6.941.201-11.037-7.77-8.342-13.11 1.131-2.241 1.672-2.965 4.469-3.576zm-.298 1.788c-5.81 2.378-1.919 13.279 4.47 12.812 2.379-.174 3.654-2.154 5.959-3.873 1.63-7.251-5.282-11.046-10.429-8.939z"/><path d="m88.344 457.349c-.075-13.797-2.347-28.322-4.171-40.521.167-.429.464-.727.894-.894 1.319-.326 1.481.505 2.384.596.751 1.434 1.087 3.284 2.085 4.469 1.333 8.254 1.771 18.893 2.086 29.496.083 2.82 1.057 7.475-3.278 6.854z" fill="#333"/><path d="m4.92 416.232c.657 2.371-1.113 7.408-2.085 10.13-1.379-3.172 1.518-6.437 2.085-10.13z" fill="#fff"/><path d="m137.206 418.317c1.555 24.36 5.099 47.899 5.958 72.102.233 6.559 1.383 12.918 1.788 19.367.257 4.072.13 7.754.895 11.619.211 1.066.997 2.137 1.191 3.277 1.425 8.357-.472 17.76 1.192 26.516-1.93.574-5.482.367-7.449 0-1.771-2.002-1.64-5.906-3.277-8.043.529-3.002-.664-6.324-.894-8.939-.939-10.713.62-21.352 0-31.582-.798-13.158-1.751-25.781-3.575-38.434-2.215-15.357-1.824-30.908-4.47-46.18 0-.199 0-.397 0-.596 1.763.479 6.505 2.405 8.641.893z" fill="#95a5a6"/><path d="m12.07 423.979c-.566 10.77-.591 21.428 1.192 31.582 1.297 7.379 1.511 14.475 3.575 22.047 2.266 8.311 5.066 18.783 9.832 25.92 2.311 3.461 10.609 8.824 15.195 9.535 2.602.402 5.741-.225 8.342-.596 2.653-.381 5.381-.988 7.449-1.789 18.692-7.234 31.62-24.979 30.985-50.648 5.87-.236 2.526 9.613 2.085 14.002-1.201 11.977-4.51 20.146-9.235 28.9-4.196 7.773-8.123 12.607-16.685 15.791-6.661 2.477-13.563 3.068-20.856 2.682-14.523-.77-22.781-8.551-27.708-19.664-1.623-3.66-3.518-7.748-4.469-11.619-.425-1.727-.251-3.607-.596-5.363-1.108-5.643-2.965-11.912-3.576-18.473-.636-6.824-.872-14.256-.894-20.855-.015-4.477.438-8.611.894-14.004.41-4.823-.211-11.033 4.47-7.448z" fill="#333"/><path d="m222.119 426.659c-2.803.873-3.619 3.732-6.555 4.471.725-2.576 4.87-4.832 6.555-4.471z" fill="#fff"/><path d="m44.845 429.64c1.966-.336 3.969-.611 5.362-.297 3.461.779 4.726 4.875 7.747 4.766.94 1.543 1.755 3.211 3.873 3.576 5.579 12.652-4.048 27.76-14.599 29.793-11.835 2.281-20.031-10.326-17.281-23.834 1.314-6.457 5.716-10.877 11.322-13.707 1.388.154 2.657.584 3.576-.297zm-10.726 21.75c.153 1.158 1.049 2.176 1.489 3.574.357 1.139.192 2.459.596 3.277 1.434 2.912 5.474 3.928 9.832 3.576 4.991-1.627 9.542-5.068 10.726-10.727.119-.568-.362-1.381-.297-2.086.163-1.785 1.084-3.477.893-4.766-.629-4.252-4.446-6.877-6.554-9.832-2.005.408-2.938-1.82-4.171-1.191-6.304 2.075-13.738 8.95-12.514 18.175z" fill="#666"/><path d="m46.633 433.216c1.232-.629 2.166 1.6 4.171 1.191 2.107 2.955 5.925 5.58 6.554 9.832.191 1.289-.729 2.98-.893 4.766-.065.705.416 1.518.297 2.086-1.184 5.658-5.734 9.1-10.726 10.727-4.358.352-8.398-.664-9.832-3.576-.403-.818-.238-2.139-.596-3.277-.44-1.398-1.336-2.416-1.489-3.574-1.224-9.226 6.21-16.101 12.514-18.175zm-3.278 4.765c-2.168 1.193-5.444 5.123-5.959 7.449-.947 4.279.34 10.178 2.681 11.918 1.797 1.334 6.856 1.141 9.534-.299 2.801-1.506 5.885-9.232 5.065-13.109-.597-2.818-5.192-6.965-7.747-6.852-1.081.048-2.596.356-3.574.893z"/><path d="m112.179 434.704c-.031.004.114-.283.298-.297 5.458-.41 12.1 4.113 12.216 9.533.154 7.189-11.111 10.949-16.982 6.258-2.788-2.229-5.706-8.004-3.874-11.621.963-1.898 3.831-3.506 8.342-3.873zm-6.257 6.258c-.626 7.664 11.158 11.824 15.791 5.66 1.942-5.006-2.639-8.152-6.257-9.533-1.117-.225-.649 1.137-1.489 1.191-3.401-2.857-7.772-.65-8.045 2.682z"/><path d="m46.93 437.089c2.555-.113 7.15 4.033 7.747 6.852.819 3.877-2.265 11.604-5.065 13.109-2.678 1.439-7.737 1.633-9.534.299-2.341-1.74-3.628-7.639-2.681-11.918.515-2.326 3.791-6.256 5.959-7.449.977-.538 2.492-.846 3.574-.893zm-.297 7.447c-3.918-2.023-7.357 4.42-4.768 8.045 4.664 2.104 8.601-.934 9.236-4.768-.723-1.564-1.545-4.607-3.576-3.873-.511-.015-.762.231-.892.596z" fill="#666"/><path d="m47.525 443.94c2.031-.734 2.854 2.309 3.576 3.873-.636 3.834-4.572 6.871-9.236 4.768-2.59-3.625.85-10.068 4.768-8.045.13-.365.381-.611.892-.596zm-4.17 6.258c2.648 1.67 5.141.342 5.66-2.385-1.913-2.796-6.484-.763-5.66 2.385z"/><path d="m49.016 447.813c-.52 2.727-3.012 4.055-5.66 2.385-.825-3.148 3.746-5.181 5.66-2.385z" fill="#666"/><path d="m54.379 369.752c-.354 1.136-.395 2.586-.895 3.576-5.384-3.223-11.636-3.129-17.28 0-3.473 1.925-7.72 4.843-9.832 7.15-.879.961-1.435 2.647-2.384 3.873-.884 1.143-2.247 1.883-2.979 2.979-1.26 1.888-1.788 4.268-2.98 6.257-2.694 4.498-5.664 8.802-8.342 13.408-.928 1.596-1.527 3.17-2.682 4.469 2.908-6.292 4.496-13.771 8.641-19.367 5.625-7.594 10.545-15.543 19.365-20.26 1.105.211 1.279-.509 2.385-.297 2.641-1.712 7.831-3.3 12.215-2.682 1.919.272 3.437 1.51 4.768.894z" fill="#b3b3b3"/><path d="m74.043 392.993c.822.071.68 1.107 1.191 1.489-.227.494-1.412-.551-1.191-1.489z" fill="#333"/><path d="m6.41 413.55c.98.62-.503 1.257-.596 1.788-.57-.211.362-1.398.596-1.788z" fill="#fff"/><path d="m146.74 85.816c-9.508 5.092-19.402 9.796-28.007 15.791-.038 13.932 3.127 28.19 4.171 42.308.544 7.346.109 14.605.597 22.346.567 9.004 1.915 18.02 1.489 27.709-.313 7.14.617 13.791 1.191 19.961 1.535 16.476 1.294 31.096 2.384 48.863.155 2.52-.229 5.744.298 7.447.457 1.473 5.412 5.756 6.853 6.854 2.722 2.07 6.007 3.477 8.641 5.66 2.768 2.294 4.721 5.093 7.448 6.555 7.498.398 13.869-1.449 19.664-3.575-.01-3.347-1.363-6.135-1.787-8.938-.121-.801.146-1.566 0-2.383-.173-.972-1.478-2.938-1.191-4.172.473-2.039 6.66-3.789 8.64-4.469 3.655-1.254 6.985-2.096 10.726-1.489 1.635 4.92 1.405 11.704 3.873 15.79 2.061-1.195 2.223-4.091 3.576-6.256 1.595-2.552 4.071-4.783 6.256-7.449 1.969-2.4 3.363-5.535 5.363-8.044 2.127-2.669 5.068-5.271 7.746-8.045 2.577-2.667 5.008-5.915 7.449-8.044.868-.758 2.153-.811 2.979-1.49 2.668-2.192 8.462-9.853 14.303-5.959 3.42 2.281 4.143 10.025 3.574 16.09-.412 4.411-3.189 9.104-1.489 14.002.899 2.592 3.418 2.618 5.661 4.47-.158 4.633-3.986 7.884-7.746 5.362-1.516-1.015-4.225-6.148-4.768-10.725-.611-5.156 4.051-17.303-.895-18.771-2.266-.673-4.607 4.474-7.15 4.767-7.594 11.871-15.926 23.005-23.836 34.562-2.867 1.104-5.16 2.784-8.043 3.873-1.88-.265-3.717-1.108-5.363 0 2.037 11.77 5.335 24.854 8.342 36.646 7.877 2.932 13.129-5.981 20.856-1.489.596 1.488.886 3.285 1.191 5.064-1.764 2.408-5.045 3.298-7.448 5.065 11.65 5.821 24.227 10.606 33.369 19.366 2.988 2.862 6.186 5.32 8.641 8.641 7.044 9.523 10.884 24.18 14.599 38.136 1.515 5.689 2.322 10.286 3.575 16.685 1.258 6.422 3.156 14.284 4.172 22.643.497 4.1.397 8.627.893 12.812 1.224 10.316 1.425 18.51-.297 29.197-.375 2.328-1.035 4.873-1.49 7.15-1.491 7.471-3.012 9.373-6.853 15.791-3.866 6.463-7.804 10.334-15.791 12.514-2.49.68-7.952.588-11.321 0-6.993-1.217-10.613-6.199-15.791-9.832-13.825-17.855-30.314-33.047-40.223-54.82-2.234-.189-4.221 1.26-6.256.297-.389-1.291.988-1.836.894-3.277-.058-.877-1.293-2.871-2.086-4.469-1.989-4.012-4.658-9.1-4.171-14.6-1.696-4.98-3.422-11.709-4.469-18.173-.693-4.284-.865-9.698 0-13.407-1.097-7.086.519-13.607 2.086-19.367 1.732-6.365 2.934-12.464 5.064-18.174 1.047-2.803 2.754-5.09 3.873-7.746.528-1.253.393-2.688.895-3.873.512-1.214 1.488-2.312 2.085-3.576.624-1.32.889-2.986 1.49-4.17 1.493-2.944 5.22-5.182 2.085-9.236-4.295 4.542-7.161 10.516-11.918 14.599-3.979 7.343-7.967 14.676-14.002 19.962-1.737 3.461-3.897 6.639-5.959 9.832-2.044 3.165-3.91 6.436-5.959 9.534-3.857 5.833-9.32 10.796-11.62 17.876 1.103 2.375 3.076 2.677 3.575 4.768.827 3.461-1.566 5.441-1.787 8.342-.174 2.276.938 2.963 1.787 5.065.93 2.301 1.332 5.797 1.191 8.344-.113 2.057-1.449 4.072-1.787 6.555-.449 3.293.714 8.145 1.191 12.811 1.156 11.293 2.732 24.344 3.277 36.35.23 5.053-.271 11.189.299 15.791 1.74 14.039 4.017 30.523 4.171 44.094-.364 1.756 1.801.98 1.489 2.682-.256 1.83-.751 3.422-1.489 4.768-3.671-.201-8.261.514-11.024-.596-1.199-1.582-1.43-4.131-2.682-5.662-1.602-20.842-1.101-43.789-2.383-64.951-.386-6.369-1.328-12.76-2.086-19.068-.431-3.584-1.776-6.615-1.49-11.32-6.273.893-13.414 5.24-21.749 3.277-4.366 1.492-9.565 2.154-14.003 3.574-1.193 7.617-.084 15.828-1.788 22.941-.306 1.279-1.333 2.189-1.788 3.576-.935 2.854-1.103 6.342-2.085 8.938-1.181 3.123-3.437 7.146-5.363 10.727-4.378 8.133-9.273 13.023-18.472 16.387-5.715 2.09-10.385 2.83-17.281 2.383-2.9-.188-6.03.254-8.64 0-3.402-.33-7.181-2.197-10.13-3.873-7.311-4.152-12.578-11.555-15.791-20.557-.748-2.096-1.908-3.977-2.384-5.662-.465-1.646-.208-3.564-.596-5.363-1.782-8.258-4.421-17.418-4.767-26.219-.43-10.938-.23-21.602 0-33.07-1.293-1.035-2.573 1.24-3.874.299-2.506-2.484-.909-5.818 0-8.641 1.854-5.758 4.019-10.986 6.257-16.686 1.076-2.737 1.878-5.783 2.979-8.342 2.037-4.729 6.019-9.012 9.236-13.109 3.347-4.263 7.194-9.043 11.023-11.322 3.386-2.014 8.653-4.079 12.812-4.767 3.562-.589 7.273-.107 11.024.596 5.361-12.415 6.328-29.227 11.917-41.413-7.381 1.744-11.635-.549-14.896-6.555-1.439-2.65-5.341-12.987-4.768-16.982.556-3.865 5.136-5.224 5.661-8.045 6.114-4.514 13.231-6.861 20.261-11.023 4.521-2.679 9.451-6.016 17.875-4.172 1.497 1.086 2.854 2.311 3.874 3.873 3.208-2.354 6.142-4.98 8.641-8.045 5.33-.727 7.565-4.549 12.215-5.958-.04-8.966-.931-17.989-1.787-27.112-.841-8.961.89-18.276.596-26.815-.054-1.542-.704-2.954-.894-4.468-.682-5.441-.164-11.309-1.192-16.983-1.063-5.868-2.004-11.311-2.384-17.579-.582-9.627.234-22.421-.596-33.369-.502-6.621-1.062-14.381-1.489-22.346-.414-7.703-2.535-15.423-2.979-23.239-.481-8.479-1.129-16.028-1.787-23.835-.693-8.208.184-16.537-.895-24.432-1.279-9.374-3.517-19.447-4.469-28.602-.395-3.786.387-7.042.297-10.428-.059-2.263-1.234-4.637.299-6.853 4.074-.891 8.612-1.319 12.811-2.085 1.417-.025.857 1.924 1.49 2.682 5.203-1.103 15.808-3.042 22.644-3.277 3.493-.121 5.377.893 6.853 3.575 2.633 26.095 5.403 55.689 4.767 82.224zm-1.49-15.195c-.819-18.468-2.353-41.693-3.873-60.482-.346-4.266-2.025-7.341-4.767-8.342-7.772 1.365-16.702 1.57-24.134 3.277-.416 5.225.596 8.985.895 12.811.187 2.393-.062 5.179.596 7.151.354 1.058 1.469 1.909 1.787 2.979 1.047 3.517 1.251 8.267 1.49 12.216 1.16 19.161-.144 39.658 1.489 58.396 8.966-4.343 17.099-9.517 25.921-14.003.274-3.71.797-9.491.596-14.003zm-46.18-66.143c-.053 2.87.19 3.725 1.191 5.661-.518 16.763 4.127 32.836 4.171 49.458.003 1.224-.313 2.606-.298 3.873.117 9.687 2.141 19.267 2.682 28.9.268 4.788.136 9.588.596 14.301.48 4.925 1.94 9.793 2.085 14.599.307 10.166 2.128 19.723 2.086 29.497-.025 5.981-.995 12.584-.597 18.771.13 1.995.752 3.982.895 5.959.151 2.081-.123 4.109 0 6.256.395 6.874 2.627 13.77 2.979 20.856.428 8.597.91 14.886.894 22.346-.031 14.385.777 28.75 1.788 42.604 2.363-.404 6.51-.273 9.235.597-.402-7.46-.466-14.733-.596-22.048-.118-6.735.209-13.771-.596-20.26-1.182-9.541-2.492-19.957-2.085-29.198.228-5.174.614-10.163.298-15.195-.404-6.438-1.486-13.181-1.49-19.366-.006-10.944-1.66-22.216-2.979-33.965-1.269-11.291-2.494-22.81-2.682-34.562-.207-12.86-.582-25.404-.895-37.54-.23-8.98.221-17.38-1.787-25.623-.619-2.54-1.968-4.763-2.384-7.449-1.031-6.666-.29-13.667-1.489-19.962-3.946.225-7.408.933-11.022 1.49zm113.217 250.271c-3.251 5.486-7.428 10.572-11.322 15.195-2.762 3.277-3.912 6.912-6.256 10.428-.938 1.403-3.338 2.262-2.98 4.469 2.705 1.649 5.867.108 8.641-1.191 8.059-10.515 16.09-21.053 22.941-32.773 3.186-3.535 12.155-13.111 14.6-3.874 1.42 5.369-1.529 12.098-.895 17.281.458 3.733 3.437 11.938 7.747 7.448-1.361-2.731-3.792-2.686-5.065-5.064-2.335-4.363-.215-8.271.596-12.217 1.502-7.307.509-15.477-3.575-18.472-11.684 2.717-15.772 13.028-24.432 18.77zm-41.414 16.087c1.162 5.163 3.176 11.745 2.979 16.387 2.804.822 5.579-1.506 8.64-2.085 2.449-.464 5.272.183 6.854-1.788-1.713-5.412-1.934-10.741-3.576-16.982-4.891-.58-10.369 2.769-14.897 4.468zm.298 17.58c-6.532 1.759-12.993 3.982-21.153 3.277-6.504-6.506-14.926-11.095-21.154-17.876-3.378-2.416-5.748-5.079-10.428-3.873-1.816.467-4.063 2.046-5.959 2.979-2.15 1.059-4.68 1.908-5.363 3.873.52.871.881 1.901 1.789 2.384 2.962-1.606 5.417-3.72 9.235-4.47 4.776 1.662 7.751 5.454 11.619 8.045 3.558 2.383 8.326 4.814 12.515 7.747 3.85 2.694 8.904 7.242 12.811 7.746 8.246 1.063 12.783-6.384 21.451-6.555.984-1.301 3.325-1.244 3.874-2.979-3.34.612-7.025 1.919-9.237-.298zm-77.464-1.789c-1.895 1.276-5.586 1.165-6.854 2.682-2.296 2.748-1.654 9.7 1.788 9.832 1.711.066 6.953-5.03 8.938-6.853 2.883-2.646 7.196-5.312 8.342-7.448 1.562-2.91.168-6.819-2.383-7.448-3.52 1.902-5.601 6.388-9.831 9.235zm14.599-.893c-3.997 3.947-8.585 7.306-12.812 11.024.168 2.65-1.347 2.703-.596 5.363-1.613 3.153-4.205 5.328-7.448 6.852-2.507 4.844-8.683 6.016-11.62 10.428 5.898 10.662 13.695 20.125 20.26 30.391 5.627 8.798 10.605 18.169 17.579 25.92 3.532-5.703 6.39-12.082 10.13-17.578.415-1.412-.42-2.502-.596-3.873-.227-1.763.41-4.295.298-5.064-.118-.811-.843-1.212-.894-2.086-.05-.854.289-1.883.297-2.682.095-9.225-1.896-19.638-2.383-26.517-.114-1.615.484-3.28.298-4.767-.474-3.778-1.702-7.094-2.384-11.023-1.363-7.87-.068-16.195-2.383-24.135-3.616 1.547-8.08 2.249-7.746 7.747zm10.13-6.853c.768 6.102.549 12.385 1.192 18.473.539 5.109 2.319 10.073 2.681 15.195.315 4.455.089 8.953.596 13.406.323 2.838 1.047 5.735 1.191 8.641.297 5.904-.375 12.27.299 18.473.189 1.738 1.048 3.387 1.191 5.064.18 2.086.191 4.144.298 6.257.669 13.116 1.868 24.852 2.979 36.944 1.842-1.604 2.773-4.3 4.172-6.853 1.214-2.216 2.97-5.158 3.575-7.746 1.674-7.159-1.12-15.251-1.49-22.644-.405-8.117-.821-15.595-2.085-23.239-1.512-9.138-1.458-17.925-2.384-27.112-.558-5.541-1.74-10.883-2.086-16.089-.311-4.685.425-9.877-.596-12.812-1.216-3.498-5.863-5.252-9.534-6.854.001.301.001.598.001.896zm-28.901 2.384c-2.487-1.47-6.696-.647-8.64.894-1.227-.234-1.529.457-2.682.298-10.245 6.142-23.188 9.587-29.198 19.962 1.489 8.939 3.188 17.668 9.832 21.452 9.559.521 13.553-4.522 18.175-8.938 4.914-2.289 8.573-6.488 12.215-9.832 1.45-1.33 4.319-2.52 3.277-5.064-4.105 4.124-9.407.45-9.831-4.172-.56-6.082 3.809-10.931 9.533-11.321-.631-1.356-1.672-2.301-2.681-3.279zm40.52 5.362c-.487 9.479 1.236 17.619 2.385 25.922.575 4.166.144 8.57.596 12.811.842 7.908 1.791 14.602 3.277 21.452 2.607-.91 5.465-.32 8.938 0 7.492-9.491 13.004-20.962 21.154-29.794 1.228-3.252 2.984-6.35 5.064-9.832 2.398-4.014 7.37-7.924 4.768-13.408-3.082.827-5.971 2.072-8.938 3.277-2.89 1.174-6.138 2.698-8.938 3.277-4.395.91-7.484-.557-10.428-2.383-5.119-3.179-12.161-10.071-17.578-12.216-.018.382-.383.414-.3.894zm67.633 44.692c-.302-.69-1.35-.635-1.489-1.489-2.076-11.738-6.201-22.984-7.448-34.562-1.551-1.131-1.402-3.961-2.384-5.661-1.962.483-6.708 1.282-7.448 3.874-.563 1.969 1.254 5.391 2.086 8.342 1.92 6.824 3.66 12.044 5.66 19.068 1.667 5.854 2.455 12.035 5.661 14.896 1.479.775 4.159.193 5.064-.596.251-1.139.389-2.391.298-3.872zm-30.688-12.812c-7.943 9.761-14.574 21.209-21.75 32.476-3.211 5.043-8.335 8.005-8.044 14.896 5.714-4.828 8.665-11.85 13.108-17.876 2.607-3.533 5.246-7.046 7.152-11.023 8.076-9.997 14.305-21.845 22.047-32.178-.773-1.213-.375-3.598-2.086-3.873-3.427 5.907-7.271 11.4-10.427 17.578zm3.277 21.452c3.371-4.248 9.318-9.082 12.514-14.004 2.654-4.086 1.082-6.516-.299-11.023-.705-2.305-1.506-4.482-2.085-6.853-.298 0-.596 0-.894 0-.004.394-.522.272-.596.596-9.491 14.245-18.834 28.64-28.604 42.605 3.15 1.022 3.517 4.827 5.959 6.555 4.576-5.12 8.558-11.012 14.005-17.876zm-98.022-15.791c-2.55 8.464-3.064 21.004-4.469 30.688-.566 3.906-.728 7.908-1.49 10.727-.523 1.936-3.272 4.246-.596 5.959 1.39-.373 1.272-2.325 1.489-3.278 3.207-14.05 3.801-29.138 5.959-44.69-.38-.017-.412-.383-.894-.299.001.298.001.596.001.893zm-9.832 19.962c-.65 3.372-.776 6.953-1.788 10.429-1.02 3.506-2.629 6.889-3.575 10.428-.312 1.168-.321 2.381-.595 3.574-.758 3.291-2.184 6.817-2.98 10.131-3.647 15.164-6.485 30.116-12.215 43.797.87 1.441-1.037 3.213 0 4.768 3.606-.268 2.945-4.801 4.767-6.854 1.853-11.819 5.725-22.997 8.044-34.561.812-4.047 1.938-5.911 2.385-10.131.477-4.506 2.435-8.561 3.574-12.811.538-2.004.604-3.973 1.192-5.959.507-1.717 1.587-3.313 2.085-5.064.259-.908-.177-1.803 0-2.682.382-1.889 1.814-3.491 2.384-5.363 1.866-6.135 2.662-12.791 4.171-19.068-.065-.232-.25-.346-.596-.298-1.978 6.22-5.535 12.832-6.853 19.664zm137.35-14.598c1.018 4.451-.109 9.183-4.768 8.938-1.888 2.582-3.387 5.552-4.469 8.938 4.055-3.683 7.42-8.028 12.215-11.321 2.82-1.936 8.359-4.781 11.024-6.257 2.572-1.424 4.644-1.67 2.979-4.47-6.612-2.41-12.016 2.174-16.981 4.172zm-14.598-2.682c-2.771 1.93-3.912 4.734-6.257 7.448-3.079 3.563-6.113 6.998-8.938 10.726-1.415 1.867-3.245 3.354-4.767 5.065-2.506 2.818-4.116 5.792-6.258 8.64-.93 1.238-2.008 1.713-2.383 2.682-.461 1.189-.178 2.715-.596 3.873-1.32 3.66-3.627 7.133-5.363 10.727-1.733 3.586-4.004 7.1-5.064 11.321 3.442-4.242 6.278-9.027 9.236-13.705 2.955-4.675 6.349-8.999 9.533-13.407 3.83-4.089 6.033-9.191 9.236-13.705 3.172-4.47 7.691-8.1 9.832-13.408 1.463-1.312 3.677-3.143 2.682-5.958-.381-.018-.412-.383-.893-.299zm-116.794 46.181c3.719 2.001 8.463 5.03 12.515 8.938 3.722 3.589 8.432 7.277 10.428 11.023 1.548 2.903 2.831 9.02 1.191 13.109-.624 1.557-2.424 1.494-3.277 3.277.742.45.374 2.01.895 2.682 4.435-1.523 10.353-1.564 15.194-2.682-2.15-3.112-6.156-4.37-7.15-8.641 1.705-3.356.262-4.459-.894-7.746-1.295-3.684-2.054-5.603-2.979-8.938-.965-3.475-2.705-6.98-3.576-9.535-.471-1.385-.434-2.799-.893-4.171-1.585-4.726-3.375-8.868-4.768-12.812-1.836-5.198-3.754-10.906-5.363-15.493-1.844-5.257-3.015-11.39-5.064-14.599-2.3 14.985-3.977 30.589-6.259 45.588zm12.812-38.733c.434.857 1.874.708 2.085 1.788 3.349 8.569 7.951 15.884 12.812 22.941-.146.939.537 1.051.298 2.085 5.333 5.989 8.573 14.07 13.706 20.26 1.035-.554 1.199-1.978 1.787-2.979-2.4-3.778-4.592-6.984-6.852-10.428-2.542-3.869-5.154-7.363-7.449-11.023-1.268-2.021-1.768-4.502-2.979-6.257-.768-1.112-1.943-1.864-2.682-2.979-4.21-6.367-7.497-12.939-12.216-18.174.172 1.914 1.345 2.826 1.49 4.766zm104.28 106.961c.44 1.67 1.456 3.156 1.787 4.768.301 1.461-.018 2.811.298 4.172 1.013 4.363 4.312 9.539 7.151 14.002 2.68 4.217 6.059 8.529 8.938 12.514 2.932 4.057 6.049 8.24 9.236 11.918 3.496 4.035 7.32 7.49 10.428 11.023 2.549 2.898 3.595 5.467 5.661 7.449 5.35 5.133 14.027 8.895 22.048 7.746 7.849-1.125 12.406-6.449 16.088-12.217 1.949-3.049 4.576-5.941 5.363-8.938 2.032-7.73 4.135-19.314 4.469-28.006.154-3.992-.698-8.621-1.191-13.109-1.484-13.527-2.801-26.506-5.363-39.031-3.236-15.826-7.484-32.863-14.599-45.585-6.756-12.082-19.872-19.825-32.178-26.219-5.134-2.667-12.581-7.127-17.28-5.064-2.948 1.293-7.145 3.216-8.641 6.555 8.021-1.954 14.723-.119 20.856 2.383 2.081.85 4.333 2.014 5.959 2.98 3.994 2.372 8.356 4.504 11.023 7.15 2.848 2.824 6.688 8.061 9.236 11.918 4.501 6.816 7.856 16.115 11.62 26.219 1.672 4.488 3.439 9.172 4.767 14.002 3.306 12.032 7.491 24.954 7.746 38.137.257 13.336.321 30.164-2.979 41.711-.984 3.447-2.118 8.102-3.575 10.131-3.11 4.334-12.843 9.361-19.366 6.555-4.524-1.947-10.457-8.109-14.003-11.619-1.513-1.5-2.8-3.1-4.171-4.471-6.172-6.17-10.438-12.25-15.493-19.068-10.644-14.352-20.203-28.012-26.219-42.902 1.279 4.968 1.142 10.195 2.384 14.896zm-84.914-46.479c1.311-.279 1.707-1.471 3.576-1.191-6.598-19.125-14.352-37.094-22.941-54.225 6.199 19.103 12.156 37.043 19.365 55.416zm87.594-48.565c.53-1.561 2.241-3.514 1.788-5.064-.873 1.217-2.304 3.449-1.788 5.064zm-127.815 22.943c.746.247 1.17.815 2.085.894 2.969-7.162 3.625-16.635 5.065-25.324-.066-.232-.25-.348-.596-.299-2.363 7.868-5.615 16.428-6.554 24.729zm145.692-23.24c4.435 7.726 6.671 17.965 9.534 28.006 3.769 13.214 6.324 26.675 10.428 38.435 2.164 1.925 1.943 7.765 5.064 7.748-5.982-25.204-15.346-49.606-22.346-74.784-1.19.098-1.653-.532-2.979-.299.048.351-.049.846.299.894zm5.958 23.24c-1.518-5.976-2.527-12.433-4.766-17.28-.956-2.07-3.835-6.207-5.363-6.555-1.42-.324-4.5.261-5.661.596-.444.128-.606.945-1.192 1.191-1.055.445-1.729.029-2.085.298-5.024 3.772-.544 10.531-.894 16.387 1.637 2.551 1.658 5.431 2.383 8.343 1.334 5.353 4.491 10.26 5.661 15.492.265 1.184.03 2.393.298 3.576 2.992 13.226 9.337 24.648 13.705 36.348 4.82-2.033 9.282-4.424 12.812-7.746-5.342-14.372-10.663-33.985-14.898-50.65zm-.297-22.346c2.833 12.69 7.378 26.817 11.321 38.732 2.939 8.88 5.089 15.183 7.746 24.133.699 2.354 3.776 9.353 2.979 12.216-.653 2.35-6.871 4.889-8.641 4.766-3.217 2.146-5.057 5.67-9.235 6.854-.789.918.687 2.258-.596 2.682-2.025.139-3.47-.305-4.768-.895-7.542-20.463-15.665-40.346-20.558-63.461-2.205-2.662-1.623-8.109-4.172-10.428-2.22 6.197-4.748 13.172-5.66 21.154-.982 8.602-1.688 23.668 1.191 32.475.73 2.232 2.623 5.213 3.576 7.747 1.215 3.236 1.707 6.746 3.276 10.131 1.454 3.135 3.894 6.545 5.661 10.129 5.419 10.992 12.734 18.467 19.367 28.008 2.271 3.268 4.006 6.512 6.554 9.236 2.416 2.582 4.911 5.131 7.747 8.043 5.055 5.193 11.54 11.783 17.578 14.004 5.433 1.998 14.074-3.721 15.791-6.256 1.082-1.598 1.611-4.604 2.383-7.15 1.885-6.215 3.086-11 3.576-18.473 1.045-15.947-.281-35.266-2.979-47.969-.639-3.006-2.066-6.171-2.979-9.237-6.554-21.986-14.477-43.871-28.9-57.204-5.914-4.018-12.6-7.265-19.664-10.13-.299 0-.596 0-.894 0 .049.349-.049.845.3.893zm-24.431 5.958c.739-1.055 1.177-3.979.596-5.362-.488 1.165-1.841 4.427-.596 5.362zm-2.98-2.978c-2.435 5.697-5.233 10.993-7.15 17.28-2.731 8.96-5.161 18.131-5.661 29.496-.441 10.047.821 17.259 2.682 25.921 1.883 8.766 3.988 16.699 7.449 22.643.877 1.506.939 3.275 2.383 4.471 2.191-1.797.116-4.494-.298-6.258-.579-2.469-1.122-5.33-1.489-7.746-2.547-16.723-5.762-34.607-3.874-53.034.565-5.518 2.224-10.622 3.874-15.791 1.065-3.34 3.178-6.848 3.277-9.534.035-.952-.824-2.255-.895-3.575-.101-1.931 1.559-5.131 0-5.363-.457.298-.177 1.208-.298 1.49zm-47.074-.895c-1.177 1.041-1.077 3.941-.298 5.363 3.503.499 6.502-2.02 7.448-5.064-1.6-1.326-4.501.197-7.15-.299zm-36.647 28.603c1.65 4.198 2.37 9.034 5.363 12.514.641-1.683 2.495-3.354 2.384-5.362-.044-.799-1.258-2.209-1.788-3.576-1.328-3.43-2.446-4.227-4.171-7.15-3.538-5.998-9.06-15.912-12.513-20.558 3.356 7.853 7.477 15.863 10.725 24.132zm36.051 22.345c1.836-1.938 2.212-5.335 4.171-7.15 1.498-4.869 3.98-9.978 6.555-15.493 3.665-7.852 11.039-17.616 2.086-23.537-2.233.349-2.316 2.848-3.277 4.469 5.216 1.699 3.592 7.786 1.787 12.216-.617 1.515-1.798 3.343-2.682 5.065-2.732 5.33-5.721 9.789-8.044 15.194-1.774 4.13-4.906 7.646-5.065 11.918.958.333 1.767.815 2.979.894.853-.837 1.026-2.352 1.49-3.576zm50.948-43.499c3.023 13.463 7.315 25.656 10.429 39.03 3.335 9.956 7.574 19.946 11.023 28.9 1.188 3.082 2.088 6.621 4.172 9.236-.181-6.092-3.518-11.32-5.959-16.685-2.441-5.362-4.873-11.153-6.556-16.982-1.386-4.804-1.708-9.981-3.277-14.897-3.021-9.463-7.417-19.363-8.938-29.794-.614.082-.281 1.11-.894 1.192zm-43.499 16.983c1.965-4.145 6.064-11.125 1.191-12.812-1.773 1.27-6.703 6.826-7.15 9.534-.668 4.053.918 8.812.894 12.514 1.511-2.157 3.265-5.439 5.065-9.236zm-36.647 21.153c3.507-1.122 4.179-5.245 5.959-8.342 2.221-3.866 5.993-6.701 6.555-11.62 1.16-.527 1.709-1.668 1.787-3.277 1.423-.266 1.729-1.646 2.979-2.085-.689-1.815.055-4.833-.298-6.257-.381-.017-.412-.383-.894-.299-4.922 11.066-12.895 19.084-16.088 31.88zm-57.801-25.622c-4.384-.618-9.574.97-12.215 2.682-1.105-.212-1.279.508-2.385.297-8.82 4.717-13.74 12.666-19.365 20.26-4.145 5.597-5.732 13.075-8.641 19.367 1.154-1.299 1.754-2.873 2.682-4.469 2.678-4.606 5.647-8.91 8.342-13.408 1.192-1.989 1.721-4.369 2.98-6.257.731-1.097 2.095-1.837 2.979-2.979.949-1.226 1.505-2.912 2.384-3.873 2.112-2.308 6.359-5.226 9.832-7.15 5.645-3.129 11.896-3.223 17.28 0 .5-.99.54-2.44.895-3.576-1.331.614-2.849-.624-4.768-.894zm35.158 19.961c-6.896-6.932-15.921-13.734-24.729-16.982-.298 0-.596 0-.894 0-.248 1.539-.79 2.786-.894 4.47 10.584 8.286 22.284 15.454 25.324 31.283 2.994.214 4.541-1.021 6.258-2.085 2.272-8.107-1.252-12.852-5.065-16.686zm-48.267-13.406c-2.65 1.549-6.34 3.906-5.064 6.256 5.918-1.921 12.693-4.904 21.153-3.873-2.075-6.825-11.39-5.131-16.089-2.383zm81.934 7.746c2.543 3.218 4.319 7.201 7.448 9.832-.101-7.709-.339-13.562-2.085-19.366-1.86 3.107-3.715 6.215-5.363 9.534zm-86.403 1.49c2.362 12.534 5.223 24.57 7.746 36.944 2.519-5.2 3.842-10.996 5.661-16.684 1.819-5.689 3.479-11.635 4.469-17.877 1.066-1.416 1.376-3.591 1.489-5.959-6.912-3.163-14.24.666-19.365 3.576zm25.027-3.278c-3.825 13.854-7.237 29.706-10.13 43.5 3.908-1.057 6.732-3.199 10.727-4.17.885-12.559 2.181-24.024 3.575-36.946-1.039-1.147-2.289-2.083-4.172-2.384zm-28.602.297c-.163.356-.37.594-.597.895-8.319 11.012-16.125 22.661-20.855 37.243 1.739-.389 3.865 1.479 5.363 1.191.256-6.895 2.453-11.848 4.171-17.281 1.489-1.788 2.667-3.887 3.277-6.554 2.863-5.381 8.063-8.424 9.534-15.195-.38-.017-.412-.383-.893-.299zm32.177 21.454c-.606 8.471-.696 15.013-1.787 21.749-.337 2.076-1.502 4.781 0 6.555 2.031-3.15 1.693-7.775 2.086-12.513.483-5.851 2.143-12.054 2.682-17.579.193-1.985.253-4.426.893-7.15.958-4.074 3.171-8.717-1.489-9.236-.397 5.566-1.942 11.986-2.385 18.174zm62.269-10.727c-1.625-2.535-3.647-4.896-5.362-7.15-.298 0-.597 0-.894 0-.711.68-.699 2.082-1.49 2.682 2.974 4.971 4.762 11.127 11.322 12.513.356-3.115-2.081-5.715-3.576-8.045zm-83.72 34.561c-3.739-12.25-5.217-26.762-8.938-39.03-.199 0-.397 0-.597 0-8.106 8.479-14.176 18.994-15.493 34.262 6.402 3.928 11.574 9.084 17.281 13.705 1.754-3.806 5.721-5.402 7.747-8.937zm24.132-6.852c5.809-1.84 10.787-4.509 17.281-5.663.108-4.393-3.318-7.78-4.47-11.619-.242-.809-.054-1.858-.298-2.682-.395-1.332-1.568-2.357-2.383-3.873-1.744-3.238-2.449-7.199-5.661-8.342-2.768 9.878-3.783 20.704-4.469 32.179zm48.863-25.624c1.45.735 3.405.966 4.767 1.788-.436-2.742-4.152-6.662-4.767-1.788zm-36.945 0c-.512-.382-.369-1.418-1.191-1.489-.221.938.964 1.983 1.191 1.489zm58.098 11.322c-9.932-1.495-15.896-8.524-26.219-8.64-2.352-3.373-5.893.254-6.256 3.276 3.211 6.722 11.326 7.287 19.962 10.13 2.87.945 5.28 2.138 7.448 2.979 1.943.755 4.732 2.587 6.853 2.384 2.927-.281 5.1-3.596 3.873-6.854-2.083-.893-4.446-1.51-5.661-3.275zm-51.245 4.171c.182 1.507.759 2.619 1.191 3.873 1.687.098 2.304-.875 3.874-.894-.097-1.095.254-2.638-.299-3.277-1.474.214-2.966.409-4.766.298zm27.112.299c-2.214 1.771-5.369 1.73-6.853 3.873-7.392 10.674-6.622 37.311 8.045 39.03 4.739.557 9.962-.641 14.897-2.979.976-.486 1.139.066 2.383 0 .482-.711.82-1.564 1.787-1.789-.173-5.666-1.045-11.955-1.489-16.387-.872-.654-1.695.73-2.979.596-5.716-1.307-6.086-11.871-1.489-14.896.538-.754 2.957.374 2.681-1.192-4.539-3.206-11.364-4.13-16.983-6.256zm-18.769 4.469c3.961 11.629 3.352 26.182 4.171 41.116 3.463-.311 5.915-1.633 8.938-2.383-2.184-2.869-5.04-5.908-6.555-10.131-3.602-10.039-.322-22.686 3.277-30.39-3.697.176-6.975.77-9.831 1.788zm-84.616.595c.093-.531 1.576-1.168.596-1.788-.234.39-1.166 1.577-.596 1.788zm85.807 35.157c-.314-10.604-.753-21.242-2.086-29.496-.998-1.186-1.334-3.036-2.085-4.469-.902-.091-1.064-.922-2.384-.596-.43.167-.727.465-.894.894 1.824 12.199 4.096 26.724 4.171 40.521 4.336.621 3.362-4.034 3.278-6.854zm-88.786-24.133c.972-2.723 2.742-7.759 2.085-10.13-.567 3.693-3.464 6.958-2.085 10.13zm77.763-9.534c-3.566 1.101-6.67 2.666-11.023 2.98-1.771 1.506-3.344 3.211-6.854 2.979-.121 3.951-1.488 6.656-1.191 11.023 7.785 7.713 3.237 23.41-2.979 29.496 1.62-.373 1.57.016 2.979.299 6.866-3.264 16.489-3.77 24.431-5.959.436-13.123-.9-26.037-4.171-37.539-.221-1.17.629-3.411-.894-3.279-.099 0-.2 0-.298 0zm47.967.596v.596c2.646 15.272 2.255 30.823 4.47 46.18 1.824 12.652 2.777 25.275 3.575 38.434.62 10.23-.939 20.869 0 31.582.229 2.615 1.423 5.938.894 8.939 1.638 2.137 1.506 6.041 3.277 8.043 1.967.367 5.52.574 7.449 0-1.664-8.756.232-18.158-1.192-26.516-.194-1.141-.98-2.211-1.191-3.277-.765-3.865-.638-7.547-.895-11.619-.405-6.449-1.555-12.809-1.788-19.367-.859-24.203-4.403-47.742-5.958-72.102-2.136 1.512-6.878-.414-8.641-.893zm-4.469 2.979c-1.961 2.791-1.749 7.76.895 9.533 1.834-.443 1.988.795 3.277.895-.518-3.256-.603-6.945-1.191-10.129-1.441.553-1.654-.099-2.981-.299zm-116.494 11.024c-.455 5.393-.908 9.527-.894 14.004.021 6.6.258 14.031.894 20.855.611 6.561 2.468 12.83 3.576 18.473.345 1.756.171 3.637.596 5.363.951 3.871 2.846 7.959 4.469 11.619 4.927 11.113 13.185 18.895 27.708 19.664 7.293.387 14.195-.205 20.856-2.682 8.562-3.184 12.488-8.018 16.685-15.791 4.726-8.754 8.034-16.924 9.235-28.9.441-4.389 3.785-14.238-2.085-14.002.635 25.67-12.293 43.414-30.985 50.648-2.068.801-4.796 1.408-7.449 1.789-2.601.371-5.74.998-8.342.596-4.586-.711-12.885-6.074-15.195-9.535-4.766-7.137-7.566-17.609-9.832-25.92-2.064-7.572-2.278-14.668-3.575-22.047-1.783-10.154-1.759-20.812-1.192-31.582-4.683-3.585-4.062 2.625-4.47 7.448zm42.904-5.364c1.328 1.752 3.558 2.6 5.66 3.576.105-2.035 1.33-4.355.894-5.959-2.418.561-4.142 1.819-6.554 2.383zm-36.35.299c-2.071 12.236.415 24.646 2.384 36.943 1.165 7.277 1.956 14.859 4.171 21.453 2.23 6.637 5.102 13.965 8.343 17.875 2.363 2.852 9.003 6.795 12.812 7.449 8.023 1.381 15.455-1.791 19.962-4.17 7.242-3.826 12.305-8.709 16.387-14.898 5.161-7.826 8.009-18.135 7.746-30.092-11.111.113-20.893 4.133-30.092 7.15-4.14-1.047-5.828 1.621-8.938 2.086-6.115.914-11.344-1.822-14.599-5.363-5.825-6.338-6.214-18.008-2.682-26.516-4.67-4.766-9.671-9.199-15.493-12.812-.001.3-.001.596-.001.895zm201.408 4.768c2.936-.738 3.752-3.598 6.555-4.471-1.685-.361-5.83 1.895-6.555 4.471zm-174.294-1.193c-5.606 2.83-10.008 7.25-11.322 13.707-2.75 13.508 5.446 26.115 17.281 23.834 10.551-2.033 20.178-17.141 14.599-29.793-2.118-.365-2.933-2.033-3.873-3.576-3.021.109-4.286-3.986-7.747-4.766-1.394-.314-3.396-.039-5.362.297-.92.881-2.189.451-3.576.297z"/><path d="m234.396 613.947c1.903 1.382 4.91 3.104 5.089 5.998.116 1.872-1.202 3.1-1.999 4.726-3.42 1.054-9.281 2.075-11.633-.909-4.027 1.014-9.081.384-13.812.546-2.544.087-5.101-.495-6.726-1.817-1.047-3.837-.364-8.013-.182-11.451.402-.265 1.211-.122 1.454-.545.852-1.214 2.287-1.715 3.636-2.727 3.049-2.289 6.506-5.972 10.541-7.634.267-.109.796-.259.909 0 4.028 3.759 7.127 7.621 11.995 10.724.142 1.109 1.257 1.877.728 3.089zm-13.45-11.996c-5.28 2.172-9.133 5.771-13.268 9.088 3.396 1.172 7.507 1.874 11.269 2.908 1.267.348 2.249 1.305 3.09 1.272.861-.033 2.518-1.16 3.635-1.636 2.292-.978 3.904-1.409 5.271-2.363-3.57-2.851-6.59-6.253-9.997-9.269zm11.451 10.179c-2.957 1.647-6.686 2.523-9.451 4.362-.04 2.081-.361 4.165-.728 6.361 1.013-.26 2.283-.262 2.908-.909-1.851-2.127-.726-4.76 2.181-4.907 1.05.708.76 2.754 2 3.271.739-1.077 2.462-1.174 3.271-2.181-1.134-.623-2.829-.686-3.09-2.182.912-.905 1.171-2.464 3.271-2.181.463-.763-.333-.869-.362-1.634zm-25.446.182c-1.162 1.796-.831 6.671 0 9.088 4 2.353 9.187.684 13.813 1.271.801-1.38.748-3.613.909-5.634-4.131-2.349-9.306-3.323-14.722-4.725zm29.808 11.268c2.986-3.615-.883-8.577-5.089-8.179-.01.232-.232.252-.182.545 2.26.991 5.078 2.732 2.908 5.998-1.516.545-2.565 1.149-3.999.909-2.33-.392-2.97-3.048-4.361-3.817-1.023 5.54 5.911 6.022 10.723 4.544zm-6.18-2.363c1.257-.076 2.498-.167 3.272-.727-.039-2.375-2.225.678-3.272.727z"/><path d="m230.943 611.221c-1.367.954-2.979 1.386-5.271 2.363-1.117.476-2.773 1.603-3.635 1.636-.841.032-1.823-.925-3.09-1.272-3.762-1.034-7.872-1.736-11.269-2.908 4.135-3.317 7.987-6.916 13.268-9.088 3.407 3.015 6.427 6.417 9.997 9.269zm-12.177-6.362c-3.065.739-4.224 5.15-1.817 7.089.243.196 1.522.785 1.999.908 4.011 1.042 7.951-1.376 6.361-5.634-1.578-1.9-4.15-2.94-6.543-2.363z" fill="#95a5a6"/><path d="m225.309 607.223c1.59 4.258-2.351 6.676-6.361 5.634-.477-.123-1.756-.712-1.999-.908-2.406-1.938-1.248-6.35 1.817-7.089 2.393-.578 4.965.462 6.543 2.363zm-6.362-.728c2.47.317 4.349 1.225 5.271 3.09.867-2.718-2.915-4.194-5.271-3.09zm1.636 5.09c-.927-1.377-2.031-2.573-3.271-3.636-1.163 1.861 1.191 3.384 3.271 3.636z"/><g fill="#95a5a6"><path d="m224.218 609.585c-.922-1.865-2.801-2.772-5.271-3.09 2.356-1.104 6.138.372 5.271 3.09z"/><path d="m217.312 607.949c1.24 1.062 2.345 2.259 3.271 3.636-2.08-.252-4.434-1.775-3.271-3.636z"/><path d="m232.761 613.766c-2.101-.283-2.359 1.275-3.271 2.181.261 1.496 1.956 1.559 3.09 2.182-.81 1.007-2.532 1.104-3.271 2.181-1.24-.518-.95-2.563-2-3.271-2.906.147-4.031 2.78-2.181 4.907-.625.647-1.896.649-2.908.909.366-2.196.688-4.28.728-6.361 2.766-1.839 6.494-2.715 9.451-4.362.027.763.823.869.362 1.634z"/><path d="m221.674 617.037c-.161 2.021-.108 4.254-.909 5.634-4.627-.588-9.813 1.081-13.813-1.271-.831-2.417-1.162-7.292 0-9.088 5.415 1.402 10.59 2.376 14.722 4.725z"/><path d="m226.036 619.036c1.392.77 2.031 3.426 4.361 3.817 1.434.24 2.483-.364 3.999-.909 2.17-3.266-.648-5.007-2.908-5.998-.051-.293.172-.312.182-.545 4.206-.398 8.075 4.563 5.089 8.179-4.812 1.478-11.746.996-10.723-4.544z"/></g><path d="m233.852 620.49c-.774.56-2.016.65-3.272.727 1.046-.049 3.232-3.102 3.272-.727z" fill="#fff"/></g></svg>