<?xml version="1.0" encoding="utf-8"?>
<!-- Generator: Adobe Illustrator 15.0.2, SVG Export Plug-In  -->
<!DOCTYPE svg PUBLIC "-//W3C//DTD SVG 1.1//EN" "http://www.w3.org/Graphics/SVG/1.1/DTD/svg11.dtd" [
	<!ENTITY ns_flows "http://ns.adobe.com/Flows/1.0/">
]>
<svg version="1.1"
	 xmlns="http://www.w3.org/2000/svg" xmlns:xlink="http://www.w3.org/1999/xlink" xmlns:a="http://ns.adobe.com/AdobeSVGViewerExtensions/3.0/"
	 x="0px" y="0px" width="278px" height="626px" viewBox="0.001 0 278 626"
	 overflow="visible" enable-background="new 0.001 0 278 626" xml:space="preserve">
<defs>
</defs>
<path fill-rule="evenodd" clip-rule="evenodd" fill="#FFFFFF" d="M144.654,84.625c-8.822,4.486-16.955,9.66-25.921,14.003
	c-1.633-18.738-0.329-39.236-1.489-58.396c-0.239-3.949-0.443-8.699-1.49-12.216c-0.318-1.07-1.434-1.921-1.787-2.979
	c-0.658-1.972-0.409-4.758-0.596-7.151c-0.299-3.826-1.311-7.586-0.895-12.811c7.432-1.707,16.361-1.913,24.134-3.277
	c2.741,1.001,4.421,4.077,4.767,8.342c1.521,18.789,3.054,42.014,3.873,60.482C145.451,75.133,144.928,80.914,144.654,84.625z"/>
<path fill-rule="evenodd" clip-rule="evenodd" fill="#95A5A6" d="M110.094,2.989c1.199,6.294,0.458,13.296,1.489,19.962
	c0.416,2.686,1.765,4.909,2.384,7.449c2.008,8.242,1.557,16.642,1.787,25.623c0.312,12.136,0.688,24.68,0.895,37.54
	c0.188,11.752,1.413,23.271,2.682,34.562c1.318,11.749,2.973,23.021,2.979,33.965c0.004,6.185,1.086,12.927,1.49,19.366
	c0.316,5.032-0.07,10.021-0.298,15.195c-0.407,9.241,0.903,19.657,2.085,29.198c0.805,6.489,0.478,13.524,0.596,20.26
	c0.13,7.314,0.193,14.588,0.596,22.048c-2.726-0.87-6.872-1.001-9.235-0.597c-1.011-13.854-1.819-28.22-1.788-42.604
	c0.017-7.46-0.466-13.749-0.894-22.346c-0.353-7.087-2.585-13.982-2.979-20.856c-0.123-2.146,0.151-4.175,0-6.256
	c-0.143-1.977-0.765-3.964-0.895-5.959c-0.398-6.187,0.571-12.789,0.597-18.771c0.042-9.774-1.779-19.331-2.086-29.497
	c-0.145-4.806-1.604-9.674-2.085-14.599c-0.46-4.713-0.328-9.513-0.596-14.301c-0.541-9.633-2.564-19.214-2.682-28.9
	c-0.016-1.267,0.301-2.649,0.298-3.873c-0.044-16.622-4.688-32.695-4.171-49.458c-1.001-1.937-1.244-2.791-1.191-5.661
	C102.684,3.921,106.146,3.213,110.094,2.989z"/>
<path fill-rule="evenodd" clip-rule="evenodd" fill="#95A5A6" d="M236.718,235.978c4.084,2.995,5.077,11.165,3.575,18.472
	c-0.811,3.945-2.931,7.854-0.596,12.217c1.273,2.379,3.704,2.333,5.065,5.064c-4.311,4.49-7.289-3.715-7.747-7.448
	c-0.635-5.184,2.314-11.912,0.895-17.281c-2.444-9.237-11.414,0.339-14.6,3.874c-6.852,11.721-14.883,22.259-22.941,32.773
	c-2.773,1.3-5.936,2.841-8.641,1.191c-0.357-2.207,2.043-3.065,2.98-4.469c2.344-3.516,3.494-7.15,6.256-10.428
	c3.895-4.623,8.071-9.709,11.322-15.195C220.947,249.007,225.035,238.696,236.718,235.978z"/>
<path fill-rule="evenodd" clip-rule="evenodd" fill="#FFFFFF" d="M185.77,266.368c1.643,6.241,1.863,11.57,3.576,16.982
	c-1.581,1.971-4.404,1.324-6.854,1.788c-3.061,0.579-5.836,2.907-8.64,2.085c0.196-4.642-1.817-11.224-2.979-16.387
	C175.401,269.137,180.879,265.788,185.77,266.368z"/>
<path fill-rule="evenodd" clip-rule="evenodd" fill="#95A5A6" d="M180.407,288.713c-0.549,1.735-2.89,1.679-3.874,2.979
	c-8.668,0.171-13.205,7.618-21.451,6.555c-3.906-0.504-8.961-5.052-12.811-7.746c-4.188-2.933-8.957-5.364-12.515-7.747
	c-3.868-2.591-6.843-6.383-11.619-8.045c-3.818,0.75-6.273,2.863-9.235,4.47c-0.908-0.482-1.27-1.513-1.789-2.384
	c0.684-1.965,3.213-2.814,5.363-3.873c1.896-0.933,4.143-2.512,5.959-2.979c4.68-1.206,7.05,1.457,10.428,3.873
	c6.229,6.781,14.65,11.37,21.154,17.876c8.16,0.705,14.621-1.519,21.153-3.277C173.383,290.633,177.068,289.326,180.407,288.713z"/>
<path fill-rule="evenodd" clip-rule="evenodd" fill="#95A5A6" d="M103.539,277.392c2.551,0.629,3.944,4.538,2.383,7.448
	c-1.146,2.137-5.459,4.803-8.342,7.448c-1.985,1.822-7.228,6.919-8.938,6.853c-3.442-0.132-4.084-7.084-1.788-9.832
	c1.268-1.517,4.959-1.405,6.854-2.682C97.937,283.78,100.018,279.294,103.539,277.392z"/>
<path fill-rule="evenodd" clip-rule="evenodd" fill="#95A5A6" d="M118.436,277.987c3.671,1.602,8.318,3.355,9.534,6.854
	c1.021,2.935,0.285,8.127,0.596,12.812c0.346,5.206,1.528,10.548,2.086,16.089c0.926,9.188,0.872,17.975,2.384,27.112
	c1.264,7.645,1.68,15.122,2.085,23.239c0.37,7.393,3.164,15.484,1.49,22.644c-0.605,2.588-2.361,5.53-3.575,7.746
	c-1.398,2.553-2.33,5.249-4.172,6.853c-1.111-12.093-2.311-23.828-2.979-36.944c-0.106-2.113-0.118-4.171-0.298-6.257
	c-0.144-1.678-1.002-3.326-1.191-5.064c-0.674-6.203-0.002-12.568-0.299-18.473c-0.145-2.905-0.868-5.803-1.191-8.641
	c-0.507-4.453-0.28-8.951-0.596-13.406c-0.361-5.122-2.142-10.086-2.681-15.195c-0.644-6.088-0.425-12.371-1.192-18.473
	C118.436,278.583,118.436,278.286,118.436,277.987z"/>
<path fill-rule="evenodd" clip-rule="evenodd" fill="#1A1A1A" d="M92.217,284.542c-5.725,0.391-10.093,5.239-9.533,11.321
	c0.424,4.622,5.726,8.296,9.831,4.172c1.042,2.545-1.827,3.734-3.277,5.064c-3.642,3.344-7.301,7.543-12.215,9.832
	c-4.622,4.416-8.616,9.459-18.175,8.938c-6.644-3.784-8.343-12.513-9.832-21.452c6.011-10.375,18.953-13.82,29.198-19.962
	c1.152,0.159,1.455-0.532,2.682-0.298c1.943-1.541,6.152-2.363,8.64-0.894C90.544,282.243,91.585,283.188,92.217,284.542z"/>
<path fill-rule="evenodd" clip-rule="evenodd" fill="#3498DB" d="M197.39,335.192c-0.905,0.789-3.585,1.371-5.064,0.596
	c-3.206-2.861-3.994-9.043-5.661-14.896c-2-7.024-3.74-12.244-5.66-19.068c-0.832-2.951-2.649-6.373-2.086-8.342
	c0.74-2.592,5.486-3.391,7.448-3.874c0.981,1.7,0.833,4.53,2.384,5.661c1.247,11.577,5.372,22.823,7.448,34.562
	c0.14,0.854,1.188,0.799,1.489,1.489C197.779,332.8,197.641,334.052,197.39,335.192z"/>
<path fill-rule="evenodd" clip-rule="evenodd" fill="#3498DB" d="M177.428,300.929c1.711,0.275,1.312,2.66,2.086,3.873
	c-7.742,10.333-13.971,22.181-22.047,32.178c-1.906,3.978-4.545,7.49-7.152,11.023c-4.443,6.026-7.395,13.048-13.108,17.876
	c-0.291-6.892,4.833-9.854,8.044-14.896c7.176-11.267,13.807-22.715,21.75-32.476C170.156,312.329,174,306.836,177.428,300.929z"/>
<path fill-rule="evenodd" clip-rule="evenodd" fill="#3498DB" d="M72.255,323.274c0.481-0.084,0.514,0.282,0.894,0.299
	c-2.158,15.553-2.752,30.641-5.959,44.69c-0.217,0.953-0.1,2.905-1.489,3.278c-2.677-1.713,0.072-4.023,0.596-5.959
	c0.763-2.818,0.924-6.82,1.49-10.727c1.404-9.684,1.919-22.224,4.469-30.688C72.255,323.871,72.255,323.573,72.255,323.274z"/>
<path fill-rule="evenodd" clip-rule="evenodd" fill="#3498DB" d="M69.275,324.466c0.346-0.048,0.53,0.065,0.596,0.298
	c-1.509,6.277-2.305,12.934-4.171,19.068c-0.569,1.872-2.002,3.475-2.384,5.363c-0.177,0.879,0.259,1.773,0,2.682
	c-0.498,1.751-1.578,3.348-2.085,5.064c-0.588,1.986-0.654,3.955-1.192,5.959c-1.14,4.25-3.098,8.305-3.574,12.811
	c-0.447,4.22-1.572,6.084-2.385,10.131c-2.319,11.564-6.191,22.742-8.044,34.561c-1.821,2.053-1.16,6.586-4.767,6.854
	c-1.037-1.555,0.87-3.326,0-4.768c5.73-13.681,8.568-28.633,12.215-43.797c0.797-3.313,2.223-6.84,2.98-10.131
	c0.273-1.193,0.283-2.406,0.595-3.574c0.946-3.539,2.556-6.922,3.575-10.428c1.012-3.476,1.138-7.057,1.788-10.429
	C63.741,337.298,67.298,330.686,69.275,324.466z"/>
<path fill-rule="evenodd" clip-rule="evenodd" fill="#B3B3B3" d="M216.756,325.36c1.664,2.8-0.407,3.046-2.979,4.47
	c-2.665,1.476-8.204,4.321-11.024,6.257c-4.795,3.293-8.16,7.639-12.215,11.321c1.082-3.387,2.581-6.356,4.469-8.938
	c4.658,0.245,5.785-4.486,4.768-8.938C204.738,327.534,210.142,322.95,216.756,325.36z"/>
<path fill-rule="evenodd" clip-rule="evenodd" fill="#3498DB" d="M186.068,327.148c0.995,2.815-1.219,4.646-2.682,5.958
	c-2.141,5.309-6.66,8.938-9.832,13.408c-3.203,4.514-5.406,9.616-9.236,13.705c-3.185,4.408-6.578,8.732-9.533,13.407
	c-2.958,4.678-5.794,9.463-9.236,13.705c1.061-4.222,3.331-7.735,5.064-11.321c1.736-3.594,4.043-7.066,5.363-10.727
	c0.418-1.158,0.135-2.684,0.596-3.873c0.375-0.969,1.453-1.443,2.383-2.682c2.142-2.848,3.752-5.821,6.258-8.64
	c1.521-1.712,3.352-3.198,4.767-5.065c2.825-3.728,5.859-7.162,8.938-10.726c2.345-2.714,3.485-5.519,6.257-7.448
	C185.656,326.766,185.687,327.131,186.068,327.148z"/>
<path fill-rule="evenodd" clip-rule="evenodd" fill="#3498DB" d="M79.703,329.532c4.719,5.234,8.006,11.807,12.216,18.174
	c0.738,1.115,1.914,1.867,2.682,2.979c1.212,1.755,1.712,4.235,2.979,6.257c2.295,3.66,4.907,7.154,7.449,11.023
	c2.26,3.443,4.451,6.649,6.852,10.428c-0.588,1.002-0.752,2.426-1.787,2.979c-5.133-6.189-8.373-14.271-13.706-20.26
	c0.239-1.034-0.443-1.146-0.298-2.085c-4.86-7.058-9.463-14.372-12.812-22.941c-0.211-1.08-1.651-0.931-2.085-1.788
	C81.048,332.358,79.875,331.446,79.703,329.532z"/>
<path fill-rule="evenodd" clip-rule="evenodd" fill="#333333" d="M183.089,426.362c6.016,14.891,15.575,28.551,26.219,42.902
	c5.056,6.818,9.321,12.898,15.493,19.068c1.371,1.371,2.658,2.971,4.171,4.471c3.546,3.51,9.479,9.672,14.003,11.619
	c6.523,2.807,16.256-2.221,19.366-6.555c1.457-2.029,2.591-6.684,3.575-10.131c3.301-11.547,3.236-28.375,2.979-41.711
	c-0.255-13.184-4.44-26.105-7.746-38.137c-1.327-4.83-3.095-9.514-4.767-14.002c-3.764-10.104-7.119-19.402-11.62-26.219
	c-2.548-3.857-6.389-9.094-9.236-11.918c-2.667-2.646-7.029-4.778-11.023-7.15c-1.626-0.967-3.878-2.131-5.959-2.98
	c-6.134-2.502-12.835-4.337-20.856-2.383c1.496-3.339,5.692-5.262,8.641-6.555c4.699-2.062,12.146,2.397,17.28,5.064
	c12.306,6.394,25.422,14.137,32.178,26.219c7.114,12.722,11.362,29.759,14.599,45.585c2.562,12.525,3.879,25.503,5.363,39.031
	c0.493,4.488,1.346,9.117,1.191,13.109c-0.334,8.691-2.437,20.275-4.469,28.006c-0.787,2.996-3.414,5.889-5.363,8.938
	c-3.682,5.768-8.239,11.092-16.088,12.217c-8.021,1.148-16.698-2.613-22.048-7.746c-2.066-1.982-3.112-4.551-5.661-7.449
	c-3.107-3.533-6.932-6.988-10.428-11.023c-3.188-3.678-6.305-7.861-9.236-11.918c-2.879-3.984-6.258-8.297-8.938-12.514
	c-2.839-4.463-6.139-9.639-7.151-14.002c-0.315-1.361,0.003-2.711-0.298-4.172c-0.331-1.611-1.347-3.098-1.787-4.768
	C184.231,436.558,184.368,431.331,183.089,426.362z"/>
<path fill-rule="evenodd" clip-rule="evenodd" fill="#3498DB" d="M81.193,339.364c8.59,17.131,16.344,35.1,22.941,54.225
	c-1.869-0.279-2.266,0.912-3.576,1.191C93.35,376.407,87.393,358.467,81.193,339.364z"/>
<path fill-rule="evenodd" clip-rule="evenodd" fill="#3498DB" d="M189.941,341.151c0.453,1.551-1.258,3.504-1.788,5.064
	C187.637,344.6,189.068,342.368,189.941,341.151z"/>
<path fill-rule="evenodd" clip-rule="evenodd" fill="#3498DB" d="M205.732,345.024c1.325-0.233,1.788,0.396,2.979,0.299
	c7,25.178,16.363,49.58,22.346,74.784c-3.121,0.018-2.9-5.823-5.064-7.748c-4.104-11.76-6.659-25.221-10.428-38.435
	c-2.863-10.041-5.1-20.28-9.534-28.006C205.682,345.87,205.779,345.375,205.732,345.024z"/>
<path fill-rule="evenodd" clip-rule="evenodd" fill="#3498DB" d="M187.855,347.408c0.581,1.384,0.144,4.308-0.596,5.362
	C186.015,351.835,187.368,348.573,187.855,347.408z"/>
<path fill-rule="evenodd" clip-rule="evenodd" fill="#B3B3B3" d="M184.578,348.301c1.559,0.232-0.101,3.433,0,5.363
	c0.07,1.32,0.93,2.623,0.895,3.575c-0.1,2.687-2.212,6.194-3.277,9.534c-1.65,5.169-3.309,10.273-3.874,15.791
	c-1.888,18.427,1.327,36.311,3.874,53.034c0.367,2.416,0.91,5.277,1.489,7.746c0.414,1.764,2.489,4.461,0.298,6.258
	c-1.443-1.195-1.506-2.965-2.383-4.471c-3.461-5.943-5.566-13.877-7.449-22.643c-1.86-8.663-3.123-15.875-2.682-25.921
	c0.5-11.365,2.93-20.536,5.661-29.496c1.917-6.287,4.716-11.583,7.15-17.28C184.401,349.51,184.121,348.6,184.578,348.301z"/>
<path fill-rule="evenodd" clip-rule="evenodd" fill="#4D4D4D" d="M144.356,349.196c-0.946,3.045-3.945,5.563-7.448,5.064
	c-0.779-1.422-0.879-4.322,0.298-5.363C139.855,349.393,142.756,347.87,144.356,349.196z"/>
<path fill-rule="evenodd" clip-rule="evenodd" fill="#4D4D4D" d="M135.12,403.42c-1.213-0.078-2.021-0.561-2.979-0.894
	c0.159-4.271,3.291-7.788,5.065-11.918c2.323-5.405,5.312-9.864,8.044-15.194c0.884-1.723,2.064-3.551,2.682-5.065
	c1.805-4.43,3.429-10.517-1.787-12.216c0.961-1.621,1.044-4.12,3.277-4.469c8.953,5.921,1.579,15.686-2.086,23.537
	c-2.574,5.516-5.057,10.624-6.555,15.493c-1.959,1.815-2.335,5.213-4.171,7.15C136.146,401.069,135.973,402.584,135.12,403.42z"/>
<path fill-rule="evenodd" clip-rule="evenodd" fill="#3498DB" d="M188.451,355.154c1.521,10.431,5.918,20.331,8.938,29.794
	c1.569,4.916,1.892,10.094,3.277,14.897c1.683,5.829,4.114,11.62,6.556,16.982c2.441,5.365,5.778,10.593,5.959,16.685
	c-2.084-2.615-2.984-6.154-4.172-9.236c-3.449-8.954-7.688-18.944-11.023-28.9c-3.113-13.374-7.405-25.567-10.429-39.03
	C188.171,356.264,187.838,355.236,188.451,355.154z"/>
<path fill-rule="evenodd" clip-rule="evenodd" fill="#4D4D4D" d="M123.501,362.602c0.481-0.084,0.513,0.282,0.894,0.299
	c0.353,1.424-0.392,4.441,0.298,6.257c-1.25,0.438-1.557,1.819-2.979,2.085c-0.078,1.609-0.627,2.75-1.787,3.277
	c-0.562,4.919-4.334,7.754-6.555,11.62c-1.78,3.097-2.452,7.22-5.959,8.342C110.605,381.686,118.578,373.668,123.501,362.602z"/>
<path fill-rule="evenodd" clip-rule="evenodd" fill="#B3B3B3" d="M89.834,405.506c-1.717,1.064-3.264,2.299-6.258,2.085
	c-3.04-15.829-14.74-22.997-25.324-31.283c0.104-1.684,0.646-2.931,0.894-4.47c0.298,0,0.596,0,0.894,0
	c8.809,3.248,17.834,10.051,24.729,16.982C88.582,392.655,92.106,397.4,89.834,405.506z"/>
<path fill-rule="evenodd" clip-rule="evenodd" fill="#333333" d="M52.591,377.797c-8.46-1.031-15.235,1.952-21.153,3.873
	c-1.275-2.35,2.414-4.707,5.064-6.256C41.201,372.667,50.516,370.973,52.591,377.797z"/>
<path fill-rule="evenodd" clip-rule="evenodd" fill="#333333" d="M29.352,381.969c-1.471,6.771-6.671,9.814-9.534,15.195
	c-0.61,2.667-1.788,4.766-3.277,6.554c-1.718,5.433-3.915,10.386-4.171,17.281c-1.498,0.287-3.624-1.58-5.363-1.191
	c4.73-14.582,12.536-26.231,20.855-37.243c0.227-0.301,0.434-0.538,0.597-0.895C28.939,381.586,28.971,381.952,29.352,381.969z"/>
<path fill-rule="evenodd" clip-rule="evenodd" fill="#3498DB" d="M63.019,384.948c4.66,0.52,2.447,5.162,1.489,9.236
	c-0.64,2.725-0.699,5.165-0.893,7.15c-0.539,5.525-2.198,11.729-2.682,17.579c-0.393,4.738-0.055,9.363-2.086,12.513
	c-1.502-1.773-0.337-4.479,0-6.555c1.091-6.736,1.181-13.278,1.787-21.749C61.078,396.936,62.623,390.516,63.019,384.948z"/>
<path fill-rule="evenodd" clip-rule="evenodd" fill="#F39C12" d="M138.993,409.081c1.227,3.258-0.946,6.572-3.873,6.854
	c-2.12,0.203-4.909-1.629-6.853-2.384c-2.168-0.842-4.578-2.034-7.448-2.979c-8.636-2.843-16.751-3.408-19.962-10.13
	c0.363-3.022,3.904-6.649,6.256-3.276c10.322,0.115,16.287,7.145,26.219,8.64C134.547,407.569,136.91,408.186,138.993,409.081z"/>
<path fill-rule="evenodd" clip-rule="evenodd" fill="#333333" d="M86.854,409.677c0.553,0.64,0.202,2.183,0.299,3.277
	c-1.57,0.019-2.188,0.991-3.874,0.894c-0.433-1.254-1.01-2.366-1.191-3.873C83.887,410.086,85.379,409.891,86.854,409.677z"/>
<path fill-rule="evenodd" clip-rule="evenodd" fill="#B3B3B3" d="M126.182,416.53c0.276,1.566-2.143,0.438-2.681,1.192
	c-4.597,3.025-4.227,13.589,1.489,14.896c1.284,0.135,2.107-1.25,2.979-0.596c0.444,4.432,1.316,10.721,1.489,16.387
	c-0.967,0.225-1.305,1.078-1.787,1.789c-1.244,0.066-1.407-0.486-2.383,0c-4.936,2.338-10.158,3.535-14.897,2.979
	c-14.667-1.719-15.437-28.355-8.045-39.03c1.483-2.143,4.639-2.103,6.853-3.873C114.818,412.4,121.643,413.324,126.182,416.53z
	 M101.453,418.616c-2.695,5.34,1.4,13.311,8.342,13.11c6.293-0.184,10.83-8.857,7.15-14.003c-1.836-2.571-6.248-3.724-11.023-2.683
	C103.125,415.651,102.584,416.375,101.453,418.616z M103.836,438.577c-1.832,3.617,1.086,9.393,3.874,11.621
	c5.871,4.691,17.137,0.932,16.982-6.258c-0.116-5.42-6.758-9.943-12.216-9.533c-0.184,0.014-0.329,0.301-0.298,0.297
	C107.668,435.071,104.8,436.679,103.836,438.577z"/>
<path fill-rule="evenodd" clip-rule="evenodd" d="M105.922,415.04c4.775-1.041,9.188,0.111,11.023,2.683
	c3.68,5.146-0.857,13.82-7.15,14.003c-6.941,0.201-11.037-7.77-8.342-13.11C102.584,416.375,103.125,415.651,105.922,415.04z
	 M105.624,416.828c-5.81,2.378-1.919,13.279,4.47,12.812c2.379-0.174,3.654-2.154,5.959-3.873
	C117.683,418.516,110.771,414.721,105.624,416.828z"/>
<path fill-rule="evenodd" clip-rule="evenodd" fill="#333333" d="M88.344,457.349c-0.075-13.797-2.347-28.322-4.171-40.521
	c0.167-0.429,0.464-0.727,0.894-0.894c1.319-0.326,1.481,0.505,2.384,0.596c0.751,1.434,1.087,3.284,2.085,4.469
	c1.333,8.254,1.771,18.893,2.086,29.496C91.705,453.315,92.679,457.97,88.344,457.349z"/>
<path fill-rule="evenodd" clip-rule="evenodd" fill="#FFFFFF" d="M4.92,416.232c0.657,2.371-1.113,7.408-2.085,10.13
	C1.456,423.19,4.353,419.925,4.92,416.232z"/>
<path fill-rule="evenodd" clip-rule="evenodd" fill="#95A5A6" d="M137.206,418.317c1.555,24.36,5.099,47.899,5.958,72.102
	c0.233,6.559,1.383,12.918,1.788,19.367c0.257,4.072,0.13,7.754,0.895,11.619c0.211,1.066,0.997,2.137,1.191,3.277
	c1.425,8.357-0.472,17.76,1.192,26.516c-1.93,0.574-5.482,0.367-7.449,0c-1.771-2.002-1.64-5.906-3.277-8.043
	c0.529-3.002-0.664-6.324-0.894-8.939c-0.939-10.713,0.62-21.352,0-31.582c-0.798-13.158-1.751-25.781-3.575-38.434
	c-2.215-15.357-1.824-30.908-4.47-46.18c0-0.199,0-0.397,0-0.596C130.328,417.903,135.07,419.829,137.206,418.317z"/>
<path fill-rule="evenodd" clip-rule="evenodd" fill="#333333" d="M12.07,423.979c-0.566,10.77-0.591,21.428,1.192,31.582
	c1.297,7.379,1.511,14.475,3.575,22.047c2.266,8.311,5.066,18.783,9.832,25.92c2.311,3.461,10.609,8.824,15.195,9.535
	c2.602,0.402,5.741-0.225,8.342-0.596c2.653-0.381,5.381-0.988,7.449-1.789c18.692-7.234,31.62-24.979,30.985-50.648
	c5.87-0.236,2.526,9.613,2.085,14.002c-1.201,11.977-4.51,20.146-9.235,28.9c-4.196,7.773-8.123,12.607-16.685,15.791
	c-6.661,2.477-13.563,3.068-20.856,2.682c-14.523-0.77-22.781-8.551-27.708-19.664c-1.623-3.66-3.518-7.748-4.469-11.619
	c-0.425-1.727-0.251-3.607-0.596-5.363c-1.108-5.643-2.965-11.912-3.576-18.473c-0.636-6.824-0.872-14.256-0.894-20.855
	c-0.015-4.477,0.438-8.611,0.894-14.004C8.01,426.604,7.389,420.394,12.07,423.979z"/>
<path fill-rule="evenodd" clip-rule="evenodd" fill="#FFFFFF" d="M222.119,426.659c-2.803,0.873-3.619,3.732-6.555,4.471
	C216.289,428.554,220.434,426.298,222.119,426.659z"/>
<path fill-rule="evenodd" clip-rule="evenodd" fill="#666666" d="M44.845,429.64c1.966-0.336,3.969-0.611,5.362-0.297
	c3.461,0.779,4.726,4.875,7.747,4.766c0.94,1.543,1.755,3.211,3.873,3.576c5.579,12.652-4.048,27.76-14.599,29.793
	c-11.835,2.281-20.031-10.326-17.281-23.834c1.314-6.457,5.716-10.877,11.322-13.707C42.657,430.091,43.926,430.521,44.845,429.64z
	 M34.119,451.39c0.153,1.158,1.049,2.176,1.489,3.574c0.357,1.139,0.192,2.459,0.596,3.277c1.434,2.912,5.474,3.928,9.832,3.576
	c4.991-1.627,9.542-5.068,10.726-10.727c0.119-0.568-0.362-1.381-0.297-2.086c0.163-1.785,1.084-3.477,0.893-4.766
	c-0.629-4.252-4.446-6.877-6.554-9.832c-2.005,0.408-2.938-1.82-4.171-1.191C40.329,435.29,32.895,442.165,34.119,451.39z"/>
<path fill-rule="evenodd" clip-rule="evenodd" d="M46.633,433.216c1.232-0.629,2.166,1.6,4.171,1.191
	c2.107,2.955,5.925,5.58,6.554,9.832c0.191,1.289-0.729,2.98-0.893,4.766c-0.065,0.705,0.416,1.518,0.297,2.086
	c-1.184,5.658-5.734,9.1-10.726,10.727c-4.358,0.352-8.398-0.664-9.832-3.576c-0.403-0.818-0.238-2.139-0.596-3.277
	c-0.44-1.398-1.336-2.416-1.489-3.574C32.895,442.165,40.329,435.29,46.633,433.216z M43.355,437.981
	c-2.168,1.193-5.444,5.123-5.959,7.449c-0.947,4.279,0.34,10.178,2.681,11.918c1.797,1.334,6.856,1.141,9.534-0.299
	c2.801-1.506,5.885-9.232,5.065-13.109c-0.597-2.818-5.192-6.965-7.747-6.852C45.848,437.136,44.333,437.444,43.355,437.981z"/>
<path fill-rule="evenodd" clip-rule="evenodd" d="M112.179,434.704c-0.031,0.004,0.114-0.283,0.298-0.297
	c5.458-0.41,12.1,4.113,12.216,9.533c0.154,7.189-11.111,10.949-16.982,6.258c-2.788-2.229-5.706-8.004-3.874-11.621
	C104.8,436.679,107.668,435.071,112.179,434.704z M105.922,440.962c-0.626,7.664,11.158,11.824,15.791,5.66
	c1.942-5.006-2.639-8.152-6.257-9.533c-1.117-0.225-0.649,1.137-1.489,1.191C110.566,435.423,106.195,437.63,105.922,440.962z"/>
<path fill-rule="evenodd" clip-rule="evenodd" fill="#666666" d="M46.93,437.089c2.555-0.113,7.15,4.033,7.747,6.852
	c0.819,3.877-2.265,11.604-5.065,13.109c-2.678,1.439-7.737,1.633-9.534,0.299c-2.341-1.74-3.628-7.639-2.681-11.918
	c0.515-2.326,3.791-6.256,5.959-7.449C44.333,437.444,45.848,437.136,46.93,437.089z M46.633,444.536
	c-3.918-2.023-7.357,4.42-4.768,8.045c4.664,2.104,8.601-0.934,9.236-4.768c-0.723-1.564-1.545-4.607-3.576-3.873
	C47.014,443.925,46.763,444.171,46.633,444.536z"/>
<path fill-rule="evenodd" clip-rule="evenodd" d="M47.525,443.94c2.031-0.734,2.854,2.309,3.576,3.873
	c-0.636,3.834-4.572,6.871-9.236,4.768c-2.59-3.625,0.85-10.068,4.768-8.045C46.763,444.171,47.014,443.925,47.525,443.94z
	 M43.355,450.198c2.648,1.67,5.141,0.342,5.66-2.385C47.102,445.017,42.531,447.05,43.355,450.198z"/>
<path fill-rule="evenodd" clip-rule="evenodd" fill="#666666" d="M49.016,447.813c-0.52,2.727-3.012,4.055-5.66,2.385
	C42.531,447.05,47.102,445.017,49.016,447.813z"/>
<path fill-rule="evenodd" clip-rule="evenodd" fill="#B3B3B3" d="M54.379,369.752c-0.354,1.136-0.395,2.586-0.895,3.576
	c-5.384-3.223-11.636-3.129-17.28,0c-3.473,1.925-7.72,4.843-9.832,7.15c-0.879,0.961-1.435,2.647-2.384,3.873
	c-0.884,1.143-2.247,1.883-2.979,2.979c-1.26,1.888-1.788,4.268-2.98,6.257c-2.694,4.498-5.664,8.802-8.342,13.408
	c-0.928,1.596-1.527,3.17-2.682,4.469c2.908-6.292,4.496-13.771,8.641-19.367c5.625-7.594,10.545-15.543,19.365-20.26
	c1.105,0.211,1.279-0.509,2.385-0.297c2.641-1.712,7.831-3.3,12.215-2.682C51.53,369.13,53.048,370.368,54.379,369.752z"/>
<path fill-rule="evenodd" clip-rule="evenodd" fill="#333333" d="M74.043,392.993c0.822,0.071,0.68,1.107,1.191,1.489
	C75.007,394.976,73.822,393.931,74.043,392.993z"/>
<path fill-rule="evenodd" clip-rule="evenodd" fill="#FFFFFF" d="M6.41,413.55c0.98,0.62-0.503,1.257-0.596,1.788
	C5.244,415.127,6.176,413.94,6.41,413.55z"/>
<path fill-rule="evenodd" clip-rule="evenodd" d="M146.74,85.816c-9.508,5.092-19.402,9.796-28.007,15.791
	c-0.038,13.932,3.127,28.19,4.171,42.308c0.544,7.346,0.109,14.605,0.597,22.346c0.567,9.004,1.915,18.02,1.489,27.709
	c-0.313,7.14,0.617,13.791,1.191,19.961c1.535,16.476,1.294,31.096,2.384,48.863c0.155,2.52-0.229,5.744,0.298,7.447
	c0.457,1.473,5.412,5.756,6.853,6.854c2.722,2.07,6.007,3.477,8.641,5.66c2.768,2.294,4.721,5.093,7.448,6.555
	c7.498,0.398,13.869-1.449,19.664-3.575c-0.01-3.347-1.363-6.135-1.787-8.938c-0.121-0.801,0.146-1.566,0-2.383
	c-0.173-0.972-1.478-2.938-1.191-4.172c0.473-2.039,6.66-3.789,8.64-4.469c3.655-1.254,6.985-2.096,10.726-1.489
	c1.635,4.92,1.405,11.704,3.873,15.79c2.061-1.195,2.223-4.091,3.576-6.256c1.595-2.552,4.071-4.783,6.256-7.449
	c1.969-2.4,3.363-5.535,5.363-8.044c2.127-2.669,5.068-5.271,7.746-8.045c2.577-2.667,5.008-5.915,7.449-8.044
	c0.868-0.758,2.153-0.811,2.979-1.49c2.668-2.192,8.462-9.853,14.303-5.959c3.42,2.281,4.143,10.025,3.574,16.09
	c-0.412,4.411-3.189,9.104-1.489,14.002c0.899,2.592,3.418,2.618,5.661,4.47c-0.158,4.633-3.986,7.884-7.746,5.362
	c-1.516-1.015-4.225-6.148-4.768-10.725c-0.611-5.156,4.051-17.303-0.895-18.771c-2.266-0.673-4.607,4.474-7.15,4.767
	c-7.594,11.871-15.926,23.005-23.836,34.562c-2.867,1.104-5.16,2.784-8.043,3.873c-1.88-0.265-3.717-1.108-5.363,0
	c2.037,11.77,5.335,24.854,8.342,36.646c7.877,2.932,13.129-5.981,20.856-1.489c0.596,1.488,0.886,3.285,1.191,5.064
	c-1.764,2.408-5.045,3.298-7.448,5.065c11.65,5.821,24.227,10.606,33.369,19.366c2.988,2.862,6.186,5.32,8.641,8.641
	c7.044,9.523,10.884,24.18,14.599,38.136c1.515,5.689,2.322,10.286,3.575,16.685c1.258,6.422,3.156,14.284,4.172,22.643
	c0.497,4.1,0.397,8.627,0.893,12.812c1.224,10.316,1.425,18.51-0.297,29.197c-0.375,2.328-1.035,4.873-1.49,7.15
	c-1.491,7.471-3.012,9.373-6.853,15.791c-3.866,6.463-7.804,10.334-15.791,12.514c-2.49,0.68-7.952,0.588-11.321,0
	c-6.993-1.217-10.613-6.199-15.791-9.832c-13.825-17.855-30.314-33.047-40.223-54.82c-2.234-0.189-4.221,1.26-6.256,0.297
	c-0.389-1.291,0.988-1.836,0.894-3.277c-0.058-0.877-1.293-2.871-2.086-4.469c-1.989-4.012-4.658-9.1-4.171-14.6
	c-1.696-4.98-3.422-11.709-4.469-18.173c-0.693-4.284-0.865-9.698,0-13.407c-1.097-7.086,0.519-13.607,2.086-19.367
	c1.732-6.365,2.934-12.464,5.064-18.174c1.047-2.803,2.754-5.09,3.873-7.746c0.528-1.253,0.393-2.688,0.895-3.873
	c0.512-1.214,1.488-2.312,2.085-3.576c0.624-1.32,0.889-2.986,1.49-4.17c1.493-2.944,5.22-5.182,2.085-9.236
	c-4.295,4.542-7.161,10.516-11.918,14.599c-3.979,7.343-7.967,14.676-14.002,19.962c-1.737,3.461-3.897,6.639-5.959,9.832
	c-2.044,3.165-3.91,6.436-5.959,9.534c-3.857,5.833-9.32,10.796-11.62,17.876c1.103,2.375,3.076,2.677,3.575,4.768
	c0.827,3.461-1.566,5.441-1.787,8.342c-0.174,2.276,0.938,2.963,1.787,5.065c0.93,2.301,1.332,5.797,1.191,8.344
	c-0.113,2.057-1.449,4.072-1.787,6.555c-0.449,3.293,0.714,8.145,1.191,12.811c1.156,11.293,2.732,24.344,3.277,36.35
	c0.23,5.053-0.271,11.189,0.299,15.791c1.74,14.039,4.017,30.523,4.171,44.094c-0.364,1.756,1.801,0.98,1.489,2.682
	c-0.256,1.83-0.751,3.422-1.489,4.768c-3.671-0.201-8.261,0.514-11.024-0.596c-1.199-1.582-1.43-4.131-2.682-5.662
	c-1.602-20.842-1.101-43.789-2.383-64.951c-0.386-6.369-1.328-12.76-2.086-19.068c-0.431-3.584-1.776-6.615-1.49-11.32
	c-6.273,0.893-13.414,5.24-21.749,3.277c-4.366,1.492-9.565,2.154-14.003,3.574c-1.193,7.617-0.084,15.828-1.788,22.941
	c-0.306,1.279-1.333,2.189-1.788,3.576c-0.935,2.854-1.103,6.342-2.085,8.938c-1.181,3.123-3.437,7.146-5.363,10.727
	c-4.378,8.133-9.273,13.023-18.472,16.387c-5.715,2.09-10.385,2.83-17.281,2.383c-2.9-0.188-6.03,0.254-8.64,0
	c-3.402-0.33-7.181-2.197-10.13-3.873c-7.311-4.152-12.578-11.555-15.791-20.557c-0.748-2.096-1.908-3.977-2.384-5.662
	c-0.465-1.646-0.208-3.564-0.596-5.363c-1.782-8.258-4.421-17.418-4.767-26.219c-0.43-10.938-0.23-21.602,0-33.07
	c-1.293-1.035-2.573,1.24-3.874,0.299c-2.506-2.484-0.909-5.818,0-8.641c1.854-5.758,4.019-10.986,6.257-16.686
	c1.076-2.737,1.878-5.783,2.979-8.342c2.037-4.729,6.019-9.012,9.236-13.109c3.347-4.263,7.194-9.043,11.023-11.322
	c3.386-2.014,8.653-4.079,12.812-4.767c3.562-0.589,7.273-0.107,11.024,0.596c5.361-12.415,6.328-29.227,11.917-41.413
	c-7.381,1.744-11.635-0.549-14.896-6.555c-1.439-2.65-5.341-12.987-4.768-16.982c0.556-3.865,5.136-5.224,5.661-8.045
	c6.114-4.514,13.231-6.861,20.261-11.023c4.521-2.679,9.451-6.016,17.875-4.172c1.497,1.086,2.854,2.311,3.874,3.873
	c3.208-2.354,6.142-4.98,8.641-8.045c5.33-0.727,7.565-4.549,12.215-5.958c-0.04-8.966-0.931-17.989-1.787-27.112
	c-0.841-8.961,0.89-18.276,0.596-26.815c-0.054-1.542-0.704-2.954-0.894-4.468c-0.682-5.441-0.164-11.309-1.192-16.983
	c-1.063-5.868-2.004-11.311-2.384-17.579c-0.582-9.627,0.234-22.421-0.596-33.369c-0.502-6.621-1.062-14.381-1.489-22.346
	c-0.414-7.703-2.535-15.423-2.979-23.239c-0.481-8.479-1.129-16.028-1.787-23.835c-0.693-8.208,0.184-16.537-0.895-24.432
	c-1.279-9.374-3.517-19.447-4.469-28.602c-0.395-3.786,0.387-7.042,0.297-10.428c-0.059-2.263-1.234-4.637,0.299-6.853
	c4.074-0.891,8.612-1.319,12.811-2.085c1.417-0.025,0.857,1.924,1.49,2.682c5.203-1.103,15.808-3.042,22.644-3.277
	c3.493-0.121,5.377,0.893,6.853,3.575C144.606,29.687,147.376,59.281,146.74,85.816z M145.25,70.621
	c-0.819-18.468-2.353-41.693-3.873-60.482c-0.346-4.266-2.025-7.341-4.767-8.342c-7.772,1.365-16.702,1.57-24.134,3.277
	c-0.416,5.225,0.596,8.985,0.895,12.811c0.187,2.393-0.062,5.179,0.596,7.151c0.354,1.058,1.469,1.909,1.787,2.979
	c1.047,3.517,1.251,8.267,1.49,12.216c1.16,19.161-0.144,39.658,1.489,58.396c8.966-4.343,17.099-9.517,25.921-14.003
	C144.928,80.914,145.451,75.133,145.25,70.621z M99.07,4.478c-0.053,2.87,0.19,3.725,1.191,5.661
	c-0.518,16.763,4.127,32.836,4.171,49.458c0.003,1.224-0.313,2.606-0.298,3.873c0.117,9.687,2.141,19.267,2.682,28.9
	c0.268,4.788,0.136,9.588,0.596,14.301c0.48,4.925,1.94,9.793,2.085,14.599c0.307,10.166,2.128,19.723,2.086,29.497
	c-0.025,5.981-0.995,12.584-0.597,18.771c0.13,1.995,0.752,3.982,0.895,5.959c0.151,2.081-0.123,4.109,0,6.256
	c0.395,6.874,2.627,13.77,2.979,20.856c0.428,8.597,0.91,14.886,0.894,22.346c-0.031,14.385,0.777,28.75,1.788,42.604
	c2.363-0.404,6.51-0.273,9.235,0.597c-0.402-7.46-0.466-14.733-0.596-22.048c-0.118-6.735,0.209-13.771-0.596-20.26
	c-1.182-9.541-2.492-19.957-2.085-29.198c0.228-5.174,0.614-10.163,0.298-15.195c-0.404-6.438-1.486-13.181-1.49-19.366
	c-0.006-10.944-1.66-22.216-2.979-33.965c-1.269-11.291-2.494-22.81-2.682-34.562c-0.207-12.86-0.582-25.404-0.895-37.54
	c-0.23-8.98,0.221-17.38-1.787-25.623c-0.619-2.54-1.968-4.763-2.384-7.449c-1.031-6.666-0.29-13.667-1.489-19.962
	C106.146,3.213,102.684,3.921,99.07,4.478z M212.287,254.749c-3.251,5.486-7.428,10.572-11.322,15.195
	c-2.762,3.277-3.912,6.912-6.256,10.428c-0.938,1.403-3.338,2.262-2.98,4.469c2.705,1.649,5.867,0.108,8.641-1.191
	c8.059-10.515,16.09-21.053,22.941-32.773c3.186-3.535,12.155-13.111,14.6-3.874c1.42,5.369-1.529,12.098-0.895,17.281
	c0.458,3.733,3.437,11.938,7.747,7.448c-1.361-2.731-3.792-2.686-5.065-5.064c-2.335-4.363-0.215-8.271,0.596-12.217
	c1.502-7.307,0.509-15.477-3.575-18.472C225.035,238.696,220.947,249.007,212.287,254.749z M170.873,270.836
	c1.162,5.163,3.176,11.745,2.979,16.387c2.804,0.822,5.579-1.506,8.64-2.085c2.449-0.464,5.272,0.183,6.854-1.788
	c-1.713-5.412-1.934-10.741-3.576-16.982C180.879,265.788,175.401,269.137,170.873,270.836z M171.171,288.416
	c-6.532,1.759-12.993,3.982-21.153,3.277c-6.504-6.506-14.926-11.095-21.154-17.876c-3.378-2.416-5.748-5.079-10.428-3.873
	c-1.816,0.467-4.063,2.046-5.959,2.979c-2.15,1.059-4.68,1.908-5.363,3.873c0.52,0.871,0.881,1.901,1.789,2.384
	c2.962-1.606,5.417-3.72,9.235-4.47c4.776,1.662,7.751,5.454,11.619,8.045c3.558,2.383,8.326,4.814,12.515,7.747
	c3.85,2.694,8.904,7.242,12.811,7.746c8.246,1.063,12.783-6.384,21.451-6.555c0.984-1.301,3.325-1.244,3.874-2.979
	C177.068,289.326,173.383,290.633,171.171,288.416z M93.707,286.627c-1.895,1.276-5.586,1.165-6.854,2.682
	c-2.296,2.748-1.654,9.7,1.788,9.832c1.711,0.066,6.953-5.03,8.938-6.853c2.883-2.646,7.196-5.312,8.342-7.448
	c1.562-2.91,0.168-6.819-2.383-7.448C100.018,279.294,97.937,283.78,93.707,286.627z M108.306,285.734
	c-3.997,3.947-8.585,7.306-12.812,11.024c0.168,2.65-1.347,2.703-0.596,5.363c-1.613,3.153-4.205,5.328-7.448,6.852
	c-2.507,4.844-8.683,6.016-11.62,10.428c5.898,10.662,13.695,20.125,20.26,30.391c5.627,8.798,10.605,18.169,17.579,25.92
	c3.532-5.703,6.39-12.082,10.13-17.578c0.415-1.412-0.42-2.502-0.596-3.873c-0.227-1.763,0.41-4.295,0.298-5.064
	c-0.118-0.811-0.843-1.212-0.894-2.086c-0.05-0.854,0.289-1.883,0.297-2.682c0.095-9.225-1.896-19.638-2.383-26.517
	c-0.114-1.615,0.484-3.28,0.298-4.767c-0.474-3.778-1.702-7.094-2.384-11.023c-1.363-7.87-0.068-16.195-2.383-24.135
	C112.436,279.534,107.972,280.236,108.306,285.734z M118.436,278.881c0.768,6.102,0.549,12.385,1.192,18.473
	c0.539,5.109,2.319,10.073,2.681,15.195c0.315,4.455,0.089,8.953,0.596,13.406c0.323,2.838,1.047,5.735,1.191,8.641
	c0.297,5.904-0.375,12.27,0.299,18.473c0.189,1.738,1.048,3.387,1.191,5.064c0.18,2.086,0.191,4.144,0.298,6.257
	c0.669,13.116,1.868,24.852,2.979,36.944c1.842-1.604,2.773-4.3,4.172-6.853c1.214-2.216,2.97-5.158,3.575-7.746
	c1.674-7.159-1.12-15.251-1.49-22.644c-0.405-8.117-0.821-15.595-2.085-23.239c-1.512-9.138-1.458-17.925-2.384-27.112
	c-0.558-5.541-1.74-10.883-2.086-16.089c-0.311-4.685,0.425-9.877-0.596-12.812c-1.216-3.498-5.863-5.252-9.534-6.854
	C118.436,278.286,118.436,278.583,118.436,278.881z M89.535,281.265c-2.487-1.47-6.696-0.647-8.64,0.894
	c-1.227-0.234-1.529,0.457-2.682,0.298c-10.245,6.142-23.188,9.587-29.198,19.962c1.489,8.939,3.188,17.668,9.832,21.452
	c9.559,0.521,13.553-4.522,18.175-8.938c4.914-2.289,8.573-6.488,12.215-9.832c1.45-1.33,4.319-2.52,3.277-5.064
	c-4.105,4.124-9.407,0.45-9.831-4.172c-0.56-6.082,3.809-10.931,9.533-11.321C91.585,283.188,90.544,282.243,89.535,281.265z
	 M130.055,286.627c-0.487,9.479,1.236,17.619,2.385,25.922c0.575,4.166,0.144,8.57,0.596,12.811
	c0.842,7.908,1.791,14.602,3.277,21.452c2.607-0.91,5.465-0.32,8.938,0c7.492-9.491,13.004-20.962,21.154-29.794
	c1.228-3.252,2.984-6.35,5.064-9.832c2.398-4.014,7.37-7.924,4.768-13.408c-3.082,0.827-5.971,2.072-8.938,3.277
	c-2.89,1.174-6.138,2.698-8.938,3.277c-4.395,0.91-7.484-0.557-10.428-2.383c-5.119-3.179-12.161-10.071-17.578-12.216
	C130.337,286.115,129.972,286.147,130.055,286.627z M197.688,331.319c-0.302-0.69-1.35-0.635-1.489-1.489
	c-2.076-11.738-6.201-22.984-7.448-34.562c-1.551-1.131-1.402-3.961-2.384-5.661c-1.962,0.483-6.708,1.282-7.448,3.874
	c-0.563,1.969,1.254,5.391,2.086,8.342c1.92,6.824,3.66,12.044,5.66,19.068c1.667,5.854,2.455,12.035,5.661,14.896
	c1.479,0.775,4.159,0.193,5.064-0.596C197.641,334.052,197.779,332.8,197.688,331.319z M167,318.507
	c-7.943,9.761-14.574,21.209-21.75,32.476c-3.211,5.043-8.335,8.005-8.044,14.896c5.714-4.828,8.665-11.85,13.108-17.876
	c2.607-3.533,5.246-7.046,7.152-11.023c8.076-9.997,14.305-21.845,22.047-32.178c-0.773-1.213-0.375-3.598-2.086-3.873
	C174,306.836,170.156,312.329,167,318.507z M170.277,339.959c3.371-4.248,9.318-9.082,12.514-14.004
	c2.654-4.086,1.082-6.516-0.299-11.023c-0.705-2.305-1.506-4.482-2.085-6.853c-0.298,0-0.596,0-0.894,0
	c-0.004,0.394-0.522,0.272-0.596,0.596c-9.491,14.245-18.834,28.64-28.604,42.605c3.15,1.022,3.517,4.827,5.959,6.555
	C160.848,352.715,164.83,346.823,170.277,339.959z M72.255,324.168c-2.55,8.464-3.064,21.004-4.469,30.688
	c-0.566,3.906-0.728,7.908-1.49,10.727c-0.523,1.936-3.272,4.246-0.596,5.959c1.39-0.373,1.272-2.325,1.489-3.278
	c3.207-14.05,3.801-29.138,5.959-44.69c-0.38-0.017-0.412-0.383-0.894-0.299C72.255,323.573,72.255,323.871,72.255,324.168z
	 M62.423,344.13c-0.65,3.372-0.776,6.953-1.788,10.429c-1.02,3.506-2.629,6.889-3.575,10.428c-0.312,1.168-0.321,2.381-0.595,3.574
	c-0.758,3.291-2.184,6.817-2.98,10.131C49.838,393.856,47,408.808,41.27,422.489c0.87,1.441-1.037,3.213,0,4.768
	c3.606-0.268,2.945-4.801,4.767-6.854c1.853-11.819,5.725-22.997,8.044-34.561c0.812-4.047,1.938-5.911,2.385-10.131
	c0.477-4.506,2.435-8.561,3.574-12.811c0.538-2.004,0.604-3.973,1.192-5.959c0.507-1.717,1.587-3.313,2.085-5.064
	c0.259-0.908-0.177-1.803,0-2.682c0.382-1.889,1.814-3.491,2.384-5.363c1.866-6.135,2.662-12.791,4.171-19.068
	c-0.065-0.232-0.25-0.346-0.596-0.298C67.298,330.686,63.741,337.298,62.423,344.13z M199.773,329.532
	c1.018,4.451-0.109,9.183-4.768,8.938c-1.888,2.582-3.387,5.552-4.469,8.938c4.055-3.683,7.42-8.028,12.215-11.321
	c2.82-1.936,8.359-4.781,11.024-6.257c2.572-1.424,4.644-1.67,2.979-4.47C210.142,322.95,204.738,327.534,199.773,329.532z
	 M185.175,326.85c-2.771,1.93-3.912,4.734-6.257,7.448c-3.079,3.563-6.113,6.998-8.938,10.726c-1.415,1.867-3.245,3.354-4.767,5.065
	c-2.506,2.818-4.116,5.792-6.258,8.64c-0.93,1.238-2.008,1.713-2.383,2.682c-0.461,1.189-0.178,2.715-0.596,3.873
	c-1.32,3.66-3.627,7.133-5.363,10.727c-1.733,3.586-4.004,7.1-5.064,11.321c3.442-4.242,6.278-9.027,9.236-13.705
	c2.955-4.675,6.349-8.999,9.533-13.407c3.83-4.089,6.033-9.191,9.236-13.705c3.172-4.47,7.691-8.1,9.832-13.408
	c1.463-1.312,3.677-3.143,2.682-5.958C185.687,327.131,185.656,326.766,185.175,326.85z M68.381,373.031
	c3.719,2.001,8.463,5.03,12.515,8.938c3.722,3.589,8.432,7.277,10.428,11.023c1.548,2.903,2.831,9.02,1.191,13.109
	c-0.624,1.557-2.424,1.494-3.277,3.277c0.742,0.45,0.374,2.01,0.895,2.682c4.435-1.523,10.353-1.564,15.194-2.682
	c-2.15-3.112-6.156-4.37-7.15-8.641c1.705-3.356,0.262-4.459-0.894-7.746c-1.295-3.684-2.054-5.603-2.979-8.938
	c-0.965-3.475-2.705-6.98-3.576-9.535c-0.471-1.385-0.434-2.799-0.893-4.171c-1.585-4.726-3.375-8.868-4.768-12.812
	c-1.836-5.198-3.754-10.906-5.363-15.493c-1.844-5.257-3.015-11.39-5.064-14.599C72.34,342.428,70.663,358.032,68.381,373.031z
	 M81.193,334.298c0.434,0.857,1.874,0.708,2.085,1.788c3.349,8.569,7.951,15.884,12.812,22.941
	c-0.146,0.939,0.537,1.051,0.298,2.085c5.333,5.989,8.573,14.07,13.706,20.26c1.035-0.554,1.199-1.978,1.787-2.979
	c-2.4-3.778-4.592-6.984-6.852-10.428c-2.542-3.869-5.154-7.363-7.449-11.023c-1.268-2.021-1.768-4.502-2.979-6.257
	c-0.768-1.112-1.943-1.864-2.682-2.979c-4.21-6.367-7.497-12.939-12.216-18.174C79.875,331.446,81.048,332.358,81.193,334.298z
	 M185.473,441.259c0.44,1.67,1.456,3.156,1.787,4.768c0.301,1.461-0.018,2.811,0.298,4.172c1.013,4.363,4.312,9.539,7.151,14.002
	c2.68,4.217,6.059,8.529,8.938,12.514c2.932,4.057,6.049,8.24,9.236,11.918c3.496,4.035,7.32,7.49,10.428,11.023
	c2.549,2.898,3.595,5.467,5.661,7.449c5.35,5.133,14.027,8.895,22.048,7.746c7.849-1.125,12.406-6.449,16.088-12.217
	c1.949-3.049,4.576-5.941,5.363-8.938c2.032-7.73,4.135-19.314,4.469-28.006c0.154-3.992-0.698-8.621-1.191-13.109
	c-1.484-13.527-2.801-26.506-5.363-39.031c-3.236-15.826-7.484-32.863-14.599-45.585c-6.756-12.082-19.872-19.825-32.178-26.219
	c-5.134-2.667-12.581-7.127-17.28-5.064c-2.948,1.293-7.145,3.216-8.641,6.555c8.021-1.954,14.723-0.119,20.856,2.383
	c2.081,0.85,4.333,2.014,5.959,2.98c3.994,2.372,8.356,4.504,11.023,7.15c2.848,2.824,6.688,8.061,9.236,11.918
	c4.501,6.816,7.856,16.115,11.62,26.219c1.672,4.488,3.439,9.172,4.767,14.002c3.306,12.032,7.491,24.954,7.746,38.137
	c0.257,13.336,0.321,30.164-2.979,41.711c-0.984,3.447-2.118,8.102-3.575,10.131c-3.11,4.334-12.843,9.361-19.366,6.555
	c-4.524-1.947-10.457-8.109-14.003-11.619c-1.513-1.5-2.8-3.1-4.171-4.471c-6.172-6.17-10.438-12.25-15.493-19.068
	c-10.644-14.352-20.203-28.012-26.219-42.902C184.368,431.331,184.231,436.558,185.473,441.259z M100.559,394.78
	c1.311-0.279,1.707-1.471,3.576-1.191c-6.598-19.125-14.352-37.094-22.941-54.225C87.393,358.467,93.35,376.407,100.559,394.78z
	 M188.153,346.215c0.53-1.561,2.241-3.514,1.788-5.064C189.068,342.368,187.637,344.6,188.153,346.215z M60.338,369.158
	c0.746,0.247,1.17,0.815,2.085,0.894c2.969-7.162,3.625-16.635,5.065-25.324c-0.066-0.232-0.25-0.348-0.596-0.299
	C64.529,352.297,61.277,360.857,60.338,369.158z M206.03,345.918c4.435,7.726,6.671,17.965,9.534,28.006
	c3.769,13.214,6.324,26.675,10.428,38.435c2.164,1.925,1.943,7.765,5.064,7.748c-5.982-25.204-15.346-49.606-22.346-74.784
	c-1.19,0.098-1.653-0.532-2.979-0.299C205.779,345.375,205.682,345.87,206.03,345.918z M211.988,369.158
	c-1.518-5.976-2.527-12.433-4.766-17.28c-0.956-2.07-3.835-6.207-5.363-6.555c-1.42-0.324-4.5,0.261-5.661,0.596
	c-0.444,0.128-0.606,0.945-1.192,1.191c-1.055,0.445-1.729,0.029-2.085,0.298c-5.024,3.772-0.544,10.531-0.894,16.387
	c1.637,2.551,1.658,5.431,2.383,8.343c1.334,5.353,4.491,10.26,5.661,15.492c0.265,1.184,0.03,2.393,0.298,3.576
	c2.992,13.226,9.337,24.648,13.705,36.348c4.82-2.033,9.282-4.424,12.812-7.746C221.544,405.436,216.223,385.823,211.988,369.158z
	 M211.691,346.812c2.833,12.69,7.378,26.817,11.321,38.732c2.939,8.88,5.089,15.183,7.746,24.133
	c0.699,2.354,3.776,9.353,2.979,12.216c-0.653,2.35-6.871,4.889-8.641,4.766c-3.217,2.146-5.057,5.67-9.235,6.854
	c-0.789,0.918,0.687,2.258-0.596,2.682c-2.025,0.139-3.47-0.305-4.768-0.895c-7.542-20.463-15.665-40.346-20.558-63.461
	c-2.205-2.662-1.623-8.109-4.172-10.428c-2.22,6.197-4.748,13.172-5.66,21.154c-0.982,8.602-1.688,23.668,1.191,32.475
	c0.73,2.232,2.623,5.213,3.576,7.747c1.215,3.236,1.707,6.746,3.276,10.131c1.454,3.135,3.894,6.545,5.661,10.129
	c5.419,10.992,12.734,18.467,19.367,28.008c2.271,3.268,4.006,6.512,6.554,9.236c2.416,2.582,4.911,5.131,7.747,8.043
	c5.055,5.193,11.54,11.783,17.578,14.004c5.433,1.998,14.074-3.721,15.791-6.256c1.082-1.598,1.611-4.604,2.383-7.15
	c1.885-6.215,3.086-11,3.576-18.473c1.045-15.947-0.281-35.266-2.979-47.969c-0.639-3.006-2.066-6.171-2.979-9.237
	c-6.554-21.986-14.477-43.871-28.9-57.204c-5.914-4.018-12.6-7.265-19.664-10.13c-0.299,0-0.596,0-0.894,0
	C211.44,346.268,211.342,346.764,211.691,346.812z M187.26,352.77c0.739-1.055,1.177-3.979,0.596-5.362
	C187.368,348.573,186.015,351.835,187.26,352.77z M184.28,349.792c-2.435,5.697-5.233,10.993-7.15,17.28
	c-2.731,8.96-5.161,18.131-5.661,29.496c-0.441,10.047,0.821,17.259,2.682,25.921c1.883,8.766,3.988,16.699,7.449,22.643
	c0.877,1.506,0.939,3.275,2.383,4.471c2.191-1.797,0.116-4.494-0.298-6.258c-0.579-2.469-1.122-5.33-1.489-7.746
	c-2.547-16.723-5.762-34.607-3.874-53.034c0.565-5.518,2.224-10.622,3.874-15.791c1.065-3.34,3.178-6.848,3.277-9.534
	c0.035-0.952-0.824-2.255-0.895-3.575c-0.101-1.931,1.559-5.131,0-5.363C184.121,348.6,184.401,349.51,184.28,349.792z
	 M137.206,348.897c-1.177,1.041-1.077,3.941-0.298,5.363c3.503,0.499,6.502-2.02,7.448-5.064
	C142.756,347.87,139.855,349.393,137.206,348.897z M100.559,377.5c1.65,4.198,2.37,9.034,5.363,12.514
	c0.641-1.683,2.495-3.354,2.384-5.362c-0.044-0.799-1.258-2.209-1.788-3.576c-1.328-3.43-2.446-4.227-4.171-7.15
	c-3.538-5.998-9.06-15.912-12.513-20.558C93.19,361.221,97.311,369.231,100.559,377.5z M136.61,399.845
	c1.836-1.938,2.212-5.335,4.171-7.15c1.498-4.869,3.98-9.978,6.555-15.493c3.665-7.852,11.039-17.616,2.086-23.537
	c-2.233,0.349-2.316,2.848-3.277,4.469c5.216,1.699,3.592,7.786,1.787,12.216c-0.617,1.515-1.798,3.343-2.682,5.065
	c-2.732,5.33-5.721,9.789-8.044,15.194c-1.774,4.13-4.906,7.646-5.065,11.918c0.958,0.333,1.767,0.815,2.979,0.894
	C135.973,402.584,136.146,401.069,136.61,399.845z M187.558,356.346c3.023,13.463,7.315,25.656,10.429,39.03
	c3.335,9.956,7.574,19.946,11.023,28.9c1.188,3.082,2.088,6.621,4.172,9.236c-0.181-6.092-3.518-11.32-5.959-16.685
	c-2.441-5.362-4.873-11.153-6.556-16.982c-1.386-4.804-1.708-9.981-3.277-14.897c-3.021-9.463-7.417-19.363-8.938-29.794
	C187.838,355.236,188.171,356.264,187.558,356.346z M144.059,373.329c1.965-4.145,6.064-11.125,1.191-12.812
	c-1.773,1.27-6.703,6.826-7.15,9.534c-0.668,4.053,0.918,8.812,0.894,12.514C140.505,380.408,142.259,377.126,144.059,373.329z
	 M107.412,394.482c3.507-1.122,4.179-5.245,5.959-8.342c2.221-3.866,5.993-6.701,6.555-11.62c1.16-0.527,1.709-1.668,1.787-3.277
	c1.423-0.266,1.729-1.646,2.979-2.085c-0.689-1.815,0.055-4.833-0.298-6.257c-0.381-0.017-0.412-0.383-0.894-0.299
	C118.578,373.668,110.605,381.686,107.412,394.482z M49.611,368.86c-4.384-0.618-9.574,0.97-12.215,2.682
	c-1.105-0.212-1.279,0.508-2.385,0.297c-8.82,4.717-13.74,12.666-19.365,20.26c-4.145,5.597-5.732,13.075-8.641,19.367
	c1.154-1.299,1.754-2.873,2.682-4.469c2.678-4.606,5.647-8.91,8.342-13.408c1.192-1.989,1.721-4.369,2.98-6.257
	c0.731-1.097,2.095-1.837,2.979-2.979c0.949-1.226,1.505-2.912,2.384-3.873c2.112-2.308,6.359-5.226,9.832-7.15
	c5.645-3.129,11.896-3.223,17.28,0c0.5-0.99,0.54-2.44,0.895-3.576C53.048,370.368,51.53,369.13,49.611,368.86z M84.769,388.821
	c-6.896-6.932-15.921-13.734-24.729-16.982c-0.298,0-0.596,0-0.894,0c-0.248,1.539-0.79,2.786-0.894,4.47
	c10.584,8.286,22.284,15.454,25.324,31.283c2.994,0.214,4.541-1.021,6.258-2.085C92.106,397.4,88.582,392.655,84.769,388.821z
	 M36.502,375.415c-2.65,1.549-6.34,3.906-5.064,6.256c5.918-1.921,12.693-4.904,21.153-3.873
	C50.516,370.973,41.201,372.667,36.502,375.415z M118.436,383.161c2.543,3.218,4.319,7.201,7.448,9.832
	c-0.101-7.709-0.339-13.562-2.085-19.366C121.939,376.734,120.084,379.842,118.436,383.161z M32.033,384.651
	c2.362,12.534,5.223,24.57,7.746,36.944c2.519-5.2,3.842-10.996,5.661-16.684c1.819-5.689,3.479-11.635,4.469-17.877
	c1.066-1.416,1.376-3.591,1.489-5.959C44.486,377.912,37.158,381.741,32.033,384.651z M57.06,381.373
	c-3.825,13.854-7.237,29.706-10.13,43.5c3.908-1.057,6.732-3.199,10.727-4.17c0.885-12.559,2.181-24.024,3.575-36.946
	C60.193,382.61,58.943,381.674,57.06,381.373z M28.458,381.67c-0.163,0.356-0.37,0.594-0.597,0.895
	c-8.319,11.012-16.125,22.661-20.855,37.243c1.739-0.389,3.865,1.479,5.363,1.191c0.256-6.895,2.453-11.848,4.171-17.281
	c1.489-1.788,2.667-3.887,3.277-6.554c2.863-5.381,8.063-8.424,9.534-15.195C28.971,381.952,28.939,381.586,28.458,381.67z
	 M60.635,403.124c-0.606,8.471-0.696,15.013-1.787,21.749c-0.337,2.076-1.502,4.781,0,6.555c2.031-3.15,1.693-7.775,2.086-12.513
	c0.483-5.851,2.143-12.054,2.682-17.579c0.193-1.985,0.253-4.426,0.893-7.15c0.958-4.074,3.171-8.717-1.489-9.236
	C62.623,390.516,61.078,396.936,60.635,403.124z M122.904,392.397c-1.625-2.535-3.647-4.896-5.362-7.15c-0.298,0-0.597,0-0.894,0
	c-0.711,0.68-0.699,2.082-1.49,2.682c2.974,4.971,4.762,11.127,11.322,12.513C126.836,397.327,124.399,394.727,122.904,392.397z
	 M39.184,426.958c-3.739-12.25-5.217-26.762-8.938-39.03c-0.199,0-0.397,0-0.597,0c-8.106,8.479-14.176,18.994-15.493,34.262
	c6.402,3.928,11.574,9.084,17.281,13.705C33.191,432.089,37.158,430.493,39.184,426.958z M63.316,420.106
	c5.809-1.84,10.787-4.509,17.281-5.663c0.108-4.393-3.318-7.78-4.47-11.619c-0.242-0.809-0.054-1.858-0.298-2.682
	c-0.395-1.332-1.568-2.357-2.383-3.873c-1.744-3.238-2.449-7.199-5.661-8.342C65.017,397.805,64.002,408.631,63.316,420.106z
	 M112.179,394.482c1.45,0.735,3.405,0.966,4.767,1.788C116.51,393.528,112.794,389.608,112.179,394.482z M75.234,394.482
	c-0.512-0.382-0.369-1.418-1.191-1.489C73.822,393.931,75.007,394.976,75.234,394.482z M133.332,405.804
	c-9.932-1.495-15.896-8.524-26.219-8.64c-2.352-3.373-5.893,0.254-6.256,3.276c3.211,6.722,11.326,7.287,19.962,10.13
	c2.87,0.945,5.28,2.138,7.448,2.979c1.943,0.755,4.732,2.587,6.853,2.384c2.927-0.281,5.1-3.596,3.873-6.854
	C136.91,408.186,134.547,407.569,133.332,405.804z M82.087,409.975c0.182,1.507,0.759,2.619,1.191,3.873
	c1.687,0.098,2.304-0.875,3.874-0.894c-0.097-1.095,0.254-2.638-0.299-3.277C85.379,409.891,83.887,410.086,82.087,409.975z
	 M109.199,410.274c-2.214,1.771-5.369,1.73-6.853,3.873c-7.392,10.674-6.622,37.311,8.045,39.03
	c4.739,0.557,9.962-0.641,14.897-2.979c0.976-0.486,1.139,0.066,2.383,0c0.482-0.711,0.82-1.564,1.787-1.789
	c-0.173-5.666-1.045-11.955-1.489-16.387c-0.872-0.654-1.695,0.73-2.979,0.596c-5.716-1.307-6.086-11.871-1.489-14.896
	c0.538-0.754,2.957,0.374,2.681-1.192C121.643,413.324,114.818,412.4,109.199,410.274z M90.43,414.743
	c3.961,11.629,3.352,26.182,4.171,41.116c3.463-0.311,5.915-1.633,8.938-2.383c-2.184-2.869-5.04-5.908-6.555-10.131
	c-3.602-10.039-0.322-22.686,3.277-30.39C96.564,413.131,93.286,413.725,90.43,414.743z M5.814,415.338
	c0.093-0.531,1.576-1.168,0.596-1.788C6.176,413.94,5.244,415.127,5.814,415.338z M91.621,450.495
	c-0.314-10.604-0.753-21.242-2.086-29.496c-0.998-1.186-1.334-3.036-2.085-4.469c-0.902-0.091-1.064-0.922-2.384-0.596
	c-0.43,0.167-0.727,0.465-0.894,0.894c1.824,12.199,4.096,26.724,4.171,40.521C92.679,457.97,91.705,453.315,91.621,450.495z
	 M2.835,426.362c0.972-2.723,2.742-7.759,2.085-10.13C4.353,419.925,1.456,423.19,2.835,426.362z M80.598,416.828
	c-3.566,1.101-6.67,2.666-11.023,2.98c-1.771,1.506-3.344,3.211-6.854,2.979c-0.121,3.951-1.488,6.656-1.191,11.023
	c7.785,7.713,3.237,23.41-2.979,29.496c1.62-0.373,1.57,0.016,2.979,0.299c6.866-3.264,16.489-3.77,24.431-5.959
	c0.436-13.123-0.9-26.037-4.171-37.539c-0.221-1.17,0.629-3.411-0.894-3.279C80.797,416.828,80.696,416.828,80.598,416.828z
	 M128.565,417.424c0,0.198,0,0.396,0,0.596c2.646,15.272,2.255,30.823,4.47,46.18c1.824,12.652,2.777,25.275,3.575,38.434
	c0.62,10.23-0.939,20.869,0,31.582c0.229,2.615,1.423,5.938,0.894,8.939c1.638,2.137,1.506,6.041,3.277,8.043
	c1.967,0.367,5.52,0.574,7.449,0c-1.664-8.756,0.232-18.158-1.192-26.516c-0.194-1.141-0.98-2.211-1.191-3.277
	c-0.765-3.865-0.638-7.547-0.895-11.619c-0.405-6.449-1.555-12.809-1.788-19.367c-0.859-24.203-4.403-47.742-5.958-72.102
	C135.07,419.829,130.328,417.903,128.565,417.424z M124.096,420.403c-1.961,2.791-1.749,7.76,0.895,9.533
	c1.834-0.443,1.988,0.795,3.277,0.895c-0.518-3.256-0.603-6.945-1.191-10.129C125.636,421.255,125.423,420.603,124.096,420.403z
	 M7.602,431.427c-0.455,5.393-0.908,9.527-0.894,14.004c0.021,6.6,0.258,14.031,0.894,20.855c0.611,6.561,2.468,12.83,3.576,18.473
	c0.345,1.756,0.171,3.637,0.596,5.363c0.951,3.871,2.846,7.959,4.469,11.619c4.927,11.113,13.185,18.895,27.708,19.664
	c7.293,0.387,14.195-0.205,20.856-2.682c8.562-3.184,12.488-8.018,16.685-15.791c4.726-8.754,8.034-16.924,9.235-28.9
	c0.441-4.389,3.785-14.238-2.085-14.002c0.635,25.67-12.293,43.414-30.985,50.648c-2.068,0.801-4.796,1.408-7.449,1.789
	c-2.601,0.371-5.74,0.998-8.342,0.596c-4.586-0.711-12.885-6.074-15.195-9.535c-4.766-7.137-7.566-17.609-9.832-25.92
	c-2.064-7.572-2.278-14.668-3.575-22.047c-1.783-10.154-1.759-20.812-1.192-31.582C7.389,420.394,8.01,426.604,7.602,431.427z
	 M50.506,426.063c1.328,1.752,3.558,2.6,5.66,3.576c0.105-2.035,1.33-4.355,0.894-5.959
	C54.642,424.241,52.918,425.499,50.506,426.063z M14.156,426.362c-2.071,12.236,0.415,24.646,2.384,36.943
	c1.165,7.277,1.956,14.859,4.171,21.453c2.23,6.637,5.102,13.965,8.343,17.875c2.363,2.852,9.003,6.795,12.812,7.449
	c8.023,1.381,15.455-1.791,19.962-4.17c7.242-3.826,12.305-8.709,16.387-14.898c5.161-7.826,8.009-18.135,7.746-30.092
	c-11.111,0.113-20.893,4.133-30.092,7.15c-4.14-1.047-5.828,1.621-8.938,2.086c-6.115,0.914-11.344-1.822-14.599-5.363
	c-5.825-6.338-6.214-18.008-2.682-26.516c-4.67-4.766-9.671-9.199-15.493-12.812C14.156,425.767,14.156,426.063,14.156,426.362z
	 M215.564,431.13c2.936-0.738,3.752-3.598,6.555-4.471C220.434,426.298,216.289,428.554,215.564,431.13z M41.27,429.937
	c-5.606,2.83-10.008,7.25-11.322,13.707c-2.75,13.508,5.446,26.115,17.281,23.834c10.551-2.033,20.178-17.141,14.599-29.793
	c-2.118-0.365-2.933-2.033-3.873-3.576c-3.021,0.109-4.286-3.986-7.747-4.766c-1.394-0.314-3.396-0.039-5.362,0.297
	C43.926,430.521,42.657,430.091,41.27,429.937z"/>
<path fill-rule="evenodd" clip-rule="evenodd" d="M234.396,613.947c1.903,1.382,4.91,3.104,5.089,5.998
	c0.116,1.872-1.202,3.1-1.999,4.726c-3.42,1.054-9.281,2.075-11.633-0.909c-4.027,1.014-9.081,0.384-13.812,0.546
	c-2.544,0.087-5.101-0.495-6.726-1.817c-1.047-3.837-0.364-8.013-0.182-11.451c0.402-0.265,1.211-0.122,1.454-0.545
	c0.852-1.214,2.287-1.715,3.636-2.727c3.049-2.289,6.506-5.972,10.541-7.634c0.267-0.109,0.796-0.259,0.909,0
	c4.028,3.759,7.127,7.621,11.995,10.724C233.81,611.967,234.925,612.735,234.396,613.947z M220.946,601.951
	c-5.28,2.172-9.133,5.771-13.268,9.088c3.396,1.172,7.507,1.874,11.269,2.908c1.267,0.348,2.249,1.305,3.09,1.272
	c0.861-0.033,2.518-1.16,3.635-1.636c2.292-0.978,3.904-1.409,5.271-2.363C227.373,608.369,224.353,604.967,220.946,601.951z
	 M232.397,612.13c-2.957,1.647-6.686,2.523-9.451,4.362c-0.04,2.081-0.361,4.165-0.728,6.361c1.013-0.26,2.283-0.262,2.908-0.909
	c-1.851-2.127-0.726-4.76,2.181-4.907c1.05,0.708,0.76,2.754,2,3.271c0.739-1.077,2.462-1.174,3.271-2.181
	c-1.134-0.623-2.829-0.686-3.09-2.182c0.912-0.905,1.171-2.464,3.271-2.181C233.222,613.001,232.426,612.895,232.397,612.13z
	 M206.951,612.312c-1.162,1.796-0.831,6.671,0,9.088c4,2.353,9.187,0.684,13.813,1.271c0.801-1.38,0.748-3.613,0.909-5.634
	C217.542,614.688,212.367,613.714,206.951,612.312z M236.759,623.58c2.986-3.615-0.883-8.577-5.089-8.179
	c-0.01,0.232-0.232,0.252-0.182,0.545c2.26,0.991,5.078,2.732,2.908,5.998c-1.516,0.545-2.565,1.149-3.999,0.909
	c-2.33-0.392-2.97-3.048-4.361-3.817C225.013,624.576,231.947,625.058,236.759,623.58z M230.579,621.217
	c1.257-0.076,2.498-0.167,3.272-0.727C233.812,618.115,231.626,621.168,230.579,621.217z"/>
<path fill-rule="evenodd" clip-rule="evenodd" fill="#95A5A6" d="M230.943,611.221c-1.367,0.954-2.979,1.386-5.271,2.363
	c-1.117,0.476-2.773,1.603-3.635,1.636c-0.841,0.032-1.823-0.925-3.09-1.272c-3.762-1.034-7.872-1.736-11.269-2.908
	c4.135-3.317,7.987-6.916,13.268-9.088C224.353,604.967,227.373,608.369,230.943,611.221z M218.766,604.859
	c-3.065,0.739-4.224,5.15-1.817,7.089c0.243,0.196,1.522,0.785,1.999,0.908c4.011,1.042,7.951-1.376,6.361-5.634
	C223.731,605.322,221.159,604.282,218.766,604.859z"/>
<path fill-rule="evenodd" clip-rule="evenodd" d="M225.309,607.223c1.59,4.258-2.351,6.676-6.361,5.634
	c-0.477-0.123-1.756-0.712-1.999-0.908c-2.406-1.938-1.248-6.35,1.817-7.089C221.159,604.282,223.731,605.322,225.309,607.223z
	 M218.947,606.495c2.47,0.317,4.349,1.225,5.271,3.09C225.085,606.867,221.303,605.391,218.947,606.495z M220.583,611.585
	c-0.927-1.377-2.031-2.573-3.271-3.636C216.149,609.81,218.503,611.333,220.583,611.585z"/>
<path fill-rule="evenodd" clip-rule="evenodd" fill="#95A5A6" d="M224.218,609.585c-0.922-1.865-2.801-2.772-5.271-3.09
	C221.303,605.391,225.085,606.867,224.218,609.585z"/>
<path fill-rule="evenodd" clip-rule="evenodd" fill="#95A5A6" d="M217.312,607.949c1.24,1.062,2.345,2.259,3.271,3.636
	C218.503,611.333,216.149,609.81,217.312,607.949z"/>
<path fill-rule="evenodd" clip-rule="evenodd" fill="#95A5A6" d="M232.761,613.766c-2.101-0.283-2.359,1.275-3.271,2.181
	c0.261,1.496,1.956,1.559,3.09,2.182c-0.81,1.007-2.532,1.104-3.271,2.181c-1.24-0.518-0.95-2.563-2-3.271
	c-2.906,0.147-4.031,2.78-2.181,4.907c-0.625,0.647-1.896,0.649-2.908,0.909c0.366-2.196,0.688-4.28,0.728-6.361
	c2.766-1.839,6.494-2.715,9.451-4.362C232.426,612.895,233.222,613.001,232.761,613.766z"/>
<path fill-rule="evenodd" clip-rule="evenodd" fill="#95A5A6" d="M221.674,617.037c-0.161,2.021-0.108,4.254-0.909,5.634
	c-4.627-0.588-9.813,1.081-13.813-1.271c-0.831-2.417-1.162-7.292,0-9.088C212.367,613.714,217.542,614.688,221.674,617.037z"/>
<path fill-rule="evenodd" clip-rule="evenodd" fill="#95A5A6" d="M226.036,619.036c1.392,0.77,2.031,3.426,4.361,3.817
	c1.434,0.24,2.483-0.364,3.999-0.909c2.17-3.266-0.648-5.007-2.908-5.998c-0.051-0.293,0.172-0.312,0.182-0.545
	c4.206-0.398,8.075,4.563,5.089,8.179C231.947,625.058,225.013,624.576,226.036,619.036z"/>
<path fill-rule="evenodd" clip-rule="evenodd" fill="#FFFFFF" d="M233.852,620.49c-0.774,0.56-2.016,0.65-3.272,0.727
	C231.626,621.168,233.812,618.115,233.852,620.49z"/>
</svg>
