<?xml version="1.0" encoding="utf-8"?>
<!-- Generator: Adobe Illustrator 15.0.2, SVG Export Plug-In  -->
<!DOCTYPE svg PUBLIC "-//W3C//DTD SVG 1.1//EN" "http://www.w3.org/Graphics/SVG/1.1/DTD/svg11.dtd" [
	<!ENTITY ns_flows "http://ns.adobe.com/Flows/1.0/">
]>
<svg version="1.1"
	 xmlns="http://www.w3.org/2000/svg" xmlns:xlink="http://www.w3.org/1999/xlink" xmlns:a="http://ns.adobe.com/AdobeSVGViewerExtensions/3.0/"
	 x="0px" y="0px" width="275px" height="353px" viewBox="0 0 275 353" overflow="visible" enable-background="new 0 0 275 353"
	 xml:space="preserve">
<defs>
</defs>
<path fill-rule="evenodd" clip-rule="evenodd" fill="#95A5A6" d="M134.921,275.485c-1.784-1.08,0.053-3.944,1.406-4.719
	c2.173-1.244,5.199-0.521,7.588-0.91c2.926-0.477,5.696-1.796,8.635-2.219c1.074-0.154,2.517-0.672,3.621-0.402
	c1.327,0.324,1.183,1.032,1.368,2.257c0.569,3.752,0.564,7.919,0.757,11.771c0.105,2.11-0.375,4.071-0.375,6.223
	c0,2.122,0.131,4.126,0.5,6.122c0.755,4.086-0.388,7.747-1.152,11.726c-0.714,3.709-0.569,7.935-0.723,11.902
	c-0.08,2.063,0.142,4.168-0.246,6.132c-0.359,1.817-1.139,3.783-1.406,5.591c-0.136,0.92,0.023,1.704-0.967,2.155
	c-0.809,0.369-2.133,0.157-3.006,0.247c-0.977,0.1-1.979,0.421-2.506-0.494c-0.365-0.634-0.388-2.104-0.592-2.881
	c-0.48-1.83-0.528-3.727-0.906-5.628c-0.185-0.931-0.328-1.918-0.648-2.845c-0.275-0.792-0.943-1.601-1.069-2.43
	c-0.153-1.016,0.215-1.903-0.056-2.947c-0.233-0.897-0.367-1.609-0.473-2.65c-0.18-1.764-0.854-3.522-1.371-5.254
	c-0.253-0.846-0.806-1.514-1.101-2.277c-0.396-1.025,0.188-1.321,0.097-2.219c-0.15-1.482-1.635-3.166-2.027-4.723
	c-0.45-1.78-0.861-3.587-1.602-5.273c-0.326-0.744-0.912-1.383-1.128-2.254c-0.233-0.944,0.029-2.009-0.112-3.007
	c-0.271-1.916-1.062-3.81-1.375-5.75c-0.262-1.632-1.466-3.691-1.381-5.243"/>
<path fill="#1A1A1A" d="M147.609,84.329c-0.525-0.317-1.084-0.332-1.561-0.758c-0.278-0.248-0.971-0.678-0.936-1.081
	c0.3-0.015,0.493-0.13,0.814-0.097c0.289,0.03,0.596,0.056,0.869,0.03c0.341-0.033,0.599-0.14,0.96-0.069
	c0.383,0.074,0.733,0.233,1.109,0.327c0.323,0.081,0.62,0.084,0.929,0.219c0.342,0.148,0.685,0.292,1.033,0.423
	c0.313,0.118,0.595,0.23,0.877,0.411c0.293,0.189,0.563,0.208,0.874,0.354c0.323,0.151,0.6,0.429,0.89,0.64
	c0.406,0.295,0.757,0.37,1.203,0.571c0.405,0.184,0.82,0.361,1.249,0.508c0.438,0.15,0.927,0.224,1.338,0.429
	c0.605,0.303,1.008,0.859,1.568,1.221c0.663,0.428,1.354,0.838,2.033,1.242c0.46,0.274,1.063,0.484,1.559,0.662
	c0.605,0.217,1.072,0.672,1.604,1.056c0.294,0.212,0.627,0.462,0.96,0.624c0.31,0.15,0.471,0.167,0.698,0.407
	c0.335,0.354,0.849,0.577,0.906,1.094c0.082,0.749-0.985,0.668-1.409,0.952c-0.379,0.255-0.488,0.843-0.873,1.062
	c-0.575,0.328-1.416,0.049-1.789-0.438c-0.45-0.588-0.368-1.363-0.531-2.04c-0.104-0.427-0.525-0.737-0.873-1.005
	c-0.496-0.381-0.983-0.757-1.564-0.994c-1.1-0.448-2.082-0.966-3.102-1.561c-0.283-0.166-0.531-0.328-0.835-0.446
	c-0.283-0.111-0.576-0.142-0.843-0.282c-0.556-0.292-1.057-0.548-1.658-0.735c-0.479-0.148-0.906-0.482-1.375-0.718
	c-0.521-0.262-1.037-0.469-1.589-0.673c-0.46-0.17-0.952-0.376-1.38-0.624c-0.379-0.22-0.755-0.563-1.188-0.648"/>
<g>
	<path fill="#2C3E50" d="M56.296,219.819c0,5.5,1.5,10.333,0.666,15.833c-0.666,4.667-0.666,9.334-0.666,14"/>
	<g>
		<path fill="#2C3E50" d="M55.331,220.078c0.146,5.278,1.246,10.42,0.67,15.713c-0.513,4.72-0.667,9.373-0.67,14.12
			c0,0.502,1.931,0.166,1.932-0.518c0.004-5.275,0.289-10.449,0.858-15.69c0.506-4.661-0.729-9.478-0.858-14.143
			C57.248,219.043,55.312,219.399,55.331,220.078L55.331,220.078z"/>
	</g>
</g>
<path fill-rule="evenodd" clip-rule="evenodd" fill="#2C3E50" stroke="#2C3E50" stroke-miterlimit="10" d="M140.49,225.033
	c0.453,0.073,0.139,0.833-0.363,0.545c-0.004,0.561-0.107,2.154,0.363,1.636c-0.125,1.599-0.305,7.581-0.363,10.906
	c-0.008,0.501,0.383,0.917,0.363,1.271c-0.016,0.287-0.365-0.16-0.363,0.182c0.016,2.757,0.174,11.074,3.271,11.996
	c2.061,0.613,7.557-0.194,7.998-1.999c0.811-3.319-0.023-8.433-0.547-11.814c-0.344-2.231-0.133-4.494-0.363-6.725
	c-0.545-5.289-1.586-10.426-2.18-14.722c-0.887-6.397,0-12.76-2.363-17.631c3.902-0.131,9.664-1.904,13.449-3.816
	c1.053,1.008,1.193,3.895,2.182,4.362c-0.191,0.363,0.199,2.544,0.908,2.726c2.213,6.423,3.67,13.047,6.725,19.267
	c0.105,2.537,1.414,5.786,2.182,8.724c0.043,0.32,0.312,0.414,0.727,0.363c-1.119,0.679,0.369,2.375,0.182,3.817
	c0.064,0.254,0.32,0.016,0.363-0.182c0.543,6.775,3.195,12.604,0.184,19.629c-0.752-0.022-1.139,0.316-2,0.182
	c-1.801-1.996-2.906-6.552-3.998-9.633c-0.365-1.026-0.512-2.18-0.91-3.271c-1.316-3.608-2.518-8.006-3.998-11.996
	c-0.342-2.264-0.607-4.603-1.818-5.997c-0.947,0.264-0.799,2.48,0,2.181c-0.328,1.755,1.125,4.065,1.455,5.453
	c0.086,0.362-0.057,0.906,0,1.271c0.277,1.769,1.291,4.398,1.816,5.998c0.123,0.369,0.5,0.38,0.547,0.545
	c0.031,0.117-0.277,0.429-0.182,0.728c0.473,1.498,1.24,2.998,1.816,4.544c0.35,0.939,1.318,2.695,1.637,4.362
	c0.266,1.399,0.607,3.129,1.09,4.725c-2.688,3.009-5.926,5.464-9.088,7.998c-1.631-12.712-3.949-22.955-4.725-34.533
	c-0.473-0.195-0.543-0.791-1.092-0.909c-1.533,0.668,0.168,1.524,0.182,2.908c0.006,0.528-0.639,1.812,0.182,2.181
	c-0.123,0.487-0.396,2.654,0.545,3.09c-0.564,3.633,0.801,6.921,1.092,11.451c1.045,2.057,0.873,8.206,2.182,11.813
	c0.191,2.584,0.43,6.001,0.727,8.18c-1.416,2.939-5.49,4.19-8.361,5.634c-1.883,0.947-3.223,1.289-4.906,1.817
	c0.02,0.452,0.34,0.563,0,0.909c-0.422-0.051-0.418-0.486-0.184-0.728c-1.596,0.615-3.4,1.079-5.27,0.364
	c-1.701-5.965-2.689-12.56-3.635-19.63c-0.139-1.032-0.092-3.154-1.637-2.908c0.32,6.793,2.377,15.139,3.635,21.629
	c-2.99,0.203-6.268,0.763-8.906,1.272c-0.203-3.818-0.025-7.177,0.184-10.905c0.311-5.567-0.092-13.464,1.271-19.448
	c-1.205-4.316-0.617-8.812-0.182-13.631c-0.361-0.125,0.113-1.083-0.545-0.909c0.658-0.809,0.646-2.726,0-3.635
	c-1.207,0.269-0.494,1.197-0.545,1.817c-0.568,6.706-0.312,14.736-0.729,22.355c-0.318,5.855-0.836,11.291-0.363,15.631
	c-0.002,0.51-0.496-0.433-0.363,0.364c0.705,2.601-0.859,5.74,0.545,8.36c-0.402,0.502-0.346,0.923-0.182,1.636
	c-0.826,0.97-2.27,1.951-2.361,3.09c-0.947-0.482-1.68,1.472-3.092,1.999c-0.902,0.337-2.795,0.411-4.18,0.363
	c-6.55-0.223-14.701-1.016-16.721-5.452c-0.068-1.125,0.258-1.548-0.182-2.181c1.062-2.653,1.363-5.74,1.636-8.725
	c0.508-5.573,0.706-11.517,1.636-17.267c0.47-2.906,1.402-5.946,1.636-8.906c0.386-4.879,0.445-9.796,1.091-14.54
	c-1.003,0.404-1.354,2.246-1.455,3.09c-0.357,2.984-0.376,6.006-0.727,8.906c-0.251,2.076-0.959,4.041-1.272,5.997
	c-1.621,10.136-1.799,19.737-3.453,30.898c-3.89-1.062-6.772-1.769-10.723-1.091c1.666-7.572,2.5-16.576,4.361-24.354
	c0.057-0.662-0.028-1.183-0.182-1.636c1.488-3.604,2.534-8.61,2.908-12.723c0.914-2.612,0.983-6.273,1.999-9.815
	c-0.076-0.408-0.964-0.005-1.09-0.363c-1.122,1.418,0.034,3.037-1.272,3.999c0.238,2.571-0.955,3.686-0.182,5.089
	c0.282,0.646-0.617,0.109-0.546,0.545c-0.208,0.754,0.383,0.708,0.363,1.272c-1.014,0.918-0.434,2.643-1.636,3.09
	c-1.59,6.283-2.466,15.686-4.361,23.265c-0.442,1.768-0.333,4.006-0.728,5.998c-0.419,2.12-0.725,4.751-1.272,5.816
	c-1.289,2.508-6.171,2.734-8.36,2.544c-2.15-1.312-5.426-1.561-8.36-2.544c-2.857-0.958-7.147-2.235-6.907-6.181
	c0.104-1.682,1.419-4.124,2.363-6.543c2.504-6.416,3.972-12.443,5.635-19.992c0.92-4.183,2.375-7.422,2.726-11.27
	c0.365-3.999,1.8-7.061,1.999-10.904c-1.446,1.783-2.123,5.242-2.362,7.633c-1.91,4.433-2.427,9.289-3.636,15.086
	c-1.661,7.974-4.579,16.184-7.633,23.991c-4.053-2.127-10.593-1.767-13.995-4.544c0.678-0.379,0.848-1.35,1.091-1.999
	c1.838-4.92,3.487-10.303,5.634-15.268c1.899-4.394,3.581-9.191,5.271-13.813c0.309-0.846,1.052-1.284,0.908-2.726
	c1.849-2.695,1.712-7.376,3.453-10.179c-1.56,0.622-1.914,4.022-3.09,5.635c-0.473,0.478,0.294,0.143,0.183,0.727
	c-2.335,4.835-3.716,10.857-6.361,15.812c-0.106,0.591,0.123,0.846,0.181,1.272c-1.752,1.459-1.578,4.844-3.271,6.361
	c-1.332,5.174-3.459,9.621-5.271,13.995c-3.258-1.589-5.957-3.736-8.179-6.361c2.392-5.677-1.236-11.285,0.363-16.539
	c0.247,0.056,0.15,0.455,0.182,0.727c0.518-0.694,1.052-1.371,1.636-1.999c0.68-2.347,1.464-4.417,2.363-6.726
	c0.616-1.581,1.745-2.83,2.545-4.361c0.711-1.364,1.08-3.05,1.635-4.544c1.186-3.193,3.327-6.331,3.817-9.814
	c1.783-2.424,1.701-5.771,3.635-8.18c0.729-4.666,1.61-8.166,3.453-11.813c9.286,5.9,20.993,9.875,33.988,11.087
	c-0.697,1.674-0.087,3.229,0,4.544c0.066,1.02,0.085,2.971,1.636,3.453c5.664,1.763,18.958,0.871,25.445,0.363
	c2.287-1.044,2.527-4.137,2.727-7.27c2.602,0.578,4.373-0.046,7.814,0.182c0.805,0.028-0.086-0.514,0.363-0.727
	c2.6,1.306,3.643,3.718,4.545,5.271c0.033,0.206,0.182,0.101,0.182,0c1.486,6.192,4.252,11.015,3.453,19.447
	C140.128,225.311,140.623,225.63,140.49,225.033z"/>
<path fill-rule="evenodd" clip-rule="evenodd" fill="#B3B3B3" d="M272.625,29.829c0.256,0.603,0.664,1.695,0,2.182
	c-0.76-0.39-1.771-0.531-2.361-1.091C270.648,30.154,271.289,29.644,272.625,29.829z"/>
<path fill-rule="evenodd" clip-rule="evenodd" fill="#2C3E50" d="M33.983,174.323c-2.019,1.028-0.913,3.187-1.272,4.908
	c-0.488,2.336-3.624,2.439-5.271,3.816c-2.502-0.162-8.418,1.103-9.634-2.181c-0.36-0.303-0.23,0.017-0.727,0
	c0.603-2.946-0.99-5.593-3.816-6.18c-0.369-3.023-1.223-5.011,0-7.634c4.883-0.243,11.266-5.613,16.357-2.727
	c2.727,1.547,2.771,5.384,4.18,7.815C33.144,172.709,33.619,173.547,33.983,174.323z"/>
<path fill-rule="evenodd" clip-rule="evenodd" fill="#2C3E50" d="M61.972,182.139c7.368,7.526,19.985,10.938,31.989,12.723
	c-0.007,1.478,0.045,2.808-0.182,3.635c-8.411-0.424-14.883-3.519-22.356-5.271c-3.849-1.847-7.58-3.81-11.086-5.998
	C60.868,185.517,61.263,183.67,61.972,182.139z"/>
<path fill-rule="evenodd" clip-rule="evenodd" fill="#2C3E50" d="M158.847,193.043c-3.207,3.141-9.162,3.776-13.631,4.727
	c-0.908-0.548-2.039-1.837-2.363-2.363c4.588-1.47,10.195-1.922,14.541-3.635C158.06,192.014,158.587,192.395,158.847,193.043z"/>
<path fill-rule="evenodd" clip-rule="evenodd" fill="#F39C12" d="M98.869,195.77c0.033,1.751-0.912,3.018-0.545,4.362
	c0.425,1.561,3.904,2.631,5.635,2.727c1.497,0.082,3.771-0.301,5.997-0.364c3.284-0.093,5.923,0.561,7.634-0.727
	c0.527-1.592,1.088-3.152,1.271-5.089c1.518-0.069,1.936-0.069,3.453,0c-0.695,2.491,0.396,4.489,0,7.089
	c-0.492,3.231-3.43,3.396-7.996,3.453c-0.88,0.011-1.77-0.192-2.727-0.183c-3.405,0.037-7.305,0.268-10.724,0
	c-0.995-0.077-4.389-0.798-4.726-1.09c-1.769-1.539-0.287-7.61-0.545-10.36C96.236,194.9,98.123,195.431,98.869,195.77z"/>
<path fill-rule="evenodd" clip-rule="evenodd" fill="#2C3E50" d="M117.044,196.861c0.254,0.918,0.365,3.245-0.547,3.999
	c-4.812-0.507-13.423,1.888-16.538-1.636c0.001-1.271,0.303-2.241,0.545-3.272C106.673,196.155,111.828,196.887,117.044,196.861z"/>
<path fill-rule="evenodd" clip-rule="evenodd" fill="#FFFFFF" d="M47.433,220.307c0.671,0.141,0.159,1.233-0.364,1.272
	C46.95,220.915,47.462,220.882,47.433,220.307z"/>
<path fill-rule="evenodd" clip-rule="evenodd" fill="#04101F" d="M185.929,111.799c1.266,0.802,2.398,4.7,3.816,6.544
	c2.746-1.312,4.18-4.908,7.451-5.089c0.525-0.143,0.455-0.88,0.727-1.272c1.643-0.355,3.336-1.911,4.908-2.908
	c0.066,0.427,2.17-1.168,3.09-1.636c0.225,0.762,1.789-2.137,2.908-1.636c0.863-2.415,0.809-4.629,1.09-7.089
	c-0.41-1.042-1.623-1.285-2.361-1.999c-0.998-1.24-1.215-4.327,0.182-4.726c-0.318-1.554,1.338-2.642,1.635-4.18
	c0.361-0.303,0.232,0.016,0.727,0c0.135-1.508,0.924-3.256,1.818-4.908c0.168-0.311,0.467,0.1,0.545,0
	c0.092-0.116,0.301-1.019,0.545-1.454c0.283-0.502,0.77-0.984,0.91-1.271c0.426-0.886,0.311-2.06,0.727-2.545
	c0.068-0.08,0.604,0.06,0.727-0.182c0.193-0.379,0.178-2.476,0.727-1.454c-0.07-0.754-0.105-1.522,0.727-1.817
	c-0.189-1.476,1-2.784,2-3.636c0.049-1.469,1.41-3.808,2.727-3.998c-0.078-0.285-0.572-0.155-0.363-0.728
	c0.75-1.563,2.344-4.183,2.908-4.726c-0.559-0.283,0.314-0.633,0.545-0.727c0.314-1.685,1.469-2.529,1.818-4.181
	c1.158-1.216,2.117-3.561,3.271-4.18c0.023-0.326-0.223-0.384-0.182-0.728c3.486-5.972,6.424-10.523,9.451-16.176
	c2.107-2.193,3.996-4.607,7.27-5.635c5.143-0.773,12.438-0.585,17.084,0.363c0.186-0.118,0.189-0.418,0.545-0.363
	c1.752,0.586,2.816,0.469,5.09,0.909c0.582-0.933,1.557-1.474,2.363-2.181c1.031-0.123,1.49,0.326,2.363,0.363
	c1.479,1.58-0.271,4.58,1.09,5.815c-0.564,1.699-1.639,2.434-3.635,1.818c-1.117,2.154-2.811,3.732-3.453,6.361
	c-4.779,6.064-7.178,14.512-11.451,21.083c-1.326,3.622-2.488,6.68-4.361,9.451c-0.297,2.248-1.295,3.795-2.727,4.907
	c0.119,0.544,0.389-0.174,0.727,0c-0.879,1.919-2.053,2.853-2.363,4.544c-0.342-0.137-0.125-0.542-0.545-0.182
	c-0.27-0.006,0.035,0.915,0.363,0.909c-1.918,4.067-3.658,9.116-5.451,12.723c0.16,0.322,0.506,0.462,0.363,1.09
	c-0.73-0.062-0.883,0.451-1.273,0.728c-1.453-0.001-1.955-0.953-3.09-1.272c-1.928,0.92-1.76,3.936-3.271,5.271
	c-0.008,0.545-0.381,2.403-1.09,2.182c0.324,2.338-1.809,3.756-2,6.18c-0.771-0.166-0.914,0.297-1.09,0.727
	c-2.209-0.64-3.893-1.803-5.635-2.908c-2.338,0.565-3.223,1.887-4.361,3.999c-4.26,7.901-8.053,18.503-13.996,25.264
	c-2.471-0.156-4.33-0.479-5.998-1.272c-1.523,0.952-2.863,1.769-4.543,3.09c-2.104,1.654-5.078,5.699-9.814,5.089
	c-1.773-0.228-3.826-1.188-4.727-2.726c-0.939-0.541-2.084-1.757-1.816-2.908c-0.803-0.358-0.037-1.164-0.91-1.454
	c0.705-4.76-4.088-8.261-4.906-12.359c-0.25,0.183,0.076,0.3-0.363,0.545c-0.266-0.968-1.549-1.674-1.092-2.544
	c-0.473-0.092-1.455-0.807-0.363-0.909c-0.293-0.611-0.576,0.571-0.908,0c-0.215-0.778,0.014-0.741,0.182-1.454
	c-0.17,0.134-0.275,0.331-0.363,0.546c-1.795-2.307-2.633-4.732-4.182-6.544c-1.086,1.328-0.844,4.064-0.727,5.998
	c0.141,2.32,1.004,4.941,1.273,6.907c0.566,4.16-0.012,8.541,1.09,12.723c-0.053,0.37-0.492,0.356-0.545,0.727
	c0.922,6.1,0.615,13.244,0.545,19.63c-0.049,4.535-1.514,10.586-2.727,14.722c-1.482,5.051-3.213,9.295-5.453,14.177
	c-0.176,0.385-0.275,1.231-0.182,1.999c0.338,2.728,2.598,7.343,4,10.905c1.025,2.609,1.746,5.475,2.908,8.18
	c2.148,8.36,5.736,15.684,6.543,23.628c1.76,6.063,3.662,16.391,0.182,21.083c-1.176,0.033-1.414,0.659-2.545,0.545
	c-0.781-0.078-1.229-0.953-2-0.908c-0.824,0.048-4.061,3.157-5.088,3.998c-0.828,0.679-2.582,2.01-3.09,2.908
	c-0.357,0.63-0.221,1.559-0.363,1.999c-0.568,1.747-1.564,3.09-2.363,4.181c0.584,6.629,0.732,14.591,1.09,21.811
	c0.143,2.864-0.086,5.583,0.363,8.179c0.053,0.307,0.344,0.613,0.363,0.909c0.125,1.85-1.156,3.341-1.271,5.089
	c-0.027,0.417,0.25,0.975,0.182,1.454c-0.289,2.039-1.201,3.969-1.271,5.998c-0.047,1.308,0.326,2.525,0.182,3.816
	c-0.598,5.322-1.135,10.627-1.637,15.813c2.18,2.338,4.758,3.582,7.816,5.271c2.031-0.992,2.252-4.716,3.453-5.271
	c1.328-0.175,1.691,2.185,2.18,3.453c1.137,2.665,5.373,4.364,6.543,7.27c1.494,3.706,1.299,9.345-1.816,11.088
	c-1.514,0.037-2.465,0.37-4.361,0.363c-0.457,0.031-0.443-0.407-0.729-0.546c-0.27,0.08,0.072,0.233,0,0.546
	c-2.443-0.395-4.893,0.646-6.906,0c-1.193-0.384-2.896-0.708-3.453-1.091c-0.592-0.408-0.678-1.269-1.09-1.817
	c-0.637-0.846-1.613-1.749-2.363-2.545c-2.512-2.667-4.518-5.848-6.543-8.179c0.535-1.393-0.613-1.321-0.182-2.181
	c-0.184-0.251-0.301,0.077-0.545-0.364c-0.287-8.911-3.117-19.588-4-27.081c-0.178-0.246-0.484-0.363-0.727-0.546
	c0.424,0.116,0.789-0.902,1.273-0.727c1.188,1.437,0.201,4.139,1.271,4.726c-0.26,0.534-0.35,0.103-0.363,1.272
	c0.336-0.027,0.111-0.615,0.363-0.728c-0.041,1.587,1.504,2.96,0.545,4.545c0.781,0.055,0.361,0.811,0.727,1.817
	c-0.238-0.064-0.285-0.32-0.545-0.364c0.311,0.572,0.426,0.647,0.908,0.728c0.16,4.157,0.93,7.238,1.455,11.269
	c1.98-0.247,3.508-0.831,5.09-0.363c1.068-1.413,0.553-3.3,0.908-4.726c0.334-1.34,0.203-3.848,1.09-5.271
	c-1.287-1.61,0.344-3.903,0.363-5.09c0.031-1.708-0.234-4.684,0-7.27c0.381-4.179,2.299-8.351,1.818-13.269
	c-0.436,0.967-0.732-3.359-0.727-3.998c0.027-3.445,0.125-7.542-0.365-9.633c0.465,0.699,0.918-1.36,0-1.637
	c1.023-1.207-0.65-3.617,0.729-4.361c-0.297-0.426-0.438-0.343-0.545-0.728c-0.123-0.434,0.217-1.097,0.182-1.272
	c-0.324-1.579-0.854-1.539-0.729-3.635c0.061-0.425,0.219-0.751,0.363-1.091c-0.373,0.368-0.361-0.073-0.545-0.363
	c-5.123,1.066-9.439,6.077-15.631,5.816c-2.08-0.088-3.367-1.567-5.814-0.909c0.445,6.564,2.818,12.658,3.998,19.085
	c0.779,1.167,1.807,3.382,2.545,5.089c0.75,1.736,0.725,3.809,1.453,5.089c-0.162-0.111-0.326-0.22-0.363,0
	c0.982,0.714,1.83,3.744,1.271,5.271c-0.146-0.126-0.498-0.282-0.545,0c-0.918-2.021-1.172-3.079-1.998-4.907
	c0.178-0.67,0.795-0.9,1.09-1.454c-0.5,0.105-0.76,0.453-1.273,0.545c0.26-0.758-0.467-0.614-0.545-1.817
	c0.238,0.064,0.287,0.32,0.545,0.364c-0.998-1.274-1.039-2.378-1.998-3.635c-0.086-0.571,0.488-0.48,0.545-0.909
	c-0.361,0.002-0.23,0.495-0.727,0.363c-0.023-1.267-0.643-1.412-1.09-2.908c-0.086-0.388,0.258-0.346,0.545-0.363
	c-1.287-0.759-0.797-2.455-1.455-3.09c0.162,0.081,0.326,0.159,0.363,0.363c0.316-0.507-0.744-1.188-0.908-1.817
	c-0.008-0.465,0.135-0.222,0.363-0.182c-0.406-1.044-1.213-1.832-0.363-2.727c-0.977-0.691-0.436-1.23-1.09-1.999
	c0.176,0.005,0.141,0.223,0.182,0.363c0.465-0.839-1.311-2.884-0.365-3.998c-0.391-0.275-0.506-0.827-0.908-1.091
	c-0.086-0.57,0.49-0.48,0.545-0.909c-0.537,0.752-1.492-1.497-0.363-1.272c-0.992-0.4-0.783-2.003-0.908-3.271
	c-1.064,0.17-2.492,0.03-3.453,0.546c-0.658,0.353-0.68,1.005-1.273,1.636c-1.129,1.203-2.885,3.155-4.18,4.18
	c-2.959,2.343-6.824,1.207-11.632,0.909c-5.159-0.319-9.591-0.875-11.995-3.817c-0.181-1.516-0.962-2.431-1.272-3.816
	c-2.183-0.768-5.335-1.801-8.906-1.272c-1.414,0.21-2.641,1.487-4.181,2.182c-0.896,0.403-1.955,0.408-2.362,0.727
	c-1.057,0.824-1.872,4.844-2.362,7.089c-1.366,6.243-1.759,9.923-3.272,15.631c-1.532,5.779-1.869,12.397-3.453,17.448
	c0.403,5.136-1.103,9.841-0.545,15.631c0.395,4.102,1.993,8.109,1.999,12.177c0.009,6.019-4.412,6.158-9.451,7.089
	c-2.866,0.529-5.842,1.104-8.542,1.272c-1.614,0.101-3.461-0.272-5.089-0.182c-3.925,0.219-8.342,2.136-11.814,0.363
	c-1.385-2.567-1.465-6.909-2.182-10.178c-0.379-1.73-0.483-3.74-0.545-5.998c0.713-0.568,0.157-1.288,0.908-1.818
	c2.906,0.852,1.785,5.951,4.727,6.362c1.569,0.219,3.619-1.789,5.089-2.363c0.663-0.259,1.163,0.069,1.817-0.363
	c3.234-2.14,8.824-3.528,10.724-5.816c-0.03-0.211,0.04-0.323,0.182-0.363c-0.532-3.096-0.09-6.566-0.728-8.906
	c0.552-0.847-0.207-1.073,0.364-1.817c-0.44-0.226-0.899-2.504-0.182-3.09c-0.835-0.552-0.595-2.486-0.183-3.453
	c-0.212-0.113-0.475-0.093-0.727-0.545c0.26-3.049-0.322-4.164,0-6.907c-0.104-0.034-0.231,0.271-0.182,0.364
	c-0.69-1.275,0.062-3.307-0.545-4.727c-0.66-1.54-0.293-4.44-0.182-5.452c-0.491-3.051-1.355-10.022-1.272-15.631
	c0.005-0.304,0.355-0.644,0.363-0.545c-0.078-1.011-0.62-2.057-0.727-3.091c-0.33-3.175-0.229-6.944-0.728-10.178
	c-0.176-1.142-0.08-2.746-0.182-4.181c-6.299-1.765-11.259-3.175-15.631-6.906c0.145,1.694,0.295,4.516-0.909,5.816
	c1.926,1.782,3.632,5.759,0.546,8.179c1.209,1.605,0.799,4.247,0,5.453c1.473,1.307,2.054,3.938,0.727,5.271
	c-1.275-1.992-1.59-4.724-4.362-4.544c-2.862,0.185-4.13,3.865-4.18,6.906c-0.855,0.189-0.914-0.419-1.272-0.727
	c-0.014-3.35,0.939-6.324,3.998-7.452c-1.645-1.526-1.794-4.527,0.364-5.635c-1.577-1.364-2.452-4.925-0.546-6.725
	c-2.462-1.688-3.637-7.249-0.545-9.27c-3.926-1.584-1.986-7.858-0.545-10.905c-0.501-1.498-1.559-2.44-2.182-3.816
	c0.819-4.159-0.84-8.76,2.182-11.451c-0.986-1.789-1.724-5.581-0.183-6.906c-2.472-2.673-3.458-8.479-0.181-10.905
	c-0.13-1.674-0.345-2.466,0-4.544c-1.834-1.818-0.354-4.729,0.727-6.543c-2.689-0.848-3.648-4.756-1.454-6.725
	c-1.502-1.775-0.202-3.765,0.182-5.998c-1.484-1.232-1.805-3.073-0.728-4.907c-3.546,3.479-12.016,6.053-16.902,2.181
	c-0.722,0.134-2.059,0.394-2.727,0c-0.259,2.275-0.286,5.893-2.363,6.907c1.281,1.33,0.02,3.1,0,4.725
	c-0.012,1.015,0.61,1.972,0.546,2.908c-0.157,2.271-1.558,3.301-3.271,4.544c1.187,2.354,1.15,5.494-0.183,7.452
	c-0.553,0.008-0.706-0.384-1.09-0.545c1.166-2.746,0.093-7.153-2.545-6.907c-2.401,0.225-3.533,4.291-3.271,7.089
	c-0.367,0.419-0.815,0.76-0.908,1.454c-1.523-0.557-1.115-3.139-0.728-4.726c0.522-2.136,2.588-4.634,4.181-5.271
	c-0.031-1.874,0.029-3.567,1.636-4.18c-0.115-0.552-0.834-0.499-1.091-0.909c-0.228-2.529,0.533-4.071,1.637-5.271
	c-0.965-3.2,0.631-6.351,2.362-7.997c-0.296-0.553-0.746-0.95-1.091-1.454c0.012-1.336,0.045-2.585,0.546-3.453
	c0.157-0.274,0.49,0.081,0.908-0.364c0.277-0.295,0.185-0.945,0.363-1.09c0.479-0.39,1.359-0.548,1.818-0.728
	c-0.707-3.21-0.682-7.183,0.908-9.451c3.106-0.49,4.597-1.473,7.634-1.999c0.982-2.613,0.567-5.502,1.817-7.815
	c-0.122-0.91,0.168-1.407,0.182-2.181c1.379-2.407,3.504-3.517,5.271-4.908c0.656-0.517,0.124-1.497,0.182-2.181
	c0.129-1.556,0.753-3.328,0.908-5.271c2.124-2.602,4.007-5.445,5.089-9.088c2.202-2.402,2.795-6.414,4.727-9.088
	c0.103-0.829,0.04-0.769,0.182-1.636c0.588,0.225,0.139-0.588,0.727-0.363c2.338-7.757,6.396-14.297,9.633-21.629
	c-1.329-2.484-3.932-5.293-3.635-8.36c0.1-1.035,1.228-1.887,1.999-2.908c1.312-1.735,2.543-4.226,4.362-6.18
	c1.85-1.986,3.985-4.425,5.998-6.361c0.52-1.057,1.03-2.12,2.182-2.545c1.938-2.907,3.663-6.029,6.36-8.179
	c-0.119-0.665,0.394-0.697,0.363-1.272c3.232-2.958,5.475-7.839,9.997-8.905c4.055-3.292,8.996-5.188,13.631-8.18
	c1.093-3.754,2.506-7.188,3.09-11.45c-0.03-0.719,0.279,0.059,0.546-0.364c-0.137-2.311,0.755-4.04,1.636-5.815
	c-0.281-0.658-0.105-0.941,0-1.636c1.535-2.402,1.359-6.516,3.09-8.724c-0.241-0.681,0.542-1.257,0-1.637
	c0.613-1.567,0.882-3.787,1.272-6.18c0.731-3.924,4.37-5.701,8.179-7.815c4.162-2.311,8.125-4.059,13.268-2.544
	c0.426,0.125,0.252,0.034,0.182,0.363c6.121,0.508,10.496,3.941,14.541,7.088c1.982,3.347,2.527,7.249,3.816,10.725
	c0.494,1.332,1.445,2.523,2,3.816c0.438,1.022,0.438,2.667,0.908,3.635c3.277,6.74,4.521,14.609,5.271,23.991
	c2.602,2.799,5.479,4.778,8.904,7.089c1.604,1.081,3.121,2.435,4.727,3.453c2.439,1.549,5.641,2.696,8.178,3.999
	c0.836,0.429,2.328,2.001,3.092,2.907c2.535,3.015,3.547,7.253,5.996,10.725c0,0.303,0,0.605,0,0.908
	c1.02,1.133,1.576,3.29,2.545,5.453c2.211,4.934,4.879,10.417,6.543,14.903c0.445,1.2,1.078,2.782,0.363,3.999
	c-1.371,1.077-2.273,2.235-3.998,3.271C184.623,108.625,186.095,110.177,185.929,111.799z M138.128,17.469
	c-1.387-1.716-1.629-4.863-2.729-6.906c-1.828-3.402-6.061-4.533-8.904-6.725c-3.584-0.951-7.441-2.476-11.087-1.999
	c-5.107,0.666-9.024,4.25-12.905,6.906c-3.213,7.707-4.154,17.178-7.451,25.082c-0.908,4.723-2.16,9.564-3.817,14.177
	c-0.731,0.298-1.226,0.834-1.817,1.272c-0.034-0.27-0.439-0.167-0.727-0.182c-2.953,1.985-6.37,3.424-9.451,5.271
	c-1.788,1.071-3.88,2.215-5.453,3.453c-2.201,1.733-3.124,4.583-5.452,6.18c-6.678,9.317-14.901,17.088-21.266,26.719
	c2.177,10.363,10.194,14.888,16.357,21.265c2.503,0.498,3.941,2.849,6.543,3.635c3.167,0.958,7.524-0.356,11.451,0.182
	c0.769,1.291,2.689,1.431,3.271,2.908c2.288,0.62,3.707,2.109,5.452,3.272c3.453,0.779,6.367,2.824,9.997,2.907
	c2.816,0.064,5.503-0.987,8.179-1.817c2.693-0.835,4.693,0.206,7.089,0.363c2.474,0.162,4.157-0.984,6.542-1.091
	c0.318-0.424,3.814-1.528,4.363-0.908c2.074-1.251,3.902-0.495,5.816-0.363c5.762,0.397,11.102-1.97,15.447-2.908
	c3.049-2.796,7.273-1.225,10.725-1.817c3.402-0.585,6.012-3.457,9.633-4.181c-0.445,0.364-0.355,0.845,0.363,0.909
	c-0.6-1.505,2.199-1.946,3.271-1.273c0.098-0.922-0.645-0.003-0.545-0.727c1.623,0.226,1.691-0.598,3.453-0.908
	c0.314,0.462-0.277,0.705,0.363,0.727c0.262-0.953,1.422-2.315,2.363-1.454c-0.027-0.451-0.035-0.882,0.363-0.908
	c1.561-0.079,1.693-1.181,2.908-1.454c0.938-0.212,0.846-0.35,1.453-0.728c2.137-1.324,7.104-3.395,5.09-6.725
	c-2.084-3.446-3.014-7.386-4.725-10.724c0.238,0.002,0.164,0.318,0.363,0.363c-1.783-2.188-2.492-5.467-4-8.179
	c0.045-0.341,0.301,0.104,0.363-0.182c-2.141-2.619-4.582-8.001-5.816-10.905c-0.039,0.141-0.004,0.358-0.182,0.363
	c-3.963-5.857-11.574-7.047-17.084-11.45c-0.078-0.347-0.52-0.329-0.363-0.908c-0.303,0-0.605,0-0.908,0
	c-2.854-2.479-6.205-4.46-8.725-7.271c-0.127-0.794,0.525-0.809,0.545-1.454c-0.777-6.144-1.793-11.614-2.182-15.268
	c-0.088,0.215-0.193,0.412-0.363,0.546c-0.873-4.109-1.965-5.96-3.09-9.634c0.145-0.413,0.512-1.059,0-0.727
	c0.428,0.002-0.066,0.496-0.363,0.363c-0.158-1.165-0.926-2.097-0.727-3.09C138.882,22.126,137.562,17.68,138.128,17.469z
	 M270.263,30.919c0.59,0.56,1.602,0.701,2.361,1.091c0.664-0.486,0.256-1.579,0-2.182C271.289,29.644,270.648,30.154,270.263,30.919
	z M213.373,89.99c0.193-0.324,1.465-1.196,0.729-1.272c-0.041,0.142-0.006,0.358-0.182,0.363c0.65-1.029,0.744-2.632,1.998-3.453
	c-0.119-0.904,0.588-2.235,1.455-3.09c-0.082-0.854,0.621-2.398,1.453-2.545c-0.133-0.701,0.209-2.171,0.908-2.544
	c-0.092,0.05,0.74,0.959,0.365,0c0.676-0.252-0.535-0.027-0.365-0.364c0.771-1.846,1.99-1.699,1.818-3.998
	c0.518-0.349,0.686-1.328,1.09-1.272c0.189-1.63,1.643-3.568,2.727-4.907c0.246-2.759,2.566-3.794,3.09-6.725
	c0.25,0.152,0.955-1.154,1.092-2.181c2.564-3.797,4.693-8.029,6.906-12.179c3.012-3.228,4.861-7.618,7.996-10.723
	c3.646-1.354,8.232-3.354,12.359-2.908c5.002-1.238,10.539,1.293,16.359,2.545c-1.146-3.076-5.566-2.808-8.543-3.636
	c-2.389-0.664-4.041-0.226-7.451-0.545c-4.016-0.376-10.299-0.707-13.451,1.454c-1.742,1.194-3.887,4.212-4.906,5.998
	c-4.305,7.529-10.086,17.791-13.996,24.536c-0.135,0.29-0.889-0.041-0.727,0.546c-1.975,3.943-4.336,7.912-6.543,11.087
	c-1.197,3.405-2.533,6.63-4.182,9.814c-0.348,0.673-1.088,1.148-1.453,1.817c-0.574,1.051-0.732,2.286-1.271,3.271
	c-1.09,1.989-4.15,5.873-0.729,7.452c0.691-1.248,1.076-2.802,2.182-3.636c0,0.183-0.146,0.217-0.182,0.364
	C212.505,92.272,213.429,91.622,213.373,89.99z M255.359,58.728c-0.98-0.593,0.793-1.766,1.09-2.908
	c0.25-0.963,0.932-2.867,1.818-3.271c2.068-6.939,6.355-10.928,7.996-17.993c-3.99-1.812-11.5-1.464-15.449-0.364
	c-0.262,0.282-0.242,0.849-0.545,1.091c-6.238-0.25-6.855,3.623-9.451,7.271c-1.701,2.39-4.02,5.019-4.906,7.633
	c-1.348,0.532-0.973,2.785-2.363,3.272c-0.271,0.698-0.264,1.674-1.09,1.816c-2.535,6.812-7.363,12.862-10.18,19.994
	c-0.361,0.184-0.775,0.313-0.908,0.727c-0.16,2.809-2.391,5.121-3.271,7.815c4.354,1.465,7.617,3.443,11.633,5.089
	c0.102,0.379,0.518,0.588,0.182,0.909c0.357,0.054,0.359-0.245,0.545-0.364c0.27,0.585,0.473,0.894,0.545,0.364
	c0.715,0.255,1.15,0.787,1.635,1.272c0.424-0.391,1.582,0.357,2.182,0.908c0.125,0.488-0.375,0.352-0.545,0.545
	c-4.016-1.346-6.633-3.112-9.814-5.089c-2.715-0.02-5.033-2.347-6.906-1.999c4.117,2.775,9.762,3.731,13.812,6.906
	c0.955-0.505,2.371,1.521,3.816,1.272c-0.406-0.637-0.242-1.015,0.184-1.636c0.1,0.401,1.053,0.236,0.545,0.728
	c0.588,0.225,0.139-0.589,0.727-0.364c0.26,0.444,0.283,0.665,0.363,0.909c0.293-0.488,0.576-0.271,0.908,0
	c1.066-2.024,1.82-4.36,3.271-5.998c-0.221-0.021-0.43-0.054-0.363-0.363c0.496-0.017,0.367,0.303,0.727,0
	c-0.172-1.194,0.232-2.464,1.092-2.908c-0.141-0.041-0.359-0.005-0.363-0.182c1.174-1.093,0.814-2.343,1.998-3.817
	c0.029,0.214-0.031,0.517,0.182,0.546c0.238-0.564-0.049-0.519,0-1.272c1.002,0.61-0.143-1.209,0.91-0.545
	c-0.557-0.686-0.035-0.855,0.182-1.272c0.166-0.124,0.174-0.724,0.182-1.454c1.91-1.592,1.967-4.892,4.18-6.543
	c0.041-0.344-0.205-0.401-0.182-0.728c1.326-0.32,1.238-4.616,3.635-5.815c-0.062-1.521,0.701-3.287,1.818-4.181
	C255.175,58.829,255.324,58.934,255.359,58.728z M242.818,85.264c-0.018-0.286,0.023-0.63-0.363-0.545
	c0.348,3.177-2.473,6.056-3.453,9.087c0.99,0.31,1.244,0.392,1.998,0.728c0.568-0.401,0.729-1.212,1.455-1.454
	c0.131-0.496-0.361-0.366-0.363-0.728c0.449-0.194,0.986-0.412,0.363-0.727c0.549,0.012,0.506-0.542,0.908,0
	c0.143-0.126,0.404-1.014,0-1.091c-0.193,0.17-0.057,0.671-0.545,0.546c0.021-0.826,0.641-1.057,1.09-1.454
	c-0.65-0.901,0.506-1.55,0.727-2.182c0.029,0.214-0.031,0.516,0.184,0.545c0.443-0.428-0.271-0.338-0.184-0.908
	c0.576,0.554,0.744-0.325,0.91-0.728c-0.414,0.051-0.684-0.043-0.727-0.363c0.619-0.904,0.674-2.216,1.453-2.181
	c0.236-1.825,1.363-4.061,2.545-5.089c0.424-2.43,2.168-4.999,3.09-7.089c0.221-1.75,0.941-2.431,1.998-3.999
	c0.004-0.428-0.312-0.535-0.182-1.09c0.262-0.402,0.443,0.229,0.547-0.182c1.625-5.16,5.125-10.02,7.088-15.449
	c0.607,0.572,0.482-0.938,0.727-1.454c0.463-0.982,1.592-1.9,1.816-2.545c0.092-0.257-0.211-0.668-0.18-0.727
	c1.762-3.441,5.164-6.516,6.178-10.724c-0.998,0.09-1.229-0.588-2.18-0.546c-4.143,11.535-10.9,20.851-15.268,31.626
	c-0.232,0.01-0.252,0.232-0.545,0.182c-0.836,2.313-1.531,3.891-2.727,5.089c-0.348,0.085-0.783-0.561-0.727,0.182
	c-0.131,0.494,0.857-0.13,0.727,0.364c-2.201,3.259-3.736,8.129-5.816,10.905C243.884,83.916,243.22,84.933,242.818,85.264z
	 M215.373,89.808c5.861,0.299,11.926,2.461,15.086,6.543c0.211,2.513-0.562,4.042-1.09,5.816c1.15-0.001,0.936-1.365,1.816-1.636
	c-0.121-2.459,2.158-3.977,2.363-6.18c-5.559-2.961-11.316-5.007-16.723-7.816C216.185,87.469,215.652,88.512,215.373,89.808z
	 M220.826,109.255c-0.27-0.033-0.168-0.439-0.182-0.727c1.463-1.685,4.191-1.722,5.635-3.453c0.133-0.162-0.217-0.485-0.184-0.546
	c0.281-0.516,1.873-2.354,1.818-1.999c0.137-1.107,0.885-1.429,0.908-1.999c-0.424,0.234,0.26-1.224,0.729-1.272
	c-0.334-0.09-0.566-1.919-0.182-2.727c-2.412-1.604-5.461-3.901-8.725-4.726c-1.039-0.262-4.316-1.034-5.09-0.545
	c-2.148,1.358-4.1,3.957-4.361,7.27c-0.186,2.318-0.146,4.125-0.545,6.361c-0.938,2.132-3.434,2.69-4.727,3.999
	c-4.982,3.257-10.41,6.068-14.723,9.996c0.885,6.832,3.416,11.353,7.635,14.722c2.207-0.094,3.004,1.592,4.361,1.818
	c-0.396,0.115-0.578-0.516-0.545,0.182c1.639-0.458,2.521,0.32,4.18-0.182c1.539-2.219,2.809-4.705,4.182-7.089
	c0.271-0.03,0.67,0.065,0.727-0.182c-1.025-0.625,0.5-1.284,0.908-2.181c0.072-0.156,0.189-0.193,0.182-0.182
	c0.48-0.797,0.695-2.074,1.092-3.271c0.23,0.01,0.252,0.232,0.545,0.182c0.043-1.19,0.592-3.341,1.453-3.271
	c0.055-0.357-0.244-0.361-0.363-0.546c0.344-0.136,0.127-0.542,0.545-0.182c-0.562-0.757,0.766-2.122,0.727-1.271
	c0.396-0.381-0.09-0.52,0-1.091c0.668,0.12,0.447-0.742,0.91-0.728c-0.334-0.911,0.637-2.956,1.816-2.362
	c0.078-0.901-0.543-0.104-0.727-0.546c0.383-0.119,0.586-0.702,0.908-0.363C219.544,110.857,219.943,110.283,220.826,109.255z
	 M237.546,94.352c-0.424,0.06-0.75,0.219-1.09,0.363c-0.021-0.464-0.035-0.936-0.545-0.909
	C235.427,94.869,237.593,95.456,237.546,94.352z M238.273,95.988c0.752-0.361,0.318-1.333-0.182-1.091
	C238.339,95.01,238.025,95.875,238.273,95.988z M230.822,103.803c-1.055,0.146-1.605-0.213-2.182-0.546
	c-0.84,1.276-1.76,2.157-2.361,3.999c1.287,0.591,1.998,1.757,3.816,1.817c1.568-1.837,1.945-4.786,2.908-6.18
	c0.674-1.733,2.33-4.497,3.453-6.906c-0.316-0.411-0.529-0.926-1.273-0.909c-1.703,1.347-2.311,4.688-3.453,5.998
	C231.992,101.828,231.373,103.26,230.822,103.803z M40.526,148.696c-0.278-0.892,0.132-1.675,0.909-1.999
	c-0.215-2.283,2.097-3.425,2.362-5.816c1.662-2.475,3.023-5.316,4.181-7.815c4.975-6.593,7.391-13.762,12.723-20.901
	c-3.285-3.864-7.312-6.986-10.724-10.724c-4.372,6.716-7.587,14.587-10.724,22.538c-0.182,0-0.363,0-0.545,0
	c-1.143,3.081-2.381,5.849-3.635,8.724c-0.516,1.179-1.604,2.296-2.182,3.453c-0.399,0.802-0.43,1.884-0.908,2.727
	c-0.65,1.144-1.839,1.934-2.182,2.908c-0.671,1.91-0.168,3.869-0.545,5.998c4.14,0.343,6.643,2.322,9.814,3.635
	c0.836-1.083,0.804-1.955,1.272-3.271C40.287,148.374,40.373,149.273,40.526,148.696z M185.929,113.254
	c-0.129-1.447-1.926-2.754-1.273-3.817c-0.674-0.15-0.869-0.604-0.545-1.636c-0.215-0.088-0.412-0.193-0.545-0.363
	c-5.092,2.179-9.473,5.067-15.449,6.361c0.529,3.104,3.047,4.224,3.635,7.271c1.318,1.883,3.246,3.68,4.18,5.816
	c0.994,2.268,2.506,3.575,3.271,5.271c0.822,1.815,0.297,3.659,0.91,5.635c0.645,2.073,3.432,4.432,5.635,4.725
	c2.199,0.293,4.471-0.608,6.361-1.817c0.029,0.272-0.066,0.671,0.182,0.728c0.201-0.571,0.084-0.48-0.182-0.909
	c1.951-1.361,4.236-3.981,5.998-4.362c0.561-0.445-0.395,0.328-0.365-0.182c0.205-0.461,0.895-0.438,0.91-1.09
	c-1.625-0.937-3.264-2.24-3.637-3.453c-0.088,0.838-1.709-1.184-1.998-1.818c-0.166-0.361-0.783-1.242-1.092-1.817
	c-0.65-1.22-0.629-2.812-1.271-3.271c0.062-0.795,0.533-1.481-0.182-1.272c0.184,0.002,0.229,0.318,0,0.363
	c-0.135-0.573-0.578-1.802,0-1.999c-0.521-1.236-2.814-2.433-2-3.817c-1.254-0.339-1.07-3.295-1.635-2.726
	c-0.133-0.496,0.361-0.366,0.363-0.728C185.994,114.347,186.697,113.154,185.929,113.254z M48.886,213.946
	c0.438-0.35,0.722-0.854,1.091-1.272c1.107-2.597,2.282-6.8,3.635-9.27c0.19-1.87,0.738-3.381,1.454-4.726
	c0.371-3.087,1.923-6.22,2.908-8.905c0.444-1.212,0.475-3.015,1.636-3.454c-0.181-0.675-0.388-0.475-0.182-1.271
	c2.699-3.791-0.607-8.255-0.727-11.996c0,0.101-0.147,0.206-0.183,0c-0.25-2.389-1.663-6.774-0.727-7.634
	c-0.968-0.246-0.77-2.442-0.182-2.362c-0.242-0.183-0.549-0.3-0.727-0.546c-0.595-4.965-0.539-12.146-0.183-17.267
	c0.246-0.441,0.363-0.113,0.546-0.363c-0.158-2.038-0.074-4.491,1.09-5.816c-0.8-0.34,0.714-1.59,0.182-2.726
	c1.897-3.479,3.118-7.901,3.999-11.996c0.699-3.256-0.146-7.452,0-10.905c-1.907-0.552-1.904,2.32-3.271,2.908
	c-1.247,3.903-4.199,6.1-5.452,9.996c-0.317-0.014-0.565,0.041-0.728,0.182c-2.567,5.551-5.832,10.405-8.725,15.631
	c-0.763,3.963-3.502,5.949-3.998,10.179c1.653,1.865,3.149,4.427,3.635,6.906c-1.803,5.339-6.671,9.163-8.36,13.45
	c0.314,0.709,1.189,0.787,1.999,0.545c1.808,0.619,2.303,3.767,1.272,5.634c1.528,1.684,1.868,3.599,0.908,5.816
	c1.598,1.385,1.439,4.364,0.183,5.998c1.781,1.465,1.077,4.062,0.181,5.998c1.659,1.438,2.192,3.948,1.273,6.18
	c-0.301,0.729-0.947,0.94-1.091,1.636c-0.464,2.244,0.369,4.555-1.636,5.635c2.951,1.31,3.037,5.992,1.272,8.542
	c1.488,1.251,1.144,4.78,0.545,7.089c1.18,2.772-0.151,5.189-1.454,6.906c0.408,0.318,0.056,1.398,0.727,1.454
	C42.55,227.758,46.46,221.436,48.886,213.946z M165.39,124.159c-1.1-0.162-0.24-3.449-0.727-3.635
	c0.396-0.115,0.578,0.516,0.545-0.182c-1.287-1.057-0.381-3.423-0.545-4.907c-2.219,0.532-4.734,2.275-7.453,2.908
	c-2.891-1.194-5.543-0.321-7.996,0.545c-4.678,1.652-9.521,3.28-14.178,3.817c-3.271,0.377-7.422-0.844-11.268,0.363
	c-2.498,0.848-5.762,2.084-8.725,1.999c-1.247-0.035-2.404-0.659-3.816-0.727c-1.25-0.06-2.887,0.381-3.998,0.727
	c-3.452,1.074-6.6,1.77-9.997,0.909c-6.386-1.617-11.253-4.642-16.722-8.542c-3.321-0.118-6.516,0.486-9.45,0.362
	c-2.103-0.088-3.343-1.661-5.09-2.362c-0.625-0.079-1.019,0.071-1.454,0.182c-0.232-0.7,0.118-1.045-0.727-1.272
	c0.238,1.347,0.716,2.634,0.182,3.817c1.432,0.812,0.047,2.566,1.091,3.817c-0.656,0.529-0.018,0.684,0,1.453
	c-0.393,0.76-0.41,1.894-1.091,2.363c-0.318,0.644,0.121,0.447,0.182,1.091c-0.723,0.865-1.001,1.532-1.091,2.726
	c-2.367,4.157-3.126,10.979-4.726,15.812c0.002,0.51,0.496-0.433,0.364,0.364c0.159,0.583-0.472,0.376-0.546,0.727
	c0.602,1.368-0.274,3.703-0.363,5.271c-0.381,6.719,0.821,14.932,2,20.721c0.723,3.553,2.321,8.108,4.361,9.996
	c3.705,3.429,8.812,5.647,15.268,7.271c8.149,3.747,19.008,4.125,29.262,5.089c5.675,0.533,11.037,0.625,16.176,0.363
	c2.518-0.129,5.119-0.691,7.453-0.546c7.836,0.492,18.133-2.739,26.172-4.544c1.135-1.305,0.807-2.481,2.18-3.816
	c-0.844-0.525,1.621-2.057,0.365-2.181c1.311-2.001,1.379-3.704,2.543-6.18c-0.051,0.608,0.857,0.159,0.365,0
	c-0.186,0.564-0.18-0.516-0.365-0.545c1.359-1.55,0.854-4.946,2.363-7.271c-0.322-0.738-0.195-1.97,0.545-2.181
	c-0.48-1.89,0.1-4.781,0.729-6.544c-0.709-0.542-0.244-1.219-0.729-1.817c0.322-5.655,0.881-8.381,0.365-13.812
	c0.877-0.529-0.531-2.032,0.363-2.545c-0.479-0.434-0.797-1.053-0.182-1.999c-0.396,0.032-0.578-0.148-0.547-0.546
	c0.064-3.316-0.713-7.293-0.545-11.996c-0.777-0.586-0.197-1.944-0.363-2.544c-0.016,0.252-0.463,0.191-0.363-0.182
	C165.72,126.18,165.035,124.523,165.39,124.159z M38.527,154.149c-0.303-0.361,0.016-0.231,0-0.728
	c-2.466-1.391-5.899-4.232-9.451-3.635c-2.715,0.456-3.819,3.073-5.635,4.726c0.5,2.06-1.369,4.778-1.272,7.997
	c2.92-0.526,6.306-0.52,8.542,0.909c2.442,1.559,2.616,5.198,4.363,7.451c0.342-0.445,0.658-0.916,1.271-1.09
	c1.084-4.022,5.968-5.739,5.816-11.087c0.141-0.041,0.358-0.005,0.363-0.183c0.111-0.01,0.215-0.026,0.182-0.182
	C41.047,157.355,41.121,154.591,38.527,154.149z M33.8,172.142c-1.409-2.432-1.453-6.269-4.18-7.815
	c-5.092-2.887-11.475,2.483-16.357,2.727c-1.223,2.623-0.369,4.61,0,7.634c2.826,0.587,4.419,3.233,3.816,6.18
	c0.496,0.017,0.366-0.303,0.727,0c1.216,3.283,7.132,2.019,9.634,2.181c1.646-1.377,4.782-1.48,5.271-3.816
	c0.359-1.722-0.746-3.88,1.272-4.908C33.619,173.547,33.144,172.709,33.8,172.142z M37.436,175.414
	c-1.641-1.388-3.468-0.218-3.453,2c1.319,0.055,0.177,1.508,1.091,1.817C38.161,179.039,37.392,176.461,37.436,175.414z
	 M10.537,180.684c0.684,1.335,3.166,0.961,4.18,0.183c-0.14-0.9,0.005-0.963,0-2c0.125-0.359,1.083,0.114,0.909-0.545
	C14.433,175.561,10.037,177.832,10.537,180.684z M34.709,183.412c0.735,1.299,1.825,1.36,3.453,1.09
	c0.824-1.057,1.026-3.454-0.181-4.181C36.335,180.796,34.933,181.514,34.709,183.412z M60.337,187.228
	c3.506,2.188,7.237,4.151,11.086,5.998c7.474,1.752,13.945,4.847,22.356,5.271c0.227-0.827,0.175-2.157,0.182-3.635
	c-12.004-1.785-24.621-5.196-31.989-12.723C61.263,183.67,60.868,185.517,60.337,187.228z M13.082,185.047
	c-0.151-1.21-1.242-2.046-2.545-1.636c-1.637,0.515-3.066,4.104-1.999,6.179C10.739,189.742,13.367,187.333,13.082,185.047z
	 M36.891,185.956c-0.347,1.264-2.875,2.855-0.909,4.18c0.258-1.055,1.805-2.001,2.908-1.09
	C40.064,187.569,39.555,185.167,36.891,185.956z M140.126,225.033c0.799-8.433-1.967-13.255-3.453-19.447
	c0,0.101-0.148,0.206-0.182,0c-0.902-1.553-1.945-3.965-4.545-5.271c-0.449,0.213,0.441,0.755-0.363,0.727
	c-3.441-0.228-5.213,0.396-7.814-0.182c-0.199,3.133-0.439,6.226-2.727,7.27c-6.487,0.508-19.781,1.399-25.445-0.363
	c-1.551-0.482-1.569-2.434-1.636-3.453c-0.087-1.314-0.697-2.87,0-4.544c-12.995-1.212-24.702-5.187-33.988-11.087
	c-1.843,3.647-2.724,7.147-3.453,11.813c-1.934,2.408-1.852,5.756-3.635,8.18c-0.49,3.483-2.632,6.621-3.817,9.814
	c-0.555,1.494-0.924,3.18-1.635,4.544c-0.8,1.531-1.929,2.78-2.545,4.361c-0.899,2.309-1.684,4.379-2.363,6.726
	c-0.584,0.628-1.118,1.305-1.636,1.999c-0.031-0.271,0.065-0.671-0.182-0.727c-1.6,5.254,2.028,10.862-0.363,16.539
	c2.222,2.625,4.921,4.772,8.179,6.361c1.812-4.374,3.939-8.821,5.271-13.995c1.692-1.518,1.519-4.902,3.271-6.361
	c-0.058-0.427-0.287-0.682-0.181-1.272c2.646-4.955,4.026-10.978,6.361-15.812c0.111-0.584-0.655-0.249-0.183-0.727
	c1.176-1.612,1.53-5.013,3.09-5.635c-1.741,2.803-1.604,7.483-3.453,10.179c0.144,1.441-0.6,1.88-0.908,2.726
	c-1.69,4.622-3.372,9.42-5.271,13.813c-2.146,4.965-3.796,10.348-5.634,15.268c-0.243,0.649-0.413,1.62-1.091,1.999
	c3.402,2.777,9.942,2.417,13.995,4.544c3.054-7.808,5.972-16.018,7.633-23.991c1.209-5.797,1.726-10.653,3.636-15.086
	c0.239-2.391,0.916-5.85,2.362-7.633c-0.199,3.844-1.634,6.905-1.999,10.904c-0.351,3.848-1.806,7.087-2.726,11.27
	c-1.663,7.549-3.131,13.576-5.635,19.992c-0.944,2.419-2.26,4.861-2.363,6.543c-0.24,3.945,4.05,5.223,6.907,6.181
	c2.935,0.983,6.21,1.231,8.36,2.544c2.189,0.19,7.071-0.036,8.36-2.544c0.548-1.065,0.854-3.696,1.272-5.816
	c0.395-1.992,0.285-4.23,0.728-5.998c1.896-7.579,2.771-16.981,4.361-23.265c1.202-0.447,0.622-2.172,1.636-3.09
	c0.02-0.564-0.571-0.519-0.363-1.272c-0.071-0.436,0.828,0.101,0.546-0.545c-0.773-1.403,0.42-2.518,0.182-5.089
	c1.307-0.962,0.15-2.581,1.272-3.999c0.126,0.358,1.014-0.045,1.09,0.363c-1.016,3.542-1.085,7.203-1.999,9.815
	c-0.374,4.112-1.42,9.119-2.908,12.723c0.153,0.453,0.238,0.974,0.182,1.636c-1.861,7.778-2.695,16.782-4.361,24.354
	c3.95-0.678,6.833,0.029,10.723,1.091c1.654-11.161,1.832-20.763,3.453-30.898c0.313-1.956,1.021-3.921,1.272-5.997
	c0.351-2.9,0.369-5.922,0.727-8.906c0.102-0.844,0.452-2.686,1.455-3.09c-0.646,4.744-0.705,9.661-1.091,14.54
	c-0.233,2.96-1.166,6-1.636,8.906c-0.93,5.75-1.128,11.693-1.636,17.267c-0.272,2.984-0.574,6.071-1.636,8.725
	c0.439,0.633,0.113,1.056,0.182,2.181c2.02,4.437,10.171,5.229,16.721,5.452c1.385,0.048,3.277-0.026,4.18-0.363
	c1.412-0.527,2.145-2.481,3.092-1.999c0.092-1.139,1.535-2.12,2.361-3.09c-0.164-0.713-0.221-1.134,0.182-1.636
	c-1.404-2.62,0.16-5.76-0.545-8.36c-0.133-0.797,0.361,0.146,0.363-0.364c-0.473-4.34,0.045-9.775,0.363-15.631
	c0.416-7.619,0.16-15.649,0.729-22.355c0.051-0.62-0.662-1.549,0.545-1.817c0.646,0.909,0.658,2.826,0,3.635
	c0.658-0.174,0.184,0.784,0.545,0.909c-0.436,4.818-1.023,9.314,0.182,13.631c-1.363,5.984-0.961,13.881-1.271,19.448
	c-0.209,3.729-0.387,7.087-0.184,10.905c2.639-0.51,5.916-1.069,8.906-1.272c-1.258-6.49-3.314-14.836-3.635-21.629
	c1.545-0.246,1.498,1.876,1.637,2.908c0.945,7.07,1.934,13.665,3.635,19.63c1.869,0.715,3.674,0.251,5.27-0.364
	c-0.234,0.241-0.238,0.677,0.184,0.728c0.34-0.346,0.02-0.457,0-0.909c1.684-0.528,3.023-0.87,4.906-1.817
	c2.871-1.443,6.945-2.694,8.361-5.634c-0.297-2.179-0.535-5.596-0.727-8.18c-1.309-3.607-1.137-9.757-2.182-11.813
	c-0.291-4.53-1.656-7.818-1.092-11.451c-0.941-0.436-0.668-2.603-0.545-3.09c-0.82-0.369-0.176-1.652-0.182-2.181
	c-0.014-1.384-1.715-2.24-0.182-2.908c0.549,0.118,0.619,0.714,1.092,0.909c0.775,11.578,3.094,21.821,4.725,34.533
	c3.162-2.534,6.4-4.989,9.088-7.998c-0.482-1.596-0.824-3.325-1.09-4.725c-0.318-1.667-1.287-3.423-1.637-4.362
	c-0.576-1.546-1.344-3.046-1.816-4.544c-0.096-0.299,0.213-0.61,0.182-0.728c-0.047-0.165-0.424-0.176-0.547-0.545
	c-0.525-1.6-1.539-4.229-1.816-5.998c-0.057-0.365,0.086-0.909,0-1.271c-0.33-1.388-1.783-3.698-1.455-5.453
	c-0.799,0.3-0.947-1.917,0-2.181c1.211,1.395,1.477,3.733,1.818,5.997c1.48,3.99,2.682,8.388,3.998,11.996
	c0.398,1.092,0.545,2.245,0.91,3.271c1.092,3.081,2.197,7.637,3.998,9.633c0.861,0.135,1.248-0.204,2-0.182
	c3.012-7.024,0.359-12.854-0.184-19.629c-0.043,0.197-0.299,0.436-0.363,0.182c0.188-1.442-1.301-3.139-0.182-3.817
	c-0.414,0.051-0.684-0.043-0.727-0.363c-0.768-2.938-2.076-6.187-2.182-8.724c-3.055-6.22-4.512-12.844-6.725-19.267
	c-0.709-0.182-1.1-2.362-0.908-2.726c-0.988-0.468-1.129-3.354-2.182-4.362c-3.785,1.912-9.547,3.686-13.449,3.816
	c2.363,4.871,1.477,11.233,2.363,17.631c0.594,4.296,1.635,9.433,2.18,14.722c0.23,2.23,0.02,4.493,0.363,6.725
	c0.523,3.382,1.357,8.495,0.547,11.814c-0.441,1.805-5.938,2.612-7.998,1.999c-3.098-0.922-3.256-9.239-3.271-11.996
	c-0.002-0.342,0.348,0.105,0.363-0.182c0.02-0.354-0.371-0.771-0.363-1.271c0.059-3.325,0.238-9.308,0.363-10.906
	c-0.471,0.519-0.367-1.075-0.363-1.636c0.502,0.288,0.816-0.472,0.363-0.545C140.623,225.63,140.128,225.311,140.126,225.033z
	 M11.082,193.771c1.09-3.699-2.091-2.365-3.816-1.454c-0.268,0.642-0.474,1.345-0.364,2.362
	C8.399,195.793,9.817,194.724,11.082,193.771z M157.394,191.772c-4.346,1.713-9.953,2.165-14.541,3.635
	c0.324,0.526,1.455,1.815,2.363,2.363c4.469-0.95,10.424-1.586,13.631-4.727C158.587,192.395,158.06,192.014,157.394,191.772z
	 M36.345,193.043c-0.306,1-1.585,1.884-0.908,3.272c2.271,0.307,2.195-2.411,4.18-1.817
	C40.624,191.842,38.394,192.877,36.345,193.043z M95.597,195.588c0.258,2.75-1.224,8.821,0.545,10.36
	c0.337,0.292,3.73,1.013,4.726,1.09c3.419,0.268,7.318,0.037,10.724,0c0.957-0.01,1.847,0.193,2.727,0.183
	c4.566-0.058,7.504-0.222,7.996-3.453c0.396-2.6-0.695-4.598,0-7.089c-1.518-0.069-1.936-0.069-3.453,0
	c-0.184,1.937-0.744,3.497-1.271,5.089c-1.711,1.287-4.35,0.634-7.634,0.727c-2.227,0.063-4.5,0.446-5.997,0.364
	c-1.73-0.096-5.21-1.166-5.635-2.727c-0.367-1.345,0.578-2.611,0.545-4.362C98.123,195.431,96.236,194.9,95.597,195.588z
	 M149.214,234.666c-0.229-2.616-0.715-5.396-0.727-7.997c-0.018-3.355-1.111-6.402-1.455-9.633
	c-0.68-6.385-0.631-12.068-1.816-17.085c-0.947,0.157-0.803-1.056-1.273-1.636c-1.031-1.272-2.867-2.087-4.543-2.908
	c-0.908,0.182-1.754,0.428-2.908,0.363c-0.807,0.712-5.658-0.206-7.27,0.728c1.084,0.005,1.141,1.04,2.361,0.909
	c0.666,1.129,2,1.486,2.908,2.362c4.434,4.27,7.09,15.01,7.09,21.447c0,8.263-0.607,19.834,1.453,28.354
	c2.584,0.81,4.715,0.688,7.088-0.364C151.347,244.738,149.662,239.79,149.214,234.666z M100.504,195.952
	c-0.242,1.031-0.544,2.001-0.545,3.272c3.115,3.523,11.727,1.129,16.538,1.636c0.912-0.754,0.801-3.081,0.547-3.999
	C111.828,196.887,106.673,196.155,100.504,195.952z M6.901,200.677c3.051,0.034,5.461-2.132,3.999-4.544
	C8.037,195.91,4.75,198.198,6.901,200.677z M128.494,199.769c-0.486-0.831,2.414-0.055,2.545-0.363
	c-1.076-1.711-4.832-0.741-5.453-2.908c-0.748-0.144-0.932,0.278-1.635,0.182c-0.326,0.961-0.18,1.777-0.363,2.545
	C125.402,199.695,127.457,199.835,128.494,199.769z M39.253,198.133c-2.514-0.637-3.244,2.693-3.09,4.726
	c0.834-0.076,0.742-1.075,1.636-1.091c0.379,0.651,1.172,0.889,1.999,1.091C40.42,201.342,40.172,199.114,39.253,198.133z
	 M36.345,208.311c1.158,0.058,1.323-0.971,2.363-0.545c-0.023-0.75,0.316-1.139,0.182-1.999c-0.845,0.446-1.618,0.751-2.363,0
	C36.539,206.688,36.214,207.272,36.345,208.311z M36.164,218.308c1.052-0.094,1.25-1.617,2.545-0.909
	c2.442-2.032,0.277-5.15-1.454-6.543C34.812,211.665,35.572,215.869,36.164,218.308z M39.617,220.852
	c-2.11-1.983-3.927,2.62-2.726,4.726c1.001-0.21,2.006-0.417,2.726-0.908C39.677,222.888,39.797,222.674,39.617,220.852z
	 M47.069,221.58c0.523-0.039,1.035-1.132,0.364-1.272C47.462,220.882,46.95,220.915,47.069,221.58z M45.433,225.578
	c0.12-0.849,0.655-1.283,0.909-1.999C45.838,223.928,45.13,225.025,45.433,225.578z M36.527,228.668
	c-0.374,0.958-0.905,1.759-0.908,3.089c0.204,0.038,0.283,0.202,0.363,0.364c2.259-0.356,4.272-2.239,3.271-4.727
	C37.905,227.42,38.21,229.514,36.527,228.668z M35.8,234.847c-1.283,1.234-0.713,4.612,0.545,5.453c0.425-0.969,1.009-1.778,2-2.181
	C38.408,235.967,38.818,233.465,35.8,234.847z M38.708,251.024c1.904-1.444,1.408-8.523-0.727-8.543
	c-2.448-0.022-2.19,5.17-2.182,8.179c0.342,0.324,0.842,0.492,1.091,0.909C37.435,251.177,38.186,251.42,38.708,251.024z
	 M39.981,261.747c2.029-1.779,0.567-4.115-0.183-6.36C33.618,252.602,35.071,263.564,39.981,261.747z M77.604,298.461
	c0.238-2.123,1.144-4.424,1.271-6.906c0.745,0.001,0.249-1.031,0.364-1.818c0.14-0.956,0.841-1.854,0.545-2.726
	c0.979-3.927,1.609-7.275,2.544-11.451c-3.646-0.341-7.132-1.633-10.359-2.907c-3.207-0.888-6.829-1.113-8.179-3.636
	c-1.211-2.262-0.51-6.394-4.544-5.634c0.776,13.594,1.988,26.925,2.726,38.713c0.079,1.254,0.458,2.722-0.181,3.999
	c0.73,0.836,0.884,4.14,0.363,5.452c0.729,0.643-0.05,3.136,0.727,4.181c-0.183,0.001-0.216-0.147-0.363-0.182
	c0.871,5.142,0.848,10.414,1.454,15.448c2.24-0.77,5.662-1.981,9.088-1.816c0.035-0.632,0.643-0.69,0.727-1.272
	c-1.386-3.694,0.976-10.218,0.728-15.086c0.169-0.193,0.67-0.057,0.545-0.545c-0.017-0.286-0.464-0.143-0.363-0.546
	c0.726-4.721,2.076-7.598,2.362-11.632c0.455,0.03,0.569-0.279,0.728-0.545c-0.396-0.116-0.579,0.515-0.546-0.183
	C77.475,299.647,78.33,297.488,77.604,298.461z M36.891,264.837c-0.271,3.069,1.344,4.048,4.18,4.361
	C44.352,266.758,39.717,261.573,36.891,264.837z M37.073,272.653c1.233,0.704,1.93,1.947,3.453,2.362
	c1.588-1.448,0.062-4.185-1.636-4.544C38.396,271.31,36.706,270.952,37.073,272.653z M61.064,349.716
	c4.503-0.414,10.136-1.247,13.813-3.09c1.802-4.136-1.147-9.559-0.909-13.632c-0.352,0.222-0.375-1.436-0.727-1.817
	c-4.022-0.786-6.424,1.39-9.815,1.817c-2.187,2.216-5.273,2.86-8.542,4.362c-1.919,0.882-3.894,1.627-5.452,2.362
	c-1.443,0.681-2.707,1.797-3.999,2c-1.572,0.246-2.104-0.935-3.09-1.091c-0.505-0.585-0.604-1.577-1.272-1.999
	c0.599,4.283,0.624,8.308,2.182,11.813c2.894,0.282,5.695,0.267,8.36,0c3.209-0.321,7.768-1.169,9.451-0.182
	C61.135,349.949,60.794,349.795,61.064,349.716z M152.667,342.446c2.406,1.29,3.193,4.197,5.453,5.635
	c0.352-0.688-0.025-0.984,0.182-1.818c1.262-0.016-0.162-2.242,1.09-2.726c-0.025-1.823,5.146-3.751,3.816-6.361
	c-1.631-0.294-4.639-2.156-4.906-3.272c-0.561,0.862-1.541-0.836-2.363-0.908c-0.248,0.632-0.748,0.323-1.09,0.545
	c-0.951-1.697-4.174-0.477-5.635,0c-0.156,1.648,1.154,4.2,0.545,4.544C150.666,338.909,152.431,340.975,152.667,342.446z
	 M175.75,346.262c-0.684-2.979-0.684-5.947-4.18-6.906c-1.439-1.833-2.475-4.068-4.18-5.634c-1.863,2.481-1.928,5.567-4,7.633
	c-1.746,1.742-4.369,3.328-3.453,7.089c-0.121,0.544-0.363,0.969-0.727,1.272c1.15,0.672,2.572,1.475,4.18,1.635
	c3.922,0.394,8.992,0.466,11.633-1.09c0.645-1.507,0.672-2.514,0.363-4.362c0.01-0.11,0.027-0.215,0.182-0.182
	C175.511,345.94,175.597,346.84,175.75,346.262z"/>
<path fill-rule="evenodd" clip-rule="evenodd" fill="#2C3E50" d="M139.763,21.468c-0.199,0.993,0.568,1.925,0.727,3.09
	c0.297,0.133,0.791-0.361,0.363-0.363c0.512-0.332,0.145,0.313,0,0.727c1.125,3.674,2.217,5.524,3.09,9.634
	c0.17-0.134,0.275-0.331,0.363-0.546c0.389,3.653,1.404,9.124,2.182,15.268c-0.02,0.646-0.672,0.66-0.545,1.454
	c2.52,2.811,5.871,4.792,8.725,7.271c0.303,0,0.605,0,0.908,0c-0.156,0.579,0.285,0.562,0.363,0.908
	c5.51,4.403,13.121,5.593,17.084,11.45c0.178-0.005,0.143-0.223,0.182-0.363c1.234,2.904,3.676,8.286,5.816,10.905
	c-0.062,0.285-0.318-0.159-0.363,0.182c1.508,2.712,2.217,5.99,4,8.179c-0.199-0.045-0.125-0.361-0.363-0.363
	c1.711,3.338,2.641,7.277,4.725,10.724c2.014,3.33-2.953,5.4-5.09,6.725c-0.607,0.378-0.516,0.516-1.453,0.728
	c-1.215,0.273-1.348,1.375-2.908,1.454c-0.398,0.026-0.391,0.457-0.363,0.908c-0.941-0.861-2.102,0.501-2.363,1.454
	c-0.641-0.021-0.049-0.265-0.363-0.727c-1.762,0.311-1.83,1.134-3.453,0.908c-0.1,0.724,0.643-0.195,0.545,0.727
	c-1.072-0.673-3.871-0.231-3.271,1.273c-0.719-0.064-0.809-0.545-0.363-0.909c-3.621,0.724-6.23,3.596-9.633,4.181
	c-3.451,0.593-7.676-0.979-10.725,1.817c-4.346,0.938-9.686,3.306-15.447,2.908c-1.914-0.132-3.742-0.888-5.816,0.363
	c-0.549-0.62-4.045,0.484-4.363,0.908c-2.385,0.106-4.068,1.253-6.542,1.091c-2.396-0.157-4.396-1.198-7.089-0.363
	c-2.676,0.83-5.362,1.882-8.179,1.817c-3.63-0.083-6.544-2.128-9.997-2.907c-1.745-1.163-3.164-2.652-5.452-3.272
	c-0.582-1.478-2.503-1.617-3.271-2.908c-3.927-0.538-8.284,0.776-11.451-0.182c-2.602-0.786-4.04-3.137-6.543-3.635
	c-6.163-6.377-14.181-10.901-16.357-21.265c6.364-9.631,14.588-17.401,21.266-26.719c2.328-1.597,3.251-4.446,5.452-6.18
	c1.573-1.238,3.665-2.382,5.453-3.453c3.081-1.847,6.498-3.285,9.451-5.271c0.287,0.015,0.692-0.088,0.727,0.182
	c0.592-0.438,1.086-0.975,1.817-1.272c1.657-4.612,2.909-9.454,3.817-14.177c3.297-7.904,4.238-17.375,7.451-25.082
	c3.881-2.656,7.798-6.24,12.905-6.906c3.646-0.477,7.503,1.048,11.087,1.999c2.844,2.191,7.076,3.322,8.904,6.725
	c1.1,2.043,1.342,5.19,2.729,6.906C137.562,17.68,138.882,22.126,139.763,21.468z M106.866,62.544
	c3.062,6.264,8.991,5.535,14.177,8.361c0.605,0,0.621-0.592,1.271-0.546c4.434,0.155,7.424-2.606,10.725-4.181
	c2.877-4.089,4.645-9.289,5.998-14.903c1.945-2.14,1.775-7.23,1.453-10.724c-2.172-1.166-4.086-3.538-6.543-3.816
	c-0.594-1.467-2.252-1.436-3.453-2.363c-2.201-1.698-3.918-5.112-6.906-5.089c0.033-0.396-0.148-0.578-0.547-0.545
	c-0.381,0.162-0.807,0.282-1.09,0.545c-2.293-0.767-5.539,0.632-7.996,0.909c-0.445,0.241,0.2,0.676-0.182,0.727
	c-0.075-0.229-0.234-0.371-0.546-0.363c-3.201,1.496-6.656,2.494-8.179,5.635c-0.245-0.058-0.347-0.26-0.727-0.183
	c-1.685,1.291-2.663,4.205-3.454,6.544c-0.279,0.827-0.954,1.383-0.908,2.181c0.035,0.607,0.62,0.507-0.182,0.182
	c-0.642,2.107-1.116,4.046-0.909,5.816C101.873,54.3,103.342,59.153,106.866,62.544c0.044-0.197,0.3-0.437,0.364-0.182
	C107.19,62.504,107.078,62.575,106.866,62.544z"/>
<path fill-rule="evenodd" clip-rule="evenodd" d="M107.23,62.363c-0.064-0.255-0.32-0.016-0.364,0.182
	c-3.523-3.392-4.993-8.244-7.997-11.813c-0.207-1.771,0.268-3.709,0.909-5.816c0.802,0.325,0.217,0.426,0.182-0.182
	c-0.046-0.798,0.629-1.354,0.908-2.181c0.791-2.339,1.77-5.253,3.454-6.544c0.38-0.077,0.481,0.125,0.727,0.183
	c1.522-3.141,4.978-4.139,8.179-5.635c0.312-0.008,0.471,0.135,0.546,0.363c0.382-0.051-0.264-0.485,0.182-0.727
	c2.457-0.277,5.703-1.676,7.996-0.909c0.283-0.263,0.709-0.383,1.09-0.545c0.398-0.033,0.58,0.148,0.547,0.545
	c2.988-0.023,4.705,3.391,6.906,5.089c1.201,0.928,2.859,0.896,3.453,2.363c2.457,0.278,4.371,2.65,6.543,3.816
	c0.322,3.493,0.492,8.584-1.453,10.724c-1.354,5.614-3.121,10.814-5.998,14.903c-3.301,1.574-6.291,4.336-10.725,4.181
	c-0.65-0.046-0.666,0.546-1.271,0.546c-5.186-2.826-11.115-2.098-14.177-8.361C107.078,62.575,107.19,62.504,107.23,62.363z
	 M139.4,44.006c0.088-0.573-0.559-0.412-0.363-1.091c0.312-0.071,0.465,0.27,0.545,0c-0.561-0.263-0.652-1-0.182-0.909
	c-0.904-0.553-2.027-1.848-2.727-1.999c-3.207-1.844-8.439-4.639-10.725-7.997c-0.857,0.007-2.205-1.064-3.088-1.636
	c-0.748,0.67-1.08,0.204-1.818,0.363c-2.605,0.562-6.374,1.229-8.724,1.817c-2.672,1.914-6.19,2.88-7.997,5.635
	c-0.176,0.267,0.062,0.944-0.183,1.271c-0.148,0.201-0.617,0.176-0.727,0.364c-0.607,1.045-0.604,2.387-1.636,3.271
	c0.071,2.752-1.832,4.373-1.454,6.725c0.157,0.98,1.677,3.04,2.545,4.544c1.742,3.019,4.239,6.071,5.452,8.543
	c1.407,2.242,4.053,3.341,7.089,4.18c1.929,0.533,4.007,1.995,5.271,2.182c3.607,0.531,6.539-2.673,9.451-2.727
	c-0.051-0.414,0.043-0.684,0.363-0.728c2.332-0.697,2.764-3.294,3.998-5.089c0.041,0.142,0.152,0.212,0.363,0.182
	c0.055-0.357-0.244-0.36-0.363-0.545c1.873-3.37,2.141-8.479,4.545-12.359c0.133-0.496-0.361-0.365-0.363-0.728
	c0.449,0.027,0.881,0.034,0.908-0.363c-0.266-0.158-0.705-0.144-0.545-0.727c0.297,0.132,0.789-0.361,0.363-0.364
	C138.849,46.326,138.974,43.382,139.4,44.006z"/>
<path fill-rule="evenodd" clip-rule="evenodd" fill="#1A1A1A" d="M211.919,93.261c0.035-0.147,0.182-0.182,0.182-0.364
	c-1.105,0.834-1.49,2.388-2.182,3.636c-3.422-1.579-0.361-5.463,0.729-7.452c0.539-0.985,0.697-2.221,1.271-3.271
	c0.365-0.669,1.105-1.145,1.453-1.817c1.648-3.185,2.984-6.409,4.182-9.814c2.207-3.175,4.568-7.144,6.543-11.087
	c-0.162-0.587,0.592-0.256,0.727-0.546c3.91-6.745,9.691-17.007,13.996-24.536c1.02-1.786,3.164-4.804,4.906-5.998
	c3.152-2.161,9.436-1.83,13.451-1.454c3.41,0.319,5.062-0.119,7.451,0.545c2.977,0.828,7.396,0.56,8.543,3.636
	c-5.82-1.252-11.357-3.783-16.359-2.545c-4.127-0.446-8.713,1.555-12.359,2.908c-3.135,3.104-4.984,7.495-7.996,10.723
	c-2.213,4.149-4.342,8.382-6.906,12.179c-0.137,1.026-0.842,2.333-1.092,2.181c-0.523,2.931-2.844,3.966-3.09,6.725
	c-1.084,1.339-2.537,3.277-2.727,4.907c-0.404-0.056-0.572,0.924-1.09,1.272c0.172,2.299-1.047,2.152-1.818,3.998
	c-0.17,0.337,1.041,0.112,0.365,0.364c0.375,0.959-0.457,0.05-0.365,0c-0.699,0.373-1.041,1.843-0.908,2.544
	c-0.832,0.146-1.535,1.691-1.453,2.545c-0.867,0.854-1.574,2.186-1.455,3.09c-1.254,0.821-1.348,2.424-1.998,3.453
	c0.176-0.005,0.141-0.222,0.182-0.363c0.736,0.076-0.535,0.948-0.729,1.272C213.429,91.622,212.505,92.272,211.919,93.261z"/>
<path fill-rule="evenodd" clip-rule="evenodd" fill="#1A1A1A" stroke="#1A1A1A" stroke-miterlimit="10" d="M139.4,45.823
	c0.426,0.003-0.066,0.496-0.363,0.364c-0.16,0.583,0.279,0.568,0.545,0.727c-0.027,0.397-0.459,0.391-0.908,0.363
	c0.002,0.362,0.496,0.231,0.363,0.728c-2.404,3.881-2.672,8.989-4.545,12.359c0.119,0.185,0.418,0.188,0.363,0.545
	c-0.211,0.03-0.322-0.04-0.363-0.182c-1.234,1.795-1.666,4.392-3.998,5.089c-0.32,0.044-0.414,0.313-0.363,0.728
	c-2.912,0.054-5.844,3.258-9.451,2.727c-1.264-0.187-3.342-1.648-5.271-2.182c-3.036-0.839-5.682-1.938-7.089-4.18
	c-1.213-2.472-3.71-5.524-5.452-8.543c-0.868-1.504-2.388-3.563-2.545-4.544c-0.378-2.352,1.525-3.973,1.454-6.725
	c1.031-0.885,1.028-2.227,1.636-3.271c0.109-0.188,0.578-0.163,0.727-0.364c0.244-0.327,0.007-1.005,0.183-1.271
	c1.807-2.755,5.325-3.721,7.997-5.635c2.35-0.588,6.118-1.255,8.724-1.817c0.738-0.159,1.07,0.307,1.818-0.363
	c0.883,0.571,2.23,1.643,3.088,1.636c2.285,3.358,7.518,6.153,10.725,7.997c0.699,0.151,1.822,1.446,2.727,1.999
	c-0.471-0.091-0.379,0.646,0.182,0.909c-0.08,0.27-0.232-0.071-0.545,0c-0.195,0.679,0.451,0.518,0.363,1.091
	C138.974,43.382,138.849,46.326,139.4,45.823z"/>
<path fill-rule="evenodd" clip-rule="evenodd" fill="#B3B3B3" d="M243.363,83.265c2.08-2.776,3.615-7.646,5.816-10.905
	c0.131-0.494-0.857,0.13-0.727-0.364c-0.057-0.742,0.379-0.097,0.727-0.182c1.195-1.198,1.891-2.775,2.727-5.089
	c0.293,0.051,0.312-0.172,0.545-0.182c4.367-10.775,11.125-20.091,15.268-31.626c0.951-0.042,1.182,0.636,2.18,0.546
	c-1.014,4.208-4.416,7.282-6.178,10.724c-0.031,0.059,0.271,0.47,0.18,0.727c-0.225,0.645-1.354,1.562-1.816,2.545
	c-0.244,0.516-0.119,2.026-0.727,1.454c-1.963,5.43-5.463,10.289-7.088,15.449c-0.104,0.41-0.285-0.221-0.547,0.182
	c-0.131,0.555,0.186,0.662,0.182,1.09c-1.057,1.568-1.777,2.249-1.998,3.999c-0.922,2.09-2.666,4.659-3.09,7.089
	c-1.182,1.028-2.309,3.264-2.545,5.089c-0.779-0.035-0.834,1.276-1.453,2.181c0.043,0.32,0.312,0.414,0.727,0.363
	c-0.166,0.402-0.334,1.281-0.91,0.728c-0.088,0.57,0.627,0.48,0.184,0.908c-0.215-0.029-0.154-0.331-0.184-0.545
	c-0.221,0.632-1.377,1.28-0.727,2.182c-0.449,0.397-1.068,0.628-1.09,1.454c0.488,0.125,0.352-0.376,0.545-0.546
	c0.404,0.077,0.143,0.965,0,1.091c-0.402-0.542-0.359,0.012-0.908,0c0.623,0.314,0.086,0.532-0.363,0.727
	c0.002,0.361,0.494,0.231,0.363,0.728c-0.727,0.242-0.887,1.053-1.455,1.454c-0.754-0.336-1.008-0.418-1.998-0.728
	c0.98-3.031,3.801-5.91,3.453-9.087c0.387-0.085,0.346,0.259,0.363,0.545C243.22,84.933,243.884,83.916,243.363,83.265z"/>
<path fill-rule="evenodd" clip-rule="evenodd" fill="#2C3E50" d="M219.734,112.345c-0.322-0.339-0.525,0.244-0.908,0.363
	c0.184,0.442,0.805-0.355,0.727,0.546c-1.18-0.594-2.15,1.451-1.816,2.362c-0.463-0.015-0.242,0.848-0.91,0.728
	c-0.09,0.571,0.396,0.71,0,1.091c0.039-0.851-1.289,0.515-0.727,1.271c-0.418-0.36-0.201,0.046-0.545,0.182
	c0.119,0.185,0.418,0.188,0.363,0.546c-0.861-0.069-1.41,2.081-1.453,3.271c-0.293,0.051-0.314-0.172-0.545-0.182
	c-0.396,1.197-0.611,2.475-1.092,3.271c0.008-0.012-0.109,0.025-0.182,0.182c-0.408,0.896-1.934,1.556-0.908,2.181
	c-0.057,0.247-0.455,0.151-0.727,0.182c-1.373,2.384-2.643,4.87-4.182,7.089c-1.658,0.502-2.541-0.276-4.18,0.182
	c-0.033-0.697,0.148-0.066,0.545-0.182c-1.357-0.227-2.154-1.912-4.361-1.818c-4.219-3.369-6.75-7.89-7.635-14.722
	c4.312-3.928,9.74-6.739,14.723-9.996c1.293-1.309,3.789-1.867,4.727-3.999c0.398-2.236,0.359-4.043,0.545-6.361
	c0.262-3.312,2.213-5.911,4.361-7.27c0.773-0.489,4.051,0.283,5.09,0.545c3.264,0.824,6.312,3.122,8.725,4.726
	c-0.385,0.808-0.152,2.637,0.182,2.727c-0.469,0.049-1.152,1.507-0.729,1.272c-0.023,0.57-0.771,0.892-0.908,1.999
	c0.055-0.354-1.537,1.483-1.818,1.999c-0.033,0.061,0.316,0.384,0.184,0.546c-1.443,1.731-4.172,1.769-5.635,3.453
	c0.014,0.287-0.088,0.693,0.182,0.727C219.943,110.283,219.544,110.857,219.734,112.345z"/>
<path fill-rule="evenodd" clip-rule="evenodd" fill="#FFFFFF" d="M235.912,93.806c0.51-0.026,0.523,0.445,0.545,0.909
	c0.34-0.145,0.666-0.304,1.09-0.363C237.593,95.456,235.427,94.869,235.912,93.806z"/>
<path fill-rule="evenodd" clip-rule="evenodd" fill="#FFFFFF" d="M238.091,94.897c0.5-0.242,0.934,0.729,0.182,1.091
	C238.025,95.875,238.339,95.01,238.091,94.897z"/>
<path fill-rule="evenodd" clip-rule="evenodd" fill="#1A1A1A" d="M231.667,101.077c1.143-1.31,1.75-4.651,3.453-5.998
	c0.744-0.017,0.957,0.498,1.273,0.909c-1.123,2.409-2.779,5.173-3.453,6.906c-0.963,1.394-1.34,4.343-2.908,6.18
	c-1.818-0.061-2.529-1.227-3.816-1.817c0.602-1.842,1.521-2.723,2.361-3.999c0.576,0.333,1.127,0.691,2.182,0.546
	C231.31,103.26,231.929,101.828,231.667,101.077z"/>
<path fill-rule="evenodd" clip-rule="evenodd" fill="#95A5A6" d="M40.344,148.151c-0.469,1.316-0.437,2.188-1.272,3.271
	c-3.172-1.312-5.675-3.292-9.814-3.635c0.377-2.129-0.126-4.088,0.545-5.998c0.343-0.975,1.531-1.765,2.182-2.908
	c0.479-0.843,0.509-1.925,0.908-2.727c0.578-1.157,1.666-2.274,2.182-3.453c1.254-2.875,2.492-5.643,3.635-8.724
	c0.182,0,0.363,0,0.545,0c3.137-7.951,6.352-15.822,10.724-22.538c3.412,3.737,7.438,6.859,10.724,10.724
	c-5.332,7.14-7.748,14.309-12.723,20.901c-1.157,2.499-2.519,5.341-4.181,7.815c-0.266,2.392-2.577,3.533-2.362,5.816
	c-0.777,0.324-1.188,1.107-0.909,1.999C40.373,149.273,40.287,148.374,40.344,148.151z"/>
<path fill-rule="evenodd" clip-rule="evenodd" fill="#95A5A6" d="M187.201,114.344c-0.002,0.361-0.496,0.231-0.363,0.728
	c0.564-0.569,0.381,2.387,1.635,2.726c-0.814,1.385,1.479,2.581,2,3.817c-0.578,0.197-0.135,1.426,0,1.999
	c0.229-0.045,0.184-0.361,0-0.363c0.715-0.209,0.244,0.478,0.182,1.272c0.643,0.46,0.621,2.052,1.271,3.271
	c0.309,0.575,0.926,1.456,1.092,1.817c0.289,0.635,1.91,2.656,1.998,1.818c0.373,1.213,2.012,2.517,3.637,3.453
	c-0.016,0.651-0.705,0.629-0.91,1.09c-0.029,0.51,0.926-0.264,0.365,0.182c-1.762,0.381-4.047,3.001-5.998,4.362
	c0.266,0.429,0.383,0.338,0.182,0.909c-0.248-0.057-0.152-0.455-0.182-0.728c-1.891,1.209-4.162,2.11-6.361,1.817
	c-2.203-0.293-4.99-2.651-5.635-4.725c-0.613-1.976-0.088-3.819-0.91-5.635c-0.766-1.695-2.277-3.003-3.271-5.271
	c-0.934-2.137-2.861-3.934-4.18-5.816c-0.588-3.047-3.105-4.166-3.635-7.271c5.977-1.294,10.357-4.183,15.449-6.361
	c0.133,0.17,0.33,0.275,0.545,0.363c-0.324,1.032-0.129,1.485,0.545,1.636c-0.652,1.063,1.145,2.37,1.273,3.817
	C186.697,113.154,185.994,114.347,187.201,114.344z"/>
<path fill-rule="evenodd" clip-rule="evenodd" fill="#95A5A6" d="M165.208,125.977c-0.1,0.373,0.348,0.434,0.363,0.182
	c0.166,0.6-0.414,1.958,0.363,2.544c-0.168,4.703,0.609,8.68,0.545,11.996c-0.031,0.397,0.15,0.578,0.547,0.546
	c-0.615,0.946-0.297,1.565,0.182,1.999c-0.895,0.513,0.514,2.016-0.363,2.545c0.516,5.432-0.043,8.157-0.365,13.812
	c0.484,0.599,0.02,1.275,0.729,1.817c-0.629,1.763-1.209,4.654-0.729,6.544c-0.74,0.211-0.867,1.442-0.545,2.181
	c-1.51,2.324-1.004,5.721-2.363,7.271c0.186,0.029,0.18,1.109,0.365,0.545c0.492,0.159-0.416,0.608-0.365,0
	c-1.164,2.476-1.232,4.179-2.543,6.18c1.256,0.124-1.209,1.655-0.365,2.181c-1.373,1.335-1.045,2.512-2.18,3.816
	c-8.039,1.805-18.336,5.036-26.172,4.544c-2.334-0.146-4.936,0.417-7.453,0.546c-5.139,0.262-10.501,0.17-16.176-0.363
	c-10.254-0.964-21.112-1.342-29.262-5.089c-6.456-1.623-11.562-3.842-15.268-7.271c-2.04-1.888-3.639-6.443-4.361-9.996
	c-1.179-5.789-2.381-14.002-2-20.721c0.089-1.567,0.965-3.902,0.363-5.271c0.074-0.351,0.705-0.144,0.546-0.727
	c0.132-0.797-0.362,0.146-0.364-0.364c1.6-4.833,2.358-11.655,4.726-15.812c0.09-1.193,0.368-1.86,1.091-2.726
	c-0.061-0.644-0.5-0.447-0.182-1.091c0.681-0.47,0.698-1.604,1.091-2.363c-0.018-0.77-0.656-0.924,0-1.453
	c-1.044-1.251,0.341-3.006-1.091-3.817c0.534-1.184,0.057-2.471-0.182-3.817c0.845,0.228,0.494,0.572,0.727,1.272
	c0.436-0.11,0.829-0.261,1.454-0.182c1.747,0.701,2.987,2.274,5.09,2.362c2.935,0.124,6.129-0.48,9.45-0.362
	c5.469,3.9,10.336,6.925,16.722,8.542c3.397,0.86,6.545,0.165,9.997-0.909c1.111-0.346,2.748-0.786,3.998-0.727
	c1.412,0.067,2.569,0.691,3.816,0.727c2.963,0.085,6.227-1.151,8.725-1.999c3.846-1.207,7.996,0.014,11.268-0.363
	c4.656-0.537,9.5-2.165,14.178-3.817c2.453-0.866,5.105-1.739,7.996-0.545c2.719-0.633,5.234-2.376,7.453-2.908
	c0.164,1.484-0.742,3.851,0.545,4.907c0.033,0.697-0.148,0.066-0.545,0.182c0.486,0.186-0.373,3.473,0.727,3.635
	C165.035,124.523,165.72,126.18,165.208,125.977z"/>
<path fill-rule="evenodd" clip-rule="evenodd" fill="#2C3E50" d="M42.707,158.329c0.033,0.155-0.07,0.172-0.182,0.182
	c-0.005,0.178-0.223,0.142-0.363,0.183c0.151,5.348-4.732,7.064-5.816,11.087c-0.613,0.174-0.93,0.645-1.271,1.09
	c-1.747-2.253-1.921-5.893-4.363-7.451c-2.236-1.429-5.622-1.436-8.542-0.909c-0.097-3.219,1.772-5.938,1.272-7.997
	c1.815-1.652,2.92-4.27,5.635-4.726c3.552-0.598,6.985,2.244,9.451,3.635c0.016,0.496-0.303,0.366,0,0.728
	C41.121,154.591,41.047,157.355,42.707,158.329z"/>
<path fill-rule="evenodd" clip-rule="evenodd" fill="#2C3E50" stroke="#2C3E50" stroke-miterlimit="10" d="M150.123,249.206
	c-2.373,1.052-4.504,1.174-7.088,0.364c-2.061-8.52-1.453-20.091-1.453-28.354c0-6.438-2.656-17.178-7.09-21.447
	c-0.908-0.876-2.242-1.233-2.908-2.362c-1.221,0.131-1.277-0.904-2.361-0.909c1.611-0.934,6.463-0.016,7.27-0.728
	c1.154,0.064,2-0.182,2.908-0.363c1.676,0.821,3.512,1.636,4.543,2.908c0.471,0.58,0.326,1.793,1.273,1.636
	c1.186,5.017,1.137,10.7,1.816,17.085c0.344,3.23,1.438,6.277,1.455,9.633c0.012,2.601,0.498,5.381,0.727,7.997
	C149.662,239.79,151.347,244.738,150.123,249.206z"/>
<path fill-rule="evenodd" clip-rule="evenodd" fill="#2C3E50" d="M123.587,199.224c0.184-0.768,0.037-1.584,0.363-2.545
	c0.703,0.097,0.887-0.325,1.635-0.182c0.621,2.167,4.377,1.197,5.453,2.908c-0.131,0.309-3.031-0.468-2.545,0.363
	C127.457,199.835,125.402,199.695,123.587,199.224z"/>
<path fill-rule="evenodd" clip-rule="evenodd" fill="#FFFFFF" d="M46.342,223.579c-0.254,0.716-0.789,1.15-0.909,1.999
	C45.13,225.025,45.838,223.928,46.342,223.579z"/>
<path fill-rule="evenodd" clip-rule="evenodd" fill="#95A5A6" d="M77.24,299.37c-0.033,0.697,0.149,0.066,0.546,0.183
	c-0.158,0.266-0.272,0.575-0.728,0.545c-0.286,4.034-1.637,6.911-2.362,11.632c-0.101,0.403,0.347,0.26,0.363,0.546
	c0.125,0.488-0.376,0.352-0.545,0.545c0.248,4.868-2.113,11.392-0.728,15.086c-0.084,0.582-0.691,0.641-0.727,1.272
	c-3.426-0.165-6.848,1.047-9.088,1.816c-0.606-5.034-0.583-10.307-1.454-15.448c0.147,0.034,0.181,0.183,0.363,0.182
	c-0.776-1.045,0.002-3.538-0.727-4.181c0.521-1.312,0.367-4.616-0.363-5.452c0.639-1.277,0.26-2.745,0.181-3.999
	c-0.737-11.788-1.949-25.119-2.726-38.713c4.034-0.76,3.333,3.372,4.544,5.634c1.35,2.522,4.972,2.748,8.179,3.636
	c3.228,1.274,6.714,2.566,10.359,2.907c-0.935,4.176-1.564,7.524-2.544,11.451c0.296,0.872-0.405,1.77-0.545,2.726
	c-0.115,0.787,0.381,1.819-0.364,1.818c-0.128,2.482-1.033,4.783-1.271,6.906C78.33,297.488,77.475,299.647,77.24,299.37z"/>
<path fill-rule="evenodd" clip-rule="evenodd" fill="#2C3E50" d="M61.064,350.261c-1.684-0.987-6.242-0.14-9.451,0.182
	c-2.665,0.267-5.467,0.282-8.36,0c-1.558-3.506-1.583-7.53-2.182-11.813c0.669,0.422,0.768,1.414,1.272,1.999
	c0.985,0.156,1.518,1.337,3.09,1.091c1.292-0.203,2.556-1.319,3.999-2c1.559-0.735,3.533-1.48,5.452-2.362
	c3.269-1.502,6.355-2.146,8.542-4.362c3.392-0.428,5.793-2.604,9.815-1.817c0.352,0.382,0.375,2.039,0.727,1.817
	c-0.238,4.073,2.711,9.496,0.909,13.632c-3.678,1.843-9.311,2.676-13.813,3.09C60.794,349.795,61.135,349.949,61.064,350.261z"/>
<path fill-rule="evenodd" clip-rule="evenodd" fill="#2C3E50" d="M149.759,338.083c0.609-0.344-0.701-2.896-0.545-4.544
	c1.461-0.477,4.684-1.697,5.635,0c0.342-0.222,0.842,0.087,1.09-0.545c0.822,0.072,1.803,1.771,2.363,0.908
	c0.268,1.116,3.275,2.979,4.906,3.272c1.33,2.61-3.842,4.538-3.816,6.361c-1.252,0.483,0.172,2.71-1.09,2.726
	c-0.207,0.834,0.17,1.13-0.182,1.818c-2.26-1.438-3.047-4.345-5.453-5.635C152.431,340.975,150.666,338.909,149.759,338.083z"/>
<path fill-rule="evenodd" clip-rule="evenodd" fill="#2C3E50" d="M175.568,345.717c-0.154-0.033-0.172,0.071-0.182,0.182
	c0.309,1.849,0.281,2.855-0.363,4.362c-2.641,1.556-7.711,1.483-11.633,1.09c-1.607-0.16-3.029-0.963-4.18-1.635
	c0.363-0.304,0.605-0.729,0.727-1.272c-0.916-3.761,1.707-5.347,3.453-7.089c2.072-2.065,2.137-5.151,4-7.633
	c1.705,1.565,2.74,3.801,4.18,5.634c3.496,0.959,3.496,3.928,4.18,6.906C175.597,346.84,175.511,345.94,175.568,345.717z"/>
</svg>
