<svg enable-background="new 0 0 275 353" height="353" viewBox="0 0 275 353" width="275" xmlns="http://www.w3.org/2000/svg"><path clip-rule="evenodd" d="m134.921 275.485c-1.784-1.08.053-3.944 1.406-4.719 2.173-1.244 5.199-.521 7.588-.91 2.926-.477 5.696-1.796 8.635-2.219 1.074-.154 2.517-.672 3.621-.402 1.327.324 1.183 1.032 1.368 2.257.569 3.752.564 7.919.757 11.771.105 2.11-.375 4.071-.375 6.223 0 2.122.131 4.126.5 6.122.755 4.086-.388 7.747-1.152 11.726-.714 3.709-.569 7.935-.723 11.902-.08 2.063.142 4.168-.246 6.132-.359 1.817-1.139 3.783-1.406 5.591-.136.92.023 1.704-.967 2.155-.809.369-2.133.157-3.006.247-.977.1-1.979.421-2.506-.494-.365-.634-.388-2.104-.592-2.881-.48-1.83-.528-3.727-.906-5.628-.185-.931-.328-1.918-.648-2.845-.275-.792-.943-1.601-1.069-2.43-.153-1.016.215-1.903-.056-2.947-.233-.897-.367-1.609-.473-2.65-.18-1.764-.854-3.522-1.371-5.254-.253-.846-.806-1.514-1.101-2.277-.396-1.025.188-1.321.097-2.219-.15-1.482-1.635-3.166-2.027-4.723-.45-1.78-.861-3.587-1.602-5.273-.326-.744-.912-1.383-1.128-2.254-.233-.944.029-2.009-.112-3.007-.271-1.916-1.062-3.81-1.375-5.75-.262-1.632-1.466-3.691-1.381-5.243" fill="#95a5a6" fill-rule="evenodd"/><path d="m147.609 84.329c-.525-.317-1.084-.332-1.561-.758-.278-.248-.971-.678-.936-1.081.3-.015.493-.13.814-.097.289.03.596.056.869.03.341-.033.599-.14.96-.069.383.074.733.233 1.109.327.323.081.62.084.929.219.342.148.685.292 1.033.423.313.118.595.23.877.411.293.189.563.208.874.354.323.151.6.429.89.64.406.295.757.37 1.203.571.405.184.82.361 1.249.508.438.15.927.224 1.338.429.605.303 1.008.859 1.568 1.221.663.428 1.354.838 2.033 1.242.46.274 1.063.484 1.559.662.605.217 1.072.672 1.604 1.056.294.212.627.462.96.624.31.15.471.167.698.407.335.354.849.577.906 1.094.082.749-.985.668-1.409.952-.379.255-.488.843-.873 1.062-.575.328-1.416.049-1.789-.438-.45-.588-.368-1.363-.531-2.04-.104-.427-.525-.737-.873-1.005-.496-.381-.983-.757-1.564-.994-1.1-.448-2.082-.966-3.102-1.561-.283-.166-.531-.328-.835-.446-.283-.111-.576-.142-.843-.282-.556-.292-1.057-.548-1.658-.735-.479-.148-.906-.482-1.375-.718-.521-.262-1.037-.469-1.589-.673-.46-.17-.952-.376-1.38-.624-.379-.22-.755-.563-1.188-.648" fill="#1a1a1a"/><path d="m56.296 219.819c0 5.5 1.5 10.333.666 15.833-.666 4.667-.666 9.334-.666 14" fill="#2c3e50"/><path d="m55.331 220.078c.146 5.278 1.246 10.42.67 15.713-.513 4.72-.667 9.373-.67 14.12 0 .502 1.931.166 1.932-.518.004-5.275.289-10.449.858-15.69.506-4.661-.729-9.478-.858-14.143-.015-.517-1.951-.161-1.932.518z" fill="#2c3e50"/><g clip-rule="evenodd" fill-rule="evenodd"><path d="m140.49 225.033c.453.073.139.833-.363.545-.004.561-.107 2.154.363 1.636-.125 1.599-.305 7.581-.363 10.906-.008.501.383.917.363 1.271-.016.287-.365-.16-.363.182.016 2.757.174 11.074 3.271 11.996 2.061.613 7.557-.194 7.998-1.999.811-3.319-.023-8.433-.547-11.814-.344-2.231-.133-4.494-.363-6.725-.545-5.289-1.586-10.426-2.18-14.722-.887-6.397 0-12.76-2.363-17.631 3.902-.131 9.664-1.904 13.449-3.816 1.053 1.008 1.193 3.895 2.182 4.362-.191.363.199 2.544.908 2.726 2.213 6.423 3.67 13.047 6.725 19.267.105 2.537 1.414 5.786 2.182 8.724.043.32.312.414.727.363-1.119.679.369 2.375.182 3.817.064.254.32.016.363-.182.543 6.775 3.195 12.604.184 19.629-.752-.022-1.139.316-2 .182-1.801-1.996-2.906-6.552-3.998-9.633-.365-1.026-.512-2.18-.91-3.271-1.316-3.608-2.518-8.006-3.998-11.996-.342-2.264-.607-4.603-1.818-5.997-.947.264-.799 2.48 0 2.181-.328 1.755 1.125 4.065 1.455 5.453.086.362-.057.906 0 1.271.277 1.769 1.291 4.398 1.816 5.998.123.369.5.38.547.545.031.117-.277.429-.182.728.473 1.498 1.24 2.998 1.816 4.544.35.939 1.318 2.695 1.637 4.362.266 1.399.607 3.129 1.09 4.725-2.688 3.009-5.926 5.464-9.088 7.998-1.631-12.712-3.949-22.955-4.725-34.533-.473-.195-.543-.791-1.092-.909-1.533.668.168 1.524.182 2.908.006.528-.639 1.812.182 2.181-.123.487-.396 2.654.545 3.09-.564 3.633.801 6.921 1.092 11.451 1.045 2.057.873 8.206 2.182 11.813.191 2.584.43 6.001.727 8.18-1.416 2.939-5.49 4.19-8.361 5.634-1.883.947-3.223 1.289-4.906 1.817.02.452.34.563 0 .909-.422-.051-.418-.486-.184-.728-1.596.615-3.4 1.079-5.27.364-1.701-5.965-2.689-12.56-3.635-19.63-.139-1.032-.092-3.154-1.637-2.908.32 6.793 2.377 15.139 3.635 21.629-2.99.203-6.268.763-8.906 1.272-.203-3.818-.025-7.177.184-10.905.311-5.567-.092-13.464 1.271-19.448-1.205-4.316-.617-8.812-.182-13.631-.361-.125.113-1.083-.545-.909.658-.809.646-2.726 0-3.635-1.207.269-.494 1.197-.545 1.817-.568 6.706-.312 14.736-.729 22.355-.318 5.855-.836 11.291-.363 15.631-.002.51-.496-.433-.363.364.705 2.601-.859 5.74.545 8.36-.402.502-.346.923-.182 1.636-.826.97-2.27 1.951-2.361 3.09-.947-.482-1.68 1.472-3.092 1.999-.902.337-2.795.411-4.18.363-6.55-.223-14.701-1.016-16.721-5.452-.068-1.125.258-1.548-.182-2.181 1.062-2.653 1.363-5.74 1.636-8.725.508-5.573.706-11.517 1.636-17.267.47-2.906 1.402-5.946 1.636-8.906.386-4.879.445-9.796 1.091-14.54-1.003.404-1.354 2.246-1.455 3.09-.357 2.984-.376 6.006-.727 8.906-.251 2.076-.959 4.041-1.272 5.997-1.621 10.136-1.799 19.737-3.453 30.898-3.89-1.062-6.772-1.769-10.723-1.091 1.666-7.572 2.5-16.576 4.361-24.354.057-.662-.028-1.183-.182-1.636 1.488-3.604 2.534-8.61 2.908-12.723.914-2.612.983-6.273 1.999-9.815-.076-.408-.964-.005-1.09-.363-1.122 1.418.034 3.037-1.272 3.999.238 2.571-.955 3.686-.182 5.089.282.646-.617.109-.546.545-.208.754.383.708.363 1.272-1.014.918-.434 2.643-1.636 3.09-1.59 6.283-2.466 15.686-4.361 23.265-.442 1.768-.333 4.006-.728 5.998-.419 2.12-.725 4.751-1.272 5.816-1.289 2.508-6.171 2.734-8.36 2.544-2.15-1.312-5.426-1.561-8.36-2.544-2.857-.958-7.147-2.235-6.907-6.181.104-1.682 1.419-4.124 2.363-6.543 2.504-6.416 3.972-12.443 5.635-19.992.92-4.183 2.375-7.422 2.726-11.27.365-3.999 1.8-7.061 1.999-10.904-1.446 1.783-2.123 5.242-2.362 7.633-1.91 4.433-2.427 9.289-3.636 15.086-1.661 7.974-4.579 16.184-7.633 23.991-4.053-2.127-10.593-1.767-13.995-4.544.678-.379.848-1.35 1.091-1.999 1.838-4.92 3.487-10.303 5.634-15.268 1.899-4.394 3.581-9.191 5.271-13.813.309-.846 1.052-1.284.908-2.726 1.849-2.695 1.712-7.376 3.453-10.179-1.56.622-1.914 4.022-3.09 5.635-.473.478.294.143.183.727-2.335 4.835-3.716 10.857-6.361 15.812-.106.591.123.846.181 1.272-1.752 1.459-1.578 4.844-3.271 6.361-1.332 5.174-3.459 9.621-5.271 13.995-3.258-1.589-5.957-3.736-8.179-6.361 2.392-5.677-1.236-11.285.363-16.539.247.056.15.455.182.727.518-.694 1.052-1.371 1.636-1.999.68-2.347 1.464-4.417 2.363-6.726.616-1.581 1.745-2.83 2.545-4.361.711-1.364 1.08-3.05 1.635-4.544 1.186-3.193 3.327-6.331 3.817-9.814 1.783-2.424 1.701-5.771 3.635-8.18.729-4.666 1.61-8.166 3.453-11.813 9.286 5.9 20.993 9.875 33.988 11.087-.697 1.674-.087 3.229 0 4.544.066 1.02.085 2.971 1.636 3.453 5.664 1.763 18.958.871 25.445.363 2.287-1.044 2.527-4.137 2.727-7.27 2.602.578 4.373-.046 7.814.182.805.028-.086-.514.363-.727 2.6 1.306 3.643 3.718 4.545 5.271.033.206.182.101.182 0 1.486 6.192 4.252 11.015 3.453 19.447 0 .281.495.6.362.003z" fill="#2c3e50" stroke="#2c3e50" stroke-miterlimit="10"/><path d="m272.625 29.829c.256.603.664 1.695 0 2.182-.76-.39-1.771-.531-2.361-1.091.384-.766 1.025-1.276 2.361-1.091z" fill="#b3b3b3"/><path d="m33.983 174.323c-2.019 1.028-.913 3.187-1.272 4.908-.488 2.336-3.624 2.439-5.271 3.816-2.502-.162-8.418 1.103-9.634-2.181-.36-.303-.23.017-.727 0 .603-2.946-.99-5.593-3.816-6.18-.369-3.023-1.223-5.011 0-7.634 4.883-.243 11.266-5.613 16.357-2.727 2.727 1.547 2.771 5.384 4.18 7.815-.656.569-.181 1.407.183 2.183z" fill="#2c3e50"/><path d="m61.972 182.139c7.368 7.526 19.985 10.938 31.989 12.723-.007 1.478.045 2.808-.182 3.635-8.411-.424-14.883-3.519-22.356-5.271-3.849-1.847-7.58-3.81-11.086-5.998.531-1.711.926-3.558 1.635-5.089z" fill="#2c3e50"/><path d="m158.847 193.043c-3.207 3.141-9.162 3.776-13.631 4.727-.908-.548-2.039-1.837-2.363-2.363 4.588-1.47 10.195-1.922 14.541-3.635.666.242 1.193.623 1.453 1.271z" fill="#2c3e50"/><path d="m98.869 195.77c.033 1.751-.912 3.018-.545 4.362.425 1.561 3.904 2.631 5.635 2.727 1.497.082 3.771-.301 5.997-.364 3.284-.093 5.923.561 7.634-.727.527-1.592 1.088-3.152 1.271-5.089 1.518-.069 1.936-.069 3.453 0-.695 2.491.396 4.489 0 7.089-.492 3.231-3.43 3.396-7.996 3.453-.88.011-1.77-.192-2.727-.183-3.405.037-7.305.268-10.724 0-.995-.077-4.389-.798-4.726-1.09-1.769-1.539-.287-7.61-.545-10.36.64-.688 2.527-.157 3.273.182z" fill="#f39c12"/><path d="m117.044 196.861c.254.918.365 3.245-.547 3.999-4.812-.507-13.423 1.888-16.538-1.636.001-1.271.303-2.241.545-3.272 6.169.203 11.324.935 16.54.909z" fill="#2c3e50"/><path d="m47.433 220.307c.671.141.159 1.233-.364 1.272-.119-.664.393-.697.364-1.272z" fill="#fff"/><path d="m185.929 111.799c1.266.802 2.398 4.7 3.816 6.544 2.746-1.312 4.18-4.908 7.451-5.089.525-.143.455-.88.727-1.272 1.643-.355 3.336-1.911 4.908-2.908.066.427 2.17-1.168 3.09-1.636.225.762 1.789-2.137 2.908-1.636.863-2.415.809-4.629 1.09-7.089-.41-1.042-1.623-1.285-2.361-1.999-.998-1.24-1.215-4.327.182-4.726-.318-1.554 1.338-2.642 1.635-4.18.361-.303.232.016.727 0 .135-1.508.924-3.256 1.818-4.908.168-.311.467.1.545 0 .092-.116.301-1.019.545-1.454.283-.502.77-.984.91-1.271.426-.886.311-2.06.727-2.545.068-.08.604.06.727-.182.193-.379.178-2.476.727-1.454-.07-.754-.105-1.522.727-1.817-.189-1.476 1-2.784 2-3.636.049-1.469 1.41-3.808 2.727-3.998-.078-.285-.572-.155-.363-.728.75-1.563 2.344-4.183 2.908-4.726-.559-.283.314-.633.545-.727.314-1.685 1.469-2.529 1.818-4.181 1.158-1.216 2.117-3.561 3.271-4.18.023-.326-.223-.384-.182-.728 3.486-5.972 6.424-10.523 9.451-16.176 2.107-2.193 3.996-4.607 7.27-5.635 5.143-.773 12.438-.585 17.084.363.186-.118.189-.418.545-.363 1.752.586 2.816.469 5.09.909.582-.933 1.557-1.474 2.363-2.181 1.031-.123 1.49.326 2.363.363 1.479 1.58-.271 4.58 1.09 5.815-.564 1.699-1.639 2.434-3.635 1.818-1.117 2.154-2.811 3.732-3.453 6.361-4.779 6.064-7.178 14.512-11.451 21.083-1.326 3.622-2.488 6.68-4.361 9.451-.297 2.248-1.295 3.795-2.727 4.907.119.544.389-.174.727 0-.879 1.919-2.053 2.853-2.363 4.544-.342-.137-.125-.542-.545-.182-.27-.006.035.915.363.909-1.918 4.067-3.658 9.116-5.451 12.723.16.322.506.462.363 1.09-.73-.062-.883.451-1.273.728-1.453-.001-1.955-.953-3.09-1.272-1.928.92-1.76 3.936-3.271 5.271-.008.545-.381 2.403-1.09 2.182.324 2.338-1.809 3.756-2 6.18-.771-.166-.914.297-1.09.727-2.209-.64-3.893-1.803-5.635-2.908-2.338.565-3.223 1.887-4.361 3.999-4.26 7.901-8.053 18.503-13.996 25.264-2.471-.156-4.33-.479-5.998-1.272-1.523.952-2.863 1.769-4.543 3.09-2.104 1.654-5.078 5.699-9.814 5.089-1.773-.228-3.826-1.188-4.727-2.726-.939-.541-2.084-1.757-1.816-2.908-.803-.358-.037-1.164-.91-1.454.705-4.76-4.088-8.261-4.906-12.359-.25.183.076.3-.363.545-.266-.968-1.549-1.674-1.092-2.544-.473-.092-1.455-.807-.363-.909-.293-.611-.576.571-.908 0-.215-.778.014-.741.182-1.454-.17.134-.275.331-.363.546-1.795-2.307-2.633-4.732-4.182-6.544-1.086 1.328-.844 4.064-.727 5.998.141 2.32 1.004 4.941 1.273 6.907.566 4.16-.012 8.541 1.09 12.723-.053.37-.492.356-.545.727.922 6.1.615 13.244.545 19.63-.049 4.535-1.514 10.586-2.727 14.722-1.482 5.051-3.213 9.295-5.453 14.177-.176.385-.275 1.231-.182 1.999.338 2.728 2.598 7.343 4 10.905 1.025 2.609 1.746 5.475 2.908 8.18 2.148 8.36 5.736 15.684 6.543 23.628 1.76 6.063 3.662 16.391.182 21.083-1.176.033-1.414.659-2.545.545-.781-.078-1.229-.953-2-.908-.824.048-4.061 3.157-5.088 3.998-.828.679-2.582 2.01-3.09 2.908-.357.63-.221 1.559-.363 1.999-.568 1.747-1.564 3.09-2.363 4.181.584 6.629.732 14.591 1.09 21.811.143 2.864-.086 5.583.363 8.179.053.307.344.613.363.909.125 1.85-1.156 3.341-1.271 5.089-.027.417.25.975.182 1.454-.289 2.039-1.201 3.969-1.271 5.998-.047 1.308.326 2.525.182 3.816-.598 5.322-1.135 10.627-1.637 15.813 2.18 2.338 4.758 3.582 7.816 5.271 2.031-.992 2.252-4.716 3.453-5.271 1.328-.175 1.691 2.185 2.18 3.453 1.137 2.665 5.373 4.364 6.543 7.27 1.494 3.706 1.299 9.345-1.816 11.088-1.514.037-2.465.37-4.361.363-.457.031-.443-.407-.729-.546-.27.08.072.233 0 .546-2.443-.395-4.893.646-6.906 0-1.193-.384-2.896-.708-3.453-1.091-.592-.408-.678-1.269-1.09-1.817-.637-.846-1.613-1.749-2.363-2.545-2.512-2.667-4.518-5.848-6.543-8.179.535-1.393-.613-1.321-.182-2.181-.184-.251-.301.077-.545-.364-.287-8.911-3.117-19.588-4-27.081-.178-.246-.484-.363-.727-.546.424.116.789-.902 1.273-.727 1.188 1.437.201 4.139 1.271 4.726-.26.534-.35.103-.363 1.272.336-.027.111-.615.363-.728-.041 1.587 1.504 2.96.545 4.545.781.055.361.811.727 1.817-.238-.064-.285-.32-.545-.364.311.572.426.647.908.728.16 4.157.93 7.238 1.455 11.269 1.98-.247 3.508-.831 5.09-.363 1.068-1.413.553-3.3.908-4.726.334-1.34.203-3.848 1.09-5.271-1.287-1.61.344-3.903.363-5.09.031-1.708-.234-4.684 0-7.27.381-4.179 2.299-8.351 1.818-13.269-.436.967-.732-3.359-.727-3.998.027-3.445.125-7.542-.365-9.633.465.699.918-1.36 0-1.637 1.023-1.207-.65-3.617.729-4.361-.297-.426-.438-.343-.545-.728-.123-.434.217-1.097.182-1.272-.324-1.579-.854-1.539-.729-3.635.061-.425.219-.751.363-1.091-.373.368-.361-.073-.545-.363-5.123 1.066-9.439 6.077-15.631 5.816-2.08-.088-3.367-1.567-5.814-.909.445 6.564 2.818 12.658 3.998 19.085.779 1.167 1.807 3.382 2.545 5.089.75 1.736.725 3.809 1.453 5.089-.162-.111-.326-.22-.363 0 .982.714 1.83 3.744 1.271 5.271-.146-.126-.498-.282-.545 0-.918-2.021-1.172-3.079-1.998-4.907.178-.67.795-.9 1.09-1.454-.5.105-.76.453-1.273.545.26-.758-.467-.614-.545-1.817.238.064.287.32.545.364-.998-1.274-1.039-2.378-1.998-3.635-.086-.571.488-.48.545-.909-.361.002-.23.495-.727.363-.023-1.267-.643-1.412-1.09-2.908-.086-.388.258-.346.545-.363-1.287-.759-.797-2.455-1.455-3.09.162.081.326.159.363.363.316-.507-.744-1.188-.908-1.817-.008-.465.135-.222.363-.182-.406-1.044-1.213-1.832-.363-2.727-.977-.691-.436-1.23-1.09-1.999.176.005.141.223.182.363.465-.839-1.311-2.884-.365-3.998-.391-.275-.506-.827-.908-1.091-.086-.57.49-.48.545-.909-.537.752-1.492-1.497-.363-1.272-.992-.4-.783-2.003-.908-3.271-1.064.17-2.492.03-3.453.546-.658.353-.68 1.005-1.273 1.636-1.129 1.203-2.885 3.155-4.18 4.18-2.959 2.343-6.824 1.207-11.632.909-5.159-.319-9.591-.875-11.995-3.817-.181-1.516-.962-2.431-1.272-3.816-2.183-.768-5.335-1.801-8.906-1.272-1.414.21-2.641 1.487-4.181 2.182-.896.403-1.955.408-2.362.727-1.057.824-1.872 4.844-2.362 7.089-1.366 6.243-1.759 9.923-3.272 15.631-1.532 5.779-1.869 12.397-3.453 17.448.403 5.136-1.103 9.841-.545 15.631.395 4.102 1.993 8.109 1.999 12.177.009 6.019-4.412 6.158-9.451 7.089-2.866.529-5.842 1.104-8.542 1.272-1.614.101-3.461-.272-5.089-.182-3.925.219-8.342 2.136-11.814.363-1.385-2.567-1.465-6.909-2.182-10.178-.379-1.73-.483-3.74-.545-5.998.713-.568.157-1.288.908-1.818 2.906.852 1.785 5.951 4.727 6.362 1.569.219 3.619-1.789 5.089-2.363.663-.259 1.163.069 1.817-.363 3.234-2.14 8.824-3.528 10.724-5.816-.03-.211.04-.323.182-.363-.532-3.096-.09-6.566-.728-8.906.552-.847-.207-1.073.364-1.817-.44-.226-.899-2.504-.182-3.09-.835-.552-.595-2.486-.183-3.453-.212-.113-.475-.093-.727-.545.26-3.049-.322-4.164 0-6.907-.104-.034-.231.271-.182.364-.69-1.275.062-3.307-.545-4.727-.66-1.54-.293-4.44-.182-5.452-.491-3.051-1.355-10.022-1.272-15.631.005-.304.355-.644.363-.545-.078-1.011-.62-2.057-.727-3.091-.33-3.175-.229-6.944-.728-10.178-.176-1.142-.08-2.746-.182-4.181-6.299-1.765-11.259-3.175-15.631-6.906.145 1.694.295 4.516-.909 5.816 1.926 1.782 3.632 5.759.546 8.179 1.209 1.605.799 4.247 0 5.453 1.473 1.307 2.054 3.938.727 5.271-1.275-1.992-1.59-4.724-4.362-4.544-2.862.185-4.13 3.865-4.18 6.906-.855.189-.914-.419-1.272-.727-.014-3.35.939-6.324 3.998-7.452-1.645-1.526-1.794-4.527.364-5.635-1.577-1.364-2.452-4.925-.546-6.725-2.462-1.688-3.637-7.249-.545-9.27-3.926-1.584-1.986-7.858-.545-10.905-.501-1.498-1.559-2.44-2.182-3.816.819-4.159-.84-8.76 2.182-11.451-.986-1.789-1.724-5.581-.183-6.906-2.472-2.673-3.458-8.479-.181-10.905-.13-1.674-.345-2.466 0-4.544-1.834-1.818-.354-4.729.727-6.543-2.689-.848-3.648-4.756-1.454-6.725-1.502-1.775-.202-3.765.182-5.998-1.484-1.232-1.805-3.073-.728-4.907-3.546 3.479-12.016 6.053-16.902 2.181-.722.134-2.059.394-2.727 0-.259 2.275-.286 5.893-2.363 6.907 1.281 1.33.02 3.1 0 4.725-.012 1.015.61 1.972.546 2.908-.157 2.271-1.558 3.301-3.271 4.544 1.187 2.354 1.15 5.494-.183 7.452-.553.008-.706-.384-1.09-.545 1.166-2.746.093-7.153-2.545-6.907-2.401.225-3.533 4.291-3.271 7.089-.367.419-.815.76-.908 1.454-1.523-.557-1.115-3.139-.728-4.726.522-2.136 2.588-4.634 4.181-5.271-.031-1.874.029-3.567 1.636-4.18-.115-.552-.834-.499-1.091-.909-.228-2.529.533-4.071 1.637-5.271-.965-3.2.631-6.351 2.362-7.997-.296-.553-.746-.95-1.091-1.454.012-1.336.045-2.585.546-3.453.157-.274.49.081.908-.364.277-.295.185-.945.363-1.09.479-.39 1.359-.548 1.818-.728-.707-3.21-.682-7.183.908-9.451 3.106-.49 4.597-1.473 7.634-1.999.982-2.613.567-5.502 1.817-7.815-.122-.91.168-1.407.182-2.181 1.379-2.407 3.504-3.517 5.271-4.908.656-.517.124-1.497.182-2.181.129-1.556.753-3.328.908-5.271 2.124-2.602 4.007-5.445 5.089-9.088 2.202-2.402 2.795-6.414 4.727-9.088.103-.829.04-.769.182-1.636.588.225.139-.588.727-.363 2.338-7.757 6.396-14.297 9.633-21.629-1.329-2.484-3.932-5.293-3.635-8.36.1-1.035 1.228-1.887 1.999-2.908 1.312-1.735 2.543-4.226 4.362-6.18 1.85-1.986 3.985-4.425 5.998-6.361.52-1.057 1.03-2.12 2.182-2.545 1.938-2.907 3.663-6.029 6.36-8.179-.119-.665.394-.697.363-1.272 3.232-2.958 5.475-7.839 9.997-8.905 4.055-3.292 8.996-5.188 13.631-8.18 1.093-3.754 2.506-7.188 3.09-11.45-.03-.719.279.059.546-.364-.137-2.311.755-4.04 1.636-5.815-.281-.658-.105-.941 0-1.636 1.535-2.402 1.359-6.516 3.09-8.724-.241-.681.542-1.257 0-1.637.613-1.567.882-3.787 1.272-6.18.731-3.924 4.37-5.701 8.179-7.815 4.162-2.311 8.125-4.059 13.268-2.544.426.125.252.034.182.363 6.121.508 10.496 3.941 14.541 7.088 1.982 3.347 2.527 7.249 3.816 10.725.494 1.332 1.445 2.523 2 3.816.438 1.022.438 2.667.908 3.635 3.277 6.74 4.521 14.609 5.271 23.991 2.602 2.799 5.479 4.778 8.904 7.089 1.604 1.081 3.121 2.435 4.727 3.453 2.439 1.549 5.641 2.696 8.178 3.999.836.429 2.328 2.001 3.092 2.907 2.535 3.015 3.547 7.253 5.996 10.725v.908c1.02 1.133 1.576 3.29 2.545 5.453 2.211 4.934 4.879 10.417 6.543 14.903.445 1.2 1.078 2.782.363 3.999-1.371 1.077-2.273 2.235-3.998 3.271.327 1.732 1.799 3.284 1.633 4.906zm-47.801-94.33c-1.387-1.716-1.629-4.863-2.729-6.906-1.828-3.402-6.061-4.533-8.904-6.725-3.584-.951-7.441-2.476-11.087-1.999-5.107.666-9.024 4.25-12.905 6.906-3.213 7.707-4.154 17.178-7.451 25.082-.908 4.723-2.16 9.564-3.817 14.177-.731.298-1.226.834-1.817 1.272-.034-.27-.439-.167-.727-.182-2.953 1.985-6.37 3.424-9.451 5.271-1.788 1.071-3.88 2.215-5.453 3.453-2.201 1.733-3.124 4.583-5.452 6.18-6.678 9.317-14.901 17.088-21.266 26.719 2.177 10.363 10.194 14.888 16.357 21.265 2.503.498 3.941 2.849 6.543 3.635 3.167.958 7.524-.356 11.451.182.769 1.291 2.689 1.431 3.271 2.908 2.288.62 3.707 2.109 5.452 3.272 3.453.779 6.367 2.824 9.997 2.907 2.816.064 5.503-.987 8.179-1.817 2.693-.835 4.693.206 7.089.363 2.474.162 4.157-.984 6.542-1.091.318-.424 3.814-1.528 4.363-.908 2.074-1.251 3.902-.495 5.816-.363 5.762.397 11.102-1.97 15.447-2.908 3.049-2.796 7.273-1.225 10.725-1.817 3.402-.585 6.012-3.457 9.633-4.181-.445.364-.355.845.363.909-.6-1.505 2.199-1.946 3.271-1.273.098-.922-.645-.003-.545-.727 1.623.226 1.691-.598 3.453-.908.314.462-.277.705.363.727.262-.953 1.422-2.315 2.363-1.454-.027-.451-.035-.882.363-.908 1.561-.079 1.693-1.181 2.908-1.454.938-.212.846-.35 1.453-.728 2.137-1.324 7.104-3.395 5.09-6.725-2.084-3.446-3.014-7.386-4.725-10.724.238.002.164.318.363.363-1.783-2.188-2.492-5.467-4-8.179.045-.341.301.104.363-.182-2.141-2.619-4.582-8.001-5.816-10.905-.039.141-.004.358-.182.363-3.963-5.857-11.574-7.047-17.084-11.45-.078-.347-.52-.329-.363-.908-.303 0-.605 0-.908 0-2.854-2.479-6.205-4.46-8.725-7.271-.127-.794.525-.809.545-1.454-.777-6.144-1.793-11.614-2.182-15.268-.088.215-.193.412-.363.546-.873-4.109-1.965-5.96-3.09-9.634.145-.413.512-1.059 0-.727.428.002-.066.496-.363.363-.158-1.165-.926-2.097-.727-3.09-.877.66-2.197-3.786-1.631-3.997zm132.135 13.45c.59.56 1.602.701 2.361 1.091.664-.486.256-1.579 0-2.182-1.335-.184-1.976.326-2.361 1.091zm-56.89 59.071c.193-.324 1.465-1.196.729-1.272-.041.142-.006.358-.182.363.65-1.029.744-2.632 1.998-3.453-.119-.904.588-2.235 1.455-3.09-.082-.854.621-2.398 1.453-2.545-.133-.701.209-2.171.908-2.544-.092.05.74.959.365 0 .676-.252-.535-.027-.365-.364.771-1.846 1.99-1.699 1.818-3.998.518-.349.686-1.328 1.09-1.272.189-1.63 1.643-3.568 2.727-4.907.246-2.759 2.566-3.794 3.09-6.725.25.152.955-1.154 1.092-2.181 2.564-3.797 4.693-8.029 6.906-12.179 3.012-3.228 4.861-7.618 7.996-10.723 3.646-1.354 8.232-3.354 12.359-2.908 5.002-1.238 10.539 1.293 16.359 2.545-1.146-3.076-5.566-2.808-8.543-3.636-2.389-.664-4.041-.226-7.451-.545-4.016-.376-10.299-.707-13.451 1.454-1.742 1.194-3.887 4.212-4.906 5.998-4.305 7.529-10.086 17.791-13.996 24.536-.135.29-.889-.041-.727.546-1.975 3.943-4.336 7.912-6.543 11.087-1.197 3.405-2.533 6.63-4.182 9.814-.348.673-1.088 1.148-1.453 1.817-.574 1.051-.732 2.286-1.271 3.271-1.09 1.989-4.15 5.873-.729 7.452.691-1.248 1.076-2.802 2.182-3.636 0 .183-.146.217-.182.364.586-.987 1.51-1.637 1.454-3.269zm41.986-31.262c-.98-.593.793-1.766 1.09-2.908.25-.963.932-2.867 1.818-3.271 2.068-6.939 6.355-10.928 7.996-17.993-3.99-1.812-11.5-1.464-15.449-.364-.262.282-.242.849-.545 1.091-6.238-.25-6.855 3.623-9.451 7.271-1.701 2.39-4.02 5.019-4.906 7.633-1.348.532-.973 2.785-2.363 3.272-.271.698-.264 1.674-1.09 1.816-2.535 6.812-7.363 12.862-10.18 19.994-.361.184-.775.313-.908.727-.16 2.809-2.391 5.121-3.271 7.815 4.354 1.465 7.617 3.443 11.633 5.089.102.379.518.588.182.909.357.054.359-.245.545-.364.27.585.473.894.545.364.715.255 1.15.787 1.635 1.272.424-.391 1.582.357 2.182.908.125.488-.375.352-.545.545-4.016-1.346-6.633-3.112-9.814-5.089-2.715-.02-5.033-2.347-6.906-1.999 4.117 2.775 9.762 3.731 13.812 6.906.955-.505 2.371 1.521 3.816 1.272-.406-.637-.242-1.015.184-1.636.1.401 1.053.236.545.728.588.225.139-.589.727-.364.26.444.283.665.363.909.293-.488.576-.271.908 0 1.066-2.024 1.82-4.36 3.271-5.998-.221-.021-.43-.054-.363-.363.496-.017.367.303.727 0-.172-1.194.232-2.464 1.092-2.908-.141-.041-.359-.005-.363-.182 1.174-1.093.814-2.343 1.998-3.817.029.214-.031.517.182.546.238-.564-.049-.519 0-1.272 1.002.61-.143-1.209.91-.545-.557-.686-.035-.855.182-1.272.166-.124.174-.724.182-1.454 1.91-1.592 1.967-4.892 4.18-6.543.041-.344-.205-.401-.182-.728 1.326-.32 1.238-4.616 3.635-5.815-.062-1.521.701-3.287 1.818-4.181-.006.1.143.205.178-.001zm-12.541 26.536c-.018-.286.023-.63-.363-.545.348 3.177-2.473 6.056-3.453 9.087.99.31 1.244.392 1.998.728.568-.401.729-1.212 1.455-1.454.131-.496-.361-.366-.363-.728.449-.194.986-.412.363-.727.549.012.506-.542.908 0 .143-.126.404-1.014 0-1.091-.193.17-.057.671-.545.546.021-.826.641-1.057 1.09-1.454-.65-.901.506-1.55.727-2.182.029.214-.031.516.184.545.443-.428-.271-.338-.184-.908.576.554.744-.325.91-.728-.414.051-.684-.043-.727-.363.619-.904.674-2.216 1.453-2.181.236-1.825 1.363-4.061 2.545-5.089.424-2.43 2.168-4.999 3.09-7.089.221-1.75.941-2.431 1.998-3.999.004-.428-.312-.535-.182-1.09.262-.402.443.229.547-.182 1.625-5.16 5.125-10.02 7.088-15.449.607.572.482-.938.727-1.454.463-.982 1.592-1.9 1.816-2.545.092-.257-.211-.668-.18-.727 1.762-3.441 5.164-6.516 6.178-10.724-.998.09-1.229-.588-2.18-.546-4.143 11.535-10.9 20.851-15.268 31.626-.232.01-.252.232-.545.182-.836 2.313-1.531 3.891-2.727 5.089-.348.085-.783-.561-.727.182-.131.494.857-.13.727.364-2.201 3.259-3.736 8.129-5.816 10.905.522.653-.142 1.67-.544 2.001zm-27.445 4.544c5.861.299 11.926 2.461 15.086 6.543.211 2.513-.562 4.042-1.09 5.816 1.15-.001.936-1.365 1.816-1.636-.121-2.459 2.158-3.977 2.363-6.18-5.559-2.961-11.316-5.007-16.723-7.816-.64.934-1.173 1.977-1.452 3.273zm5.453 19.447c-.27-.033-.168-.439-.182-.727 1.463-1.685 4.191-1.722 5.635-3.453.133-.162-.217-.485-.184-.546.281-.516 1.873-2.354 1.818-1.999.137-1.107.885-1.429.908-1.999-.424.234.26-1.224.729-1.272-.334-.09-.566-1.919-.182-2.727-2.412-1.604-5.461-3.901-8.725-4.726-1.039-.262-4.316-1.034-5.09-.545-2.148 1.358-4.1 3.957-4.361 7.27-.186 2.318-.146 4.125-.545 6.361-.938 2.132-3.434 2.69-4.727 3.999-4.982 3.257-10.41 6.068-14.723 9.996.885 6.832 3.416 11.353 7.635 14.722 2.207-.094 3.004 1.592 4.361 1.818-.396.115-.578-.516-.545.182 1.639-.458 2.521.32 4.18-.182 1.539-2.219 2.809-4.705 4.182-7.089.271-.03.67.065.727-.182-1.025-.625.5-1.284.908-2.181.072-.156.189-.193.182-.182.48-.797.695-2.074 1.092-3.271.23.01.252.232.545.182.043-1.19.592-3.341 1.453-3.271.055-.357-.244-.361-.363-.546.344-.136.127-.542.545-.182-.562-.757.766-2.122.727-1.271.396-.381-.09-.52 0-1.091.668.12.447-.742.91-.728-.334-.911.637-2.956 1.816-2.362.078-.901-.543-.104-.727-.546.383-.119.586-.702.908-.363-.189-1.487.21-2.061 1.093-3.089zm16.72-14.903c-.424.06-.75.219-1.09.363-.021-.464-.035-.936-.545-.909-.484 1.063 1.682 1.65 1.635.546zm.727 1.636c.752-.361.318-1.333-.182-1.091.248.113-.066.978.182 1.091zm-7.451 7.815c-1.055.146-1.605-.213-2.182-.546-.84 1.276-1.76 2.157-2.361 3.999 1.287.591 1.998 1.757 3.816 1.817 1.568-1.837 1.945-4.786 2.908-6.18.674-1.733 2.33-4.497 3.453-6.906-.316-.411-.529-.926-1.273-.909-1.703 1.347-2.311 4.688-3.453 5.998.262.752-.357 2.184-.908 2.727zm-190.296 44.893c-.278-.892.132-1.675.909-1.999-.215-2.283 2.097-3.425 2.362-5.816 1.662-2.475 3.023-5.316 4.181-7.815 4.975-6.593 7.391-13.762 12.723-20.901-3.285-3.864-7.312-6.986-10.724-10.724-4.372 6.716-7.587 14.587-10.724 22.538-.182 0-.363 0-.545 0-1.143 3.081-2.381 5.849-3.635 8.724-.516 1.179-1.604 2.296-2.182 3.453-.399.802-.43 1.884-.908 2.727-.65 1.144-1.839 1.934-2.182 2.908-.671 1.91-.168 3.869-.545 5.998 4.14.343 6.643 2.322 9.814 3.635.836-1.083.804-1.955 1.272-3.271-.055.221.031 1.12.184.543zm145.403-35.442c-.129-1.447-1.926-2.754-1.273-3.817-.674-.15-.869-.604-.545-1.636-.215-.088-.412-.193-.545-.363-5.092 2.179-9.473 5.067-15.449 6.361.529 3.104 3.047 4.224 3.635 7.271 1.318 1.883 3.246 3.68 4.18 5.816.994 2.268 2.506 3.575 3.271 5.271.822 1.815.297 3.659.91 5.635.645 2.073 3.432 4.432 5.635 4.725 2.199.293 4.471-.608 6.361-1.817.029.272-.066.671.182.728.201-.571.084-.48-.182-.909 1.951-1.361 4.236-3.981 5.998-4.362.561-.445-.395.328-.365-.182.205-.461.895-.438.91-1.09-1.625-.937-3.264-2.24-3.637-3.453-.088.838-1.709-1.184-1.998-1.818-.166-.361-.783-1.242-1.092-1.817-.65-1.22-.629-2.812-1.271-3.271.062-.795.533-1.481-.182-1.272.184.002.229.318 0 .363-.135-.573-.578-1.802 0-1.999-.521-1.236-2.814-2.433-2-3.817-1.254-.339-1.07-3.295-1.635-2.726-.133-.496.361-.366.363-.728-1.206 0-.503-1.193-1.271-1.093zm-137.043 100.692c.438-.35.722-.854 1.091-1.272 1.107-2.597 2.282-6.8 3.635-9.27.19-1.87.738-3.381 1.454-4.726.371-3.087 1.923-6.22 2.908-8.905.444-1.212.475-3.015 1.636-3.454-.181-.675-.388-.475-.182-1.271 2.699-3.791-.607-8.255-.727-11.996 0 .101-.147.206-.183 0-.25-2.389-1.663-6.774-.727-7.634-.968-.246-.77-2.442-.182-2.362-.242-.183-.549-.3-.727-.546-.595-4.965-.539-12.146-.183-17.267.246-.441.363-.113.546-.363-.158-2.038-.074-4.491 1.09-5.816-.8-.34.714-1.59.182-2.726 1.897-3.479 3.118-7.901 3.999-11.996.699-3.256-.146-7.452 0-10.905-1.907-.552-1.904 2.32-3.271 2.908-1.247 3.903-4.199 6.1-5.452 9.996-.317-.014-.565.041-.728.182-2.567 5.551-5.832 10.405-8.725 15.631-.763 3.963-3.502 5.949-3.998 10.179 1.653 1.865 3.149 4.427 3.635 6.906-1.803 5.339-6.671 9.163-8.36 13.45.314.709 1.189.787 1.999.545 1.808.619 2.303 3.767 1.272 5.634 1.528 1.684 1.868 3.599.908 5.816 1.598 1.385 1.439 4.364.183 5.998 1.781 1.465 1.077 4.062.181 5.998 1.659 1.438 2.192 3.948 1.273 6.18-.301.729-.947.94-1.091 1.636-.464 2.244.369 4.555-1.636 5.635 2.951 1.31 3.037 5.992 1.272 8.542 1.488 1.251 1.144 4.78.545 7.089 1.18 2.772-.151 5.189-1.454 6.906.408.318.056 1.398.727 1.454 2.754-6.364 6.664-12.686 9.09-20.176zm116.504-89.787c-1.1-.162-.24-3.449-.727-3.635.396-.115.578.516.545-.182-1.287-1.057-.381-3.423-.545-4.907-2.219.532-4.734 2.275-7.453 2.908-2.891-1.194-5.543-.321-7.996.545-4.678 1.652-9.521 3.28-14.178 3.817-3.271.377-7.422-.844-11.268.363-2.498.848-5.762 2.084-8.725 1.999-1.247-.035-2.404-.659-3.816-.727-1.25-.06-2.887.381-3.998.727-3.452 1.074-6.6 1.77-9.997.909-6.386-1.617-11.253-4.642-16.722-8.542-3.321-.118-6.516.486-9.45.362-2.103-.088-3.343-1.661-5.09-2.362-.625-.079-1.019.071-1.454.182-.232-.7.118-1.045-.727-1.272.238 1.347.716 2.634.182 3.817 1.432.812.047 2.566 1.091 3.817-.656.529-.018.684 0 1.453-.393.76-.41 1.894-1.091 2.363-.318.644.121.447.182 1.091-.723.865-1.001 1.532-1.091 2.726-2.367 4.157-3.126 10.979-4.726 15.812.002.51.496-.433.364.364.159.583-.472.376-.546.727.602 1.368-.274 3.703-.363 5.271-.381 6.719.821 14.932 2 20.721.723 3.553 2.321 8.108 4.361 9.996 3.705 3.429 8.812 5.647 15.268 7.271 8.149 3.747 19.008 4.125 29.262 5.089 5.675.533 11.037.625 16.176.363 2.518-.129 5.119-.691 7.453-.546 7.836.492 18.133-2.739 26.172-4.544 1.135-1.305.807-2.481 2.18-3.816-.844-.525 1.621-2.057.365-2.181 1.311-2.001 1.379-3.704 2.543-6.18-.051.608.857.159.365 0-.186.564-.18-.516-.365-.545 1.359-1.55.854-4.946 2.363-7.271-.322-.738-.195-1.97.545-2.181-.48-1.89.1-4.781.729-6.544-.709-.542-.244-1.219-.729-1.817.322-5.655.881-8.381.365-13.812.877-.529-.531-2.032.363-2.545-.479-.434-.797-1.053-.182-1.999-.396.032-.578-.148-.547-.546.064-3.316-.713-7.293-.545-11.996-.777-.586-.197-1.944-.363-2.544-.016.252-.463.191-.363-.182.513.204-.172-1.453.183-1.817zm-126.863 29.99c-.303-.361.016-.231 0-.728-2.466-1.391-5.899-4.232-9.451-3.635-2.715.456-3.819 3.073-5.635 4.726.5 2.06-1.369 4.778-1.272 7.997 2.92-.526 6.306-.52 8.542.909 2.442 1.559 2.616 5.198 4.363 7.451.342-.445.658-.916 1.271-1.09 1.084-4.022 5.968-5.739 5.816-11.087.141-.041.358-.005.363-.183.111-.01.215-.026.182-.182-1.659-.972-1.585-3.736-4.179-4.178zm-4.727 17.993c-1.409-2.432-1.453-6.269-4.18-7.815-5.092-2.887-11.475 2.483-16.357 2.727-1.223 2.623-.369 4.61 0 7.634 2.826.587 4.419 3.233 3.816 6.18.496.017.366-.303.727 0 1.216 3.283 7.132 2.019 9.634 2.181 1.646-1.377 4.782-1.48 5.271-3.816.359-1.722-.746-3.88 1.272-4.908-.364-.778-.839-1.616-.183-2.183zm3.636 3.272c-1.641-1.388-3.468-.218-3.453 2 1.319.055.177 1.508 1.091 1.817 3.087-.192 2.318-2.77 2.362-3.817zm-26.899 5.27c.684 1.335 3.166.961 4.18.183-.14-.9.005-.963 0-2 .125-.359 1.083.114.909-.545-1.193-2.761-5.589-.49-5.089 2.362zm24.172 2.728c.735 1.299 1.825 1.36 3.453 1.09.824-1.057 1.026-3.454-.181-4.181-1.646.475-3.048 1.193-3.272 3.091zm25.628 3.816c3.506 2.188 7.237 4.151 11.086 5.998 7.474 1.752 13.945 4.847 22.356 5.271.227-.827.175-2.157.182-3.635-12.004-1.785-24.621-5.196-31.989-12.723-.709 1.531-1.104 3.378-1.635 5.089zm-47.255-2.181c-.151-1.21-1.242-2.046-2.545-1.636-1.637.515-3.066 4.104-1.999 6.179 2.201.152 4.829-2.257 4.544-4.543zm23.809.909c-.347 1.264-2.875 2.855-.909 4.18.258-1.055 1.805-2.001 2.908-1.09 1.174-1.477.665-3.879-1.999-3.09zm103.235 39.077c.799-8.433-1.967-13.255-3.453-19.447 0 .101-.148.206-.182 0-.902-1.553-1.945-3.965-4.545-5.271-.449.213.441.755-.363.727-3.441-.228-5.213.396-7.814-.182-.199 3.133-.439 6.226-2.727 7.27-6.487.508-19.781 1.399-25.445-.363-1.551-.482-1.569-2.434-1.636-3.453-.087-1.314-.697-2.87 0-4.544-12.995-1.212-24.702-5.187-33.988-11.087-1.843 3.647-2.724 7.147-3.453 11.813-1.934 2.408-1.852 5.756-3.635 8.18-.49 3.483-2.632 6.621-3.817 9.814-.555 1.494-.924 3.18-1.635 4.544-.8 1.531-1.929 2.78-2.545 4.361-.899 2.309-1.684 4.379-2.363 6.726-.584.628-1.118 1.305-1.636 1.999-.031-.271.065-.671-.182-.727-1.6 5.254 2.028 10.862-.363 16.539 2.222 2.625 4.921 4.772 8.179 6.361 1.812-4.374 3.939-8.821 5.271-13.995 1.692-1.518 1.519-4.902 3.271-6.361-.058-.427-.287-.682-.181-1.272 2.646-4.955 4.026-10.978 6.361-15.812.111-.584-.655-.249-.183-.727 1.176-1.612 1.53-5.013 3.09-5.635-1.741 2.803-1.604 7.483-3.453 10.179.144 1.441-.6 1.88-.908 2.726-1.69 4.622-3.372 9.42-5.271 13.813-2.146 4.965-3.796 10.348-5.634 15.268-.243.649-.413 1.62-1.091 1.999 3.402 2.777 9.942 2.417 13.995 4.544 3.054-7.808 5.972-16.018 7.633-23.991 1.209-5.797 1.726-10.653 3.636-15.086.239-2.391.916-5.85 2.362-7.633-.199 3.844-1.634 6.905-1.999 10.904-.351 3.848-1.806 7.087-2.726 11.27-1.663 7.549-3.131 13.576-5.635 19.992-.944 2.419-2.26 4.861-2.363 6.543-.24 3.945 4.05 5.223 6.907 6.181 2.935.983 6.21 1.231 8.36 2.544 2.189.19 7.071-.036 8.36-2.544.548-1.065.854-3.696 1.272-5.816.395-1.992.285-4.23.728-5.998 1.896-7.579 2.771-16.981 4.361-23.265 1.202-.447.622-2.172 1.636-3.09.02-.564-.571-.519-.363-1.272-.071-.436.828.101.546-.545-.773-1.403.42-2.518.182-5.089 1.307-.962.15-2.581 1.272-3.999.126.358 1.014-.045 1.09.363-1.016 3.542-1.085 7.203-1.999 9.815-.374 4.112-1.42 9.119-2.908 12.723.153.453.238.974.182 1.636-1.861 7.778-2.695 16.782-4.361 24.354 3.95-.678 6.833.029 10.723 1.091 1.654-11.161 1.832-20.763 3.453-30.898.313-1.956 1.021-3.921 1.272-5.997.351-2.9.369-5.922.727-8.906.102-.844.452-2.686 1.455-3.09-.646 4.744-.705 9.661-1.091 14.54-.233 2.96-1.166 6-1.636 8.906-.93 5.75-1.128 11.693-1.636 17.267-.272 2.984-.574 6.071-1.636 8.725.439.633.113 1.056.182 2.181 2.02 4.437 10.171 5.229 16.721 5.452 1.385.048 3.277-.026 4.18-.363 1.412-.527 2.145-2.481 3.092-1.999.092-1.139 1.535-2.12 2.361-3.09-.164-.713-.221-1.134.182-1.636-1.404-2.62.16-5.76-.545-8.36-.133-.797.361.146.363-.364-.473-4.34.045-9.775.363-15.631.416-7.619.16-15.649.729-22.355.051-.62-.662-1.549.545-1.817.646.909.658 2.826 0 3.635.658-.174.184.784.545.909-.436 4.818-1.023 9.314.182 13.631-1.363 5.984-.961 13.881-1.271 19.448-.209 3.729-.387 7.087-.184 10.905 2.639-.51 5.916-1.069 8.906-1.272-1.258-6.49-3.314-14.836-3.635-21.629 1.545-.246 1.498 1.876 1.637 2.908.945 7.07 1.934 13.665 3.635 19.63 1.869.715 3.674.251 5.27-.364-.234.241-.238.677.184.728.34-.346.02-.457 0-.909 1.684-.528 3.023-.87 4.906-1.817 2.871-1.443 6.945-2.694 8.361-5.634-.297-2.179-.535-5.596-.727-8.18-1.309-3.607-1.137-9.757-2.182-11.813-.291-4.53-1.656-7.818-1.092-11.451-.941-.436-.668-2.603-.545-3.09-.82-.369-.176-1.652-.182-2.181-.014-1.384-1.715-2.24-.182-2.908.549.118.619.714 1.092.909.775 11.578 3.094 21.821 4.725 34.533 3.162-2.534 6.4-4.989 9.088-7.998-.482-1.596-.824-3.325-1.09-4.725-.318-1.667-1.287-3.423-1.637-4.362-.576-1.546-1.344-3.046-1.816-4.544-.096-.299.213-.61.182-.728-.047-.165-.424-.176-.547-.545-.525-1.6-1.539-4.229-1.816-5.998-.057-.365.086-.909 0-1.271-.33-1.388-1.783-3.698-1.455-5.453-.799.3-.947-1.917 0-2.181 1.211 1.395 1.477 3.733 1.818 5.997 1.48 3.99 2.682 8.388 3.998 11.996.398 1.092.545 2.245.91 3.271 1.092 3.081 2.197 7.637 3.998 9.633.861.135 1.248-.204 2-.182 3.012-7.024.359-12.854-.184-19.629-.043.197-.299.436-.363.182.188-1.442-1.301-3.139-.182-3.817-.414.051-.684-.043-.727-.363-.768-2.938-2.076-6.187-2.182-8.724-3.055-6.22-4.512-12.844-6.725-19.267-.709-.182-1.1-2.362-.908-2.726-.988-.468-1.129-3.354-2.182-4.362-3.785 1.912-9.547 3.686-13.449 3.816 2.363 4.871 1.477 11.233 2.363 17.631.594 4.296 1.635 9.433 2.18 14.722.23 2.23.02 4.493.363 6.725.523 3.382 1.357 8.495.547 11.814-.441 1.805-5.938 2.612-7.998 1.999-3.098-.922-3.256-9.239-3.271-11.996-.002-.342.348.105.363-.182.02-.354-.371-.771-.363-1.271.059-3.325.238-9.308.363-10.906-.471.519-.367-1.075-.363-1.636.502.288.816-.472.363-.545.135.594-.36.275-.362-.003zm-129.044-31.262c1.09-3.699-2.091-2.365-3.816-1.454-.268.642-.474 1.345-.364 2.362 1.497 1.114 2.915.045 4.18-.908zm146.312-1.999c-4.346 1.713-9.953 2.165-14.541 3.635.324.526 1.455 1.815 2.363 2.363 4.469-.95 10.424-1.586 13.631-4.727-.26-.648-.787-1.029-1.453-1.271zm-121.049 1.271c-.306 1-1.585 1.884-.908 3.272 2.271.307 2.195-2.411 4.18-1.817 1.007-2.656-1.223-1.621-3.272-1.455zm59.252 2.545c.258 2.75-1.224 8.821.545 10.36.337.292 3.73 1.013 4.726 1.09 3.419.268 7.318.037 10.724 0 .957-.01 1.847.193 2.727.183 4.566-.058 7.504-.222 7.996-3.453.396-2.6-.695-4.598 0-7.089-1.518-.069-1.936-.069-3.453 0-.184 1.937-.744 3.497-1.271 5.089-1.711 1.287-4.35.634-7.634.727-2.227.063-4.5.446-5.997.364-1.73-.096-5.21-1.166-5.635-2.727-.367-1.345.578-2.611.545-4.362-.747-.339-2.634-.87-3.273-.182zm53.617 39.078c-.229-2.616-.715-5.396-.727-7.997-.018-3.355-1.111-6.402-1.455-9.633-.68-6.385-.631-12.068-1.816-17.085-.947.157-.803-1.056-1.273-1.636-1.031-1.272-2.867-2.087-4.543-2.908-.908.182-1.754.428-2.908.363-.807.712-5.658-.206-7.27.728 1.084.005 1.141 1.04 2.361.909.666 1.129 2 1.486 2.908 2.362 4.434 4.27 7.09 15.01 7.09 21.447 0 8.263-.607 19.834 1.453 28.354 2.584.81 4.715.688 7.088-.364 1.225-4.468-.46-9.416-.908-14.54zm-48.71-38.714c-.242 1.031-.544 2.001-.545 3.272 3.115 3.523 11.727 1.129 16.538 1.636.912-.754.801-3.081.547-3.999-5.216.026-10.371-.706-16.54-.909zm-93.603 4.725c3.051.034 5.461-2.132 3.999-4.544-2.863-.223-6.15 2.065-3.999 4.544zm121.593-.908c-.486-.831 2.414-.055 2.545-.363-1.076-1.711-4.832-.741-5.453-2.908-.748-.144-.932.278-1.635.182-.326.961-.18 1.777-.363 2.545 1.814.47 3.869.61 4.906.544zm-89.241-1.636c-2.514-.637-3.244 2.693-3.09 4.726.834-.076.742-1.075 1.636-1.091.379.651 1.172.889 1.999 1.091.622-1.517.374-3.745-.545-4.726zm-2.908 10.178c1.158.058 1.323-.971 2.363-.545-.023-.75.316-1.139.182-1.999-.845.446-1.618.751-2.363 0 .012.921-.313 1.505-.182 2.544zm-.181 9.997c1.052-.094 1.25-1.617 2.545-.909 2.442-2.032.277-5.15-1.454-6.543-2.443.809-1.683 5.013-1.091 7.452zm3.453 2.544c-2.11-1.983-3.927 2.62-2.726 4.726 1.001-.21 2.006-.417 2.726-.908.06-1.782.18-1.996 0-3.818zm7.452.728c.523-.039 1.035-1.132.364-1.272.029.574-.483.607-.364 1.272zm-1.636 3.998c.12-.849.655-1.283.909-1.999-.504.349-1.212 1.446-.909 1.999zm-8.906 3.09c-.374.958-.905 1.759-.908 3.089.204.038.283.202.363.364 2.259-.356 4.272-2.239 3.271-4.727-1.348.026-1.043 2.12-2.726 1.274zm-.727 6.179c-1.283 1.234-.713 4.612.545 5.453.425-.969 1.009-1.778 2-2.181.063-2.152.473-4.654-2.545-3.272zm2.908 16.177c1.904-1.444 1.408-8.523-.727-8.543-2.448-.022-2.19 5.17-2.182 8.179.342.324.842.492 1.091.909.545-.392 1.296-.149 1.818-.545zm1.273 10.723c2.029-1.779.567-4.115-.183-6.36-6.18-2.785-4.727 8.177.183 6.36zm37.623 36.714c.238-2.123 1.144-4.424 1.271-6.906.745.001.249-1.031.364-1.818.14-.956.841-1.854.545-2.726.979-3.927 1.609-7.275 2.544-11.451-3.646-.341-7.132-1.633-10.359-2.907-3.207-.888-6.829-1.113-8.179-3.636-1.211-2.262-.51-6.394-4.544-5.634.776 13.594 1.988 26.925 2.726 38.713.079 1.254.458 2.722-.181 3.999.73.836.884 4.14.363 5.452.729.643-.05 3.136.727 4.181-.183.001-.216-.147-.363-.182.871 5.142.848 10.414 1.454 15.448 2.24-.77 5.662-1.981 9.088-1.816.035-.632.643-.69.727-1.272-1.386-3.694.976-10.218.728-15.086.169-.193.67-.057.545-.545-.017-.286-.464-.143-.363-.546.726-4.721 2.076-7.598 2.362-11.632.455.03.569-.279.728-.545-.396-.116-.579.515-.546-.183.234.278 1.089-1.881.363-.908zm-40.713-33.624c-.271 3.069 1.344 4.048 4.18 4.361 3.281-2.44-1.354-7.625-4.18-4.361zm.182 7.816c1.233.704 1.93 1.947 3.453 2.362 1.588-1.448.062-4.185-1.636-4.544-.494.839-2.184.481-1.817 2.182zm23.991 77.063c4.503-.414 10.136-1.247 13.813-3.09 1.802-4.136-1.147-9.559-.909-13.632-.352.222-.375-1.436-.727-1.817-4.022-.786-6.424 1.39-9.815 1.817-2.187 2.216-5.273 2.86-8.542 4.362-1.919.882-3.894 1.627-5.452 2.362-1.443.681-2.707 1.797-3.999 2-1.572.246-2.104-.935-3.09-1.091-.505-.585-.604-1.577-1.272-1.999.599 4.283.624 8.308 2.182 11.813 2.894.282 5.695.267 8.36 0 3.209-.321 7.768-1.169 9.451-.182.071-.31-.27-.464 0-.543zm91.603-7.27c2.406 1.29 3.193 4.197 5.453 5.635.352-.688-.025-.984.182-1.818 1.262-.016-.162-2.242 1.09-2.726-.025-1.823 5.146-3.751 3.816-6.361-1.631-.294-4.639-2.156-4.906-3.272-.561.862-1.541-.836-2.363-.908-.248.632-.748.323-1.09.545-.951-1.697-4.174-.477-5.635 0-.156 1.648 1.154 4.2.545 4.544.907.824 2.672 2.89 2.908 4.361zm23.083 3.816c-.684-2.979-.684-5.947-4.18-6.906-1.439-1.833-2.475-4.068-4.18-5.634-1.863 2.481-1.928 5.567-4 7.633-1.746 1.742-4.369 3.328-3.453 7.089-.121.544-.363.969-.727 1.272 1.15.672 2.572 1.475 4.18 1.635 3.922.394 8.992.466 11.633-1.09.645-1.507.672-2.514.363-4.362.01-.11.027-.215.182-.182-.057.223.029 1.123.182.545z" fill="#04101f"/><path d="m139.763 21.468c-.199.993.568 1.925.727 3.09.297.133.791-.361.363-.363.512-.332.145.313 0 .727 1.125 3.674 2.217 5.524 3.09 9.634.17-.134.275-.331.363-.546.389 3.653 1.404 9.124 2.182 15.268-.02.646-.672.66-.545 1.454 2.52 2.811 5.871 4.792 8.725 7.271h.908c-.156.579.285.562.363.908 5.51 4.403 13.121 5.593 17.084 11.45.178-.005.143-.223.182-.363 1.234 2.904 3.676 8.286 5.816 10.905-.062.285-.318-.159-.363.182 1.508 2.712 2.217 5.99 4 8.179-.199-.045-.125-.361-.363-.363 1.711 3.338 2.641 7.277 4.725 10.724 2.014 3.33-2.953 5.4-5.09 6.725-.607.378-.516.516-1.453.728-1.215.273-1.348 1.375-2.908 1.454-.398.026-.391.457-.363.908-.941-.861-2.102.501-2.363 1.454-.641-.021-.049-.265-.363-.727-1.762.311-1.83 1.134-3.453.908-.1.724.643-.195.545.727-1.072-.673-3.871-.231-3.271 1.273-.719-.064-.809-.545-.363-.909-3.621.724-6.23 3.596-9.633 4.181-3.451.593-7.676-.979-10.725 1.817-4.346.938-9.686 3.306-15.447 2.908-1.914-.132-3.742-.888-5.816.363-.549-.62-4.045.484-4.363.908-2.385.106-4.068 1.253-6.542 1.091-2.396-.157-4.396-1.198-7.089-.363-2.676.83-5.362 1.882-8.179 1.817-3.63-.083-6.544-2.128-9.997-2.907-1.745-1.163-3.164-2.652-5.452-3.272-.582-1.478-2.503-1.617-3.271-2.908-3.927-.538-8.284.776-11.451-.182-2.602-.786-4.04-3.137-6.543-3.635-6.163-6.377-14.181-10.901-16.357-21.265 6.364-9.631 14.588-17.401 21.266-26.719 2.328-1.597 3.251-4.446 5.452-6.18 1.573-1.238 3.665-2.382 5.453-3.453 3.081-1.847 6.498-3.285 9.451-5.271.287.015.692-.088.727.182.592-.438 1.086-.975 1.817-1.272 1.657-4.612 2.909-9.454 3.817-14.177 3.297-7.904 4.238-17.375 7.451-25.082 3.881-2.656 7.798-6.24 12.905-6.906 3.646-.477 7.503 1.048 11.087 1.999 2.844 2.191 7.076 3.322 8.904 6.725 1.1 2.043 1.342 5.19 2.729 6.906-.57.209.75 4.655 1.631 3.997zm-32.897 41.076c3.062 6.264 8.991 5.535 14.177 8.361.605 0 .621-.592 1.271-.546 4.434.155 7.424-2.606 10.725-4.181 2.877-4.089 4.645-9.289 5.998-14.903 1.945-2.14 1.775-7.23 1.453-10.724-2.172-1.166-4.086-3.538-6.543-3.816-.594-1.467-2.252-1.436-3.453-2.363-2.201-1.698-3.918-5.112-6.906-5.089.033-.396-.148-.578-.547-.545-.381.162-.807.282-1.09.545-2.293-.767-5.539.632-7.996.909-.445.241.2.676-.182.727-.075-.229-.234-.371-.546-.363-3.201 1.496-6.656 2.494-8.179 5.635-.245-.058-.347-.26-.727-.183-1.685 1.291-2.663 4.205-3.454 6.544-.279.827-.954 1.383-.908 2.181.035.607.62.507-.182.182-.642 2.107-1.116 4.046-.909 5.816 3.005 3.569 4.474 8.422 7.998 11.813.044-.197.3-.437.364-.182-.04.142-.152.213-.364.182z" fill="#2c3e50"/><path d="m107.23 62.363c-.064-.255-.32-.016-.364.182-3.523-3.392-4.993-8.244-7.997-11.813-.207-1.771.268-3.709.909-5.816.802.325.217.426.182-.182-.046-.798.629-1.354.908-2.181.791-2.339 1.77-5.253 3.454-6.544.38-.077.481.125.727.183 1.522-3.141 4.978-4.139 8.179-5.635.312-.008.471.135.546.363.382-.051-.264-.485.182-.727 2.457-.277 5.703-1.676 7.996-.909.283-.263.709-.383 1.09-.545.398-.033.58.148.547.545 2.988-.023 4.705 3.391 6.906 5.089 1.201.928 2.859.896 3.453 2.363 2.457.278 4.371 2.65 6.543 3.816.322 3.493.492 8.584-1.453 10.724-1.354 5.614-3.121 10.814-5.998 14.903-3.301 1.574-6.291 4.336-10.725 4.181-.65-.046-.666.546-1.271.546-5.186-2.826-11.115-2.098-14.177-8.361.211.03.323-.041.363-.182zm32.17-18.357c.088-.573-.559-.412-.363-1.091.312-.071.465.27.545 0-.561-.263-.652-1-.182-.909-.904-.553-2.027-1.848-2.727-1.999-3.207-1.844-8.439-4.639-10.725-7.997-.857.007-2.205-1.064-3.088-1.636-.748.67-1.08.204-1.818.363-2.605.562-6.374 1.229-8.724 1.817-2.672 1.914-6.19 2.88-7.997 5.635-.176.267.062.944-.183 1.271-.148.201-.617.176-.727.364-.607 1.045-.604 2.387-1.636 3.271.071 2.752-1.832 4.373-1.454 6.725.157.98 1.677 3.04 2.545 4.544 1.742 3.019 4.239 6.071 5.452 8.543 1.407 2.242 4.053 3.341 7.089 4.18 1.929.533 4.007 1.995 5.271 2.182 3.607.531 6.539-2.673 9.451-2.727-.051-.414.043-.684.363-.728 2.332-.697 2.764-3.294 3.998-5.089.041.142.152.212.363.182.055-.357-.244-.36-.363-.545 1.873-3.37 2.141-8.479 4.545-12.359.133-.496-.361-.365-.363-.728.449.027.881.034.908-.363-.266-.158-.705-.144-.545-.727.297.132.789-.361.363-.364-.549.505-.424-2.439.002-1.815z"/><path d="m211.919 93.261c.035-.147.182-.182.182-.364-1.105.834-1.49 2.388-2.182 3.636-3.422-1.579-.361-5.463.729-7.452.539-.985.697-2.221 1.271-3.271.365-.669 1.105-1.145 1.453-1.817 1.648-3.185 2.984-6.409 4.182-9.814 2.207-3.175 4.568-7.144 6.543-11.087-.162-.587.592-.256.727-.546 3.91-6.745 9.691-17.007 13.996-24.536 1.02-1.786 3.164-4.804 4.906-5.998 3.152-2.161 9.436-1.83 13.451-1.454 3.41.319 5.062-.119 7.451.545 2.977.828 7.396.56 8.543 3.636-5.82-1.252-11.357-3.783-16.359-2.545-4.127-.446-8.713 1.555-12.359 2.908-3.135 3.104-4.984 7.495-7.996 10.723-2.213 4.149-4.342 8.382-6.906 12.179-.137 1.026-.842 2.333-1.092 2.181-.523 2.931-2.844 3.966-3.09 6.725-1.084 1.339-2.537 3.277-2.727 4.907-.404-.056-.572.924-1.09 1.272.172 2.299-1.047 2.152-1.818 3.998-.17.337 1.041.112.365.364.375.959-.457.05-.365 0-.699.373-1.041 1.843-.908 2.544-.832.146-1.535 1.691-1.453 2.545-.867.854-1.574 2.186-1.455 3.09-1.254.821-1.348 2.424-1.998 3.453.176-.005.141-.222.182-.363.736.076-.535.948-.729 1.272.056 1.63-.868 2.28-1.454 3.269z" fill="#1a1a1a"/><path d="m139.4 45.823c.426.003-.066.496-.363.364-.16.583.279.568.545.727-.027.397-.459.391-.908.363.002.362.496.231.363.728-2.404 3.881-2.672 8.989-4.545 12.359.119.185.418.188.363.545-.211.03-.322-.04-.363-.182-1.234 1.795-1.666 4.392-3.998 5.089-.32.044-.414.313-.363.728-2.912.054-5.844 3.258-9.451 2.727-1.264-.187-3.342-1.648-5.271-2.182-3.036-.839-5.682-1.938-7.089-4.18-1.213-2.472-3.71-5.524-5.452-8.543-.868-1.504-2.388-3.563-2.545-4.544-.378-2.352 1.525-3.973 1.454-6.725 1.031-.885 1.028-2.227 1.636-3.271.109-.188.578-.163.727-.364.244-.327.007-1.005.183-1.271 1.807-2.755 5.325-3.721 7.997-5.635 2.35-.588 6.118-1.255 8.724-1.817.738-.159 1.07.307 1.818-.363.883.571 2.23 1.643 3.088 1.636 2.285 3.358 7.518 6.153 10.725 7.997.699.151 1.822 1.446 2.727 1.999-.471-.091-.379.646.182.909-.08.27-.232-.071-.545 0-.195.679.451.518.363 1.091-.428-.626-.553 2.318-.002 1.815z" fill="#1a1a1a" stroke="#1a1a1a" stroke-miterlimit="10"/><path d="m243.363 83.265c2.08-2.776 3.615-7.646 5.816-10.905.131-.494-.857.13-.727-.364-.057-.742.379-.097.727-.182 1.195-1.198 1.891-2.775 2.727-5.089.293.051.312-.172.545-.182 4.367-10.775 11.125-20.091 15.268-31.626.951-.042 1.182.636 2.18.546-1.014 4.208-4.416 7.282-6.178 10.724-.031.059.271.47.18.727-.225.645-1.354 1.562-1.816 2.545-.244.516-.119 2.026-.727 1.454-1.963 5.43-5.463 10.289-7.088 15.449-.104.41-.285-.221-.547.182-.131.555.186.662.182 1.09-1.057 1.568-1.777 2.249-1.998 3.999-.922 2.09-2.666 4.659-3.09 7.089-1.182 1.028-2.309 3.264-2.545 5.089-.779-.035-.834 1.276-1.453 2.181.043.32.312.414.727.363-.166.402-.334 1.281-.91.728-.088.57.627.48.184.908-.215-.029-.154-.331-.184-.545-.221.632-1.377 1.28-.727 2.182-.449.397-1.068.628-1.09 1.454.488.125.352-.376.545-.546.404.077.143.965 0 1.091-.402-.542-.359.012-.908 0 .623.314.086.532-.363.727.002.361.494.231.363.728-.727.242-.887 1.053-1.455 1.454-.754-.336-1.008-.418-1.998-.728.98-3.031 3.801-5.91 3.453-9.087.387-.085.346.259.363.545.401-.333 1.065-1.35.544-2.001z" fill="#b3b3b3"/><path d="m219.734 112.345c-.322-.339-.525.244-.908.363.184.442.805-.355.727.546-1.18-.594-2.15 1.451-1.816 2.362-.463-.015-.242.848-.91.728-.09.571.396.71 0 1.091.039-.851-1.289.515-.727 1.271-.418-.36-.201.046-.545.182.119.185.418.188.363.546-.861-.069-1.41 2.081-1.453 3.271-.293.051-.314-.172-.545-.182-.396 1.197-.611 2.475-1.092 3.271.008-.012-.109.025-.182.182-.408.896-1.934 1.556-.908 2.181-.057.247-.455.151-.727.182-1.373 2.384-2.643 4.87-4.182 7.089-1.658.502-2.541-.276-4.18.182-.033-.697.148-.066.545-.182-1.357-.227-2.154-1.912-4.361-1.818-4.219-3.369-6.75-7.89-7.635-14.722 4.312-3.928 9.74-6.739 14.723-9.996 1.293-1.309 3.789-1.867 4.727-3.999.398-2.236.359-4.043.545-6.361.262-3.312 2.213-5.911 4.361-7.27.773-.489 4.051.283 5.09.545 3.264.824 6.312 3.122 8.725 4.726-.385.808-.152 2.637.182 2.727-.469.049-1.152 1.507-.729 1.272-.023.57-.771.892-.908 1.999.055-.354-1.537 1.483-1.818 1.999-.033.061.316.384.184.546-1.443 1.731-4.172 1.769-5.635 3.453.014.287-.088.693.182.727-.884 1.027-1.283 1.601-1.093 3.089z" fill="#2c3e50"/><path d="m235.912 93.806c.51-.026.523.445.545.909.34-.145.666-.304 1.09-.363.046 1.104-2.12.517-1.635-.546z" fill="#fff"/><path d="m238.091 94.897c.5-.242.934.729.182 1.091-.248-.113.066-.978-.182-1.091z" fill="#fff"/><path d="m231.667 101.077c1.143-1.31 1.75-4.651 3.453-5.998.744-.017.957.498 1.273.909-1.123 2.409-2.779 5.173-3.453 6.906-.963 1.394-1.34 4.343-2.908 6.18-1.818-.061-2.529-1.227-3.816-1.817.602-1.842 1.521-2.723 2.361-3.999.576.333 1.127.691 2.182.546.551-.544 1.17-1.976.908-2.727z" fill="#1a1a1a"/><path d="m40.344 148.151c-.469 1.316-.437 2.188-1.272 3.271-3.172-1.312-5.675-3.292-9.814-3.635.377-2.129-.126-4.088.545-5.998.343-.975 1.531-1.765 2.182-2.908.479-.843.509-1.925.908-2.727.578-1.157 1.666-2.274 2.182-3.453 1.254-2.875 2.492-5.643 3.635-8.724h.545c3.137-7.951 6.352-15.822 10.724-22.538 3.412 3.737 7.438 6.859 10.724 10.724-5.332 7.14-7.748 14.309-12.723 20.901-1.157 2.499-2.519 5.341-4.181 7.815-.266 2.392-2.577 3.533-2.362 5.816-.777.324-1.188 1.107-.909 1.999-.155.579-.241-.32-.184-.543z" fill="#95a5a6"/><path d="m187.201 114.344c-.002.361-.496.231-.363.728.564-.569.381 2.387 1.635 2.726-.814 1.385 1.479 2.581 2 3.817-.578.197-.135 1.426 0 1.999.229-.045.184-.361 0-.363.715-.209.244.478.182 1.272.643.46.621 2.052 1.271 3.271.309.575.926 1.456 1.092 1.817.289.635 1.91 2.656 1.998 1.818.373 1.213 2.012 2.517 3.637 3.453-.016.651-.705.629-.91 1.09-.029.51.926-.264.365.182-1.762.381-4.047 3.001-5.998 4.362.266.429.383.338.182.909-.248-.057-.152-.455-.182-.728-1.891 1.209-4.162 2.11-6.361 1.817-2.203-.293-4.99-2.651-5.635-4.725-.613-1.976-.088-3.819-.91-5.635-.766-1.695-2.277-3.003-3.271-5.271-.934-2.137-2.861-3.934-4.18-5.816-.588-3.047-3.105-4.166-3.635-7.271 5.977-1.294 10.357-4.183 15.449-6.361.133.17.33.275.545.363-.324 1.032-.129 1.485.545 1.636-.652 1.063 1.145 2.37 1.273 3.817.767-.097.064 1.096 1.271 1.093z" fill="#95a5a6"/><path d="m165.208 125.977c-.1.373.348.434.363.182.166.6-.414 1.958.363 2.544-.168 4.703.609 8.68.545 11.996-.031.397.15.578.547.546-.615.946-.297 1.565.182 1.999-.895.513.514 2.016-.363 2.545.516 5.432-.043 8.157-.365 13.812.484.599.02 1.275.729 1.817-.629 1.763-1.209 4.654-.729 6.544-.74.211-.867 1.442-.545 2.181-1.51 2.324-1.004 5.721-2.363 7.271.186.029.18 1.109.365.545.492.159-.416.608-.365 0-1.164 2.476-1.232 4.179-2.543 6.18 1.256.124-1.209 1.655-.365 2.181-1.373 1.335-1.045 2.512-2.18 3.816-8.039 1.805-18.336 5.036-26.172 4.544-2.334-.146-4.936.417-7.453.546-5.139.262-10.501.17-16.176-.363-10.254-.964-21.112-1.342-29.262-5.089-6.456-1.623-11.562-3.842-15.268-7.271-2.04-1.888-3.639-6.443-4.361-9.996-1.179-5.789-2.381-14.002-2-20.721.089-1.567.965-3.902.363-5.271.074-.351.705-.144.546-.727.132-.797-.362.146-.364-.364 1.6-4.833 2.358-11.655 4.726-15.812.09-1.193.368-1.86 1.091-2.726-.061-.644-.5-.447-.182-1.091.681-.47.698-1.604 1.091-2.363-.018-.77-.656-.924 0-1.453-1.044-1.251.341-3.006-1.091-3.817.534-1.184.057-2.471-.182-3.817.845.228.494.572.727 1.272.436-.11.829-.261 1.454-.182 1.747.701 2.987 2.274 5.09 2.362 2.935.124 6.129-.48 9.45-.362 5.469 3.9 10.336 6.925 16.722 8.542 3.397.86 6.545.165 9.997-.909 1.111-.346 2.748-.786 3.998-.727 1.412.067 2.569.691 3.816.727 2.963.085 6.227-1.151 8.725-1.999 3.846-1.207 7.996.014 11.268-.363 4.656-.537 9.5-2.165 14.178-3.817 2.453-.866 5.105-1.739 7.996-.545 2.719-.633 5.234-2.376 7.453-2.908.164 1.484-.742 3.851.545 4.907.033.697-.148.066-.545.182.486.186-.373 3.473.727 3.635-.356.363.329 2.02-.183 1.817z" fill="#95a5a6"/><path d="m42.707 158.329c.033.155-.07.172-.182.182-.005.178-.223.142-.363.183.151 5.348-4.732 7.064-5.816 11.087-.613.174-.93.645-1.271 1.09-1.747-2.253-1.921-5.893-4.363-7.451-2.236-1.429-5.622-1.436-8.542-.909-.097-3.219 1.772-5.938 1.272-7.997 1.815-1.652 2.92-4.27 5.635-4.726 3.552-.598 6.985 2.244 9.451 3.635.016.496-.303.366 0 .728 2.593.44 2.519 3.204 4.179 4.178z" fill="#2c3e50"/><path d="m150.123 249.206c-2.373 1.052-4.504 1.174-7.088.364-2.061-8.52-1.453-20.091-1.453-28.354 0-6.438-2.656-17.178-7.09-21.447-.908-.876-2.242-1.233-2.908-2.362-1.221.131-1.277-.904-2.361-.909 1.611-.934 6.463-.016 7.27-.728 1.154.064 2-.182 2.908-.363 1.676.821 3.512 1.636 4.543 2.908.471.58.326 1.793 1.273 1.636 1.186 5.017 1.137 10.7 1.816 17.085.344 3.23 1.438 6.277 1.455 9.633.012 2.601.498 5.381.727 7.997.447 5.124 2.132 10.072.908 14.54z" fill="#2c3e50" stroke="#2c3e50" stroke-miterlimit="10"/><path d="m123.587 199.224c.184-.768.037-1.584.363-2.545.703.097.887-.325 1.635-.182.621 2.167 4.377 1.197 5.453 2.908-.131.309-3.031-.468-2.545.363-1.036.067-3.091-.073-4.906-.544z" fill="#2c3e50"/><path d="m46.342 223.579c-.254.716-.789 1.15-.909 1.999-.303-.553.405-1.65.909-1.999z" fill="#fff"/><path d="m77.24 299.37c-.033.697.149.066.546.183-.158.266-.272.575-.728.545-.286 4.034-1.637 6.911-2.362 11.632-.101.403.347.26.363.546.125.488-.376.352-.545.545.248 4.868-2.113 11.392-.728 15.086-.084.582-.691.641-.727 1.272-3.426-.165-6.848 1.047-9.088 1.816-.606-5.034-.583-10.307-1.454-15.448.147.034.181.183.363.182-.776-1.045.002-3.538-.727-4.181.521-1.312.367-4.616-.363-5.452.639-1.277.26-2.745.181-3.999-.737-11.788-1.949-25.119-2.726-38.713 4.034-.76 3.333 3.372 4.544 5.634 1.35 2.522 4.972 2.748 8.179 3.636 3.228 1.274 6.714 2.566 10.359 2.907-.935 4.176-1.564 7.524-2.544 11.451.296.872-.405 1.77-.545 2.726-.115.787.381 1.819-.364 1.818-.128 2.482-1.033 4.783-1.271 6.906.727-.974-.128 1.185-.363.908z" fill="#95a5a6"/><path d="m61.064 350.261c-1.684-.987-6.242-.14-9.451.182-2.665.267-5.467.282-8.36 0-1.558-3.506-1.583-7.53-2.182-11.813.669.422.768 1.414 1.272 1.999.985.156 1.518 1.337 3.09 1.091 1.292-.203 2.556-1.319 3.999-2 1.559-.735 3.533-1.48 5.452-2.362 3.269-1.502 6.355-2.146 8.542-4.362 3.392-.428 5.793-2.604 9.815-1.817.352.382.375 2.039.727 1.817-.238 4.073 2.711 9.496.909 13.632-3.678 1.843-9.311 2.676-13.813 3.09-.27.077.071.231 0 .543z" fill="#2c3e50"/><path d="m149.759 338.083c.609-.344-.701-2.896-.545-4.544 1.461-.477 4.684-1.697 5.635 0 .342-.222.842.087 1.09-.545.822.072 1.803 1.771 2.363.908.268 1.116 3.275 2.979 4.906 3.272 1.33 2.61-3.842 4.538-3.816 6.361-1.252.483.172 2.71-1.09 2.726-.207.834.17 1.13-.182 1.818-2.26-1.438-3.047-4.345-5.453-5.635-.236-1.469-2.001-3.535-2.908-4.361z" fill="#2c3e50"/><path d="m175.568 345.717c-.154-.033-.172.071-.182.182.309 1.849.281 2.855-.363 4.362-2.641 1.556-7.711 1.483-11.633 1.09-1.607-.16-3.029-.963-4.18-1.635.363-.304.605-.729.727-1.272-.916-3.761 1.707-5.347 3.453-7.089 2.072-2.065 2.137-5.151 4-7.633 1.705 1.565 2.74 3.801 4.18 5.634 3.496.959 3.496 3.928 4.18 6.906-.153.578-.239-.322-.182-.545z" fill="#2c3e50"/></g></svg>