<svg enable-background="new 37.248 228.193 1189 852" height="852" viewBox="37.248 228.193 1189 852" width="1189" xmlns="http://www.w3.org/2000/svg"><g clip-rule="evenodd" fill="#e2eff8" fill-rule="evenodd"><path d="m1194.484 499.5c11.496 7.32 18.637 18.96 15.669 40.754-11.969 10.669-19.493 6.759-37.601 3.123 0-10.426 0-20.89 0-31.334 3.705-7.782 19.829-3.138 21.932-12.543zm0 37.634c6.927-.412 1.329-13.316 3.125-18.826-3.125 0-6.26 0-9.402 0-5.125 5.069-3.778 19.673 6.277 18.826z"/><path d="m580.282 781.525c-3.549-9.163 11-23.463 21.922-28.192-3.559 13.141-9.205 24.197-21.922 28.192z"/><path d="m617.882 383.566c50.373 25.938 107.901 61.216 128.488 106.53-14.183 4.777-6.775-11.998-12.537-15.666-9.649-2.321-6.043 8.617-15.665 6.28-220.212-137.421-465.255-279.047-694.295-425.551-.272 2.385-.511 4.8-.724 7.249-.36 4.139-.681 8.279-.985 12.419 204.834 120.686 409.572 241.454 608.26 368.269-37.213 2.727-66.243-29.837-103.406-37.6-110.736-53.592-203.95-89.413-310.25-144.146-25.822-1.333-44.613-9.695-56.398-25.074-52.309-10.958-97.88-37.144-141.743-57.658-.052 5.665-.095 11.33-.134 16.995 51.738 23.038 103.565 42.663 151.282 68.874 9.577 2.272 11.426-3.19 18.8-3.137 145.8 73.165 295.476 140.41 457.517 203.691.554 8.842 14.898 3.91 12.526 15.668 11.171-1.81 39.067 4.094 40.746 21.945-213.826-67.419-451.427-140.467-682.3-219.723-.156 4.006-.327 8.012-.526 12.016-.038.752-.084 1.503-.124 2.255 32.487 8.991 64.823 18.865 90.676 26.814 81.254 25.002 179.328 63.575 263.245 87.743 123.178 35.498 223.106 69.73 360.374 112.808v15.686c-18.824 8.959-63.052-14.232-87.741-9.4-29.321-16.505-66.924-11.284-94.029-25.092-172.097-29.498-371.842-71.394-538.78-107.444-.211 4.952-.389 9.906-.569 14.859 109.615 21.837 214.397 41.433 323.131 67.533 109.928 14.646 205.62 37.613 300.829 56.424-226.42-11.738-406.161-34.737-625.617-50.712-.045 4.474-.087 8.947-.114 13.421 240.884 21.107 522.263 40.868 719.742 62.324-11.186 19.44-32.896 10.225-50.135 12.545-123.749 16.774-297.922 17.613-451.253 12.53-23.815-.756-68.042 8.974-97.143 9.381-40.337.601-81.264-.177-120.663-.728.07 4.495.14 8.99.217 13.486 162.554-2.983 321.903-5.5 468.291-6.473-44.15 12.627-89.301 21.824-134.758 28.212-106.241 14.951-218.695 29.883-332.195 48.164.087 4.544.173 9.087.256 13.631 166.168-26.662 329.463-56.391 488.621-74.339 7.084 7.029-.196 15.736-3.124 21.944 9.141 9.678 22.162 15.445 28.211 28.197-172.851 50.996-347.381 88.173-512.717 127.905-.014 4.446-.036 8.893-.071 13.339 116.812-28.195 229.708-54.78 346.693-87.96h9.405c9.132 17.525-29.374 11.606-31.328 28.191-56.192 15.552-101.451 37.771-156.696 62.707-3.856 3.479-6.433 2.694-6.263-3.175-48.164 25.809-104.82 50.088-163.545 74.393-.173 4.435-.343 8.87-.531 13.304 178.812-71.624 351.079-159.679 536.985-222.42 4.65 3.683 13.995 2.692 12.542 12.524 16.71 4.262 16.932-2.133 34.466 3.141-35.959 41.335-92.485 62.106-128.493 103.423-8.85-2.611-8.109 4.391-15.669 3.108-82.254 56.948-175.378 90.399-263.209 134.757-45.75 23.093-93.861 42.481-137.884 65.794-14.13 7.49-29.122 15.003-44.577 22.045-.174 3.925-.333 7.851-.498 11.776 111.822-54.448 226.652-105.873 336.498-162.315 3.68.526 2.636 5.747 3.123 9.436-116.205 78.609-224.099 164.046-342.117 246.452.305 5.122.978 10.34 2.348 15.168 27.682-25.495 63.854-42.529 89.076-70.491 30.447-14.471 55.073-34.761 78.352-56.404 29.647-15.633 63.172-39.305 78.335-59.531 24.62-14.403 48.396-29.812 72.084-46.999 33.527-24.336 66.977-57.48 103.407-78.318 64.771-37.136 139.568-58.049 206.823-97.165-50.712 72.521-118.11 128.43-172.346 197.414-111.42 78.514-218.121 161.777-330.708 239.105 5.486.998 10.953 2.139 16.442 3.023.608.098 1.217.187 1.825.283 77.712-58.769 157.257-111.605 234.086-173.479 3.054.102 2.44 3.84 3.139 6.278-50.112 61.113-103.914 118.537-157.489 176.185 4.77.348 9.541.666 14.314.96 20.009-23.051 39.627-46.491 58.566-70.611 43.947-29.169 66.365-79.857 109.681-109.674 53.828-85.094 156.612-121.243 225.614-191.162 2.797 1.381 5.613 2.764 6.253 6.266-21.649 54.593-62.5 89.974-81.442 147.3-58.684 80.647-131.644 147.011-196.233 221.747 5.825.109 11.65.223 17.475.343 13.225-10.047 21.793-32.163 34.598-30.927 12.619-27.079 33.083-46.299 53.263-65.823 5.344-1.124 5.923 2.454 6.274 6.265-18.763 30.372-37.343 60.92-55.931 91.459 4.73.149 9.46.311 14.19.49 65.201-134.218 160.647-240.185 261.09-345.785 6.036 35.856-21.279 68.47-37.598 106.568-17.894 41.762-27.262 91.183-40.739 122.192-6.885 15.874-21.179 33.388-31.334 53.266-12.128 23.764-25.426 47.646-39.839 71.568 10.298.818 20.6 1.592 30.909 2.275 19.54-54.445 40.038-108.773 68.486-155.303 42.166-51.814 76.752-111.261 109.663-172.371 3.653-.495 5.574.73 6.271 3.175-17.298 75.912-16.528 147.555-34.476 216.2-3.259 12.497-14.385 22.152-18.806 34.455-9.326 26.084-18.728 51.922-28.162 77.615 4.974.08 9.948.152 14.922.213 2.323-6.052 4.649-12.129 6.982-18.265-.417 6.117-.912 12.226-1.442 18.329 4.882.053 9.765.103 14.647.142 1.836-10.342 3.695-20.677 5.599-30.997 7.517-40.806 20.513-79.496 31.342-112.829 4.069-12.544 2.004-29.237 6.264-40.734 4.058-10.994 14.268-19.701 18.788-31.334 14.628-37.634 23.854-81.072 40.731-119.063 3.65-.525 5.588.688 6.28 3.094 9.839 108.119.639 228.163-15.207 332.275 3.455.018 6.91.039 10.365.061 1.615-10.428 3.229-20.909 4.842-31.469 1.074 10.338 2.029 20.865 2.902 31.521 5.592.041 11.183.093 16.775.151-2.176-44.391-3.529-88.145-.876-131.975 2.012-32.987 13.778-64.151 18.795-97.125 4.914-32.329 7.21-72.788 15.669-109.67v-9.438h9.409c6.063 61.215 29.271 118.376 40.729 184.899 8.571 49.735 3.828 107.299 6.282 162.973.036.83.075 1.66.112 2.49 1.43.06 2.859.104 4.289.166 4.361.189 8.719.429 13.075.686-.589-16.738-1.19-33.524-1.816-50.347 3.6 17.062 7.299 34.024 11.062 50.923 4.593.305 9.185.629 13.775.961-10.398-48.604-19.896-98.107-27.962-149.044-11.614-37.343-16.687-122.369-6.277-169.234-7.858-10.189-14.357-49.338-3.122-62.632 56.076 115.281 98.67 244.006 130.42 383.606 4.429-.242 8.854-.537 13.276-.88-9.211-34.854-17.617-69.507-24.617-103.874 16.854 33.354 33.132 67.285 49.082 101.542 3.888-.422 7.773-.854 11.657-1.303-65.598-138.477-125.983-282.174-157.894-454.326 2.792 1.4 5.592 2.767 6.261 6.287 47.661 57.836 80.86 130.129 122.228 194.28 40.431 81.646 81.251 162.927 124.679 241.6 4.525-.571 9.051-1.135 13.579-1.684-40.841-74.775-79.98-151.249-122.595-224.245v-12.547c56.232 76.68 110.832 154.994 166.69 232.048 5.259-.47 10.521-.906 15.784-1.3-10.629-11.625-21.711-23.2-32.071-36.438-10.345-13.263-14.92-30.02-25.051-43.915-59.533-81.497-117.771-161.074-175.508-247.556-16.874-25.259-34.94-49.15-53.262-78.334 2.283-9.559-5.395-9.182-3.133-18.789-13.56-14.998-34.558-38.028-25.061-65.797 5.612-.41 6.604 3.826 12.535 3.143 6.987 19.096 24.704 27.498 31.325 46.985 16.587 13.722 25.87 34.731 47.008 43.857.941 8.248 4.852 13.164 9.396 18.793 82.231 102.248 169.839 192.532 253.825 288.312 20.498 31.952 46.293 58.602 72.307 85.033 5.861-.141 11.722-.28 17.582-.423-24.152-27.743-49.016-54.769-77.352-78.309-24.669-45.353-65.704-74.281-93.992-115.972-28.104-23.454-57.814-71.478-90.898-100.268v-12.527c-36.403-27.312-65.259-62.174-90.867-100.287 143.624 138.154 295.602 267.955 440.359 405.011 6.758-.297 13.531-.719 20.273-1.393-90.788-83.634-183.332-156.717-269.487-246.945-18.347-5.664-30.008-18.042-37.594-34.457-57.993-38.559-100.01-93.937-150.429-141.024-13.86-12.971-25.771-19.954-40.721-34.477-13.242-12.827-29.778-12.827-31.339-37.579 50.493 41.403 111.451 72.365 156.675 119.046 92.558 59.964 178.429 126.58 266.362 191.155 8.849-2.59 8.122 4.427 15.664 3.146 55.721 51.718 123.528 91.375 183.028 139.321 5.22-2.752 10.833-4.511 16.997-4.459.987.008 1.978.026 2.968.042-212.72-148.526-420.165-302.32-632.293-451.392-2.824-9.182-2.824-9.627 0-18.805 213.053 124.347 435.974 239.479 657.771 371.541.185-5.87.444-11.739.748-17.6-64.003-38.923-140.421-67.361-197.857-115.779-16.269.552-25.778-5.578-28.219-18.805-2.797 2.402-7.081 3.362-12.537 3.139-127.075-66.9-245.611-139.315-369.784-206.827-13.062-7.101-39.312-8.981-40.725-31.335 94.247 32.818 203.3 82.759 291.429 122.191 6.711-24.982-38.004-24.264-50.146-40.715-39.997-10.145-77.303-23.009-106.534-43.865h-18.799c-32.387-20.518-76.688-36.389-106.54-50.156-4.969-12.262 8.124-6.49 9.389-12.544 197.408 60.104 445.84 125.624 647.731 198.58.482-4.834.955-9.669 1.42-14.504-152.715-50.458-295.727-95.663-464.261-140.183v-9.404c165.681 25.881 316.19 46.664 470.24 75.385.175-2.885.341-5.77.499-8.654-220.23-47.179-444.794-63.104-639.964-113.729 27.326-17.568 73.858-2.58 115.953-15.657 168.024 20.252 347.051 29.993 525.941 43.056.012-3.394.024-6.787.034-10.18-33.352-2.822-65.828-6.637-96.669-10.961-31.042-4.368-65.827-.954-100.28-3.136-61.858-3.906-127.972-8.486-200.546-21.947 8.552-8.57 34.013-10.362 53.277-3.124 113.741-15.107 231.278-23.051 344.413-28.544.012-3.755.026-7.51.04-11.265-158.972 12.985-326.369 18.51-472.939 30.404-54.159 4.4-106.196 11.704-153.552 3.12 6.106-17.898 31.016-17.015 47.014-25.066 11.471 8.226 27.656 14.504 43.854 9.4 54.788 26.332 78.694-9.198 112.828-28.193 8.217-30.155-16.46-27.408-12.55-53.264-29.931-18.362-71.089-56.833-106.534-40.737-1.027 10.409 15.399 3.395 9.414 18.791-8.777 6.482-15.969-9.546-28.213-9.389 6.227-49.136 59.048-51.681 78.338-87.744 31.622-14.348 56.611-35.308 75.209-62.667 132.117-71.454 267.867-139.282 392.867-217.864-.612-3.785-1.234-7.569-1.863-11.352-97.008 52.278-186.518 112.077-287.597 160.283 3.7-15.872 20.763-19.32 31.334-28.227 48.841-41.165 93.794-88.783 150.427-122.199 12.205-19.115 38.795-23.893 47.004-47.001 3.414-1.708 6.711-3.631 9.924-5.719-6.005-.184-12.011-.531-18.016-.991-35.362 27.899-72.188 54.332-101.597 88.188-47.906 30.428-88.824 67.858-128.481 106.532h-12.521c-70.715 69.139-171.431 116.221-263.244 172.338 21.964-44.238 63.979-83.288 94.025-128.465-27.832-8.547-26.688 37.722-53.278 40.722-30.06 54.632-65.881 119.997-128.48 131.64 30.785-96.652 118.06-136.825 181.759-200.573 9.492-.098 3.031 15.773 12.529 15.671 41.295-48.538 86.186-93.457 131.607-137.866 48.217-31.883 93.134-67.053 136.818-103.453-6.856-.763-13.716-1.502-20.576-2.214-37.311 33.828-74.596 67.514-116.242 96.246-4.534-9.866 10.347-27.172 25.082-28.198 6.966-21.605 25.479-47.137 40.734-50.124 4.341-7.25 8.794-14.386 13.338-21.432-6.212-.524-12.427-1.006-18.645-1.454-33.678 42.336-68.549 83.718-104.38 120.017-13.748 39.523-57.049 66.183-81.463 84.613-46.526 34.953-87.146 75.812-134.755 109.671 24.295-67.615 69.411-114.433 90.88-184.883 35.25-43.006 68.09-88.421 102.061-132.703-4.546.037-9.093.083-13.639.142-.224.321-.452.638-.676.959-.09-.317-.165-.633-.245-.949-7.366.098-14.732.229-22.098.381-44.818 81.623-97.75 155.149-153.161 226.191-2.771 2.422-7.07 3.342-12.521 3.138-12.242 25.345-27.082 48.13-50.135 62.668 26.23-106.389 62.247-200.017 103.195-288.125-9.175.398-18.349.805-27.522 1.214-29.516 86.217-64.581 167.232-113.269 236.777-1.526 13.089-7.219 22.037-12.544 31.336-11.761-50.981 5.998-128.515 0-178.625 13.054-28.616 22.756-56.23 31.139-85.41-5.105.2-10.21.393-15.315.581-4.222 13.773-8.449 27.433-12.683 40.935-.928-12.447.086-26.836.366-40.494-5.396.188-10.793.365-16.189.536-4.543 125.097-8.957 250.563-9.243 400.341-15.336-125.775-3.509-259.894 1.317-400.095-4.631.138-9.262.268-13.894.392-.418 13.381-5.973 25.251-6.241 39.32-.738 40.943 8.419 83.373 6.282 122.23-.527 9.408-8.243 18.313-9.41 28.196-11.169 95.233 18.575 204.868 0 303.958-12.126-47.891-4.539-97.925-3.131-144.131 3.255-107.382-8.789-218.555-3.143-329.027.344-6.718.651-13.454.973-20.183-7.648.176-15.297.328-22.946.454-.44 63.509-3.179 146.771.036 239.073.674 19.146 10.35 40.994-6.263 56.404-9.566-99.245-11.519-195.415-18.999-295.163-12.581.104-25.164.126-37.75.053-6.49 71.444-13.874 144.333-15.333 219.897 16.827 17.68 11.342 57.635 28.219 75.212 21.872-26.504 2.195-78.798 25.062-100.268 4.277 81.391 18.781 162.201 12.539 247.555-32.793-23.143-28.18-101.72-53.268-141.008-7.211-73.213-41.789-119.09-43.871-197.426-4.585-33.955-8.885-69.127-12.967-105.084-3.95-.129-7.899-.271-11.85-.424.944 7.998 1.888 15.996 2.87 24.015-4.94-7.19-8.803-15.458-12.01-24.382-3.795-.165-7.59-.299-11.385-.45 26.564 105.921 47.533 215.909 54.737 335.087-28.794-52.682-39.708-123.241-68.944-175.496-16.485-55.324-34.735-108.886-53.783-161.651-5.498-.12-10.996-.237-16.495-.339 31.222 82.766 61.86 166.116 89.099 252.871-12.961-4.795-12.364-23.158-25.077-28.211-37.837-75.309-75.749-150.548-114.062-225.387-5.646-.062-11.292-.115-16.938-.168 58.83 110.498 116.701 212.233 171.734 319.59 16.563 32.308 40.089 54.921 37.61 94.005-94.638-136.985-188.614-274.609-280.665-414.151-5.407-.039-10.814-.081-16.221-.123 91.946 136.729 183.565 272.578 278.079 417.381-121.727-135.916-237.984-277.296-354.681-418.242-5.412-.086-10.824-.168-16.235-.271 39.655 49.05 78.908 98.503 123.351 142.765 6.804 23.503 29.657 30.927 37.6 53.266 50.169 56.388 102.929 110.181 147.292 172.357 24.286 27.94 57.94 46.505 65.812 90.881-7.15-.885-11.789.75-12.536 6.279-40.269-11.979-50.697-53.792-87.739-68.949-34.223-62.939-99.893-94.414-137.883-153.546-11.726 3.341-8.941-7.801-18.802-6.266-71.284-81.596-145.137-161.335-221.586-240.042-7.73-.357-15.458-.748-23.185-1.174 49.187 51.181 102.761 97.968 144.488 156.598 51.541 42.495 100.976 94.701 147.28 144.146 24.795 26.488 58.067 47.035 72.087 78.341-115.038-83.493-235.598-174.46-344.714-260.1-49.877-39.13-104.164-80.516-158.689-120.329-3.409.206-6.816.408-10.223.6-3.52.199-7.046.399-10.577.601 139.909 105.875 283.073 208.491 417.658 319.695 33.004 15.021 59.561 36.54 81.458 62.67zm18.797 72.073v-9.406c8.554-2.285 6.314 6.23 12.545 6.279-2.73 9.115-4.692 3.516-12.545 3.127zm131.629 106.528v18.824c-12.995-3.582-12.221 6.589-21.938 6.251-16.008-15.565-.367-36.713 21.938-25.075zm43.863 115.969c12.627 3.326 2.994 18.862-3.143 21.931-14.038-4.761 5.149-10.749 3.143-21.931zm-6.266-156.669c7.28 1.059 14.688 2.01 12.544 12.507-10.511 2.171-11.46-5.24-12.544-12.507zm9.388 31.3c2.279 9.59-5.393 9.251-3.122 18.84-13.4-1.909-25.541-18.093-12.527-28.23 5.75 8.04 7.817 1.879 15.649 9.39zm-12.521 90.899c-15.05 3.938-28.389-5.209-31.339-21.935 22.508-8.004 44.564-6.691 31.339 21.935zm-40.743 28.192c2.327-11.485-7.708-17.411 0-25.074h9.405c-.576 54.188-34.637 86.563-65.812 100.284 15.471-28.393 23.569-64.185 56.407-75.21zm-62.665 15.667c6.659-26.766 34.317-32.547 43.881-56.404 19.151 19.298-14.03 56.06-43.881 56.404zm90.885 15.667c-.044 33.411-25.693 41.164-37.617 62.665-12.639-22.05 12.025-58.199 37.617-62.665zm-15.687-9.39c3.644-13.07-.28-33.721 18.81-31.332 8.052 13.674-.606 33.829-18.81 31.332zm-9.395-75.225c-9.207-3.314-13.157-11.914-18.797-18.777 3.926-8.597 16.936-8.124 28.192-9.389 2.79 6.593 9.551 9.253 9.414 18.779-10.591-1.201-13.364 5.426-18.809 9.387zm-25.079-3.143c1.051 10.65-17.357 17.986-15.66 3.143 7.554 1.29 6.801-5.701 15.66-3.143zm-6.255-21.913c-1.067 16.692-22.051 13.447-31.343 21.913-13.509 9.999-30.488 31.47-50.142 25.087 19.217-33.446 44.1-42.836 81.485-47zm-150.419 9.388c32.728 4.06 57.114-14.068 90.864-3.109-8.961 19.954-29.592 12.319-46.991 3.109-16.909 3.754-26.729 25.021-43.874 18.822 2.544-10.839-5.851-13.221.001-18.822zm-40.727 47.035c-1.298-7.558 5.705-6.829 3.131-15.701-.779-3.381-6.231-2.115-6.272-6.243-11.393 1.124-11.643 13.427-21.948 15.666.547-8.914-10.583-6.129-6.257-18.79 17.591-13.06 50.41-10.155 59.542 9.367-3.365 17.014-18.785 15.666-28.196 15.701zm31.334 12.526c6.98-22.254 32.323-26.178 40.728-47.036 5.968 8.671 35.39-6.142 28.221 15.687-16.564-5.448-32.138 1.466-31.343 21.945-14.678.972-24.638 6.705-37.606 9.404zm9.393 12.53c6.691-14.186 19.518-8.246 31.334-12.53 4.049 19.59 28.614.326 37.6 3.106 4.508 17.035-16.086 8.994-15.669 21.948-23.491-3.415-41.42-6.062-53.265-12.524zm-97.151 112.788c33.698-36.263 83.002-56.967 119.084-90.843 70.552 14.2 66.83-59.287 109.685-62.702 3.852 1.378 6.429 4.028 6.256 9.423-14.071 4.708-12.073 25.528-31.324 25.053-45.383 66.864-132.16 79.866-203.701 119.069zm31.335 94.04c45.133-62.872 104.744-115.829 150.427-169.217 22.5-.511 28.757-17.238 50.144-18.809-35.383 94.159-124.804 134.27-200.571 188.026zm68.938 59.528c-.312-19.407 14.016-42.644 25.089-59.528 19.655-30.086 40.4-68.744 65.799-97.179 15.634-17.456 42.199-23.96 53.285-43.848 3.637-.509 5.555.688 6.254 3.129.964 23.942-12.844 33.148-12.536 56.393-51.539 41.436-94.026 91.92-137.891 141.033zm62.688 68.936c39.834-89.689 55.644-203.404 131.62-256.96-2.537 31.662-8.943 44.751-12.536 78.321-42.769 56.509-70.339 128.167-119.084 178.639zm169.225-178.638c-2.715 10.854-11.802 17.819-15.677 28.226-17.015 45.619-28.224 99.735-46.999 134.744 3.454-78.015 18.309-171.812 56.397-225.621 13.327 6.585 11.697 40.991 6.279 62.651zm-21.936-53.266c-15.851-21.366 4.077-57.587 15.658-72.057 5.051-.889 5.401 2.969 9.402 3.139 11.999 31.305-16.641 47.756-25.06 68.918zm53.265-65.777c14.301 19.129-7.513 49-12.53 68.914-9.276-20.579-6.041-54.954 12.53-68.914zm-15.671 0v-18.809h9.404c.121 9.525 1.82 20.617-9.404 18.809zm9.405 269.468c-12.841-71.421-19.91-164.965 15.657-222.479 32.625 62.463-14.802 145.268-15.657 222.479zm28.205-266.347h12.53c5.944 8.993 3.463 31.269 0 40.746-13.23-3.416-19.122-27.651-12.53-40.746zm12.53 131.623c11.906-25.006-1.387-59.206 9.391-94.022h9.413c25.898 50.588 14.854 135.684 18.798 200.55-24.234-23.804-8.318-87.792-37.602-106.528zm25.065-125.355c7.827-1.269 9.274 19.594 3.143 21.931-11.725 2.575-5.797-19.339-3.143-21.931zm68.952 159.828c-26.163-16.688-33.115-79.717-53.287-112.825.73-18.075-3.321-40.927 6.282-50.146 5.049-.882 5.396 2.971 9.388 3.144 6.906 55.893 22.657 104.839 37.617 159.827zm50.126-288.307c1.808-10.362 28.339-13.927 28.21 0-15.538.34-15.392-3.088-28.21 0zm12.54-28.198c3.425-18.357 30.059-36.756 47.008-21.947-12.438 10.549-30.277 15.703-47.008 21.947zm75.197-47.015c-9.738-12.872-26.42-.207-25.059-25.074-10.32 1.195-6.332 16.66-18.791 15.671-9.381-10.481-1.878-14.578 3.121-25.054 29.329-8.911 36.943 10.747 53.262 18.804.833 10.21-9.739 9.048-12.533 15.653zm106.563-43.878h9.387c2.634 3.633 4.135 8.395 3.127 15.666-11.564 2.203-13.824-4.951-12.514-15.666zm-53.281-18.791c16.256-4.965 42.303 5.137 46.998 21.928-13.634-.614-25.626-6.397-37.601 0-2.923-7.524-12.586-8.293-9.397-21.928zm37.617 28.213c1.809 21.143 31.027 14.914 43.848 25.054-6.433 30.137-40.257 32.886-53.265 56.418-18.221-2.681-29.74-12.05-40.721-21.947-13.521 3.589-22.07 9.184-37.601 3.123v-21.931c41.866-.92 36.374-49.254 87.739-40.717zm-53.272 9.382c-14.706-8.293-36.855-9.111-37.627-31.333 13.789-4.165 45.076 14.25 37.627 31.333zm50.125-147.269c-.605 15.055-14.818 16.523-25.072 21.932-34.823 37.238-79.548 64.58-112.807 103.423-7.559-1.298-6.822 5.721-15.685 3.109-14.844 18.566-32.33 34.506-53.262 47.037 39.425-88.03 119.6-135.31 206.826-175.501zm-175.489 100.267c-1.486 23.585-23.296 26.851-28.196 47.001-11.8 1.522-13.276.904-25.076 6.266 5.911-29.574 28.049-42.989 53.272-53.267zm-65.81 62.673c11.683 5.048 18.331 15.104 21.957 28.229-7.407.956-5.84 10.851-15.677 9.365 4.473-18.313-19.076-20.905-6.28-37.594zm169.224-338.435c-.008 17.784-12.568 50.072-31.333 59.561-24.262 67.688-61.375 139.097-115.934 166.058-5.069-15.152 19.709-42.39 12.517-59.526 43.723-56.54 94.137-106.411 134.75-166.093zm-169.224 112.811c22.644 3.84 13.472-24.135 31.341-25.074-2.118-39.762 40.396-59.063 43.882-103.404 3.627-.494 5.562.682 6.253 3.139-23.483 76.802-33.844 149.335-78.336 206.814-8.841-24.403-4.788-61.508-3.14-81.475zm-3.122 84.616c10.7 1.298 3.975 8.463 15.659 3.142 4.068 28.075-12.344 35.701-12.537 59.526-10.976-14.606-4.786-42.835-3.122-62.668zm0 72.076c12.946-6.355 30.156-34.253 46.996-47.021 3.654-.496 5.578.716 6.267 3.137-12.001 27.686-19.719 59.668-47.001 72.094v25.051c-19.357-6.041-4.034-35.771-6.262-53.261zm-21.941-15.686c9.048 14.605-.035 53.245 3.13 81.475-12.938-22.768-2.43-61.864-3.13-81.475zm-3.122 115.967c-9.66 2.204-6.033 2.204-15.677 0-1.485-13.088 19.147-18.159 15.677 0zm-3.136 15.669c9.645-1.947 22.153 4.012 31.321 3.12 41.227-3.854 61.28-46.593 87.735-59.543 22.604 39.84-76.96 63.154-84.19 114.045-.071 1.623-.199 3.296-.405 5.032.033-1.708.171-3.384.405-5.032 1.884-42.983-41.952-46.597-56.812-20.023-1.836 18.553 3.072 30.359 6.263 43.88-47.939-14.65-12.622-75.801 15.683-81.479zm3.136 59.511c8.422-4.708 15.537-10.719 9.399-21.913 26.855 13.735-5.672 52.823-21.945 25.056-2.771-17.398 4.966-24.271 12.546-31.334 15.64 7.678-17.687 15.731 0 28.191zm-47.02-294.538c9.777 1.708 4.812 18.177 9.421 25.069-13.595 2.101-8.443-14.559-9.421-25.069zm-6.262 150.425c8.957.41 5.723 13.042 6.262 21.913-4.979-4.81-13.901-13.928-6.262-21.913zm9.404 34.441c9.907 5.769 11.144 26.167 6.279 37.615-16.293-23.224-39.223-17.864-25.079 15.667-23.324 28.448-22.19 47.62-12.548 87.741 22.334 27.82 67.077 41.696 87.75 3.16 31.947 2.682 34.63-23.893 50.135-37.618 9.849 29.154-20.692 43.71-25.062 68.951-34.2 21.026-83.372 27.919-122.213 3.123-20.153-26.383-35.739-64.94-28.205-109.688 20.464-25.5 34.994-56.901 68.943-68.951zm-68.944 3.143c11.161-.718 16.394 4.519 15.675 15.663-6.587 5.669-16.534-4.279-15.675-15.663zm43.877-12.528c-12.046-6.759-13.15-24.477-21.938-34.477h18.786c3.568 8.04 16.362 29.149 3.152 34.477zm-21.938-90.88c10.794 6.98 9.227 26.28 15.657 37.6-6.602 2.795-9.249 9.537-18.795 9.416 1.44-15.275-3.288-36.71 3.138-47.016zm-9.405 53.267c.377 23.651 17.41 30.646 18.801 53.278-17.102-15.273-37.523-27.238-43.88-53.278zm-37.594-222.488c17.458 21.198 11.629 65.673 12.515 103.409-14.504-25.721-5.453-65.553-12.515-103.409zm-3.141 231.907c13.157.41 7.729 19.418 21.921 18.791 1.884 13.363-13.21 9.763-18.78 15.681-6.335-6.21-12.587-12.494-18.808-18.804-1.009-11.469 8.429-12.462 15.667-15.668zm-31.343 25.051h15.677c1.431 7.986 6.106 12.7 12.543 15.671-1.708 14.504-22.551 1.586-28.22 0zm12.533 40.74c2.433 16.266-15.708 24.27-28.192 15.681v-15.681c12.456-2.713 15.736-2.713 28.192 0z"/><path d="m1685.418 182.305c-169.649 82.75-323.714 176.583-500.359 248.26 29.476 12.151 76.079-14.573 122.242-31.333 88.21-32.05 196.063-64.617 288.281-94.023 15.007-4.756 26.92-16.606 40.744-21.928 11.427-4.389 29.543-2.121 40.728-6.249 4.095-1.515 8.524-3.209 13.209-5.03-.071-5.369-.187-10.737-.335-16.104-100.839 34.43-192.922 67.901-304.296 102.595 91.276-62.617 197.261-110.531 301.167-160.522-.424-5.222-.879-10.445-1.381-15.666z"/></g></svg>