<?xml version="1.0" encoding="utf-8"?>
<!-- Generator: Adobe Illustrator 15.0.2, SVG Export Plug-In  -->
<!DOCTYPE svg PUBLIC "-//W3C//DTD SVG 1.1//EN" "http://www.w3.org/Graphics/SVG/1.1/DTD/svg11.dtd" [
	<!ENTITY ns_flows "http://ns.adobe.com/Flows/1.0/">
]>
<svg version="1.1"
	 xmlns="http://www.w3.org/2000/svg" xmlns:xlink="http://www.w3.org/1999/xlink" xmlns:a="http://ns.adobe.com/AdobeSVGViewerExtensions/3.0/"
	 x="0px" y="0px" width="1189px" height="852px" viewBox="37.248 228.193 1189 852"
	 overflow="visible" enable-background="new 37.248 228.193 1189 852" xml:space="preserve">
<defs>
</defs>
<path fill-rule="evenodd" clip-rule="evenodd" fill="#E2EFF8" d="M1194.484,499.5c11.496,7.32,18.637,18.96,15.669,40.754
	c-11.969,10.669-19.493,6.759-37.601,3.123c0-10.426,0-20.89,0-31.334C1176.257,504.261,1192.381,508.905,1194.484,499.5z
	 M1194.484,537.134c6.927-0.412,1.329-13.316,3.125-18.826c-3.125,0-6.26,0-9.402,0
	C1183.082,523.377,1184.429,537.981,1194.484,537.134z"/>
<path fill-rule="evenodd" clip-rule="evenodd" fill="#E2EFF8" d="M580.282,781.525c-3.549-9.163,11-23.463,21.922-28.192
	C598.645,766.474,592.999,777.53,580.282,781.525z"/>
<path fill-rule="evenodd" clip-rule="evenodd" fill="#E2EFF8" d="M617.882,383.566c50.373,25.938,107.901,61.216,128.488,106.53
	c-14.183,4.777-6.775-11.998-12.537-15.666c-9.649-2.321-6.043,8.617-15.665,6.28C497.956,343.289,252.913,201.663,23.873,55.159
	c-0.272,2.385-0.511,4.8-0.724,7.249c-0.36,4.139-0.681,8.279-0.985,12.419c204.834,120.686,409.572,241.454,608.26,368.269
	c-37.213,2.727-66.243-29.837-103.406-37.6c-110.736-53.592-203.95-89.413-310.25-144.146c-25.822-1.333-44.613-9.695-56.398-25.074
	c-52.309-10.958-97.88-37.144-141.743-57.658c-0.052,5.665-0.095,11.33-0.134,16.995c51.738,23.038,103.565,42.663,151.282,68.874
	c9.577,2.272,11.426-3.19,18.8-3.137c145.8,73.165,295.476,140.41,457.517,203.691c0.554,8.842,14.898,3.91,12.526,15.668
	c11.171-1.81,39.067,4.094,40.746,21.945c-213.826-67.419-451.427-140.467-682.3-219.723c-0.156,4.006-0.327,8.012-0.526,12.016
	c-0.038,0.752-0.084,1.503-0.124,2.255c32.487,8.991,64.823,18.865,90.676,26.814c81.254,25.002,179.328,63.575,263.245,87.743
	c123.178,35.498,223.106,69.73,360.374,112.808v15.686c-18.824,8.959-63.052-14.232-87.741-9.4
	c-29.321-16.505-66.924-11.284-94.029-25.092c-172.097-29.498-371.842-71.394-538.78-107.444c-0.211,4.952-0.389,9.906-0.569,14.859
	c109.615,21.837,214.397,41.433,323.131,67.533c109.928,14.646,205.62,37.613,300.829,56.424
	c-226.42-11.738-406.161-34.737-625.617-50.712c-0.045,4.474-0.087,8.947-0.114,13.421
	c240.884,21.107,522.263,40.868,719.742,62.324c-11.186,19.44-32.896,10.225-50.135,12.545
	c-123.749,16.774-297.922,17.613-451.253,12.53c-23.815-0.756-68.042,8.974-97.143,9.381c-40.337,0.601-81.264-0.177-120.663-0.728
	c0.07,4.495,0.14,8.99,0.217,13.486c162.554-2.983,321.903-5.5,468.291-6.473c-44.15,12.627-89.301,21.824-134.758,28.212
	c-106.241,14.951-218.695,29.883-332.195,48.164c0.087,4.544,0.173,9.087,0.256,13.631
	c166.168-26.662,329.463-56.391,488.621-74.339c7.084,7.029-0.196,15.736-3.124,21.944c9.141,9.678,22.162,15.445,28.211,28.197
	c-172.851,50.996-347.381,88.173-512.717,127.905c-0.014,4.446-0.036,8.893-0.071,13.339C127.91,781.765,240.806,755.18,357.791,722
	h9.405c9.132,17.525-29.374,11.606-31.328,28.191c-56.192,15.552-101.451,37.771-156.696,62.707
	c-3.856,3.479-6.433,2.694-6.263-3.175c-48.164,25.809-104.82,50.088-163.545,74.393c-0.173,4.435-0.343,8.87-0.531,13.304
	C187.645,825.796,359.912,737.741,545.818,675c4.65,3.683,13.995,2.692,12.542,12.524c16.71,4.262,16.932-2.133,34.466,3.141
	C556.867,732,500.341,752.771,464.333,794.088c-8.85-2.611-8.109,4.391-15.669,3.108c-82.254,56.948-175.378,90.399-263.209,134.757
	c-45.75,23.093-93.861,42.481-137.884,65.794c-14.13,7.49-29.122,15.003-44.577,22.045c-0.174,3.925-0.333,7.851-0.498,11.776
	c111.822-54.448,226.652-105.873,336.498-162.315c3.68,0.526,2.636,5.747,3.123,9.436C225.912,957.298,118.018,1042.735,0,1125.141
	c0.305,5.122,0.978,10.34,2.348,15.168c27.682-25.495,63.854-42.529,89.076-70.491c30.447-14.471,55.073-34.761,78.352-56.404
	c29.647-15.633,63.172-39.305,78.335-59.531c24.62-14.403,48.396-29.812,72.084-46.999c33.527-24.336,66.977-57.48,103.407-78.318
	c64.771-37.136,139.568-58.049,206.823-97.165c-50.712,72.521-118.11,128.43-172.346,197.414
	c-111.42,78.514-218.121,161.777-330.708,239.105c5.486,0.998,10.953,2.139,16.442,3.023c0.608,0.098,1.217,0.187,1.825,0.283
	c77.712-58.769,157.257-111.605,234.086-173.479c3.054,0.102,2.44,3.84,3.139,6.278c-50.112,61.113-103.914,118.537-157.489,176.185
	c4.77,0.348,9.541,0.666,14.314,0.96c20.009-23.051,39.627-46.491,58.566-70.611c43.947-29.169,66.365-79.857,109.681-109.674
	c53.828-85.094,156.612-121.243,225.614-191.162c2.797,1.381,5.613,2.764,6.253,6.266c-21.649,54.593-62.5,89.974-81.442,147.3
	c-58.684,80.647-131.644,147.011-196.233,221.747c5.825,0.109,11.65,0.223,17.475,0.343c13.225-10.047,21.793-32.163,34.598-30.927
	c12.619-27.079,33.083-46.299,53.263-65.823c5.344-1.124,5.923,2.454,6.274,6.265c-18.763,30.372-37.343,60.92-55.931,91.459
	c4.73,0.149,9.46,0.311,14.19,0.49c65.201-134.218,160.647-240.185,261.09-345.785c6.036,35.856-21.279,68.47-37.598,106.568
	c-17.894,41.762-27.262,91.183-40.739,122.192c-6.885,15.874-21.179,33.388-31.334,53.266
	c-12.128,23.764-25.426,47.646-39.839,71.568c10.298,0.818,20.6,1.592,30.909,2.275c19.54-54.445,40.038-108.773,68.486-155.303
	c42.166-51.814,76.752-111.261,109.663-172.371c3.653-0.495,5.574,0.73,6.271,3.175c-17.298,75.912-16.528,147.555-34.476,216.2
	c-3.259,12.497-14.385,22.152-18.806,34.455c-9.326,26.084-18.728,51.922-28.162,77.615c4.974,0.08,9.948,0.152,14.922,0.213
	c2.323-6.052,4.649-12.129,6.982-18.265c-0.417,6.117-0.912,12.226-1.442,18.329c4.882,0.053,9.765,0.103,14.647,0.142
	c1.836-10.342,3.695-20.677,5.599-30.997c7.517-40.806,20.513-79.496,31.342-112.829c4.069-12.544,2.004-29.237,6.264-40.734
	c4.058-10.994,14.268-19.701,18.788-31.334c14.628-37.634,23.854-81.072,40.731-119.063c3.65-0.525,5.588,0.688,6.28,3.094
	c9.839,108.119,0.639,228.163-15.207,332.275c3.455,0.018,6.91,0.039,10.365,0.061c1.615-10.428,3.229-20.909,4.842-31.469
	c1.074,10.338,2.029,20.865,2.902,31.521c5.592,0.041,11.183,0.093,16.775,0.151c-2.176-44.391-3.529-88.145-0.876-131.975
	c2.012-32.987,13.778-64.151,18.795-97.125c4.914-32.329,7.21-72.788,15.669-109.67v-9.438h9.409
	c6.063,61.215,29.271,118.376,40.729,184.899c8.571,49.735,3.828,107.299,6.282,162.973c0.036,0.83,0.075,1.66,0.112,2.49
	c1.43,0.06,2.859,0.104,4.289,0.166c4.361,0.189,8.719,0.429,13.075,0.686c-0.589-16.738-1.19-33.524-1.816-50.347
	c3.6,17.062,7.299,34.024,11.062,50.923c4.593,0.305,9.185,0.629,13.775,0.961c-10.398-48.604-19.896-98.107-27.962-149.044
	c-11.614-37.343-16.687-122.369-6.277-169.234c-7.858-10.189-14.357-49.338-3.122-62.632
	c56.076,115.281,98.67,244.006,130.42,383.606c4.429-0.242,8.854-0.537,13.276-0.88c-9.211-34.854-17.617-69.507-24.617-103.874
	c16.854,33.354,33.132,67.285,49.082,101.542c3.888-0.422,7.773-0.854,11.657-1.303
	c-65.598-138.477-125.983-282.174-157.894-454.326c2.792,1.4,5.592,2.767,6.261,6.287c47.661,57.836,80.86,130.129,122.228,194.28
	c40.431,81.646,81.251,162.927,124.679,241.6c4.525-0.571,9.051-1.135,13.579-1.684c-40.841-74.775-79.98-151.249-122.595-224.245
	v-12.547c56.232,76.68,110.832,154.994,166.69,232.048c5.259-0.47,10.521-0.906,15.784-1.3
	c-10.629-11.625-21.711-23.2-32.071-36.438c-10.345-13.263-14.92-30.02-25.051-43.915
	c-59.533-81.497-117.771-161.074-175.508-247.556c-16.874-25.259-34.94-49.15-53.262-78.334c2.283-9.559-5.395-9.182-3.133-18.789
	c-13.56-14.998-34.558-38.028-25.061-65.797c5.612-0.41,6.604,3.826,12.535,3.143c6.987,19.096,24.704,27.498,31.325,46.985
	c16.587,13.722,25.87,34.731,47.008,43.857c0.941,8.248,4.852,13.164,9.396,18.793c82.231,102.248,169.839,192.532,253.825,288.312
	c20.498,31.952,46.293,58.602,72.307,85.033c5.861-0.141,11.722-0.28,17.582-0.423c-24.152-27.743-49.016-54.769-77.352-78.309
	c-24.669-45.353-65.704-74.281-93.992-115.972c-28.104-23.454-57.814-71.478-90.898-100.268v-12.527
	c-36.403-27.312-65.259-62.174-90.867-100.287c143.624,138.154,295.602,267.955,440.359,405.011
	c6.758-0.297,13.531-0.719,20.273-1.393c-90.788-83.634-183.332-156.717-269.487-246.945c-18.347-5.664-30.008-18.042-37.594-34.457
	c-57.993-38.559-100.01-93.937-150.429-141.024c-13.86-12.971-25.771-19.954-40.721-34.477
	c-13.242-12.827-29.778-12.827-31.339-37.579c50.493,41.403,111.451,72.365,156.675,119.046
	c92.558,59.964,178.429,126.58,266.362,191.155c8.849-2.59,8.122,4.427,15.664,3.146c55.721,51.718,123.528,91.375,183.028,139.321
	c5.22-2.752,10.833-4.511,16.997-4.459c0.987,0.008,1.978,0.026,2.968,0.042c-212.72-148.526-420.165-302.32-632.293-451.392
	c-2.824-9.182-2.824-9.627,0-18.805c213.053,124.347,435.974,239.479,657.771,371.541c0.185-5.87,0.444-11.739,0.748-17.6
	c-64.003-38.923-140.421-67.361-197.857-115.779c-16.269,0.552-25.778-5.578-28.219-18.805c-2.797,2.402-7.081,3.362-12.537,3.139
	c-127.075-66.9-245.611-139.315-369.784-206.827c-13.062-7.101-39.312-8.981-40.725-31.335
	c94.247,32.818,203.3,82.759,291.429,122.191c6.711-24.982-38.004-24.264-50.146-40.715
	c-39.997-10.145-77.303-23.009-106.534-43.865h-18.799c-32.387-20.518-76.688-36.389-106.54-50.156
	c-4.969-12.262,8.124-6.49,9.389-12.544c197.408,60.104,445.84,125.624,647.731,198.58c0.482-4.834,0.955-9.669,1.42-14.504
	c-152.715-50.458-295.727-95.663-464.261-140.183v-9.404c165.681,25.881,316.19,46.664,470.24,75.385
	c0.175-2.885,0.341-5.77,0.499-8.654c-220.23-47.179-444.794-63.104-639.964-113.729c27.326-17.568,73.858-2.58,115.953-15.657
	c168.024,20.252,347.051,29.993,525.941,43.056c0.012-3.394,0.024-6.787,0.034-10.18c-33.352-2.822-65.828-6.637-96.669-10.961
	c-31.042-4.368-65.827-0.954-100.28-3.136c-61.858-3.906-127.972-8.486-200.546-21.947c8.552-8.57,34.013-10.362,53.277-3.124
	c113.741-15.107,231.278-23.051,344.413-28.544c0.012-3.755,0.026-7.51,0.04-11.265c-158.972,12.985-326.369,18.51-472.939,30.404
	c-54.159,4.4-106.196,11.704-153.552,3.12c6.106-17.898,31.016-17.015,47.014-25.066c11.471,8.226,27.656,14.504,43.854,9.4
	c54.788,26.332,78.694-9.198,112.828-28.193c8.217-30.155-16.46-27.408-12.55-53.264c-29.931-18.362-71.089-56.833-106.534-40.737
	c-1.027,10.409,15.399,3.395,9.414,18.791c-8.777,6.482-15.969-9.546-28.213-9.389c6.227-49.136,59.048-51.681,78.338-87.744
	c31.622-14.348,56.611-35.308,75.209-62.667c132.117-71.454,267.867-139.282,392.867-217.864c-0.612-3.785-1.234-7.569-1.863-11.352
	c-97.008,52.278-186.518,112.077-287.597,160.283c3.7-15.872,20.763-19.32,31.334-28.227
	c48.841-41.165,93.794-88.783,150.427-122.199c12.205-19.115,38.795-23.893,47.004-47.001c3.414-1.708,6.711-3.631,9.924-5.719
	c-6.005-0.184-12.011-0.531-18.016-0.991c-35.362,27.899-72.188,54.332-101.597,88.188
	c-47.906,30.428-88.824,67.858-128.481,106.532h-12.521c-70.715,69.139-171.431,116.221-263.244,172.338
	c21.964-44.238,63.979-83.288,94.025-128.465c-27.832-8.547-26.688,37.722-53.278,40.722
	c-30.06,54.632-65.881,119.997-128.48,131.64c30.785-96.652,118.06-136.825,181.759-200.573c9.492-0.098,3.031,15.773,12.529,15.671
	c41.295-48.538,86.186-93.457,131.607-137.866c48.217-31.883,93.134-67.053,136.818-103.453c-6.856-0.763-13.716-1.502-20.576-2.214
	c-37.311,33.828-74.596,67.514-116.242,96.246c-4.534-9.866,10.347-27.172,25.082-28.198c6.966-21.605,25.479-47.137,40.734-50.124
	c4.341-7.25,8.794-14.386,13.338-21.432c-6.212-0.524-12.427-1.006-18.645-1.454c-33.678,42.336-68.549,83.718-104.38,120.017
	c-13.748,39.523-57.049,66.183-81.463,84.613c-46.526,34.953-87.146,75.812-134.755,109.671
	c24.295-67.615,69.411-114.433,90.88-184.883c35.25-43.006,68.09-88.421,102.061-132.703c-4.546,0.037-9.093,0.083-13.639,0.142
	c-0.224,0.321-0.452,0.638-0.676,0.959c-0.09-0.317-0.165-0.633-0.245-0.949c-7.366,0.098-14.732,0.229-22.098,0.381
	c-44.818,81.623-97.75,155.149-153.161,226.191c-2.771,2.422-7.07,3.342-12.521,3.138c-12.242,25.345-27.082,48.13-50.135,62.668
	c26.23-106.389,62.247-200.017,103.195-288.125c-9.175,0.398-18.349,0.805-27.522,1.214
	C1062.017,92,1026.952,173.015,978.264,242.56c-1.526,13.089-7.219,22.037-12.544,31.336c-11.761-50.981,5.998-128.515,0-178.625
	c13.054-28.616,22.756-56.23,31.139-85.41c-5.105,0.2-10.21,0.393-15.315,0.581c-4.222,13.773-8.449,27.433-12.683,40.935
	c-0.928-12.447,0.086-26.836,0.366-40.494c-5.396,0.188-10.793,0.365-16.189,0.536c-4.543,125.097-8.957,250.563-9.243,400.341
	c-15.336-125.775-3.509-259.894,1.317-400.095c-4.631,0.138-9.262,0.268-13.894,0.392c-0.418,13.381-5.973,25.251-6.241,39.32
	c-0.738,40.943,8.419,83.373,6.282,122.23c-0.527,9.408-8.243,18.313-9.41,28.196c-11.169,95.233,18.575,204.868,0,303.958
	c-12.126-47.891-4.539-97.925-3.131-144.131c3.255-107.382-8.789-218.555-3.143-329.027c0.344-6.718,0.651-13.454,0.973-20.183
	c-7.648,0.176-15.297,0.328-22.946,0.454c-0.44,63.509-3.179,146.771,0.036,239.073c0.674,19.146,10.35,40.994-6.263,56.404
	c-9.566-99.245-11.519-195.415-18.999-295.163c-12.581,0.104-25.164,0.126-37.75,0.053c-6.49,71.444-13.874,144.333-15.333,219.897
	c16.827,17.68,11.342,57.635,28.219,75.212c21.872-26.504,2.195-78.798,25.062-100.268c4.277,81.391,18.781,162.201,12.539,247.555
	c-32.793-23.143-28.18-101.72-53.268-141.008c-7.211-73.213-41.789-119.09-43.871-197.426
	c-4.585-33.955-8.885-69.127-12.967-105.084c-3.95-0.129-7.899-0.271-11.85-0.424c0.944,7.998,1.888,15.996,2.87,24.015
	c-4.94-7.19-8.803-15.458-12.01-24.382c-3.795-0.165-7.59-0.299-11.385-0.45c26.564,105.921,47.533,215.909,54.737,335.087
	c-28.794-52.682-39.708-123.241-68.944-175.496C707.94,115.145,689.69,61.583,670.642,8.818c-5.498-0.12-10.996-0.237-16.495-0.339
	c31.222,82.766,61.86,166.116,89.099,252.871c-12.961-4.795-12.364-23.158-25.077-28.211
	C680.332,157.83,642.42,82.591,604.107,7.752c-5.646-0.062-11.292-0.115-16.938-0.168c58.83,110.498,116.701,212.233,171.734,319.59
	c16.563,32.308,40.089,54.921,37.61,94.005C701.875,284.194,607.899,146.57,515.848,7.028c-5.407-0.039-10.814-0.081-16.221-0.123
	c91.946,136.729,183.565,272.578,278.079,417.381C655.979,288.37,539.722,146.99,423.025,6.044
	c-5.412-0.086-10.824-0.168-16.235-0.271c39.655,49.05,78.908,98.503,123.351,142.765c6.804,23.503,29.657,30.927,37.6,53.266
	c50.169,56.388,102.929,110.181,147.292,172.357c24.286,27.94,57.94,46.505,65.812,90.881c-7.15-0.885-11.789,0.75-12.536,6.279
	c-40.269-11.979-50.697-53.792-87.739-68.949c-34.223-62.939-99.893-94.414-137.883-153.546c-11.726,3.341-8.941-7.801-18.802-6.266
	C452.601,160.964,378.748,81.225,302.299,2.518c-7.73-0.357-15.458-0.748-23.185-1.174
	c49.187,51.181,102.761,97.968,144.488,156.598c51.541,42.495,100.976,94.701,147.28,144.146
	c24.795,26.488,58.067,47.035,72.087,78.341c-115.038-83.493-235.598-174.46-344.714-260.1C248.378,81.199,194.091,39.813,139.566,0
	c-3.409,0.206-6.816,0.408-10.223,0.6c-3.52,0.199-7.046,0.399-10.577,0.601c139.909,105.875,283.073,208.491,417.658,319.695
	C569.428,335.917,595.985,357.436,617.882,383.566z M636.679,455.639v-9.406c8.554-2.285,6.314,6.23,12.545,6.279
	C646.494,461.627,644.532,456.028,636.679,455.639z M768.308,562.167v18.824c-12.995-3.582-12.221,6.589-21.938,6.251
	C730.362,571.677,746.003,550.529,768.308,562.167z M812.171,678.136c12.627,3.326,2.994,18.862-3.143,21.931
	C794.99,695.306,814.177,689.318,812.171,678.136z M805.905,521.467c7.28,1.059,14.688,2.01,12.544,12.507
	C807.938,536.145,806.989,528.734,805.905,521.467z M815.293,552.767c2.279,9.59-5.393,9.251-3.122,18.84
	c-13.4-1.909-25.541-18.093-12.527-28.23C805.394,551.417,807.461,545.256,815.293,552.767z M802.772,643.666
	c-15.05,3.938-28.389-5.209-31.339-21.935C793.941,613.727,815.997,615.04,802.772,643.666z M762.029,671.858
	c2.327-11.485-7.708-17.411,0-25.074h9.405c-0.576,54.188-34.637,86.563-65.812,100.284
	C721.093,718.675,729.191,682.883,762.029,671.858z M699.364,687.525c6.659-26.766,34.317-32.547,43.881-56.404
	C762.396,650.419,729.215,687.181,699.364,687.525z M790.249,703.192c-0.044,33.411-25.693,41.164-37.617,62.665
	C739.993,743.807,764.657,707.658,790.249,703.192z M774.562,693.802c3.644-13.07-0.28-33.721,18.81-31.332
	C801.424,676.144,792.766,696.299,774.562,693.802z M765.167,618.577c-9.207-3.314-13.157-11.914-18.797-18.777
	c3.926-8.597,16.936-8.124,28.192-9.389c2.79,6.593,9.551,9.253,9.414,18.779C773.385,607.989,770.612,614.616,765.167,618.577z
	 M740.088,615.434c1.051,10.65-17.357,17.986-15.66,3.143C731.982,619.867,731.229,612.876,740.088,615.434z M733.833,593.521
	c-1.067,16.692-22.051,13.447-31.343,21.913c-13.509,9.999-30.488,31.47-50.142,25.087
	C671.565,607.075,696.448,597.685,733.833,593.521z M583.414,602.909c32.728,4.06,57.114-14.068,90.864-3.109
	c-8.961,19.954-29.592,12.319-46.991,3.109c-16.909,3.754-26.729,25.021-43.874,18.822
	C585.957,610.892,577.562,608.51,583.414,602.909z M542.687,649.944c-1.298-7.558,5.705-6.829,3.131-15.701
	c-0.779-3.381-6.231-2.115-6.272-6.243c-11.393,1.124-11.643,13.427-21.948,15.666c0.547-8.914-10.583-6.129-6.257-18.79
	c17.591-13.06,50.41-10.155,59.542,9.367C567.518,651.257,552.098,649.909,542.687,649.944z M574.021,662.47
	c6.98-22.254,32.323-26.178,40.728-47.036c5.968,8.671,35.39-6.142,28.221,15.687c-16.564-5.448-32.138,1.466-31.343,21.945
	C596.949,654.038,586.989,659.771,574.021,662.47z M583.414,675c6.691-14.186,19.518-8.246,31.334-12.53
	c4.049,19.59,28.614,0.326,37.6,3.106c4.508,17.035-16.086,8.994-15.669,21.948C613.188,684.109,595.259,681.462,583.414,675z
	 M486.263,787.788c33.698-36.263,83.002-56.967,119.084-90.843c70.552,14.2,66.83-59.287,109.685-62.702
	c3.852,1.378,6.429,4.028,6.256,9.423c-14.071,4.708-12.073,25.528-31.324,25.053C644.581,735.583,557.804,748.585,486.263,787.788z
	 M517.598,881.828c45.133-62.872,104.744-115.829,150.427-169.217c22.5-0.511,28.757-17.238,50.144-18.809
	C682.786,787.961,593.365,828.072,517.598,881.828z M586.536,941.356c-0.312-19.407,14.016-42.644,25.089-59.528
	c19.655-30.086,40.4-68.744,65.799-97.179c15.634-17.456,42.199-23.96,53.285-43.848c3.637-0.509,5.555,0.688,6.254,3.129
	c0.964,23.942-12.844,33.148-12.536,56.393C672.888,841.759,630.401,892.243,586.536,941.356z M649.224,1010.292
	c39.834-89.689,55.644-203.404,131.62-256.96c-2.537,31.662-8.943,44.751-12.536,78.321
	C725.539,888.162,697.969,959.82,649.224,1010.292z M818.449,831.654c-2.715,10.854-11.802,17.819-15.677,28.226
	c-17.015,45.619-28.224,99.735-46.999,134.744c3.454-78.015,18.309-171.812,56.397-225.621
	C825.497,775.588,823.867,809.994,818.449,831.654z M796.513,778.388c-15.851-21.366,4.077-57.587,15.658-72.057
	c5.051-0.889,5.401,2.969,9.402,3.139C833.572,740.775,804.932,757.226,796.513,778.388z M849.778,712.611
	c14.301,19.129-7.513,49-12.53,68.914C827.972,760.946,831.207,726.571,849.778,712.611z M834.107,712.611v-18.809h9.404
	C843.632,703.327,845.331,714.419,834.107,712.611z M843.512,982.079c-12.841-71.421-19.91-164.965,15.657-222.479
	C891.794,822.063,844.367,904.868,843.512,982.079z M871.717,715.732h12.53c5.944,8.993,3.463,31.269,0,40.746
	C871.017,753.062,865.125,728.827,871.717,715.732z M884.247,847.355c11.906-25.006-1.387-59.206,9.391-94.022h9.413
	c25.898,50.588,14.854,135.684,18.798,200.55C897.615,930.079,913.531,866.091,884.247,847.355z M909.312,722
	c7.827-1.269,9.274,19.594,3.143,21.931C900.73,746.506,906.658,724.592,909.312,722z M978.264,881.828
	c-26.163-16.688-33.115-79.717-53.287-112.825c0.73-18.075-3.321-40.927,6.282-50.146c5.049-0.882,5.396,2.971,9.388,3.144
	C947.553,777.894,963.304,826.84,978.264,881.828z M1028.39,593.521c1.808-10.362,28.339-13.927,28.21,0
	C1041.062,593.861,1041.208,590.433,1028.39,593.521z M1040.93,565.323c3.425-18.357,30.059-36.756,47.008-21.947
	C1075.5,553.925,1057.661,559.079,1040.93,565.323z M1116.127,518.308c-9.738-12.872-26.42-0.207-25.059-25.074
	c-10.32,1.195-6.332,16.66-18.791,15.671c-9.381-10.481-1.878-14.578,3.121-25.054c29.329-8.911,36.943,10.747,53.262,18.804
	C1129.493,512.865,1118.921,511.703,1116.127,518.308z M1222.69,474.43h9.387c2.634,3.633,4.135,8.395,3.127,15.666
	C1223.64,492.299,1221.38,485.145,1222.69,474.43z M1169.409,455.639c16.256-4.965,42.303,5.137,46.998,21.928
	c-13.634-0.614-25.626-6.397-37.601,0C1175.883,470.043,1166.22,469.274,1169.409,455.639z M1207.026,483.852
	c1.809,21.143,31.027,14.914,43.848,25.054c-6.433,30.137-40.257,32.886-53.265,56.418c-18.221-2.681-29.74-12.05-40.721-21.947
	c-13.521,3.589-22.07,9.184-37.601,3.123v-21.931C1161.153,523.649,1155.661,475.315,1207.026,483.852z M1153.754,493.234
	c-14.706-8.293-36.855-9.111-37.627-31.333C1129.916,457.736,1161.203,476.151,1153.754,493.234z M1203.879,345.965
	c-0.605,15.055-14.818,16.523-25.072,21.932c-34.823,37.238-79.548,64.58-112.807,103.423c-7.559-1.298-6.822,5.721-15.685,3.109
	c-14.844,18.566-32.33,34.506-53.262,47.037C1036.478,433.436,1116.653,386.156,1203.879,345.965z M1028.39,446.232
	c-1.486,23.585-23.296,26.851-28.196,47.001c-11.8,1.522-13.276,0.904-25.076,6.266
	C981.029,469.925,1003.167,456.51,1028.39,446.232z M962.58,508.905c11.683,5.048,18.331,15.104,21.957,28.229
	c-7.407,0.956-5.84,10.851-15.677,9.365C973.333,528.186,949.784,525.594,962.58,508.905z M1131.804,170.47
	c-0.008,17.784-12.568,50.072-31.333,59.561c-24.262,67.688-61.375,139.097-115.934,166.058
	c-5.069-15.152,19.709-42.39,12.517-59.526C1040.777,280.023,1091.191,230.152,1131.804,170.47z M962.58,283.281
	c22.644,3.84,13.472-24.135,31.341-25.074c-2.118-39.762,40.396-59.063,43.882-103.404c3.627-0.494,5.562,0.682,6.253,3.139
	c-23.483,76.802-33.844,149.335-78.336,206.814C956.879,340.353,960.932,303.248,962.58,283.281z M959.458,367.897
	c10.7,1.298,3.975,8.463,15.659,3.142c4.068,28.075-12.344,35.701-12.537,59.526C951.604,415.959,957.794,387.73,959.458,367.897z
	 M959.458,439.973c12.946-6.355,30.156-34.253,46.996-47.021c3.654-0.496,5.578,0.716,6.267,3.137
	c-12.001,27.686-19.719,59.668-47.001,72.094v25.051C946.363,487.193,961.686,457.463,959.458,439.973z M937.517,424.287
	c9.048,14.605-0.035,53.245,3.13,81.475C927.709,482.994,938.217,443.898,937.517,424.287z M934.395,540.254
	c-9.66,2.204-6.033,2.204-15.677,0C917.233,527.166,937.865,522.095,934.395,540.254z M931.259,555.923
	c9.645-1.947,22.153,4.012,31.321,3.12c41.227-3.854,61.28-46.593,87.735-59.543c22.604,39.84-76.96,63.154-84.19,114.045
	c-0.071,1.623-0.199,3.296-0.405,5.032c0.033-1.708,0.171-3.384,0.405-5.032c1.884-42.983-41.952-46.597-56.812-20.023
	c-1.836,18.553,3.072,30.359,6.263,43.88C867.637,622.752,902.954,561.601,931.259,555.923z M934.395,615.434
	c8.422-4.708,15.537-10.719,9.399-21.913c26.855,13.735-5.672,52.823-21.945,25.056c-2.771-17.398,4.966-24.271,12.546-31.334
	C950.035,594.921,916.708,602.974,934.395,615.434z M887.375,320.896c9.777,1.708,4.812,18.177,9.421,25.069
	C883.201,348.066,888.353,331.406,887.375,320.896z M881.113,471.321c8.957,0.41,5.723,13.042,6.262,21.913
	C882.396,488.424,873.474,479.306,881.113,471.321z M890.517,505.762c9.907,5.769,11.144,26.167,6.279,37.615
	c-16.293-23.224-39.223-17.864-25.079,15.667c-23.324,28.448-22.19,47.62-12.548,87.741c22.334,27.82,67.077,41.696,87.75,3.16
	c31.947,2.682,34.63-23.893,50.135-37.618c9.849,29.154-20.692,43.71-25.062,68.951c-34.2,21.026-83.372,27.919-122.213,3.123
	c-20.153-26.383-35.739-64.94-28.205-109.688C842.038,549.213,856.568,517.812,890.517,505.762z M821.573,508.905
	c11.161-0.718,16.394,4.519,15.675,15.663C830.661,530.237,820.714,520.289,821.573,508.905z M865.45,496.377
	c-12.046-6.759-13.15-24.477-21.938-34.477h18.786C865.866,469.94,878.66,491.049,865.45,496.377z M843.512,405.497
	c10.794,6.98,9.227,26.28,15.657,37.6c-6.602,2.795-9.249,9.537-18.795,9.416C841.814,437.238,837.086,415.803,843.512,405.497z
	 M834.107,458.764c0.377,23.651,17.41,30.646,18.801,53.278c-17.102-15.273-37.523-27.238-43.88-53.278H834.107z M796.513,236.276
	c17.458,21.198,11.629,65.673,12.515,103.409C794.524,313.964,803.575,274.132,796.513,236.276z M793.372,468.183
	c13.157,0.41,7.729,19.418,21.921,18.791c1.884,13.363-13.21,9.763-18.78,15.681c-6.335-6.21-12.587-12.494-18.808-18.804
	C776.696,472.382,786.134,471.389,793.372,468.183z M762.029,493.234h15.677c1.431,7.986,6.106,12.7,12.543,15.671
	c-1.708,14.504-22.551,1.586-28.22,0V493.234z M774.562,533.974c2.433,16.266-15.708,24.27-28.192,15.681v-15.681
	C758.826,531.261,762.106,531.261,774.562,533.974z"/>
<path fill-rule="evenodd" clip-rule="evenodd" fill="#E2EFF8" d="M1685.418,182.305c-169.649,82.75-323.714,176.583-500.359,248.26
	c29.476,12.151,76.079-14.573,122.242-31.333c88.21-32.05,196.063-64.617,288.281-94.023c15.007-4.756,26.92-16.606,40.744-21.928
	c11.427-4.389,29.543-2.121,40.728-6.249c4.095-1.515,8.524-3.209,13.209-5.03c-0.071-5.369-0.187-10.737-0.335-16.104
	c-100.839,34.43-192.922,67.901-304.296,102.595c91.276-62.617,197.261-110.531,301.167-160.522
	C1686.375,192.749,1685.92,187.526,1685.418,182.305z"/>
</svg>
