<svg enable-background="new 0 0 247 317" height="317" viewBox="0 0 247 317" width="247" xmlns="http://www.w3.org/2000/svg"><g clip-rule="evenodd" fill-rule="evenodd"><path d="m140.539 171.376c-2.426.881-2.635 5.912-3.296 7.983-.472 1.479-.405 3.181-.725 4.704-.307 1.463-1.04 3.025-1.364 4.485-1.277 5.767-3.619 11.247-4.86 17.068-.319 1.498-.951 2.801-1.289 4.351-.323 1.487-.228 3.123-.621 4.641-.763 2.947-2.586 5.632-3.452 8.401-.949 3.037-1.872 5.702-3.346 8.522-.619 1.183-1.037 2.657-1.316 3.951-.438 2.018-.273 2.12.903 3.55.438.534.757 1.181 1.231 1.646 2.766 1.012 5.213 1.904 7.947 3.121 2.377 1.059 1.503.586 1.833 2.972.212 1.529.874 2.249 2.141 3.08 2.214 1.453 5.408 1.909 7.873 2.779 2.896 1.021 5.94 1.373 9.169 1.209-.052-2.151.561-5.038 2.747-5.398 2.147-.354 5.118.984 7.315 1.201 4.452.44 10.309.665 14.562-.752.843 1.377 3.704.964 5.273 1.223 2.354.386 4.974.347 7.264-.267 1.616-.433 5.04-.224 6.26-1.457 1.697-1.716-.07-4.522.293-6.6 1.225.126 3.373-.71 4.348-1.337 1.247-.801 2.238-1.877 2.513-3.08.631-2.766-1.538-6.494-2.767-8.767-2.901-5.369-4.497-11.238-6.829-16.726-2.247-5.287-4.865-10.244-6.498-15.433-2.195-6.979-5.709-12.779-12.097-17.127-3.225-2.194-5.97-4.958-8.938-7.367-1.452-1.177-3.003-2.379-4.387-3.55-1.73-1.466-3.2-1.982-5.271-3.033-3.179-1.611-6.018-1.977-9.395-.686-3.104 1.187-3.858 3.383-5.43 6.062" fill="#e67e22"/><path d="m246.379 121.74c.258-8.789 1.631-16.666.418-24.507-.102-.658-.446-1.309-.557-1.949-.75-4.328-1.078-8.662-2.367-12.949-.107-.525.17-.666.14-1.114-1.037-.034-1.764-1.116-2.646-1.531-2.212-1.043-5.898-.716-9.051-1.114-2.982-.378-6.091-.873-9.051-.975-1.338-.046-2.633.179-3.898.139-1.686-.053-3.462-.354-5.152-.278-2.553.116-5.374.646-8.076.975-4.9.596-8.986 1.599-12.67 2.367-4.945 1.032-9.759 3.045-13.785 4.734-2.485-2.621-5.021-5.191-6.684-8.633.882-3.294-1.062-4.157-2.785-5.709-1.914-1.725-3.636-3.966-5.987-4.874-2.237.373-4.545-.368-6.545-.696.035-2.03-.08-3.911-.975-5.012 2.048-1.48 3.109-3.946 3.76-6.823 7.694-5.395 11.391-14.786 13.506-25.76.613-.547.89-1.432 1.393-2.089-.171-1.817.674-3.484.696-5.291.039-3.075-.936-5.953-1.671-8.354-1.106-3.618-2.664-5.992-4.873-7.937-4.454-3.923-10.208-4.55-18.102-4.317-3.357.1-6.954 1.764-8.912 3.899-2.403 2.622-4.37 6.509-5.151 10.304-.239 1.162-.123 2.456-.279 3.76-.319 2.688-1.451 5.503-.557 7.519-.312.245-1 .113-.975.696-.764 3.189-1.811 6.432-2.646 9.19-.525 1.739-.981 3.945-1.113 5.849-.303 4.339.287 8.938-.976 12.253-.621 1.633-2.438 2.888-4.595 1.949-.896-.964-1.331-2.098-1.253-3.481.111-1.979 2.15-3.765.975-5.013-2.035.706-3.887 2.76-4.734 4.874-.486 1.213-.797 2.975-.696 4.177.148 1.763 1.503 3.129 1.671 4.874 1.909 1.234 3.684 3.414 6.267 4.038 1.004.242 2.452-.261 3.202.695-.027 1.451-.059 2.666-.418 4.038-1.188.329-1.712 1.247-2.784 1.811-1.93 1.015-4.246 1.318-6.684 2.089-1.722.543-3.725.723-4.734 1.393-1.066.707-1.269 2.073-2.229 2.784-.521 3.448-.945 6.273 0 9.608-.699 1.458.348 3.163.975 4.177.893.314 1.336 1.078 2.507 1.114.658-.114-.241-.92.557-.836.271 2.665.399 5.201.418 8.076.047 7.104.474 14.787.139 22-2.365 2.509.944 5.296 2.785 6.823 4.638 3.85 11.323 6.348 15.734 9.329-.096 3.006.221 6.382.418 9.608.081 1.333.275 2.835.278 3.898.003.849.196 1.379.279 2.228.144 1.487-.115 3.219 0 4.874.214 3.101.675 7.372-.279 9.747.116.533.456.844.836 1.113-.873.529-.37 1.386-.557 2.367-.373 1.96-1.23 3.915-1.672 5.849-2.237 9.805-5.398 19.586-7.937 28.962.18 1.328-.451 2.512-.835 3.76-2.827 9.186-5.267 17.77-9.19 25.621.222.74-.112 1.485 0 2.506 2.395 4.044 7.688 4.62 12.393 6.126.258-.299.094-1.02.14-1.531-2.838-1.946-11.752-1.574-11.001-6.962.21-1.5 1.122-3.431 1.811-5.152.667-1.668 1.492-3.307 2.089-4.873 2.7-7.094 4.462-13.747 6.405-21.443 1.943-7.701 4.221-14.679 6.126-22 .982-3.772 1.66-7.625 3.342-10.861 1.182.676 2.771.943 3.761 1.811.161 5.521 2.37 9.592 1.392 15.177-.537.902-1.876 1.003-2.646 1.671-.103 3.537 4.879 4.467 8.494 3.481 3.064-3.474 2.259-11.763 1.81-16.709 2.632 1.406 5.434 2.643 8.494 3.62 1.343 1.592 3.605 1.9 5.569 2.785 3.755 1.69 7.46 3.819 11.558 5.151.938 1.479 3.256 1.309 4.456 2.646.433.483 1.028 1.959 1.392 3.063.856 2.604 1.166 4.653 2.367 7.102.615 1.254 1.419 2.545 1.81 3.898.539 1.862 1.269 2.998 1.811 4.456 1.089 2.927 1.951 5.704 3.481 7.938.214 1.363 1.127 2.291 1.114 3.48.504 1.253 1.241 2.435 1.671 3.76 1.505 4.649 3.672 9.237 4.595 14.063-1.446-.616-2.504.896-3.898 1.113-1.012.159-2.175-.072-2.924.279-1.201-3.674-2.25-7.498-3.761-10.861-.354-3.454-1.706-7.11-3.202-9.886.043-.326.272-.575 0-.836-1.044-2.161-1.854-4.61-2.646-7.102-.794-2.495-1.186-5.185-2.228-7.519-1.832.356-.106 2.961.278 4.038-.313.595.316.759 0 1.531.787 1.13.816 2.52 1.114 3.621.412 1.525 1.195 3.055 1.81 4.595.645 1.617 1.029 3.333 1.671 4.873.216.518.644.987.835 1.531.691 1.959.872 4.107 1.532 6.127 1.482 4.538 3.128 9.132 4.456 13.924.268.971.499 2.046.278 3.064-5.296 1.439-12.006 3.453-17.684 2.089-.605-.851-.423-2.065.139-2.785-1.895-1.274-1.43-5.044-1.671-7.938-.386-4.634-1.246-9.698-2.088-14.76-1.011-6.07-1.229-12.225-2.089-17.266-.18-1.053-.348-2.615-1.532-3.202-.638.646-.372 1.353-.278 1.949.3 1.906.871 3.781 1.114 5.709.429 3.404.71 6.756 1.113 10.304.185 1.616.714 3.141.976 4.734 1.125 6.869 1.509 14.847 2.088 21.304-2.479 1.595-5.321 1.058-8.771 1.532-4.505.619-8.971-1.292-12.95-1.671.693-4.457 1.242-9.046 2.089-13.646.646-3.518.961-7.128 1.671-10.583.688-3.346 1.407-6.566 2.367-9.886.997-3.448 1.103-7.106 2.089-10.305.246-.798 1.091-1.401.557-2.366-1.054-.033-.707 1.335-1.393 1.67-.98 3.449-1.079 7.184-2.088 10.583-.533 1.792-1.338 3.438-1.672 5.291-.521 2.896-.846 5.784-1.671 8.493-.009 3.67-1.156 7.291-1.81 10.861-.228 1.24-.034 2.549-.278 3.76-.124.612-.481 1.179-.558 1.81-.054.448.169.787.14 1.253-.032.51-.414 1.189-.558 1.811-.125.545-.547 1.819-.557 1.95-.016.21.318.614.278.835-.137.76-.435 1.408-.557 2.228-.104.703-.172 1.482-.558 2.089-4.087.016-7.303-1.098-11-2.089-2.197-1.515-5.703-1.723-6.822-4.316 3.944-15.409 9.169-29.54 13.646-44.418.155-.31.552-.377.696-.696-.196-1.361.948-2.535.14-3.62-1.213.784-1.11 2.333-1.532 3.62-1.23 3.758-2.801 7.758-3.759 11.836-.919 1.058-1.182 2.621-1.672 4.316-.315 1.091-.766 2.197-1.113 3.342-.673 2.212-1.145 4.699-1.949 7.102-.207.615-.76 1.168-.976 1.81-1.421 4.227-2.57 8.826-4.037 13.228-.48 1.441-1.17 3.375-.975 4.317.191.929 2.374 2.817 3.341 3.342.553.299 1.536.431 2.228.696 1.466.561 2.671.932 3.899 1.671-.345 10.675-.028 21.763.975 32.443.373 3.969.909 7.998.557 11.975-1.093 1.541-.068 4.458 0 6.545-.529 2.628-4.37 4.269-3.48 7.937.202.833 1.021 1.156 1.531 1.949 2.852.926 5.953 2.362 9.608 2.506 1.128.045 2.396-.429 3.62-.557 2.653-.277 3.726-.495 6.405-.975 1.573-.281 3.363-.813 3.898-1.531 1.39-1.864.682-6.412-.695-7.52-.754-.605-1.687-.422-2.646-.696-.641-.184-1.088-.693-1.671-.835-3.199-.779-7.054.212-9.19.835-1.033-1.108-.08-2.301 0-3.342.106-1.367-.446-2.909-.557-4.456-.142-1.996-.187-4.114-.278-6.126-.2-4.406-.511-9.093-.278-13.507.021-.382.146-.746.139-1.114-.088-4.66-.357-9.362-.417-13.784-.038-2.795-.121-5.729.139-8.494 1.42.2 4.051 1.058 5.013 0 .187-1.021-.895-.89-1.113-1.811-.276-1.16.5-2.78.557-4.037 2.963.543 6.096 1.632 9.19 2.228.843.162 1.91.208 2.784.139 2.951-.232 5.812-.68 8.634-.975.818 8.956.718 17.452.695 26.178-.008 3.331.415 6.71.558 10.165.156 3.78-.571 8.037-.279 11.835.099 1.272.345 2.539.279 4.038-.061 1.365.027 2.907-.14 3.76-.33 1.691-2.153 3.253-2.089 5.291.055 1.703 1.748 3.747 3.203 4.595 2.725 1.59 7.197.231 11.278.14 2.827-.062 6.976-.234 8.633-2.089 1.927-2.156 1.645-6.289-.835-7.658-2.641-1.457-6.712-.988-9.887-1.392-.119-1.626-.228-3.311-.278-4.735-.205-5.808-1.059-11.964-1.392-18.24-.502-9.427-1.129-21.928-2.089-30.354 4.702-.027 9.533-1.234 13.784-2.507.343-.566-.135-.672-.139-1.253.597.006.92.29 1.253-.14.463-2.301-.581-4.083-.975-6.266 1.017-.083 1.886.115 2.646 0 2.154-.327 3.356-1.767 5.152-2.367.211-2.921-1.396-5.489-2.367-8.076-1.479-3.94-2.729-8.121-4.456-11.418-.114-1.198-.838-2.958-1.671-3.898.053-1.005-.568-1.892-.975-2.785-1.329-2.925-2.561-5.565-3.62-8.354-.901-2.37-1.496-4.854-2.785-6.962.061-.896-.327-1.343-.696-1.811-.444-2.368-1.324-4.618-2.367-6.822-1.013-2.142-2.52-4.234-2.646-6.684-1.837-1.672-2.258-4.569-3.342-7.52-.616-1.677-1.796-3.18-1.393-4.873-1.327-1.094-.2-2.146 0-3.342.307-1.831-.549-4.602-1.253-6.127-.505-1.094-1.792-2.101-1.393-3.62 6.783 2.64 12.432 6.413 20.329 7.937 1.863 1.433 2.643 3.949 4.456 5.431.732 2.145 2.589 3.129 3.898 4.595.391.438.555 1.098.975 1.532.99 1.021 2.264 1.803 3.343 2.785 4.502 4.1 8.538 9.418 14.063 11.974 1.637 2.743 3.608-1.625 4.733-3.341 3.15-4.804 5.457-10.161 7.798-15.178 1.588-3.404 2.788-7.246 4.178-11.14.698-1.956 1.064-3.998 1.67-5.987.631-2.067 1.53-3.986 1.95-5.848.901-4.001 1.781-8.562 2.507-12.254m-94.964 169.735c1.857.15 3.317-1.339 5.709-1.393 3.069-.068 7.531.743 8.354 2.229.617 1.114.089 2.998-.139 4.595-6.114 2.504-17.025 4.114-22.279-.696-.359-4.072 3.406-4.02 3.481-7.658-.027-.686-.487-1.149-.558-2.089-.068-.914.145-1.917.14-2.924-.014-2.522.054-5.723 0-8.772-.069-3.899-.556-7.846-.835-11.836-.569-8.117-.832-16.432-.558-24.506-.006-.238.104-.361.278-.418 1.241.522 2.912.615 4.316.975.275 4.517.613 9.581.14 13.925-.292 2.682.36 5.606.418 8.493.116 5.849-.019 11.124.278 16.152.159 2.709.576 5.406.418 7.797-.14 2.137-.774 4.45.837 6.126zm33.28-22.139c.073 1.082.379 2.158.417 3.203.034.919-.299 1.884-.278 2.784.045 2.018.386 3.982.418 5.987.032 1.985.11 3.992 0 5.988-.065 1.188-.585 2.35.278 3.48 4.102.498 8.463-.097 11.697 1.671 1.238 1.348.65 3.207-.14 4.595-.433.265-1.077.316-1.253.836-5.543.924-11.175 1.956-16.849 1.114-.775-1.041-2.269-1.8-2.367-3.203-.119-1.69 1.666-3.258 1.949-4.734.407-2.125.285-4.938.14-7.38-.424-7.089-.431-14.549-.558-21.582-.122-6.8.238-14.095-.139-20.329-.138-2.265-.461-4.893-.279-7.798.838 1.437 2.361 2.188 4.456 2.367 1.118 10.533 1.784 22.324 2.508 33.001zm-11.418-209.42c1.407 4.44 4.344 7.353 7.101 10.442-2.622 1.37-5.535 2.448-7.797 4.178-2.146-1.799-3.657-4.233-4.734-7.102-.518.091-.822.477-.557.975-.774-1.318-.649-3.425-.696-4.873.11-.446.8-.314.975-.696.078-2.833 3.603-5.461 5.708-2.924zm-2.368 15.594c-.579.814-1.326 1.459-2.367 1.811-.028-2.392-.915-4.647-.975-6.545 1.108 1.585 2.167 3.219 3.342 4.734zm-10.443-23.949c6.121-.586 9.595 2.649 12.393 5.848-.78.158-1.361-.312-1.949-.278-2.628.15-3.55 2.687-4.734 4.456-.497-2.876-.662-5.648-1.81-8.076-1.663.053-.616 2.137-.418 3.063 1.369 6.403 1.748 14.314 3.062 20.887-.113.531.297.539.558.696-.843 1.014-.532 3.869-.14 5.151.162.53.66.984.836 1.531.477 1.49.585 3.358.975 5.013.489 2.08.968 4.15 1.531 5.988.135.69-.371.742-.418 1.253 1.234 10.089 1.01 20.328 2.925 30.354-.227 1.476-.03 2.444.139 3.899-5.157-2.595-9.54-5.962-14.203-9.052-.729-7.854-1.156-15.949-2.088-23.81-.332-2.802-.856-5.615-1.114-8.355-1.011-10.759.646-23.444-1.531-35.228 2.811-.296 4.542-1.675 5.986-3.34zm13.784 75.887c-.392-3.34-.261-7.285-1.113-9.607.107-5.99-.766-10.368-1.113-16.431 1.101 2.009 1.173 5.046 2.506 6.823.303 3.31 1.678 6.445 2.924 9.329.321.742.813 1.436 1.254 2.506 1.694 4.12 4.094 7.981 6.126 11.836.921 1.128 2.218 2.599 2.507 3.898-4.679-.347-9.631-.86-12.671-3.48.593-1.294-.195-2.974-.42-4.874zm-19.911-45.393c-2.999-8.512-7.152-15.869-8.493-26.039 1.992.311 4.958-.04 6.962-.557 1.695 4.045 1.214 10.359 1.531 15.456-.311.261-.862-.366-1.531-.278-1.033.136-1.683 1.297-.975 2.646 1.265.54 2.127-.326 2.367-1.253.417 2.641.068 7.342.139 10.025zm-10.025-48.457c2.354 1.73 4.289 3.88 6.962 5.292.072 5.053.44 10.115.558 14.898-1.929.841-5.244.63-7.24 0-.471-6.116-.132-12.657-.28-20.19zm9.051 20.051c-.169-3.125-.721-5.757-.278-9.05 1.518.756 3.652.896 5.152 1.671.15 1.708.763 3.407.417 4.733-.546 2.104-3.568 1.655-5.291 2.646zm4.177-9.468c-1.88-.256-3.356-.913-4.874-1.531.079-1.035-.167-2.396.14-3.203 2.524.934 5.957-.191 7.937-.557-.405 2.427-1.903 3.76-3.203 5.291zm10.582-13.507c-1.495 1.568-2.821 3.306-4.316 4.873-3.488 1.729-7.618 3.835-11.836 2.089-2.825-1.169-6.839-4.872-7.937-7.38-.3-.686-.094-1.624-.362-2.367-.888-2.456-2.616-6.425-1.616-10.304 0-.14 0-.278 0-.418 3 2.599 6.216 4.607 10.249 6.545 4.936 2.371 11.589 4.402 18.282 2.228-.373 1.994-1.973 2.858-2.464 4.734zm-25.203 14.622c-.928-.93-2.83-.883-4.595-.975 1.229-.814 3.028-1.057 4.595-1.532-.205.538.175 2.019 0 2.507zm31.329-30.913c-.162.932-.044 1.901-.277 2.784-.789 2.984-2.227 5.383-2.785 7.659-.738-.033-.107-.571-.418-.975-2.857.951-7.018 1.685-10.442.975-.515-.106-1.017-.572-1.532-.696-.712-.172-1.507-.034-2.229-.278-1.364-.463-2.737-1.444-4.177-2.089-4.151-1.861-8.511-4.442-11.139-7.38.055-1.129.1-1.655-.14-2.646 2.729.587 4.434-1.371 5.709-3.063-.102-1.103.362-1.883.418-2.646.222-3.094-1.117-7.374.696-10.025.842-1.231 4.368-3.388 5.987-3.76 2.435-.56 4.878.18 6.266 1.253 3.499 2.707 4.451 10.348 3.481 16.292-.055.328-.131 1.011-.279 1.531-.539 1.898-2.462 4.367-1.81 5.848 1.219 2.772 6.18 1.951 7.38-.278 1.339-2.488.157-7.324.417-11.139.236-3.456 1.372-7.221 2.646-7.381 3.163-.395 1.42 7.98 1.81 10.583.13.863.883 1.763.975 2.367.176 1.148-.385 2.085-.557 3.064zm-33.556-12.67c.299-2.813 1.092-6.692 2.367-9.051 1.116-2.065 3.95-5.33 6.266-6.267 2.466-.996 4.928-.925 7.798-.696 2.899.231 4.804-.22 7.38.418 3.921.972 7.669 3.569 9.329 6.823 2.435 4.771 4.12 10.829 2.229 16.849-1.583-2.135-.058-7.041-.836-10.165-.538-2.16-2.921-4.073-4.874-2.229-1.27 2.219-2.514 5.396-2.506 9.33.007 3.285 1.588 8.962-1.114 10.304-1.024.508-2.986.167-3.759-.696.062-1.574 1.334-2.861 1.81-4.595 1.173-4.275.974-10.708-.417-14.621-1.381-3.881-4.896-7.947-10.305-6.683-.654.152-1.545.775-2.506 1.253-1.842.914-3.834 1.747-4.873 3.48-2.206 3.676-.07 8.735-1.115 13.089-1.102 1.947-5.288 3.131-5.708-.278-.186-1.495.616-4.22.834-6.265zm-15.177 33.974c.125 3.396 2.786 6.847 6.266 5.57.619-.228.823-.771 1.392-1.254-.602 2.078-5.134 4.59-7.519 2.507-1.719-1.502-1.094-4.913-.139-6.823zm2.089 9.469c2.22-.113 6.791-2.668 7.379-5.013.356-1.423-.139-3.031 0-4.456.153-1.57.534-3.021.557-4.595.027-1.852-.366-3.805-.139-5.569.658-5.104 2.74-10.047 3.898-15.038.469.412 1.158.605 1.393 1.253-.707-.15-.856.257-1.114.557.671 4.69.439 9.318 1.532 13.646.433 1.716 1.458 3.234 1.671 5.013.38 3.17-.042 6.447.139 10.025-2.915.5-6.105 1.858-8.493 3.343.012 1.254.312 2.349-.278 3.202-2.931-.042-4.733-1.211-6.545-2.368zm-7.381 25.202c-.713 1.087-.192 2.821-.418 4.178-.982-.398-1.473-2.007-1.531-3.481-.146-3.682-.83-9.068 1.949-10.86 1.058-.682 2.315-.503 3.62-.835 1.695-.433 3.938-1.425 5.849-1.95.732-.201 1.452-.205 2.089-.557 1.161-.642 1.824-1.87 3.063-2.089.886-2.813.184-6.469 1.253-9.189 1.804.517 4.487.154 5.849 1.113.493 2.421.983 5.135 1.113 7.658 1.719 1.47 1.912 5.51 2.506 8.216.379 1.722 1.006 3.076 1.532 5.013 1.091 4.008 3.395 7.768 4.734 12.114.855 2.774 2.284 4.783 2.506 8.215.829 1.946.763 4.288 1.114 6.545.246 1.579.394 3.005.557 4.595.037.355.387.736.418 1.114.109 1.293.199 2.832.278 4.177.084 1.41.099 2.8.696 4.038-.479 4.36.509 8.146.557 12.811-2.428-1.347-4.44-3.33-6.544-5.152-.867-.751-1.627-1.606-2.506-2.367-.566-.488-1.372-.737-1.95-1.253-1.609-1.437-2.962-2.9-4.734-4.316-3.146-2.516-7.331-4.05-10.304-6.962-.359-4.646-.195-9.141.278-14.481.902.306 1.373 1.041 2.089 1.531 1.274 5.71 1.254 11.231 3.063 16.57 1.634-.674.707-2.172.278-4.038-.527-2.296-1.147-6.247-1.393-8.772-.171-1.771-.358-3.136.278-4.456-1.461-.72-2.312-2.051-4.455-2.088-.289-5.437-.581-11.992.696-16.57 1.018 1.112 2.162 3.157 2.367 5.152.091.883-.544 2.237.696 2.506.725.075.175-1.124.835-1.113-.109-4.194-2.466-7.95-5.013-10.443-1.85-1.812-4.969-4.055-8.354-2.228-2.343 1.069-3.94 4.275-3.061 7.654zm21.723 52.356c6.413 2.684 11.156 7.038 17.126 10.165.386 1.066.062 3.54 1.531 3.063.451-.673-.458-1.814-.139-2.367 2.062 1.001 4.2 1.926 5.987 3.202-6.595-.052-12.918-.239-18.937-.418-1.974-.058-3.669.229-5.013-.557-.457-4.2-1.262-9.582-.555-13.088zm20.049 25.899c-1.078-.061-2.777-.114-2.646-1.531 1.949-.314 5.046.481 7.52.557.138.326.244.684.278 1.114-1.275.35-3.431-.043-5.152-.14zm1.254 1.647c-.436 0-2.002 1-2.507 0zm-3.62-9.027c-1.078.299-.673 2.4-.558 3.48-2.29 2.475-.713 7.821 3.76 7.381.503-.05.991-.399 1.671-.418.87-.023 2.002.219 3.063.278 1.955.109 5.534-.217 6.962.696-.229.549-.669.393-.975.418-1.354.112-2.831.21-4.456.417-2.368.303-4.636-.559-6.822-.417-1.674.107-3.329.935-4.874.139-.625-3.881-1.712-9.452.557-12.671 5.205.329 9.396.579 14.621.835.13.566.522.871.557 1.532-4.574-.609-9.617-.731-13.506-1.67zm13.367-1.254c-.979-.478-2.978-.457-4.316-.557-3.835-.283-8.539-.012-11.558-.418-.627.023-.438.862-1.114.836-1.098-.085-1.801.063-2.646-.418-2.396.006-5.713-.467-8.633-.418-.753.014-2.19.537-1.949-.835 1.193-.688 2.532-.195 3.899-.14 6.99.286 15.3.166 21.582.558 1.876-1.503 4.07 1.209 6.266 1.531.133.836 1.131 1.839.557 2.507-.372-.277-.424-.876-.557-1.393-.689-.015-.968-.977-1.531-1.253zm-26.735 15.596c-1.128-1.007-2.624-1.646-4.315-2.089.574-1.123 3.29-.734 4.315-.278-.143.882.404 1.674 0 2.367zm-.278-4.038c-.759-.354-2.312.086-3.063-.278-.037-3.441-.27-6.753-.139-10.583 1.558-.12 3.688-.485 5.013 0-2.103 2.228-1.148 7.562-1.811 10.861zm8.772 19.076c-.126 2.027-.662 4.265-1.671 5.987-2.15.25-4.603.213-5.569-1.114.858-.95 2.107-1.478 2.367-3.341.501-3.61-1.076-8.768-1.393-11.976-.101-1.019.14-2.092 0-3.063-.134-.928-.503-1.672-.557-2.506-.238-3.647-.517-6.617.139-11 .431-2.885 5.03-1.432 7.24-.696-.021 1.045-.361 1.773-.278 2.924-1.124.156-2.376-.333-3.342 0-1.321.456-1.816 2.288-1.253 3.899 1.812.387 3.498-.471 4.734-1.114.041.841.297 1.467.278 2.367-2.986 5.011-.303 13.326-.695 19.633zm-.696-23.531c.164 1.509-1.556 1.136-2.367 1.671-.333-.436.131-1.004.278-1.393 1.125.064 1.334-1.011 2.089-.278zm30.494 25.758c-1.479-.192-2.587-1.188-3.898-1.81-2.482-1.177-5.062-2.049-7.52-3.202-4.021-1.889-7.813-3.845-11.975-5.709-1.976-.886-4.154-1.48-5.709-3.064-.053-1.828.372-3.234.418-4.595.709.212 2.118 1.3 3.48.558 1.776 1.735 4.929 2.339 7.52 3.62.536.265.891.74 1.393.975 1.855.867 3.811 1.592 5.569 2.646 2.776 1.663 5.236 3.612 8.216 4.874 1.023 1.715 1.642 3.834 2.506 5.707zm-3.481-7.936c-6.328-3.419-12.216-7.277-19.354-9.886.8-.661 1.62-.072 2.507 0 3.497.283 7.658-.283 11.14-.613.429-.453.33-1.145.557-2.145h.278c.64 1 .756 1.619.975 2.562 1.392 3.249 2.621 6.717 3.897 10.082zm-3.342-13.784c-1.901-.381-3.134.19-4.455-.836-1.722.561-3.798-.173-5.849.139.006-.644.879-.42.975-.975.764-5.163-4.833-3.554-8.075-4.316-.048-.405-.146-1.229 0-1.671 4.128-.104 10.029 1.486 14.062.558.649.186 1.212.46 1.811.695.812 1.884 2.053 3.998 1.531 6.406zm1.672-10.445c-5.458-2.389-10.421-4.56-15.596-7.24-1.353-.7-2.69-1.459-4.038-2.088-1.371-.642-2.547-1.427-3.898-2.229-1.267-.751-2.738-1.4-3.899-2.228-.676-.482-1.117-1.111-1.81-1.532-4.676-2.841-9.969-5.507-15.178-8.075-4.453-2.928-10.092-4.669-12.671-9.469 1.799-6.745.278-16.05.278-24.507 0-3.222.098-6.788-.557-9.747-.131-.589-.584-1.098-.696-1.671-.441-2.248.247-4.118.557-5.987 2.062-3.48 8.053-2.337 9.469 1.253-.66 2.956-.561 6.305-.696 9.887-.068 1.817-.324 3.763-.278 5.569.065 2.562.243 4.97.278 7.658.021 1.629-.27 3.64-.278 5.57-.01 1.967-.432 4.702-.14 5.848.324 1.271 3.675 3.011 5.152 3.898 3.988 2.397 6.785 4.096 10.025 7.102 6.881 6.385 14.659 12.463 22.975 17.684 1.572.987 3.407 2.02 5.152 3.063 2.924 1.749 4.436 3.081 8.494 3.481 2.419.239 5.006.425 6.684.557 2.248 3.043 4.79 6.534 6.544 9.608-6.012-1.248-10.75-4.161-15.873-6.405zm65.721-20.747c-.479 2.413-.624 4.864-1.114 7.241-.469 2.276-1.044 4.557-1.531 6.823-.497 2.316-1.603 4.433-2.228 6.544-.315 1.063-.396 2.27-.696 3.342-.795 2.841-2.065 5.602-3.063 8.354-.999 2.756-2.185 5.38-3.342 7.937-2.379 5.259-5.056 10.329-8.354 14.342-4.386-2.164-7.664-5.894-11.278-9.189-3.529-3.218-7.265-6.404-10.165-10.165-2.918-3.782-6.05-7.56-8.634-11.696-1.275-2.042-2.765-4.027-4.177-5.987-.719-.998-1.382-2.009-2.089-3.063-.655-.977-1.604-1.812-2.228-2.784-2.049-3.199-3.354-6.867-5.709-9.887-.579-3.028-2.323-5.722-3.481-8.771-.546-1.441-1.066-3.026-1.531-4.596-1.781-6.01-3.845-12.981-5.431-19.634-.271-1.132-.353-2.587-.696-3.898-.312-1.196-.999-2.429-.975-3.342.02-.712.553-1.312.279-1.949 3.044-3.592 7.891-5.383 11.975-7.937 3.304-.812 6.303-2.794 9.886-3.76 3.414-.92 6.993-1.983 10.722-2.785 1.632-.35 3.439-.328 5.152-.557 2.615-.349 5.262-.925 8.215-1.114 10.877-.695 20.656 1.01 29.659 2.229 1.836 8.236 4.334 16.944 3.759 25.898-.21 3.282-.414 6.544-.557 9.747-.221 4.939-.309 9.645-1.113 14.481-.243 1.454-.972 2.755-1.255 4.176z" fill="#2c3e50"/><path d="m173.696 25.803c-1.583-2.135-.058-7.041-.836-10.165-.538-2.16-2.921-4.073-4.874-2.229-1.27 2.219-2.514 5.396-2.506 9.33.007 3.285 1.588 8.962-1.114 10.304-1.024.508-2.986.167-3.759-.696.062-1.574 1.334-2.861 1.81-4.595 1.173-4.275.974-10.708-.417-14.621-1.381-3.881-4.896-7.947-10.305-6.683-.654.152-1.545.775-2.506 1.253-1.842.914-3.834 1.747-4.873 3.48-2.206 3.676-.07 8.735-1.115 13.089-1.102 1.947-5.288 3.131-5.708-.278-.185-1.495.617-4.22.835-6.266.299-2.813 1.092-6.692 2.367-9.051 1.116-2.065 3.95-5.33 6.266-6.267 2.466-.996 4.928-.925 7.798-.696 2.899.231 4.804-.22 7.38.418 3.921.972 7.669 3.569 9.329 6.823 2.434 4.772 4.119 10.83 2.228 16.85z" fill="#95a5a6"/><path d="m153.366 23.992c-1.494-.048-1.065-1.34-1.671-2.089 1.053-3.726 4.722.619 1.671 2.089z" fill="#2c3e50"/><path d="m170.493 25.803c.777.669 1.59 3.056.278 3.759-2.103-.093-3.583-3.92-.278-3.759z" fill="#2c3e50"/><path d="m136.935 26.499c.469.412 1.158.605 1.393 1.253-.707-.15-.856.257-1.114.557.671 4.69.439 9.318 1.532 13.646.433 1.716 1.458 3.234 1.671 5.013.38 3.17-.042 6.447.139 10.025-2.915.5-6.105 1.858-8.493 3.343.012 1.254.312 2.349-.278 3.202-2.93-.041-4.731-1.21-6.544-2.367 2.22-.113 6.791-2.668 7.379-5.013.356-1.423-.139-3.031 0-4.456.153-1.57.534-3.021.557-4.595.027-1.852-.366-3.805-.139-5.569.657-5.105 2.739-10.048 3.897-15.039z" fill="#f1c40f"/><path d="m139.302 33.182c2.925 2.599 6.41 4.607 10.443 6.545 4.936 2.371 11.686 4.402 18.38 2.228-.373 1.994-1.877 2.857-2.367 4.734-1.495 1.568-2.821 3.306-4.316 4.873-3.488 1.729-7.618 3.835-11.836 2.089-2.825-1.169-6.839-4.872-7.937-7.38-.3-.686-.288-1.624-.557-2.367-.888-2.456-2.136-6.425-1.811-10.304.001-.14.001-.279.001-.418z" fill="#ffe2d3"/><path d="m123.151 51.701c.125 3.396 2.786 6.847 6.266 5.57.619-.228.823-.771 1.392-1.254-.602 2.078-5.134 4.59-7.519 2.507-1.719-1.502-1.094-4.913-.139-6.823z" fill="#f1c40f"/><path d="m155.176 60.195c-1.88-.256-3.356-.913-4.874-1.531.079-1.035-.167-2.396.14-3.203 2.524.934 5.957-.191 7.937-.557-.405 2.427-1.903 3.76-3.203 5.291z" fill="#f1c40f"/><path d="m140.555 58.803c-.205.538.175 2.02 0 2.507-.928-.93-2.83-.883-4.595-.975 1.23-.814 3.029-1.057 4.595-1.532z" fill="#d35400"/><path d="m150.72 60.613c1.518.756 3.652.896 5.152 1.671.15 1.708.763 3.407.417 4.733-.546 2.104-3.567 1.654-5.291 2.646-.168-3.125-.72-5.757-.278-9.05z" fill="#d35400"/><path d="m155.037 124.386c-.598-1.238-.612-2.628-.696-4.038-.079-1.345-.169-2.884-.278-4.177-.031-.378-.381-.759-.418-1.114-.163-1.59-.311-3.016-.557-4.595-.352-2.257-.285-4.599-1.114-6.545-.222-3.432-1.65-5.44-2.506-8.215-1.34-4.347-3.644-8.106-4.734-12.114-.526-1.937-1.153-3.291-1.532-5.013-.594-2.706-.787-6.746-2.506-8.216-.13-2.523-.62-5.237-1.113-7.658-1.361-.959-4.045-.597-5.849-1.113-1.069 2.721-.367 6.376-1.253 9.189-1.239.219-1.902 1.447-3.063 2.089-.637.352-1.356.355-2.089.557-1.911.525-4.153 1.518-5.849 1.95-1.305.332-2.562.153-3.62.835-2.779 1.792-2.095 7.179-1.949 10.86.059 1.475.549 3.083 1.531 3.481.226-1.356-.295-3.091.418-4.178-.879-3.379.718-6.585 3.063-7.657 3.386-1.827 6.505.416 8.354 2.228 2.547 2.493 4.903 6.249 5.013 10.443-.66-.011-.11 1.188-.835 1.113-1.24-.269-.605-1.623-.696-2.506-.205-1.995-1.35-4.04-2.367-5.152-1.277 4.578-.985 11.134-.696 16.57 2.144.037 2.994 1.368 4.455 2.088-.637 1.32-.449 2.686-.278 4.456.245 2.525.865 6.477 1.393 8.772.429 1.866 1.355 3.364-.278 4.038-.021-.061-.039-.122-.06-.182-.02.106-.044.212-.075.313 1.742 1.018 3.495 2 5.008 3.21 1.772 1.416 3.125 2.88 4.734 4.316.578.516 1.384.765 1.95 1.253.879.761 1.639 1.616 2.506 2.367 2.104 1.822 4.116 3.806 6.544 5.152-.05-4.661-1.037-8.447-.558-12.807z" fill="#e67e22"/><path d="m170.493 73.423c-.78.158-1.361-.312-1.949-.278-2.628.15-3.55 2.687-4.734 4.456-.497-2.876-.662-5.648-1.81-8.076-1.663.053-.616 2.137-.418 3.063 1.369 6.403 1.748 14.314 3.062 20.887-.113.531.297.539.558.696-.843 1.014-.532 3.869-.14 5.151.162.53.66.984.836 1.531.477 1.49.585 3.358.975 5.013.489 2.08.968 4.15 1.531 5.988.135.69-.371.742-.418 1.253 1.234 10.089 1.01 20.328 2.925 30.354-.227 1.476-.03 2.444.139 3.899-5.157-2.595-9.54-5.962-14.203-9.052-.729-7.854-1.156-15.949-2.088-23.81-.332-2.802-.856-5.615-1.114-8.355-1.011-10.759.646-23.444-1.531-35.228 2.812-.298 4.543-1.677 5.987-3.342 6.12-.584 9.594 2.652 12.392 5.85z" fill="#e67e22"/><path d="m151.973 86.93c-.311.261-.862-.366-1.531-.278-1.033.136-1.683 1.297-.975 2.646 1.265.54 2.127-.326 2.367-1.253.417 2.641.067 7.342.139 10.025-2.999-8.512-7.152-15.869-8.493-26.039 1.992.311 4.958-.04 6.962-.557 1.695 4.045 1.214 10.359 1.531 15.456zm-2.784-9.886c.61-1.751-.491-2.426-.975-3.481-3.393.032-1.864 5.872.975 3.481zm1.253 5.708c.709-.753.574-2.186-.14-2.924-4.349-.844-2.219 5.43.14 2.924z" fill="#f39c12"/><path d="m148.214 73.562c.483 1.056 1.585 1.73.975 3.481-2.839 2.392-4.368-3.448-.975-3.481zm-.139 2.507c-.059-.267-.051-.6-.418-.558-.039.364-.047.698.418.558z" fill="#2c3e50"/><path d="m147.657 75.512c.367-.042.359.291.418.558-.465.139-.457-.195-.418-.558z" fill="#fff"/><path d="m241.924 81.639c1.836 8.236 4.334 16.944 3.759 25.898-.21 3.282-.414 6.544-.557 9.747-.221 4.939-.309 9.645-1.113 14.481-.242 1.454-.972 2.756-1.254 4.177-.479 2.413-.624 4.864-1.114 7.241-.469 2.276-1.044 4.557-1.531 6.823-.497 2.316-1.603 4.433-2.228 6.544-.315 1.063-.396 2.27-.696 3.342-.795 2.841-2.065 5.602-3.063 8.354-.999 2.756-2.185 5.38-3.342 7.937-2.379 5.259-5.056 10.329-8.354 14.342-4.386-2.164-7.664-5.894-11.278-9.189-3.529-3.218-7.265-6.404-10.165-10.165-2.918-3.782-6.05-7.56-8.634-11.696-1.275-2.042-2.765-4.027-4.177-5.987-.719-.998-1.382-2.009-2.089-3.063-.655-.977-1.604-1.812-2.228-2.784-2.049-3.199-3.354-6.867-5.709-9.887-.579-3.028-2.323-5.722-3.481-8.771-.546-1.441-1.066-3.026-1.531-4.596-1.781-6.01-3.845-12.981-5.431-19.634-.271-1.132-.353-2.587-.696-3.898-.312-1.196-.999-2.429-.975-3.342.02-.712.553-1.312.279-1.949 3.044-3.592 7.891-5.383 11.975-7.937 3.304-.812 6.303-2.794 9.886-3.76 3.414-.92 6.993-1.983 10.722-2.785 1.632-.35 3.439-.328 5.152-.557 2.615-.349 5.262-.925 8.215-1.114 10.876-.696 20.655 1.009 29.658 2.228z" fill="#bdc3c7"/><path d="m150.302 79.828c.714.738.849 2.171.14 2.924-2.359 2.506-4.489-3.768-.14-2.924zm-1.253 2.089c.549.085.616-.312.696-.696-.179-.008-.193-.179-.418-.14-.122.248-.388.355-.278.836z" fill="#2c3e50"/><path d="m149.328 81.081c.225-.039.239.132.418.14-.08.385-.147.781-.696.696-.111-.481.155-.588.278-.836z" fill="#fff"/><path d="m156.708 148.893c.386 1.066.062 3.54 1.531 3.063.451-.673-.458-1.814-.139-2.367 2.062 1.001 4.2 1.926 5.987 3.202-6.595-.052-12.918-.239-18.937-.418-1.974-.058-3.669.229-5.013-.557-.458-4.2-1.263-9.582-.557-13.089 6.415 2.684 11.158 7.039 17.128 10.166z" fill="#e67e22"/><path d="m172.164 156.133c.133.836 1.131 1.839.557 2.507-.372-.277-.424-.876-.557-1.393-.689-.016-.969-.979-1.531-1.254-.979-.478-2.978-.457-4.316-.557-3.835-.283-8.539-.012-11.558-.418-.627.023-.438.862-1.114.836-1.098-.085-1.801.063-2.646-.418-2.396.006-5.713-.467-8.633-.418-.753.014-2.19.537-1.949-.835 1.193-.688 2.532-.195 3.899-.14 6.99.286 15.3.166 21.582.558 1.876-1.502 4.07 1.21 6.266 1.532z" fill="#d35400"/><path d="m145.429 156.689c-2.103 2.229-1.147 7.562-1.811 10.861-.759-.354-2.312.086-3.063-.278-.037-3.441-.27-6.753-.139-10.583 1.558-.12 3.688-.485 5.013 0z" fill="#d35400"/><path d="m170.214 157.386c.13.566.522.871.557 1.532-4.574-.61-9.617-.732-13.506-1.671-1.078.299-.673 2.4-.558 3.48-2.29 2.475-.713 7.821 3.76 7.381.503-.05.991-.399 1.671-.418.87-.023 2.002.219 3.063.278 1.955.109 5.534-.217 6.962.696-.229.549-.669.393-.975.418-1.354.112-2.831.21-4.456.417-2.368.303-4.636-.559-6.822-.417-1.674.107-3.329.935-4.874.139-.625-3.881-1.712-9.452.557-12.671 5.205.33 9.397.58 14.621.836z" fill="#d35400"/><path d="m152.948 158.918c-.021 1.045-.361 1.773-.278 2.924-1.124.156-2.376-.333-3.342 0-1.321.456-1.816 2.288-1.253 3.899 1.812.387 3.498-.471 4.734-1.114.041.841.297 1.467.278 2.367-2.987 5.011-.305 13.326-.696 19.633-.126 2.027-.662 4.265-1.671 5.987-2.15.25-4.603.213-5.569-1.114.858-.95 2.107-1.478 2.367-3.341.501-3.61-1.076-8.768-1.393-11.976-.101-1.019.14-2.092 0-3.063-.134-.928-.503-1.672-.557-2.506-.238-3.647-.517-6.617.139-11 .431-2.885 5.031-1.431 7.241-.696zm-5.152 12.81c-.195.942.605 2.373 1.81 2.089 1.067-.251.746-1.979 1.393-2.924-1.067-.678-2.943-.417-3.203.835zm2.228 13.368c1.952.231 2.079-3.282.14-2.924-1.588.293-1.697 2.738-.14 2.924z" fill="#d35400"/><path d="m175.366 167.134c-1.901-.381-3.134.19-4.455-.836-1.722.561-3.798-.173-5.849.139.006-.644.879-.42.975-.975.764-5.163-4.833-3.554-8.075-4.316-.048-.405-.146-1.229 0-1.671 4.128-.104 10.029 1.486 14.062.558.649.186 1.212.46 1.811.695.812 1.884 2.053 3.998 1.531 6.406zm-6.406-5.153c-2.392.133-1.778 3.305 0 3.48.797.079.819-.693 1.672-.417 1.302-.992.587-3.727-.975-3.899-.108.031-.275.004-.279.14-.356.014-.223.519-.418.696z" fill="#d35400"/><path d="m169.378 161.285c.004-.136.171-.108.279-.14 1.562.173 2.276 2.907.975 3.899-.853-.276-.875.496-1.672.417-1.778-.176-2.392-3.348 0-3.48.195-.177.062-.682.418-.696zm-.696 2.507c.25.387 1.282.387 1.532 0-.035-.754-.201-1.378-.975-1.393.215.864-.507.792-.557 1.393z" fill="#2c3e50"/><path d="m169.24 162.399c.773.015.939.639.975 1.393-.25.387-1.282.387-1.532 0 .049-.601.771-.529.557-1.393z" fill="#d35400"/><path d="m151.695 163.096c.164 1.509-1.556 1.136-2.367 1.671-.333-.436.131-1.004.278-1.393 1.125.064 1.334-1.011 2.089-.278z" fill="#e67e22"/><path d="m164.505 163.652c.138.326.244.684.278 1.114-1.275.351-3.432-.043-5.152-.14-1.078-.061-2.777-.114-2.646-1.531 1.95-.314 5.047.482 7.52.557z" fill="#d35400"/><path d="m158.378 166.02h2.507c-.435.495-2.002.875-2.507 0z" fill="#e67e22"/><path d="m173.556 168.387h.278c.64.521.756 1.563.975 2.506 1.394 3.248 2.623 6.66 3.898 10.025-6.328-3.419-12.216-7.277-19.354-9.886.8-.661 1.62-.072 2.507 0 3.497.283 7.658-.227 11.14-.558.428-.452.33-1.432.556-2.087z" fill="#e67e22"/><path d="m143.897 169.222c-.143.882.404 1.674 0 2.367-1.128-1.007-2.624-1.646-4.315-2.089.574-1.123 3.29-.734 4.315-.278z" fill="#d35400"/><path d="m182.189 188.854c-1.479-.192-2.587-1.188-3.898-1.81-2.482-1.177-5.062-2.049-7.52-3.202-4.021-1.889-7.813-3.845-11.975-5.709-1.976-.886-4.154-1.48-5.709-3.064-.053-1.828.372-3.234.418-4.595.709.212 2.118 1.3 3.48.558 1.776 1.735 4.929 2.339 7.52 3.62.536.265.891.74 1.393.975 1.855.867 3.811 1.592 5.569 2.646 2.776 1.663 5.236 3.612 8.216 4.874 1.023 1.715 1.642 3.834 2.506 5.707z" fill="#d35400"/><path d="m150.999 170.893c-.646.945-.325 2.673-1.393 2.924-1.204.284-2.005-1.146-1.81-2.089.26-1.252 2.136-1.513 3.203-.835z" fill="#2c3e50"/><path d="m150.164 182.172c1.939-.358 1.812 3.155-.14 2.924-1.557-.186-1.448-2.631.14-2.924z" fill="#2c3e50"/><g fill="#ffe2d3"><path d="m168.822 40.841c-.738-.033-.107-.571-.418-.975-2.857.951-7.018 1.685-10.442.975-.515-.106-1.017-.572-1.532-.696-.712-.172-1.507-.034-2.229-.278-1.364-.463-2.737-1.444-4.177-2.089-4.151-1.861-8.511-4.442-11.139-7.38.055-1.129.1-1.655-.14-2.646 2.729.587 4.434-1.371 5.709-3.063-.102-1.103.362-1.883.418-2.646.222-3.094-1.117-7.374.696-10.025.842-1.231 4.368-3.388 5.987-3.76 2.435-.56 4.878.18 6.266 1.253 3.499 2.707 4.451 10.348 3.481 16.292-.055.328-.131 1.011-.279 1.531-.539 1.898-2.462 4.367-1.81 5.848 1.219 2.772 6.18 1.951 7.38-.278 1.339-2.488.157-7.324.417-11.139.236-3.456 1.372-7.221 2.646-7.381 3.163-.395 1.42 7.98 1.81 10.583.13.863.883 1.763.975 2.367.175 1.147-.386 2.084-.558 3.063-.162.932-.044 1.901-.277 2.784-.788 2.985-2.226 5.383-2.784 7.66zm-17.127-18.938c.605.749.177 2.041 1.671 2.089 3.051-1.47-.618-5.815-1.671-2.089zm19.076 7.659c1.312-.703.499-3.09-.278-3.759-3.305-.161-1.825 3.666.278 3.759z"/><path d="m141.948 49.612c2.354 1.73 4.289 3.88 6.962 5.292.072 5.053.44 10.115.558 14.898-1.929.841-5.244.63-7.24 0-.471-6.116-.132-12.657-.28-20.19z"/><path d="m178.011 86.372c-2.622 1.37-5.535 2.448-7.797 4.178-2.146-1.799-3.657-4.233-4.734-7.102-.518.091-.822.477-.557.975-.774-1.318-.649-3.425-.696-4.873.11-.446.8-.314.975-.696.079-2.833 3.604-5.461 5.709-2.924 1.407 4.44 4.343 7.352 7.1 10.442z"/><path d="m128.999 83.17c-.66 2.956-.561 6.305-.696 9.887-.068 1.817-.324 3.763-.278 5.569.065 2.562.243 4.97.278 7.658.021 1.629-.27 3.64-.278 5.57-.01 1.967-.432 4.702-.14 5.848.324 1.271 3.675 3.011 5.152 3.898 3.988 2.397 6.785 4.096 10.025 7.102 6.881 6.385 14.659 12.463 22.975 17.684 1.572.987 3.407 2.02 5.152 3.063 2.924 1.749 4.436 3.081 8.494 3.481 2.419.239 5.006.425 6.684.557 2.248 3.043 4.79 6.534 6.544 9.608-6.012-1.25-10.75-4.163-15.873-6.406-5.458-2.389-10.421-4.56-15.596-7.24-1.353-.7-2.69-1.459-4.038-2.088-1.371-.642-2.547-1.427-3.898-2.229-1.267-.751-2.738-1.4-3.899-2.228-.676-.482-1.117-1.111-1.81-1.532-4.676-2.841-9.969-5.507-15.178-8.075-4.453-2.928-10.092-4.669-12.671-9.469 1.799-6.745.278-16.05.278-24.507 0-3.222.098-6.788-.557-9.747-.131-.589-.584-1.098-.696-1.671-.441-2.248.247-4.118.557-5.987 2.061-3.479 8.053-2.336 9.469 1.254z"/><path d="m175.366 249.982c.838 1.437 2.361 2.188 4.456 2.367 1.117 10.532 1.783 22.323 2.507 33 .073 1.082.379 2.158.417 3.203.034.919-.299 1.884-.278 2.784.045 2.018.386 3.982.418 5.987.032 1.985.11 3.992 0 5.988-.065 1.188-.585 2.35.278 3.48 4.102.498 8.463-.097 11.697 1.671 1.238 1.348.65 3.207-.14 4.595-.433.265-1.077.316-1.253.836-5.543.924-11.175 1.956-16.849 1.114-.775-1.041-2.269-1.8-2.367-3.203-.119-1.69 1.666-3.258 1.949-4.734.407-2.125.285-4.938.14-7.38-.424-7.089-.431-14.549-.558-21.582-.122-6.8.238-14.095-.139-20.329-.137-2.263-.46-4.891-.278-7.797z"/><path d="m146.96 254.995c.275 4.517.613 9.581.14 13.925-.292 2.682.36 5.606.418 8.493.116 5.849-.019 11.124.278 16.152.159 2.709.576 5.406.418 7.797-.143 2.138-.776 4.451.835 6.127 1.857.15 3.317-1.339 5.709-1.393 3.069-.068 7.531.743 8.354 2.229.617 1.114.089 2.998-.139 4.595-6.114 2.504-17.025 4.114-22.279-.696-.359-4.072 3.406-4.02 3.481-7.658-.027-.686-.487-1.149-.558-2.089-.068-.914.145-1.917.14-2.924-.014-2.522.054-5.723 0-8.772-.069-3.899-.556-7.846-.835-11.836-.569-8.117-.832-16.432-.558-24.506-.006-.238.104-.361.278-.418 1.243.522 2.914.615 4.318.974z"/></g><path d="m159.075 273.793c.186-.268.618.159.976-.14.087.924-.755.428-.976.14z" fill="#2c3e50"/><path d="m95.989 146.427c.016.535-.252.698-.641.513-.017-.404.328-.441.641-.513z" fill="#fff"/><path d="m108.428 151.812c-.027 1.893-.191 3.004 0 4.617-2.051-1.54-3.332-3.85-5.643-5.13 1.313-.728 4.551-.491 5.643.513z" fill="#fff"/><path d="m101.375 175.409c-.654 1.749-2.994 3.914-5.129 4.617-1.543.508-2.598-.21-3.592-1.282 2.548-1.416 6.05-2.459 8.721-3.335z" fill="#c0392b"/><path d="m108.815 175.538c.441.949.141 2.25.383 3.591-1.771-.438-2.283 1.125-3.592 1.539 1.1-1.681 2.404-3.153 3.209-5.13z" fill="#c0392b"/><path d="m40.588 179.642c-.409.11-.396-.202-.642-.256.046-.426.79-.251.642.256z" fill="#fff"/><path d="m33.792 179.386c.663.021 1.105.263 1.282.77-.544-.141-1.193-.177-1.282-.77z" fill="#fff"/><path d="m109.456 181.181c-.574.127-1.471.654-1.926.128.564-.387 1.676-1.112 1.926-.128z" fill="#c0392b"/><path d="m120.997 190.158c.875.729 1.215 1.609 1.666 2.949-.273 3.617.355 6.009.129 9.361.959 2.981.32 7.39 1.283 9.746-.625.768-.021 1.108.129 1.925.039.218-.168.522-.129.641.1.297.371.193.383.514.025.557-.43.996-.383 1.667-.113.411.332.267.383.513-.232 1.894-.547 4.806 0 7.182-.066 2.266-.492 4.18 0 5.899-.416.024-.092.223-.254.641.494 4.089.117 8.807-.387 12.696-.557-.131-.336-.791-.127-1.154-.35-3.304-.533-7.318-.898-11.029-.07-.283.246-.183.258-.384-.25-1.462-.205-2.874-.129-4.36.176-3.414-.441-7.531-.129-10.389.254-2.3-.562-4.72-.641-7.054-.084-2.523-.086-5.019-.258-7.564-.266-3.95-.402-7.868-.896-11.8z" fill="#c0392b"/><path d="m39.434 217.089c.576 1.827.664 3.149-.129 4.872.312.173.08.258.257.386-.557.103-1.203 1.063-1.154 1.795-.63-.925-1.259-3.321.257-3.719.361-1.425.428-2.352.769-3.334z" fill="#fff"/><path d="m39.69 223.373c.659.883.574 3.71.643 4.488-.705 3.67-.033 6.56-.514 9.875-.054.371.384.77.385 1.154.001 1.122-.733 2.498-.385 3.975.279.577.559 1.151.514 2.053-.781.194-1.104.011-2.053.257.459-2.985-.322-6.547.257-8.977-.345-1.833.286-3.438-.386-5.388.689-2.079-.208-3.284 0-5.386.926-.273 1.085-1.309 1.539-2.051z" fill="#fff"/><path d="m50.976 227.733c.413.99.922 2.84.256 3.462-1.927-.015-2.918.117-4.873.513.122-.77.399-1.148-.128-1.668.248-.485.1-1.403-.257-2.179 1.318-.921 2.953-.041 5.002-.128z" fill="#bdc3c7"/><path d="m31.098 235.299c.334.415.063.684.385 1.154-1.475 1.254-1.212 3.347-2.437 4.617-.017.229.157.271.128.513-.725.365-.94 1.407-1.025 2.052.18.317.441.228.77.128.546-.677.844-1.519 1.153-2.308.302-.765.397-1.875 1.283-2.309.018 2.162.062 3.774-.129 5.899-1.562.112-3.691-.287-5.386-.257.411-2.434 2.227-2.755 2.437-5.258h.385c.827-1.739 1.352-2.789 2.436-4.231z" fill="#fff"/><path d="m94.579 240.559c.352-.095.258.254.514.254-.045.17-.227.204-.258.387-.28-.02-.276-.325-.256-.641z" fill="#fff"/><path d="m31.868 249.406c.018 1.003.082 1.535.256 2.565-4.248.918-9.529.118-13.337 1.538-.063.404.28.501 0 .77-1.083-1.436-2.489-4.519-1.282-6.027.785-.983 1.943-.905 2.949-1.796.608.362 1.711.375 2.309-.256.744.481 1.127.329 1.924 0 .036.207-.121.221-.129.385 2.395-.629 4.838-.056 7.182 0 .158.362.158.791 0 1.153-3.941.048-7.467 1.742-11.67 1.282-2.008 2.185 2.886 1.589 3.206 1.54 2.997-.402 5.191-1.46 8.592-1.154z" fill="#c0392b"/><path d="m116.25 247.354c.27-.055.342.087.514.128-.1.114-.137.29-.127.513-.265-.076-.486-.197-.387-.641z" fill="#fff"/><path d="m104.454 299.165c.467-.082.158.61.512.641-.243.356-.569-.277-.512-.641z" fill="#fff"/><path d="m19.685 305.191h.257c-.024.109.049.122.127.129v.256c-.109-.023-.121.05-.127.129-.086 0-.172 0-.257 0 .023-.108-.051-.121-.129-.129 0-.085 0-.17 0-.256.11.024.121-.05.129-.129z" fill="#fff"/><path d="m115.227 314.041c.098-.254.824-.069.768.256-.444.101-.541-.143-.768-.256z" fill="#fff"/><path d="m133.051 167.458c-.348-.521-.162-1.051-.256-1.538-.443-2.261-2.037-2.859-5.002-2.565-.477.251-.824.629-1.41.77-.459 2.095-.264 5.128 1.41 6.925.363.39.928.517 1.281.898.658.71 1.033 1.499 1.668 2.052 1.676.429 2.203 1.548 3.848 1.796 1.234.186 2.646-.336 3.848-.77 4.229-1.529 7.686-6.563 7.822-12.056.068-2.738-.092-6.087-1.154-8.464-.098-.217-.426-.413-.512-.641-.504-1.307-.648-2.604-1.283-3.72-1.639-2.882-3.836-5.255-6.797-6.541-3.646.145-6.105-.765-9.617-.769-.412.06-.453.488-.898.513-6.168-.363-12.188.657-17.824.642-1.537-.005-2.85.206-4.363.385-2.318.273-5.424.697-7.053.256-2.531.812-6.354-.141-8.85 1.026-1.449 1.616-1.026 5.516.641 6.54 1.273.439 2.676.747 4.361.77 1.859.696 4.697 1.434 6.541 2.564.625.786 1.287 1.537 1.924 2.309 2.762 4.138 3.291 12.642.256 17.186-.15-.708.221-.892.256-1.411h-1.281c-2.453 1.564-6.051 1.985-8.594 3.462-.215-1.688-1.232-3.536-3.59-3.205-2.263.947-2.476 4.019-2.691 6.669-3.103 2.284-7.537 3.236-10.773 5.386-1.972.599-3.739 1.159-5.515 2.18h-.77c-1.703 1.41-4.526 1.664-6.027 2.95-1.128.196-2.176.476-2.821 1.154-1.045.277-2.552.672-3.592 1.539-2.757 1.189-5.217 1.885-7.821 3.205-.339.963-1.48 1.06-2.693 1.411-.192-2.144-.468-3.61-.642-5.643-.186-2.174-.178-5.557-.257-7.695-.044-1.208-.081-2.091.642-2.564 2.353.145 4.716-.608 6.54-1.282.505-.594.637-1.22 1.283-1.411 1.899-2.462 1.147-7.976-2.95-7.693-1.242-.656-2.535-1.886-4.104-1.796-4.219-1.812-5.801-5.016-11.541-4.617-1.819 1.322-3.941 1.906-5.002 3.462-.385.564-.381 1.356-.514 1.796-.086.284-.506.466-.641.769-.541 1.225-.145 1.835-.129 2.693.042 2.242.188 2.989 1.539 4.489 1.107 1.229 2.477 1.786 3.848 2.181 1.362.391 2.373.965 3.847.641.028.101.108.148.257.128 1.855 3.572.571 7.549.642 11.413.053 2.934.241 5.529.513 8.08-.416.384.014.263 0 .643-.092 2.434-1.945 3.777-2.564 6.155-.242-.029-.283.143-.514.128.332.523-.424 1.206-.77 1.025-1.687-3.7-3.417-7.355-6.027-10.13-.531.146-.5-.271-.897-.258.109-.409-.202-.396-.257-.641-.639-.205-1.016-1.103-1.666-.897-1.129-1.177-2.895-2.071-4.746-2.438-1.473-.291-3.331-.646-4.873-.256-1.494.378-3.639 1.97-4.617 2.693-.316.233-.831.635-1.153.897-.519.421-.868.977-1.411 1.282-.151 1.217-1.248 1.487-1.154 2.949-.781.244-.815 1.237-1.539 1.539-1.521 6.099-3.484 13.021-4.104 18.853-.501.221-.664 1.271-.128 1.153-.96.955-.483 3.39-.77 5.258-.138.896-.06 1.695-.128 2.565-.065.813-.521 1.554-.642 2.437-.919 6.754-.757 13.358-.642 20.262-.432.22-.141.814-.128 1.283.035 1.274-.499 2.898-.257 3.975.037.166.372.459.385.643.025.347-.262.821-.256 1.153.055 3.521.869 7.267 1.539 10.772.258 1.352.37 2.71.769 3.976.284.214.321.348.514.384-.433.47.229.99.384 1.668.304 1.316.397 3.073.514 4.233.727 1.013.91 2.786 1.154 4.359.861.739.355 2.351 1.282 3.335-.056.244-.276.321-.257.641.885 1.915 1.049 4.374 1.924 6.541.221.051.329-.191.385 0 .085 1.466 1.155 2.118 1.668 3.847.893.562 1.151 1.996 2.18 2.052.873 1.692 2.925 2.205 4.359 3.334.317.017.619.021.771-.128-.296.311.339.415.641.513.052-.22-.19-.328 0-.385.519.964 1.591.008 2.181.898.439-.546 1.533-.055 1.539-.643.646.494 1.25-.525 2.18.129-.267-.616.414-.222.641-.385.288-.205.369-.612.643-.769.433-.25 1.087-.23 1.41-.514.105-.093-.062-.441 0-.513.246-.286.722.004.513-.514.337.524.917-.618 1.026-.769.154.027.078.142 0 .256 3.492-3.541 5.338-8.002 6.925-13.337.839-.231 2.302.594 2.821-.129.17.258.569.285.898.386.305-.352.564-.006.896-.386 2.023.419 3.803-.45 5.9-.127.252-.518.809-.729 1.281-1.026.188-2.14.774-6.438 0-9.105.429-1.545-.121-3.329-.127-5.13.631-.605.721-1.369 1.41-1.41.01-.224-.029-.399-.129-.514.945-.517 1.659-2.354 2.438-3.463-.074-.86.59-1.249.513-2.437.487-.068.126-.984.513-1.154.359-3.882.49-7.708-.128-12.054-.571-1.998-1.764-4.045-2.309-5.644.362-.105.333.181.642.129-.039-.421.176-.578.77-.642 3.068-4.614 7.361-7.967 10.387-11.669.646.269.906-1.018 1.539-1.668.417-.43 1.376-.443.77-.897.416.059.762-.472.77-.771.338.393.432-.52.771-.127.226-.843 1.007-1.131 1.666-1.54.121-1.324 2.457-1.848 2.693-3.462.693.121.796-.883 1.283-1.283 1.038-.854 1.639-1.973 2.564-2.949.267-.281.745-.37 1.025-.641 2.238-2.165 4.395-4.764 6.028-7.055.694-.031.684-.77 1.281-.896.895-1.757 2.464-2.837 3.464-4.49 1.756-1.421 2.893-2.806 4.231-4.744 3.982-4.098 8.18-7.978 12.439-11.797.025-.409.488-1.042.77-.771-.207.39-.463.734-.898.897-.271 2.348-1.986 4.207-1.924 6.797-.225.115-.375.31-.641.385-1.674 5.003-2.637 9.924-3.076 15.774-.613 1.497-.928 3.44-.771 5.515-.711 1.238-.273 3.033-.512 4.488-.172 1.039-.936 1.47-.258 2.308-.188-.184-.406-.098-.385.257.182 1.754-.592 2.262-.127 3.72.018.318-.203.396-.258.641.566 1.164-.418 2.696.385 3.462-.201.014-.443-.017-.385.257.375 1.547-.479 3.063.258 4.232-.176.738-.26 2.479-.129 3.59.051.425.342.781.387 1.155-.006-.025-.266.063-.258.257.016.492.387 1.26.383 1.795-.008 1.626-.246 3.2.129 4.745-.279-.023-.408.105-.385.385.697 1.861-.117 3.422.771 5.258-.266.249-.203.826-.387 1.154.342 1.557.588 3.078.643 4.36.129 2.99 1.402 6.005 1.539 9.362.316.279.312.883.641 1.153-.213 1.631.312 3.352.77 5.13.006.592-.057 1.254.127 1.668-.039.4.371-.327.387.127.111 1.311-.035 2.319.641 3.207.699 4.116 1.756 7.692 2.82 11.926.486.668.893 1.416 1.027 2.438.238.018.428.084.512.256.117 1.294 1.105 1.715 1.283 2.95.068.538-.225.716-.258 1.153 2.365 4.329 5.734 7.157 8.721 10.645 1.857 1.245 3.176 1.639 5.516 1.796 3.885-1.586 7.398-3.013 10.002-6.027 2.121-1.343 2.74-4.186 4.361-6.027 3.094-5.276 4.365-11.761 6.154-18.211 1.652-5.954 2.156-12.366 2.309-19.365.078-3.558.016-7.369.514-11.157.338-2.565.738-5.378.512-8.207-.287-3.584-.424-8.97-1.152-12.697.287-.053.004-.68.254-.769-.617-.866-.404-2.337-.512-3.591-.145-1.694-.742-3.326-1.025-5.129-1.152-7.338-2.129-14.58-3.846-20.905-1.188-4.221-.939-8.29-2.566-11.67-.305-.633-.891-1.033-1.154-1.538-1.623-3.118-5.016-5.804-7.566-7.95-1.486-.737-3.09-1.358-3.848-2.822-.932-.372-1.994-.033-2.949-.514.443-9.064-1.984-16.047-1.795-23.084.045-1.697.096-4.568.898-5.514.699-.103.838-.103 1.537 0 1.66-1.023 5.107-.671 7.055-1.282 2.023.565 4.918.563 6.668 1.538.363.106.332-.18.641-.128 2.533 1.222 5.854 3.119 6.926 6.027 1.252 3.401.225 6.885-1.283 9.618-1.453.703-4.434 2.136-5.52.514zm-37.703-20.519c-.018-.403.328-.44.641-.513.015.536-.252.699-.641.513zm-61.556 32.447c.663.021 1.105.263 1.282.77-.544-.141-1.193-.177-1.282-.77zm61.042 61.813c-.279-.02-.275-.324-.256-.641.352-.095.258.254.514.254-.045.17-.226.205-.258.387zm7.952-89.899c1.312-.729 4.551-.492 5.643.513-.027 1.893-.191 3.004 0 4.617-2.052-1.54-3.333-3.85-5.643-5.13zm2.82 29.368c1.1-1.681 2.404-3.153 3.209-5.13.441.949.141 2.25.383 3.591-1.772-.438-2.283 1.125-3.592 1.539zm3.85.513c-.574.127-1.471.654-1.926.128.564-.387 1.676-1.112 1.926-.128zm-8.081-5.772c-.654 1.749-2.994 3.914-5.129 4.617-1.543.508-2.598-.21-3.592-1.282 2.548-1.416 6.05-2.459 8.721-3.335zm-12.826 11.799c.24-.231.473-.471.387-1.026 1.293.298 2.414 1.281 3.975.771 1.682.669 3.24.127 4.746-.257.102.444-.191.492-.129.897-1.566 1.383-2.896 3.003-4.104 4.745-1.037.737-1.877 1.357-2.822 2.438-.189.216-.166.661-.385.896-.203.225-.516.204-.641.385-.49.712-.889 1.16-1.539 1.795-.741.729-1.122 1.579-1.794 2.565-.4.588-1.137.948-1.539 1.54-.24.352-.142.812-.385 1.152-.287.402-.956.501-1.027 1.283-3.454 3.001-5.737 7.172-9.233 10.131-1.42 1.828-3.398 3.1-5.001 4.744-.102.241-.214.472-.257.771-1.105.52-1.965 1.284-2.308 2.565-.427.215-.694.588-1.154.77-.647 1.914-2.587 2.541-3.334 4.36-.169-.154-.202-.051-.386 0-1.441 1.637-2.824 2.552-3.975 4.488-1.994 1.768-3.819 3.705-5.9 5.386.247.347-.229.067-.256.641-1.648.747-2.658 2.129-4.104 3.079-.23.016-.271-.157-.514-.128-.425-3.374-.601-5.535-.256-8.208-.045-.147-.227-.325-.257-.129-.229-.487.712.021.898.257 1.529-.48 3.019-.791 4.744-.384 1.578-1.175.987-4.39.257-6.285-1.893-.588-3.76-.967-6.027-.77-.017-5.923.27-13.663.77-21.16.663-.278 1.457-.624 2.052-1.282 3.21-1.276 6.896-2.798 10.261-3.848.845-.496 3.195-1.416 4.871-1.923.497-.15.955-.401 1.412-.514.674-.165 1.727-.641 2.308-.897.441-.194.965-.24 1.539-.513 2.215-1.049 4.998-2.479 7.182-3.591.977-.099 1.824-.377 2.694-1.154 2.231-.421 4.142-1.694 6.155-1.924.956-.625 1.947-1.216 3.076-1.666zm-42.575 40.653c1.317-.921 2.953-.041 5.002-.128.413.99.922 2.84.256 3.462-1.927-.015-2.918.117-4.873.513.122-.77.399-1.148-.128-1.668.248-.485.1-1.403-.257-2.179zm-5.386-48.219c-.409.11-.396-.202-.642-.256.046-.426.79-.251.642.256zm-9.233 98.106c-.611 2.61-1.086 5.706-1.411 8.977-1.872 5.259-2.902 11.254-8.977 11.927-.621.069-1.389.01-2.309.256-3.363-2.209-5.755-6.208-7.182-9.232-.113-1.881-1.646-3.429-1.796-5.387-.075-.267-.246-.438-.513-.512.115-1.505-.522-2.986-1.154-4.36.046-.378.072-.801 0-1.154-.071-.352-.244-.069-.385-.386-.216-.488.012-1.927-.256-2.949-.123-.468-.454-.828-.514-1.153-.147-.813.109-1.872 0-2.822-.112-.981-.348-1.789-.513-2.692-.433-2.367.023-5-.257-6.798-.073-.474-.477-1.003 0-1.668-.462-.581-.348-2.354-.128-3.205-.124.004-.1.156-.128.256-.135-.9.385-3.092-.385-3.718.396-2.836-.031-5.932 0-8.85.012-1.085.18-2.129.129-3.206-.061-1.242.396-2.384.512-3.591.098-1.004-.361-2.062.385-2.949.096-.396-.352-.247-.256-.642.452-.418.483-1.839.385-2.95.104.025.128.129.256.129.083-2.689.914-4.794.898-7.951 1.08-4.203 1.949-8.903 3.077-13.08.562-1.338 1.745-2.678 1.796-4.104.374.032.441-.241.641-.384 1.08-1.746 2.438-3.593 4.488-3.977.638.287 1.297-.142 2.053-.129 1.73.031 3.508.982 4.744 1.412 2.879 4.237 4.118 9.152 4.232 15.645.145.369.27.757.514 1.026-.354.485-.58 1.691-1.026 1.667-.016.23.157.271.128.514-1.068.583-.844 2.267-1.924 3.077-.193 1.991-2.173 3.741-2.308 5.771-.321.106-.405.449-.642.641-.877 3.298-2.677 5.079-3.463 8.593-.487-.188-.025.572-.513.384-.278 1.51-1.337 3.241-2.052 5.003.068.103.135.208.129.384-.109.024-.121-.05-.129-.129-.919 1.332-1.826 2.769-2.052 4.617.544.902.106 3.238 1.539 3.848-.659 1.196 2.7 3.504 3.206 4.745h.513c.709.962 1.388 2.031 2.564 2.18 2.571 2.833 5.706 6.018 8.722 9.105-.003.384-.334.437-.385.77.211 2.796-.638 5.13-.253 7.051zm.384-31.163c.158.362.158.791 0 1.153-3.941.048-7.467 1.742-11.67 1.282-2.008 2.185 2.886 1.589 3.206 1.54 2.998-.402 5.192-1.461 8.593-1.154.018 1.003.082 1.535.256 2.565-4.248.918-9.529.118-13.337 1.538-.063.404.28.501 0 .77-1.083-1.436-2.489-4.519-1.282-6.027.785-.983 1.943-.905 2.949-1.796.608.362 1.711.375 2.309-.256.744.481 1.127.329 1.924 0 .036.207-.121.221-.129.385 2.394-.629 4.837-.056 7.181 0zm-2.565-5.002c-.725.365-.94 1.407-1.025 2.052.18.317.441.228.77.128.546-.677.844-1.519 1.153-2.308.302-.765.397-1.875 1.283-2.309.018 2.162.062 3.774-.129 5.899-1.562.112-3.691-.287-5.386-.257.411-2.434 2.227-2.755 2.437-5.258h.385c.827-1.74 1.353-2.79 2.437-4.232.334.415.063.684.385 1.154-1.475 1.254-1.212 3.347-2.437 4.617-.017.231.157.272.127.514zm2.181 25.008c-2.011-.896-2.707-3.108-4.617-4.104-1.14-2.034-3.203-2.514-4.36-4.36-.309.052-.279-.235-.641-.129-.575-1.263-1.791-1.885-2.565-2.948 1.992-.595 3.898-1.136 6.284-1.026-.031-.14-.256-.088-.256-.257.049-.618.375.283.512.384.239-.103.519-.165.643-.384 2.104.725 4.022-.617 5.77 0 .102 5.475-.608 8.181-.77 12.824zm18.467-12.441c.038.154.432 1.015.385.771.18.045.011.226-.129.257.591 2.32.421 5.321.386 7.053-.063 3.057-.727 7.431-3.335 10.131-.527-2.553.139-5.265-.513-7.951-.46-.106-.621.29-.897 0-1.327 1.312.647 4.243-.386 4.874.365.982.244 2.884-.064 4.197.116.738.115 1.495.047 2.241.051-.007.095-.025.146-.026.137.958-.008 1.411.257 2.18-.203 1.292-.15 2.967 0 4.489.052.522.37.88.385 1.282.03.894-.873 2.325-.257 3.592-.382.029-.168.524-.128.897-2.448.903-4.85.54-6.669.896-1.541.049-2.484-.017-4.104-.385-.24-.577-.341-1.146.128-1.539 1.498.524 3.057-.715 4.36 0 .766-.452 2.498-.044 3.591-.257 1.497-.62 1.633-2.192 1.154-3.719.104.024.128.129.257.129-.354-1.771-.13-4.309-.439-6.542-.091-.059-.171-.138-.213-.258-.33-.962-.197-1.971-.184-2.967.002-.134.047-.236.116-.313-.063-1.894.236-3.398-.307-4.796.045-.181.226-.012.257.128.137-1.773.177-2.089-.257-3.335-.646-.091-.882.23-1.282.386.344 2.236.15 5.768.256 8.72-.879.289-2.191-.544-3.334-.77-.525-.801-.969-1.681-1.796-2.18-.419-1.247-.97-2.364-1.538-3.464.033-1.395-.279-3.052-.257-4.615.016-1.094.533-2.191.257-2.821 1.113-4.154 2.198-9.189 5.514-12.056h.77c.697-.887 2.143-2.091 3.334-1.025.2-.367.254-.079.771-.129.12.315.079.553.384.77 1.447 1.027 2.727 3.686 3.334 6.155zm-6.925 31.037c-2.331.424-4.391.261-6.412.512.365-2.966.592-7.385 1.539-10.899 1.436.478 2.575 1.337 4.231 1.025.591.647.027 1.74.77 2.309-.914 1.791.101 4.437-.128 7.053zm-5.644-69.764c.475-.258.968-1.04 1.411-1.924.144 1.257-.369 3.575-1.154 5.258-.066-.789.027-1.722-.513-2.309-.063-.414.599-.759.256-1.025zm3.848 31.033c.057.113.112.229.257.258-.59.991-1.343 1.82-2.309 2.436.026-1.01.133-1.795.129-2.564.023-.146.128-.071.127 0 .434.132 1.326-.438 1.027.129.479.135.366-.319.769-.259zm-1.282-8.72c-.054.371.384.77.385 1.154.001 1.122-.733 2.498-.385 3.975.279.577.559 1.151.514 2.053-.781.194-1.104.011-2.053.257.459-2.985-.322-6.547.257-8.977-.345-1.833.286-3.438-.386-5.388.689-2.079-.208-3.284 0-5.386.926-.273 1.085-1.31 1.539-2.052.659.883.574 3.71.643 4.488-.706 3.671-.034 6.561-.514 9.876zm-.514-15.775c.312.173.08.258.257.386-.557.103-1.203 1.063-1.154 1.795-.63-.925-1.259-3.321.257-3.719.361-1.425.429-2.352.77-3.334.575 1.827.663 3.149-.13 4.872zm57.838-26.033c-.008 1.06-1.182.956-1.283 1.924-.207.036-.219-.121-.383-.128-1.424 1.486-3.447 2.369-4.361 4.36-1.67.896-2.867 2.263-3.591 4.104-1.194.345-1.634 1.444-2.18 2.436-2.424 1.338-3.576 3.947-5.643 5.644.027.219-.219.332 0 .385-.297.429-.944.509-.897 1.282-1.837.833-2.582 3.356-4.489 4.488.053.309-.234.279-.128.641-.716.651-1.562 1.176-1.925 2.181-.308-.052-.277.234-.641.129-2.924 4.024-5.567 6.752-9.489 9.746.162.761-.566.631-.385 1.411-.731.251-1.225.743-1.41 1.539-.863.121-1.292.675-1.541 1.41-1.035.322-2.398 1.906-2.819 2.821-.241.312-.466-.251-.257.385-.834-.068-1.709 1.353-1.924 1.924-2.164.999-3.021 3.305-4.874 4.616-.04.302-.202.481-.128.897-.992-1.015-2.319-1.698-3.205-2.821-1.496-.052-2.473-.405-3.72-.256-.223-3.035-.127-5.707-.642-7.823.208-3.991.294-7.52.258-11.156.359-.525-.443-1.719 0-2.822-.066-.319-.243-.526-.386-.769.48-1.084.111-2.231.897-2.95-.406-.058-.778-.652-.256-.898-.089-.401-.342-.167-.642-.128-.14-1.352-.038-2.055 0-3.463.034-1.287.131-3.294 0-3.847-.114-.479-.631-1.366-1.026-1.411-.838-.094-.719.906-1.538 1.027-.048.218.1.242.257.256-1.797 2.025-2.253 4.599-4.104 6.54.254.117.254.431 0 .128-.783 1.402-2.42 3.015-2.438 4.36-.262-.257-.342-.033-.514.129-.834 1.441-1.967 3.052-2.949 4.231-.02.584-.105.504 0 1.026-.686.146-1.213 1.277-1.282 2.437-1.577 1.978-3.214 4.559-3.72 7.182-.168.131-.473.125-.641.256.166 2.066-1.83 2.591-1.539 4.361-1.049-.008-.078 1.344-1.025 1.282-.133.859.119 1.335.77 1.411 1.035-.962 1.461-2.544 1.667-3.72.957-1.532 1.763-2.569 2.308-4.616.811-1.538 1.729-2.82 2.053-4.361.113-.1.289-.138.513-.128.743-1.938 1.503-3.452 2.821-5.13.477 1.605-.09 2.281.385 3.59.07.286-.245.184-.256.387.483 1.089-.078 1.2 0 2.692-.873 1.479-1.521 3.182-2.309 4.746-.821.718-1.519 2.241-1.668 3.205-.277.652-1.235 1.046-1.41 1.41-.025.055.219.308.256.257-.5.676-1.293 1.021-1.666 2.309-1.576-.411-3.904.339-5.131.256.094-1.133 1.283-2.049.771-2.692 1.247-1.914 2.249-4.002 2.821-6.284 1.012-1.691 2.062-3.303 2.564-5.771.566-.147 1.136-1.413.77-1.668.094-.229.233-.018.385 0 .867-2.853 2.54-4.897 3.463-7.694 2.078-2.039 3.337-5.39 4.616-7.822.479-.248.858-.595.897-1.283-.023-.146-.129-.071-.128 0-.271-.188.135-.271.385-.128 1.878-2.688 2.73-5.341 4.745-7.695-.178-.769.648-1.432.513-2.564-.03-.226-.221-.292-.513-.257-.123-.792-.059-1.07-.129-2.179.229-.158.676-.095.77-.386-1.293-3.439-.42-8.519-.512-12.696-.035-1.547.37-3.416-.771-4.231 1.001-.545 2.826-.237 3.976-.257.012.364.363 1.183-.128 1.412.368 1.038-.171 2.269.128 4.359.104.725.242.89.129 1.539-.361 2.054.331 5.006.513 6.924.009.097-.258.365-.257.386.059.773.116 2.374.642 2.822.233.198 1.222-.109 1.282.641 3.645-.588 4.95-3.514 8.849-3.849.008-.384.919-.525.77-.641.462-.14.675-.017 1.283-.256.149-.06.138-.318.257-.385 2.664-1.491 6.241-2.287 8.977-3.977.573.111 1.685-.256 2.052-.769 1.886-.416 3.694-1.763 6.412-2.309 3.347-1.989 7.85-2.994 11.286-5.386.771 1.237 1.394 2.622 2.564 3.463-1.452 1.095-3.878 1.539-5.644 2.82h-.769c-.52.379-1.32.476-1.667 1.026-.438-.17-1.447.054-1.54.642-1.443-.009-2.256.805-3.976 1.281-.04.172-.221.3-.385.643-3.797.562-5.815 2.904-9.489 3.59-.45-.022-.422.433-.77.513-1.654-.029-2.542.708-3.335 1.539-2.177.305-4.408 1.002-6.027 2.31-.754-.416-1.601.514-2.18.256-.865 1.263-2.96.571-3.335 1.923-1.186-.533-1.932 1.218-3.462 1.154-.242.015-.089.426-.386.386.018 5.974-.451 10.072-.127 14.747-.236.537-.295 1.099 0 1.667-.34 1.928-.612 4.12-.514 6.412.043 1.007.105 2.215.641 2.821-.03.331-.221-.175-.513 0 .872 3.855.005 7.1.513 10.772-1.12.979 1.043 3.114.258 4.233.059.496.707.402 1.025.641 1.065-.986 1.492-2.61 3.078-3.078.393-2.32 3.324-3.042 4.359-5.129-.106.63.627.121.129-.129.613-.091 1.518-.83 1.668-1.796.318.015.396.241.641 0-.01-.06-.034-.076-.059-.077-.021.024-.048.053-.07.077 0-.041.036-.078.07-.077 1.672-1.858 3.896-4.215 5.701-6.335.574-.078.572-.413.898-1.025 1.384-.41 2.156-1.433 2.691-2.693 1.149-.946 2.301-1.889 2.823-3.463.809-.267 1.594-.921 1.667-1.538.783-.113 1.097-.698 1.409-1.283 3.339-2.048 5.432-5.34 8.208-7.95 1.552-2.724 4.088-4.464 5.644-7.183 1.55-1.228 2.16-3.396 3.845-4.488 1.508-2.555 3.953-4.17 5.516-6.668.115-.101.291-.139.514-.128.195-.616.873-.751.898-1.54.424-.209 1.984-1.724 2.691-2.565.816-.971 1.492-2.281 2.053-3.333 1.576-.863 2.832-2.721 4.232-3.335-1.137 1.878-.848 5.219-.77 7.311-2.909 1.957-4.324 5.417-7.306 7.308zm7.311 103.237c.467-.082.158.61.512.641-.243.356-.569-.277-.512-.641zm10.773 14.876c.098-.254.824-.069.768.256-.444.101-.541-.143-.768-.256zm8.719-119.651c1.805 2.812 3.146 6.088 4.232 9.618.371-.281.248 1.34.896 1.54.025 2.065 1.346 3.991 1.668 6.026.258 1.638.561 3.47.898 5.13.256 1.258.715 2.562.77 3.719.037.819-.174 1.627-.129 2.438.068 1.215.422 2.382.641 3.59.18.981.023 2.03.129 3.078.068.67.438 1.375.514 2.052.141 1.241-.115 2.492 0 3.719.033.352.338.672.385 1.026.059.457-.145.968-.129 1.411.131 3.451.371 7.138.385 10.644.018 4.611-.232 9.305.514 13.979-.523 1.271.141 2.461-.387 3.719.545 4.138-.197 8.325-1.023 13.081-.779 4.464-1.68 9.837-3.977 13.466-.779 3.658-2.602 5.665-3.848 8.977-1.789 2.484-4.16 5.472-7.822 5.259-.4.06-.41-.274-.385-.642-2.855-.779-4.67-2.598-6.285-4.617-1.189-3.768-2.93-6.986-3.975-10.899-.094-.12-.234-.195-.385-.258-1.793-6.397-3.344-13.446-4.232-20.775-.518-4.261-.926-8.529-1.666-12.439-.107-1.569-.314-3.557-.643-5.257-.025-.142-.514-1.014-.514-1.027-.01-.29.787-1.042.387-1.538.049-.434-.223-.547-.387-.77.078-2.955-.271-6.46-.512-8.977.117-1.812.32-4.197 0-5.771.533-2.647.66-5.48.77-8.336.23-5.947 1.279-11.885 2.693-17.697-.033-.418.398-.371.512-.642.248-2.348.939-3.747 1.668-5.771.973 6.881.928 12.334 1.154 19.237.012.33.207.433.258.77.215 1.452-.533 3.113.254 4.745-.018.408-.289.564-.254 1.026-.182.648.588.351.512.897-.104.11-.35.076-.385.256.219.815.439 2.438.127 3.206.021.151.234.109.387.128-.422 4.729.059 8.336 0 13.21.137.503.871.409 1.283.641.928 2.935 4.822.438 6.668 1.411.105 1.644.391 3.078 1.795 3.847 1.244-.464 1.289-2.131 1.537-3.591 2.105-.691 4.32-1.501 6.541-1.41.529-.368.562-1.234 1.027-1.667-.162-5.477.779-9.312-.129-14.877.666-6.176-.205-13.743-.383-19.364-.047-1.428-.193-2.954-.387-4.359-.53-3.887-.934-7.654-.768-11.162zm-7.696 52.964c.27-.055.342.087.514.128-.1.114-.137.29-.127.513-.265-.076-.486-.197-.387-.641zm6.413-54.247c-.273 3.617.355 6.009.129 9.361.959 2.981.32 7.39 1.283 9.746-.625.768-.021 1.108.129 1.925.039.218-.168.522-.129.641.1.297.371.193.383.514.025.557-.43.996-.383 1.667-.113.411.332.267.383.513-.232 1.894-.547 4.806 0 7.182-.066 2.266-.492 4.18 0 5.899-.416.024-.092.223-.254.641.494 4.089.117 8.807-.387 12.696-.557-.131-.336-.791-.127-1.154-.35-3.304-.533-7.318-.898-11.029-.07-.283.246-.183.258-.384-.25-1.462-.205-2.874-.129-4.36.176-3.414-.441-7.531-.129-10.389.254-2.3-.562-4.72-.641-7.054-.084-2.523-.086-5.019-.258-7.564-.266-3.949-.402-7.867-.896-11.799.875.729 1.214 1.609 1.666 2.948zm-4.104-4.874c.188 1.054.777 1.704.898 2.822-.021.277.455.058.641.129.021.361-.361.32-.512.512.643 4.753 1.346 10.733 1.152 15.005.557 2.78-.182 6.591.898 9.233-.039.303-.445.238-.385.641.287 3.614-.238 7.091.385 11.029-.627 2.59.592 5.189-.256 7.439.627 2.436.275 5.467.77 8.207-.982-.124-2.662.525-3.719.512-.562-.504-.555-1.58-1.281-1.923-.541-.155-.562.207-.9.257-.199-.356-.314-.797-.641-1.026-1.416.524-.746 2.632-1.025 3.462-.109.024-.121-.05-.127-.127-.406-.747-1.568-1.136-2.566-.897-.221-.924.162-2.167-.385-3.079.656-.938.135-2.463 0-3.59.119-6.567-.371-11.566-.256-18.853.07-.284-.244-.182-.258-.385 1.092-8.115-.557-17.424-.129-26.675 2.079-1.379 4.768-3.724 7.696-2.693zm-3.332-38.215c-.391 2.184-.635 4.272-.643 6.54-.027 6.962 1.916 13.894 1.795 20.904-.018 1.053.342 2.36.258 3.719-.66.195-1.277.434-1.668.897-1.1-.159-1.604.277-2.564.257-.455.56-1.271.384-1.795 1.024-.537.658-.775 2.642-1.027 3.977-.094.505-.26 1.47-.256 1.796.014 1.006.402 2.185.385 3.078-.01.458-.535.87 0 1.153-.219 1.485-.537 4.399 0 6.541-.344.53-.322 2.067.256 2.436.039.338-.498.103-.385.515.25 2.856.43 5.375.256 8.977-.02.172.203.706.258.384-.717 4.667.102 9.349-.385 14.749.027.185.381.044.385.257-.199.211-.559 1.178.127 1.153-.438.443-.484.774-.385 1.539.109.023.123-.05.129-.127.129.758-.363 3.61.643 4.871-.084.346-.369.488-.514.771.086.34.244.61.385.897-.461 2.571-.213 6.192 0 9.104-.414-.027-.543.228-1.025.129-.967-.964-.004-2.4-1.281-2.949-.125-3.426.123-7.179-.129-10.645-.217-2.94-.545-6.606-.643-10.004-.039-1.403.182-2.738.127-4.103-.023-.659-.457-1.251-.512-1.924-.029-.365.256-.787.256-1.154.006-1.13-.26-2.333-.385-3.334-.172-1.387.291-3.229-.256-4.36-.02-.318.201-.396.256-.641-1.082-7.219-1.027-14.948-.768-22.828 1.176-.67 2.891-.862 4.359-.641.453-.473.807-1.816.77-2.821-.021-.566-.359-.848-.512-1.411-.439-1.606-.213-3.386-.387-4.873-.166-.178-.557-.127-.896-.129.475-.852.539-2.109 1.025-2.949-.092-1.463.781-2.769 0-3.206.725-1.867.477-5.864-.514-7.566.396-3.163.371-6.899-.385-9.747-.689.104-.883-.522-1.408-.897-1.291.007-2.566-.137-4.105-.128-.268-.945-.91-2.149-.514-3.335 6.623-.21 13.145-.828 18.98-.897.219 1.15.709 2.027.77 3.335-2.719.81-5.599.736-8.078 1.666z" fill="#2c3e50"/><path d="m19.556 305.32v.256c.078.008.152.021.129.129h.257c.006-.079.018-.152.127-.129 0-.085 0-.17 0-.256-.078-.007-.151-.02-.127-.129-.086 0-.172 0-.257 0-.008.079-.019.153-.129.129z" fill="#2c3e50"/><path d="m110.61 234.657c-.084.346-.369.488-.514.771.086.34.244.61.385.897-.461 2.571-.213 6.192 0 9.104-.414-.027-.543.228-1.025.129-.967-.964-.004-2.4-1.281-2.949-.125-3.426.123-7.179-.129-10.645-.217-2.94-.545-6.606-.643-10.004-.039-1.403.182-2.738.127-4.103-.023-.659-.457-1.251-.512-1.924-.029-.365.256-.787.256-1.154.006-1.13-.26-2.333-.385-3.334-.172-1.387.291-3.229-.256-4.36-.02-.318.201-.396.256-.641-1.082-7.219-1.027-14.948-.768-22.828 1.176-.67 2.891-.862 4.359-.641.453-.473.807-1.816.77-2.821-.021-.566-.359-.848-.512-1.411-.439-1.606-.213-3.386-.387-4.873-.166-.178-.557-.127-.896-.129.475-.852.539-2.109 1.025-2.949-.092-1.463.781-2.769 0-3.206.725-1.867.477-5.864-.514-7.566.396-3.163.371-6.899-.385-9.747-.689.104-.883-.522-1.408-.897-1.291.007-2.566-.137-4.105-.128-.268-.945-.91-2.149-.514-3.335 6.623-.21 13.145-.828 18.98-.897.219 1.15.709 2.027.77 3.335-2.719.812-5.6.737-8.078 1.667-.391 2.184-.635 4.272-.643 6.54-.027 6.962 1.916 13.894 1.795 20.904-.018 1.053.342 2.36.258 3.719-.66.195-1.277.434-1.668.897-1.1-.159-1.604.277-2.564.257-.455.56-1.271.384-1.795 1.024-.537.658-.775 2.642-1.027 3.977-.094.505-.26 1.47-.256 1.796.014 1.006.402 2.185.385 3.078-.01.458-.535.87 0 1.153-.219 1.485-.537 4.399 0 6.541-.344.53-.322 2.067.256 2.436.039.338-.498.103-.385.515.25 2.856.43 5.375.256 8.977-.02.172.203.706.258.384-.717 4.667.102 9.349-.385 14.749.027.185.381.044.385.257-.199.211-.559 1.178.127 1.153-.438.443-.484.774-.385 1.539.109.023.123-.05.129-.127.129.757-.363 3.609.643 4.87z" fill="#c0392b"/><path d="m58.797 237.479c-1.035.322-2.398 1.906-2.819 2.821-.241.312-.466-.251-.257.385-.834-.068-1.709 1.353-1.924 1.924-2.164.999-3.021 3.305-4.874 4.616-.04.302-.202.481-.128.897-.992-1.015-2.319-1.698-3.205-2.821-1.496-.052-2.473-.405-3.72-.256-.223-3.035-.127-5.707-.642-7.823.208-3.991.294-7.52.258-11.156.359-.525-.443-1.719 0-2.822-.066-.319-.243-.526-.386-.769.48-1.084.111-2.231.897-2.95-.406-.058-.778-.652-.256-.898-.089-.401-.342-.167-.642-.128-.14-1.352-.038-2.055 0-3.463.034-1.287.131-3.294 0-3.847-.114-.479-.631-1.366-1.026-1.411-.838-.094-.719.906-1.538 1.027-.048.218.1.242.257.256-1.797 2.025-2.253 4.599-4.104 6.54.254.117.254.431 0 .128-.783 1.402-2.42 3.015-2.438 4.36-.262-.257-.342-.033-.514.129-.834 1.441-1.967 3.052-2.949 4.231-.02.584-.105.504 0 1.026-.686.146-1.213 1.277-1.282 2.437-1.577 1.978-3.214 4.559-3.72 7.182-.168.131-.473.125-.641.256.166 2.066-1.83 2.591-1.539 4.361-1.049-.008-.078 1.344-1.025 1.282-.133.859.119 1.335.77 1.411 1.035-.962 1.461-2.544 1.667-3.72.957-1.532 1.763-2.569 2.308-4.616.811-1.538 1.729-2.82 2.053-4.361.113-.1.289-.138.513-.128.743-1.938 1.503-3.452 2.821-5.13.477 1.605-.09 2.281.385 3.59.07.286-.245.184-.256.387.483 1.089-.078 1.2 0 2.692-.873 1.479-1.521 3.182-2.309 4.746-.821.718-1.519 2.241-1.668 3.205-.277.652-1.235 1.046-1.41 1.41-.025.055.219.308.256.257-.5.676-1.293 1.021-1.666 2.309-1.576-.411-3.904.339-5.131.256.094-1.133 1.283-2.049.771-2.692 1.247-1.914 2.249-4.002 2.821-6.284 1.012-1.691 2.062-3.303 2.564-5.771.566-.147 1.136-1.413.77-1.668.094-.229.233-.018.385 0 .867-2.853 2.54-4.897 3.463-7.694 2.078-2.039 3.337-5.39 4.616-7.822.479-.248.858-.595.897-1.283-.023-.146-.129-.071-.128 0-.271-.188.135-.271.385-.128 1.878-2.688 2.73-5.341 4.745-7.695-.178-.769.648-1.432.513-2.564-.03-.226-.221-.292-.513-.257-.123-.792-.059-1.07-.129-2.179.229-.158.676-.095.77-.386-1.293-3.439-.42-8.519-.512-12.696-.035-1.547.37-3.416-.771-4.231 1.001-.545 2.826-.237 3.976-.257.012.364.363 1.183-.128 1.412.368 1.038-.171 2.269.128 4.359.104.725.242.89.129 1.539-.361 2.054.331 5.006.513 6.924.009.097-.258.365-.257.386.059.773.116 2.374.642 2.822.233.198 1.222-.109 1.282.641 3.645-.588 4.95-3.514 8.849-3.849.008-.384.919-.525.77-.641.462-.14.675-.017 1.283-.256.149-.06.138-.318.257-.385 2.664-1.491 6.241-2.287 8.977-3.977.573.111 1.685-.256 2.052-.769 1.886-.416 3.694-1.763 6.412-2.309 3.347-1.989 7.85-2.994 11.286-5.386.771 1.237 1.394 2.622 2.564 3.463-1.452 1.095-3.878 1.539-5.644 2.82-.257 0-.514 0-.769 0-.52.379-1.32.476-1.667 1.026-.438-.17-1.447.054-1.54.642-1.443-.009-2.256.805-3.976 1.281-.04.172-.221.3-.385.643-3.797.562-5.815 2.904-9.489 3.59-.45-.022-.422.433-.77.513-1.654-.029-2.542.708-3.335 1.539-2.177.305-4.408 1.002-6.027 2.31-.754-.416-1.601.514-2.18.256-.865 1.263-2.96.571-3.335 1.923-1.186-.533-1.932 1.218-3.462 1.154-.242.015-.089.426-.386.386.018 5.974-.451 10.072-.127 14.747-.236.537-.295 1.099 0 1.667-.34 1.928-.612 4.12-.514 6.412.043 1.007.105 2.215.641 2.821-.03.331-.221-.175-.513 0 .872 3.855.005 7.1.513 10.772-1.12.979 1.043 3.114.258 4.233.059.496.707.402 1.025.641 1.065-.986 1.492-2.61 3.078-3.078.393-2.32 3.324-3.042 4.359-5.129-.106.63.627.121.129-.129.613-.091 1.518-.83 1.668-1.796.318.015.396.241.641 0-.024-.145-.129-.07-.129 0 1.68-1.869 3.943-4.265 5.771-6.412.574-.078.572-.413.898-1.025 1.384-.41 2.156-1.433 2.691-2.693 1.149-.946 2.301-1.889 2.823-3.463.809-.267 1.594-.921 1.667-1.538.783-.113 1.097-.698 1.409-1.283 3.339-2.048 5.432-5.34 8.208-7.95 1.552-2.724 4.088-4.464 5.644-7.183 1.55-1.228 2.16-3.396 3.845-4.488 1.508-2.555 3.953-4.17 5.516-6.668.115-.101.291-.139.514-.128.195-.616.873-.751.898-1.54.424-.209 1.984-1.724 2.691-2.565.816-.971 1.492-2.281 2.053-3.333 1.576-.863 2.832-2.721 4.232-3.335-1.137 1.878-.848 5.219-.77 7.311-2.914 1.958-4.328 5.418-7.311 7.309-.008 1.06-1.182.956-1.283 1.924-.207.036-.219-.121-.383-.128-1.424 1.486-3.447 2.369-4.361 4.36-1.67.896-2.867 2.263-3.591 4.104-1.194.345-1.634 1.444-2.18 2.436-2.424 1.338-3.576 3.947-5.643 5.644.027.219-.219.332 0 .385-.297.429-.944.509-.897 1.282-1.837.833-2.582 3.356-4.489 4.488.053.309-.234.279-.128.641-.716.651-1.562 1.176-1.925 2.181-.308-.052-.277.234-.641.129-2.924 4.024-5.567 6.752-9.489 9.746.162.761-.566.631-.385 1.411-.731.251-1.225.743-1.41 1.539-.858.12-1.287.674-1.536 1.409z" fill="#c0392b"/><path d="m111.891 243.508c-.221-.924.162-2.167-.385-3.079.656-.938.135-2.463 0-3.59.119-6.567-.371-11.566-.256-18.853.07-.284-.244-.182-.258-.385 1.092-8.115-.557-17.424-.129-26.675 2.078-1.38 4.768-3.725 7.695-2.693.188 1.054.777 1.704.898 2.822-.021.277.455.058.641.129.021.361-.361.32-.512.512.643 4.753 1.346 10.733 1.152 15.005.557 2.78-.182 6.591.898 9.233-.039.303-.445.238-.385.641.287 3.614-.238 7.091.385 11.029-.627 2.59.592 5.189-.256 7.439.627 2.436.275 5.467.77 8.207-.982-.124-2.662.525-3.719.512-.562-.504-.555-1.58-1.281-1.923-.541-.155-.562.207-.9.257-.199-.356-.314-.797-.641-1.026-1.416.524-.746 2.632-1.025 3.462-.109.024-.121-.05-.127-.127-.405-.747-1.567-1.135-2.565-.897z" fill="#fff"/><path d="m104.709 201.442c.973 6.881.928 12.334 1.154 19.237.012.33.207.433.258.77.215 1.452-.533 3.113.254 4.745-.018.408-.289.564-.254 1.026-.182.648.588.351.512.897-.104.11-.35.076-.385.256.219.815.439 2.438.127 3.206.021.151.234.109.387.128-.422 4.729.059 8.336 0 13.21.137.503.871.409 1.283.641.928 2.935 4.822.438 6.668 1.411.105 1.644.391 3.078 1.795 3.847 1.244-.464 1.289-2.131 1.537-3.591 2.105-.691 4.32-1.501 6.541-1.41.529-.368.562-1.234 1.027-1.667-.162-5.477.779-9.312-.129-14.877.666-6.176-.205-13.743-.383-19.364-.047-1.428-.193-2.954-.387-4.359-.531-3.883-.936-7.649-.77-11.158 1.805 2.812 3.146 6.088 4.232 9.618.371-.281.248 1.34.896 1.54.025 2.065 1.346 3.991 1.668 6.026.258 1.638.561 3.47.898 5.13.256 1.258.715 2.562.77 3.719.037.819-.174 1.627-.129 2.438.068 1.215.422 2.382.641 3.59.18.981.023 2.03.129 3.078.068.67.438 1.375.514 2.052.141 1.241-.115 2.492 0 3.719.033.352.338.672.385 1.026.059.457-.145.968-.129 1.411.131 3.451.371 7.138.385 10.644.018 4.611-.232 9.305.514 13.979-.523 1.271.141 2.461-.387 3.719.545 4.138-.197 8.325-1.023 13.081-.779 4.464-1.68 9.837-3.977 13.466-.779 3.658-2.602 5.665-3.848 8.977-1.789 2.484-4.16 5.472-7.822 5.259-.4.06-.41-.274-.385-.642-2.855-.779-4.67-2.598-6.285-4.617-1.189-3.768-2.93-6.986-3.975-10.899-.094-.12-.234-.195-.385-.258-1.793-6.397-3.344-13.446-4.232-20.775-.518-4.261-.926-8.529-1.666-12.439-.107-1.569-.314-3.557-.643-5.257-.025-.142-.514-1.014-.514-1.027-.01-.29.787-1.042.387-1.538.049-.434-.223-.547-.387-.77.078-2.955-.271-6.46-.512-8.977.117-1.812.32-4.197 0-5.771.533-2.647.66-5.48.77-8.336.23-5.947 1.279-11.885 2.693-17.697-.033-.418.398-.371.512-.642.251-2.351.942-3.75 1.67-5.775z" fill="#fff"/><path d="m16.992 253.895c-.659 1.196 2.7 3.504 3.206 4.745h.513c.709.962 1.388 2.031 2.564 2.18 2.571 2.833 5.706 6.018 8.722 9.105-.003.384-.334.437-.385.77.207 2.799-.642 5.133-.257 7.054-.611 2.61-1.086 5.706-1.411 8.977-1.872 5.259-2.902 11.254-8.977 11.927-.621.069-1.389.01-2.309.256-3.363-2.209-5.755-6.208-7.182-9.232-.113-1.881-1.646-3.429-1.796-5.387-.075-.267-.246-.438-.513-.512.115-1.505-.522-2.986-1.154-4.36.046-.378.072-.801 0-1.154-.071-.352-.244-.069-.385-.386-.216-.488.012-1.927-.256-2.949-.123-.468-.454-.828-.514-1.153-.147-.813.109-1.872 0-2.822-.112-.981-.348-1.789-.513-2.692-.433-2.367.023-5-.257-6.798-.073-.474-.477-1.003 0-1.668-.462-.581-.348-2.354-.128-3.205-.124.004-.1.156-.128.256-.135-.9.385-3.092-.385-3.718.396-2.836-.031-5.932 0-8.85.012-1.085.18-2.129.129-3.206-.061-1.242.396-2.384.512-3.591.098-1.004-.361-2.062.385-2.949.096-.396-.352-.247-.256-.642.452-.418.483-1.839.385-2.95.104.025.128.129.256.129.083-2.689.914-4.794.898-7.951 1.08-4.203 1.949-8.903 3.077-13.08.562-1.338 1.745-2.678 1.796-4.104.374.032.441-.241.641-.384 1.08-1.746 2.438-3.593 4.488-3.977.638.287 1.297-.142 2.053-.129 1.73.031 3.508.982 4.744 1.412 2.879 4.237 4.118 9.152 4.232 15.645.145.369.27.757.514 1.026-.354.485-.58 1.691-1.026 1.667-.016.23.157.271.128.514-1.068.583-.844 2.267-1.924 3.077-.193 1.991-2.173 3.741-2.308 5.771-.321.106-.405.449-.642.641-.877 3.298-2.677 5.079-3.463 8.593-.487-.188-.025.572-.513.384-.278 1.51-1.337 3.241-2.052 5.003.068.103.135.208.129.384-.109.024-.121-.05-.129-.129-.919 1.332-1.826 2.769-2.052 4.617.548.899.11 3.235 1.543 3.845z" fill="#fff"/><path d="m37.253 215.423c.475-.258.968-1.04 1.411-1.924.144 1.257-.369 3.575-1.154 5.258-.066-.789.027-1.722-.513-2.309-.063-.414.599-.759.256-1.025z" fill="#fff"/><path d="m39.178 246.585c.023-.146.128-.071.127 0 .434.132 1.326-.438 1.027.129.479.136.365-.318.769-.258.057.113.112.229.257.258-.59.991-1.343 1.82-2.309 2.436.027-1.01.133-1.796.129-2.565z" fill="#c0392b"/><path d="m47.128 272.361c-.527-2.553.139-5.265-.513-7.951-.46-.106-.621.29-.897 0-1.327 1.312.647 4.243-.386 4.874.434 1.167.186 3.643-.256 4.872-.56-.089-.723.22-1.282.129-.29-2.435.26-4.239-.385-5.898.045-.181.226-.012.257.128.137-1.773.177-2.089-.257-3.335-.646-.091-.882.23-1.282.386.344 2.236.15 5.768.256 8.72-.879.289-2.191-.544-3.334-.77-.525-.801-.969-1.681-1.796-2.18-.419-1.247-.97-2.364-1.538-3.464.033-1.395-.279-3.052-.257-4.615.016-1.094.533-2.191.257-2.821 1.113-4.154 2.198-9.189 5.514-12.056h.77c.697-.887 2.143-2.091 3.334-1.025.2-.367.254-.079.771-.129.12.315.079.553.384.77 1.448 1.027 2.729 3.686 3.335 6.155.038.154.432 1.015.385.771.18.045.011.226-.129.257.591 2.32.421 5.321.386 7.053-.065 3.055-.728 7.429-3.337 10.129z" fill="#bdc3c7"/><path d="m25.2 253.767c.049-.618.375.283.512.384.239-.103.519-.165.643-.384 2.104.725 4.022-.617 5.77 0 .104 5.476-.606 8.182-.769 12.824-2.011-.896-2.707-3.108-4.617-4.104-1.14-2.034-3.203-2.514-4.36-4.36-.309.052-.279-.235-.641-.129-.575-1.263-1.791-1.885-2.565-2.948 1.992-.595 3.898-1.136 6.284-1.026-.033-.14-.257-.088-.257-.257z" fill="#fff"/><path d="m43.025 273.663c.317-.004 1.651-.607 2.339-.623.137.958.09 4.067.354 4.836-.203 1.292-.15 2.967 0 4.489.052.522.37.88.385 1.282.03.894-.873 2.325-.257 3.592-.382.029-.168.524-.128.897-2.448.903-4.85.54-6.669.896-1.541.049-2.484-.017-4.104-.385-.24-.577-.341-1.146.128-1.539 1.498.524 3.057-.715 4.36 0 .766-.452 2.498-.044 3.591-.257 1.497-.62 1.633-2.192 1.154-3.719.104.024.128.129.257.129-.38-1.906-.979-7.25-1.41-9.598z" fill="#bdc3c7"/><path d="m38.024 274.799c1.436.478 2.575 1.337 4.231 1.025.591.647.027 1.74.77 2.309-.914 1.792.102 4.438-.128 7.054-2.331.424-4.391.261-6.412.512" fill="#fff"/></g></svg>