<?xml version="1.0" encoding="utf-8"?>
<!-- Generator: Adobe Illustrator 15.0.2, SVG Export Plug-In  -->
<!DOCTYPE svg PUBLIC "-//W3C//DTD SVG 1.1//EN" "http://www.w3.org/Graphics/SVG/1.1/DTD/svg11.dtd" [
	<!ENTITY ns_flows "http://ns.adobe.com/Flows/1.0/">
]>
<svg version="1.1"
	 xmlns="http://www.w3.org/2000/svg" xmlns:xlink="http://www.w3.org/1999/xlink" xmlns:a="http://ns.adobe.com/AdobeSVGViewerExtensions/3.0/"
	 x="0px" y="0px" width="247px" height="317px" viewBox="0 0 247 317" overflow="visible" enable-background="new 0 0 247 317"
	 xml:space="preserve">
<defs>
</defs>
<path fill-rule="evenodd" clip-rule="evenodd" fill="#E67E22" d="M140.539,171.376c-2.426,0.881-2.635,5.912-3.296,7.983
	c-0.472,1.479-0.405,3.181-0.725,4.704c-0.307,1.463-1.04,3.025-1.364,4.485c-1.277,5.767-3.619,11.247-4.86,17.068
	c-0.319,1.498-0.951,2.801-1.289,4.351c-0.323,1.487-0.228,3.123-0.621,4.641c-0.763,2.947-2.586,5.632-3.452,8.401
	c-0.949,3.037-1.872,5.702-3.346,8.522c-0.619,1.183-1.037,2.657-1.316,3.951c-0.438,2.018-0.273,2.12,0.903,3.55
	c0.438,0.534,0.757,1.181,1.231,1.646c2.766,1.012,5.213,1.904,7.947,3.121c2.377,1.059,1.503,0.586,1.833,2.972
	c0.212,1.529,0.874,2.249,2.141,3.08c2.214,1.453,5.408,1.909,7.873,2.779c2.896,1.021,5.94,1.373,9.169,1.209
	c-0.052-2.151,0.561-5.038,2.747-5.398c2.147-0.354,5.118,0.984,7.315,1.201c4.452,0.44,10.309,0.665,14.562-0.752
	c0.843,1.377,3.704,0.964,5.273,1.223c2.354,0.386,4.974,0.347,7.264-0.267c1.616-0.433,5.04-0.224,6.26-1.457
	c1.697-1.716-0.07-4.522,0.293-6.6c1.225,0.126,3.373-0.71,4.348-1.337c1.247-0.801,2.238-1.877,2.513-3.08
	c0.631-2.766-1.538-6.494-2.767-8.767c-2.901-5.369-4.497-11.238-6.829-16.726c-2.247-5.287-4.865-10.244-6.498-15.433
	c-2.195-6.979-5.709-12.779-12.097-17.127c-3.225-2.194-5.97-4.958-8.938-7.367c-1.452-1.177-3.003-2.379-4.387-3.55
	c-1.73-1.466-3.2-1.982-5.271-3.033c-3.179-1.611-6.018-1.977-9.395-0.686c-3.104,1.187-3.858,3.383-5.43,6.062"/>
<path fill-rule="evenodd" clip-rule="evenodd" fill="#2C3E50" d="M246.379,121.74c0.258-8.789,1.631-16.666,0.418-24.507
	c-0.102-0.658-0.446-1.309-0.557-1.949c-0.75-4.328-1.078-8.662-2.367-12.949c-0.107-0.525,0.17-0.666,0.14-1.114
	c-1.037-0.034-1.764-1.116-2.646-1.531c-2.212-1.043-5.898-0.716-9.051-1.114c-2.982-0.378-6.091-0.873-9.051-0.975
	c-1.338-0.046-2.633,0.179-3.898,0.139c-1.686-0.053-3.462-0.354-5.152-0.278c-2.553,0.116-5.374,0.646-8.076,0.975
	c-4.9,0.596-8.986,1.599-12.67,2.367c-4.945,1.032-9.759,3.045-13.785,4.734c-2.485-2.621-5.021-5.191-6.684-8.633
	c0.882-3.294-1.062-4.157-2.785-5.709c-1.914-1.725-3.636-3.966-5.987-4.874c-2.237,0.373-4.545-0.368-6.545-0.696
	c0.035-2.03-0.08-3.911-0.975-5.012c2.048-1.48,3.109-3.946,3.76-6.823c7.694-5.395,11.391-14.786,13.506-25.76
	c0.613-0.547,0.89-1.432,1.393-2.089c-0.171-1.817,0.674-3.484,0.696-5.291c0.039-3.075-0.936-5.953-1.671-8.354
	c-1.106-3.618-2.664-5.992-4.873-7.937c-4.454-3.923-10.208-4.55-18.102-4.317c-3.357,0.1-6.954,1.764-8.912,3.899
	c-2.403,2.622-4.37,6.509-5.151,10.304c-0.239,1.162-0.123,2.456-0.279,3.76c-0.319,2.688-1.451,5.503-0.557,7.519
	c-0.312,0.245-1,0.113-0.975,0.696c-0.764,3.189-1.811,6.432-2.646,9.19c-0.525,1.739-0.981,3.945-1.113,5.849
	c-0.303,4.339,0.287,8.938-0.976,12.253c-0.621,1.633-2.438,2.888-4.595,1.949c-0.896-0.964-1.331-2.098-1.253-3.481
	c0.111-1.979,2.15-3.765,0.975-5.013c-2.035,0.706-3.887,2.76-4.734,4.874c-0.486,1.213-0.797,2.975-0.696,4.177
	c0.148,1.763,1.503,3.129,1.671,4.874c1.909,1.234,3.684,3.414,6.267,4.038c1.004,0.242,2.452-0.261,3.202,0.695
	c-0.027,1.451-0.059,2.666-0.418,4.038c-1.188,0.329-1.712,1.247-2.784,1.811c-1.93,1.015-4.246,1.318-6.684,2.089
	c-1.722,0.543-3.725,0.723-4.734,1.393c-1.066,0.707-1.269,2.073-2.229,2.784c-0.521,3.448-0.945,6.273,0,9.608
	c-0.699,1.458,0.348,3.163,0.975,4.177c0.893,0.314,1.336,1.078,2.507,1.114c0.658-0.114-0.241-0.92,0.557-0.836
	c0.271,2.665,0.399,5.201,0.418,8.076c0.047,7.104,0.474,14.787,0.139,22c-2.365,2.509,0.944,5.296,2.785,6.823
	c4.638,3.85,11.323,6.348,15.734,9.329c-0.096,3.006,0.221,6.382,0.418,9.608c0.081,1.333,0.275,2.835,0.278,3.898
	c0.003,0.849,0.196,1.379,0.279,2.228c0.144,1.487-0.115,3.219,0,4.874c0.214,3.101,0.675,7.372-0.279,9.747
	c0.116,0.533,0.456,0.844,0.836,1.113c-0.873,0.529-0.37,1.386-0.557,2.367c-0.373,1.96-1.23,3.915-1.672,5.849
	c-2.237,9.805-5.398,19.586-7.937,28.962c0.18,1.328-0.451,2.512-0.835,3.76c-2.827,9.186-5.267,17.77-9.19,25.621
	c0.222,0.74-0.112,1.485,0,2.506c2.395,4.044,7.688,4.62,12.393,6.126c0.258-0.299,0.094-1.02,0.14-1.531
	c-2.838-1.946-11.752-1.574-11.001-6.962c0.21-1.5,1.122-3.431,1.811-5.152c0.667-1.668,1.492-3.307,2.089-4.873
	c2.7-7.094,4.462-13.747,6.405-21.443c1.943-7.701,4.221-14.679,6.126-22c0.982-3.772,1.66-7.625,3.342-10.861
	c1.182,0.676,2.771,0.943,3.761,1.811c0.161,5.521,2.37,9.592,1.392,15.177c-0.537,0.902-1.876,1.003-2.646,1.671
	c-0.103,3.537,4.879,4.467,8.494,3.481c3.064-3.474,2.259-11.763,1.81-16.709c2.632,1.406,5.434,2.643,8.494,3.62
	c1.343,1.592,3.605,1.9,5.569,2.785c3.755,1.69,7.46,3.819,11.558,5.151c0.938,1.479,3.256,1.309,4.456,2.646
	c0.433,0.483,1.028,1.959,1.392,3.063c0.856,2.604,1.166,4.653,2.367,7.102c0.615,1.254,1.419,2.545,1.81,3.898
	c0.539,1.862,1.269,2.998,1.811,4.456c1.089,2.927,1.951,5.704,3.481,7.938c0.214,1.363,1.127,2.291,1.114,3.48
	c0.504,1.253,1.241,2.435,1.671,3.76c1.505,4.649,3.672,9.237,4.595,14.063c-1.446-0.616-2.504,0.896-3.898,1.113
	c-1.012,0.159-2.175-0.072-2.924,0.279c-1.201-3.674-2.25-7.498-3.761-10.861c-0.354-3.454-1.706-7.11-3.202-9.886
	c0.043-0.326,0.272-0.575,0-0.836c-1.044-2.161-1.854-4.61-2.646-7.102c-0.794-2.495-1.186-5.185-2.228-7.519
	c-1.832,0.356-0.106,2.961,0.278,4.038c-0.313,0.595,0.316,0.759,0,1.531c0.787,1.13,0.816,2.52,1.114,3.621
	c0.412,1.525,1.195,3.055,1.81,4.595c0.645,1.617,1.029,3.333,1.671,4.873c0.216,0.518,0.644,0.987,0.835,1.531
	c0.691,1.959,0.872,4.107,1.532,6.127c1.482,4.538,3.128,9.132,4.456,13.924c0.268,0.971,0.499,2.046,0.278,3.064
	c-5.296,1.439-12.006,3.453-17.684,2.089c-0.605-0.851-0.423-2.065,0.139-2.785c-1.895-1.274-1.43-5.044-1.671-7.938
	c-0.386-4.634-1.246-9.698-2.088-14.76c-1.011-6.07-1.229-12.225-2.089-17.266c-0.18-1.053-0.348-2.615-1.532-3.202
	c-0.638,0.646-0.372,1.353-0.278,1.949c0.3,1.906,0.871,3.781,1.114,5.709c0.429,3.404,0.71,6.756,1.113,10.304
	c0.185,1.616,0.714,3.141,0.976,4.734c1.125,6.869,1.509,14.847,2.088,21.304c-2.479,1.595-5.321,1.058-8.771,1.532
	c-4.505,0.619-8.971-1.292-12.95-1.671c0.693-4.457,1.242-9.046,2.089-13.646c0.646-3.518,0.961-7.128,1.671-10.583
	c0.688-3.346,1.407-6.566,2.367-9.886c0.997-3.448,1.103-7.106,2.089-10.305c0.246-0.798,1.091-1.401,0.557-2.366
	c-1.054-0.033-0.707,1.335-1.393,1.67c-0.98,3.449-1.079,7.184-2.088,10.583c-0.533,1.792-1.338,3.438-1.672,5.291
	c-0.521,2.896-0.846,5.784-1.671,8.493c-0.009,3.67-1.156,7.291-1.81,10.861c-0.228,1.24-0.034,2.549-0.278,3.76
	c-0.124,0.612-0.481,1.179-0.558,1.81c-0.054,0.448,0.169,0.787,0.14,1.253c-0.032,0.51-0.414,1.189-0.558,1.811
	c-0.125,0.545-0.547,1.819-0.557,1.95c-0.016,0.21,0.318,0.614,0.278,0.835c-0.137,0.76-0.435,1.408-0.557,2.228
	c-0.104,0.703-0.172,1.482-0.558,2.089c-4.087,0.016-7.303-1.098-11-2.089c-2.197-1.515-5.703-1.723-6.822-4.316
	c3.944-15.409,9.169-29.54,13.646-44.418c0.155-0.31,0.552-0.377,0.696-0.696c-0.196-1.361,0.948-2.535,0.14-3.62
	c-1.213,0.784-1.11,2.333-1.532,3.62c-1.23,3.758-2.801,7.758-3.759,11.836c-0.919,1.058-1.182,2.621-1.672,4.316
	c-0.315,1.091-0.766,2.197-1.113,3.342c-0.673,2.212-1.145,4.699-1.949,7.102c-0.207,0.615-0.76,1.168-0.976,1.81
	c-1.421,4.227-2.57,8.826-4.037,13.228c-0.48,1.441-1.17,3.375-0.975,4.317c0.191,0.929,2.374,2.817,3.341,3.342
	c0.553,0.299,1.536,0.431,2.228,0.696c1.466,0.561,2.671,0.932,3.899,1.671c-0.345,10.675-0.028,21.763,0.975,32.443
	c0.373,3.969,0.909,7.998,0.557,11.975c-1.093,1.541-0.068,4.458,0,6.545c-0.529,2.628-4.37,4.269-3.48,7.937
	c0.202,0.833,1.021,1.156,1.531,1.949c2.852,0.926,5.953,2.362,9.608,2.506c1.128,0.045,2.396-0.429,3.62-0.557
	c2.653-0.277,3.726-0.495,6.405-0.975c1.573-0.281,3.363-0.813,3.898-1.531c1.39-1.864,0.682-6.412-0.695-7.52
	c-0.754-0.605-1.687-0.422-2.646-0.696c-0.641-0.184-1.088-0.693-1.671-0.835c-3.199-0.779-7.054,0.212-9.19,0.835
	c-1.033-1.108-0.08-2.301,0-3.342c0.106-1.367-0.446-2.909-0.557-4.456c-0.142-1.996-0.187-4.114-0.278-6.126
	c-0.2-4.406-0.511-9.093-0.278-13.507c0.021-0.382,0.146-0.746,0.139-1.114c-0.088-4.66-0.357-9.362-0.417-13.784
	c-0.038-2.795-0.121-5.729,0.139-8.494c1.42,0.2,4.051,1.058,5.013,0c0.187-1.021-0.895-0.89-1.113-1.811
	c-0.276-1.16,0.5-2.78,0.557-4.037c2.963,0.543,6.096,1.632,9.19,2.228c0.843,0.162,1.91,0.208,2.784,0.139
	c2.951-0.232,5.812-0.68,8.634-0.975c0.818,8.956,0.718,17.452,0.695,26.178c-0.008,3.331,0.415,6.71,0.558,10.165
	c0.156,3.78-0.571,8.037-0.279,11.835c0.099,1.272,0.345,2.539,0.279,4.038c-0.061,1.365,0.027,2.907-0.14,3.76
	c-0.33,1.691-2.153,3.253-2.089,5.291c0.055,1.703,1.748,3.747,3.203,4.595c2.725,1.59,7.197,0.231,11.278,0.14
	c2.827-0.062,6.976-0.234,8.633-2.089c1.927-2.156,1.645-6.289-0.835-7.658c-2.641-1.457-6.712-0.988-9.887-1.392
	c-0.119-1.626-0.228-3.311-0.278-4.735c-0.205-5.808-1.059-11.964-1.392-18.24c-0.502-9.427-1.129-21.928-2.089-30.354
	c4.702-0.027,9.533-1.234,13.784-2.507c0.343-0.566-0.135-0.672-0.139-1.253c0.597,0.006,0.92,0.29,1.253-0.14
	c0.463-2.301-0.581-4.083-0.975-6.266c1.017-0.083,1.886,0.115,2.646,0c2.154-0.327,3.356-1.767,5.152-2.367
	c0.211-2.921-1.396-5.489-2.367-8.076c-1.479-3.94-2.729-8.121-4.456-11.418c-0.114-1.198-0.838-2.958-1.671-3.898
	c0.053-1.005-0.568-1.892-0.975-2.785c-1.329-2.925-2.561-5.565-3.62-8.354c-0.901-2.37-1.496-4.854-2.785-6.962
	c0.061-0.896-0.327-1.343-0.696-1.811c-0.444-2.368-1.324-4.618-2.367-6.822c-1.013-2.142-2.52-4.234-2.646-6.684
	c-1.837-1.672-2.258-4.569-3.342-7.52c-0.616-1.677-1.796-3.18-1.393-4.873c-1.327-1.094-0.2-2.146,0-3.342
	c0.307-1.831-0.549-4.602-1.253-6.127c-0.505-1.094-1.792-2.101-1.393-3.62c6.783,2.64,12.432,6.413,20.329,7.937
	c1.863,1.433,2.643,3.949,4.456,5.431c0.732,2.145,2.589,3.129,3.898,4.595c0.391,0.438,0.555,1.098,0.975,1.532
	c0.99,1.021,2.264,1.803,3.343,2.785c4.502,4.1,8.538,9.418,14.063,11.974c1.637,2.743,3.608-1.625,4.733-3.341
	c3.15-4.804,5.457-10.161,7.798-15.178c1.588-3.404,2.788-7.246,4.178-11.14c0.698-1.956,1.064-3.998,1.67-5.987
	c0.631-2.067,1.53-3.986,1.95-5.848c0.901-4.001,1.781-8.562,2.507-12.254 M149.049,307.489c1.857,0.15,3.317-1.339,5.709-1.393
	c3.069-0.068,7.531,0.743,8.354,2.229c0.617,1.114,0.089,2.998-0.139,4.595c-6.114,2.504-17.025,4.114-22.279-0.696
	c-0.359-4.072,3.406-4.02,3.481-7.658c-0.027-0.686-0.487-1.149-0.558-2.089c-0.068-0.914,0.145-1.917,0.14-2.924
	c-0.014-2.522,0.054-5.723,0-8.772c-0.069-3.899-0.556-7.846-0.835-11.836c-0.569-8.117-0.832-16.432-0.558-24.506
	c-0.006-0.238,0.104-0.361,0.278-0.418c1.241,0.522,2.912,0.615,4.316,0.975c0.275,4.517,0.613,9.581,0.14,13.925
	c-0.292,2.682,0.36,5.606,0.418,8.493c0.116,5.849-0.019,11.124,0.278,16.152c0.159,2.709,0.576,5.406,0.418,7.797
	C148.072,303.5,147.438,305.813,149.049,307.489z M182.329,285.35c0.073,1.082,0.379,2.158,0.417,3.203
	c0.034,0.919-0.299,1.884-0.278,2.784c0.045,2.018,0.386,3.982,0.418,5.987c0.032,1.985,0.11,3.992,0,5.988
	c-0.065,1.188-0.585,2.35,0.278,3.48c4.102,0.498,8.463-0.097,11.697,1.671c1.238,1.348,0.65,3.207-0.14,4.595
	c-0.433,0.265-1.077,0.316-1.253,0.836c-5.543,0.924-11.175,1.956-16.849,1.114c-0.775-1.041-2.269-1.8-2.367-3.203
	c-0.119-1.69,1.666-3.258,1.949-4.734c0.407-2.125,0.285-4.938,0.14-7.38c-0.424-7.089-0.431-14.549-0.558-21.582
	c-0.122-6.8,0.238-14.095-0.139-20.329c-0.138-2.265-0.461-4.893-0.279-7.798c0.838,1.437,2.361,2.188,4.456,2.367
	C180.939,262.882,181.605,274.673,182.329,285.35z M170.911,75.93c1.407,4.44,4.344,7.353,7.101,10.442
	c-2.622,1.37-5.535,2.448-7.797,4.178c-2.146-1.799-3.657-4.233-4.734-7.102c-0.518,0.091-0.822,0.477-0.557,0.975
	c-0.774-1.318-0.649-3.425-0.696-4.873c0.11-0.446,0.8-0.314,0.975-0.696C165.281,76.021,168.806,73.393,170.911,75.93z
	 M168.543,91.524c-0.579,0.814-1.326,1.459-2.367,1.811c-0.028-2.392-0.915-4.647-0.975-6.545
	C166.309,88.375,167.368,90.009,168.543,91.524z M158.1,67.575c6.121-0.586,9.595,2.649,12.393,5.848
	c-0.78,0.158-1.361-0.312-1.949-0.278c-2.628,0.15-3.55,2.687-4.734,4.456c-0.497-2.876-0.662-5.648-1.81-8.076
	c-1.663,0.053-0.616,2.137-0.418,3.063c1.369,6.403,1.748,14.314,3.062,20.887c-0.113,0.531,0.297,0.539,0.558,0.696
	c-0.843,1.014-0.532,3.869-0.14,5.151c0.162,0.53,0.66,0.984,0.836,1.531c0.477,1.49,0.585,3.358,0.975,5.013
	c0.489,2.08,0.968,4.15,1.531,5.988c0.135,0.69-0.371,0.742-0.418,1.253c1.234,10.089,1.01,20.328,2.925,30.354
	c-0.227,1.476-0.03,2.444,0.139,3.899c-5.157-2.595-9.54-5.962-14.203-9.052c-0.729-7.854-1.156-15.949-2.088-23.81
	c-0.332-2.802-0.856-5.615-1.114-8.355c-1.011-10.759,0.646-23.444-1.531-35.228C154.925,70.619,156.656,69.24,158.1,67.575z
	 M171.884,143.462c-0.392-3.34-0.261-7.285-1.113-9.607c0.107-5.99-0.766-10.368-1.113-16.431c1.101,2.009,1.173,5.046,2.506,6.823
	c0.303,3.31,1.678,6.445,2.924,9.329c0.321,0.742,0.813,1.436,1.254,2.506c1.694,4.12,4.094,7.981,6.126,11.836
	c0.921,1.128,2.218,2.599,2.507,3.898c-4.679-0.347-9.631-0.86-12.671-3.48C172.897,147.042,172.109,145.362,171.884,143.462z
	 M151.973,98.069c-2.999-8.512-7.152-15.869-8.493-26.039c1.992,0.311,4.958-0.04,6.962-0.557
	c1.695,4.045,1.214,10.359,1.531,15.456c-0.311,0.261-0.862-0.366-1.531-0.278c-1.033,0.136-1.683,1.297-0.975,2.646
	c1.265,0.54,2.127-0.326,2.367-1.253C152.251,90.685,151.902,95.386,151.973,98.069z M141.948,49.612
	c2.354,1.73,4.289,3.88,6.962,5.292c0.072,5.053,0.44,10.115,0.558,14.898c-1.929,0.841-5.244,0.63-7.24,0
	C141.757,63.686,142.096,57.145,141.948,49.612z M150.999,69.663c-0.169-3.125-0.721-5.757-0.278-9.05
	c1.518,0.756,3.652,0.896,5.152,1.671c0.15,1.708,0.763,3.407,0.417,4.733C155.744,69.121,152.722,68.672,150.999,69.663z
	 M155.176,60.195c-1.88-0.256-3.356-0.913-4.874-1.531c0.079-1.035-0.167-2.396,0.14-3.203c2.524,0.934,5.957-0.191,7.937-0.557
	C157.974,57.331,156.476,58.664,155.176,60.195z M165.758,46.688c-1.495,1.568-2.821,3.306-4.316,4.873
	c-3.488,1.729-7.618,3.835-11.836,2.089c-2.825-1.169-6.839-4.872-7.937-7.38c-0.3-0.686-0.094-1.624-0.362-2.367
	c-0.888-2.456-2.616-6.425-1.616-10.304c0-0.14,0-0.278,0-0.418c3,2.599,6.216,4.607,10.249,6.545
	c4.936,2.371,11.589,4.402,18.282,2.228C167.849,43.948,166.249,44.812,165.758,46.688z M140.555,61.31
	c-0.928-0.93-2.83-0.883-4.595-0.975c1.229-0.814,3.028-1.057,4.595-1.532C140.35,59.341,140.73,60.822,140.555,61.31z
	 M171.884,30.397c-0.162,0.932-0.044,1.901-0.277,2.784c-0.789,2.984-2.227,5.383-2.785,7.659c-0.738-0.033-0.107-0.571-0.418-0.975
	c-2.857,0.951-7.018,1.685-10.442,0.975c-0.515-0.106-1.017-0.572-1.532-0.696c-0.712-0.172-1.507-0.034-2.229-0.278
	c-1.364-0.463-2.737-1.444-4.177-2.089c-4.151-1.861-8.511-4.442-11.139-7.38c0.055-1.129,0.1-1.655-0.14-2.646
	c2.729,0.587,4.434-1.371,5.709-3.063c-0.102-1.103,0.362-1.883,0.418-2.646c0.222-3.094-1.117-7.374,0.696-10.025
	c0.842-1.231,4.368-3.388,5.987-3.76c2.435-0.56,4.878,0.18,6.266,1.253c3.499,2.707,4.451,10.348,3.481,16.292
	c-0.055,0.328-0.131,1.011-0.279,1.531c-0.539,1.898-2.462,4.367-1.81,5.848c1.219,2.772,6.18,1.951,7.38-0.278
	c1.339-2.488,0.157-7.324,0.417-11.139c0.236-3.456,1.372-7.221,2.646-7.381c3.163-0.395,1.42,7.98,1.81,10.583
	c0.13,0.863,0.883,1.763,0.975,2.367C172.617,28.481,172.056,29.418,171.884,30.397z M138.328,17.727
	c0.299-2.813,1.092-6.692,2.367-9.051c1.116-2.065,3.95-5.33,6.266-6.267c2.466-0.996,4.928-0.925,7.798-0.696
	c2.899,0.231,4.804-0.22,7.38,0.418c3.921,0.972,7.669,3.569,9.329,6.823c2.435,4.771,4.12,10.829,2.229,16.849
	c-1.583-2.135-0.058-7.041-0.836-10.165c-0.538-2.16-2.921-4.073-4.874-2.229c-1.27,2.219-2.514,5.396-2.506,9.33
	c0.007,3.285,1.588,8.962-1.114,10.304c-1.024,0.508-2.986,0.167-3.759-0.696c0.062-1.574,1.334-2.861,1.81-4.595
	c1.173-4.275,0.974-10.708-0.417-14.621c-1.381-3.881-4.896-7.947-10.305-6.683c-0.654,0.152-1.545,0.775-2.506,1.253
	c-1.842,0.914-3.834,1.747-4.873,3.48c-2.206,3.676-0.07,8.735-1.115,13.089c-1.102,1.947-5.288,3.131-5.708-0.278
	C137.308,22.497,138.11,19.772,138.328,17.727z M123.151,51.701c0.125,3.396,2.786,6.847,6.266,5.57
	c0.619-0.228,0.823-0.771,1.392-1.254c-0.602,2.078-5.134,4.59-7.519,2.507C121.571,57.022,122.196,53.611,123.151,51.701z
	 M125.24,61.17c2.22-0.113,6.791-2.668,7.379-5.013c0.356-1.423-0.139-3.031,0-4.456c0.153-1.57,0.534-3.021,0.557-4.595
	c0.027-1.852-0.366-3.805-0.139-5.569c0.658-5.104,2.74-10.047,3.898-15.038c0.469,0.412,1.158,0.605,1.393,1.253
	c-0.707-0.15-0.856,0.257-1.114,0.557c0.671,4.69,0.439,9.318,1.532,13.646c0.433,1.716,1.458,3.234,1.671,5.013
	c0.38,3.17-0.042,6.447,0.139,10.025c-2.915,0.5-6.105,1.858-8.493,3.343c0.012,1.254,0.312,2.349-0.278,3.202
	C128.854,63.496,127.052,62.327,125.24,61.17z M117.859,86.372c-0.713,1.087-0.192,2.821-0.418,4.178
	c-0.982-0.398-1.473-2.007-1.531-3.481c-0.146-3.682-0.83-9.068,1.949-10.86c1.058-0.682,2.315-0.503,3.62-0.835
	c1.695-0.433,3.938-1.425,5.849-1.95c0.732-0.201,1.452-0.205,2.089-0.557c1.161-0.642,1.824-1.87,3.063-2.089
	c0.886-2.813,0.184-6.469,1.253-9.189c1.804,0.517,4.487,0.154,5.849,1.113c0.493,2.421,0.983,5.135,1.113,7.658
	c1.719,1.47,1.912,5.51,2.506,8.216c0.379,1.722,1.006,3.076,1.532,5.013c1.091,4.008,3.395,7.768,4.734,12.114
	c0.855,2.774,2.284,4.783,2.506,8.215c0.829,1.946,0.763,4.288,1.114,6.545c0.246,1.579,0.394,3.005,0.557,4.595
	c0.037,0.355,0.387,0.736,0.418,1.114c0.109,1.293,0.199,2.832,0.278,4.177c0.084,1.41,0.099,2.8,0.696,4.038
	c-0.479,4.36,0.509,8.146,0.557,12.811c-2.428-1.347-4.44-3.33-6.544-5.152c-0.867-0.751-1.627-1.606-2.506-2.367
	c-0.566-0.488-1.372-0.737-1.95-1.253c-1.609-1.437-2.962-2.9-4.734-4.316c-3.146-2.516-7.331-4.05-10.304-6.962
	c-0.359-4.646-0.195-9.141,0.278-14.481c0.902,0.306,1.373,1.041,2.089,1.531c1.274,5.71,1.254,11.231,3.063,16.57
	c1.634-0.674,0.707-2.172,0.278-4.038c-0.527-2.296-1.147-6.247-1.393-8.772c-0.171-1.771-0.358-3.136,0.278-4.456
	c-1.461-0.72-2.312-2.051-4.455-2.088c-0.289-5.437-0.581-11.992,0.696-16.57c1.018,1.112,2.162,3.157,2.367,5.152
	c0.091,0.883-0.544,2.237,0.696,2.506c0.725,0.075,0.175-1.124,0.835-1.113c-0.109-4.194-2.466-7.95-5.013-10.443
	c-1.85-1.812-4.969-4.055-8.354-2.228C118.577,79.787,116.98,82.993,117.859,86.372z M139.582,138.728
	c6.413,2.684,11.156,7.038,17.126,10.165c0.386,1.066,0.062,3.54,1.531,3.063c0.451-0.673-0.458-1.814-0.139-2.367
	c2.062,1.001,4.2,1.926,5.987,3.202c-6.595-0.052-12.918-0.239-18.937-0.418c-1.974-0.058-3.669,0.229-5.013-0.557
	C139.68,147.616,138.875,142.234,139.582,138.728z M159.631,164.627c-1.078-0.061-2.777-0.114-2.646-1.531
	c1.949-0.314,5.046,0.481,7.52,0.557c0.138,0.326,0.244,0.684,0.278,1.114C163.508,165.117,161.352,164.724,159.631,164.627z
	 M160.885,166.274c-0.436,0-2.002,1-2.507,0C159.214,166.274,160.05,166.274,160.885,166.274z M157.265,157.247
	c-1.078,0.299-0.673,2.4-0.558,3.48c-2.29,2.475-0.713,7.821,3.76,7.381c0.503-0.05,0.991-0.399,1.671-0.418
	c0.87-0.023,2.002,0.219,3.063,0.278c1.955,0.109,5.534-0.217,6.962,0.696c-0.229,0.549-0.669,0.393-0.975,0.418
	c-1.354,0.112-2.831,0.21-4.456,0.417c-2.368,0.303-4.636-0.559-6.822-0.417c-1.674,0.107-3.329,0.935-4.874,0.139
	c-0.625-3.881-1.712-9.452,0.557-12.671c5.205,0.329,9.396,0.579,14.621,0.835c0.13,0.566,0.522,0.871,0.557,1.532
	C166.197,158.308,161.154,158.186,157.265,157.247z M170.632,155.993c-0.979-0.478-2.978-0.457-4.316-0.557
	c-3.835-0.283-8.539-0.012-11.558-0.418c-0.627,0.023-0.438,0.862-1.114,0.836c-1.098-0.085-1.801,0.063-2.646-0.418
	c-2.396,0.006-5.713-0.467-8.633-0.418c-0.753,0.014-2.19,0.537-1.949-0.835c1.193-0.688,2.532-0.195,3.899-0.14
	c6.99,0.286,15.3,0.166,21.582,0.558c1.876-1.503,4.07,1.209,6.266,1.531c0.133,0.836,1.131,1.839,0.557,2.507
	c-0.372-0.277-0.424-0.876-0.557-1.393C171.474,157.231,171.195,156.269,170.632,155.993z M143.897,171.589
	c-1.128-1.007-2.624-1.646-4.315-2.089c0.574-1.123,3.29-0.734,4.315-0.278C143.754,170.104,144.301,170.896,143.897,171.589z
	 M143.619,167.551c-0.759-0.354-2.312,0.086-3.063-0.278c-0.037-3.441-0.27-6.753-0.139-10.583c1.558-0.12,3.688-0.485,5.013,0
	C143.327,158.918,144.282,164.252,143.619,167.551z M152.391,186.627c-0.126,2.027-0.662,4.265-1.671,5.987
	c-2.15,0.25-4.603,0.213-5.569-1.114c0.858-0.95,2.107-1.478,2.367-3.341c0.501-3.61-1.076-8.768-1.393-11.976
	c-0.101-1.019,0.14-2.092,0-3.063c-0.134-0.928-0.503-1.672-0.557-2.506c-0.238-3.647-0.517-6.617,0.139-11
	c0.431-2.885,5.03-1.432,7.24-0.696c-0.021,1.045-0.361,1.773-0.278,2.924c-1.124,0.156-2.376-0.333-3.342,0
	c-1.321,0.456-1.816,2.288-1.253,3.899c1.812,0.387,3.498-0.471,4.734-1.114c0.041,0.841,0.297,1.467,0.278,2.367
	C150.1,172.005,152.783,180.32,152.391,186.627z M151.695,163.096c0.164,1.509-1.556,1.136-2.367,1.671
	c-0.333-0.436,0.131-1.004,0.278-1.393C150.731,163.438,150.94,162.363,151.695,163.096z M182.189,188.854
	c-1.479-0.192-2.587-1.188-3.898-1.81c-2.482-1.177-5.062-2.049-7.52-3.202c-4.021-1.889-7.813-3.845-11.975-5.709
	c-1.976-0.886-4.154-1.48-5.709-3.064c-0.053-1.828,0.372-3.234,0.418-4.595c0.709,0.212,2.118,1.3,3.48,0.558
	c1.776,1.735,4.929,2.339,7.52,3.62c0.536,0.265,0.891,0.74,1.393,0.975c1.855,0.867,3.811,1.592,5.569,2.646
	c2.776,1.663,5.236,3.612,8.216,4.874C180.706,184.862,181.325,186.981,182.189,188.854z M178.708,180.918
	c-6.328-3.419-12.216-7.277-19.354-9.886c0.8-0.661,1.62-0.072,2.507,0c3.497,0.283,7.658-0.283,11.14-0.613
	c0.429-0.453,0.33-1.145,0.557-2.145c0.093,0,0.186,0,0.278,0c0.64,1,0.756,1.619,0.975,2.562
	C176.203,174.085,177.432,177.553,178.708,180.918z M175.366,167.134c-1.901-0.381-3.134,0.19-4.455-0.836
	c-1.722,0.561-3.798-0.173-5.849,0.139c0.006-0.644,0.879-0.42,0.975-0.975c0.764-5.163-4.833-3.554-8.075-4.316
	c-0.048-0.405-0.146-1.229,0-1.671c4.128-0.104,10.029,1.486,14.062,0.558c0.649,0.186,1.212,0.46,1.811,0.695
	C174.647,162.612,175.888,164.726,175.366,167.134z M177.038,156.689c-5.458-2.389-10.421-4.56-15.596-7.24
	c-1.353-0.7-2.69-1.459-4.038-2.088c-1.371-0.642-2.547-1.427-3.898-2.229c-1.267-0.751-2.738-1.4-3.899-2.228
	c-0.676-0.482-1.117-1.111-1.81-1.532c-4.676-2.841-9.969-5.507-15.178-8.075c-4.453-2.928-10.092-4.669-12.671-9.469
	c1.799-6.745,0.278-16.05,0.278-24.507c0-3.222,0.098-6.788-0.557-9.747c-0.131-0.589-0.584-1.098-0.696-1.671
	c-0.441-2.248,0.247-4.118,0.557-5.987c2.062-3.48,8.053-2.337,9.469,1.253c-0.66,2.956-0.561,6.305-0.696,9.887
	c-0.068,1.817-0.324,3.763-0.278,5.569c0.065,2.562,0.243,4.97,0.278,7.658c0.021,1.629-0.27,3.64-0.278,5.57
	c-0.01,1.967-0.432,4.702-0.14,5.848c0.324,1.271,3.675,3.011,5.152,3.898c3.988,2.397,6.785,4.096,10.025,7.102
	c6.881,6.385,14.659,12.463,22.975,17.684c1.572,0.987,3.407,2.02,5.152,3.063c2.924,1.749,4.436,3.081,8.494,3.481
	c2.419,0.239,5.006,0.425,6.684,0.557c2.248,3.043,4.79,6.534,6.544,9.608C186.899,161.846,182.161,158.933,177.038,156.689z
	 M242.759,135.942c-0.479,2.413-0.624,4.864-1.114,7.241c-0.469,2.276-1.044,4.557-1.531,6.823
	c-0.497,2.316-1.603,4.433-2.228,6.544c-0.315,1.063-0.396,2.27-0.696,3.342c-0.795,2.841-2.065,5.602-3.063,8.354
	c-0.999,2.756-2.185,5.38-3.342,7.937c-2.379,5.259-5.056,10.329-8.354,14.342c-4.386-2.164-7.664-5.894-11.278-9.189
	c-3.529-3.218-7.265-6.404-10.165-10.165c-2.918-3.782-6.05-7.56-8.634-11.696c-1.275-2.042-2.765-4.027-4.177-5.987
	c-0.719-0.998-1.382-2.009-2.089-3.063c-0.655-0.977-1.604-1.812-2.228-2.784c-2.049-3.199-3.354-6.867-5.709-9.887
	c-0.579-3.028-2.323-5.722-3.481-8.771c-0.546-1.441-1.066-3.026-1.531-4.596c-1.781-6.01-3.845-12.981-5.431-19.634
	c-0.271-1.132-0.353-2.587-0.696-3.898c-0.312-1.196-0.999-2.429-0.975-3.342c0.02-0.712,0.553-1.312,0.279-1.949
	c3.044-3.592,7.891-5.383,11.975-7.937c3.304-0.812,6.303-2.794,9.886-3.76c3.414-0.92,6.993-1.983,10.722-2.785
	c1.632-0.35,3.439-0.328,5.152-0.557c2.615-0.349,5.262-0.925,8.215-1.114c10.877-0.695,20.656,1.01,29.659,2.229
	c1.836,8.236,4.334,16.944,3.759,25.898c-0.21,3.282-0.414,6.544-0.557,9.747c-0.221,4.939-0.309,9.645-1.113,14.481
	C243.771,133.22,243.042,134.521,242.759,135.942z"/>
<path fill-rule="evenodd" clip-rule="evenodd" fill="#95A5A6" d="M173.696,25.803c-1.583-2.135-0.058-7.041-0.836-10.165
	c-0.538-2.16-2.921-4.073-4.874-2.229c-1.27,2.219-2.514,5.396-2.506,9.33c0.007,3.285,1.588,8.962-1.114,10.304
	c-1.024,0.508-2.986,0.167-3.759-0.696c0.062-1.574,1.334-2.861,1.81-4.595c1.173-4.275,0.974-10.708-0.417-14.621
	c-1.381-3.881-4.896-7.947-10.305-6.683c-0.654,0.152-1.545,0.775-2.506,1.253c-1.842,0.914-3.834,1.747-4.873,3.48
	c-2.206,3.676-0.07,8.735-1.115,13.089c-1.102,1.947-5.288,3.131-5.708-0.278c-0.185-1.495,0.617-4.22,0.835-6.266
	c0.299-2.813,1.092-6.692,2.367-9.051c1.116-2.065,3.95-5.33,6.266-6.267c2.466-0.996,4.928-0.925,7.798-0.696
	c2.899,0.231,4.804-0.22,7.38,0.418c3.921,0.972,7.669,3.569,9.329,6.823C173.902,13.725,175.587,19.783,173.696,25.803z"/>
<path fill-rule="evenodd" clip-rule="evenodd" fill="#2C3E50" d="M153.366,23.992c-1.494-0.048-1.065-1.34-1.671-2.089
	C152.748,18.177,156.417,22.522,153.366,23.992z"/>
<path fill-rule="evenodd" clip-rule="evenodd" fill="#2C3E50" d="M170.493,25.803c0.777,0.669,1.59,3.056,0.278,3.759
	C168.668,29.469,167.188,25.642,170.493,25.803z"/>
<path fill-rule="evenodd" clip-rule="evenodd" fill="#F1C40F" d="M136.935,26.499c0.469,0.412,1.158,0.605,1.393,1.253
	c-0.707-0.15-0.856,0.257-1.114,0.557c0.671,4.69,0.439,9.318,1.532,13.646c0.433,1.716,1.458,3.234,1.671,5.013
	c0.38,3.17-0.042,6.447,0.139,10.025c-2.915,0.5-6.105,1.858-8.493,3.343c0.012,1.254,0.312,2.349-0.278,3.202
	c-2.93-0.041-4.731-1.21-6.544-2.367c2.22-0.113,6.791-2.668,7.379-5.013c0.356-1.423-0.139-3.031,0-4.456
	c0.153-1.57,0.534-3.021,0.557-4.595c0.027-1.852-0.366-3.805-0.139-5.569C133.695,36.433,135.777,31.49,136.935,26.499z"/>
<path fill-rule="evenodd" clip-rule="evenodd" fill="#FFE2D3" d="M139.302,33.182c2.925,2.599,6.41,4.607,10.443,6.545
	c4.936,2.371,11.686,4.402,18.38,2.228c-0.373,1.994-1.877,2.857-2.367,4.734c-1.495,1.568-2.821,3.306-4.316,4.873
	c-3.488,1.729-7.618,3.835-11.836,2.089c-2.825-1.169-6.839-4.872-7.937-7.38c-0.3-0.686-0.288-1.624-0.557-2.367
	c-0.888-2.456-2.136-6.425-1.811-10.304C139.302,33.46,139.302,33.321,139.302,33.182z"/>
<path fill-rule="evenodd" clip-rule="evenodd" fill="#F1C40F" d="M123.151,51.701c0.125,3.396,2.786,6.847,6.266,5.57
	c0.619-0.228,0.823-0.771,1.392-1.254c-0.602,2.078-5.134,4.59-7.519,2.507C121.571,57.022,122.196,53.611,123.151,51.701z"/>
<path fill-rule="evenodd" clip-rule="evenodd" fill="#F1C40F" d="M155.176,60.195c-1.88-0.256-3.356-0.913-4.874-1.531
	c0.079-1.035-0.167-2.396,0.14-3.203c2.524,0.934,5.957-0.191,7.937-0.557C157.974,57.331,156.476,58.664,155.176,60.195z"/>
<path fill-rule="evenodd" clip-rule="evenodd" fill="#D35400" d="M140.555,58.803c-0.205,0.538,0.175,2.02,0,2.507
	c-0.928-0.93-2.83-0.883-4.595-0.975C137.19,59.521,138.989,59.278,140.555,58.803z"/>
<path fill-rule="evenodd" clip-rule="evenodd" fill="#D35400" d="M150.72,60.613c1.518,0.756,3.652,0.896,5.152,1.671
	c0.15,1.708,0.763,3.407,0.417,4.733c-0.546,2.104-3.567,1.654-5.291,2.646C150.83,66.538,150.278,63.906,150.72,60.613z"/>
<path fill-rule="evenodd" clip-rule="evenodd" fill="#E67E22" d="M155.037,124.386c-0.598-1.238-0.612-2.628-0.696-4.038
	c-0.079-1.345-0.169-2.884-0.278-4.177c-0.031-0.378-0.381-0.759-0.418-1.114c-0.163-1.59-0.311-3.016-0.557-4.595
	c-0.352-2.257-0.285-4.599-1.114-6.545c-0.222-3.432-1.65-5.44-2.506-8.215c-1.34-4.347-3.644-8.106-4.734-12.114
	c-0.526-1.937-1.153-3.291-1.532-5.013c-0.594-2.706-0.787-6.746-2.506-8.216c-0.13-2.523-0.62-5.237-1.113-7.658
	c-1.361-0.959-4.045-0.597-5.849-1.113c-1.069,2.721-0.367,6.376-1.253,9.189c-1.239,0.219-1.902,1.447-3.063,2.089
	c-0.637,0.352-1.356,0.355-2.089,0.557c-1.911,0.525-4.153,1.518-5.849,1.95c-1.305,0.332-2.562,0.153-3.62,0.835
	c-2.779,1.792-2.095,7.179-1.949,10.86c0.059,1.475,0.549,3.083,1.531,3.481c0.226-1.356-0.295-3.091,0.418-4.178
	c-0.879-3.379,0.718-6.585,3.063-7.657c3.386-1.827,6.505,0.416,8.354,2.228c2.547,2.493,4.903,6.249,5.013,10.443
	c-0.66-0.011-0.11,1.188-0.835,1.113c-1.24-0.269-0.605-1.623-0.696-2.506c-0.205-1.995-1.35-4.04-2.367-5.152
	c-1.277,4.578-0.985,11.134-0.696,16.57c2.144,0.037,2.994,1.368,4.455,2.088c-0.637,1.32-0.449,2.686-0.278,4.456
	c0.245,2.525,0.865,6.477,1.393,8.772c0.429,1.866,1.355,3.364-0.278,4.038c-0.021-0.061-0.039-0.122-0.06-0.182
	c-0.02,0.106-0.044,0.212-0.075,0.313c1.742,1.018,3.495,2,5.008,3.21c1.772,1.416,3.125,2.88,4.734,4.316
	c0.578,0.516,1.384,0.765,1.95,1.253c0.879,0.761,1.639,1.616,2.506,2.367c2.104,1.822,4.116,3.806,6.544,5.152
	C155.545,132.532,154.558,128.746,155.037,124.386z"/>
<path fill-rule="evenodd" clip-rule="evenodd" fill="#E67E22" d="M170.493,73.423c-0.78,0.158-1.361-0.312-1.949-0.278
	c-2.628,0.15-3.55,2.687-4.734,4.456c-0.497-2.876-0.662-5.648-1.81-8.076c-1.663,0.053-0.616,2.137-0.418,3.063
	c1.369,6.403,1.748,14.314,3.062,20.887c-0.113,0.531,0.297,0.539,0.558,0.696c-0.843,1.014-0.532,3.869-0.14,5.151
	c0.162,0.53,0.66,0.984,0.836,1.531c0.477,1.49,0.585,3.358,0.975,5.013c0.489,2.08,0.968,4.15,1.531,5.988
	c0.135,0.69-0.371,0.742-0.418,1.253c1.234,10.089,1.01,20.328,2.925,30.354c-0.227,1.476-0.03,2.444,0.139,3.899
	c-5.157-2.595-9.54-5.962-14.203-9.052c-0.729-7.854-1.156-15.949-2.088-23.81c-0.332-2.802-0.856-5.615-1.114-8.355
	c-1.011-10.759,0.646-23.444-1.531-35.228c2.812-0.298,4.543-1.677,5.987-3.342C164.221,66.989,167.695,70.225,170.493,73.423z"/>
<path fill-rule="evenodd" clip-rule="evenodd" fill="#F39C12" d="M151.973,86.93c-0.311,0.261-0.862-0.366-1.531-0.278
	c-1.033,0.136-1.683,1.297-0.975,2.646c1.265,0.54,2.127-0.326,2.367-1.253c0.417,2.641,0.067,7.342,0.139,10.025
	c-2.999-8.512-7.152-15.869-8.493-26.039c1.992,0.311,4.958-0.04,6.962-0.557C152.137,75.519,151.656,81.833,151.973,86.93z
	 M149.189,77.044c0.61-1.751-0.491-2.426-0.975-3.481C144.821,73.595,146.35,79.435,149.189,77.044z M150.442,82.752
	c0.709-0.753,0.574-2.186-0.14-2.924C145.953,78.984,148.083,85.258,150.442,82.752z"/>
<path fill-rule="evenodd" clip-rule="evenodd" fill="#2C3E50" d="M148.214,73.562c0.483,1.056,1.585,1.73,0.975,3.481
	C146.35,79.435,144.821,73.595,148.214,73.562z M148.075,76.069c-0.059-0.267-0.051-0.6-0.418-0.558
	C147.618,75.875,147.61,76.209,148.075,76.069z"/>
<path fill-rule="evenodd" clip-rule="evenodd" fill="#FFFFFF" d="M147.657,75.512c0.367-0.042,0.359,0.291,0.418,0.558
	C147.61,76.209,147.618,75.875,147.657,75.512z"/>
<path fill-rule="evenodd" clip-rule="evenodd" fill="#BDC3C7" d="M241.924,81.639c1.836,8.236,4.334,16.944,3.759,25.898
	c-0.21,3.282-0.414,6.544-0.557,9.747c-0.221,4.939-0.309,9.645-1.113,14.481c-0.242,1.454-0.972,2.756-1.254,4.177
	c-0.479,2.413-0.624,4.864-1.114,7.241c-0.469,2.276-1.044,4.557-1.531,6.823c-0.497,2.316-1.603,4.433-2.228,6.544
	c-0.315,1.063-0.396,2.27-0.696,3.342c-0.795,2.841-2.065,5.602-3.063,8.354c-0.999,2.756-2.185,5.38-3.342,7.937
	c-2.379,5.259-5.056,10.329-8.354,14.342c-4.386-2.164-7.664-5.894-11.278-9.189c-3.529-3.218-7.265-6.404-10.165-10.165
	c-2.918-3.782-6.05-7.56-8.634-11.696c-1.275-2.042-2.765-4.027-4.177-5.987c-0.719-0.998-1.382-2.009-2.089-3.063
	c-0.655-0.977-1.604-1.812-2.228-2.784c-2.049-3.199-3.354-6.867-5.709-9.887c-0.579-3.028-2.323-5.722-3.481-8.771
	c-0.546-1.441-1.066-3.026-1.531-4.596c-1.781-6.01-3.845-12.981-5.431-19.634c-0.271-1.132-0.353-2.587-0.696-3.898
	c-0.312-1.196-0.999-2.429-0.975-3.342c0.02-0.712,0.553-1.312,0.279-1.949c3.044-3.592,7.891-5.383,11.975-7.937
	c3.304-0.812,6.303-2.794,9.886-3.76c3.414-0.92,6.993-1.983,10.722-2.785c1.632-0.35,3.439-0.328,5.152-0.557
	c2.615-0.349,5.262-0.925,8.215-1.114C223.142,78.715,232.921,80.42,241.924,81.639z"/>
<path fill-rule="evenodd" clip-rule="evenodd" fill="#2C3E50" d="M150.302,79.828c0.714,0.738,0.849,2.171,0.14,2.924
	C148.083,85.258,145.953,78.984,150.302,79.828z M149.049,81.917c0.549,0.085,0.616-0.312,0.696-0.696
	c-0.179-0.008-0.193-0.179-0.418-0.14C149.205,81.329,148.939,81.436,149.049,81.917z"/>
<path fill-rule="evenodd" clip-rule="evenodd" fill="#FFFFFF" d="M149.328,81.081c0.225-0.039,0.239,0.132,0.418,0.14
	c-0.08,0.385-0.147,0.781-0.696,0.696C148.939,81.436,149.205,81.329,149.328,81.081z"/>
<path fill-rule="evenodd" clip-rule="evenodd" fill="#E67E22" d="M156.708,148.893c0.386,1.066,0.062,3.54,1.531,3.063
	c0.451-0.673-0.458-1.814-0.139-2.367c2.062,1.001,4.2,1.926,5.987,3.202c-6.595-0.052-12.918-0.239-18.937-0.418
	c-1.974-0.058-3.669,0.229-5.013-0.557c-0.458-4.2-1.263-9.582-0.557-13.089C145.995,141.411,150.738,145.766,156.708,148.893z"/>
<path fill-rule="evenodd" clip-rule="evenodd" fill="#D35400" d="M172.164,156.133c0.133,0.836,1.131,1.839,0.557,2.507
	c-0.372-0.277-0.424-0.876-0.557-1.393c-0.689-0.016-0.969-0.979-1.531-1.254c-0.979-0.478-2.978-0.457-4.316-0.557
	c-3.835-0.283-8.539-0.012-11.558-0.418c-0.627,0.023-0.438,0.862-1.114,0.836c-1.098-0.085-1.801,0.063-2.646-0.418
	c-2.396,0.006-5.713-0.467-8.633-0.418c-0.753,0.014-2.19,0.537-1.949-0.835c1.193-0.688,2.532-0.195,3.899-0.14
	c6.99,0.286,15.3,0.166,21.582,0.558C167.774,153.099,169.968,155.811,172.164,156.133z"/>
<path fill-rule="evenodd" clip-rule="evenodd" fill="#D35400" d="M145.429,156.689c-2.103,2.229-1.147,7.562-1.811,10.861
	c-0.759-0.354-2.312,0.086-3.063-0.278c-0.037-3.441-0.27-6.753-0.139-10.583C141.974,156.569,144.104,156.204,145.429,156.689z"/>
<path fill-rule="evenodd" clip-rule="evenodd" fill="#D35400" d="M170.214,157.386c0.13,0.566,0.522,0.871,0.557,1.532
	c-4.574-0.61-9.617-0.732-13.506-1.671c-1.078,0.299-0.673,2.4-0.558,3.48c-2.29,2.475-0.713,7.821,3.76,7.381
	c0.503-0.05,0.991-0.399,1.671-0.418c0.87-0.023,2.002,0.219,3.063,0.278c1.955,0.109,5.534-0.217,6.962,0.696
	c-0.229,0.549-0.669,0.393-0.975,0.418c-1.354,0.112-2.831,0.21-4.456,0.417c-2.368,0.303-4.636-0.559-6.822-0.417
	c-1.674,0.107-3.329,0.935-4.874,0.139c-0.625-3.881-1.712-9.452,0.557-12.671C160.798,156.88,164.99,157.13,170.214,157.386z"/>
<path fill-rule="evenodd" clip-rule="evenodd" fill="#D35400" d="M152.948,158.918c-0.021,1.045-0.361,1.773-0.278,2.924
	c-1.124,0.156-2.376-0.333-3.342,0c-1.321,0.456-1.816,2.288-1.253,3.899c1.812,0.387,3.498-0.471,4.734-1.114
	c0.041,0.841,0.297,1.467,0.278,2.367c-2.987,5.011-0.305,13.326-0.696,19.633c-0.126,2.027-0.662,4.265-1.671,5.987
	c-2.15,0.25-4.603,0.213-5.569-1.114c0.858-0.95,2.107-1.478,2.367-3.341c0.501-3.61-1.076-8.768-1.393-11.976
	c-0.101-1.019,0.14-2.092,0-3.063c-0.134-0.928-0.503-1.672-0.557-2.506c-0.238-3.647-0.517-6.617,0.139-11
	C146.138,156.729,150.738,158.183,152.948,158.918z M147.796,171.728c-0.195,0.942,0.605,2.373,1.81,2.089
	c1.067-0.251,0.746-1.979,1.393-2.924C149.932,170.215,148.056,170.476,147.796,171.728z M150.024,185.096
	c1.952,0.231,2.079-3.282,0.14-2.924C148.576,182.465,148.467,184.91,150.024,185.096z"/>
<path fill-rule="evenodd" clip-rule="evenodd" fill="#D35400" d="M175.366,167.134c-1.901-0.381-3.134,0.19-4.455-0.836
	c-1.722,0.561-3.798-0.173-5.849,0.139c0.006-0.644,0.879-0.42,0.975-0.975c0.764-5.163-4.833-3.554-8.075-4.316
	c-0.048-0.405-0.146-1.229,0-1.671c4.128-0.104,10.029,1.486,14.062,0.558c0.649,0.186,1.212,0.46,1.811,0.695
	C174.647,162.612,175.888,164.726,175.366,167.134z M168.96,161.981c-2.392,0.133-1.778,3.305,0,3.48
	c0.797,0.079,0.819-0.693,1.672-0.417c1.302-0.992,0.587-3.727-0.975-3.899c-0.108,0.031-0.275,0.004-0.279,0.14
	C169.022,161.299,169.155,161.804,168.96,161.981z"/>
<path fill-rule="evenodd" clip-rule="evenodd" fill="#2C3E50" d="M169.378,161.285c0.004-0.136,0.171-0.108,0.279-0.14
	c1.562,0.173,2.276,2.907,0.975,3.899c-0.853-0.276-0.875,0.496-1.672,0.417c-1.778-0.176-2.392-3.348,0-3.48
	C169.155,161.804,169.022,161.299,169.378,161.285z M168.682,163.792c0.25,0.387,1.282,0.387,1.532,0
	c-0.035-0.754-0.201-1.378-0.975-1.393C169.454,163.263,168.732,163.191,168.682,163.792z"/>
<path fill-rule="evenodd" clip-rule="evenodd" fill="#D35400" d="M169.24,162.399c0.773,0.015,0.939,0.639,0.975,1.393
	c-0.25,0.387-1.282,0.387-1.532,0C168.732,163.191,169.454,163.263,169.24,162.399z"/>
<path fill-rule="evenodd" clip-rule="evenodd" fill="#E67E22" d="M151.695,163.096c0.164,1.509-1.556,1.136-2.367,1.671
	c-0.333-0.436,0.131-1.004,0.278-1.393C150.731,163.438,150.94,162.363,151.695,163.096z"/>
<path fill-rule="evenodd" clip-rule="evenodd" fill="#D35400" d="M164.505,163.652c0.138,0.326,0.244,0.684,0.278,1.114
	c-1.275,0.351-3.432-0.043-5.152-0.14c-1.078-0.061-2.777-0.114-2.646-1.531C158.935,162.781,162.032,163.577,164.505,163.652z"/>
<path fill-rule="evenodd" clip-rule="evenodd" fill="#E67E22" d="M158.378,166.02c0.836,0,1.672,0,2.507,0
	C160.45,166.515,158.883,166.895,158.378,166.02z"/>
<path fill-rule="evenodd" clip-rule="evenodd" fill="#E67E22" d="M173.556,168.387c0.093,0,0.186,0,0.278,0
	c0.64,0.521,0.756,1.563,0.975,2.506c1.394,3.248,2.623,6.66,3.898,10.025c-6.328-3.419-12.216-7.277-19.354-9.886
	c0.8-0.661,1.62-0.072,2.507,0c3.497,0.283,7.658-0.227,11.14-0.558C173.428,170.022,173.33,169.042,173.556,168.387z"/>
<path fill-rule="evenodd" clip-rule="evenodd" fill="#D35400" d="M143.897,169.222c-0.143,0.882,0.404,1.674,0,2.367
	c-1.128-1.007-2.624-1.646-4.315-2.089C140.156,168.377,142.872,168.766,143.897,169.222z"/>
<path fill-rule="evenodd" clip-rule="evenodd" fill="#D35400" d="M182.189,188.854c-1.479-0.192-2.587-1.188-3.898-1.81
	c-2.482-1.177-5.062-2.049-7.52-3.202c-4.021-1.889-7.813-3.845-11.975-5.709c-1.976-0.886-4.154-1.48-5.709-3.064
	c-0.053-1.828,0.372-3.234,0.418-4.595c0.709,0.212,2.118,1.3,3.48,0.558c1.776,1.735,4.929,2.339,7.52,3.62
	c0.536,0.265,0.891,0.74,1.393,0.975c1.855,0.867,3.811,1.592,5.569,2.646c2.776,1.663,5.236,3.612,8.216,4.874
	C180.706,184.862,181.325,186.981,182.189,188.854z"/>
<path fill-rule="evenodd" clip-rule="evenodd" fill="#2C3E50" d="M150.999,170.893c-0.646,0.945-0.325,2.673-1.393,2.924
	c-1.204,0.284-2.005-1.146-1.81-2.089C148.056,170.476,149.932,170.215,150.999,170.893z"/>
<path fill-rule="evenodd" clip-rule="evenodd" fill="#2C3E50" d="M150.164,182.172c1.939-0.358,1.812,3.155-0.14,2.924
	C148.467,184.91,148.576,182.465,150.164,182.172z"/>
<path fill-rule="evenodd" clip-rule="evenodd" fill="#FFE2D3" d="M168.822,40.841c-0.738-0.033-0.107-0.571-0.418-0.975
	c-2.857,0.951-7.018,1.685-10.442,0.975c-0.515-0.106-1.017-0.572-1.532-0.696c-0.712-0.172-1.507-0.034-2.229-0.278
	c-1.364-0.463-2.737-1.444-4.177-2.089c-4.151-1.861-8.511-4.442-11.139-7.38c0.055-1.129,0.1-1.655-0.14-2.646
	c2.729,0.587,4.434-1.371,5.709-3.063c-0.102-1.103,0.362-1.883,0.418-2.646c0.222-3.094-1.117-7.374,0.696-10.025
	c0.842-1.231,4.368-3.388,5.987-3.76c2.435-0.56,4.878,0.18,6.266,1.253c3.499,2.707,4.451,10.348,3.481,16.292
	c-0.055,0.328-0.131,1.011-0.279,1.531c-0.539,1.898-2.462,4.367-1.81,5.848c1.219,2.772,6.18,1.951,7.38-0.278
	c1.339-2.488,0.157-7.324,0.417-11.139c0.236-3.456,1.372-7.221,2.646-7.381c3.163-0.395,1.42,7.98,1.81,10.583
	c0.13,0.863,0.883,1.763,0.975,2.367c0.175,1.147-0.386,2.084-0.558,3.063c-0.162,0.932-0.044,1.901-0.277,2.784
	C170.818,36.166,169.38,38.564,168.822,40.841z M151.695,21.903c0.605,0.749,0.177,2.041,1.671,2.089
	C156.417,22.522,152.748,18.177,151.695,21.903z M170.771,29.562c1.312-0.703,0.499-3.09-0.278-3.759
	C167.188,25.642,168.668,29.469,170.771,29.562z"/>
<path fill-rule="evenodd" clip-rule="evenodd" fill="#FFE2D3" d="M141.948,49.612c2.354,1.73,4.289,3.88,6.962,5.292
	c0.072,5.053,0.44,10.115,0.558,14.898c-1.929,0.841-5.244,0.63-7.24,0C141.757,63.686,142.096,57.145,141.948,49.612z"/>
<path fill-rule="evenodd" clip-rule="evenodd" fill="#FFE2D3" d="M178.011,86.372c-2.622,1.37-5.535,2.448-7.797,4.178
	c-2.146-1.799-3.657-4.233-4.734-7.102c-0.518,0.091-0.822,0.477-0.557,0.975c-0.774-1.318-0.649-3.425-0.696-4.873
	c0.11-0.446,0.8-0.314,0.975-0.696c0.079-2.833,3.604-5.461,5.709-2.924C172.318,80.37,175.254,83.282,178.011,86.372z"/>
<path fill-rule="evenodd" clip-rule="evenodd" fill="#FFE2D3" d="M128.999,83.17c-0.66,2.956-0.561,6.305-0.696,9.887
	c-0.068,1.817-0.324,3.763-0.278,5.569c0.065,2.562,0.243,4.97,0.278,7.658c0.021,1.629-0.27,3.64-0.278,5.57
	c-0.01,1.967-0.432,4.702-0.14,5.848c0.324,1.271,3.675,3.011,5.152,3.898c3.988,2.397,6.785,4.096,10.025,7.102
	c6.881,6.385,14.659,12.463,22.975,17.684c1.572,0.987,3.407,2.02,5.152,3.063c2.924,1.749,4.436,3.081,8.494,3.481
	c2.419,0.239,5.006,0.425,6.684,0.557c2.248,3.043,4.79,6.534,6.544,9.608c-6.012-1.25-10.75-4.163-15.873-6.406
	c-5.458-2.389-10.421-4.56-15.596-7.24c-1.353-0.7-2.69-1.459-4.038-2.088c-1.371-0.642-2.547-1.427-3.898-2.229
	c-1.267-0.751-2.738-1.4-3.899-2.228c-0.676-0.482-1.117-1.111-1.81-1.532c-4.676-2.841-9.969-5.507-15.178-8.075
	c-4.453-2.928-10.092-4.669-12.671-9.469c1.799-6.745,0.278-16.05,0.278-24.507c0-3.222,0.098-6.788-0.557-9.747
	c-0.131-0.589-0.584-1.098-0.696-1.671c-0.441-2.248,0.247-4.118,0.557-5.987C121.591,78.437,127.583,79.58,128.999,83.17z"/>
<path fill-rule="evenodd" clip-rule="evenodd" fill="#FFE2D3" d="M175.366,249.982c0.838,1.437,2.361,2.188,4.456,2.367
	c1.117,10.532,1.783,22.323,2.507,33c0.073,1.082,0.379,2.158,0.417,3.203c0.034,0.919-0.299,1.884-0.278,2.784
	c0.045,2.018,0.386,3.982,0.418,5.987c0.032,1.985,0.11,3.992,0,5.988c-0.065,1.188-0.585,2.35,0.278,3.48
	c4.102,0.498,8.463-0.097,11.697,1.671c1.238,1.348,0.65,3.207-0.14,4.595c-0.433,0.265-1.077,0.316-1.253,0.836
	c-5.543,0.924-11.175,1.956-16.849,1.114c-0.775-1.041-2.269-1.8-2.367-3.203c-0.119-1.69,1.666-3.258,1.949-4.734
	c0.407-2.125,0.285-4.938,0.14-7.38c-0.424-7.089-0.431-14.549-0.558-21.582c-0.122-6.8,0.238-14.095-0.139-20.329
	C175.507,255.516,175.184,252.888,175.366,249.982z"/>
<path fill-rule="evenodd" clip-rule="evenodd" fill="#FFE2D3" d="M146.96,254.995c0.275,4.517,0.613,9.581,0.14,13.925
	c-0.292,2.682,0.36,5.606,0.418,8.493c0.116,5.849-0.019,11.124,0.278,16.152c0.159,2.709,0.576,5.406,0.418,7.797
	c-0.143,2.138-0.776,4.451,0.835,6.127c1.857,0.15,3.317-1.339,5.709-1.393c3.069-0.068,7.531,0.743,8.354,2.229
	c0.617,1.114,0.089,2.998-0.139,4.595c-6.114,2.504-17.025,4.114-22.279-0.696c-0.359-4.072,3.406-4.02,3.481-7.658
	c-0.027-0.686-0.487-1.149-0.558-2.089c-0.068-0.914,0.145-1.917,0.14-2.924c-0.014-2.522,0.054-5.723,0-8.772
	c-0.069-3.899-0.556-7.846-0.835-11.836c-0.569-8.117-0.832-16.432-0.558-24.506c-0.006-0.238,0.104-0.361,0.278-0.418
	C143.885,254.543,145.556,254.636,146.96,254.995z"/>
<path fill-rule="evenodd" clip-rule="evenodd" fill="#2C3E50" d="M159.075,273.793c0.186-0.268,0.618,0.159,0.976-0.14
	C160.138,274.577,159.296,274.081,159.075,273.793z"/>
<path fill-rule="evenodd" clip-rule="evenodd" fill="#FFFFFF" d="M95.989,146.427c0.016,0.535-0.252,0.698-0.641,0.513
	C95.331,146.536,95.676,146.499,95.989,146.427z"/>
<path fill-rule="evenodd" clip-rule="evenodd" fill="#FFFFFF" d="M108.428,151.812c-0.027,1.893-0.191,3.004,0,4.617
	c-2.051-1.54-3.332-3.85-5.643-5.13C104.098,150.571,107.336,150.808,108.428,151.812z"/>
<path fill-rule="evenodd" clip-rule="evenodd" fill="#C0392B" d="M101.375,175.409c-0.654,1.749-2.994,3.914-5.129,4.617
	c-1.543,0.508-2.598-0.21-3.592-1.282C95.202,177.328,98.704,176.285,101.375,175.409z"/>
<path fill-rule="evenodd" clip-rule="evenodd" fill="#C0392B" d="M108.815,175.538c0.441,0.949,0.141,2.25,0.383,3.591
	c-1.771-0.438-2.283,1.125-3.592,1.539C106.706,178.987,108.01,177.515,108.815,175.538z"/>
<path fill-rule="evenodd" clip-rule="evenodd" fill="#FFFFFF" d="M40.588,179.642c-0.409,0.11-0.396-0.202-0.642-0.256
	C39.992,178.96,40.736,179.135,40.588,179.642z"/>
<path fill-rule="evenodd" clip-rule="evenodd" fill="#FFFFFF" d="M33.792,179.386c0.663,0.021,1.105,0.263,1.282,0.77
	C34.53,180.015,33.881,179.979,33.792,179.386z"/>
<path fill-rule="evenodd" clip-rule="evenodd" fill="#C0392B" d="M109.456,181.181c-0.574,0.127-1.471,0.654-1.926,0.128
	C108.094,180.922,109.206,180.197,109.456,181.181z"/>
<path fill-rule="evenodd" clip-rule="evenodd" fill="#C0392B" d="M120.997,190.158c0.875,0.729,1.215,1.609,1.666,2.949
	c-0.273,3.617,0.355,6.009,0.129,9.361c0.959,2.981,0.32,7.39,1.283,9.746c-0.625,0.768-0.021,1.108,0.129,1.925
	c0.039,0.218-0.168,0.522-0.129,0.641c0.1,0.297,0.371,0.193,0.383,0.514c0.025,0.557-0.43,0.996-0.383,1.667
	c-0.113,0.411,0.332,0.267,0.383,0.513c-0.232,1.894-0.547,4.806,0,7.182c-0.066,2.266-0.492,4.18,0,5.899
	c-0.416,0.024-0.092,0.223-0.254,0.641c0.494,4.089,0.117,8.807-0.387,12.696c-0.557-0.131-0.336-0.791-0.127-1.154
	c-0.35-3.304-0.533-7.318-0.898-11.029c-0.07-0.283,0.246-0.183,0.258-0.384c-0.25-1.462-0.205-2.874-0.129-4.36
	c0.176-3.414-0.441-7.531-0.129-10.389c0.254-2.3-0.562-4.72-0.641-7.054c-0.084-2.523-0.086-5.019-0.258-7.564
	C121.627,198.008,121.491,194.09,120.997,190.158z"/>
<path fill-rule="evenodd" clip-rule="evenodd" fill="#FFFFFF" d="M39.434,217.089c0.576,1.827,0.664,3.149-0.129,4.872
	c0.312,0.173,0.08,0.258,0.257,0.386c-0.557,0.103-1.203,1.063-1.154,1.795c-0.63-0.925-1.259-3.321,0.257-3.719
	C39.026,218.998,39.093,218.071,39.434,217.089z"/>
<path fill-rule="evenodd" clip-rule="evenodd" fill="#FFFFFF" d="M39.69,223.373c0.659,0.883,0.574,3.71,0.643,4.488
	c-0.705,3.67-0.033,6.56-0.514,9.875c-0.054,0.371,0.384,0.77,0.385,1.154c0.001,1.122-0.733,2.498-0.385,3.975
	c0.279,0.577,0.559,1.151,0.514,2.053c-0.781,0.194-1.104,0.011-2.053,0.257c0.459-2.985-0.322-6.547,0.257-8.977
	c-0.345-1.833,0.286-3.438-0.386-5.388c0.689-2.079-0.208-3.284,0-5.386C39.077,225.151,39.236,224.115,39.69,223.373z"/>
<path fill-rule="evenodd" clip-rule="evenodd" fill="#BDC3C7" d="M50.976,227.733c0.413,0.99,0.922,2.84,0.256,3.462
	c-1.927-0.015-2.918,0.117-4.873,0.513c0.122-0.77,0.399-1.148-0.128-1.668c0.248-0.485,0.1-1.403-0.257-2.179
	C47.292,226.94,48.927,227.82,50.976,227.733z"/>
<path fill-rule="evenodd" clip-rule="evenodd" fill="#FFFFFF" d="M31.098,235.299c0.334,0.415,0.063,0.684,0.385,1.154
	c-1.475,1.254-1.212,3.347-2.437,4.617c-0.017,0.229,0.157,0.271,0.128,0.513c-0.725,0.365-0.94,1.407-1.025,2.052
	c0.18,0.317,0.441,0.228,0.77,0.128c0.546-0.677,0.844-1.519,1.153-2.308c0.302-0.765,0.397-1.875,1.283-2.309
	c0.018,2.162,0.062,3.774-0.129,5.899c-1.562,0.112-3.691-0.287-5.386-0.257c0.411-2.434,2.227-2.755,2.437-5.258
	c0.128,0,0.257,0,0.385,0C29.489,237.791,30.014,236.741,31.098,235.299z"/>
<path fill-rule="evenodd" clip-rule="evenodd" fill="#FFFFFF" d="M94.579,240.559c0.352-0.095,0.258,0.254,0.514,0.254
	c-0.045,0.17-0.227,0.204-0.258,0.387C94.555,241.18,94.559,240.875,94.579,240.559z"/>
<path fill-rule="evenodd" clip-rule="evenodd" fill="#C0392B" d="M31.868,249.406c0.018,1.003,0.082,1.535,0.256,2.565
	c-4.248,0.918-9.529,0.118-13.337,1.538c-0.063,0.404,0.28,0.501,0,0.77c-1.083-1.436-2.489-4.519-1.282-6.027
	c0.785-0.983,1.943-0.905,2.949-1.796c0.608,0.362,1.711,0.375,2.309-0.256c0.744,0.481,1.127,0.329,1.924,0
	c0.036,0.207-0.121,0.221-0.129,0.385c2.395-0.629,4.838-0.056,7.182,0c0.158,0.362,0.158,0.791,0,1.153
	c-3.941,0.048-7.467,1.742-11.67,1.282c-2.008,2.185,2.886,1.589,3.206,1.54C26.273,250.158,28.467,249.1,31.868,249.406z"/>
<path fill-rule="evenodd" clip-rule="evenodd" fill="#FFFFFF" d="M116.25,247.354c0.27-0.055,0.342,0.087,0.514,0.128
	c-0.1,0.114-0.137,0.29-0.127,0.513C116.372,247.919,116.151,247.798,116.25,247.354z"/>
<path fill-rule="evenodd" clip-rule="evenodd" fill="#FFFFFF" d="M104.454,299.165c0.467-0.082,0.158,0.61,0.512,0.641
	C104.723,300.162,104.397,299.529,104.454,299.165z"/>
<path fill-rule="evenodd" clip-rule="evenodd" fill="#FFFFFF" d="M19.685,305.191c0.085,0,0.171,0,0.257,0
	c-0.024,0.109,0.049,0.122,0.127,0.129c0,0.086,0,0.171,0,0.256c-0.109-0.023-0.121,0.05-0.127,0.129c-0.086,0-0.172,0-0.257,0
	c0.023-0.108-0.051-0.121-0.129-0.129c0-0.085,0-0.17,0-0.256C19.666,305.344,19.677,305.27,19.685,305.191z"/>
<path fill-rule="evenodd" clip-rule="evenodd" fill="#FFFFFF" d="M115.227,314.041c0.098-0.254,0.824-0.069,0.768,0.256
	C115.551,314.398,115.454,314.154,115.227,314.041z"/>
<path fill-rule="evenodd" clip-rule="evenodd" fill="#2C3E50" d="M133.051,167.458c-0.348-0.521-0.162-1.051-0.256-1.538
	c-0.443-2.261-2.037-2.859-5.002-2.565c-0.477,0.251-0.824,0.629-1.41,0.77c-0.459,2.095-0.264,5.128,1.41,6.925
	c0.363,0.39,0.928,0.517,1.281,0.898c0.658,0.71,1.033,1.499,1.668,2.052c1.676,0.429,2.203,1.548,3.848,1.796
	c1.234,0.186,2.646-0.336,3.848-0.77c4.229-1.529,7.686-6.563,7.822-12.056c0.068-2.738-0.092-6.087-1.154-8.464
	c-0.098-0.217-0.426-0.413-0.512-0.641c-0.504-1.307-0.648-2.604-1.283-3.72c-1.639-2.882-3.836-5.255-6.797-6.541
	c-3.646,0.145-6.105-0.765-9.617-0.769c-0.412,0.06-0.453,0.488-0.898,0.513c-6.168-0.363-12.188,0.657-17.824,0.642
	c-1.537-0.005-2.85,0.206-4.363,0.385c-2.318,0.273-5.424,0.697-7.053,0.256c-2.531,0.812-6.354-0.141-8.85,1.026
	c-1.449,1.616-1.026,5.516,0.641,6.54c1.273,0.439,2.676,0.747,4.361,0.77c1.859,0.696,4.697,1.434,6.541,2.564
	c0.625,0.786,1.287,1.537,1.924,2.309c2.762,4.138,3.291,12.642,0.256,17.186c-0.15-0.708,0.221-0.892,0.256-1.411h-1.281
	c-2.453,1.564-6.051,1.985-8.594,3.462c-0.215-1.688-1.232-3.536-3.59-3.205c-2.263,0.947-2.476,4.019-2.691,6.669
	c-3.103,2.284-7.537,3.236-10.773,5.386c-1.972,0.599-3.739,1.159-5.515,2.18h-0.77c-1.703,1.41-4.526,1.664-6.027,2.95
	c-1.128,0.196-2.176,0.476-2.821,1.154c-1.045,0.277-2.552,0.672-3.592,1.539c-2.757,1.189-5.217,1.885-7.821,3.205
	c-0.339,0.963-1.48,1.06-2.693,1.411c-0.192-2.144-0.468-3.61-0.642-5.643c-0.186-2.174-0.178-5.557-0.257-7.695
	c-0.044-1.208-0.081-2.091,0.642-2.564c2.353,0.145,4.716-0.608,6.54-1.282c0.505-0.594,0.637-1.22,1.283-1.411
	c1.899-2.462,1.147-7.976-2.95-7.693c-1.242-0.656-2.535-1.886-4.104-1.796c-4.219-1.812-5.801-5.016-11.541-4.617
	c-1.819,1.322-3.941,1.906-5.002,3.462c-0.385,0.564-0.381,1.356-0.514,1.796c-0.086,0.284-0.506,0.466-0.641,0.769
	c-0.541,1.225-0.145,1.835-0.129,2.693c0.042,2.242,0.188,2.989,1.539,4.489c1.107,1.229,2.477,1.786,3.848,2.181
	c1.362,0.391,2.373,0.965,3.847,0.641c0.028,0.101,0.108,0.148,0.257,0.128c1.855,3.572,0.571,7.549,0.642,11.413
	c0.053,2.934,0.241,5.529,0.513,8.08c-0.416,0.384,0.014,0.263,0,0.643c-0.092,2.434-1.945,3.777-2.564,6.155
	c-0.242-0.029-0.283,0.143-0.514,0.128c0.332,0.523-0.424,1.206-0.77,1.025c-1.687-3.7-3.417-7.355-6.027-10.13
	c-0.531,0.146-0.5-0.271-0.897-0.258c0.109-0.409-0.202-0.396-0.257-0.641c-0.639-0.205-1.016-1.103-1.666-0.897
	c-1.129-1.177-2.895-2.071-4.746-2.438c-1.473-0.291-3.331-0.646-4.873-0.256c-1.494,0.378-3.639,1.97-4.617,2.693
	c-0.316,0.233-0.831,0.635-1.153,0.897c-0.519,0.421-0.868,0.977-1.411,1.282c-0.151,1.217-1.248,1.487-1.154,2.949
	c-0.781,0.244-0.815,1.237-1.539,1.539c-1.521,6.099-3.484,13.021-4.104,18.853c-0.501,0.221-0.664,1.271-0.128,1.153
	c-0.96,0.955-0.483,3.39-0.77,5.258c-0.138,0.896-0.06,1.695-0.128,2.565c-0.065,0.813-0.521,1.554-0.642,2.437
	c-0.919,6.754-0.757,13.358-0.642,20.262c-0.432,0.22-0.141,0.814-0.128,1.283c0.035,1.274-0.499,2.898-0.257,3.975
	c0.037,0.166,0.372,0.459,0.385,0.643c0.025,0.347-0.262,0.821-0.256,1.153c0.055,3.521,0.869,7.267,1.539,10.772
	c0.258,1.352,0.37,2.71,0.769,3.976c0.284,0.214,0.321,0.348,0.514,0.384c-0.433,0.47,0.229,0.99,0.384,1.668
	c0.304,1.316,0.397,3.073,0.514,4.233c0.727,1.013,0.91,2.786,1.154,4.359c0.861,0.739,0.355,2.351,1.282,3.335
	c-0.056,0.244-0.276,0.321-0.257,0.641c0.885,1.915,1.049,4.374,1.924,6.541c0.221,0.051,0.329-0.191,0.385,0
	c0.085,1.466,1.155,2.118,1.668,3.847c0.893,0.562,1.151,1.996,2.18,2.052c0.873,1.692,2.925,2.205,4.359,3.334
	c0.317,0.017,0.619,0.021,0.771-0.128c-0.296,0.311,0.339,0.415,0.641,0.513c0.052-0.22-0.19-0.328,0-0.385
	c0.519,0.964,1.591,0.008,2.181,0.898c0.439-0.546,1.533-0.055,1.539-0.643c0.646,0.494,1.25-0.525,2.18,0.129
	c-0.267-0.616,0.414-0.222,0.641-0.385c0.288-0.205,0.369-0.612,0.643-0.769c0.433-0.25,1.087-0.23,1.41-0.514
	c0.105-0.093-0.062-0.441,0-0.513c0.246-0.286,0.722,0.004,0.513-0.514c0.337,0.524,0.917-0.618,1.026-0.769
	c0.154,0.027,0.078,0.142,0,0.256c3.492-3.541,5.338-8.002,6.925-13.337c0.839-0.231,2.302,0.594,2.821-0.129
	c0.17,0.258,0.569,0.285,0.898,0.386c0.305-0.352,0.564-0.006,0.896-0.386c2.023,0.419,3.803-0.45,5.9-0.127
	c0.252-0.518,0.809-0.729,1.281-1.026c0.188-2.14,0.774-6.438,0-9.105c0.429-1.545-0.121-3.329-0.127-5.13
	c0.631-0.605,0.721-1.369,1.41-1.41c0.01-0.224-0.029-0.399-0.129-0.514c0.945-0.517,1.659-2.354,2.438-3.463
	c-0.074-0.86,0.59-1.249,0.513-2.437c0.487-0.068,0.126-0.984,0.513-1.154c0.359-3.882,0.49-7.708-0.128-12.054
	c-0.571-1.998-1.764-4.045-2.309-5.644c0.362-0.105,0.333,0.181,0.642,0.129c-0.039-0.421,0.176-0.578,0.77-0.642
	c3.068-4.614,7.361-7.967,10.387-11.669c0.646,0.269,0.906-1.018,1.539-1.668c0.417-0.43,1.376-0.443,0.77-0.897
	c0.416,0.059,0.762-0.472,0.77-0.771c0.338,0.393,0.432-0.52,0.771-0.127c0.226-0.843,1.007-1.131,1.666-1.54
	c0.121-1.324,2.457-1.848,2.693-3.462c0.693,0.121,0.796-0.883,1.283-1.283c1.038-0.854,1.639-1.973,2.564-2.949
	c0.267-0.281,0.745-0.37,1.025-0.641c2.238-2.165,4.395-4.764,6.028-7.055c0.694-0.031,0.684-0.77,1.281-0.896
	c0.895-1.757,2.464-2.837,3.464-4.49c1.756-1.421,2.893-2.806,4.231-4.744c3.982-4.098,8.18-7.978,12.439-11.797
	c0.025-0.409,0.488-1.042,0.77-0.771c-0.207,0.39-0.463,0.734-0.898,0.897c-0.271,2.348-1.986,4.207-1.924,6.797
	c-0.225,0.115-0.375,0.31-0.641,0.385c-1.674,5.003-2.637,9.924-3.076,15.774c-0.613,1.497-0.928,3.44-0.771,5.515
	c-0.711,1.238-0.273,3.033-0.512,4.488c-0.172,1.039-0.936,1.47-0.258,2.308c-0.188-0.184-0.406-0.098-0.385,0.257
	c0.182,1.754-0.592,2.262-0.127,3.72c0.018,0.318-0.203,0.396-0.258,0.641c0.566,1.164-0.418,2.696,0.385,3.462
	c-0.201,0.014-0.443-0.017-0.385,0.257c0.375,1.547-0.479,3.063,0.258,4.232c-0.176,0.738-0.26,2.479-0.129,3.59
	c0.051,0.425,0.342,0.781,0.387,1.155c-0.006-0.025-0.266,0.063-0.258,0.257c0.016,0.492,0.387,1.26,0.383,1.795
	c-0.008,1.626-0.246,3.2,0.129,4.745c-0.279-0.023-0.408,0.105-0.385,0.385c0.697,1.861-0.117,3.422,0.771,5.258
	c-0.266,0.249-0.203,0.826-0.387,1.154c0.342,1.557,0.588,3.078,0.643,4.36c0.129,2.99,1.402,6.005,1.539,9.362
	c0.316,0.279,0.312,0.883,0.641,1.153c-0.213,1.631,0.312,3.352,0.77,5.13c0.006,0.592-0.057,1.254,0.127,1.668
	c-0.039,0.4,0.371-0.327,0.387,0.127c0.111,1.311-0.035,2.319,0.641,3.207c0.699,4.116,1.756,7.692,2.82,11.926
	c0.486,0.668,0.893,1.416,1.027,2.438c0.238,0.018,0.428,0.084,0.512,0.256c0.117,1.294,1.105,1.715,1.283,2.95
	c0.068,0.538-0.225,0.716-0.258,1.153c2.365,4.329,5.734,7.157,8.721,10.645c1.857,1.245,3.176,1.639,5.516,1.796
	c3.885-1.586,7.398-3.013,10.002-6.027c2.121-1.343,2.74-4.186,4.361-6.027c3.094-5.276,4.365-11.761,6.154-18.211
	c1.652-5.954,2.156-12.366,2.309-19.365c0.078-3.558,0.016-7.369,0.514-11.157c0.338-2.565,0.738-5.378,0.512-8.207
	c-0.287-3.584-0.424-8.97-1.152-12.697c0.287-0.053,0.004-0.68,0.254-0.769c-0.617-0.866-0.404-2.337-0.512-3.591
	c-0.145-1.694-0.742-3.326-1.025-5.129c-1.152-7.338-2.129-14.58-3.846-20.905c-1.188-4.221-0.939-8.29-2.566-11.67
	c-0.305-0.633-0.891-1.033-1.154-1.538c-1.623-3.118-5.016-5.804-7.566-7.95c-1.486-0.737-3.09-1.358-3.848-2.822
	c-0.932-0.372-1.994-0.033-2.949-0.514c0.443-9.064-1.984-16.047-1.795-23.084c0.045-1.697,0.096-4.568,0.898-5.514
	c0.699-0.103,0.838-0.103,1.537,0c1.66-1.023,5.107-0.671,7.055-1.282c2.023,0.565,4.918,0.563,6.668,1.538
	c0.363,0.106,0.332-0.18,0.641-0.128c2.533,1.222,5.854,3.119,6.926,6.027c1.252,3.401,0.225,6.885-1.283,9.618
	C137.118,167.647,134.137,169.08,133.051,167.458z M95.348,146.939c-0.018-0.403,0.328-0.44,0.641-0.513
	C96.004,146.962,95.737,147.125,95.348,146.939z M33.792,179.386c0.663,0.021,1.105,0.263,1.282,0.77
	C34.53,180.015,33.881,179.979,33.792,179.386z M94.834,241.199c-0.279-0.02-0.275-0.324-0.256-0.641
	c0.352-0.095,0.258,0.254,0.514,0.254C95.047,240.982,94.866,241.017,94.834,241.199z M102.786,151.3
	c1.312-0.729,4.551-0.492,5.643,0.513c-0.027,1.893-0.191,3.004,0,4.617C106.377,154.89,105.096,152.58,102.786,151.3z
	 M105.606,180.668c1.1-1.681,2.404-3.153,3.209-5.13c0.441,0.949,0.141,2.25,0.383,3.591
	C107.426,178.691,106.915,180.254,105.606,180.668z M109.456,181.181c-0.574,0.127-1.471,0.654-1.926,0.128
	C108.094,180.922,109.206,180.197,109.456,181.181z M101.375,175.409c-0.654,1.749-2.994,3.914-5.129,4.617
	c-1.543,0.508-2.598-0.21-3.592-1.282C95.202,177.328,98.704,176.285,101.375,175.409z M88.549,187.208
	c0.24-0.231,0.473-0.471,0.387-1.026c1.293,0.298,2.414,1.281,3.975,0.771c1.682,0.669,3.24,0.127,4.746-0.257
	c0.102,0.444-0.191,0.492-0.129,0.897c-1.566,1.383-2.896,3.003-4.104,4.745c-1.037,0.737-1.877,1.357-2.822,2.438
	c-0.189,0.216-0.166,0.661-0.385,0.896c-0.203,0.225-0.516,0.204-0.641,0.385c-0.49,0.712-0.889,1.16-1.539,1.795
	c-0.741,0.729-1.122,1.579-1.794,2.565c-0.4,0.588-1.137,0.948-1.539,1.54c-0.24,0.352-0.142,0.812-0.385,1.152
	c-0.287,0.402-0.956,0.501-1.027,1.283c-3.454,3.001-5.737,7.172-9.233,10.131c-1.42,1.828-3.398,3.1-5.001,4.744
	c-0.102,0.241-0.214,0.472-0.257,0.771c-1.105,0.52-1.965,1.284-2.308,2.565c-0.427,0.215-0.694,0.588-1.154,0.77
	c-0.647,1.914-2.587,2.541-3.334,4.36c-0.169-0.154-0.202-0.051-0.386,0c-1.441,1.637-2.824,2.552-3.975,4.488
	c-1.994,1.768-3.819,3.705-5.9,5.386c0.247,0.347-0.229,0.067-0.256,0.641c-1.648,0.747-2.658,2.129-4.104,3.079
	c-0.23,0.016-0.271-0.157-0.514-0.128c-0.425-3.374-0.601-5.535-0.256-8.208c-0.045-0.147-0.227-0.325-0.257-0.129
	c-0.229-0.487,0.712,0.021,0.898,0.257c1.529-0.48,3.019-0.791,4.744-0.384c1.578-1.175,0.987-4.39,0.257-6.285
	c-1.893-0.588-3.76-0.967-6.027-0.77c-0.017-5.923,0.27-13.663,0.77-21.16c0.663-0.278,1.457-0.624,2.052-1.282
	c3.21-1.276,6.896-2.798,10.261-3.848c0.845-0.496,3.195-1.416,4.871-1.923c0.497-0.15,0.955-0.401,1.412-0.514
	c0.674-0.165,1.727-0.641,2.308-0.897c0.441-0.194,0.965-0.24,1.539-0.513c2.215-1.049,4.998-2.479,7.182-3.591
	c0.977-0.099,1.824-0.377,2.694-1.154c2.231-0.421,4.142-1.694,6.155-1.924C86.429,188.249,87.42,187.658,88.549,187.208z
	 M45.974,227.861c1.317-0.921,2.953-0.041,5.002-0.128c0.413,0.99,0.922,2.84,0.256,3.462c-1.927-0.015-2.918,0.117-4.873,0.513
	c0.122-0.77,0.399-1.148-0.128-1.668C46.479,229.555,46.331,228.637,45.974,227.861z M40.588,179.642
	c-0.409,0.11-0.396-0.202-0.642-0.256C39.992,178.96,40.736,179.135,40.588,179.642z M31.355,277.748
	c-0.611,2.61-1.086,5.706-1.411,8.977c-1.872,5.259-2.902,11.254-8.977,11.927c-0.621,0.069-1.389,0.01-2.309,0.256
	c-3.363-2.209-5.755-6.208-7.182-9.232c-0.113-1.881-1.646-3.429-1.796-5.387c-0.075-0.267-0.246-0.438-0.513-0.512
	c0.115-1.505-0.522-2.986-1.154-4.36c0.046-0.378,0.072-0.801,0-1.154c-0.071-0.352-0.244-0.069-0.385-0.386
	c-0.216-0.488,0.012-1.927-0.256-2.949c-0.123-0.468-0.454-0.828-0.514-1.153c-0.147-0.813,0.109-1.872,0-2.822
	c-0.112-0.981-0.348-1.789-0.513-2.692c-0.433-2.367,0.023-5-0.257-6.798c-0.073-0.474-0.477-1.003,0-1.668
	c-0.462-0.581-0.348-2.354-0.128-3.205c-0.124,0.004-0.1,0.156-0.128,0.256c-0.135-0.9,0.385-3.092-0.385-3.718
	c0.396-2.836-0.031-5.932,0-8.85c0.012-1.085,0.18-2.129,0.129-3.206c-0.061-1.242,0.396-2.384,0.512-3.591
	c0.098-1.004-0.361-2.062,0.385-2.949c0.096-0.396-0.352-0.247-0.256-0.642c0.452-0.418,0.483-1.839,0.385-2.95
	c0.104,0.025,0.128,0.129,0.256,0.129c0.083-2.689,0.914-4.794,0.898-7.951c1.08-4.203,1.949-8.903,3.077-13.08
	c0.562-1.338,1.745-2.678,1.796-4.104c0.374,0.032,0.441-0.241,0.641-0.384c1.08-1.746,2.438-3.593,4.488-3.977
	c0.638,0.287,1.297-0.142,2.053-0.129c1.73,0.031,3.508,0.982,4.744,1.412c2.879,4.237,4.118,9.152,4.232,15.645
	c0.145,0.369,0.27,0.757,0.514,1.026c-0.354,0.485-0.58,1.691-1.026,1.667c-0.016,0.23,0.157,0.271,0.128,0.514
	c-1.068,0.583-0.844,2.267-1.924,3.077c-0.193,1.991-2.173,3.741-2.308,5.771c-0.321,0.106-0.405,0.449-0.642,0.641
	c-0.877,3.298-2.677,5.079-3.463,8.593c-0.487-0.188-0.025,0.572-0.513,0.384c-0.278,1.51-1.337,3.241-2.052,5.003
	c0.068,0.103,0.135,0.208,0.129,0.384c-0.109,0.024-0.121-0.05-0.129-0.129c-0.919,1.332-1.826,2.769-2.052,4.617
	c0.544,0.902,0.106,3.238,1.539,3.848c-0.659,1.196,2.7,3.504,3.206,4.745h0.513c0.709,0.962,1.388,2.031,2.564,2.18
	c2.571,2.833,5.706,6.018,8.722,9.105c-0.003,0.384-0.334,0.437-0.385,0.77C31.819,273.493,30.97,275.827,31.355,277.748z
	 M31.739,246.585c0.158,0.362,0.158,0.791,0,1.153c-3.941,0.048-7.467,1.742-11.67,1.282c-2.008,2.185,2.886,1.589,3.206,1.54
	c2.998-0.402,5.192-1.461,8.593-1.154c0.018,1.003,0.082,1.535,0.256,2.565c-4.248,0.918-9.529,0.118-13.337,1.538
	c-0.063,0.404,0.28,0.501,0,0.77c-1.083-1.436-2.489-4.519-1.282-6.027c0.785-0.983,1.943-0.905,2.949-1.796
	c0.608,0.362,1.711,0.375,2.309-0.256c0.744,0.481,1.127,0.329,1.924,0c0.036,0.207-0.121,0.221-0.129,0.385
	C26.952,245.956,29.395,246.529,31.739,246.585z M29.174,241.583c-0.725,0.365-0.94,1.407-1.025,2.052
	c0.18,0.317,0.441,0.228,0.77,0.128c0.546-0.677,0.844-1.519,1.153-2.308c0.302-0.765,0.397-1.875,1.283-2.309
	c0.018,2.162,0.062,3.774-0.129,5.899c-1.562,0.112-3.691-0.287-5.386-0.257c0.411-2.434,2.227-2.755,2.437-5.258h0.385
	c0.827-1.74,1.353-2.79,2.437-4.232c0.334,0.415,0.063,0.684,0.385,1.154c-1.475,1.254-1.212,3.347-2.437,4.617
	C29.03,241.3,29.204,241.341,29.174,241.583z M31.355,266.591c-2.011-0.896-2.707-3.108-4.617-4.104
	c-1.14-2.034-3.203-2.514-4.36-4.36c-0.309,0.052-0.279-0.235-0.641-0.129c-0.575-1.263-1.791-1.885-2.565-2.948
	c1.992-0.595,3.898-1.136,6.284-1.026c-0.031-0.14-0.256-0.088-0.256-0.257c0.049-0.618,0.375,0.283,0.512,0.384
	c0.239-0.103,0.519-0.165,0.643-0.384c2.104,0.725,4.022-0.617,5.77,0C32.227,259.242,31.517,261.948,31.355,266.591z
	 M49.822,254.15c0.038,0.154,0.432,1.015,0.385,0.771c0.18,0.045,0.011,0.226-0.129,0.257c0.591,2.32,0.421,5.321,0.386,7.053
	c-0.063,3.057-0.727,7.431-3.335,10.131c-0.527-2.553,0.139-5.265-0.513-7.951c-0.46-0.106-0.621,0.29-0.897,0
	c-1.327,1.312,0.647,4.243-0.386,4.874c0.365,0.982,0.244,2.884-0.064,4.197c0.116,0.738,0.115,1.495,0.047,2.241
	c0.051-0.007,0.095-0.025,0.146-0.026c0.137,0.958-0.008,1.411,0.257,2.18c-0.203,1.292-0.15,2.967,0,4.489
	c0.052,0.522,0.37,0.88,0.385,1.282c0.03,0.894-0.873,2.325-0.257,3.592c-0.382,0.029-0.168,0.524-0.128,0.897
	c-2.448,0.903-4.85,0.54-6.669,0.896c-1.541,0.049-2.484-0.017-4.104-0.385c-0.24-0.577-0.341-1.146,0.128-1.539
	c1.498,0.524,3.057-0.715,4.36,0c0.766-0.452,2.498-0.044,3.591-0.257c1.497-0.62,1.633-2.192,1.154-3.719
	c0.104,0.024,0.128,0.129,0.257,0.129c-0.354-1.771-0.13-4.309-0.439-6.542c-0.091-0.059-0.171-0.138-0.213-0.258
	c-0.33-0.962-0.197-1.971-0.184-2.967c0.002-0.134,0.047-0.236,0.116-0.313c-0.063-1.894,0.236-3.398-0.307-4.796
	c0.045-0.181,0.226-0.012,0.257,0.128c0.137-1.773,0.177-2.089-0.257-3.335c-0.646-0.091-0.882,0.23-1.282,0.386
	c0.344,2.236,0.15,5.768,0.256,8.72c-0.879,0.289-2.191-0.544-3.334-0.77c-0.525-0.801-0.969-1.681-1.796-2.18
	c-0.419-1.247-0.97-2.364-1.538-3.464c0.033-1.395-0.279-3.052-0.257-4.615c0.016-1.094,0.533-2.191,0.257-2.821
	c1.113-4.154,2.198-9.189,5.514-12.056h0.77c0.697-0.887,2.143-2.091,3.334-1.025c0.2-0.367,0.254-0.079,0.771-0.129
	c0.12,0.315,0.079,0.553,0.384,0.77C47.935,249.022,49.215,251.681,49.822,254.15z M42.897,285.187
	c-2.331,0.424-4.391,0.261-6.412,0.512c0.365-2.966,0.592-7.385,1.539-10.899c1.436,0.478,2.575,1.337,4.231,1.025
	c0.591,0.647,0.027,1.74,0.77,2.309C42.111,279.925,43.126,282.571,42.897,285.187z M37.253,215.423
	c0.475-0.258,0.968-1.04,1.411-1.924c0.144,1.257-0.369,3.575-1.154,5.258c-0.066-0.789,0.027-1.722-0.513-2.309
	C36.934,216.034,37.596,215.689,37.253,215.423z M41.101,246.456c0.057,0.113,0.112,0.229,0.257,0.258
	c-0.59,0.991-1.343,1.82-2.309,2.436c0.026-1.01,0.133-1.795,0.129-2.564c0.023-0.146,0.128-0.071,0.127,0
	c0.434,0.132,1.326-0.438,1.027,0.129C40.811,246.85,40.698,246.396,41.101,246.456z M39.819,237.736
	c-0.054,0.371,0.384,0.77,0.385,1.154c0.001,1.122-0.733,2.498-0.385,3.975c0.279,0.577,0.559,1.151,0.514,2.053
	c-0.781,0.194-1.104,0.011-2.053,0.257c0.459-2.985-0.322-6.547,0.257-8.977c-0.345-1.833,0.286-3.438-0.386-5.388
	c0.689-2.079-0.208-3.284,0-5.386c0.926-0.273,1.085-1.31,1.539-2.052c0.659,0.883,0.574,3.71,0.643,4.488
	C39.627,231.531,40.299,234.421,39.819,237.736z M39.305,221.961c0.312,0.173,0.08,0.258,0.257,0.386
	c-0.557,0.103-1.203,1.063-1.154,1.795c-0.63-0.925-1.259-3.321,0.257-3.719c0.361-1.425,0.429-2.352,0.77-3.334
	C40.01,218.916,40.098,220.238,39.305,221.961z M97.143,195.928c-0.008,1.06-1.182,0.956-1.283,1.924
	c-0.207,0.036-0.219-0.121-0.383-0.128c-1.424,1.486-3.447,2.369-4.361,4.36c-1.67,0.896-2.867,2.263-3.591,4.104
	c-1.194,0.345-1.634,1.444-2.18,2.436c-2.424,1.338-3.576,3.947-5.643,5.644c0.027,0.219-0.219,0.332,0,0.385
	c-0.297,0.429-0.944,0.509-0.897,1.282c-1.837,0.833-2.582,3.356-4.489,4.488c0.053,0.309-0.234,0.279-0.128,0.641
	c-0.716,0.651-1.562,1.176-1.925,2.181c-0.308-0.052-0.277,0.234-0.641,0.129c-2.924,4.024-5.567,6.752-9.489,9.746
	c0.162,0.761-0.566,0.631-0.385,1.411c-0.731,0.251-1.225,0.743-1.41,1.539c-0.863,0.121-1.292,0.675-1.541,1.41
	c-1.035,0.322-2.398,1.906-2.819,2.821c-0.241,0.312-0.466-0.251-0.257,0.385c-0.834-0.068-1.709,1.353-1.924,1.924
	c-2.164,0.999-3.021,3.305-4.874,4.616c-0.04,0.302-0.202,0.481-0.128,0.897c-0.992-1.015-2.319-1.698-3.205-2.821
	c-1.496-0.052-2.473-0.405-3.72-0.256c-0.223-3.035-0.127-5.707-0.642-7.823c0.208-3.991,0.294-7.52,0.258-11.156
	c0.359-0.525-0.443-1.719,0-2.822c-0.066-0.319-0.243-0.526-0.386-0.769c0.48-1.084,0.111-2.231,0.897-2.95
	c-0.406-0.058-0.778-0.652-0.256-0.898c-0.089-0.401-0.342-0.167-0.642-0.128c-0.14-1.352-0.038-2.055,0-3.463
	c0.034-1.287,0.131-3.294,0-3.847c-0.114-0.479-0.631-1.366-1.026-1.411c-0.838-0.094-0.719,0.906-1.538,1.027
	c-0.048,0.218,0.1,0.242,0.257,0.256c-1.797,2.025-2.253,4.599-4.104,6.54c0.254,0.117,0.254,0.431,0,0.128
	c-0.783,1.402-2.42,3.015-2.438,4.36c-0.262-0.257-0.342-0.033-0.514,0.129c-0.834,1.441-1.967,3.052-2.949,4.231
	c-0.02,0.584-0.105,0.504,0,1.026c-0.686,0.146-1.213,1.277-1.282,2.437c-1.577,1.978-3.214,4.559-3.72,7.182
	c-0.168,0.131-0.473,0.125-0.641,0.256c0.166,2.066-1.83,2.591-1.539,4.361c-1.049-0.008-0.078,1.344-1.025,1.282
	c-0.133,0.859,0.119,1.335,0.77,1.411c1.035-0.962,1.461-2.544,1.667-3.72c0.957-1.532,1.763-2.569,2.308-4.616
	c0.811-1.538,1.729-2.82,2.053-4.361c0.113-0.1,0.289-0.138,0.513-0.128c0.743-1.938,1.503-3.452,2.821-5.13
	c0.477,1.605-0.09,2.281,0.385,3.59c0.07,0.286-0.245,0.184-0.256,0.387c0.483,1.089-0.078,1.2,0,2.692
	c-0.873,1.479-1.521,3.182-2.309,4.746c-0.821,0.718-1.519,2.241-1.668,3.205c-0.277,0.652-1.235,1.046-1.41,1.41
	c-0.025,0.055,0.219,0.308,0.256,0.257c-0.5,0.676-1.293,1.021-1.666,2.309c-1.576-0.411-3.904,0.339-5.131,0.256
	c0.094-1.133,1.283-2.049,0.771-2.692c1.247-1.914,2.249-4.002,2.821-6.284c1.012-1.691,2.062-3.303,2.564-5.771
	c0.566-0.147,1.136-1.413,0.77-1.668c0.094-0.229,0.233-0.018,0.385,0c0.867-2.853,2.54-4.897,3.463-7.694
	c2.078-2.039,3.337-5.39,4.616-7.822c0.479-0.248,0.858-0.595,0.897-1.283c-0.023-0.146-0.129-0.071-0.128,0
	c-0.271-0.188,0.135-0.271,0.385-0.128c1.878-2.688,2.73-5.341,4.745-7.695c-0.178-0.769,0.648-1.432,0.513-2.564
	c-0.03-0.226-0.221-0.292-0.513-0.257c-0.123-0.792-0.059-1.07-0.129-2.179c0.229-0.158,0.676-0.095,0.77-0.386
	c-1.293-3.439-0.42-8.519-0.512-12.696c-0.035-1.547,0.37-3.416-0.771-4.231c1.001-0.545,2.826-0.237,3.976-0.257
	c0.012,0.364,0.363,1.183-0.128,1.412c0.368,1.038-0.171,2.269,0.128,4.359c0.104,0.725,0.242,0.89,0.129,1.539
	c-0.361,2.054,0.331,5.006,0.513,6.924c0.009,0.097-0.258,0.365-0.257,0.386c0.059,0.773,0.116,2.374,0.642,2.822
	c0.233,0.198,1.222-0.109,1.282,0.641c3.645-0.588,4.95-3.514,8.849-3.849c0.008-0.384,0.919-0.525,0.77-0.641
	c0.462-0.14,0.675-0.017,1.283-0.256c0.149-0.06,0.138-0.318,0.257-0.385c2.664-1.491,6.241-2.287,8.977-3.977
	c0.573,0.111,1.685-0.256,2.052-0.769c1.886-0.416,3.694-1.763,6.412-2.309c3.347-1.989,7.85-2.994,11.286-5.386
	c0.771,1.237,1.394,2.622,2.564,3.463c-1.452,1.095-3.878,1.539-5.644,2.82h-0.769c-0.52,0.379-1.32,0.476-1.667,1.026
	c-0.438-0.17-1.447,0.054-1.54,0.642c-1.443-0.009-2.256,0.805-3.976,1.281c-0.04,0.172-0.221,0.3-0.385,0.643
	c-3.797,0.562-5.815,2.904-9.489,3.59c-0.45-0.022-0.422,0.433-0.77,0.513c-1.654-0.029-2.542,0.708-3.335,1.539
	c-2.177,0.305-4.408,1.002-6.027,2.31c-0.754-0.416-1.601,0.514-2.18,0.256c-0.865,1.263-2.96,0.571-3.335,1.923
	c-1.186-0.533-1.932,1.218-3.462,1.154c-0.242,0.015-0.089,0.426-0.386,0.386c0.018,5.974-0.451,10.072-0.127,14.747
	c-0.236,0.537-0.295,1.099,0,1.667c-0.34,1.928-0.612,4.12-0.514,6.412c0.043,1.007,0.105,2.215,0.641,2.821
	c-0.03,0.331-0.221-0.175-0.513,0c0.872,3.855,0.005,7.1,0.513,10.772c-1.12,0.979,1.043,3.114,0.258,4.233
	c0.059,0.496,0.707,0.402,1.025,0.641c1.065-0.986,1.492-2.61,3.078-3.078c0.393-2.32,3.324-3.042,4.359-5.129
	c-0.106,0.63,0.627,0.121,0.129-0.129c0.613-0.091,1.518-0.83,1.668-1.796c0.318,0.015,0.396,0.241,0.641,0
	c-0.01-0.06-0.034-0.076-0.059-0.077c-0.021,0.024-0.048,0.053-0.07,0.077c0-0.041,0.036-0.078,0.07-0.077
	c1.672-1.858,3.896-4.215,5.701-6.335c0.574-0.078,0.572-0.413,0.898-1.025c1.384-0.41,2.156-1.433,2.691-2.693
	c1.149-0.946,2.301-1.889,2.823-3.463c0.809-0.267,1.594-0.921,1.667-1.538c0.783-0.113,1.097-0.698,1.409-1.283
	c3.339-2.048,5.432-5.34,8.208-7.95c1.552-2.724,4.088-4.464,5.644-7.183c1.55-1.228,2.16-3.396,3.845-4.488
	c1.508-2.555,3.953-4.17,5.516-6.668c0.115-0.101,0.291-0.139,0.514-0.128c0.195-0.616,0.873-0.751,0.898-1.54
	c0.424-0.209,1.984-1.724,2.691-2.565c0.816-0.971,1.492-2.281,2.053-3.333c1.576-0.863,2.832-2.721,4.232-3.335
	c-1.137,1.878-0.848,5.219-0.77,7.311C101.54,190.577,100.125,194.037,97.143,195.928z M104.454,299.165
	c0.467-0.082,0.158,0.61,0.512,0.641C104.723,300.162,104.397,299.529,104.454,299.165z M115.227,314.041
	c0.098-0.254,0.824-0.069,0.768,0.256C115.551,314.398,115.454,314.154,115.227,314.041z M123.946,194.39
	c1.805,2.812,3.146,6.088,4.232,9.618c0.371-0.281,0.248,1.34,0.896,1.54c0.025,2.065,1.346,3.991,1.668,6.026
	c0.258,1.638,0.561,3.47,0.898,5.13c0.256,1.258,0.715,2.562,0.77,3.719c0.037,0.819-0.174,1.627-0.129,2.438
	c0.068,1.215,0.422,2.382,0.641,3.59c0.18,0.981,0.023,2.03,0.129,3.078c0.068,0.67,0.438,1.375,0.514,2.052
	c0.141,1.241-0.115,2.492,0,3.719c0.033,0.352,0.338,0.672,0.385,1.026c0.059,0.457-0.145,0.968-0.129,1.411
	c0.131,3.451,0.371,7.138,0.385,10.644c0.018,4.611-0.232,9.305,0.514,13.979c-0.523,1.271,0.141,2.461-0.387,3.719
	c0.545,4.138-0.197,8.325-1.023,13.081c-0.779,4.464-1.68,9.837-3.977,13.466c-0.779,3.658-2.602,5.665-3.848,8.977
	c-1.789,2.484-4.16,5.472-7.822,5.259c-0.4,0.06-0.41-0.274-0.385-0.642c-2.855-0.779-4.67-2.598-6.285-4.617
	c-1.189-3.768-2.93-6.986-3.975-10.899c-0.094-0.12-0.234-0.195-0.385-0.258c-1.793-6.397-3.344-13.446-4.232-20.775
	c-0.518-4.261-0.926-8.529-1.666-12.439c-0.107-1.569-0.314-3.557-0.643-5.257c-0.025-0.142-0.514-1.014-0.514-1.027
	c-0.01-0.29,0.787-1.042,0.387-1.538c0.049-0.434-0.223-0.547-0.387-0.77c0.078-2.955-0.271-6.46-0.512-8.977
	c0.117-1.812,0.32-4.197,0-5.771c0.533-2.647,0.66-5.48,0.77-8.336c0.23-5.947,1.279-11.885,2.693-17.697
	c-0.033-0.418,0.398-0.371,0.512-0.642c0.248-2.348,0.939-3.747,1.668-5.771c0.973,6.881,0.928,12.334,1.154,19.237
	c0.012,0.33,0.207,0.433,0.258,0.77c0.215,1.452-0.533,3.113,0.254,4.745c-0.018,0.408-0.289,0.564-0.254,1.026
	c-0.182,0.648,0.588,0.351,0.512,0.897c-0.104,0.11-0.35,0.076-0.385,0.256c0.219,0.815,0.439,2.438,0.127,3.206
	c0.021,0.151,0.234,0.109,0.387,0.128c-0.422,4.729,0.059,8.336,0,13.21c0.137,0.503,0.871,0.409,1.283,0.641
	c0.928,2.935,4.822,0.438,6.668,1.411c0.105,1.644,0.391,3.078,1.795,3.847c1.244-0.464,1.289-2.131,1.537-3.591
	c2.105-0.691,4.32-1.501,6.541-1.41c0.529-0.368,0.562-1.234,1.027-1.667c-0.162-5.477,0.779-9.312-0.129-14.877
	c0.666-6.176-0.205-13.743-0.383-19.364c-0.047-1.428-0.193-2.954-0.387-4.359C124.184,201.665,123.78,197.898,123.946,194.39z
	 M116.25,247.354c0.27-0.055,0.342,0.087,0.514,0.128c-0.1,0.114-0.137,0.29-0.127,0.513
	C116.372,247.919,116.151,247.798,116.25,247.354z M122.663,193.107c-0.273,3.617,0.355,6.009,0.129,9.361
	c0.959,2.981,0.32,7.39,1.283,9.746c-0.625,0.768-0.021,1.108,0.129,1.925c0.039,0.218-0.168,0.522-0.129,0.641
	c0.1,0.297,0.371,0.193,0.383,0.514c0.025,0.557-0.43,0.996-0.383,1.667c-0.113,0.411,0.332,0.267,0.383,0.513
	c-0.232,1.894-0.547,4.806,0,7.182c-0.066,2.266-0.492,4.18,0,5.899c-0.416,0.024-0.092,0.223-0.254,0.641
	c0.494,4.089,0.117,8.807-0.387,12.696c-0.557-0.131-0.336-0.791-0.127-1.154c-0.35-3.304-0.533-7.318-0.898-11.029
	c-0.07-0.283,0.246-0.183,0.258-0.384c-0.25-1.462-0.205-2.874-0.129-4.36c0.176-3.414-0.441-7.531-0.129-10.389
	c0.254-2.3-0.562-4.72-0.641-7.054c-0.084-2.523-0.086-5.019-0.258-7.564c-0.266-3.949-0.402-7.867-0.896-11.799
	C121.872,190.888,122.211,191.768,122.663,193.107z M118.559,188.233c0.188,1.054,0.777,1.704,0.898,2.822
	c-0.021,0.277,0.455,0.058,0.641,0.129c0.021,0.361-0.361,0.32-0.512,0.512c0.643,4.753,1.346,10.733,1.152,15.005
	c0.557,2.78-0.182,6.591,0.898,9.233c-0.039,0.303-0.445,0.238-0.385,0.641c0.287,3.614-0.238,7.091,0.385,11.029
	c-0.627,2.59,0.592,5.189-0.256,7.439c0.627,2.436,0.275,5.467,0.77,8.207c-0.982-0.124-2.662,0.525-3.719,0.512
	c-0.562-0.504-0.555-1.58-1.281-1.923c-0.541-0.155-0.562,0.207-0.9,0.257c-0.199-0.356-0.314-0.797-0.641-1.026
	c-1.416,0.524-0.746,2.632-1.025,3.462c-0.109,0.024-0.121-0.05-0.127-0.127c-0.406-0.747-1.568-1.136-2.566-0.897
	c-0.221-0.924,0.162-2.167-0.385-3.079c0.656-0.938,0.135-2.463,0-3.59c0.119-6.567-0.371-11.566-0.256-18.853
	c0.07-0.284-0.244-0.182-0.258-0.385c1.092-8.115-0.557-17.424-0.129-26.675C112.942,189.547,115.631,187.202,118.559,188.233z
	 M115.227,150.018c-0.391,2.184-0.635,4.272-0.643,6.54c-0.027,6.962,1.916,13.894,1.795,20.904
	c-0.018,1.053,0.342,2.36,0.258,3.719c-0.66,0.195-1.277,0.434-1.668,0.897c-1.1-0.159-1.604,0.277-2.564,0.257
	c-0.455,0.56-1.271,0.384-1.795,1.024c-0.537,0.658-0.775,2.642-1.027,3.977c-0.094,0.505-0.26,1.47-0.256,1.796
	c0.014,1.006,0.402,2.185,0.385,3.078c-0.01,0.458-0.535,0.87,0,1.153c-0.219,1.485-0.537,4.399,0,6.541
	c-0.344,0.53-0.322,2.067,0.256,2.436c0.039,0.338-0.498,0.103-0.385,0.515c0.25,2.856,0.43,5.375,0.256,8.977
	c-0.02,0.172,0.203,0.706,0.258,0.384c-0.717,4.667,0.102,9.349-0.385,14.749c0.027,0.185,0.381,0.044,0.385,0.257
	c-0.199,0.211-0.559,1.178,0.127,1.153c-0.438,0.443-0.484,0.774-0.385,1.539c0.109,0.023,0.123-0.05,0.129-0.127
	c0.129,0.758-0.363,3.61,0.643,4.871c-0.084,0.346-0.369,0.488-0.514,0.771c0.086,0.34,0.244,0.61,0.385,0.897
	c-0.461,2.571-0.213,6.192,0,9.104c-0.414-0.027-0.543,0.228-1.025,0.129c-0.967-0.964-0.004-2.4-1.281-2.949
	c-0.125-3.426,0.123-7.179-0.129-10.645c-0.217-2.94-0.545-6.606-0.643-10.004c-0.039-1.403,0.182-2.738,0.127-4.103
	c-0.023-0.659-0.457-1.251-0.512-1.924c-0.029-0.365,0.256-0.787,0.256-1.154c0.006-1.13-0.26-2.333-0.385-3.334
	c-0.172-1.387,0.291-3.229-0.256-4.36c-0.02-0.318,0.201-0.396,0.256-0.641c-1.082-7.219-1.027-14.948-0.768-22.828
	c1.176-0.67,2.891-0.862,4.359-0.641c0.453-0.473,0.807-1.816,0.77-2.821c-0.021-0.566-0.359-0.848-0.512-1.411
	c-0.439-1.606-0.213-3.386-0.387-4.873c-0.166-0.178-0.557-0.127-0.896-0.129c0.475-0.852,0.539-2.109,1.025-2.949
	c-0.092-1.463,0.781-2.769,0-3.206c0.725-1.867,0.477-5.864-0.514-7.566c0.396-3.163,0.371-6.899-0.385-9.747
	c-0.689,0.104-0.883-0.522-1.408-0.897c-1.291,0.007-2.566-0.137-4.105-0.128c-0.268-0.945-0.91-2.149-0.514-3.335
	c6.623-0.21,13.145-0.828,18.98-0.897c0.219,1.15,0.709,2.027,0.77,3.335C120.586,149.162,117.706,149.088,115.227,150.018z"/>
<path fill-rule="evenodd" clip-rule="evenodd" fill="#2C3E50" d="M19.556,305.32c0,0.086,0,0.171,0,0.256
	c0.078,0.008,0.152,0.021,0.129,0.129c0.085,0,0.171,0,0.257,0c0.006-0.079,0.018-0.152,0.127-0.129c0-0.085,0-0.17,0-0.256
	c-0.078-0.007-0.151-0.02-0.127-0.129c-0.086,0-0.172,0-0.257,0C19.677,305.27,19.666,305.344,19.556,305.32z"/>
<path fill-rule="evenodd" clip-rule="evenodd" fill="#C0392B" d="M110.61,234.657c-0.084,0.346-0.369,0.488-0.514,0.771
	c0.086,0.34,0.244,0.61,0.385,0.897c-0.461,2.571-0.213,6.192,0,9.104c-0.414-0.027-0.543,0.228-1.025,0.129
	c-0.967-0.964-0.004-2.4-1.281-2.949c-0.125-3.426,0.123-7.179-0.129-10.645c-0.217-2.94-0.545-6.606-0.643-10.004
	c-0.039-1.403,0.182-2.738,0.127-4.103c-0.023-0.659-0.457-1.251-0.512-1.924c-0.029-0.365,0.256-0.787,0.256-1.154
	c0.006-1.13-0.26-2.333-0.385-3.334c-0.172-1.387,0.291-3.229-0.256-4.36c-0.02-0.318,0.201-0.396,0.256-0.641
	c-1.082-7.219-1.027-14.948-0.768-22.828c1.176-0.67,2.891-0.862,4.359-0.641c0.453-0.473,0.807-1.816,0.77-2.821
	c-0.021-0.566-0.359-0.848-0.512-1.411c-0.439-1.606-0.213-3.386-0.387-4.873c-0.166-0.178-0.557-0.127-0.896-0.129
	c0.475-0.852,0.539-2.109,1.025-2.949c-0.092-1.463,0.781-2.769,0-3.206c0.725-1.867,0.477-5.864-0.514-7.566
	c0.396-3.163,0.371-6.899-0.385-9.747c-0.689,0.104-0.883-0.522-1.408-0.897c-1.291,0.007-2.566-0.137-4.105-0.128
	c-0.268-0.945-0.91-2.149-0.514-3.335c6.623-0.21,13.145-0.828,18.98-0.897c0.219,1.15,0.709,2.027,0.77,3.335
	c-2.719,0.812-5.6,0.737-8.078,1.667c-0.391,2.184-0.635,4.272-0.643,6.54c-0.027,6.962,1.916,13.894,1.795,20.904
	c-0.018,1.053,0.342,2.36,0.258,3.719c-0.66,0.195-1.277,0.434-1.668,0.897c-1.1-0.159-1.604,0.277-2.564,0.257
	c-0.455,0.56-1.271,0.384-1.795,1.024c-0.537,0.658-0.775,2.642-1.027,3.977c-0.094,0.505-0.26,1.47-0.256,1.796
	c0.014,1.006,0.402,2.185,0.385,3.078c-0.01,0.458-0.535,0.87,0,1.153c-0.219,1.485-0.537,4.399,0,6.541
	c-0.344,0.53-0.322,2.067,0.256,2.436c0.039,0.338-0.498,0.103-0.385,0.515c0.25,2.856,0.43,5.375,0.256,8.977
	c-0.02,0.172,0.203,0.706,0.258,0.384c-0.717,4.667,0.102,9.349-0.385,14.749c0.027,0.185,0.381,0.044,0.385,0.257
	c-0.199,0.211-0.559,1.178,0.127,1.153c-0.438,0.443-0.484,0.774-0.385,1.539c0.109,0.023,0.123-0.05,0.129-0.127
	C110.096,230.544,109.604,233.396,110.61,234.657z"/>
<path fill-rule="evenodd" clip-rule="evenodd" fill="#C0392B" d="M58.797,237.479c-1.035,0.322-2.398,1.906-2.819,2.821
	c-0.241,0.312-0.466-0.251-0.257,0.385c-0.834-0.068-1.709,1.353-1.924,1.924c-2.164,0.999-3.021,3.305-4.874,4.616
	c-0.04,0.302-0.202,0.481-0.128,0.897c-0.992-1.015-2.319-1.698-3.205-2.821c-1.496-0.052-2.473-0.405-3.72-0.256
	c-0.223-3.035-0.127-5.707-0.642-7.823c0.208-3.991,0.294-7.52,0.258-11.156c0.359-0.525-0.443-1.719,0-2.822
	c-0.066-0.319-0.243-0.526-0.386-0.769c0.48-1.084,0.111-2.231,0.897-2.95c-0.406-0.058-0.778-0.652-0.256-0.898
	c-0.089-0.401-0.342-0.167-0.642-0.128c-0.14-1.352-0.038-2.055,0-3.463c0.034-1.287,0.131-3.294,0-3.847
	c-0.114-0.479-0.631-1.366-1.026-1.411c-0.838-0.094-0.719,0.906-1.538,1.027c-0.048,0.218,0.1,0.242,0.257,0.256
	c-1.797,2.025-2.253,4.599-4.104,6.54c0.254,0.117,0.254,0.431,0,0.128c-0.783,1.402-2.42,3.015-2.438,4.36
	c-0.262-0.257-0.342-0.033-0.514,0.129c-0.834,1.441-1.967,3.052-2.949,4.231c-0.02,0.584-0.105,0.504,0,1.026
	c-0.686,0.146-1.213,1.277-1.282,2.437c-1.577,1.978-3.214,4.559-3.72,7.182c-0.168,0.131-0.473,0.125-0.641,0.256
	c0.166,2.066-1.83,2.591-1.539,4.361c-1.049-0.008-0.078,1.344-1.025,1.282c-0.133,0.859,0.119,1.335,0.77,1.411
	c1.035-0.962,1.461-2.544,1.667-3.72c0.957-1.532,1.763-2.569,2.308-4.616c0.811-1.538,1.729-2.82,2.053-4.361
	c0.113-0.1,0.289-0.138,0.513-0.128c0.743-1.938,1.503-3.452,2.821-5.13c0.477,1.605-0.09,2.281,0.385,3.59
	c0.07,0.286-0.245,0.184-0.256,0.387c0.483,1.089-0.078,1.2,0,2.692c-0.873,1.479-1.521,3.182-2.309,4.746
	c-0.821,0.718-1.519,2.241-1.668,3.205c-0.277,0.652-1.235,1.046-1.41,1.41c-0.025,0.055,0.219,0.308,0.256,0.257
	c-0.5,0.676-1.293,1.021-1.666,2.309c-1.576-0.411-3.904,0.339-5.131,0.256c0.094-1.133,1.283-2.049,0.771-2.692
	c1.247-1.914,2.249-4.002,2.821-6.284c1.012-1.691,2.062-3.303,2.564-5.771c0.566-0.147,1.136-1.413,0.77-1.668
	c0.094-0.229,0.233-0.018,0.385,0c0.867-2.853,2.54-4.897,3.463-7.694c2.078-2.039,3.337-5.39,4.616-7.822
	c0.479-0.248,0.858-0.595,0.897-1.283c-0.023-0.146-0.129-0.071-0.128,0c-0.271-0.188,0.135-0.271,0.385-0.128
	c1.878-2.688,2.73-5.341,4.745-7.695c-0.178-0.769,0.648-1.432,0.513-2.564c-0.03-0.226-0.221-0.292-0.513-0.257
	c-0.123-0.792-0.059-1.07-0.129-2.179c0.229-0.158,0.676-0.095,0.77-0.386c-1.293-3.439-0.42-8.519-0.512-12.696
	c-0.035-1.547,0.37-3.416-0.771-4.231c1.001-0.545,2.826-0.237,3.976-0.257c0.012,0.364,0.363,1.183-0.128,1.412
	c0.368,1.038-0.171,2.269,0.128,4.359c0.104,0.725,0.242,0.89,0.129,1.539c-0.361,2.054,0.331,5.006,0.513,6.924
	c0.009,0.097-0.258,0.365-0.257,0.386c0.059,0.773,0.116,2.374,0.642,2.822c0.233,0.198,1.222-0.109,1.282,0.641
	c3.645-0.588,4.95-3.514,8.849-3.849c0.008-0.384,0.919-0.525,0.77-0.641c0.462-0.14,0.675-0.017,1.283-0.256
	c0.149-0.06,0.138-0.318,0.257-0.385c2.664-1.491,6.241-2.287,8.977-3.977c0.573,0.111,1.685-0.256,2.052-0.769
	c1.886-0.416,3.694-1.763,6.412-2.309c3.347-1.989,7.85-2.994,11.286-5.386c0.771,1.237,1.394,2.622,2.564,3.463
	c-1.452,1.095-3.878,1.539-5.644,2.82c-0.257,0-0.514,0-0.769,0c-0.52,0.379-1.32,0.476-1.667,1.026
	c-0.438-0.17-1.447,0.054-1.54,0.642c-1.443-0.009-2.256,0.805-3.976,1.281c-0.04,0.172-0.221,0.3-0.385,0.643
	c-3.797,0.562-5.815,2.904-9.489,3.59c-0.45-0.022-0.422,0.433-0.77,0.513c-1.654-0.029-2.542,0.708-3.335,1.539
	c-2.177,0.305-4.408,1.002-6.027,2.31c-0.754-0.416-1.601,0.514-2.18,0.256c-0.865,1.263-2.96,0.571-3.335,1.923
	c-1.186-0.533-1.932,1.218-3.462,1.154c-0.242,0.015-0.089,0.426-0.386,0.386c0.018,5.974-0.451,10.072-0.127,14.747
	c-0.236,0.537-0.295,1.099,0,1.667c-0.34,1.928-0.612,4.12-0.514,6.412c0.043,1.007,0.105,2.215,0.641,2.821
	c-0.03,0.331-0.221-0.175-0.513,0c0.872,3.855,0.005,7.1,0.513,10.772c-1.12,0.979,1.043,3.114,0.258,4.233
	c0.059,0.496,0.707,0.402,1.025,0.641c1.065-0.986,1.492-2.61,3.078-3.078c0.393-2.32,3.324-3.042,4.359-5.129
	c-0.106,0.63,0.627,0.121,0.129-0.129c0.613-0.091,1.518-0.83,1.668-1.796c0.318,0.015,0.396,0.241,0.641,0
	c-0.024-0.145-0.129-0.07-0.129,0c1.68-1.869,3.943-4.265,5.771-6.412c0.574-0.078,0.572-0.413,0.898-1.025
	c1.384-0.41,2.156-1.433,2.691-2.693c1.149-0.946,2.301-1.889,2.823-3.463c0.809-0.267,1.594-0.921,1.667-1.538
	c0.783-0.113,1.097-0.698,1.409-1.283c3.339-2.048,5.432-5.34,8.208-7.95c1.552-2.724,4.088-4.464,5.644-7.183
	c1.55-1.228,2.16-3.396,3.845-4.488c1.508-2.555,3.953-4.17,5.516-6.668c0.115-0.101,0.291-0.139,0.514-0.128
	c0.195-0.616,0.873-0.751,0.898-1.54c0.424-0.209,1.984-1.724,2.691-2.565c0.816-0.971,1.492-2.281,2.053-3.333
	c1.576-0.863,2.832-2.721,4.232-3.335c-1.137,1.878-0.848,5.219-0.77,7.311c-2.914,1.958-4.328,5.418-7.311,7.309
	c-0.008,1.06-1.182,0.956-1.283,1.924c-0.207,0.036-0.219-0.121-0.383-0.128c-1.424,1.486-3.447,2.369-4.361,4.36
	c-1.67,0.896-2.867,2.263-3.591,4.104c-1.194,0.345-1.634,1.444-2.18,2.436c-2.424,1.338-3.576,3.947-5.643,5.644
	c0.027,0.219-0.219,0.332,0,0.385c-0.297,0.429-0.944,0.509-0.897,1.282c-1.837,0.833-2.582,3.356-4.489,4.488
	c0.053,0.309-0.234,0.279-0.128,0.641c-0.716,0.651-1.562,1.176-1.925,2.181c-0.308-0.052-0.277,0.234-0.641,0.129
	c-2.924,4.024-5.567,6.752-9.489,9.746c0.162,0.761-0.566,0.631-0.385,1.411c-0.731,0.251-1.225,0.743-1.41,1.539
	C59.475,236.19,59.046,236.744,58.797,237.479z"/>
<path fill-rule="evenodd" clip-rule="evenodd" fill="#FFFFFF" d="M111.891,243.508c-0.221-0.924,0.162-2.167-0.385-3.079
	c0.656-0.938,0.135-2.463,0-3.59c0.119-6.567-0.371-11.566-0.256-18.853c0.07-0.284-0.244-0.182-0.258-0.385
	c1.092-8.115-0.557-17.424-0.129-26.675c2.078-1.38,4.768-3.725,7.695-2.693c0.188,1.054,0.777,1.704,0.898,2.822
	c-0.021,0.277,0.455,0.058,0.641,0.129c0.021,0.361-0.361,0.32-0.512,0.512c0.643,4.753,1.346,10.733,1.152,15.005
	c0.557,2.78-0.182,6.591,0.898,9.233c-0.039,0.303-0.445,0.238-0.385,0.641c0.287,3.614-0.238,7.091,0.385,11.029
	c-0.627,2.59,0.592,5.189-0.256,7.439c0.627,2.436,0.275,5.467,0.77,8.207c-0.982-0.124-2.662,0.525-3.719,0.512
	c-0.562-0.504-0.555-1.58-1.281-1.923c-0.541-0.155-0.562,0.207-0.9,0.257c-0.199-0.356-0.314-0.797-0.641-1.026
	c-1.416,0.524-0.746,2.632-1.025,3.462c-0.109,0.024-0.121-0.05-0.127-0.127C114.051,243.658,112.889,243.27,111.891,243.508z"/>
<path fill-rule="evenodd" clip-rule="evenodd" fill="#FFFFFF" d="M104.709,201.442c0.973,6.881,0.928,12.334,1.154,19.237
	c0.012,0.33,0.207,0.433,0.258,0.77c0.215,1.452-0.533,3.113,0.254,4.745c-0.018,0.408-0.289,0.564-0.254,1.026
	c-0.182,0.648,0.588,0.351,0.512,0.897c-0.104,0.11-0.35,0.076-0.385,0.256c0.219,0.815,0.439,2.438,0.127,3.206
	c0.021,0.151,0.234,0.109,0.387,0.128c-0.422,4.729,0.059,8.336,0,13.21c0.137,0.503,0.871,0.409,1.283,0.641
	c0.928,2.935,4.822,0.438,6.668,1.411c0.105,1.644,0.391,3.078,1.795,3.847c1.244-0.464,1.289-2.131,1.537-3.591
	c2.105-0.691,4.32-1.501,6.541-1.41c0.529-0.368,0.562-1.234,1.027-1.667c-0.162-5.477,0.779-9.312-0.129-14.877
	c0.666-6.176-0.205-13.743-0.383-19.364c-0.047-1.428-0.193-2.954-0.387-4.359c-0.531-3.883-0.936-7.649-0.77-11.158
	c1.805,2.812,3.146,6.088,4.232,9.618c0.371-0.281,0.248,1.34,0.896,1.54c0.025,2.065,1.346,3.991,1.668,6.026
	c0.258,1.638,0.561,3.47,0.898,5.13c0.256,1.258,0.715,2.562,0.77,3.719c0.037,0.819-0.174,1.627-0.129,2.438
	c0.068,1.215,0.422,2.382,0.641,3.59c0.18,0.981,0.023,2.03,0.129,3.078c0.068,0.67,0.438,1.375,0.514,2.052
	c0.141,1.241-0.115,2.492,0,3.719c0.033,0.352,0.338,0.672,0.385,1.026c0.059,0.457-0.145,0.968-0.129,1.411
	c0.131,3.451,0.371,7.138,0.385,10.644c0.018,4.611-0.232,9.305,0.514,13.979c-0.523,1.271,0.141,2.461-0.387,3.719
	c0.545,4.138-0.197,8.325-1.023,13.081c-0.779,4.464-1.68,9.837-3.977,13.466c-0.779,3.658-2.602,5.665-3.848,8.977
	c-1.789,2.484-4.16,5.472-7.822,5.259c-0.4,0.06-0.41-0.274-0.385-0.642c-2.855-0.779-4.67-2.598-6.285-4.617
	c-1.189-3.768-2.93-6.986-3.975-10.899c-0.094-0.12-0.234-0.195-0.385-0.258c-1.793-6.397-3.344-13.446-4.232-20.775
	c-0.518-4.261-0.926-8.529-1.666-12.439c-0.107-1.569-0.314-3.557-0.643-5.257c-0.025-0.142-0.514-1.014-0.514-1.027
	c-0.01-0.29,0.787-1.042,0.387-1.538c0.049-0.434-0.223-0.547-0.387-0.77c0.078-2.955-0.271-6.46-0.512-8.977
	c0.117-1.812,0.32-4.197,0-5.771c0.533-2.647,0.66-5.48,0.77-8.336c0.23-5.947,1.279-11.885,2.693-17.697
	c-0.033-0.418,0.398-0.371,0.512-0.642C103.29,204.866,103.981,203.467,104.709,201.442z"/>
<path fill-rule="evenodd" clip-rule="evenodd" fill="#FFFFFF" d="M16.992,253.895c-0.659,1.196,2.7,3.504,3.206,4.745
	c0.171,0,0.342,0,0.513,0c0.709,0.962,1.388,2.031,2.564,2.18c2.571,2.833,5.706,6.018,8.722,9.105
	c-0.003,0.384-0.334,0.437-0.385,0.77c0.207,2.799-0.642,5.133-0.257,7.054c-0.611,2.61-1.086,5.706-1.411,8.977
	c-1.872,5.259-2.902,11.254-8.977,11.927c-0.621,0.069-1.389,0.01-2.309,0.256c-3.363-2.209-5.755-6.208-7.182-9.232
	c-0.113-1.881-1.646-3.429-1.796-5.387c-0.075-0.267-0.246-0.438-0.513-0.512c0.115-1.505-0.522-2.986-1.154-4.36
	c0.046-0.378,0.072-0.801,0-1.154c-0.071-0.352-0.244-0.069-0.385-0.386c-0.216-0.488,0.012-1.927-0.256-2.949
	c-0.123-0.468-0.454-0.828-0.514-1.153c-0.147-0.813,0.109-1.872,0-2.822c-0.112-0.981-0.348-1.789-0.513-2.692
	c-0.433-2.367,0.023-5-0.257-6.798c-0.073-0.474-0.477-1.003,0-1.668c-0.462-0.581-0.348-2.354-0.128-3.205
	c-0.124,0.004-0.1,0.156-0.128,0.256c-0.135-0.9,0.385-3.092-0.385-3.718c0.396-2.836-0.031-5.932,0-8.85
	c0.012-1.085,0.18-2.129,0.129-3.206c-0.061-1.242,0.396-2.384,0.512-3.591c0.098-1.004-0.361-2.062,0.385-2.949
	c0.096-0.396-0.352-0.247-0.256-0.642c0.452-0.418,0.483-1.839,0.385-2.95c0.104,0.025,0.128,0.129,0.256,0.129
	c0.083-2.689,0.914-4.794,0.898-7.951c1.08-4.203,1.949-8.903,3.077-13.08c0.562-1.338,1.745-2.678,1.796-4.104
	c0.374,0.032,0.441-0.241,0.641-0.384c1.08-1.746,2.438-3.593,4.488-3.977c0.638,0.287,1.297-0.142,2.053-0.129
	c1.73,0.031,3.508,0.982,4.744,1.412c2.879,4.237,4.118,9.152,4.232,15.645c0.145,0.369,0.27,0.757,0.514,1.026
	c-0.354,0.485-0.58,1.691-1.026,1.667c-0.016,0.23,0.157,0.271,0.128,0.514c-1.068,0.583-0.844,2.267-1.924,3.077
	c-0.193,1.991-2.173,3.741-2.308,5.771c-0.321,0.106-0.405,0.449-0.642,0.641c-0.877,3.298-2.677,5.079-3.463,8.593
	c-0.487-0.188-0.025,0.572-0.513,0.384c-0.278,1.51-1.337,3.241-2.052,5.003c0.068,0.103,0.135,0.208,0.129,0.384
	c-0.109,0.024-0.121-0.05-0.129-0.129c-0.919,1.332-1.826,2.769-2.052,4.617C15.997,250.949,15.559,253.285,16.992,253.895z"/>
<path fill-rule="evenodd" clip-rule="evenodd" fill="#FFFFFF" d="M37.253,215.423c0.475-0.258,0.968-1.04,1.411-1.924
	c0.144,1.257-0.369,3.575-1.154,5.258c-0.066-0.789,0.027-1.722-0.513-2.309C36.934,216.034,37.596,215.689,37.253,215.423z"/>
<path fill-rule="evenodd" clip-rule="evenodd" fill="#C0392B" d="M39.178,246.585c0.023-0.146,0.128-0.071,0.127,0
	c0.434,0.132,1.326-0.438,1.027,0.129c0.479,0.136,0.365-0.318,0.769-0.258c0.057,0.113,0.112,0.229,0.257,0.258
	c-0.59,0.991-1.343,1.82-2.309,2.436C39.076,248.14,39.182,247.354,39.178,246.585z"/>
<path fill-rule="evenodd" clip-rule="evenodd" fill="#BDC3C7" d="M47.128,272.361c-0.527-2.553,0.139-5.265-0.513-7.951
	c-0.46-0.106-0.621,0.29-0.897,0c-1.327,1.312,0.647,4.243-0.386,4.874c0.434,1.167,0.186,3.643-0.256,4.872
	c-0.56-0.089-0.723,0.22-1.282,0.129c-0.29-2.435,0.26-4.239-0.385-5.898c0.045-0.181,0.226-0.012,0.257,0.128
	c0.137-1.773,0.177-2.089-0.257-3.335c-0.646-0.091-0.882,0.23-1.282,0.386c0.344,2.236,0.15,5.768,0.256,8.72
	c-0.879,0.289-2.191-0.544-3.334-0.77c-0.525-0.801-0.969-1.681-1.796-2.18c-0.419-1.247-0.97-2.364-1.538-3.464
	c0.033-1.395-0.279-3.052-0.257-4.615c0.016-1.094,0.533-2.191,0.257-2.821c1.113-4.154,2.198-9.189,5.514-12.056
	c0.258,0,0.514,0,0.77,0c0.697-0.887,2.143-2.091,3.334-1.025c0.2-0.367,0.254-0.079,0.771-0.129c0.12,0.315,0.079,0.553,0.384,0.77
	c1.448,1.027,2.729,3.686,3.335,6.155c0.038,0.154,0.432,1.015,0.385,0.771c0.18,0.045,0.011,0.226-0.129,0.257
	c0.591,2.32,0.421,5.321,0.386,7.053C50.4,265.287,49.737,269.661,47.128,272.361z"/>
<path fill-rule="evenodd" clip-rule="evenodd" fill="#FFFFFF" d="M25.2,253.767c0.049-0.618,0.375,0.283,0.512,0.384
	c0.239-0.103,0.519-0.165,0.643-0.384c2.104,0.725,4.022-0.617,5.77,0c0.104,5.476-0.606,8.182-0.769,12.824
	c-2.011-0.896-2.707-3.108-4.617-4.104c-1.14-2.034-3.203-2.514-4.36-4.36c-0.309,0.052-0.279-0.235-0.641-0.129
	c-0.575-1.263-1.791-1.885-2.565-2.948c1.992-0.595,3.898-1.136,6.284-1.026C25.424,253.884,25.2,253.936,25.2,253.767z"/>
<path fill-rule="evenodd" clip-rule="evenodd" fill="#BDC3C7" d="M43.025,273.663c0.317-0.004,1.651-0.607,2.339-0.623
	c0.137,0.958,0.09,4.067,0.354,4.836c-0.203,1.292-0.15,2.967,0,4.489c0.052,0.522,0.37,0.88,0.385,1.282
	c0.03,0.894-0.873,2.325-0.257,3.592c-0.382,0.029-0.168,0.524-0.128,0.897c-2.448,0.903-4.85,0.54-6.669,0.896
	c-1.541,0.049-2.484-0.017-4.104-0.385c-0.24-0.577-0.341-1.146,0.128-1.539c1.498,0.524,3.057-0.715,4.36,0
	c0.766-0.452,2.498-0.044,3.591-0.257c1.497-0.62,1.633-2.192,1.154-3.719c0.104,0.024,0.128,0.129,0.257,0.129
	C44.055,281.355,43.456,276.011,43.025,273.663z"/>
<path fill-rule="evenodd" clip-rule="evenodd" fill="#FFFFFF" d="M38.024,274.799c1.436,0.478,2.575,1.337,4.231,1.025
	c0.591,0.647,0.027,1.74,0.77,2.309c-0.914,1.792,0.102,4.438-0.128,7.054c-2.331,0.424-4.391,0.261-6.412,0.512"/>
</svg>
