<svg id="Layer_1" data-name="Layer 1" xmlns="http://www.w3.org/2000/svg" viewBox="0 0 200 200"><defs><style>.cls-1{fill:#e64c3c;}.cls-2{fill:#fff;}</style></defs><title>dont_buy_stolen</title><polygon class="cls-1" points="101.94 97.7 101.87 97.68 108.45 77.47 108.52 77.5 101.94 97.7"/><rect class="cls-1" x="91.76" y="86.89" width="21.07" height="0.07" transform="translate(10.01 184.42) rotate(-86.93)"/><polygon class="cls-1" points="98.23 97.7 91.65 77.5 91.71 77.47 98.29 97.68 98.23 97.7"/><rect class="cls-1" x="97.84" y="76.39" width="0.07" height="21.07" transform="translate(-4.66 5.54) rotate(-3.17)"/><polygon class="cls-1" points="101.41 99.58 101.39 99.51 122.18 95.11 122.19 95.18 101.41 99.58"/><rect class="cls-1" x="100.38" y="94.47" width="21.07" height="0.07" transform="translate(-30.66 60.01) rotate(-26.74)"/><rect class="cls-1" x="96.06" y="88.45" width="21.25" height="0.07" transform="translate(-30.48 108.4) rotate(-47.94)"/><rect class="cls-1" x="98.17" y="90.64" width="21.07" height="0.07" transform="translate(-31.86 73.96) rotate(-33.05)"/><polygon class="cls-1" points="113.71 115.87 99.51 100.06 99.56 100.01 113.76 115.82 113.71 115.87"/><rect class="cls-1" x="108.62" y="95.22" width="0.07" height="21.07" transform="translate(-39.34 138.73) rotate(-56.79)"/><rect class="cls-1" x="111.72" y="88.46" width="0.07" height="21.25" transform="translate(-8.41 187.78) rotate(-77.99)"/><rect class="cls-1" x="110.84" y="91.39" width="0.07" height="21.07" transform="translate(-30.16 154.75) rotate(-63.13)"/><rect class="cls-1" x="84.26" y="108.73" width="21.25" height="0.07" transform="translate(-38.01 165.07) rotate(-71.86)"/><rect class="cls-1" x="87.25" y="109.39" width="21.07" height="0.07" transform="translate(-17.22 200.58) rotate(-86.62)"/><rect class="cls-1" x="105.08" y="98.15" width="0.07" height="21.25" transform="translate(-28.43 37.73) rotate(-17.97)"/><rect class="cls-1" x="102.17" y="98.9" width="0.07" height="21.07" transform="translate(-5.78 5.69) rotate(-3.1)"/><rect class="cls-1" x="77.67" y="98.96" width="21.25" height="0.07" transform="translate(-18.51 20.33) rotate(-11.9)"/><rect class="cls-1" x="78.54" y="101.85" width="21.19" height="0.07" transform="translate(-36.41 51.25) rotate(-26.86)"/><rect class="cls-1" x="82.77" y="107.83" width="21.25" height="0.07" transform="translate(-49.25 104.8) rotate(-47.88)"/><rect class="cls-1" x="80.85" y="105.64" width="21.07" height="0.07" transform="translate(-42.89 67.1) rotate(-33.12)"/><rect class="cls-1" x="93.36" y="77.78" width="0.07" height="21.25" transform="translate(-35.16 84.87) rotate(-41.85)"/><polygon class="cls-1" points="100.16 96.4 82.5 84.79 82.54 84.73 100.19 96.34 100.16 96.4"/><rect class="cls-1" x="88.23" y="86.63" width="0.07" height="21.25" transform="translate(-25.31 163.22) rotate(-77.93)"/><rect class="cls-1" x="89.09" y="83.83" width="0.07" height="21.13" transform="translate(-35.44 130.97) rotate(-63.01)"/><circle class="cls-1" cx="100" cy="98.18" r="2"/><circle class="cls-1" cx="100" cy="98.18" r="0.89"/><path class="cls-1" d="M100,99.1a0.92,0.92,0,1,1,.92-0.92A0.92,0.92,0,0,1,100,99.1Zm0-1.77a0.85,0.85,0,1,0,.85.85A0.85,0.85,0,0,0,100,97.33Z"/><path class="cls-1" d="M100,123.18a24.93,24.93,0,1,1,9.73-2A24.84,24.84,0,0,1,100,123.18ZM100,75a23.16,23.16,0,1,0,23.16,23.16A23.18,23.18,0,0,0,100,75Z"/><path class="cls-1" d="M100,120.66a22.48,22.48,0,1,1,15.89-6.58A22.33,22.33,0,0,1,100,120.66Zm0-44.47a22,22,0,1,0,22,22A22,22,0,0,0,100,76.19Z"/><path class="cls-2" d="M93.51,122.64a6.49,6.49,0,1,1,6.49,6.49A6.51,6.51,0,0,1,93.51,122.64Zm0.66-51.76h11.67l-1.69,40.75H95.86Z"/></svg>