<svg id="Layer_1" data-name="Layer 1" xmlns="http://www.w3.org/2000/svg" viewBox="0 0 200 200"><defs><style>.cls-1{fill:#2c3e50;}.cls-2{fill:#e64c3c;}</style></defs><title>dont_buy_stolen</title><path class="cls-1" d="M119.18,130V108.9a19.19,19.19,0,0,0-13.69-5.8,22.87,22.87,0,0,0-2.41.2v11.13q0,2.11-3.84,3.66a24.37,24.37,0,0,1-9.11,1.54,21.24,21.24,0,0,1-13.52-4.56V85.44A23.76,23.76,0,0,0,95.24,89.5V82.25q0-8.93,10.34-8.93,7.26,0,13.61,5.51V74a2.51,2.51,0,0,1-.8-1.74q0-2.28,2.53-2.28t2.46,2.28A2.22,2.22,0,0,1,122.5,74v56h-3.32Zm0-49q-6.65-6-13.61-6-8.69,0-8.69,7.51V103.2a21.36,21.36,0,0,1,22.3,3.35V81ZM78.27,114.34A19.91,19.91,0,0,0,89.94,118a24.55,24.55,0,0,0,8.27-1.31q3.67-1.31,3.67-3,0-1.34-2.85-2.65l-0.91-.4q-2.88-1.34-2.88-4V91.15a26.83,26.83,0,0,1-5,.42,27.52,27.52,0,0,1-12-2.93v25.71Zm23.17-10.8q-5,.67-5,2.82,0,1.64,5,4.06v-6.88Z"/><path class="cls-2" d="M78.27,114.33A19.91,19.91,0,0,0,89.94,118a24.55,24.55,0,0,0,8.27-1.31q3.67-1.31,3.67-3,0-1.34-2.85-2.65l-0.91-.4q-2.88-1.34-2.88-4V91.14a26.83,26.83,0,0,1-5,.42,27.52,27.52,0,0,1-12-2.93v25.71Z"/><path class="cls-2" d="M119.18,81q-6.65-6-13.61-6-8.69,0-8.69,7.51V103.2a21.36,21.36,0,0,1,22.3,3.35V81Z"/><path class="cls-2" d="M101.44,103.54q-5,.67-5,2.82,0,1.64,5,4.06v-6.88Z"/></svg>