<svg id="Layer_1" data-name="Layer 1" xmlns="http://www.w3.org/2000/svg" viewBox="0 0 200 200"><defs><style>.cls-1{fill:#efefef;stroke:#2c3e50;stroke-miterlimit:10;stroke-width:2px;}.cls-2{fill:#e64c3c;}</style></defs><title>dont_buy_stolen</title><rect class="cls-1" x="68.8" y="84.2" width="47.25" height="34.35" transform="translate(-8.96 193.8) rotate(-90)"/><path class="cls-2" d="M124.75,78.93a9.18,9.18,0,0,1-2.94,6.32l-0.31.31-17.14,18.05a106.51,106.51,0,0,1-9.3,8.88q-3.84,3.13-5.42,3.13a8.26,8.26,0,0,1-4.13-1.57,7.9,7.9,0,0,1-3.19-3.23,25.39,25.39,0,0,1-1.15-5.88,81.73,81.73,0,0,1-.54-9.73A7.42,7.42,0,0,1,83,89.93a7.26,7.26,0,0,1,5.27-2.43q2.75,0,3.27,5l0.08,0.86a25.13,25.13,0,0,0,1,5.38q0.58,1.52,1.58,1.53a3.58,3.58,0,0,0,1.55-.9,35.7,35.7,0,0,0,2.72-2.45l17.61-17.45a25.64,25.64,0,0,1,4-3.36,5.78,5.78,0,0,1,3-1.14,1.37,1.37,0,0,1,1.3.69,5.09,5.09,0,0,1,.39,2.33v0.92Z"/></svg>