<svg id="Layer_1" data-name="Layer 1" xmlns="http://www.w3.org/2000/svg" viewBox="0 0 200 200"><defs><style>.cls-1{fill:#e64c3c;}.cls-2{fill:#2c3e50;}</style></defs><title>dont_buy_stolen</title><path class="cls-1" d="M98.78,70c6.39-.56,10.56,3.88,11.71,9.92,2.4,12.65-4.54,21.22-4.45,26.69,0.09,5,4.82,12.08,3.23,17.89-0.66,2.4-1.84,5.45-6.59,5.45-7.24,0-8.7-7.43-10.67-17.44s-3.5-20.39-2.85-26S91.4,70.69,98.78,70Z"/><path class="cls-2" d="M102.68,131C94.63,131,93,123,91,112.78c-2.48-12.55-3.44-21.42-2.87-26.39,0.52-4.54,1.9-16.59,10.53-17.34h0c6.44-.55,11.44,3.65,12.78,10.73,1.6,8.45-.87,15.25-2.68,20.22-1,2.63-1.78,4.89-1.75,6.64a24.21,24.21,0,0,0,1.6,6.55c1.23,3.68,2.63,7.86,1.6,11.62C109.73,126.66,108.54,131,102.68,131ZM98.87,71c-6.28.55-8,9.15-8.71,15.58-0.54,4.7.44,13.6,2.84,25.74C95.09,123,96.57,129,102.68,129c4,0,5-2.33,5.63-4.72,0.87-3.17-.37-6.88-1.57-10.46a25.43,25.43,0,0,1-1.7-7.15c0-2.12.85-4.55,1.87-7.36,1.82-5,4.1-11.25,2.6-19.16-0.91-4.78-4.16-9.68-10.64-9.11h0Z"/></svg>