<svg id="Layer_1" data-name="Layer 1" xmlns="http://www.w3.org/2000/svg" xmlns:xlink="http://www.w3.org/1999/xlink" viewBox="0 0 200 200"><defs><style>.cls-1,.cls-3,.cls-5{fill:#fff;}.cls-1,.cls-6{stroke:#e64c3c;stroke-miterlimit:10;stroke-width:2px;}.cls-2{fill:#2c3e50;}.cls-4{clip-path:url(#clip-path);}.cls-5{fill-rule:evenodd;}.cls-6{fill:none;}</style><clipPath id="clip-path"><circle id="_Clipping_Path_" data-name="&lt;Clipping Path&gt;" class="cls-1" cx="110.84" cy="84.86" r="19.86"/></clipPath></defs><title>dont_buy_stolen</title><path class="cls-2" d="M129.73,92.78a21,21,0,0,0-8.09,1.62L115,72.24h7.72c0.39,1.36.73,3.66-.41,4.8a1.27,1.27,0,0,0,1.79,1.79c2.88-2.89.79-8.11,0.69-8.33a1.27,1.27,0,0,0-1.17-.79H113.33a1.28,1.28,0,0,0-1,.51,1.24,1.24,0,0,0-.2,1.12l4.53,15.19-28.87,1.2L86,81.65c1.58-.55,3.6-1.59,5.32-1.7,2.75-.17,4.76-0.17,5.13-0.45s0.28-2.84-5.58-2.47-5.39,0-11.81,0c-0.94,0-5.31,3.38.82,3.66a11.17,11.17,0,0,1,3.46.8l2.12,7.32-4.6,6.85a21.13,21.13,0,1,0,7.68,28.55,7.81,7.81,0,0,0,5.18,2.39v5.83a0.38,0.38,0,0,0,.42.29h3.32a0.43,0.43,0,0,0,.42-0.42v-0.77a0.42,0.42,0,0,0-.42-0.42H95.63a0.42,0.42,0,0,1-.42-0.42v-4.13a7.76,7.76,0,0,0,5.25-12.4l18.26-20.69,0.62,2.08A21.07,21.07,0,1,0,129.73,92.78ZM86.39,92L92,111.35a7.19,7.19,0,0,0-.82.26A21.05,21.05,0,0,0,83,97.08Zm-5.29,7.89a17.7,17.7,0,0,1,6.91,14c0,0.07,0,.14,0,0.21A7.85,7.85,0,0,0,86.91,116L72.36,112.9ZM70.27,131.63A17.74,17.74,0,1,1,79,98.47l-8.61,12.85a2.7,2.7,0,0,0-.71-0.14,2.72,2.72,0,1,0,0,5.44,2.66,2.66,0,0,0,2.21-1.22l14.52,3.13c0,0.11,0,.2,0,0.31a7.79,7.79,0,0,0,.23,1.81A17.7,17.7,0,0,1,70.27,131.63ZM95.2,124v-3.42a1,1,0,0,0,0-.42,1.19,1.19,0,0,1,.25-0.31,0.82,0.82,0,0,0,.17-0.55,1.12,1.12,0,0,0-2.24,0,0.82,0.82,0,0,0,.17.55,1.19,1.19,0,0,1,.25.31,1,1,0,0,0,0,.42v3.48A5.23,5.23,0,1,1,95.2,124Zm22.45-33.17-19,21.53a7.76,7.76,0,0,0-4.1-1.36l-6-20.81L117.39,89l0.49,1.64A1.09,1.09,0,0,0,117.65,90.86Zm12.08,40.77a17.72,17.72,0,0,1-9.38-32.76c0.78,2.39,3.06,9,5.69,13.2a3.07,3.07,0,1,0,1.91-1.7,71.58,71.58,0,0,1-5.32-12.71A17.73,17.73,0,1,1,129.73,131.63Z"/><circle id="_Clipping_Path_2" data-name="&lt;Clipping Path&gt;" class="cls-3" cx="110.84" cy="84.86" r="19.86"/><g class="cls-4"><polygon class="cls-2" points="55.09 76.65 142.24 100.43 150.51 89.41 63.37 65.62 55.09 76.65"/><path class="cls-5" d="M112.41,82.41s0.08-.07.09,0S112.42,82.43,112.41,82.41Z"/><path class="cls-5" d="M121.87,85.53s0.08-.07.09,0S121.88,85.55,121.87,85.53Z"/><path class="cls-5" d="M126.41,87.09s0.08-.07.09,0S126.42,87.12,126.41,87.09Z"/><path class="cls-5" d="M123.41,86.26s0.08-.07.09,0S123.42,86.28,123.41,86.26Z"/><path class="cls-5" d="M109.93,82S110,82,110,82,109.94,82.06,109.93,82Z"/><path class="cls-5" d="M113.62,83.25c0.28-.09-0.24.17,0,0h0Z"/><path class="cls-5" d="M129.25,88.63c0.19-.18.26,0.15,0,0.09C129.26,88.7,129.21,88.66,129.25,88.63Z"/><path class="cls-5" d="M95.07,77.45c0-.07.14,0,0.22,0S95.16,77.46,95.07,77.45Z"/><path class="cls-5" d="M95.81,77.69s0.14,0,.16,0S95.83,77.71,95.81,77.69Z"/><path class="cls-5" d="M121.16,86.11c-0.21.34-.53-0.12-0.76-0.18s-0.51,0-.74,0a1.39,1.39,0,0,1-.16-0.2,0.27,0.27,0,0,0-.22,0,0.33,0.33,0,0,1-.18-0.13,1.88,1.88,0,0,1-.47.07,0.55,0.55,0,0,1,.13-0.18c-0.26,0-.31-0.1-0.49.14-0.11,0,0-.2,0-0.22s-0.13,0-.16,0a0.08,0.08,0,0,1,0-.09,3.22,3.22,0,0,1-.36,0,0.67,0.67,0,0,0-.09-0.18,0.33,0.33,0,0,1-.13,0,0.74,0.74,0,0,0-.25.07,0.59,0.59,0,0,1-.18-0.13,0.38,0.38,0,0,0-.25.07,0.34,0.34,0,0,1-.16-0.2,0.87,0.87,0,0,1-.18.09c-0.29-.09-0.53-0.3-0.83-0.42s-1-.13-1-0.55c0.4,0.16.8,0.27,1.14,0.38a0.86,0.86,0,0,0,.11.11,0.32,0.32,0,0,1,.16,0c0.13,0,.17.14,0.25,0.16a3.74,3.74,0,0,1,1,.18C118.42,85.36,120,85.26,121.16,86.11Z"/><path class="cls-5" d="M124.62,87.32c0,0.15-.23-0.07-0.2-0.07a0.23,0.23,0,0,0-.11.11c-0.09,0-.12-0.18-0.22-0.22s-0.23.06-.38,0a1.3,1.3,0,0,0-.25-0.16,0.22,0.22,0,0,0-.11.11,2.7,2.7,0,0,0-.38-0.2s0.05-.13,0-0.13a4,4,0,0,0-.4.09,0.78,0.78,0,0,1-.25-0.16,1,1,0,0,1-.36-0.27,0.94,0.94,0,0,1,.78.11s0,0.13,0,.13,0.07-.12.11-0.11a4.1,4.1,0,0,1,1,.33A1,1,0,0,1,124.62,87.32Z"/><path class="cls-5" d="M95.32,77.6s0.14,0,.16,0S95.33,77.63,95.32,77.6Z"/><path class="cls-5" d="M110.91,82.66c-0.09.25-.15,0.14-0.31,0C110.65,82.59,110.76,82.59,110.91,82.66Z"/><path class="cls-5" d="M111,82.75c0.06-.09.06,0,0.13,0A0.07,0.07,0,0,1,111,82.75Z"/><path class="cls-5" d="M121.22,86.13c0-.13.36,0,0.18,0.13A0.16,0.16,0,0,1,121.22,86.13Z"/><path class="cls-5" d="M125.94,88.06a0.59,0.59,0,0,1-.23-0.45A0.25,0.25,0,0,1,125.94,88.06Z"/><path class="cls-5" d="M128.22,88.59c0.08-.22.49-0.11,0.58,0C128.62,88.87,128.43,88.51,128.22,88.59Z"/><path class="cls-5" d="M109.19,82.24s0.08-.07.09,0S109.2,82.27,109.19,82.24Z"/><path class="cls-5" d="M109.46,82.33c0-.08.08,0,0.07,0S109.45,82.37,109.46,82.33Z"/><path class="cls-5" d="M111.14,82.88a0.13,0.13,0,0,1,.16,0C111.34,83,111.09,83,111.14,82.88Z"/><path class="cls-5" d="M111.74,83.08s0.14,0,.16,0S111.75,83.11,111.74,83.08Z"/><path class="cls-5" d="M111.94,83.15s0.14,0,.16,0S112,83.17,111.94,83.15Z"/><path class="cls-5" d="M112.34,83.28c0.28-.09-0.24.17,0,0h0Z"/><path class="cls-5" d="M113.69,83.95a0.73,0.73,0,0,1-.49-0.31c-0.19-.08-0.56.1-0.67-0.22,0-.23.57,0,0.78,0.11S113.88,83.69,113.69,83.95Z"/><path class="cls-5" d="M114.58,83.94c-0.05.22-.37,0.15-0.45,0A1,1,0,0,1,114.58,83.94Z"/><path class="cls-5" d="M121.87,86.42s0.08-.07.09,0S121.88,86.44,121.87,86.42Z"/><path class="cls-5" d="M124.69,87.35s0.08-.07.09,0S124.7,87.37,124.69,87.35Z"/><path class="cls-5" d="M107.89,81.89c0.28-.09-0.24.17,0,0h0Z"/><path class="cls-5" d="M109.05,82.2c0.14,0.41-.31.43,0,0h0Z"/><path class="cls-5" d="M111.31,83s0.08-.07.09,0S111.33,83,111.31,83Z"/><path class="cls-5" d="M114.09,83.86a0.47,0.47,0,0,1-.24.29C113.63,84.09,113.71,83.64,114.09,83.86Zm-0.2.16s0-.1-0.07,0S113.86,84.09,113.89,84Z"/><path class="cls-5" d="M107.6,81.87a0.07,0.07,0,0,1,.13,0C107.66,81.93,107.59,82,107.6,81.87Z"/><path class="cls-5" d="M108,82s0.08-.07.09,0S108,82,108,82Z"/><path class="cls-5" d="M128.36,88.63a0.07,0.07,0,0,1,0,.13C128.23,88.7,128.34,88.71,128.36,88.63Z"/><path class="cls-5" d="M97.36,78.64c0-.08.08,0,0.07,0S97.35,78.68,97.36,78.64Z"/><path class="cls-5" d="M100.51,79.68c0-.08.08,0,0.07,0S100.5,79.72,100.51,79.68Z"/><path class="cls-5" d="M115.54,84.63s0.08-.07.09,0S115.55,84.66,115.54,84.63Z"/><path class="cls-5" d="M124.35,87.46c0.24,0,.06.17,0,0.22S124.34,87.54,124.35,87.46Z"/><path class="cls-5" d="M97.6,78.8c0-.1.08,0,0,0.09S97.57,78.87,97.6,78.8Z"/><path class="cls-5" d="M109.41,82.69s0.08-.07.09,0S109.43,82.71,109.41,82.69Z"/><path class="cls-5" d="M101.34,80.1s0.12-.08.16,0-0.09,0-.09,0a0.38,0.38,0,0,1,0,.29s-0.58-.09-0.25-0.38C101.08,80.09,101.33,80.1,101.34,80.1Z"/><path class="cls-5" d="M122.81,87.17s0.08-.07.09,0S122.82,87.2,122.81,87.17Z"/><path class="cls-5" d="M102.06,80.41s0.08-.07.09,0S102.07,80.44,102.06,80.41Z"/><path class="cls-5" d="M120.73,86.49c-0.16.1,0,.15-0.16,0.25S120.58,86.32,120.73,86.49Z"/><path class="cls-5" d="M127.29,88.72c0-.08.08,0,0.07,0S127.27,88.76,127.29,88.72Z"/><path class="cls-5" d="M97.07,78.85s0-.07,0-0.07,0,0.2-.07.2S97.07,78.85,97.07,78.85Z"/><path class="cls-5" d="M97.43,78.89c0.18,0.15-.11.29-0.27,0.13S97.4,79.06,97.43,78.89Z"/><path class="cls-5" d="M110.29,83.2s0.08-.07.09,0S110.3,83.22,110.29,83.2Z"/><path class="cls-5" d="M117.62,85.54c-0.27.7-.74,0-1.12,0,0-.06,0-0.05.09,0,0.05-.23,0-0.05.22,0a0.92,0.92,0,0,0,.33-0.11c0.15,0,.1.18,0.16,0.2S117.5,85.34,117.62,85.54Z"/><path class="cls-5" d="M123.51,87.55c0-.08.08,0,0.07,0S123.49,87.59,123.51,87.55Z"/><path class="cls-5" d="M97.52,79.07a0.07,0.07,0,0,1,.13,0C97.58,79.13,97.5,79.15,97.52,79.07Z"/><path class="cls-5" d="M105.37,81.65s0.08-.07.09,0S105.38,81.68,105.37,81.65Z"/><path class="cls-5" d="M105.64,81.74s0.14,0,.16,0S105.65,81.77,105.64,81.74Z"/><path class="cls-5" d="M115,84.84a0.07,0.07,0,0,1,.13,0C115.09,84.9,115,84.92,115,84.84Z"/><path class="cls-5" d="M118.25,85.9c0.05-.1.08,0,0,0.09S118.22,86,118.25,85.9Z"/><path class="cls-5" d="M118.79,86.07s0.08-.07.09,0S118.8,86.1,118.79,86.07Z"/><path class="cls-5" d="M122.48,87.29a0.17,0.17,0,0,1,.25.16c0,0.17,0,.33-0.25.07a0.43,0.43,0,0,0-.16-0.2C122.33,87.23,122.44,87.31,122.48,87.29Z"/><path class="cls-5" d="M103.6,81.15s0.08-.07.09,0S103.61,81.17,103.6,81.15Z"/><path class="cls-5" d="M106.35,82.05s0.08-.07.09,0S106.36,82.08,106.35,82.05Z"/><path class="cls-5" d="M109.3,83c0-.08.08,0,0.07,0S109.29,83.06,109.3,83Z"/><path class="cls-5" d="M113.87,84.53a0.07,0.07,0,0,1,.13,0C113.94,84.66,113.94,84.54,113.87,84.53Z"/><path class="cls-5" d="M117.76,85.81c0-.08.08,0,0.07,0S117.75,85.85,117.76,85.81Z"/><path class="cls-5" d="M118,85.87a0.07,0.07,0,0,1,.13,0C118,86,118,85.89,118,85.87Z"/><path class="cls-5" d="M124.54,88s0-.07,0-0.07,0,0.2-.07.2S124.54,88,124.54,88Z"/><path class="cls-5" d="M110.09,83.36s0.08-.07.09,0S110.1,83.38,110.09,83.36Z"/><path class="cls-5" d="M115.45,85.12a0.07,0.07,0,0,1,.13,0C115.52,85.19,115.44,85.21,115.45,85.12Z"/><path class="cls-5" d="M124.78,88.2c0-.08.08,0,0.07,0S124.77,88.23,124.78,88.2Z"/><path class="cls-5" d="M114.9,85c0-.08.08,0,0.07,0S114.88,85.05,114.9,85Z"/><path class="cls-5" d="M119.19,86.43a0.53,0.53,0,0,1-.49-0.09C118.69,86.07,119,86.32,119.19,86.43Z"/><path class="cls-5" d="M115.14,85.17c0.06-.09.06,0,0.13,0A0.07,0.07,0,0,1,115.14,85.17Z"/><path class="cls-5" d="M116.15,85.5c0.28-.09-0.24.17,0,0h0Z"/><path class="cls-5" d="M117.49,85.94c0-.07.14,0,0.22,0S117.57,86,117.49,85.94Z"/><path class="cls-5" d="M118,86.05c0.1,0.16.15,0,.25,0.16S117.88,86.2,118,86.05Z"/><path class="cls-5" d="M118.63,86.32c-0.29.17-.31-0.26,0,0h0Z"/><path class="cls-5" d="M119.3,86.54c0-.07.14,0,0.22,0S119.38,86.56,119.3,86.54Z"/><path class="cls-5" d="M119.64,86.65s0.08-.07.09,0S119.65,86.68,119.64,86.65Z"/><path class="cls-5" d="M121.11,87.14s0.08-.07.09,0S121.13,87.16,121.11,87.14Z"/><path class="cls-5" d="M112.57,84.4s0.08-.07.09,0S112.58,84.42,112.57,84.4Z"/><path class="cls-5" d="M117.8,86.12s0.14,0,.16,0S117.82,86.15,117.8,86.12Z"/><path class="cls-5" d="M96.22,77.82a2.57,2.57,0,0,1,.51,0c0.12,0.06.32,0.05,0.2,0.29,0.14-.22.27-0.06,0.45,0a0.81,0.81,0,0,1,.22,0,7.32,7.32,0,0,0,1.21.4,6.44,6.44,0,0,1,.78.33c0.67,0.22,1.72.52,2.48,0.82,0.25,0.1.51,0.12,0.74,0.24a5.56,5.56,0,0,0,.87.29c0.05,0,0,.09.11,0.11a0.28,0.28,0,0,0,.16,0,0.85,0.85,0,0,0,.11.11,5.51,5.51,0,0,1,.69.15c0.25,0.08.45,0.32,0.63,0.36s0.13-.16.25-0.07c0.06,0.37-.14.32-0.33,0.34,0,0,0-.13,0-0.13a1.1,1.1,0,0,1-.47-0.15,0.67,0.67,0,0,0-.29.2c0.11-.46-0.26-0.18-0.47-0.38a0.34,0.34,0,0,0,.13-0.18s-0.2.05-.13,0a0.38,0.38,0,0,0-.31.27c-0.14,0,0-.24,0-0.31a0.32,0.32,0,0,0-.29,0c-0.09,0-.06-0.16-0.16-0.2s-0.19,0-.29,0-0.2-.14-0.31-0.18l-0.6-.2a0.43,0.43,0,0,0-.2.16,3.49,3.49,0,0,1-.43-0.29,1,1,0,0,0-.58,0,0.39,0.39,0,0,1-.07.2s-0.07.1,0,.07l-0.11.11s-0.08-.08,0-0.09a0.57,0.57,0,0,1-.33.11c0.24-.26.63-0.14,0.27-0.58-0.1-.13-0.12-0.28-0.31-0.18a0.6,0.6,0,0,0,.25.16c-0.18.34-.27-0.07-0.42-0.07a0.33,0.33,0,0,0-.11.11,0.06,0.06,0,0,1,0-.09c-0.22.14-.2,0.38-0.54,0.27,0-.12.13-0.11,0.16-0.25a0.42,0.42,0,0,1-.49-0.09c0.06,0.12.16,0.2,0,.29,0-.25-0.23,0-0.29-0.24s0.29,0.08.29-.2-0.23,0-.14-0.27c-0.22,0,0,.16-0.09.27a0.38,0.38,0,0,1-.09-0.4,1.42,1.42,0,0,1-.47.29c-0.11,0,.06-0.12,0-0.13s-0.46-.09-0.31,0c-0.07-.06,0-0.07,0-0.16s-0.15-.14-0.16-0.2,0.17-.11,0-0.22a1,1,0,0,0-.31,0,0.78,0.78,0,0,1-.31-0.18c-0.09,0-.05.1-0.11,0.11s-0.15-.16-0.2-0.07,0,0.2,0,.07-0.21-.15-0.09,0a0.68,0.68,0,0,1-.4-0.13s0.05-.13,0-0.13-0.08.24-.4,0.09c0,0-.13-0.08-0.07,0a1,1,0,0,1-.09-0.4L96.24,78C96.21,77.86,96,77.59,96.22,77.82Zm0.43,0.51c0.06-.13,0-0.16-0.07-0.25s0.42,0.13.22,0-0.37-.21-0.42-0.07A0.76,0.76,0,0,1,96.64,78.33ZM98,78.64c-0.24.17,0.28-.09,0,0h0Zm0.31,0.18c-0.24.17,0.28-.09,0,0h0Zm-2.15-.71s-0.18,0-.16,0S96.22,78.15,96.19,78.11Z"/><path class="cls-5" d="M98.61,78.91s0,0.13,0,.16S98.46,78.93,98.61,78.91Z"/><path class="cls-5" d="M107.58,81.71c-0.08.47-.11-0.06-0.2-0.07a0.86,0.86,0,0,1-.27.13c-0.16-.06,0-0.48-0.34-0.33-0.18.08,0,.06-0.22,0a0.39,0.39,0,0,0-.18.09c-0.09,0,0-.13,0-0.16s-0.07.16-.29,0c0,0-.26-0.28-0.36,0,0-.59.4-0.27,1,0A1.22,1.22,0,0,1,107.58,81.71Z"/><path class="cls-5" d="M108.14,81.82c-0.24-.1.25-0.1,0.13,0C108.39,82,108.25,81.85,108.14,81.82Z"/><path class="cls-5" d="M110.51,82.75a0.4,0.4,0,0,0-.31-0.18,0.44,0.44,0,0,1-.18-0.13s-0.55.26-.4-0.13C110,82.51,110.47,82.27,110.51,82.75Z"/><path class="cls-5" d="M121.58,86.17c0.2,0,.09.18,0.22,0.22a1,1,0,0,0-.25.07A0.6,0.6,0,0,1,121.58,86.17Z"/><path class="cls-5" d="M125.43,87.81a1.16,1.16,0,0,1-.78-0.11c0.13-.12.34-0.07,0.36-0.4,0.13,0.12.33,0.21,0.22,0.45a0.42,0.42,0,0,0,.29-0.2,1.93,1.93,0,0,0,0,.51C125.22,88,125.35,88,125.43,87.81Z"/><path class="cls-5" d="M126.1,87.81c0.14-.22.33,0.1,0.54,0.18a1.27,1.27,0,0,1,.8.27c-0.06,0-.12.09,0,0.13-0.18.16-.12-0.19-0.22-0.22s0.06,0.27-.34.11a0.46,0.46,0,0,1-.18-0.13c-0.09,0-.11.14-0.25,0.07s0-.13,0-0.13C126.3,88,126.13,88.09,126.1,87.81Z"/><path class="cls-5" d="M128,88.45a0.81,0.81,0,0,1-.33.11s-0.25-.26-0.18-0.13c-0.11-.21.44-0.11,0.65,0.06a1.88,1.88,0,0,0-.31.27c0.07,0.11,0,0-.07,0A0.91,0.91,0,0,0,128,88.45Z"/><path class="cls-5" d="M95.57,77.76c0.08,0.07-.08.2-0.22,0.22S95,77.74,95,78c-0.14-.06-0.09-0.22,0-0.38A0.53,0.53,0,0,0,95.57,77.76Z"/><path class="cls-5" d="M95.77,78.27c0.19,0.29-.19.26-0.22,0.22A2.67,2.67,0,0,1,95.77,78.27Z"/><path class="cls-5" d="M114.47,84.73a1.27,1.27,0,0,0-.36,0,2.06,2.06,0,0,1,.16-0.25c0.07,0,0,.15,0,0.16s0.31-.18.25,0.16C114.5,84.82,114.46,84.76,114.47,84.73Z"/><path class="cls-5" d="M116.35,85.57s0.09-.18.11-0.11S116.19,85.73,116.35,85.57Z"/><path class="cls-5" d="M105.62,84.19s0.08-.07.09,0S105.63,84.22,105.62,84.19Z"/><path class="cls-5" d="M115.08,87.31s0.08-.07.09,0S115.09,87.33,115.08,87.31Z"/><path class="cls-5" d="M119.62,88.88s0.08-.07.09,0S119.63,88.9,119.62,88.88Z"/><path class="cls-5" d="M116.62,88s0.08-.07.09,0S116.64,88.07,116.62,88Z"/><path class="cls-5" d="M103.14,83.82s0.08-.07.09,0S103.15,83.85,103.14,83.82Z"/><path class="cls-5" d="M106.83,85c0.28-.09-0.24.17,0,0h0Z"/><path class="cls-5" d="M122.46,90.41c0.19-.18.26,0.15,0,0.09C122.47,90.49,122.43,90.45,122.46,90.41Z"/><path class="cls-5" d="M88.29,79.23c0-.07.14,0,0.22,0S88.37,79.24,88.29,79.23Z"/><path class="cls-5" d="M89,79.47s0.14,0,.16,0S89,79.5,89,79.47Z"/><path class="cls-5" d="M114.37,87.89c-0.21.34-.53-0.12-0.76-0.18s-0.51,0-.74,0a1.39,1.39,0,0,1-.16-0.2,0.27,0.27,0,0,0-.22,0,0.33,0.33,0,0,1-.18-0.13,1.88,1.88,0,0,1-.47.07,0.55,0.55,0,0,1,.13-0.18c-0.26,0-.31-0.1-0.49.14-0.11,0,0-.2,0-0.22s-0.13,0-.16,0a0.08,0.08,0,0,1,0-.09,3.22,3.22,0,0,1-.36,0,0.67,0.67,0,0,0-.09-0.18,0.33,0.33,0,0,1-.13,0,0.74,0.74,0,0,0-.25.07,0.59,0.59,0,0,1-.18-0.13,0.38,0.38,0,0,0-.25.07,0.34,0.34,0,0,1-.16-0.2,0.87,0.87,0,0,1-.18.09c-0.29-.09-0.53-0.3-0.83-0.42s-1-.13-1-0.55c0.4,0.16.8,0.27,1.14,0.38a0.86,0.86,0,0,0,.11.11,0.32,0.32,0,0,1,.16,0c0.13,0,.17.14,0.25,0.16a3.74,3.74,0,0,1,1,.18C111.64,87.15,113.22,87,114.37,87.89Z"/><path class="cls-5" d="M117.83,89.11c0,0.15-.23-0.07-0.2-0.07a0.23,0.23,0,0,0-.11.11c-0.09,0-.12-0.18-0.22-0.22s-0.23.06-.38,0a1.3,1.3,0,0,0-.25-0.16,0.22,0.22,0,0,0-.11.11,2.7,2.7,0,0,0-.38-0.2s0.05-.13,0-0.13a4,4,0,0,0-.4.09,0.78,0.78,0,0,1-.25-0.16,1,1,0,0,1-.36-0.27,0.94,0.94,0,0,1,.78.11s0,0.13,0,.13,0.07-.12.11-0.11a4.1,4.1,0,0,1,1,.33A1,1,0,0,1,117.83,89.11Z"/><path class="cls-5" d="M88.53,79.38s0.14,0,.16,0S88.55,79.41,88.53,79.38Z"/><path class="cls-5" d="M104.12,84.44c-0.09.25-.15,0.14-0.31,0C103.87,84.38,104,84.38,104.12,84.44Z"/><path class="cls-5" d="M104.17,84.53c0.06-.09.06,0,0.13,0A0.07,0.07,0,0,1,104.17,84.53Z"/><path class="cls-5" d="M114.44,87.91c0-.13.36,0,0.18,0.13A0.16,0.16,0,0,1,114.44,87.91Z"/><path class="cls-5" d="M119.16,89.84a0.59,0.59,0,0,1-.23-0.45A0.25,0.25,0,0,1,119.16,89.84Z"/><path class="cls-5" d="M121.44,90.37c0.08-.22.49-0.11,0.58,0C121.84,90.66,121.64,90.3,121.44,90.37Z"/><path class="cls-5" d="M102.4,84s0.08-.07.09,0S102.41,84.05,102.4,84Z"/><path class="cls-5" d="M102.67,84.11c0-.08.08,0,0.07,0S102.66,84.15,102.67,84.11Z"/><path class="cls-5" d="M104.35,84.67a0.13,0.13,0,0,1,.16,0C104.55,84.74,104.3,84.81,104.35,84.67Z"/><path class="cls-5" d="M105,84.87s0.14,0,.16,0S105,84.89,105,84.87Z"/><path class="cls-5" d="M105.15,84.93s0.14,0,.16,0S105.17,85,105.15,84.93Z"/><path class="cls-5" d="M105.56,85.06c0.28-.09-0.24.17,0,0h0Z"/><path class="cls-5" d="M106.9,85.73a0.73,0.73,0,0,1-.49-0.31c-0.19-.08-0.56.1-0.67-0.22,0-.23.57,0,0.78,0.11S107.1,85.47,106.9,85.73Z"/><path class="cls-5" d="M107.79,85.73c-0.05.22-.37,0.15-0.45,0A1,1,0,0,1,107.79,85.73Z"/><path class="cls-5" d="M115.08,88.2s0.08-.07.09,0S115.1,88.23,115.08,88.2Z"/><path class="cls-5" d="M117.9,89.13s0.08-.07.09,0S117.91,89.16,117.9,89.13Z"/><path class="cls-5" d="M101.1,83.67c0.28-.09-0.24.17,0,0h0Z"/><path class="cls-5" d="M102.27,84c0.14,0.41-.31.43,0,0h0Z"/><path class="cls-5" d="M104.53,84.8s0.08-.07.09,0S104.54,84.83,104.53,84.8Z"/><path class="cls-5" d="M107.3,85.64a0.47,0.47,0,0,1-.24.29C106.84,85.88,106.92,85.42,107.3,85.64Zm-0.2.16s0-.1-0.07,0S107.07,85.87,107.1,85.8Z"/><path class="cls-5" d="M100.81,83.65a0.07,0.07,0,0,1,.13,0C100.88,83.72,100.8,83.74,100.81,83.65Z"/><path class="cls-5" d="M101.22,83.78s0.08-.07.09,0S101.23,83.81,101.22,83.78Z"/><path class="cls-5" d="M121.57,90.41a0.07,0.07,0,0,1,0,.13C121.44,90.49,121.55,90.49,121.57,90.41Z"/><path class="cls-5" d="M90.57,80.43c0-.08.08,0,0.07,0S90.56,80.46,90.57,80.43Z"/><path class="cls-5" d="M93.72,81.47c0-.08.08,0,0.07,0S93.71,81.5,93.72,81.47Z"/><path class="cls-5" d="M108.76,86.42s0.08-.07.09,0S108.77,86.44,108.76,86.42Z"/><path class="cls-5" d="M117.57,89.24c0.24,0,.06.17,0,0.22S117.55,89.33,117.57,89.24Z"/><path class="cls-5" d="M90.82,80.58c0-.1.08,0,0,0.09S90.78,80.65,90.82,80.58Z"/><path class="cls-5" d="M102.63,84.47s0.08-.07.09,0S102.64,84.5,102.63,84.47Z"/><path class="cls-5" d="M94.55,81.89s0.12-.08.16,0-0.09,0-.09,0a0.38,0.38,0,0,1,0,.29s-0.58-.09-0.25-0.38C94.29,81.87,94.55,81.89,94.55,81.89Z"/><path class="cls-5" d="M116,89s0.08-.07.09,0S116,89,116,89Z"/><path class="cls-5" d="M95.27,82.2s0.08-.07.09,0S95.28,82.22,95.27,82.2Z"/><path class="cls-5" d="M113.94,88.27c-0.16.1,0,.15-0.16,0.25S113.79,88.1,113.94,88.27Z"/><path class="cls-5" d="M120.5,90.51c0-.08.08,0,0.07,0S120.49,90.54,120.5,90.51Z"/><path class="cls-5" d="M90.28,80.63s0-.07,0-0.07,0,0.2-.07.2S90.28,80.63,90.28,80.63Z"/><path class="cls-5" d="M90.64,80.67c0.18,0.15-.11.29-0.27,0.13S90.61,80.84,90.64,80.67Z"/><path class="cls-5" d="M103.5,85s0.08-.07.09,0S103.51,85,103.5,85Z"/><path class="cls-5" d="M110.84,87.32c-0.27.7-.74,0-1.12,0,0-.06,0-0.05.09,0,0.05-.23,0-0.05.22,0a0.92,0.92,0,0,0,.33-0.11c0.15,0,.1.18,0.16,0.2S110.71,87.13,110.84,87.32Z"/><path class="cls-5" d="M116.72,89.34c0-.08.08,0,0.07,0S116.71,89.37,116.72,89.34Z"/><path class="cls-5" d="M90.73,80.85a0.07,0.07,0,0,1,.13,0C90.79,80.92,90.72,80.94,90.73,80.85Z"/><path class="cls-5" d="M98.58,83.44s0.08-.07.09,0S98.59,83.46,98.58,83.44Z"/><path class="cls-5" d="M98.85,83.53s0.14,0,.16,0S98.86,83.55,98.85,83.53Z"/><path class="cls-5" d="M108.24,86.62a0.07,0.07,0,0,1,.13,0C108.3,86.68,108.23,86.7,108.24,86.62Z"/><path class="cls-5" d="M111.46,87.68c0.05-.1.08,0,0,0.09S111.43,87.75,111.46,87.68Z"/><path class="cls-5" d="M112,87.86s0.08-.07.09,0S112,87.88,112,87.86Z"/><path class="cls-5" d="M115.69,89.07a0.17,0.17,0,0,1,.25.16c0,0.17,0,.33-0.25.07a0.43,0.43,0,0,0-.16-0.2C115.54,89,115.65,89.09,115.69,89.07Z"/><path class="cls-5" d="M96.81,82.93s0.08-.07.09,0S96.83,83,96.81,82.93Z"/><path class="cls-5" d="M99.56,83.84s0.08-.07.09,0S99.58,83.86,99.56,83.84Z"/><path class="cls-5" d="M102.52,84.81c0-.08.08,0,0.07,0S102.5,84.84,102.52,84.81Z"/><path class="cls-5" d="M107.08,86.31a0.07,0.07,0,0,1,.13,0C107.15,86.44,107.16,86.33,107.08,86.31Z"/><path class="cls-5" d="M111,87.59c0-.08.08,0,0.07,0S111,87.63,111,87.59Z"/><path class="cls-5" d="M111.17,87.66a0.07,0.07,0,0,1,.13,0C111.24,87.79,111.25,87.68,111.17,87.66Z"/><path class="cls-5" d="M117.75,89.82s0-.07,0-0.07,0,0.2-.07.2S117.75,89.82,117.75,89.82Z"/><path class="cls-5" d="M103.3,85.14s0.08-.07.09,0S103.31,85.16,103.3,85.14Z"/><path class="cls-5" d="M108.67,86.91a0.07,0.07,0,0,1,.13,0C108.73,87,108.65,87,108.67,86.91Z"/><path class="cls-5" d="M118,90c0-.08.08,0,0.07,0S118,90,118,90Z"/><path class="cls-5" d="M108.11,86.8c0-.08.08,0,0.07,0S108.1,86.84,108.11,86.8Z"/><path class="cls-5" d="M112.4,88.21a0.53,0.53,0,0,1-.49-0.09C111.9,87.85,112.17,88.11,112.4,88.21Z"/><path class="cls-5" d="M108.36,87c0.06-.09.06,0,0.13,0A0.07,0.07,0,0,1,108.36,87Z"/><path class="cls-5" d="M109.36,87.28c0.28-.09-0.24.17,0,0h0Z"/><path class="cls-5" d="M110.7,87.73c0-.07.14,0,0.22,0S110.79,87.74,110.7,87.73Z"/><path class="cls-5" d="M111.26,87.84c0.1,0.16.15,0,.25,0.16S111.09,88,111.26,87.84Z"/><path class="cls-5" d="M111.84,88.1c-0.29.17-.31-0.26,0,0h0Z"/><path class="cls-5" d="M112.52,88.32c0-.07.14,0,0.22,0S112.6,88.34,112.52,88.32Z"/><path class="cls-5" d="M112.85,88.43s0.08-.07.09,0S112.86,88.46,112.85,88.43Z"/><path class="cls-5" d="M114.33,88.92s0.08-.07.09,0S114.34,88.94,114.33,88.92Z"/><path class="cls-5" d="M105.78,86.18s0.08-.07.09,0S105.8,86.21,105.78,86.18Z"/><path class="cls-5" d="M111,87.9s0.14,0,.16,0S111,87.93,111,87.9Z"/><path class="cls-5" d="M89.43,79.61a2.57,2.57,0,0,1,.51,0c0.12,0.06.32,0.05,0.2,0.29,0.14-.22.27-0.06,0.45,0a0.81,0.81,0,0,1,.22,0,7.32,7.32,0,0,0,1.21.4,6.44,6.44,0,0,1,.78.33c0.67,0.22,1.72.52,2.48,0.82,0.25,0.1.51,0.12,0.74,0.24a5.56,5.56,0,0,0,.87.29c0.05,0,0,.09.11,0.11a0.28,0.28,0,0,0,.16,0,0.85,0.85,0,0,0,.11.11,5.51,5.51,0,0,1,.69.15c0.25,0.08.45,0.32,0.63,0.36s0.13-.16.25-0.07C98.9,83,98.7,83,98.51,83c0,0,0-.13,0-0.13a1.09,1.09,0,0,1-.47-0.15,0.67,0.67,0,0,0-.29.2c0.11-.46-0.26-0.18-0.47-0.38a0.34,0.34,0,0,0,.13-0.18s-0.2.05-.13,0a0.38,0.38,0,0,0-.31.27c-0.14,0,0-.24,0-0.31a0.32,0.32,0,0,0-.29,0c-0.09,0-.06-0.16-0.16-0.2s-0.19,0-.29,0-0.2-.14-0.31-0.18l-0.6-.2a0.43,0.43,0,0,0-.2.16,3.49,3.49,0,0,1-.43-0.29,1,1,0,0,0-.58,0,0.39,0.39,0,0,1-.07.2s-0.07.1,0,.07l-0.11.11s-0.08-.08,0-0.09a0.57,0.57,0,0,1-.33.11c0.24-.26.63-0.14,0.27-0.58-0.1-.13-0.12-0.28-0.31-0.18a0.6,0.6,0,0,0,.25.16c-0.18.34-.27-0.07-0.42-0.07a0.33,0.33,0,0,0-.11.11,0.06,0.06,0,0,1,0-.09c-0.22.14-.2,0.38-0.54,0.27,0-.12.13-0.11,0.16-0.25a0.42,0.42,0,0,1-.49-0.09c0.06,0.12.16,0.2,0,.29,0-.25-0.23,0-0.29-0.24s0.29,0.08.29-.2-0.23,0-.14-0.27c-0.22,0,0,.16-0.09.27a0.38,0.38,0,0,1-.09-0.4,1.42,1.42,0,0,1-.47.29c-0.11,0,.06-0.12,0-0.13s-0.46-.09-0.31,0c-0.07-.06,0-0.07,0-0.16S91,80.48,91,80.43s0.17-.11,0-0.22a1,1,0,0,0-.31,0,0.78,0.78,0,0,1-.31-0.18c-0.09,0-.05.1-0.11,0.11s-0.15-.16-0.2-0.07,0,0.2,0,.07-0.21-.15-0.09,0a0.68,0.68,0,0,1-.4-0.13s0.05-.13,0-0.13-0.08.24-.4,0.09c0,0-.13-0.08-0.07,0a1,1,0,0,1-.09-0.4l0.4,0.13C89.42,79.64,89.24,79.37,89.43,79.61Zm0.43,0.51c0.06-.13,0-0.16-0.07-0.25s0.42,0.13.22,0-0.37-.21-0.42-0.07A0.76,0.76,0,0,1,89.85,80.12Zm1.39,0.31c-0.24.17,0.28-.09,0,0h0Zm0.31,0.18c-0.24.17,0.28-.09,0,0h0Zm-2.15-.71s-0.18,0-.16,0S89.43,79.94,89.41,79.9Z"/><path class="cls-5" d="M91.82,80.69s0,0.13,0,.16S91.67,80.72,91.82,80.69Z"/><path class="cls-5" d="M100.79,83.5c-0.08.47-.11-0.06-0.2-0.07a0.86,0.86,0,0,1-.27.13c-0.16-.06,0-0.48-0.34-0.33-0.18.08,0,.06-0.22,0a0.39,0.39,0,0,0-.18.09c-0.09,0,0-.13,0-0.16s-0.07.16-.29,0c0,0-.26-0.28-0.36,0,0-.59.4-0.27,1,0A1.22,1.22,0,0,1,100.79,83.5Z"/><path class="cls-5" d="M101.35,83.61c-0.24-.1.25-0.1,0.13,0C101.61,83.81,101.46,83.64,101.35,83.61Z"/><path class="cls-5" d="M103.72,84.54a0.4,0.4,0,0,0-.31-0.18,0.44,0.44,0,0,1-.18-0.13s-0.55.26-.4-0.13C103.17,84.29,103.69,84.05,103.72,84.54Z"/><path class="cls-5" d="M114.79,88c0.2,0,.09.18,0.22,0.22a1,1,0,0,0-.25.07A0.6,0.6,0,0,1,114.79,88Z"/><path class="cls-5" d="M118.64,89.6a1.16,1.16,0,0,1-.78-0.11c0.13-.12.34-0.07,0.36-0.4,0.13,0.12.33,0.21,0.22,0.45a0.42,0.42,0,0,0,.29-0.2,1.93,1.93,0,0,0,0,.51C118.43,89.77,118.57,89.77,118.64,89.6Z"/><path class="cls-5" d="M119.31,89.59c0.14-.22.33,0.1,0.54,0.18a1.27,1.27,0,0,1,.8.27c-0.06,0-.12.09,0,0.13-0.18.16-.12-0.19-0.22-0.22s0.06,0.27-.34.11a0.46,0.46,0,0,1-.18-0.13c-0.09,0-.11.14-0.25,0.07s0-.13,0-0.13C119.51,89.79,119.35,89.87,119.31,89.59Z"/><path class="cls-5" d="M121.26,90.24a0.81,0.81,0,0,1-.33.11s-0.25-.26-0.18-0.13c-0.11-.21.44-0.11,0.65,0.06a1.88,1.88,0,0,0-.31.27c0.07,0.11,0,0-.07,0A0.91,0.91,0,0,0,121.26,90.24Z"/><path class="cls-5" d="M88.78,79.54c0.08,0.07-.08.2-0.22,0.22s-0.39-.24-0.38,0c-0.14-.06-0.09-0.22,0-0.38A0.53,0.53,0,0,0,88.78,79.54Z"/><path class="cls-5" d="M89,80.05c0.19,0.29-.19.26-0.22,0.22A2.67,2.67,0,0,1,89,80.05Z"/><path class="cls-5" d="M107.68,86.51a1.27,1.27,0,0,0-.36,0,2.06,2.06,0,0,1,.16-0.25c0.07,0,0,.15,0,0.16s0.31-.18.25,0.16C107.71,86.6,107.67,86.55,107.68,86.51Z"/><path class="cls-5" d="M109.56,87.35s0.09-.18.11-0.11S109.4,87.51,109.56,87.35Z"/><path class="cls-5" d="M122.74,86.34s0-.09,0-0.08S122.75,86.36,122.74,86.34Z"/><path class="cls-5" d="M127.81,85.14s0-.09,0-0.08S127.83,85.16,127.81,85.14Z"/><path class="cls-5" d="M130.28,84.63s0-.09,0-0.08S130.29,84.64,130.28,84.63Z"/><path class="cls-5" d="M128.73,85.14s0-.09,0-0.08S128.74,85.16,128.73,85.14Z"/><path class="cls-5" d="M121.57,87.05s0-.09,0-0.08S121.59,87.07,121.57,87.05Z"/><path class="cls-5" d="M123.55,86.58c0.08-.19,0,0.25,0,0h0Z"/><path class="cls-5" d="M132,84.79c0-.24.16,0,0.05,0.06A0,0,0,0,1,132,84.79Z"/><path class="cls-5" d="M113.71,89.21c0-.08.05-0.07,0.09-0.09S113.75,89.18,113.71,89.21Z"/><path class="cls-5" d="M114.11,89.11s0-.1.06-0.09S114.12,89.13,114.11,89.11Z"/><path class="cls-5" d="M127.74,86c0,0.39-.26.12-0.38,0.16s-0.19.25-.31,0.29a0.93,0.93,0,0,1-.14-0.11c-0.07,0-.07.08-0.09,0.09a0.14,0.14,0,0,1-.12,0,1,1,0,0,1-.17.26,0.92,0.92,0,0,1,0-.21c-0.12.07-.17,0-0.15,0.33,0,0.05-.06-0.19-0.09-0.2s0,0.08-.06.09-0.05-.06-0.05-0.06a1,1,0,0,1-.16.11,0.66,0.66,0,0,0-.1-0.12s-0.11,0-.07,0a0.51,0.51,0,0,0-.08.16,0.24,0.24,0,0,1-.12,0,0.26,0.26,0,0,0-.08.16,0.24,0.24,0,0,1-.14-0.11,0.84,0.84,0,0,1,0,.15,3.22,3.22,0,0,1-.5,0c-0.14,0-.47.31-0.63-0.07a3.82,3.82,0,0,0,.61-0.15,0.45,0.45,0,0,0,.09.05A0.17,0.17,0,0,1,125,86.6c0.07,0,.12.05,0.16,0a1.12,1.12,0,0,1,.47-0.26C126.33,86.44,126.95,85.69,127.74,86Z"/><path class="cls-5" d="M129.63,85.58c0,0.15-.12,0-0.11,0a0.35,0.35,0,0,0,0,.15s-0.12-.11-0.18-0.1-0.07.15-.15,0.18a0.44,0.44,0,0,0-.16,0,0.33,0.33,0,0,0,0,.15,0.82,0.82,0,0,0-.23,0s0-.14,0-0.14a2.45,2.45,0,0,0-.13.25,0.27,0.27,0,0,1-.16,0,0.38,0.38,0,0,1-.25-0.09,0.32,0.32,0,0,1,.36-0.23l0,0.14a0.29,0.29,0,0,0,0-.15,1.14,1.14,0,0,1,.54-0.13C129.33,85.52,129.47,85.35,129.63,85.58Z"/><path class="cls-5" d="M113.87,89.24s0-.1.06-0.09S113.89,89.26,113.87,89.24Z"/><path class="cls-5" d="M122.21,87.19c0.06,0.26,0,.19-0.11.17S122.13,87.19,122.21,87.19Z"/><path class="cls-5" d="M122.27,87.25c0-.1,0,0,0.07,0S122.28,87.32,122.27,87.25Z"/><path class="cls-5" d="M127.78,85.95c0-.13.16-0.11,0.12,0S127.79,86,127.78,85.95Z"/><path class="cls-5" d="M130.45,85.68a0.55,0.55,0,0,1-.26-0.3C130.31,85.18,130.47,85.43,130.45,85.68Z"/><path class="cls-5" d="M131.59,85.19c0-.22.16-0.3,0.26-0.21C131.87,85.28,131.65,85,131.59,85.19Z"/><path class="cls-5" d="M121.35,87.54s0-.09,0-0.08S121.36,87.56,121.35,87.54Z"/><path class="cls-5" d="M121.49,87.51c0-.08,0,0,0,0S121.5,87.55,121.49,87.51Z"/><path class="cls-5" d="M122.39,87.29s0-.12.06-0.09S122.43,87.44,122.39,87.29Z"/><path class="cls-5" d="M122.72,87.22s0-.1.06-0.09S122.73,87.23,122.72,87.22Z"/><path class="cls-5" d="M122.82,87.19s0-.1.06-0.09S122.84,87.21,122.82,87.19Z"/><path class="cls-5" d="M123,87.14c0.08-.19,0,0.25,0,0h0Z"/><path class="cls-5" d="M123.84,87.17c-0.07.17-.21-0.07-0.32-0.07s-0.19.32-.36,0.09,0.24-.22.36-0.23S123.83,86.85,123.84,87.17Z"/><path class="cls-5" d="M124.21,86.79c0.06,0.22-.1.29-0.18,0.19A0.4,0.4,0,0,1,124.21,86.79Z"/><path class="cls-5" d="M128.15,85.93s0-.09,0-0.08S128.17,85.95,128.15,85.93Z"/><path class="cls-5" d="M129.67,85.57s0-.09,0-0.08S129.68,85.59,129.67,85.57Z"/><path class="cls-5" d="M120.68,87.77c0.08-.19,0,0.25,0,0h0Z"/><path class="cls-5" d="M121.27,87.56c0.21,0.31,0,.51,0,0h0Z"/><path class="cls-5" d="M122.52,87.34s0-.09,0-0.08S122.53,87.35,122.52,87.34Z"/><path class="cls-5" d="M124,86.92a0.73,0.73,0,0,1,0,.36C123.88,87.32,123.74,86.88,124,86.92Zm0,0.22s-0.05-.07,0,0S124,87.22,124,87.14Z"/><path class="cls-5" d="M120.55,87.88c0-.09.06-0.09,0.07,0S120.58,88,120.55,87.88Z"/><path class="cls-5" d="M120.77,87.82s0-.09,0-0.08S120.78,87.84,120.77,87.82Z"/><path class="cls-5" d="M131.66,85.17s0.07,0.13,0,.14S131.69,85.25,131.66,85.17Z"/><path class="cls-5" d="M115.11,89.31c0-.08,0,0,0,0S115.12,89.35,115.11,89.31Z"/><path class="cls-5" d="M116.8,88.91c0-.08,0,0,0,0S116.81,88.95,116.8,88.91Z"/><path class="cls-5" d="M124.87,87s0-.09,0-0.08S124.88,87,124.87,87Z"/><path class="cls-5" d="M129.57,85.81c0.11-.08.09,0.13,0.08,0.2A0.31,0.31,0,0,1,129.57,85.81Z"/><path class="cls-5" d="M115.27,89.35c0-.11,0,0,0.05.06S115.28,89.42,115.27,89.35Z"/><path class="cls-5" d="M121.61,87.84s0-.09,0-0.08S121.62,87.86,121.61,87.84Z"/><path class="cls-5" d="M117.3,88.94s0-.12.06-0.09,0,0.08,0,.08a0.65,0.65,0,0,1,.1.27s-0.27.16-.25-0.23C117.19,89,117.3,88.94,117.3,88.94Z"/><path class="cls-5" d="M128.83,86.21s0-.09,0-0.08S128.84,86.22,128.83,86.21Z"/><path class="cls-5" d="M117.71,88.91s0-.09,0-0.08S117.73,88.93,117.71,88.91Z"/><path class="cls-5" d="M127.71,86.47c0,0.15.06,0.13,0,.28S127.59,86.38,127.71,86.47Z"/><path class="cls-5" d="M131.26,85.7c0-.08,0,0,0,0S131.27,85.74,131.26,85.7Z"/><path class="cls-5" d="M115.07,89.61s0-.07,0-0.07,0.06,0.19,0,.21S115.07,89.61,115.07,89.61Z"/><path class="cls-5" d="M115.23,89.5c0.13,0.06.07,0.3-.06,0.23C115.06,89.5,115.28,89.66,115.23,89.5Z"/><path class="cls-5" d="M122.16,87.93s0-.09,0-0.08S122.18,87.95,122.16,87.93Z"/><path class="cls-5" d="M126.07,86.93c0.16,0.74-.31.31-0.46,0.47,0-.06,0-0.07,0-0.08-0.06-.22,0-0.06.09-0.09a0.69,0.69,0,0,0,.1-0.24c0.07,0,.11.11,0.14,0.11S125.94,86.81,126.07,86.93Z"/><path class="cls-5" d="M129.26,86.25c0-.08,0,0,0,0S129.27,86.29,129.26,86.25Z"/><path class="cls-5" d="M115.33,89.62c0-.09.06-0.09,0.07,0S115.36,89.7,115.33,89.62Z"/><path class="cls-5" d="M119.55,88.62s0-.09,0-0.08S119.56,88.64,119.55,88.62Z"/><path class="cls-5" d="M119.69,88.59s0-.1.06-0.09S119.71,88.6,119.69,88.59Z"/><path class="cls-5" d="M124.73,87.39c0-.09.06-0.09,0.07,0S124.76,87.47,124.73,87.39Z"/><path class="cls-5" d="M126.46,87c0-.11,0,0,0.05.06S126.48,87.06,126.46,87Z"/><path class="cls-5" d="M126.75,86.92s0-.09,0-0.08S126.77,86.93,126.75,86.92Z"/><path class="cls-5" d="M128.73,86.45s0.07-.14.16,0,0.13,0.29-.08.16a0.29,0.29,0,0,0-.14-0.11C128.65,86.46,128.72,86.48,128.73,86.45Z"/><path class="cls-5" d="M118.63,88.91s0-.09,0-0.08S118.64,88.93,118.63,88.91Z"/><path class="cls-5" d="M120.1,88.56s0-.09,0-0.08S120.12,88.58,120.1,88.56Z"/><path class="cls-5" d="M121.69,88.19c0-.08,0,0,0,0S121.7,88.23,121.69,88.19Z"/><path class="cls-5" d="M124.14,87.61c0-.09.06-0.09,0.07,0S124.18,87.59,124.14,87.61Z"/><path class="cls-5" d="M126.23,87.11c0-.08,0,0,0,0S126.24,87.15,126.23,87.11Z"/><path class="cls-5" d="M126.34,87.09c0-.09.06-0.09,0.07,0S126.37,87.07,126.34,87.09Z"/><path class="cls-5" d="M129.87,86.25s0-.07,0-0.07,0.06,0.19,0,.21S129.87,86.25,129.87,86.25Z"/><path class="cls-5" d="M122.14,88.15s0-.09,0-0.08S122.15,88.17,122.14,88.15Z"/><path class="cls-5" d="M125,87.47c0-.09.06-0.09,0.07,0S125,87.55,125,87.47Z"/><path class="cls-5" d="M130,86.28c0-.08,0,0,0,0S130,86.32,130,86.28Z"/><path class="cls-5" d="M124.75,87.61c0-.08,0,0,0,0S124.76,87.65,124.75,87.61Z"/><path class="cls-5" d="M127.05,87.06c-0.07.13-.21,0.19-0.24,0.13C126.71,87,126.92,87.07,127.05,87.06Z"/><path class="cls-5" d="M124.91,87.64c0-.1,0,0,0.07,0S124.92,87.71,124.91,87.64Z"/><path class="cls-5" d="M125.45,87.51c0.08-.19,0,0.25,0,0h0Z"/><path class="cls-5" d="M126.17,87.34c0-.08.05-0.07,0.09-0.09S126.21,87.32,126.17,87.34Z"/><path class="cls-5" d="M126.44,87.21c0.1,0.1.06-.07,0.16,0S126.43,87.41,126.44,87.21Z"/><path class="cls-5" d="M126.78,87.2c-0.06.27-.23-0.1,0,0h0Z"/><path class="cls-5" d="M127.14,87.11c0-.08.05-0.07,0.09-0.09S127.18,87.09,127.14,87.11Z"/><path class="cls-5" d="M127.32,87.07s0-.09,0-0.08S127.34,87.09,127.32,87.07Z"/><path class="cls-5" d="M128.11,86.88s0-.09,0-0.08S128.13,86.9,128.11,86.88Z"/><path class="cls-5" d="M123.56,88s0-.09,0-0.08S123.57,88.05,123.56,88Z"/><path class="cls-5" d="M126.37,87.37s0-.1.06-0.09S126.38,87.39,126.37,87.37Z"/><path class="cls-5" d="M114.33,89.06a0.93,0.93,0,0,1,.22-0.2c0.07,0,.15-0.08.19,0.17,0-.25.09-0.17,0.18-0.19a0.32,0.32,0,0,1,.09-0.09,2,2,0,0,0,.65-0.15,1.82,1.82,0,0,1,.45,0,12.45,12.45,0,0,1,1.33-.32,2.15,2.15,0,0,1,.4-0.09,1.53,1.53,0,0,0,.47-0.11,1,1,0,0,0,.09.05,0.15,0.15,0,0,0,.06-0.09,0.44,0.44,0,0,0,.09.05,1.58,1.58,0,0,1,.34-0.15c0.13,0,.31.09,0.39,0.05s0-.19.08-0.16c0.17,0.31.06,0.35,0,.44l0-.14c0.12,0-.27.09-0.25,0.06a0.8,0.8,0,0,0,0,.3c-0.13-.45-0.18-0.05-0.34-0.14a0.56,0.56,0,0,0,0-.21s-0.06.13-.07,0a0.49,0.49,0,0,0,0,.37,0.6,0.6,0,0,1-.14-0.26c-0.07-.05-0.12.1-0.13,0.1s-0.09-.12-0.14-0.11-0.08.09-.13,0.1-0.14,0-.2,0l-0.32.08a0.56,0.56,0,0,0,0,.22,1.26,1.26,0,0,1-.28-0.08,0.33,0.33,0,0,0-.26.21,0.73,0.73,0,0,1,0,.21s0,0.12,0,.07,0,0.15,0,.15a0.06,0.06,0,0,1-.05-0.06,0.43,0.43,0,0,1-.1.24c0-.33.21-0.38-0.11-0.63-0.09-.07-0.15-0.2-0.2,0s0,0,.16,0c0.06,0.37-.14.05-0.2,0.12a0.49,0.49,0,0,0,0,.15s-0.06,0-.05-0.06c0,0.21.06,0.42-.12,0.46,0-.12,0-0.16,0-0.28-0.08.11-.08,0.23-0.24,0.13a0.24,0.24,0,0,1,.1.27c-0.09-.23-0.11.07-0.21-0.09s0.15-.05,0-0.3-0.11.05-.16-0.18c-0.1.07,0.07,0.14,0.07,0.27a0.49,0.49,0,0,1-.19-0.32,1.59,1.59,0,0,1-.08.46c0,0.05,0-.13,0-0.14s-0.22.12-.11,0.17a0.25,0.25,0,0,1-.07-0.13c0-.05-0.12-0.06-0.14-0.11s0-.17-0.08-0.2a0.51,0.51,0,0,0-.11.17,0.26,0.26,0,0,1-.2,0,0.37,0.37,0,0,0,0,.15s-0.12-.07-0.11,0,0.1,0.16,0,.07-0.14,0,0,.08a0.2,0.2,0,0,1-.22.05s0-.14,0-0.14,0.06,0.25-.13.25c0,0-.08,0,0,0a1.31,1.31,0,0,1-.19-0.32l0.22-.05C114.34,89.1,114.16,88.93,114.33,89.06Zm0.37,0.28a0.31,0.31,0,0,0-.12-0.19s0.22-.06.09-0.09-0.23,0-.2.12C114.57,89.11,114.61,89.33,114.7,89.34Zm0.69-.31c0,0.25.08-.19,0,0h0Zm0.2,0c0,0.25.08-.19,0,0h0Zm-1.15.27s-0.08.06-.06,0.09S114.45,89.36,114.43,89.33Z"/><path class="cls-5" d="M115.72,89a0.17,0.17,0,0,1,.07.13C115.79,89.34,115.67,89.11,115.72,89Z"/><path class="cls-5" d="M120.48,87.75c0.14,0.45-.07,0-0.11,0a0.83,0.83,0,0,1-.06.23c-0.09,0-.18-0.42-0.27-0.15s0,0.07-.09.09a0.38,0.38,0,0,0,0,.15s0-.12-0.07-0.13,0,0.17-.13.1-0.21-.14-0.16.11c-0.24-.51.06-0.41,0.39-0.45S120.39,87.53,120.48,87.75Z"/><path class="cls-5" d="M120.75,87.61c-0.14,0,.07-0.2.07,0S120.81,87.59,120.75,87.61Z"/><path class="cls-5" d="M122.08,87.44c-0.14-.06-0.05-0.08-0.2,0a0.18,0.18,0,0,1-.12,0s-0.13.46-.22,0.05C121.76,87.45,121.88,87,122.08,87.44Z"/><path class="cls-5" d="M127.94,85.83c0.09-.07.1,0.12,0.18,0.1a0.7,0.7,0,0,0-.08.16A1,1,0,0,1,127.94,85.83Z"/><path class="cls-5" d="M130.15,85.67c-0.08.11-.25,0.31-0.36,0.23a0.67,0.67,0,0,0,0-.51,0.33,0.33,0,0,1,.26.3,0.49,0.49,0,0,0,0-.3,3.38,3.38,0,0,0,.19.46C130.13,85.92,130.18,85.86,130.15,85.67Z"/><path class="cls-5" d="M130.42,85.39c0-.25.18,0,0.29-0.07s0.27-.27.43-0.1c0,0.07,0,.13,0,0.14,0,0.22-.12-0.11-0.18-0.1s0.13,0.22-.1.24a0.19,0.19,0,0,1-.12,0s0,0.17-.08.16l0-.14C130.58,85.48,130.54,85.62,130.42,85.39Z"/><path class="cls-5" d="M131.47,85.14a0.61,0.61,0,0,1-.1.24s-0.2-.12-0.12,0c-0.12-.13.14-0.28,0.29-0.21a2.6,2.6,0,0,0,0,.37c0.07,0.07,0,0,0,0A1.46,1.46,0,0,0,131.47,85.14Z"/><path class="cls-5" d="M114,89.27a0.28,0.28,0,0,1,0,.29c0,0.08-.25-0.05-0.15.18a0.36,0.36,0,0,1-.15-0.33C113.84,89.47,114,89.48,114,89.27Z"/><path class="cls-5" d="M114.31,89.64c0.19,0.18,0,.32,0,0.29S114.39,89.9,114.31,89.64Z"/><path class="cls-5" d="M124.46,87.53c-0.12,0-.07.12-0.16,0.11s0-.23,0-0.28,0.06,0.12.07,0.13,0.06-.29.16,0C124.51,87.6,124.47,87.57,124.46,87.53Z"/><path class="cls-5" d="M125.56,87.49s0-.2,0-0.15S125.55,87.7,125.56,87.49Z"/><path class="cls-5" d="M114.29,85.11s0-.09,0-0.08S114.3,85.12,114.29,85.11Z"/><path class="cls-5" d="M119.36,83.9s0-.09,0-0.08S119.38,83.92,119.36,83.9Z"/><path class="cls-5" d="M121.83,83.39s0-.09,0-0.08S121.84,83.41,121.83,83.39Z"/><path class="cls-5" d="M120.28,83.91s0-.09,0-0.08S120.29,83.92,120.28,83.91Z"/><path class="cls-5" d="M113.12,85.82s0-.09,0-0.08S113.14,85.84,113.12,85.82Z"/><path class="cls-5" d="M115.1,85.35c0.08-.19,0,0.25,0,0h0Z"/><path class="cls-5" d="M123.58,83.56c0-.24.16,0,0.05,0.06A0,0,0,0,1,123.58,83.56Z"/><path class="cls-5" d="M105.26,88c0-.08.05-0.07,0.09-0.09S105.3,88,105.26,88Z"/><path class="cls-5" d="M105.66,87.88s0-.1.06-0.09S105.67,87.89,105.66,87.88Z"/><path class="cls-5" d="M119.29,84.72c0,0.39-.26.12-0.38,0.16s-0.19.25-.31,0.29a0.93,0.93,0,0,1-.14-0.11c-0.07,0-.07.08-0.09,0.09a0.14,0.14,0,0,1-.12,0,1,1,0,0,1-.17.26,0.92,0.92,0,0,1,0-.21c-0.12.07-.17,0-0.15,0.33,0,0.05-.06-0.19-0.09-0.2s0,0.08-.06.09-0.05-.06-0.05-0.06a1,1,0,0,1-.16.11,0.66,0.66,0,0,0-.1-0.12s-0.11,0-.07,0a0.51,0.51,0,0,0-.08.16,0.24,0.24,0,0,1-.12,0,0.26,0.26,0,0,0-.08.16,0.24,0.24,0,0,1-.14-0.11,0.84,0.84,0,0,1,0,.15,3.22,3.22,0,0,1-.5,0c-0.14,0-.47.31-0.63-0.07a3.82,3.82,0,0,0,.61-0.15,0.45,0.45,0,0,0,.09.05,0.17,0.17,0,0,1,.06-0.09c0.07,0,.12.05,0.16,0a1.12,1.12,0,0,1,.47-0.26C117.88,85.21,118.5,84.45,119.29,84.72Z"/><path class="cls-5" d="M121.18,84.35c0,0.15-.12,0-0.11,0a0.35,0.35,0,0,0,0,.15s-0.12-.11-0.18-0.1-0.07.15-.15,0.18a0.44,0.44,0,0,0-.16,0,0.33,0.33,0,0,0,0,.15,0.82,0.82,0,0,0-.23,0s0-.14,0-0.14a2.45,2.45,0,0,0-.13.25,0.27,0.27,0,0,1-.16,0,0.38,0.38,0,0,1-.25-0.09,0.32,0.32,0,0,1,.36-0.23l0,0.14a0.29,0.29,0,0,0,0-.15,1.14,1.14,0,0,1,.54-0.13C120.88,84.29,121,84.11,121.18,84.35Z"/><path class="cls-5" d="M105.42,88s0-.1.06-0.09S105.44,88,105.42,88Z"/><path class="cls-5" d="M113.76,86c0.06,0.26,0,.19-0.11.17S113.68,86,113.76,86Z"/><path class="cls-5" d="M113.82,86c0-.1,0,0,0.07,0S113.83,86.09,113.82,86Z"/><path class="cls-5" d="M119.33,84.71c0-.13.16-0.11,0.12,0S119.34,84.75,119.33,84.71Z"/><path class="cls-5" d="M122,84.44a0.55,0.55,0,0,1-.26-0.3C121.86,84,122,84.2,122,84.44Z"/><path class="cls-5" d="M123.14,84c0-.22.16-0.3,0.26-0.21C123.42,84,123.2,83.81,123.14,84Z"/><path class="cls-5" d="M112.9,86.31s0-.09,0-0.08S112.91,86.32,112.9,86.31Z"/><path class="cls-5" d="M113,86.27c0-.08,0,0,0,0S113,86.31,113,86.27Z"/><path class="cls-5" d="M113.94,86.06s0-.12.06-0.09S114,86.21,113.94,86.06Z"/><path class="cls-5" d="M114.27,86s0-.1.06-0.09S114.28,86,114.27,86Z"/><path class="cls-5" d="M114.37,86s0-.1.06-0.09S114.39,86,114.37,86Z"/><path class="cls-5" d="M114.59,85.91c0.08-.19,0,0.25,0,0h0Z"/><path class="cls-5" d="M115.39,85.93c-0.07.17-.21-0.07-0.32-0.07s-0.19.32-.36,0.09,0.24-.22.36-0.23S115.38,85.62,115.39,85.93Z"/><path class="cls-5" d="M115.76,85.56c0.06,0.22-.1.29-0.18,0.19A0.4,0.4,0,0,1,115.76,85.56Z"/><path class="cls-5" d="M119.7,84.7s0-.09,0-0.08S119.72,84.71,119.7,84.7Z"/><path class="cls-5" d="M121.22,84.34s0-.09,0-0.08S121.23,84.35,121.22,84.34Z"/><path class="cls-5" d="M112.23,86.54c0.08-.19,0,0.25,0,0h0Z"/><path class="cls-5" d="M112.82,86.33c0.21,0.31,0,.51,0,0h0Z"/><path class="cls-5" d="M114.07,86.1s0-.09,0-0.08S114.08,86.12,114.07,86.1Z"/><path class="cls-5" d="M115.53,85.69a0.73,0.73,0,0,1,0,.36C115.43,86.09,115.29,85.65,115.53,85.69Zm0,0.22s-0.05-.07,0,0S115.52,86,115.5,85.91Z"/><path class="cls-5" d="M112.1,86.64c0-.09.06-0.09,0.07,0S112.13,86.72,112.1,86.64Z"/><path class="cls-5" d="M112.32,86.59s0-.09,0-0.08S112.33,86.61,112.32,86.59Z"/><path class="cls-5" d="M123.21,83.94s0.07,0.13,0,.14S123.24,84,123.21,83.94Z"/><path class="cls-5" d="M106.66,88.08c0-.08,0,0,0,0S106.67,88.11,106.66,88.08Z"/><path class="cls-5" d="M108.35,87.68c0-.08,0,0,0,0S108.36,87.71,108.35,87.68Z"/><path class="cls-5" d="M116.42,85.76s0-.09,0-0.08S116.43,85.78,116.42,85.76Z"/><path class="cls-5" d="M121.12,84.58c0.11-.08.09,0.13,0.08,0.2A0.31,0.31,0,0,1,121.12,84.58Z"/><path class="cls-5" d="M106.82,88.11c0-.11,0,0,0.05.06S106.83,88.18,106.82,88.11Z"/><path class="cls-5" d="M113.16,86.61s0-.09,0-0.08S113.17,86.63,113.16,86.61Z"/><path class="cls-5" d="M108.85,87.7s0-.12.06-0.09,0,0.08,0,.08a0.65,0.65,0,0,1,.1.27s-0.27.16-.25-0.23C108.74,87.8,108.85,87.7,108.85,87.7Z"/><path class="cls-5" d="M120.38,85s0-.09,0-0.08S120.39,85,120.38,85Z"/><path class="cls-5" d="M109.26,87.68s0-.09,0-0.08S109.28,87.69,109.26,87.68Z"/><path class="cls-5" d="M119.26,85.24c0,0.15.06,0.13,0,.28S119.14,85.15,119.26,85.24Z"/><path class="cls-5" d="M122.81,84.47c0-.08,0,0,0,0S122.82,84.51,122.81,84.47Z"/><path class="cls-5" d="M106.62,88.38s0-.07,0-0.07,0.06,0.19,0,.21S106.62,88.38,106.62,88.38Z"/><path class="cls-5" d="M106.78,88.27c0.13,0.06.07,0.3-.06,0.23C106.61,88.27,106.83,88.43,106.78,88.27Z"/><path class="cls-5" d="M113.71,86.7s0-.09,0-0.08S113.73,86.71,113.71,86.7Z"/><path class="cls-5" d="M117.62,85.7c0.16,0.74-.31.31-0.46,0.47,0-.06,0-0.07,0-0.08-0.06-.22,0-0.06.09-0.09a0.69,0.69,0,0,0,.1-0.24c0.07,0,.11.11,0.14,0.11S117.5,85.57,117.62,85.7Z"/><path class="cls-5" d="M120.81,85c0-.08,0,0,0,0S120.82,85.05,120.81,85Z"/><path class="cls-5" d="M106.88,88.39c0-.09.06-0.09,0.07,0S106.91,88.47,106.88,88.39Z"/><path class="cls-5" d="M111.1,87.39s0-.09,0-0.08S111.11,87.4,111.1,87.39Z"/><path class="cls-5" d="M111.24,87.35s0-.1.06-0.09S111.26,87.37,111.24,87.35Z"/><path class="cls-5" d="M116.28,86.16c0-.09.06-0.09,0.07,0S116.31,86.24,116.28,86.16Z"/><path class="cls-5" d="M118,85.75c0-.11,0,0,0.05.06S118,85.82,118,85.75Z"/><path class="cls-5" d="M118.3,85.68s0-.09,0-0.08S118.32,85.7,118.3,85.68Z"/><path class="cls-5" d="M120.28,85.21s0.07-.14.16,0,0.13,0.29-.08.16a0.29,0.29,0,0,0-.14-0.11C120.2,85.22,120.27,85.24,120.28,85.21Z"/><path class="cls-5" d="M110.18,87.68s0-.09,0-0.08S110.19,87.69,110.18,87.68Z"/><path class="cls-5" d="M111.65,87.33s0-.09,0-0.08S111.67,87.35,111.65,87.33Z"/><path class="cls-5" d="M113.24,87c0-.08,0,0,0,0S113.25,87,113.24,87Z"/><path class="cls-5" d="M115.69,86.37c0-.09.06-0.09,0.07,0S115.73,86.36,115.69,86.37Z"/><path class="cls-5" d="M117.78,85.88c0-.08,0,0,0,0S117.79,85.92,117.78,85.88Z"/><path class="cls-5" d="M117.89,85.85c0-.09.06-0.09,0.07,0S117.92,85.84,117.89,85.85Z"/><path class="cls-5" d="M121.42,85s0-.07,0-0.07,0.06,0.19,0,.21S121.42,85,121.42,85Z"/><path class="cls-5" d="M113.69,86.92s0-.09,0-0.08S113.7,86.94,113.69,86.92Z"/><path class="cls-5" d="M116.57,86.24c0-.09.06-0.09,0.07,0S116.6,86.32,116.57,86.24Z"/><path class="cls-5" d="M121.58,85.05c0-.08,0,0,0,0S121.59,85.09,121.58,85.05Z"/><path class="cls-5" d="M116.3,86.37c0-.08,0,0,0,0S116.31,86.41,116.3,86.37Z"/><path class="cls-5" d="M118.6,85.83c-0.07.13-.21,0.19-0.24,0.13C118.26,85.72,118.47,85.83,118.6,85.83Z"/><path class="cls-5" d="M116.46,86.41c0-.1,0,0,0.07,0S116.47,86.48,116.46,86.41Z"/><path class="cls-5" d="M117,86.28c0.08-.19,0,0.25,0,0h0Z"/><path class="cls-5" d="M117.72,86.11c0-.08.05-0.07,0.09-0.09S117.76,86.09,117.72,86.11Z"/><path class="cls-5" d="M118,86c0.1,0.1.06-.07,0.16,0S118,86.18,118,86Z"/><path class="cls-5" d="M118.33,86c-0.06.27-.23-0.1,0,0h0Z"/><path class="cls-5" d="M118.69,85.88c0-.08.05-0.07,0.09-0.09S118.73,85.86,118.69,85.88Z"/><path class="cls-5" d="M118.87,85.84s0-.09,0-0.08S118.89,85.85,118.87,85.84Z"/><path class="cls-5" d="M119.66,85.65s0-.09,0-0.08S119.68,85.67,119.66,85.65Z"/><path class="cls-5" d="M115.11,86.8s0-.09,0-0.08S115.12,86.82,115.11,86.8Z"/><path class="cls-5" d="M117.92,86.14s0-.1.06-0.09S117.93,86.15,117.92,86.14Z"/><path class="cls-5" d="M105.88,87.83a0.93,0.93,0,0,1,.22-0.2c0.07,0,.15-0.08.19,0.17,0-.25.09-0.17,0.18-0.19a0.32,0.32,0,0,1,.09-0.09,2,2,0,0,0,.65-0.15,1.82,1.82,0,0,1,.45,0A12.45,12.45,0,0,1,109,87a2.15,2.15,0,0,1,.4-0.09,1.53,1.53,0,0,0,.47-0.11,1,1,0,0,0,.09.05,0.15,0.15,0,0,0,.06-0.09,0.44,0.44,0,0,0,.09.05,1.58,1.58,0,0,1,.34-0.15c0.13,0,.31.09,0.39,0.05s0-.19.08-0.16c0.17,0.31.06,0.35,0,.44l0-.14c0.12,0-.27.09-0.25,0.06a0.8,0.8,0,0,0,0,.3c-0.13-.45-0.18-0.05-0.34-0.14a0.56,0.56,0,0,0,0-.21s-0.06.13-.07,0a0.49,0.49,0,0,0,0,.37A0.6,0.6,0,0,1,110,87c-0.07-.05-0.12.1-0.13,0.1S109.76,87,109.71,87s-0.08.09-.13,0.1-0.14,0-.2,0l-0.32.08a0.56,0.56,0,0,0,0,.22,1.26,1.26,0,0,1-.28-0.08,0.33,0.33,0,0,0-.26.21,0.73,0.73,0,0,1,0,.21s0,0.12,0,.07,0,0.15,0,.15a0.06,0.06,0,0,1-.05-0.06,0.43,0.43,0,0,1-.1.24c0-.33.21-0.38-0.11-0.63-0.09-.07-0.15-0.2-0.2,0s0,0,.16,0c0.06,0.37-.14.05-0.2,0.12a0.49,0.49,0,0,0,0,.15s-0.06,0-.05-0.06c0,0.21.06,0.42-.12,0.46,0-.12,0-0.16,0-0.28-0.08.11-.08,0.23-0.24,0.13a0.24,0.24,0,0,1,.1.27c-0.09-.23-0.11.07-0.21-0.09s0.15-.05,0-0.3-0.11.05-.16-0.18c-0.1.07,0.07,0.14,0.07,0.27a0.49,0.49,0,0,1-.19-0.32,1.59,1.59,0,0,1-.08.46c0,0.05,0-.13,0-0.14s-0.22.12-.11,0.17A0.25,0.25,0,0,1,107,88c0-.05-0.12-0.06-0.14-0.11s0-.17-0.08-0.2a0.51,0.51,0,0,0-.11.17,0.26,0.26,0,0,1-.2,0,0.37,0.37,0,0,0,0,.15s-0.12-.07-0.11,0,0.1,0.16,0,.07-0.14,0,0,.08a0.2,0.2,0,0,1-.22.05s0-.14,0-0.14,0.06,0.25-.13.25c0,0-.08,0,0,0a1.31,1.31,0,0,1-.19-0.32l0.22-.05C105.89,87.86,105.71,87.7,105.88,87.83Zm0.37,0.28a0.31,0.31,0,0,0-.12-0.19s0.22-.06.09-0.09-0.23,0-.2.12C106.12,87.88,106.16,88.1,106.25,88.1Zm0.69-.31c0,0.25.08-.19,0,0h0Zm0.2,0c0,0.25.08-.19,0,0h0Zm-1.15.27s-0.08.06-.06,0.09S106,88.12,106,88.09Z"/><path class="cls-5" d="M107.27,87.79a0.17,0.17,0,0,1,.07.13C107.34,88.1,107.22,87.87,107.27,87.79Z"/><path class="cls-5" d="M112,86.51c0.14,0.45-.07,0-0.11,0a0.83,0.83,0,0,1-.06.23c-0.09,0-.18-0.42-0.27-0.15s0,0.07-.09.09a0.38,0.38,0,0,0,0,.15s0-.12-0.07-0.13,0,0.17-.13.1-0.21-.14-0.16.11c-0.24-.51.06-0.41,0.39-0.45S111.94,86.3,112,86.51Z"/><path class="cls-5" d="M112.3,86.38c-0.14,0,.07-0.2.07,0S112.36,86.36,112.3,86.38Z"/><path class="cls-5" d="M113.63,86.21c-0.14-.06-0.05-0.08-0.2,0a0.18,0.18,0,0,1-.12,0s-0.13.46-.22,0.05C113.31,86.22,113.44,85.79,113.63,86.21Z"/><path class="cls-5" d="M119.49,84.6c0.09-.07.1,0.12,0.18,0.1a0.7,0.7,0,0,0-.08.16A1,1,0,0,1,119.49,84.6Z"/><path class="cls-5" d="M121.7,84.44c-0.08.11-.25,0.31-0.36,0.23a0.67,0.67,0,0,0,0-.51,0.33,0.33,0,0,1,.26.3,0.49,0.49,0,0,0,0-.3,3.38,3.38,0,0,0,.19.46C121.68,84.68,121.73,84.62,121.7,84.44Z"/><path class="cls-5" d="M122,84.16c0-.25.18,0,0.29-0.07s0.27-.27.43-0.1c0,0.07,0,.13,0,0.14,0,0.22-.12-0.11-0.18-0.1s0.13,0.22-.1.24a0.19,0.19,0,0,1-.12,0s0,0.17-.08.16l0-.14C122.13,84.25,122.09,84.39,122,84.16Z"/><path class="cls-5" d="M123,83.91a0.61,0.61,0,0,1-.1.24s-0.2-.12-0.12,0c-0.12-.13.14-0.28,0.29-0.21a2.6,2.6,0,0,0,0,.37c0.07,0.07,0,0,0,0A1.46,1.46,0,0,0,123,83.91Z"/><path class="cls-5" d="M105.58,88a0.28,0.28,0,0,1,0,.29c0,0.08-.25-0.05-0.15.18a0.36,0.36,0,0,1-.15-0.33C105.39,88.24,105.58,88.25,105.58,88Z"/><path class="cls-5" d="M105.86,88.41c0.19,0.18,0,.32,0,0.29S105.94,88.67,105.86,88.41Z"/><path class="cls-5" d="M116,86.3c-0.12,0-.07.12-0.16,0.11s0-.23,0-0.28,0.06,0.12.07,0.13,0.06-.29.16,0C116.06,86.37,116,86.33,116,86.3Z"/><path class="cls-5" d="M117.11,86.25s0-.2,0-0.15S117.1,86.46,117.11,86.25Z"/></g><circle id="_Clipping_Path_3" data-name="&lt;Clipping Path&gt;" class="cls-6" cx="110.84" cy="84.86" r="19.86"/></svg>