<svg id="Layer_1" data-name="Layer 1" xmlns="http://www.w3.org/2000/svg" xmlns:xlink="http://www.w3.org/1999/xlink" viewBox="0 0 200 200"><defs><style>.cls-1,.cls-2{fill:#fff;}.cls-1,.cls-4,.cls-5{stroke:#2c3e50;}.cls-1,.cls-4,.cls-5,.cls-7{stroke-miterlimit:10;}.cls-1,.cls-5{stroke-width:2px;}.cls-3{clip-path:url(#clip-path);}.cls-4,.cls-6{fill:#2c3e50;}.cls-4{stroke-width:15px;}.cls-5{fill:none;}.cls-7{fill:#e64c3c;stroke:#fff;}</style><clipPath id="clip-path"><rect id="_Rectangle_" data-name="&lt;Rectangle&gt;" class="cls-1" x="41.94" y="65" width="116.11" height="70"/></clipPath></defs><title>dont_buy_stolen</title><rect id="_Rectangle_2" data-name="&lt;Rectangle&gt;" class="cls-2" x="41.94" y="65" width="116.11" height="70"/><g class="cls-3"><line class="cls-4" x1="41.92" y1="60.16" x2="130.56" y2="141.91"/><line class="cls-4" x1="29.53" y1="117.98" x2="168.43" y2="117.98"/></g><rect id="_Rectangle_3" data-name="&lt;Rectangle&gt;" class="cls-5" x="41.94" y="65" width="116.11" height="70"/><path class="cls-6" d="M110.52,81.28V69h3c2.6,0,3.81,1,3.81,3.62s-1.21,3.62-3.81,3.62h-0.92v5h-2.11Zm2.11-6.77h0.82c1.38,0,1.8-.43,1.8-1.89s-0.42-1.89-1.8-1.89h-0.82v3.77Z"/><path class="cls-6" d="M119,72a3.23,3.23,0,0,1,6.46,0v6.32a3.23,3.23,0,0,1-6.46,0V72Zm2.11,6.27c0,0.92.27,1.36,1.12,1.36s1.12-.44,1.12-1.36V72c0-.92-0.27-1.36-1.12-1.36s-1.12.44-1.12,1.36v6.22Z"/><path class="cls-6" d="M127.42,81.28V69h2.11V79.45h3.32v1.84h-5.42Z"/><path class="cls-6" d="M134.42,81.28V69h2.11V81.28h-2.11Z"/><path class="cls-6" d="M143.11,73.11v-1c0-1-.48-1.48-1-1.48-0.85,0-1.12.44-1.12,1.36v6.22c0,0.92.27,1.36,1.12,1.36a1,1,0,0,0,1-1.24V76.9h2.11v1.41a2.92,2.92,0,0,1-3.13,3.14,3,3,0,0,1-3.23-3.14V72a3,3,0,0,1,3.23-3.15c2.11,0,3.13,1.53,3.13,3.37v0.9h-2.11Z"/><path class="cls-6" d="M147.36,81.28V69H153v1.84h-3.54V74h2.72v1.84h-2.72v3.6h3.77v1.84h-5.88Z"/><path class="cls-6" d="M128.55,84.45a32.4,32.4,0,0,0-19.28,6.82,42.51,42.51,0,0,0,5,7.71s10.68,0.59,14.23.59S142.79,99,142.79,99a42.51,42.51,0,0,0,5-7.71A32.4,32.4,0,0,0,128.55,84.45Z"/><path class="cls-6" d="M128.55,101.54c-3.38,0-13.53-.59-13.53-0.59,1.26,1.71,8,3.41,13.53,3.41s12.27-1.71,13.53-3.41C142.09,100.95,131.94,101.54,128.55,101.54Z"/><polygon class="cls-7" points="128.1 95 125.39 96.42 125.91 93.41 123.72 91.27 126.75 90.83 128.1 88.09 129.46 90.83 132.48 91.27 130.29 93.41 130.81 96.42 128.1 95"/></svg>