<svg id="Layer_1" data-name="Layer 1" xmlns="http://www.w3.org/2000/svg" viewBox="0 0 200 200"><defs><style>.cls-1{fill:#2c3e50;}.cls-2{fill:#fff;}.cls-3{fill:#e64c3c;}</style></defs><title>dont_buy_stolen</title><path class="cls-1" d="M103.76,65H24.56a6.42,6.42,0,0,0-6.41,6.41v47.94a6.42,6.42,0,0,0,6.41,6.41h79.2a6.42,6.42,0,0,0,6.41-6.41V71.41A6.42,6.42,0,0,0,103.76,65Zm3,54.34a3,3,0,0,1-3,3H24.56a3,3,0,0,1-3-3V71.41a3,3,0,0,1,3-3h79.2a3,3,0,0,1,3,3v47.94Z"/><rect class="cls-1" x="20.76" y="67.56" width="86.82" height="4.86"/><rect class="cls-1" x="20.76" y="118.33" width="86.82" height="4.86"/><rect class="cls-1" x="56.75" y="123.19" width="14.83" height="9.37"/><rect class="cls-1" x="47.98" y="131.57" width="32.36" height="3.43"/><rect class="cls-2" x="20.76" y="72.42" width="85.98" height="46.93"/><path class="cls-3" d="M181.85,92.32c0,23.66-16,33.52-52.25,31.92-4.66-.21,7.5-7.42,4.74-12.68-3.1-5.9-4.77-8.51-4.77-19.24,0-15.78,7.5-27.32,28.29-27.32C176.07,65,181.85,76.55,181.85,92.32Z"/><path class="cls-2" d="M143.28,73.72h-1.44v-1.3h4.37v1.3h-1.44v7.36h-1.49V73.72Z"/><path class="cls-2" d="M147,81.09V72.43h1.34v2.81a2,2,0,0,1,1.56-.72A1.16,1.16,0,0,1,151,75.87v5.22H149.7v-5a0.43,0.43,0,0,0-.48-0.47,1.57,1.57,0,0,0-.86.41v5.06H147Z"/><path class="cls-2" d="M156.44,78.11h-2.83V79c0,0.74.26,1.06,0.74,1.06s0.74-.31.74-1.06V78.9h1.34c0,1.37-.59,2.3-2.09,2.3s-2.09-1-2.09-2.4v-1.9c0-1.42.55-2.4,2.09-2.4s2.09,1,2.09,2.4v1.2ZM155.1,77V76.67c0-.74-0.26-1.06-0.74-1.06s-0.74.31-.74,1.06V77h1.49Z"/><path class="cls-2" d="M160.11,76.42a0.8,0.8,0,0,0-.77-0.8,0.51,0.51,0,0,0-.59.52c0,1,2.52,1.42,2.52,3.33a1.68,1.68,0,0,1-1.88,1.74,2,2,0,0,1-2.05-1.8l1.18-.32a1,1,0,0,0,.89,1,0.55,0.55,0,0,0,.6-0.56c0-1.12-2.52-1.54-2.52-3.3a1.71,1.71,0,0,1,1.8-1.73,2,2,0,0,1,2,1.71Z"/><path class="cls-2" d="M166.44,78.11h-2.83V79c0,0.74.26,1.06,0.74,1.06s0.74-.31.74-1.06V78.9h1.34c0,1.37-.59,2.3-2.09,2.3s-2.09-1-2.09-2.4v-1.9c0-1.42.55-2.4,2.09-2.4s2.09,1,2.09,2.4v1.2ZM165.09,77V76.67c0-.74-0.26-1.06-0.74-1.06s-0.74.31-.74,1.06V77h1.49Z"/><path class="cls-2" d="M142.2,88.33a2,2,0,0,1,2.16-2,1.66,1.66,0,0,1,2,1.75V92.2a4.72,4.72,0,0,0,.08.68h-1.28c0-.18-0.06-0.35-0.07-0.5a2.28,2.28,0,0,1-1.57.62,1.31,1.31,0,0,1-1.37-1.45c0-1.42.94-2.19,2.87-2.93V88.24a0.67,0.67,0,0,0-.66-0.83c-0.61,0-.74.36-0.77,0.91H142.2ZM145,89.61c-1.22.7-1.52,1.14-1.52,1.7a0.53,0.53,0,0,0,.62.59,1.18,1.18,0,0,0,.9-0.6V89.61Z"/><path class="cls-2" d="M147.67,92.89V86.43H149v0.76h0a1.74,1.74,0,0,1,1.52-.88h0.28v1.4a3,3,0,0,0-.86-0.13,0.85,0.85,0,0,0-.9.86v4.44h-1.34Z"/><path class="cls-2" d="M155.77,89.91h-2.83v0.94c0,0.74.26,1.06,0.74,1.06s0.74-.31.74-1.06V90.7h1.34c0,1.37-.59,2.3-2.09,2.3s-2.09-1-2.09-2.4v-1.9c0-1.42.55-2.4,2.09-2.4s2.09,1,2.09,2.4v1.2Zm-1.34-1.1V88.47c0-.74-0.26-1.06-0.74-1.06s-0.74.31-.74,1.06v0.34h1.49Z"/><path class="cls-2" d="M144.79,100a0.79,0.79,0,0,0-.77-0.8,0.51,0.51,0,0,0-.59.52c0,1,2.52,1.42,2.52,3.33a1.68,1.68,0,0,1-1.88,1.74A2,2,0,0,1,142,103l1.17-.32a1,1,0,0,0,.89,1,0.55,0.55,0,0,0,.6-0.56c0-1.12-2.52-1.54-2.52-3.3a1.72,1.72,0,0,1,1.8-1.73,2,2,0,0,1,2,1.71Z"/><path class="cls-2" d="M146.48,99.33v-1.1h0.74V96.49h1.34v1.74h0.9v1.1h-0.9v3.72a0.44,0.44,0,0,0,.46.53h0.44v1.15a2.31,2.31,0,0,1-.67.07,1.35,1.35,0,0,1-1.57-1.45v-4h-0.74Z"/><path class="cls-2" d="M150.28,100.51c0-1.42.55-2.4,2.09-2.4s2.09,1,2.09,2.4v1.9c0,1.42-.55,2.4-2.09,2.4s-2.09-1-2.09-2.4v-1.9Zm2.83-.24c0-.74-0.26-1.06-0.74-1.06s-0.74.31-.74,1.06v2.37c0,0.74.26,1.06,0.74,1.06s0.74-.31.74-1.06v-2.37Z"/><path class="cls-2" d="M155.69,104.68V96H157v8.66h-1.34Z"/><path class="cls-2" d="M162.44,101.71h-2.83v0.94c0,0.74.26,1.06,0.74,1.06s0.74-.31.74-1.06V102.5h1.34c0,1.37-.59,2.3-2.09,2.3s-2.09-1-2.09-2.4v-1.9c0-1.42.55-2.4,2.09-2.4s2.09,1,2.09,2.4v1.2Zm-1.34-1.1v-0.34c0-.74-0.26-1.06-0.74-1.06s-0.74.31-.74,1.06v0.34h1.49Z"/><path class="cls-2" d="M163.67,104.68V98.23h1.27v0.65a2.16,2.16,0,0,1,1.63-.77,1.16,1.16,0,0,1,1.13,1.35v5.22h-1.34v-5a0.43,0.43,0,0,0-.48-0.47,1.57,1.57,0,0,0-.86.41v5.06h-1.34Z"/><path class="cls-2" d="M142.34,116.48v-8.66h1.34v2.76a2,2,0,0,1,1.39-.67c0.84,0,1.37.62,1.37,1.8v3.09c0,1.18-.53,1.8-1.37,1.8a1.6,1.6,0,0,1-1.44-.79h0v0.67h-1.27Zm1.34-1.32a1.36,1.36,0,0,0,.77.34c0.36,0,.65-0.19.65-1v-2.4c0-.85-0.29-1-0.65-1a1.36,1.36,0,0,0-.77.34v3.81Z"/><path class="cls-2" d="M147.68,109v-1.22H149V109h-1.34Zm0,7.44V110H149v6.45h-1.34Z"/><path class="cls-2" d="M153.21,112.07l1.56,4.41h-1.36l-1.08-3.2h0l-0.64.95v2.25h-1.34v-8.66h1.34v4.49h0l1.48-2.28h1.44Z"/><path class="cls-2" d="M159.76,113.51h-2.83v0.94c0,0.74.26,1.06,0.74,1.06s0.74-.31.74-1.06V114.3h1.34c0,1.37-.59,2.3-2.09,2.3s-2.09-1-2.09-2.4v-1.9c0-1.42.55-2.4,2.09-2.4s2.09,1,2.09,2.4v1.2Zm-1.34-1.1v-0.34c0-.74-0.26-1.06-0.74-1.06s-0.74.31-.74,1.06v0.34h1.49Z"/><path class="cls-2" d="M163.44,111.82a0.8,0.8,0,0,0-.77-0.8,0.51,0.51,0,0,0-.59.52c0,1,2.52,1.42,2.52,3.33a1.68,1.68,0,0,1-1.88,1.74,2,2,0,0,1-2.05-1.8l1.17-.32a1,1,0,0,0,.89,1,0.55,0.55,0,0,0,.6-0.56c0-1.12-2.52-1.54-2.52-3.3a1.72,1.72,0,0,1,1.8-1.73,2,2,0,0,1,2,1.71Z"/><path class="cls-1" d="M32.37,84.18a1.21,1.21,0,0,0-1.12-1.36A1,1,0,0,0,30.2,84c0,2.09,4.28,3.09,4.28,6.43a3,3,0,0,1-3.33,3.14c-2,0-3.08-1.56-3.16-3.4l2-.29c0.08,1.24.58,1.85,1.26,1.85a1.08,1.08,0,0,0,1.22-1.12c0-2.43-4.28-3.08-4.28-6.6,0-2,1.19-3.06,3.26-3.06,1.72,0,2.74,1.24,2.92,3Z"/><path class="cls-1" d="M36.08,93.43V81.15h5.64V83H38.19v3.16h2.72V88H38.19v3.6H42v1.84H36.08Z"/><path class="cls-1" d="M43.52,93.43V81.15h2.11V91.59h3.31v1.84H43.52Z"/><path class="cls-1" d="M50.14,93.43V81.15h2.11V91.59h3.31v1.84H50.14Z"/><path class="cls-1" d="M56.85,93.43V81.15H62.5V83H59v3.16h2.72V88H59v3.6h3.77v1.84H56.85Z"/><path class="cls-1" d="M66.51,93.43H64.4V81.15h3c2.36,0,3.57,1,3.57,3.62,0,2-.76,2.77-1.48,3.09l1.79,5.56H69.09l-1.5-5.08a10.13,10.13,0,0,1-1.09.05v5Zm0-6.77h0.75c1.14,0,1.56-.42,1.56-1.89s-0.42-1.89-1.56-1.89H66.51v3.77Z"/><path class="cls-1" d="M74.89,83.7H73.22V82.57A12.79,12.79,0,0,0,75.72,81h1.07V93.43h-1.9V83.7Z"/><path class="cls-1" d="M78.82,93.43V91.78c2.62-3.82,4-5.93,4-7.73,0-1-.37-1.39-1-1.39a1.08,1.08,0,0,0-1,1.28v0.83h-2V84.18A3,3,0,0,1,82,81a2.74,2.74,0,0,1,2.86,2.72c0,1.94-.61,3.37-3.91,8h3.72v1.73H78.82Z"/><path class="cls-1" d="M88,89.88v0.83a1,1,0,0,0,1,1.22c0.61,0,1-.42,1-1.45V89.55c0-1.33-.51-1.73-1.8-1.73V86.15c1.24,0,1.72-.41,1.72-1.87,0-1.16-.22-1.63-0.85-1.63s-1,.29-1,1.26v0.51h-1.9V83.84A2.67,2.67,0,0,1,89,81c1.82,0,2.74,1.51,2.74,3.15,0,1.43-.24,2.23-1.33,2.82,1.24,0.65,1.51,1.38,1.51,3,0,2.45-1,3.6-3.06,3.6-1.75,0-2.8-.88-2.8-3V89.88H88Z"/><path class="cls-1" d="M29.88,106.57v0.74a0.88,0.88,0,0,0,.84,1.08c0.54,0,.88-0.37.88-1.28v-0.83c0-1.17-.45-1.53-1.59-1.53v-1.47c1.09,0,1.52-.36,1.52-1.65,0-1-.2-1.44-0.75-1.44s-0.84.26-.84,1.11v0.45H28.26v-0.51a2.36,2.36,0,0,1,2.53-2.52,2.5,2.5,0,0,1,2.42,2.78c0,1.26-.21,2-1.17,2.49,1.1,0.57,1.33,1.21,1.33,2.69,0,2.16-.85,3.18-2.7,3.18-1.54,0-2.48-.78-2.48-2.64v-0.65h1.68Z"/><path class="cls-1" d="M35,100.41V98.88H39.9v1l-2.21,9.78H35.94l2.17-9.3H35Z"/><path class="cls-1" d="M45,109.71V98.88h1.86v9.21h2.92v1.62H45Z"/><path class="cls-1" d="M50.82,100.41V98.88H52.5v1.53H50.82Zm0,9.3v-8.07H52.5v8.07H50.82Z"/><path class="cls-1" d="M57.19,103.87a1,1,0,0,0-1-1,0.64,0.64,0,0,0-.73.65c0,1.26,3.15,1.77,3.15,4.17a2.1,2.1,0,0,1-2.35,2.17,2.43,2.43,0,0,1-2.56-2.25l1.47-.41a1.19,1.19,0,0,0,1.11,1.28,0.68,0.68,0,0,0,.75-0.71c0-1.4-3.15-1.92-3.15-4.12a2.15,2.15,0,0,1,2.25-2.16,2.46,2.46,0,0,1,2.46,2.15Z"/><path class="cls-1" d="M59.31,103v-1.38h0.93V99.46h1.68v2.17H63V103H61.92v4.65a0.55,0.55,0,0,0,.57.66H63v1.44a2.91,2.91,0,0,1-.84.09,1.69,1.69,0,0,1-2-1.82v-5H59.31Z"/><path class="cls-1" d="M64.15,100.41V98.88h1.68v1.53H64.15Zm0,9.3v-8.07h1.68v8.07H64.15Z"/><path class="cls-1" d="M67.47,109.71v-8.07h1.59v0.81a2.7,2.7,0,0,1,2-1,1.45,1.45,0,0,1,1.41,1.7v6.52H70.83v-6.25a0.53,0.53,0,0,0-.6-0.58,2,2,0,0,0-1.08.51v6.33H67.47Z"/><path class="cls-1" d="M79.71,102.88a1.56,1.56,0,0,0-.27,0,1.22,1.22,0,0,0-.81.25,5.21,5.21,0,0,1,.18,1.28c0,2.46-.84,3.24-2.55,3.24H75.72a0.4,0.4,0,0,0-.33.38c0,1.09,4.32-.53,4.32,2.32,0,1.38-1.29,1.92-3.45,1.92-1.68,0-2.67-.45-2.67-1.29a1.36,1.36,0,0,1,1.1-1.26v0a1.06,1.06,0,0,1-.77-1,1.8,1.8,0,0,1,1-1.3c-0.84-.58-1.08-1-1.08-2.9,0-2.22.72-3,2.61-3a2.31,2.31,0,0,1,1.86.87,1.4,1.4,0,0,1,1.38-.87v1.4Zm-1.5,7.57c0-.42-0.3-0.6-1.42-0.6s-1.42.18-1.42,0.6,0.3,0.6,1.42.6S78.21,110.88,78.21,110.46Zm-1.08-5.89c0-1.37-.18-1.7-0.84-1.7s-0.84.33-.84,1.7,0.3,1.7.84,1.7S77.13,105.93,77.13,104.56Z"/><path class="cls-1" d="M83.85,103.87a1,1,0,0,0-1-1,0.64,0.64,0,0,0-.74.65c0,1.26,3.15,1.77,3.15,4.17a2.1,2.1,0,0,1-2.36,2.17,2.43,2.43,0,0,1-2.56-2.25l1.47-.41A1.19,1.19,0,0,0,83,108.48a0.68,0.68,0,0,0,.75-0.71c0-1.4-3.15-1.92-3.15-4.12a2.15,2.15,0,0,1,2.25-2.16,2.46,2.46,0,0,1,2.46,2.15Z"/><path class="cls-1" d="M87.46,109.71v-1.77h1.71v1.77H87.46Zm5,0v-1.77h1.71v1.77H92.46Zm5,0v-1.77h1.71v1.77H97.45Z"/></svg>