<svg id="Layer_1" data-name="Layer 1" xmlns="http://www.w3.org/2000/svg" viewBox="0 0 200 200"><defs><style>.cls-1{fill:#fff;}.cls-2{fill:#2c3e50;}.cls-3{fill:#e64c3c;}</style></defs><title>dont_buy_stolen</title><rect class="cls-1" x="42.53" y="65" width="100.05" height="17.5"/><path class="cls-2" d="M143.58,83.5h-102V64h102V83.5Zm-100-2h98V66h-98V81.5Z"/><rect class="cls-1" x="57.42" y="82.5" width="100.05" height="17.5"/><path class="cls-2" d="M158.47,101h-102V81.5h102V101Zm-100-2h98V83.5h-98V99Z"/><path class="cls-3" d="M67.21,72a1,1,0,0,0-.92-1.12,0.85,0.85,0,0,0-.87,1c0,1.72,3.53,2.55,3.53,5.29a2.48,2.48,0,0,1-2.75,2.59A2.67,2.67,0,0,1,63.6,77l1.65-.24c0.07,1,.48,1.53,1,1.53a0.89,0.89,0,0,0,1-.92c0-2-3.53-2.54-3.53-5.43a2.37,2.37,0,0,1,2.69-2.52,2.43,2.43,0,0,1,2.41,2.45Z"/><path class="cls-3" d="M70.26,79.62V69.5h4.65V71H72v2.61h2.24v1.51H72v3h3.11v1.51H70.26Z"/><path class="cls-3" d="M77.49,79.62H75.81L77.67,69.5h2.16l1.86,10.11H80L79.7,77.38h-1.9ZM78,75.86h1.4l-0.69-4.34h0Z"/><path class="cls-3" d="M84.43,79.62H82.69V69.5h2.44c1.95,0,2.94.83,2.94,3,0,1.63-.63,2.28-1.22,2.55l1.47,4.58H86.56l-1.23-4.19a8.28,8.28,0,0,1-.9,0v4.15Zm0-5.58H85c0.94,0,1.29-.35,1.29-1.55S86,70.93,85,70.93H84.43V74Z"/><path class="cls-3" d="M93.2,72.88V72.1a1,1,0,0,0-.84-1.22c-0.7,0-.92.36-0.92,1.12v5.13c0,0.76.22,1.12,0.92,1.12a0.81,0.81,0,0,0,.84-1V76h1.74v1.16a2.41,2.41,0,0,1-2.58,2.59,2.43,2.43,0,0,1-2.66-2.59V72a2.43,2.43,0,0,1,2.66-2.59,2.51,2.51,0,0,1,2.58,2.77v0.74H93.2Z"/><path class="cls-3" d="M96.69,79.62V69.5h1.74v4.12h1.85V69.5H102V79.62h-1.74V75.13H98.43v4.48H96.69Z"/><path class="cls-2" d="M72.73,96.26V87.6h1.38l1.81,5h0v-5h1.34v8.66H76l-1.9-5.41h0v5.41H72.73Z"/><path class="cls-2" d="M79.6,96.26H78.16l1.6-8.66H81.6l1.6,8.66H81.76l-0.26-1.92H79.86ZM80.08,93h1.2l-0.59-3.72h0Z"/><path class="cls-2" d="M90,87.6v8.66H88.73V89.49h0l-1.34,6.76H86.64L85.3,89.49h0v6.76H84V87.6h2L87,92.66h0l1.06-5.06h2Z"/><path class="cls-2" d="M91.39,96.26V87.6h4v1.3H92.88v2.23H94.8v1.3H92.88V95h2.66v1.3H91.39Z"/><rect class="cls-1" x="57.42" y="100" width="100.05" height="17.5"/><path class="cls-2" d="M158.47,118.5h-102V99h102v19.5Zm-100-2h98V101h-98v15.5Z"/><path class="cls-2" d="M72.73,113.76V105.1h4v1.3h-2.5v2.23h1.92v1.3H74.22v2.54h2.66v1.3H72.73Z"/><path class="cls-2" d="M84,105.1v8.66H82.73V107h0l-1.34,6.76H80.64L79.3,107h0v6.76H78V105.1h2L81,110.16h0l1.06-5.06h2Z"/><path class="cls-2" d="M86.26,113.76H84.82l1.6-8.66h1.85l1.6,8.66H88.42l-0.26-1.92H86.52Zm0.48-3.21h1.2l-0.59-3.72h0Z"/><path class="cls-2" d="M90.92,113.76V105.1h1.49v8.66H90.92Z"/><path class="cls-2" d="M94,113.76V105.1h1.49v7.36h2.34v1.3H94Z"/><rect class="cls-1" x="57.42" y="117.5" width="100.05" height="17.5"/><path class="cls-2" d="M158.47,136h-102V116.5h102V136Zm-100-2h98V118.5h-98V134Z"/><path class="cls-2" d="M75.44,124.73a0.85,0.85,0,0,0-.79-1,0.73,0.73,0,0,0-.74.85c0,1.48,3,2.18,3,4.53a2.12,2.12,0,0,1-2.35,2.22,2.28,2.28,0,0,1-2.23-2.4l1.42-.2c0.06,0.88.41,1.31,0.89,1.31a0.76,0.76,0,0,0,.86-0.79c0-1.72-3-2.17-3-4.65a2,2,0,0,1,2.3-2.16,2.08,2.08,0,0,1,2.06,2.1Z"/><path class="cls-2" d="M78.92,131.26H77.49l1.6-8.66h1.85l1.6,8.66H81.08l-0.26-1.92H79.19ZM79.4,128h1.2L80,124.32h0Z"/><path class="cls-2" d="M83.32,131.26V122.6H84.8V130h2.34v1.3H83.32Z"/><path class="cls-2" d="M88.06,131.26V122.6h4v1.3H89.54v2.23h1.92v1.3H89.54V130h2.66v1.3H88.06Z"/><path class="cls-2" d="M96.1,124.73a0.85,0.85,0,0,0-.79-1,0.73,0.73,0,0,0-.74.85c0,1.48,3,2.18,3,4.53a2.12,2.12,0,0,1-2.35,2.22A2.28,2.28,0,0,1,93,129l1.42-.2c0.06,0.88.41,1.31,0.89,1.31a0.76,0.76,0,0,0,.86-0.79c0-1.72-3-2.17-3-4.65a2,2,0,0,1,2.3-2.16,2.08,2.08,0,0,1,2.06,2.1Z"/><path class="cls-2" d="M101.38,131.26V122.6h1.49v3.53h1.58V122.6h1.49v8.66h-1.49v-3.84h-1.58v3.84h-1.49Z"/><path class="cls-2" d="M107.58,131.26V122.6h1.49v8.66h-1.49Z"/><path class="cls-2" d="M113.42,124.73a0.85,0.85,0,0,0-.79-1,0.73,0.73,0,0,0-.74.85c0,1.48,3,2.18,3,4.53a2.12,2.12,0,0,1-2.35,2.22,2.28,2.28,0,0,1-2.23-2.4l1.42-.2c0.06,0.88.41,1.31,0.89,1.31a0.76,0.76,0,0,0,.86-0.79c0-1.72-3-2.17-3-4.65a2,2,0,0,1,2.3-2.16,2.08,2.08,0,0,1,2.06,2.1Z"/><path class="cls-2" d="M116.9,123.89h-1.44v-1.3h4.37v1.3h-1.44v7.36H116.9v-7.36Z"/><path class="cls-2" d="M120.71,124.7a2.28,2.28,0,0,1,4.56,0v4.46a2.28,2.28,0,0,1-4.56,0V124.7Zm1.49,4.43c0,0.65.19,1,.79,1s0.79-.31.79-1v-4.39c0-.65-0.19-1-0.79-1s-0.79.31-.79,1v4.39Z"/><path class="cls-2" d="M128.19,131.26h-1.49V122.6h2.09c1.67,0,2.52.71,2.52,2.55,0,1.39-.54,2-1,2.18l1.26,3.92H130L129,127.67a7.17,7.17,0,0,1-.77,0v3.55Zm0-4.77h0.53c0.8,0,1.1-.3,1.1-1.33s-0.3-1.33-1.1-1.33h-0.53v2.66Z"/><path class="cls-2" d="M135.18,131.26h-1.49v-3.6l-1.8-5.06h1.51l1,3.3h0l1-3.3H137l-1.8,5.06v3.6Z"/><path class="cls-2" d="M55.82,80.43a1.5,1.5,0,0,1-1.15-.53l-3.54-4.19a1.5,1.5,0,1,1,2.29-1.94L57,78A1.5,1.5,0,0,1,55.82,80.43Z"/><circle class="cls-1" cx="50.14" cy="72.22" r="3.64" transform="translate(-5.74 4.34) rotate(-4.69)"/><path class="cls-2" d="M50.13,76.86a4.65,4.65,0,1,1,4.64-5h0a4.64,4.64,0,0,1-4.25,5Zm0-7.29H49.92a2.65,2.65,0,0,0-2.42,2.85,2.65,2.65,0,0,0,2.85,2.42A2.65,2.65,0,0,0,52.77,72h0A2.65,2.65,0,0,0,50.14,69.57Z"/></svg>