<svg id="Layer_1" data-name="Layer 1" xmlns="http://www.w3.org/2000/svg" xmlns:xlink="http://www.w3.org/1999/xlink" viewBox="0 0 200 200"><defs><style>.cls-1{fill:#2c3e50;}.cls-2{clip-path:url(#clip-path);}.cls-3{fill:#fff;}</style><clipPath id="clip-path"><path id="_Clipping_Path_" data-name="&lt;Clipping Path&gt;" class="cls-1" d="M48.7,84.78C47.07,79.09,42.51,75,37.13,75s-9.91,4.06-11.55,9.72C25.16,86.18,49.11,86.22,48.7,84.78Z"/></clipPath></defs><title>dont_buy_stolen</title><path class="cls-1" d="M74.82,94h11l2.42-4.86h3.89L89.74,94h4.58v4H87.73l-1.87,3.72h8.45v4H83.84l-2.57,5.17H77.39L80,105.74H74.82v-4H82L83.84,98h-9V94Z"/><path class="cls-1" d="M107.6,119.84a10.14,10.14,0,1,0,16.56-7.79c2.41-3.75,4.81-8.09,5.47-11.34,0.75-3.74,5.52-22.39,25.13-22.47h0.07v1.25a25.2,25.2,0,1,0,1.83,0V70.92a0.92,0.92,0,0,0-.92-0.92H150a0.91,0.91,0,0,0-.86.62,3.57,3.57,0,0,0,.18,3,2.19,2.19,0,0,0,1.9.88,0.92,0.92,0,0,0,0-1.83,0.59,0.59,0,0,1-.41-0.11,1.2,1.2,0,0,1-.08-0.7h4.1v4.59h-0.08a25.66,25.66,0,0,0-14.23,4V78.07a10.93,10.93,0,0,1,2.84-.89,14.34,14.34,0,0,0,2.93-.26c0.21-.16.16-1.62-3.19-1.41s-3.08,0-6.75,0c-0.53,0-3,1.93.47,2.09a6.39,6.39,0,0,1,2,.46h-0.11v3.69c-7.84,6.21-10.32,15.94-10.86,18.61-0.6,3-2.88,7.06-5.19,10.66a10,10,0,0,0-4.9-1.32A10.15,10.15,0,0,0,107.6,119.84Zm49.07-17.29h0a2.19,2.19,0,0,1,.68.37h0a2.33,2.33,0,0,1,.77,1,2.39,2.39,0,0,1,.17.87,2.33,2.33,0,0,1-4.53.78,2,2,0,0,1-.16-0.78,2.16,2.16,0,0,1,.16-0.78,2.44,2.44,0,0,1,.13-0.28,2.32,2.32,0,0,1,.22-0.33,2.35,2.35,0,0,1,.71-0.62h0A2,2,0,0,1,156.67,102.56Zm-1.83-20v18.85a3.52,3.52,0,0,0-1.59,5.66L151,109.27h-4.31a0.61,0.61,0,1,0,0,1.22h4.56a0.6,0.6,0,0,0,.43-0.18l2.48-2.48a3.51,3.51,0,0,0,1.77.49A3.54,3.54,0,0,0,159,103l2.3-2.3h4.27a0.61,0.61,0,0,0,0-1.22h-4.54a0.58,0.58,0,0,0-.47.27l-0.06,0L158.24,102a3.53,3.53,0,0,0-1.57-.78V82.52A22.28,22.28,0,1,1,154.84,82.54ZM110,119.84a7.74,7.74,0,0,1,7.73-7.73,7.63,7.63,0,0,1,3.57.92c-1.09,1.62-2.1,3-2.87,4.06a2.57,2.57,0,0,0-.75-0.15,2.7,2.7,0,1,0,2.7,2.7,2.62,2.62,0,0,0-.47-1.44c0.79-1.06,1.81-2.47,2.92-4.12A7.71,7.71,0,1,1,110,119.84Zm9.15-.21a1.48,1.48,0,1,1-1.47-1.48A1.48,1.48,0,0,1,119.16,119.63Z"/><path class="cls-1" d="M42.43,107a16.93,16.93,0,0,1-.7-4.3c4.46-2.14,7.61-7.29,7.61-13.32,0-7.94-5.46-14.38-12.2-14.38s-12.2,6.44-12.2,14.38c0,6,3.15,11.18,7.61,13.32a16.93,16.93,0,0,1-.7,4.3c-1,2.41-13.1.28-13.1,5.29V125H55.53V112.29C55.53,107.28,43.43,109.41,42.43,107Z"/><path id="_Clipping_Path_2" data-name="&lt;Clipping Path&gt;" class="cls-1" d="M48.7,84.78C47.07,79.09,42.51,75,37.13,75s-9.91,4.06-11.55,9.72C25.16,86.18,49.11,86.22,48.7,84.78Z"/><g class="cls-2"><path class="cls-1" d="M37.14,81.06c-3.95,0-11.54,2.37-11.53,3.95s3.28,2.8,3.28,2.8H45.4s3.27-1.22,3.28-2.8S41.24,81.06,37.14,81.06Z"/></g><path class="cls-3" d="M48,86.12c-0.17-.07-2.26,0-3.93,0s-5.43.73-7,.73-5.29-.73-7-0.73-3.76-.07-3.93,0a3.92,3.92,0,0,0-1.37.23A12.09,12.09,0,0,0,26,89.15a8.91,8.91,0,0,0,2,2.46c0.6,0.37,6.79,2.23,7.29,1.83s1-2.46,1.1-3.16a0.85,0.85,0,0,1,1.66,0c0.07,0.7.6,2.76,1.1,3.16s6.69-1.47,7.29-1.83a8.91,8.91,0,0,0,2-2.46,12.09,12.09,0,0,0,1.07-2.8A3.92,3.92,0,0,0,48,86.12Z"/></svg>