<svg id="Layer_1" data-name="Layer 1" xmlns="http://www.w3.org/2000/svg" viewBox="0 0 200 200"><defs><style>.cls-1{fill:#e64c3c;}.cls-2{fill:#2c3e50;}</style></defs><title>dont_buy_stolen</title><path class="cls-1" d="M43.33,84.93h0.22a0.46,0.46,0,0,0,.55-0.51V79.63h1.05v4.91c0,0.78-.31,1.31-1.48,1.31H43.33V84.93Z"/><path class="cls-1" d="M46.62,85.77h-1l1.13-6.14H48l1.13,6.14h-1L48,84.41H46.81ZM47,83.49h0.85l-0.42-2.63h0Z"/><path class="cls-1" d="M49.61,85.77V79.63h1l1.28,3.51h0V79.63h1v6.14H51.92l-1.34-3.83h0v3.83h-1Z"/><path class="cls-1" d="M53.62,83.4v-1h1v1h-1Zm0,2.36v-1h1v1h-1Z"/><path class="cls-2" d="M59.59,85.77V79.63h1.05v5.22H62.3v0.92H59.59Z"/><path class="cls-2" d="M65.64,83.66h-2v0.66c0,0.53.19,0.75,0.53,0.75s0.53-.22.53-0.75v-0.1h1a1.4,1.4,0,0,1-1.48,1.63,1.42,1.42,0,0,1-1.48-1.7V82.81a1.49,1.49,0,1,1,3,0v0.85Zm-1-.78V82.64c0-.53-0.19-0.75-0.53-0.75s-0.53.22-.53,0.75v0.24h1.05Z"/><path class="cls-2" d="M66.23,82.54a1.4,1.4,0,0,1,1.53-1.43,1.18,1.18,0,0,1,1.39,1.24v2.93a3.29,3.29,0,0,0,.06.48H68.3c0-.13,0-0.25-0.05-0.36a1.62,1.62,0,0,1-1.11.44,0.93,0.93,0,0,1-1-1c0-1,.66-1.56,2-2.07V82.48a0.48,0.48,0,0,0-.47-0.59c-0.43,0-.53.25-0.54,0.65h-1Zm2,0.91c-0.87.49-1.08,0.81-1.08,1.21a0.37,0.37,0,0,0,.44.42,0.84,0.84,0,0,0,.64-0.43v-1.2Z"/><path class="cls-2" d="M71.73,81.19h1l-1.1,4.57H70.67l-1.1-4.57h1l0.59,3.06h0Z"/><path class="cls-2" d="M73.08,80.5V79.63h1V80.5h-1Zm0,5.27V81.19h1v4.57h-1Z"/><path class="cls-2" d="M74.79,85.77V81.19h0.9v0.46a1.53,1.53,0,0,1,1.16-.54,0.82,0.82,0,0,1,.8,1v3.7h-1V82.22a0.3,0.3,0,0,0-.34-0.33,1.11,1.11,0,0,0-.61.29v3.59h-1Z"/><path class="cls-2" d="M81.56,81.9H81.4a0.69,0.69,0,0,0-.46.14,2.92,2.92,0,0,1,.1.72c0,1.39-.48,1.84-1.44,1.84H79.29a0.23,0.23,0,0,0-.19.21c0,0.62,2.45-.3,2.45,1.32,0,0.78-.73,1.09-2,1.09-1,0-1.51-.25-1.51-0.73a0.77,0.77,0,0,1,.62-0.71v0a0.6,0.6,0,0,1-.43-0.58,1,1,0,0,1,.58-0.74c-0.48-.33-0.61-0.57-0.61-1.64,0-1.26.41-1.68,1.48-1.68a1.31,1.31,0,0,1,1.05.49,0.8,0.8,0,0,1,.78-0.49V81.9ZM80.7,86.19c0-.24-0.17-0.34-0.81-0.34s-0.81.1-.81,0.34,0.17,0.34.81,0.34S80.7,86.43,80.7,86.19Zm-0.61-3.34c0-.77-0.1-1-0.48-1s-0.48.19-.48,1,0.17,1,.48,1S80.09,83.63,80.09,82.85Z"/><path class="cls-2" d="M84.38,80.55h-1V79.63h3.09v0.92h-1v5.22H84.38V80.55Z"/><path class="cls-2" d="M86.49,82.81a1.49,1.49,0,1,1,3,0v1.34a1.49,1.49,0,1,1-3,0V82.81Zm2-.17c0-.53-0.19-0.75-0.53-0.75s-0.53.22-.53,0.75v1.68c0,0.53.19,0.75,0.53,0.75s0.53-.22.53-0.75V82.64Z"/><path class="cls-2" d="M91.69,81.2h0.71l0.51,2.85h0l0.52-2.86h0.92L93.3,85.77H92.54L92,82.88h0l-0.62,2.89H90.62l-0.88-4.57h0.92l0.42,2.86h0Z"/><path class="cls-2" d="M94.7,85.77V81.19h0.9v0.46a1.53,1.53,0,0,1,1.16-.54,0.82,0.82,0,0,1,.8,1v3.7h-1V82.22a0.3,0.3,0,0,0-.34-0.33,1.11,1.11,0,0,0-.61.29v3.59h-1Z"/><path class="cls-2" d="M100.68,85.77h-1l1.13-6.14h1.31l1.13,6.14h-1L102,84.41h-1.16ZM101,83.49h0.85l-0.42-2.63h0Z"/><path class="cls-2" d="M105.59,81.14a0.6,0.6,0,0,0-.56-0.68,0.52,0.52,0,0,0-.53.6c0,1,2.14,1.55,2.14,3.21A1.5,1.5,0,0,1,105,85.85a1.62,1.62,0,0,1-1.58-1.7l1-.14c0,0.62.29,0.93,0.63,0.93a0.54,0.54,0,0,0,.61-0.56c0-1.22-2.14-1.54-2.14-3.3a1.44,1.44,0,0,1,1.63-1.53A1.47,1.47,0,0,1,106.59,81Z"/><path class="cls-2" d="M107.88,85.77h-1L108,79.63h1.31l1.13,6.14h-1l-0.19-1.36h-1.16Zm0.34-2.28h0.85l-0.42-2.63h0Z"/><path class="cls-2" d="M110.88,85.77V79.63h1.51c1.3,0,1.9.5,1.9,1.81s-0.6,1.81-1.9,1.81h-0.46v2.52h-1.05Zm1.05-3.38h0.41c0.69,0,.9-0.21.9-0.94s-0.21-.94-0.9-0.94h-0.41v1.89Z"/><path class="cls-2" d="M114.79,85.77l-0.59,1.05h-0.45l0.42-1.05h-0.38v-1h1v1Z"/><path class="cls-2" d="M121.52,79.63v6.14H120.6V81h0l-1,4.79h-0.51l-1-4.79h0v4.79h-0.92V79.63h1.39l0.75,3.59h0l0.75-3.59h1.39Z"/><path class="cls-2" d="M125.12,81.19v4.57h-0.9V85.31a1.53,1.53,0,0,1-1.16.54,0.82,0.82,0,0,1-.8-1v-3.7h1v3.54a0.3,0.3,0,0,0,.34.33,1.11,1.11,0,0,0,.61-0.29V81.19h1Z"/><path class="cls-2" d="M127.6,82.46a0.56,0.56,0,0,0-.54-0.57,0.36,0.36,0,0,0-.42.37c0,0.71,1.79,1,1.79,2.36a1.19,1.19,0,0,1-1.33,1.23,1.38,1.38,0,0,1-1.45-1.27l0.83-.23a0.67,0.67,0,0,0,.63.72,0.39,0.39,0,0,0,.42-0.4c0-.79-1.79-1.09-1.79-2.34A1.22,1.22,0,0,1,127,81.11a1.39,1.39,0,0,1,1.39,1.22Z"/><path class="cls-2" d="M128.63,82V81.19h0.53V80h1v1.23h0.64V82h-0.64v2.63a0.31,0.31,0,0,0,.32.37h0.31V85.8a1.65,1.65,0,0,1-.48.05,1,1,0,0,1-1.11-1V82h-0.53Z"/><path class="cls-2" d="M134.89,81.14a0.6,0.6,0,0,0-.56-0.68,0.52,0.52,0,0,0-.53.6c0,1,2.14,1.55,2.14,3.21a1.5,1.5,0,0,1-1.67,1.57,1.62,1.62,0,0,1-1.58-1.7l1-.14c0,0.62.29,0.93,0.63,0.93a0.54,0.54,0,0,0,.61-0.56c0-1.22-2.14-1.54-2.14-3.3a1.44,1.44,0,0,1,1.63-1.53A1.47,1.47,0,0,1,135.89,81Z"/><path class="cls-2" d="M139.43,83.66h-2v0.66c0,0.53.19,0.75,0.53,0.75s0.53-.22.53-0.75v-0.1h1a1.4,1.4,0,0,1-1.48,1.63,1.42,1.42,0,0,1-1.48-1.7V82.81a1.49,1.49,0,1,1,3,0v0.85Zm-1-.78V82.64c0-.53-0.19-0.75-0.53-0.75s-0.53.22-.53,0.75v0.24h1.05Z"/><path class="cls-2" d="M140.13,85.77V79.63h1v6.14h-1Z"/><path class="cls-2" d="M141.85,85.77V79.63h1v6.14h-1Z"/><path class="cls-1" d="M43.81,96.89V90.75h2.94v0.92H44.87v1.58h1.41v0.92H44.87v2.72H43.81Z"/><path class="cls-1" d="M47.42,96.89V90.75h2.82v0.92H48.47v1.58h1.36v0.92H48.47V96h1.89v0.92H47.42Z"/><path class="cls-1" d="M51,90.75h1.56a1.44,1.44,0,0,1,1.63,1.62,1.32,1.32,0,0,1-.73,1.28,1.4,1.4,0,0,1,.85,1.45,1.54,1.54,0,0,1-1.65,1.78H51V90.75Zm1.05,2.52h0.38a0.84,0.84,0,0,0,0-1.65h-0.4v1.65Zm0,2.75h0.44c0.56,0,.76-0.32.76-0.94a0.78,0.78,0,0,0-.87-0.94H52.08V96Z"/><path class="cls-1" d="M55,94.53v-1h1v1H55Zm0,2.36v-1h1v1H55Z"/><path class="cls-2" d="M59.64,90.75h1.56a1.44,1.44,0,0,1,1.63,1.62,1.32,1.32,0,0,1-.73,1.28A1.4,1.4,0,0,1,63,95.11a1.54,1.54,0,0,1-1.65,1.78H59.64V90.75Zm1.05,2.52h0.38a0.84,0.84,0,0,0,0-1.65H60.7v1.65Zm0,2.75h0.44c0.56,0,.76-0.32.76-0.94A0.78,0.78,0,0,0,61,94.13H60.7V96Z"/><path class="cls-2" d="M63.67,96.89V92.32h0.91v0.54h0a1.23,1.23,0,0,1,1.08-.62h0.2v1a2.15,2.15,0,0,0-.61-0.09,0.6,0.6,0,0,0-.64.61v3.14h-1Z"/><path class="cls-2" d="M66.28,93.93a1.49,1.49,0,1,1,3,0v1.34a1.49,1.49,0,1,1-3,0V93.93Zm2-.17c0-.53-0.19-0.75-0.53-0.75s-0.53.22-.53,0.75v1.68c0,0.53.19,0.75,0.53,0.75s0.53-.22.53-0.75V93.76Z"/><path class="cls-2" d="M72,93.76l1.1,3.13h-1l-0.77-2.27h0l-0.45.67v1.6h-1V90.75h1v3.18h0l1-1.62h1Z"/><path class="cls-2" d="M76.45,94.78h-2v0.66c0,0.53.19,0.75,0.53,0.75s0.53-.22.53-0.75v-0.1h1A1.4,1.4,0,0,1,75,97a1.42,1.42,0,0,1-1.48-1.7V93.93a1.49,1.49,0,1,1,3,0v0.85Zm-1-.78V93.76c0-.53-0.19-0.75-0.53-0.75s-0.53.22-.53,0.75V94h1.05Z"/><path class="cls-2" d="M78.86,96.89V90.75h1.05V96h1.66v0.92H78.86Z"/><path class="cls-2" d="M84.9,94.78h-2v0.66c0,0.53.19,0.75,0.53,0.75S84,96,84,95.44v-0.1h1A1.4,1.4,0,0,1,83.42,97a1.42,1.42,0,0,1-1.48-1.7V93.93a1.49,1.49,0,1,1,3,0v0.85ZM84,94V93.76c0-.53-0.19-0.75-0.53-0.75s-0.53.22-.53,0.75V94H84Z"/><path class="cls-2" d="M88.76,93H88.61a0.69,0.69,0,0,0-.46.14,2.92,2.92,0,0,1,.1.72c0,1.39-.48,1.84-1.44,1.84H86.5a0.23,0.23,0,0,0-.19.21c0,0.62,2.45-.3,2.45,1.32,0,0.78-.73,1.09-2,1.09-1,0-1.51-.25-1.51-0.73a0.77,0.77,0,0,1,.62-0.71v0a0.6,0.6,0,0,1-.43-0.58,1,1,0,0,1,.58-0.74c-0.48-.33-0.61-0.57-0.61-1.64,0-1.26.41-1.68,1.48-1.68a1.31,1.31,0,0,1,1.05.49,0.8,0.8,0,0,1,.78-0.49V93Zm-0.85,4.29c0-.24-0.17-0.34-0.81-0.34s-0.81.1-.81,0.34,0.17,0.34.81,0.34S87.91,97.55,87.91,97.31ZM87.3,94c0-.77-0.1-1-0.48-1s-0.48.19-.48,1,0.17,1,.48,1S87.3,94.75,87.3,94Z"/><path class="cls-2" d="M90.94,93.58A0.56,0.56,0,0,0,90.39,93a0.36,0.36,0,0,0-.42.37c0,0.71,1.79,1,1.79,2.36A1.19,1.19,0,0,1,90.43,97,1.38,1.38,0,0,1,89,95.7l0.83-.23a0.67,0.67,0,0,0,.63.72,0.39,0.39,0,0,0,.42-0.4c0-.79-1.79-1.09-1.79-2.34a1.22,1.22,0,0,1,1.28-1.22,1.39,1.39,0,0,1,1.39,1.22Z"/><path class="cls-2" d="M92.32,96.89v-1h1v1h-1Z"/><path class="cls-2" d="M97.95,92.8V92.32a0.6,0.6,0,0,0-.51-0.74c-0.42,0-.56.22-0.56,0.68v3.11c0,0.46.14,0.68,0.56,0.68a0.49,0.49,0,0,0,.51-0.62V94.7H99V95.4A1.46,1.46,0,0,1,97.44,97a1.47,1.47,0,0,1-1.62-1.57V92.24a1.47,1.47,0,0,1,1.62-1.57A1.52,1.52,0,0,1,99,92.35V92.8H97.95Z"/><path class="cls-2" d="M99.75,93.66a1.4,1.4,0,0,1,1.53-1.43,1.18,1.18,0,0,1,1.39,1.24V96.4a3.29,3.29,0,0,0,.06.48h-0.91c0-.13,0-0.25-0.05-0.36a1.62,1.62,0,0,1-1.11.44,0.93,0.93,0,0,1-1-1c0-1,.66-1.56,2-2.07V93.6a0.48,0.48,0,0,0-.47-0.59c-0.43,0-.53.25-0.54,0.65h-1Zm2,0.91c-0.87.49-1.08,0.81-1.08,1.21a0.37,0.37,0,0,0,.44.42,0.84,0.84,0,0,0,.64-0.43v-1.2Z"/><path class="cls-2" d="M103.46,96.89V92.32h0.9v0.46a1.53,1.53,0,0,1,1.16-.54,0.82,0.82,0,0,1,.8,1v3.7h-1V93.34A0.3,0.3,0,0,0,105,93a1.11,1.11,0,0,0-.61.29v3.59h-1Z"/><path class="cls-2" d="M108,91.75l-0.59,1.05H107l0.42-1.05H107v-1h1v1Z"/><path class="cls-2" d="M108.4,93.1V92.32h0.53V91.08h1v1.23h0.64V93.1h-0.64v2.63a0.31,0.31,0,0,0,.32.37h0.31v0.82A1.65,1.65,0,0,1,110,97a1,1,0,0,1-1.11-1V93.1H108.4Z"/><path class="cls-2" d="M113.79,96.89h-1.05V90.75h1.48A1.55,1.55,0,0,1,116,92.56a1.49,1.49,0,0,1-.74,1.55l0.89,2.78h-1.07l-0.75-2.54a5.18,5.18,0,0,1-.54,0v2.52Zm0-3.38h0.37c0.57,0,.78-0.21.78-0.94s-0.21-.94-0.78-0.94h-0.37v1.89Z"/><path class="cls-2" d="M116.78,91.62V90.75h1v0.87h-1Zm0,5.27V92.32h1v4.57h-1Z"/><path class="cls-2" d="M120.44,96.89V96.41h0a1.13,1.13,0,0,1-1,.56,1,1,0,0,1-1-1.27V93.51a1,1,0,0,1,1-1.27,1.41,1.41,0,0,1,1,.48v-2h1v6.14h-0.9Zm-0.05-3.64a1,1,0,0,0-.54-0.24c-0.25,0-.46.14-0.46,0.74v1.7c0,0.6.2,0.74,0.46,0.74a1,1,0,0,0,.54-0.24v-2.7Z"/><path class="cls-2" d="M125,94.78h-2v0.66c0,0.53.19,0.75,0.53,0.75S124,96,124,95.44v-0.1h1A1.4,1.4,0,0,1,123.51,97a1.42,1.42,0,0,1-1.48-1.7V93.93a1.49,1.49,0,1,1,3,0v0.85ZM124,94V93.76c0-.53-0.19-0.75-0.53-0.75s-0.53.22-.53,0.75V94H124Z"/><path class="cls-2" d="M126.68,96.89l-0.59,1.05h-0.45l0.42-1.05h-0.38v-1h1v1Z"/><path class="cls-2" d="M133.4,90.75v6.14h-0.92V92.09h0l-1,4.79H131l-1-4.79h0v4.79h-0.92V90.75h1.39l0.75,3.59h0L132,90.75h1.39Z"/><path class="cls-2" d="M137,92.32v4.57h-0.9V96.43a1.53,1.53,0,0,1-1.16.54,0.82,0.82,0,0,1-.8-1v-3.7h1v3.54a0.3,0.3,0,0,0,.34.33,1.11,1.11,0,0,0,.61-0.29V92.32h1Z"/><path class="cls-2" d="M139.48,93.58a0.56,0.56,0,0,0-.54-0.57,0.36,0.36,0,0,0-.42.37c0,0.71,1.79,1,1.79,2.36A1.19,1.19,0,0,1,139,97a1.38,1.38,0,0,1-1.45-1.27l0.83-.23a0.67,0.67,0,0,0,.63.72,0.39,0.39,0,0,0,.42-0.4c0-.79-1.79-1.09-1.79-2.34a1.22,1.22,0,0,1,1.28-1.22,1.39,1.39,0,0,1,1.39,1.22Z"/><path class="cls-2" d="M140.51,93.1V92.32H141V91.08h1v1.23h0.64V93.1H142v2.63a0.31,0.31,0,0,0,.32.37h0.31v0.82a1.65,1.65,0,0,1-.48.05,1,1,0,0,1-1.11-1V93.1h-0.53Z"/><path class="cls-2" d="M146.77,92.26a0.6,0.6,0,0,0-.56-0.68,0.52,0.52,0,0,0-.53.6c0,1,2.14,1.55,2.14,3.21A1.5,1.5,0,0,1,146.16,97a1.62,1.62,0,0,1-1.58-1.7l1-.14c0,0.62.29,0.93,0.63,0.93a0.54,0.54,0,0,0,.61-0.56c0-1.22-2.14-1.54-2.14-3.3a1.44,1.44,0,0,1,1.63-1.53,1.47,1.47,0,0,1,1.46,1.49Z"/><path class="cls-2" d="M151.31,94.78h-2v0.66c0,0.53.19,0.75,0.53,0.75s0.53-.22.53-0.75v-0.1h1A1.4,1.4,0,0,1,149.83,97a1.42,1.42,0,0,1-1.48-1.7V93.93a1.49,1.49,0,1,1,3,0v0.85Zm-1-.78V93.76c0-.53-0.19-0.75-0.53-0.75s-0.53.22-.53,0.75V94h1.05Z"/><path class="cls-2" d="M152,96.89V90.75h1v6.14h-1Z"/><path class="cls-2" d="M153.73,96.89V90.75h1v6.14h-1Z"/><path class="cls-1" d="M48,101.87V108H47.12v-4.79h0l-1,4.79H45.64l-1-4.79h0V108H43.75v-6.14h1.39l0.75,3.59h0l0.75-3.59H48Z"/><path class="cls-1" d="M49.2,108h-1l1.13-6.14h1.31L51.74,108h-1l-0.19-1.36H49.38Zm0.34-2.28h0.85L50,103.1h0Z"/><path class="cls-1" d="M53,108H51.93v-6.14h1.48a1.55,1.55,0,0,1,1.78,1.81,1.49,1.49,0,0,1-.74,1.55L55.35,108H54.28l-0.75-2.54a5.18,5.18,0,0,1-.54,0V108Zm0-3.38h0.37c0.57,0,.78-0.21.78-0.94s-0.21-.94-0.78-0.94H53v1.89Z"/><path class="cls-1" d="M55.69,105.65v-1h1v1h-1Zm0,2.36v-1h1v1h-1Z"/><path class="cls-2" d="M59.22,108v-6.14h2.94v0.92H60.27v1.58h1.41v0.92H60.27V108H59.22Z"/><path class="cls-2" d="M62.53,102.74v-0.87h1v0.87h-1Zm0,5.27v-4.57h1V108h-1Z"/><path class="cls-2" d="M64,108v-4.57h0.9v0.46a1.53,1.53,0,0,1,1.16-.54,0.82,0.82,0,0,1,.8,1V108h-1v-3.54a0.3,0.3,0,0,0-.34-0.33,1.11,1.11,0,0,0-.61.29V108H64Z"/><path class="cls-2" d="M67.34,102.74v-0.87h1v0.87h-1Zm0,5.27v-4.57h1V108h-1Z"/><path class="cls-2" d="M70.52,104.7a0.56,0.56,0,0,0-.54-0.57,0.36,0.36,0,0,0-.42.37c0,0.71,1.79,1,1.79,2.36A1.19,1.19,0,0,1,70,108.09a1.38,1.38,0,0,1-1.45-1.27l0.83-.23a0.67,0.67,0,0,0,.63.72,0.39,0.39,0,0,0,.42-0.4c0-.79-1.79-1.09-1.79-2.34a1.22,1.22,0,0,1,1.28-1.22,1.39,1.39,0,0,1,1.39,1.22Z"/><path class="cls-2" d="M71.67,108v-6.14h1v2a1.42,1.42,0,0,1,1.1-.51,0.82,0.82,0,0,1,.8,1V108h-1v-3.54a0.3,0.3,0,0,0-.34-0.33,1.11,1.11,0,0,0-.61.29V108h-1Z"/><path class="cls-2" d="M77.93,105.9h-2v0.66c0,0.53.19,0.75,0.53,0.75s0.53-.22.53-0.75v-0.1h1a1.4,1.4,0,0,1-1.48,1.63,1.42,1.42,0,0,1-1.48-1.7v-1.34a1.49,1.49,0,1,1,3,0v0.85Zm-1-.78v-0.24c0-.53-0.19-0.75-0.53-0.75s-0.53.22-.53,0.75v0.24H77Z"/><path class="cls-2" d="M80.32,108v-0.48h0a1.13,1.13,0,0,1-1,.56,1,1,0,0,1-1-1.27v-2.19a1,1,0,0,1,1-1.27,1.41,1.41,0,0,1,1,.48v-2h1V108h-0.9Zm-0.05-3.64a1,1,0,0,0-.54-0.24c-0.25,0-.46.14-0.46,0.74v1.7c0,0.6.2,0.74,0.46,0.74a1,1,0,0,0,.54-0.24v-2.7Z"/><path class="cls-2" d="M84.69,106.53H82.86v-0.78l1.79-3.88h1v3.88h0.56v0.78H85.66V108h-1v-1.48Zm0-.78v-2.4h0l-1,2.4h1Z"/><path class="cls-2" d="M86.16,104.22v-0.78h0.53V102.2h1v1.23h0.64v0.78H87.63v2.63a0.31,0.31,0,0,0,.32.37h0.31V108a1.65,1.65,0,0,1-.48.05,1,1,0,0,1-1.11-1v-2.85H86.16Z"/><path class="cls-2" d="M88.47,108v-6.14h1v2a1.42,1.42,0,0,1,1.1-.51,0.82,0.82,0,0,1,.8,1V108h-1v-3.54a0.3,0.3,0,0,0-.34-0.33,1.11,1.11,0,0,0-.61.29V108h-1Z"/><path class="cls-2" d="M93.94,102.79h-1v-0.92H96v0.92H95V108H93.94v-5.22Z"/><path class="cls-2" d="M95.85,108v-4.57h0.91V104h0a1.23,1.23,0,0,1,1.08-.62H98v1a2.15,2.15,0,0,0-.61-0.09,0.6,0.6,0,0,0-.64.61V108h-1Z"/><path class="cls-2" d="M98.26,102.74v-0.87h1v0.87h-1Zm0,5.27v-4.57h1V108h-1Z"/><path class="cls-2" d="M99.61,104.78a1.4,1.4,0,0,1,1.53-1.43,1.18,1.18,0,0,1,1.39,1.24v2.93a3.29,3.29,0,0,0,.06.48h-0.91c0-.13,0-0.25-0.05-0.36a1.62,1.62,0,0,1-1.11.44,0.93,0.93,0,0,1-1-1c0-1,.66-1.56,2-2.07v-0.27a0.48,0.48,0,0,0-.47-0.59c-0.43,0-.53.25-0.54,0.65h-1Zm2,0.91c-0.87.49-1.08,0.81-1.08,1.21a0.37,0.37,0,0,0,.44.42,0.84,0.84,0,0,0,.64-0.43v-1.2Z"/><path class="cls-2" d="M102.69,104.22v-0.78h0.53V102.2h1v1.23h0.64v0.78h-0.64v2.63a0.31,0.31,0,0,0,.32.37h0.31V108a1.65,1.65,0,0,1-.48.05,1,1,0,0,1-1.11-1v-2.85h-0.53Z"/><path class="cls-2" d="M105,108v-6.14h1v2a1.42,1.42,0,0,1,1.1-.51,0.82,0.82,0,0,1,.8,1V108h-1v-3.54a0.3,0.3,0,0,0-.34-0.33,1.11,1.11,0,0,0-.61.29V108h-1Z"/><path class="cls-2" d="M108.36,108v-6.14h1V108h-1Z"/><path class="cls-2" d="M109.76,105.05a1.49,1.49,0,1,1,3,0v1.34a1.49,1.49,0,1,1-3,0v-1.34Zm2-.17c0-.53-0.19-0.75-0.53-0.75s-0.53.22-.53,0.75v1.68c0,0.53.19,0.75,0.53,0.75s0.53-.22.53-0.75v-1.68Z"/><path class="cls-2" d="M113.16,108v-4.57h0.9v0.46a1.53,1.53,0,0,1,1.16-.54,0.82,0.82,0,0,1,.8,1V108h-1v-3.54a0.3,0.3,0,0,0-.34-0.33,1.11,1.11,0,0,0-.61.29V108h-1Z"/><path class="cls-2" d="M115.49,108l-0.59,1.05h-0.45l0.42-1.05h-0.38v-1h1v1Z"/><path class="cls-2" d="M123.71,101.87V108h-0.92v-4.79h0l-1,4.79h-0.51l-1-4.79h0V108h-0.92v-6.14h1.39l0.75,3.59h0l0.75-3.59h1.39Z"/><path class="cls-2" d="M127.06,103.44V108h-0.9v-0.46a1.53,1.53,0,0,1-1.16.54,0.82,0.82,0,0,1-.8-1v-3.7h1V107a0.3,0.3,0,0,0,.34.33,1.11,1.11,0,0,0,.61-0.29v-3.59h1Z"/><path class="cls-2" d="M129.28,104.7a0.56,0.56,0,0,0-.54-0.57,0.36,0.36,0,0,0-.42.37c0,0.71,1.79,1,1.79,2.36a1.19,1.19,0,0,1-1.33,1.23,1.38,1.38,0,0,1-1.45-1.27l0.83-.23a0.67,0.67,0,0,0,.63.72,0.39,0.39,0,0,0,.42-0.4c0-.79-1.79-1.09-1.79-2.34a1.22,1.22,0,0,1,1.28-1.22,1.39,1.39,0,0,1,1.39,1.22Z"/><path class="cls-2" d="M130.06,104.22v-0.78h0.53V102.2h1v1.23h0.64v0.78h-0.64v2.63a0.31,0.31,0,0,0,.32.37h0.31V108a1.65,1.65,0,0,1-.48.05,1,1,0,0,1-1.11-1v-2.85h-0.53Z"/><path class="cls-2" d="M135.8,103.39a0.6,0.6,0,0,0-.56-0.68,0.52,0.52,0,0,0-.53.6c0,1,2.14,1.55,2.14,3.21a1.5,1.5,0,0,1-1.67,1.57,1.62,1.62,0,0,1-1.58-1.7l1-.14c0,0.62.29,0.93,0.63,0.93a0.54,0.54,0,0,0,.61-0.56c0-1.22-2.14-1.54-2.14-3.3a1.44,1.44,0,0,1,1.63-1.53,1.47,1.47,0,0,1,1.46,1.49Z"/><path class="cls-2" d="M140.09,105.9h-2v0.66c0,0.53.19,0.75,0.53,0.75s0.53-.22.53-0.75v-0.1h1a1.4,1.4,0,0,1-1.48,1.63,1.42,1.42,0,0,1-1.48-1.7v-1.34a1.49,1.49,0,1,1,3,0v0.85Zm-1-.78v-0.24c0-.53-0.19-0.75-0.53-0.75s-0.53.22-.53,0.75v0.24h1.05Z"/><path class="cls-2" d="M140.54,108v-6.14h1V108h-1Z"/><path class="cls-2" d="M142,108v-6.14h1V108h-1Z"/><path class="cls-2" d="M145,101.87h1.56a1.44,1.44,0,0,1,1.63,1.62,1.32,1.32,0,0,1-.73,1.28,1.4,1.4,0,0,1,.85,1.45,1.54,1.54,0,0,1-1.65,1.78H145v-6.14Zm1.05,2.52h0.38a0.84,0.84,0,0,0,0-1.65H146v1.65Zm0,2.75h0.44c0.56,0,.76-0.32.76-0.94a0.78,0.78,0,0,0-.87-0.94H146v1.89Z"/><path class="cls-2" d="M148.75,102.74v-0.87h1v0.87h-1Zm0,5.27v-4.57h1V108h-1Z"/><path class="cls-2" d="M152.24,104.88l1.1,3.13h-1l-0.77-2.27h0l-0.45.67V108h-1v-6.14h1v3.18h0l1-1.62h1Z"/><path class="cls-2" d="M156.46,105.9h-2v0.66c0,0.53.19,0.75,0.53,0.75s0.53-.22.53-0.75v-0.1h1a1.4,1.4,0,0,1-1.48,1.63,1.42,1.42,0,0,1-1.48-1.7v-1.34a1.49,1.49,0,1,1,3,0v0.85Zm-1-.78v-0.24c0-.53-0.19-0.75-0.53-0.75s-0.53.22-.53,0.75v0.24h1.05Z"/><path class="cls-1" d="M44.43,119.13h-1L44.54,113h1.31L47,119.13H46l-0.19-1.36H44.61Zm0.34-2.28h0.85l-0.42-2.63h0Z"/><path class="cls-1" d="M47.42,119.13V113h1.51c1.3,0,1.9.5,1.9,1.81s-0.6,1.81-1.9,1.81H48.47v2.52H47.42Zm1.05-3.38h0.41c0.69,0,.9-0.21.9-0.94s-0.21-.94-0.9-0.94H48.47v1.89Z"/><path class="cls-1" d="M52.55,119.13H51.5V113H53a1.55,1.55,0,0,1,1.78,1.81,1.49,1.49,0,0,1-.74,1.55l0.89,2.78H53.84l-0.75-2.54a5.18,5.18,0,0,1-.54,0v2.52Zm0-3.38h0.37c0.57,0,.78-0.21.78-0.94s-0.21-.94-0.78-0.94H52.55v1.89Z"/><path class="cls-1" d="M55.51,116.77v-1h1v1h-1Zm0,2.36v-1h1v1h-1Z"/><path class="cls-2" d="M59.59,119.13V113h1.05v5.22H62.3v0.92H59.59Z"/><path class="cls-2" d="M65.64,117h-2v0.66c0,0.53.19,0.75,0.53,0.75s0.53-.22.53-0.75v-0.1h1a1.4,1.4,0,0,1-1.48,1.63,1.42,1.42,0,0,1-1.48-1.7v-1.34a1.49,1.49,0,1,1,3,0V117Zm-1-.78V116c0-.53-0.19-0.75-0.53-0.75s-0.53.22-.53,0.75v0.24h1.05Z"/><path class="cls-2" d="M66.23,115.9a1.4,1.4,0,0,1,1.53-1.43,1.18,1.18,0,0,1,1.39,1.24v2.93a3.29,3.29,0,0,0,.06.48H68.3c0-.13,0-0.25-0.05-0.36a1.62,1.62,0,0,1-1.11.44,0.93,0.93,0,0,1-1-1c0-1,.66-1.56,2-2.07v-0.27a0.48,0.48,0,0,0-.47-0.59c-0.43,0-.53.25-0.54,0.65h-1Zm2,0.91c-0.87.49-1.08,0.81-1.08,1.21a0.37,0.37,0,0,0,.44.42,0.84,0.84,0,0,0,.64-0.43v-1.2Z"/><path class="cls-2" d="M71.73,114.56h1l-1.1,4.57H70.67l-1.1-4.57h1l0.59,3.06h0Z"/><path class="cls-2" d="M73.08,113.86V113h1v0.87h-1Zm0,5.27v-4.57h1v4.57h-1Z"/><path class="cls-2" d="M74.79,119.13v-4.57h0.9V115a1.53,1.53,0,0,1,1.16-.54,0.82,0.82,0,0,1,.8,1v3.7h-1v-3.54a0.3,0.3,0,0,0-.34-0.33,1.11,1.11,0,0,0-.61.29v3.59h-1Z"/><path class="cls-2" d="M81.56,115.26H81.4a0.69,0.69,0,0,0-.46.14,2.92,2.92,0,0,1,.1.72c0,1.39-.48,1.84-1.44,1.84H79.29a0.23,0.23,0,0,0-.19.21c0,0.62,2.45-.3,2.45,1.32,0,0.78-.73,1.09-2,1.09-1,0-1.51-.25-1.51-0.73a0.77,0.77,0,0,1,.62-0.71v0a0.6,0.6,0,0,1-.43-0.58,1,1,0,0,1,.58-0.74c-0.48-.33-0.61-0.57-0.61-1.64,0-1.26.41-1.68,1.48-1.68a1.31,1.31,0,0,1,1.05.49,0.8,0.8,0,0,1,.78-0.49v0.79Zm-0.85,4.29c0-.24-0.17-0.34-0.81-0.34s-0.81.1-.81,0.34,0.17,0.34.81,0.34S80.7,119.79,80.7,119.55Zm-0.61-3.34c0-.77-0.1-1-0.48-1s-0.48.19-.48,1,0.17,1,.48,1S80.09,117,80.09,116.21Z"/><path class="cls-2" d="M84.38,113.91h-1V113h3.09v0.92h-1v5.22H84.38v-5.22Z"/><path class="cls-2" d="M86.49,116.17a1.49,1.49,0,1,1,3,0v1.34a1.49,1.49,0,1,1-3,0v-1.34Zm2-.17c0-.53-0.19-0.75-0.53-0.75s-0.53.22-.53,0.75v1.68c0,0.53.19,0.75,0.53,0.75s0.53-.22.53-0.75V116Z"/><path class="cls-2" d="M91.69,114.57h0.71l0.51,2.85h0l0.52-2.86h0.92l-1.05,4.57H92.54L92,116.24h0l-0.62,2.89H90.62l-0.88-4.57h0.92l0.42,2.86h0Z"/><path class="cls-2" d="M94.69,119.13v-4.57h0.9V115a1.53,1.53,0,0,1,1.16-.54,0.82,0.82,0,0,1,.8,1v3.7h-1v-3.54a0.3,0.3,0,0,0-.34-0.33,1.11,1.11,0,0,0-.61.29v3.59h-1Z"/><path class="cls-2" d="M100.68,119.13h-1l1.13-6.14h1.31l1.13,6.14h-1L102,117.77h-1.16Zm0.34-2.28h0.85l-0.42-2.63h0Z"/><path class="cls-2" d="M105.59,114.51a0.6,0.6,0,0,0-.56-0.68,0.52,0.52,0,0,0-.53.6c0,1,2.14,1.55,2.14,3.21a1.5,1.5,0,0,1-1.67,1.57,1.62,1.62,0,0,1-1.58-1.7l1-.14c0,0.62.29,0.93,0.63,0.93a0.54,0.54,0,0,0,.61-0.56c0-1.22-2.14-1.54-2.14-3.3a1.44,1.44,0,0,1,1.63-1.53,1.47,1.47,0,0,1,1.46,1.49Z"/><path class="cls-2" d="M107.88,119.13h-1L108,113h1.31l1.13,6.14h-1l-0.19-1.36h-1.16Zm0.34-2.28h0.85l-0.42-2.63h0Z"/><path class="cls-2" d="M110.88,119.13V113h1.51c1.3,0,1.9.5,1.9,1.81s-0.6,1.81-1.9,1.81h-0.46v2.52h-1.05Zm1.05-3.38h0.41c0.69,0,.9-0.21.9-0.94s-0.21-.94-0.9-0.94h-0.41v1.89Z"/><path class="cls-2" d="M114.79,119.13l-0.59,1.05h-0.45l0.42-1.05h-0.38v-1h1v1Z"/><path class="cls-2" d="M121.52,113v6.14H120.6v-4.79h0l-1,4.79h-0.51l-1-4.79h0v4.79h-0.92V113h1.39l0.75,3.59h0l0.75-3.59h1.39Z"/><path class="cls-2" d="M125.12,114.56v4.57h-0.9v-0.46a1.53,1.53,0,0,1-1.16.54,0.82,0.82,0,0,1-.8-1v-3.7h1v3.54a0.3,0.3,0,0,0,.34.33,1.11,1.11,0,0,0,.61-0.29v-3.59h1Z"/><path class="cls-2" d="M127.6,115.82a0.56,0.56,0,0,0-.54-0.57,0.36,0.36,0,0,0-.42.37c0,0.71,1.79,1,1.79,2.36a1.19,1.19,0,0,1-1.33,1.23,1.38,1.38,0,0,1-1.45-1.27l0.83-.23a0.67,0.67,0,0,0,.63.72,0.39,0.39,0,0,0,.42-0.4c0-.79-1.79-1.09-1.79-2.34a1.22,1.22,0,0,1,1.28-1.22,1.39,1.39,0,0,1,1.39,1.22Z"/><path class="cls-2" d="M128.63,115.34v-0.78h0.53v-1.23h1v1.23h0.64v0.78h-0.64V118a0.31,0.31,0,0,0,.32.37h0.31v0.82a1.65,1.65,0,0,1-.48.05,1,1,0,0,1-1.11-1v-2.85h-0.53Z"/><path class="cls-2" d="M134.89,114.51a0.6,0.6,0,0,0-.56-0.68,0.52,0.52,0,0,0-.53.6c0,1,2.14,1.55,2.14,3.21a1.5,1.5,0,0,1-1.67,1.57,1.62,1.62,0,0,1-1.58-1.7l1-.14c0,0.62.29,0.93,0.63,0.93a0.54,0.54,0,0,0,.61-0.56c0-1.22-2.14-1.54-2.14-3.3a1.44,1.44,0,0,1,1.63-1.53,1.47,1.47,0,0,1,1.46,1.49Z"/><path class="cls-2" d="M139.42,117h-2v0.66c0,0.53.19,0.75,0.53,0.75s0.53-.22.53-0.75v-0.1h1a1.4,1.4,0,0,1-1.48,1.63,1.42,1.42,0,0,1-1.48-1.7v-1.34a1.49,1.49,0,1,1,3,0V117Zm-1-.78V116c0-.53-0.19-0.75-0.53-0.75s-0.53.22-.53,0.75v0.24h1.05Z"/><path class="cls-2" d="M140.13,119.13V113h1v6.14h-1Z"/><path class="cls-2" d="M141.85,119.13V113h1v6.14h-1Z"/><path class="cls-2" d="M158.66,65H41.34A7.39,7.39,0,0,0,34,72.38v55.24A7.39,7.39,0,0,0,41.34,135H158.66a7.39,7.39,0,0,0,7.38-7.38V72.38A7.39,7.39,0,0,0,158.66,65Zm3.42,62.62a3.43,3.43,0,0,1-3.42,3.42H41.34a3.43,3.43,0,0,1-3.42-3.42V72.38A3.43,3.43,0,0,1,41.34,69H158.66a3.43,3.43,0,0,1,3.42,3.42v55.24Z"/><rect class="cls-2" x="36.95" y="67.95" width="126.1" height="5.6"/><rect class="cls-2" x="36.95" y="126.45" width="126.1" height="5.6"/></svg>