<svg id="Layer_1" data-name="Layer 1" xmlns="http://www.w3.org/2000/svg" viewBox="0 0 200 200"><defs><style>.cls-1{fill:#fff;stroke:#2c3e50;stroke-miterlimit:10;stroke-width:2px;}.cls-2{fill:#2c3e50;}.cls-3{fill:#e64c3c;}.cls-4{fill:#3c97d3;fill-rule:evenodd;}</style></defs><title>dont_buy_stolen</title><rect class="cls-1" x="7.32" y="70.18" width="185.35" height="20.41"/><path class="cls-2" d="M32,85.21V75H33.6v3.31a2.37,2.37,0,0,1,1.84-.85,1.36,1.36,0,0,1,1.33,1.6v6.15H35.19v-5.9a0.5,0.5,0,0,0-.57-0.55,1.85,1.85,0,0,0-1,.48v6H32Z"/><path class="cls-2" d="M37.68,78.9V77.6h0.88V75.55h1.58V77.6H41.2v1.3H40.14v4.38a0.52,0.52,0,0,0,.54.62H41.2v1.36a2.72,2.72,0,0,1-.79.08,1.59,1.59,0,0,1-1.85-1.71V78.9H37.68Z"/><path class="cls-2" d="M41.61,78.9V77.6h0.88V75.55h1.58V77.6h1.06v1.3H44.07v4.38a0.52,0.52,0,0,0,.54.62h0.52v1.36a2.72,2.72,0,0,1-.79.08,1.59,1.59,0,0,1-1.85-1.71V78.9H41.61Z"/><path class="cls-2" d="M47.66,77.6v0.79h0a1.89,1.89,0,0,1,1.7-.93c1,0,1.61.74,1.61,2.12v3.65c0,1.39-.62,2.12-1.61,2.12a2.35,2.35,0,0,1-1.64-.79v3.05H46.16v-10h1.5Zm0.08,6.05a1.6,1.6,0,0,0,.91.4c0.42,0,.76-0.23.76-1.23V80c0-1-.34-1.23-0.76-1.23a1.6,1.6,0,0,0-.91.4v4.5Z"/><path class="cls-2" d="M52.42,81.28V79.61h1.67v1.67H52.42Zm0,3.93V83.54h1.67v1.67H52.42Z"/><path class="cls-2" d="M57.67,74.86h1.39l-3.14,10.5H54.53Z"/><path class="cls-2" d="M61.6,74.86H63l-3.14,10.5H58.46Z"/><path class="cls-2" d="M66.34,79.71a0.94,0.94,0,0,0-.91-0.95,0.61,0.61,0,0,0-.69.61c0,1.19,3,1.67,3,3.93a2,2,0,0,1-2.22,2.05,2.3,2.3,0,0,1-2.42-2.12l1.39-.38a1.12,1.12,0,0,0,1,1.2,0.64,0.64,0,0,0,.71-0.66c0-1.32-3-1.81-3-3.89a2,2,0,0,1,2.12-2,2.32,2.32,0,0,1,2.32,2Z"/><path class="cls-2" d="M68.34,78.9V77.6h0.88V75.55H70.8V77.6h1.06v1.3H70.8v4.38a0.52,0.52,0,0,0,.54.62h0.52v1.36a2.72,2.72,0,0,1-.79.08,1.59,1.59,0,0,1-1.85-1.71V78.9H68.34Z"/><path class="cls-2" d="M72.81,80.29c0-1.67.65-2.83,2.46-2.83s2.46,1.16,2.46,2.83v2.24c0,1.67-.65,2.83-2.46,2.83s-2.46-1.16-2.46-2.83V80.29ZM76.14,80c0-.88-0.31-1.25-0.88-1.25s-0.88.37-.88,1.25v2.8c0,0.88.31,1.24,0.88,1.24s0.88-.37.88-1.24V80Z"/><path class="cls-2" d="M79.19,85.21V75h1.58V85.21H79.19Z"/><path class="cls-2" d="M87.15,81.7H83.81v1.1c0,0.88.31,1.24,0.88,1.24s0.88-.37.88-1.24V82.64h1.58c0,1.61-.69,2.72-2.46,2.72s-2.46-1.16-2.46-2.83V80.29c0-1.67.65-2.83,2.46-2.83s2.46,1.16,2.46,2.83V81.7Zm-1.58-1.3V80c0-.88-0.31-1.25-0.88-1.25s-0.88.37-.88,1.25v0.4h1.75Z"/><path class="cls-2" d="M88.59,85.21V77.6h1.5v0.76A2.54,2.54,0,0,1,92,77.46a1.36,1.36,0,0,1,1.33,1.6v6.15H91.76v-5.9a0.5,0.5,0,0,0-.57-0.55,1.85,1.85,0,0,0-1,.48v6H88.59Z"/><path class="cls-2" d="M94.85,85.21V83.54h1.67v1.67H94.85Z"/><path class="cls-2" d="M98,85.21V75H99.6v3.25a2.34,2.34,0,0,1,1.64-.79c1,0,1.61.74,1.61,2.12v3.65c0,1.39-.62,2.12-1.61,2.12a1.89,1.89,0,0,1-1.7-.93h0v0.79H98Zm1.58-1.56a1.6,1.6,0,0,0,.91.4c0.42,0,.76-0.23.76-1.23V80c0-1-.34-1.23-0.76-1.23a1.6,1.6,0,0,0-.91.4v4.5Z"/><path class="cls-2" d="M104.31,76.44V75h1.58v1.44h-1.58Zm0,8.77V77.6h1.58v7.61h-1.58Z"/><path class="cls-2" d="M110.83,80l1.84,5.21h-1.6l-1.27-3.78h0L109,82.55v2.66h-1.58V75H109v5.29h0l1.74-2.69h1.7Z"/><path class="cls-2" d="M118.56,81.7h-3.34v1.1c0,0.88.31,1.24,0.88,1.24s0.88-.37.88-1.24V82.64h1.58c0,1.61-.69,2.72-2.46,2.72s-2.46-1.16-2.46-2.83V80.29c0-1.67.65-2.83,2.46-2.83s2.46,1.16,2.46,2.83V81.7ZM117,80.4V80c0-.88-0.31-1.25-0.88-1.25s-0.88.37-.88,1.25v0.4H117Z"/><path class="cls-2" d="M120,76.44V75h1.58v1.44H120Zm0,8.77V77.6h1.58v7.61H120Z"/><path class="cls-2" d="M123.14,85.21V77.6h1.5v0.76a2.54,2.54,0,0,1,1.92-.91,1.36,1.36,0,0,1,1.33,1.6v6.15h-1.58v-5.9a0.5,0.5,0,0,0-.57-0.55,1.85,1.85,0,0,0-1,.48v6h-1.58Z"/><path class="cls-2" d="M132.68,85.21V84.42h0a1.89,1.89,0,0,1-1.7.93c-1,0-1.61-.74-1.61-2.12V79.58c0-1.39.62-2.12,1.61-2.12a2.34,2.34,0,0,1,1.64.79V75h1.58V85.21h-1.5Zm-0.08-6.05a1.6,1.6,0,0,0-.91-0.4c-0.42,0-.76.23-0.76,1.23v2.83c0,1,.34,1.23.76,1.23a1.6,1.6,0,0,0,.91-0.4v-4.5Z"/><path class="cls-2" d="M140.54,81.7h-3.34v1.1c0,0.88.31,1.24,0.88,1.24s0.88-.37.88-1.24V82.64h1.58c0,1.61-.69,2.72-2.46,2.72s-2.46-1.16-2.46-2.83V80.29c0-1.67.65-2.83,2.46-2.83s2.46,1.16,2.46,2.83V81.7ZM139,80.4V80c0-.88-0.31-1.25-0.88-1.25s-0.88.37-.88,1.25v0.4H139Z"/><path class="cls-2" d="M143.09,81.18l-1.57-3.58h1.64L144,79.72l0.85-2.12h1.64l-1.64,3.55,1.73,4.06H144.9L144,82.64h0L143,85.21h-1.64Z"/><path class="cls-2" d="M147.46,85.21V83.54h1.67v1.67h-1.67Z"/><path class="cls-2" d="M150.55,80.29c0-1.67.65-2.83,2.46-2.83s2.46,1.16,2.46,2.83v2.24c0,1.67-.65,2.83-2.46,2.83s-2.46-1.16-2.46-2.83V80.29Zm3.34-.28c0-.88-0.31-1.25-0.88-1.25s-0.88.37-.88,1.25v2.8c0,0.88.31,1.24,0.88,1.24s0.88-.37.88-1.24V80Z"/><path class="cls-2" d="M156.91,85.21V77.6h1.51v0.89h0a2.06,2.06,0,0,1,1.8-1h0.33v1.65a3.6,3.6,0,0,0-1-.16,1,1,0,0,0-1.06,1v5.23h-1.58Z"/><path class="cls-2" d="M166.89,78.77h-0.25a1.15,1.15,0,0,0-.76.24,4.91,4.91,0,0,1,.17,1.2c0,2.32-.79,3.05-2.4,3.05h-0.51a0.38,0.38,0,0,0-.31.35c0,1,4.07-.5,4.07,2.19,0,1.3-1.22,1.81-3.25,1.81-1.58,0-2.52-.42-2.52-1.22a1.28,1.28,0,0,1,1-1.19v0a1,1,0,0,1-.72-1,1.69,1.69,0,0,1,1-1.23c-0.79-.55-1-0.95-1-2.73,0-2.09.68-2.8,2.46-2.8a2.18,2.18,0,0,1,1.75.82,1.32,1.32,0,0,1,1.3-.82v1.32Zm-1.41,7.14c0-.4-0.28-0.57-1.34-0.57s-1.34.17-1.34,0.57,0.28,0.57,1.34.57S165.47,86.31,165.47,85.92Zm-1-5.56c0-1.29-.17-1.6-0.79-1.6s-0.79.31-.79,1.6,0.28,1.6.79,1.6S164.45,81.65,164.45,80.36Z"/><path class="cls-3" d="M21.09,114.31a2.81,2.81,0,0,1,3.07-3,2.81,2.81,0,0,1,3.07,3v6a2.81,2.81,0,0,1-3.07,3,2.81,2.81,0,0,1-3.07-3v-6Zm2,6c0,0.87.26,1.29,1.07,1.29s1.07-.42,1.07-1.29v-5.92c0-.87-0.26-1.29-1.07-1.29s-1.07.42-1.07,1.29v5.92Z"/><path class="cls-3" d="M31.18,123.16h-2V111.48H32c2.25,0,3.4,1,3.4,3.45,0,1.88-.73,2.64-1.41,2.94l1.7,5.29h-2l-1.42-4.84a9.72,9.72,0,0,1-1,0v4.79Zm0-6.44h0.71c1.08,0,1.49-.4,1.49-1.79s-0.4-1.8-1.49-1.8H31.18v3.59Z"/><path class="cls-3" d="M100.94,112.75h1.8l-1.4,5.71a3.72,3.72,0,0,0-.16.87c0,0.33.07,0.6,0.36,0.6,1.24,0,2.58-1.71,2.58-4.07,0-3.56-2.62-5.47-5.94-5.47A6.19,6.19,0,0,0,91.85,117a6.29,6.29,0,0,0,6.6,6.47,6.67,6.67,0,0,0,4.74-1.85H105a7.89,7.89,0,0,1-6.71,3.58c-4.71,0-8.47-3.29-8.47-8.25a8.17,8.17,0,0,1,8.36-8.25c4,0,7.65,2.69,7.65,6.74a6.21,6.21,0,0,1-5.49,6.36,1.18,1.18,0,0,1-1.27-1.2l0,0a3.47,3.47,0,0,1-2.4,1.22,3.59,3.59,0,0,1-3.45-3.69c0-2.8,1.89-5.6,4.78-5.6a2.91,2.91,0,0,1,2.6,1.45Zm-1,3.65a1.79,1.79,0,0,0-1.71-1.93c-1.62,0-2.76,1.85-2.76,3.31a1.8,1.8,0,0,0,1.73,2C98.79,119.76,99.9,117.91,99.9,116.4Z"/><path class="cls-3" d="M108,111.15v-2.27h2.49v2.27H108Zm0,13.78V113h2.49v12H108Z"/><path class="cls-3" d="M117.42,116.29A1.47,1.47,0,0,0,116,114.8a1,1,0,0,0-1.09,1c0,1.87,4.67,2.62,4.67,6.18,0,2.13-1.47,3.22-3.49,3.22a3.61,3.61,0,0,1-3.8-3.33l2.18-.6c0.16,1,.51,1.89,1.65,1.89a1,1,0,0,0,1.11-1c0-2.07-4.67-2.85-4.67-6.11a3.18,3.18,0,0,1,3.33-3.2,3.65,3.65,0,0,1,3.65,3.18Z"/><path class="cls-3" d="M121.55,111.15v-2.27H124v2.27h-2.49Zm0,13.78V113H124v12h-2.49Z"/><path class="cls-3" d="M125.49,115v-2h1.38v-3.22h2.49V113H131v2h-1.67v6.89a0.82,0.82,0,0,0,.84,1H131V125a4.29,4.29,0,0,1-1.25.13c-1.87,0-2.91-.87-2.91-2.69V115h-1.38Z"/><path class="cls-3" d="M137.18,116.29a1.47,1.47,0,0,0-1.42-1.49,1,1,0,0,0-1.09,1c0,1.87,4.67,2.62,4.67,6.18,0,2.13-1.47,3.22-3.49,3.22a3.61,3.61,0,0,1-3.8-3.33l2.18-.6c0.16,1,.51,1.89,1.65,1.89a1,1,0,0,0,1.11-1c0-2.07-4.67-2.85-4.67-6.11a3.18,3.18,0,0,1,3.33-3.2,3.65,3.65,0,0,1,3.65,3.18Z"/><path class="cls-3" d="M140.32,115v-2h1.38v-3.22h2.49V113h1.67v2h-1.67v6.89a0.82,0.82,0,0,0,.84,1h0.82V125a4.29,4.29,0,0,1-1.25.13c-1.87,0-2.91-.87-2.91-2.69V115h-1.38Z"/><path class="cls-3" d="M147.34,117.2c0-2.62,1-4.45,3.87-4.45s3.87,1.82,3.87,4.45v3.51c0,2.62-1,4.45-3.87,4.45s-3.87-1.82-3.87-4.45V117.2Zm5.25-.45c0-1.38-.49-2-1.38-2s-1.38.58-1.38,2v4.4c0,1.38.49,2,1.38,2s1.38-.58,1.38-2v-4.4Z"/><path class="cls-3" d="M157.37,124.94V108.88h2.49v16.05h-2.49Z"/><path class="cls-3" d="M169.88,119.42h-5.25v1.73c0,1.38.49,2,1.38,2s1.38-.58,1.38-2v-0.27h2.49c0,2.53-1.09,4.27-3.87,4.27s-3.87-1.82-3.87-4.45V117.2c0-2.62,1-4.45,3.87-4.45s3.87,1.82,3.87,4.45v2.22Zm-2.49-2v-0.62c0-1.38-.49-2-1.38-2s-1.38.58-1.38,2v0.62h2.76Z"/><path class="cls-3" d="M172.15,124.94V113h2.36v1.2c1-.89,1.58-1.42,3-1.42s2.09,1,2.09,2.51v9.67h-2.49v-9.27a0.79,0.79,0,0,0-.89-0.87,2.92,2.92,0,0,0-1.6.76v9.38h-2.49Z"/><path class="cls-4" d="M78.05,103.86a11.54,11.54,0,0,1-3.89,1.62,5.83,5.83,0,0,0-4.45-2.12,6.41,6.41,0,0,0-6.1,6.68,7.54,7.54,0,0,0,.15,1.52,16.91,16.91,0,0,1-12.58-7,7.1,7.1,0,0,0-.83,3.36,6.85,6.85,0,0,0,2.71,5.56,5.73,5.73,0,0,1-2.76-.83v0.08a6.55,6.55,0,0,0,4.89,6.55,5.79,5.79,0,0,1-1.6.23,5.39,5.39,0,0,1-1.16-.12A6.22,6.22,0,0,0,58.14,124a11.51,11.51,0,0,1-7.57,2.86,13.78,13.78,0,0,1-1.46-.08,16.25,16.25,0,0,0,9.36,3c11.23,0,17.36-10.17,17.36-19l0-.86a12.88,12.88,0,0,0,3.06-3.47,11.32,11.32,0,0,1-3.51,1.06A6.67,6.67,0,0,0,78.05,103.86Z"/></svg>