<svg id="Layer_1" data-name="Layer 1" xmlns="http://www.w3.org/2000/svg" viewBox="0 0 200 200"><defs><style>.cls-1{fill:#efefef;}.cls-2{fill:#2c3e50;}.cls-3{fill:#fff;}</style></defs><title>dont_buy_stolen</title><polygon class="cls-1" points="150 145.41 100 174.88 50 145.41 50 24.88 150 24.88 150 145.41"/><path class="cls-2" d="M100,176.62L48.5,146.27V23.38h103V146.27ZM51.5,144.56L100,173.14l48.5-28.58V26.38h-97V144.56Z"/><path class="cls-2" d="M139,36.15H61a1,1,0,0,0-1,1v77a1,1,0,0,0,.48.86l5.88,3.55a1,1,0,0,0,1,0L73,115.21a1,1,0,0,1,1,0l5.59,3.38a1,1,0,0,0,1,0l5.59-3.38a1,1,0,0,1,1,0l5.59,3.38a1,1,0,0,0,1,0l5.59-3.38a1,1,0,0,1,1,0l5.59,3.38a1,1,0,0,0,1,0l5.59-3.38a1,1,0,0,1,1,0l5.59,3.38a1,1,0,0,0,1,0l5.59-3.38a1,1,0,0,1,1,0l5.6,3.38a1,1,0,0,0,1,0l5.89-3.55a1,1,0,0,0,.48-0.86v-2.93h0V37.15A1,1,0,0,0,139,36.15Z"/><path class="cls-2" d="M88.68,142.5l-1.4,3.18H84.76l6.16-14h2.52l6.16,14H97.08l-1.4-3.18h-7Zm6-2.18-2.54-5.76-2.54,5.76h5.08Z"/><path class="cls-2" d="M112.12,133.53a6.52,6.52,0,0,1,2,5.09,6.85,6.85,0,0,1-2,5.16q-2,1.9-6,1.9h-4.64v-14h4.8A8.32,8.32,0,0,1,112.12,133.53Zm-0.36,5.15q0-4.8-5.5-4.8H103.9v9.58h2.62a5.64,5.64,0,0,0,3.89-1.21A4.55,4.55,0,0,0,111.76,138.68Z"/><path class="cls-3" d="M70.17,48.47a2.47,2.47,0,0,0,1-.21,3.61,3.61,0,0,0,.92-0.66l0.76,0.78a3.5,3.5,0,0,1-2.7,1.23,3.61,3.61,0,0,1-2.63-1,3.71,3.71,0,0,1,0-5.18,3.69,3.69,0,0,1,2.69-1A3.52,3.52,0,0,1,73,43.58l-0.75.82a3.28,3.28,0,0,0-.95-0.67,2.65,2.65,0,0,0-1-.19,2.48,2.48,0,0,0-1.78.69A2.31,2.31,0,0,0,67.76,46a2.42,2.42,0,0,0,.71,1.78A2.31,2.31,0,0,0,70.17,48.47Z"/><path class="cls-3" d="M74.54,49.54v-7h1.18v5.87h3.19v1.12H74.54Z"/><path class="cls-3" d="M81.39,48l-0.7,1.59H79.43l3.08-7h1.26l3.08,7H85.59L84.89,48h-3.5Zm3-1.09L83.14,44l-1.27,2.88h2.54Z"/><path class="cls-3" d="M90.13,43.47a1.55,1.55,0,0,0-.84.21,0.7,0.7,0,0,0-.33.63,0.74,0.74,0,0,0,.33.65,5,5,0,0,0,1.4.49,3.87,3.87,0,0,1,1.62.73,1.73,1.73,0,0,1,.54,1.38,1.83,1.83,0,0,1-.69,1.48,2.75,2.75,0,0,1-1.81.57,4.25,4.25,0,0,1-2.91-1.13l0.74-.89a3.33,3.33,0,0,0,2.2.92,1.5,1.5,0,0,0,.91-0.25,0.77,0.77,0,0,0,.33-0.65A0.73,0.73,0,0,0,91.31,47a3.32,3.32,0,0,0-1.08-.41,9.66,9.66,0,0,1-1.17-.34,2.64,2.64,0,0,1-.71-0.41,1.69,1.69,0,0,1-.62-1.44,1.75,1.75,0,0,1,.7-1.49,2.84,2.84,0,0,1,1.75-.53,4.19,4.19,0,0,1,1.33.22,3.48,3.48,0,0,1,1.14.62L92,44.11a2.39,2.39,0,0,0-.84-0.46A3.25,3.25,0,0,0,90.13,43.47Z"/><path class="cls-3" d="M96.63,43.47a1.55,1.55,0,0,0-.84.21,0.7,0.7,0,0,0-.33.63,0.74,0.74,0,0,0,.33.65,5,5,0,0,0,1.4.49,3.87,3.87,0,0,1,1.62.73,1.73,1.73,0,0,1,.54,1.38,1.83,1.83,0,0,1-.69,1.48,2.75,2.75,0,0,1-1.81.57,4.25,4.25,0,0,1-2.91-1.13l0.74-.89a3.33,3.33,0,0,0,2.2.92,1.5,1.5,0,0,0,.91-0.25,0.77,0.77,0,0,0,.33-0.65A0.73,0.73,0,0,0,97.81,47a3.32,3.32,0,0,0-1.08-.41,9.66,9.66,0,0,1-1.17-.34,2.64,2.64,0,0,1-.71-0.41,1.69,1.69,0,0,1-.62-1.44,1.75,1.75,0,0,1,.7-1.49,2.84,2.84,0,0,1,1.75-.53A4.19,4.19,0,0,1,98,42.6a3.48,3.48,0,0,1,1.14.62l-0.63.89a2.39,2.39,0,0,0-.84-0.46A3.25,3.25,0,0,0,96.63,43.47Z"/><path class="cls-3" d="M101,42.55h1.18v7H101v-7Z"/><path class="cls-3" d="M105.52,43.65v1.92h3.1v1.09h-3.1v2.88h-1.18v-7H109v1.1h-3.47Z"/><path class="cls-3" d="M110.58,42.55h1.18v7h-1.18v-7Z"/><path class="cls-3" d="M118.81,42.55v1.11h-3.73v1.85h3.35v1h-3.35v1.87h3.85v1.11h-5v-7h4.91Z"/><path class="cls-3" d="M125.93,43.47a3.26,3.26,0,0,1,1,2.55,3.43,3.43,0,0,1-1,2.58,4.16,4.16,0,0,1-3,1h-2.32v-7H123A4.16,4.16,0,0,1,125.93,43.47ZM125.75,46q0-2.4-2.75-2.4h-1.18v4.79h1.31a2.82,2.82,0,0,0,1.94-.6A2.27,2.27,0,0,0,125.75,46Z"/><path class="cls-3" d="M130.77,43.47a1.55,1.55,0,0,0-.84.21,0.7,0.7,0,0,0-.33.63,0.74,0.74,0,0,0,.33.65,5,5,0,0,0,1.4.49,3.87,3.87,0,0,1,1.62.73,1.73,1.73,0,0,1,.54,1.38,1.83,1.83,0,0,1-.69,1.48,2.75,2.75,0,0,1-1.81.57,4.25,4.25,0,0,1-2.91-1.13l0.74-.89a3.33,3.33,0,0,0,2.2.92,1.5,1.5,0,0,0,.91-0.25,0.77,0.77,0,0,0,.33-0.65A0.73,0.73,0,0,0,132,47a3.32,3.32,0,0,0-1.08-.41,9.66,9.66,0,0,1-1.17-.34,2.64,2.64,0,0,1-.71-0.41,1.69,1.69,0,0,1-.62-1.44,1.75,1.75,0,0,1,.7-1.49,2.84,2.84,0,0,1,1.75-.53,4.19,4.19,0,0,1,1.33.22,3.48,3.48,0,0,1,1.14.62l-0.63.89a2.39,2.39,0,0,0-.84-0.46A3.25,3.25,0,0,0,130.77,43.47Z"/><path class="cls-3" d="M93.33,76.71H90.88V71.12h2.18a3.15,3.15,0,0,1,1,.14,1.35,1.35,0,0,1,.61.37,1.43,1.43,0,0,1,.38,1,1.15,1.15,0,0,1-.42,1l-0.21.14-0.2.09a1.47,1.47,0,0,1,.83.47,1.31,1.31,0,0,1,.31.88,1.5,1.5,0,0,1-.4,1A2.1,2.1,0,0,1,93.33,76.71Zm-1.5-3.27H93q1,0,1-.7a0.66,0.66,0,0,0-.25-0.58A1.34,1.34,0,0,0,93,72H91.82v1.45Zm0,2.4H93.3a1.58,1.58,0,0,0,.8-0.16,0.66,0.66,0,0,0,.28-0.62q0-.74-1.19-0.74H91.82v1.53Z"/><path class="cls-3" d="M96.53,71.12h0.94v5.59H96.53V71.12Z"/><path class="cls-3" d="M99,71.12H100v2.73l2.56-2.73h1.2l-2.25,2.45,2.28,3.14h-1.12l-1.86-2.45-0.82.88v1.57H99V71.12Z"/><path class="cls-3" d="M108.58,71.12V72h-3v1.48h2.68v0.84H105.6v1.5h3.08v0.89h-4V71.12h3.93Z"/><path class="cls-3" d="M95.67,83.3v0.35h1.12v0.72H95.67v3.54h-0.9V84.38H94.24V83.66h0.54V83.33a1.43,1.43,0,0,1,.4-1.07,1.34,1.34,0,0,1,1-.4,1.53,1.53,0,0,1,1,.42l-0.37.63a0.76,0.76,0,0,0-.55-0.28,0.57,0.57,0,0,0-.45.18A0.7,0.7,0,0,0,95.67,83.3Z"/><path class="cls-3" d="M101.11,87.34a2.33,2.33,0,0,1-3.2,0,2.21,2.21,0,0,1,0-3.11,2.33,2.33,0,0,1,3.2,0A2.21,2.21,0,0,1,101.11,87.34Zm-2.56-.55a1.39,1.39,0,0,0,1.93,0,1.51,1.51,0,0,0,0-2,1.39,1.39,0,0,0-1.93,0A1.52,1.52,0,0,0,98.55,86.79Z"/><path class="cls-3" d="M105,84.5a1.19,1.19,0,0,0-1,.43,1.84,1.84,0,0,0-.34,1.16v1.82h-0.9V83.66h0.9v0.86a1.86,1.86,0,0,1,.59-0.66,1.42,1.42,0,0,1,.79-0.26v0.9h0Z"/><path class="cls-3" d="M91.74,94.26a1.24,1.24,0,0,0-.68.17,0.56,0.56,0,0,0-.26.51,0.59,0.59,0,0,0,.26.52,4,4,0,0,0,1.12.39,3.09,3.09,0,0,1,1.3.58,1.38,1.38,0,0,1,.44,1.11,1.47,1.47,0,0,1-.55,1.19,2.2,2.2,0,0,1-1.45.46,3.4,3.4,0,0,1-2.33-.9l0.59-.71a2.66,2.66,0,0,0,1.76.74,1.2,1.2,0,0,0,.72-0.2,0.61,0.61,0,0,0,.27-0.52,0.58,0.58,0,0,0-.25-0.5,2.66,2.66,0,0,0-.87-0.33,7.73,7.73,0,0,1-.94-0.27,2.1,2.1,0,0,1-.57-0.32,1.35,1.35,0,0,1-.5-1.15,1.4,1.4,0,0,1,.56-1.2,2.27,2.27,0,0,1,1.4-.42,3.34,3.34,0,0,1,1.06.18,2.78,2.78,0,0,1,.91.5l-0.5.71a1.91,1.91,0,0,0-.67-0.37A2.59,2.59,0,0,0,91.74,94.26Z"/><path class="cls-3" d="M95.82,97.84l-0.56,1.27h-1l2.46-5.59h1l2.46,5.59h-1l-0.56-1.27h-2.8ZM98.24,97l-1-2.3-1,2.3h2Z"/><path class="cls-3" d="M101,99.11V93.52h0.94v4.7h2.55v0.9H101Z"/><path class="cls-3" d="M109.42,93.52v0.89h-3v1.48h2.68v0.84h-2.68v1.5h3.08v0.89h-4V93.52h3.93Z"/><rect class="cls-3" x="60" y="54.23" width="80" height="1"/><rect class="cls-3" x="84.17" y="54.73" width="1" height="58.89"/><rect class="cls-3" x="114.83" y="54.73" width="1" height="58.89"/><rect class="cls-3" x="115.33" y="66.29" width="24.67" height="1"/><rect class="cls-3" x="84.67" y="61.4" width="30.67" height="1"/><rect class="cls-3" x="84.67" y="103.65" width="30.67" height="1"/><rect class="cls-3" x="115.33" y="90.29" width="24.67" height="1"/><rect class="cls-3" x="60" y="73.28" width="24.67" height="1"/><rect class="cls-3" x="60" y="96.03" width="24.67" height="1"/><path class="cls-3" d="M94.24,109.62a3.44,3.44,0,0,0-.65-0.06,7.34,7.34,0,0,0-1,.17c-0.35.08-.71,0.2-1.06,0.28a2.93,2.93,0,0,1-.32,0c-0.43.05-.85,0.13-1.28,0.17s-0.75,0-1.13,0-0.93,0-1.4,0a7.51,7.51,0,0,0-1,.28,1.82,1.82,0,0,1-.33,0c-0.3,0-.6.06-0.9,0.06s-0.49-.08-0.73-0.06-0.67.16-1,.2a2.82,2.82,0,0,1-.45-0.1c-0.49,0-1,0-1.47,0s-1.18-.12-1.77-0.16a1.65,1.65,0,0,1-.89,0,2.13,2.13,0,0,0-1.22-.22c-0.52-.05-1,0-1.57-0.08a11.09,11.09,0,0,1-1.43-.36c-0.65-.18-1.31-0.36-2-0.58-0.38-.13-0.75-0.34-1.13-0.49-0.23-.09-0.46-0.1-0.69-0.2s-0.7-.34-1.06-0.52l-0.16-.1a5.91,5.91,0,0,1-.86-0.46A23,23,0,0,1,67,106c-0.29-.26-0.52-0.72-0.79-1a8.81,8.81,0,0,1-1.07-1.75c-0.18-.34-0.39-0.61-0.59-0.93a0.14,0.14,0,0,1,0-.1c-0.13-.3-0.24-0.53-0.34-0.79-0.15-.42-0.28-0.85-0.43-1.27A15.78,15.78,0,0,1,63,96.7c-0.07-.6-0.15-1.2-0.19-1.81,0-.43,0-0.88,0-1.32s0-1,0-1.5c0.08-1,.28-1.93.27-2.88a8.44,8.44,0,0,1,.24-1.74A20.29,20.29,0,0,1,64,85.1a1.3,1.3,0,0,1,.32-0.83,4.45,4.45,0,0,0,.19-0.88,5.33,5.33,0,0,0,.39-1c0.08-.74.62-1,0.52-1.89l0.2,0.1a1.06,1.06,0,0,1,0-.24C65.92,80,66,79,66.45,78.89a1.79,1.79,0,0,0,.12-0.37c0.17-.37.35-0.73,0.54-1.08a0.78,0.78,0,0,1,.17-0.11,2.17,2.17,0,0,0,.44-0.69,3.06,3.06,0,0,1,.79-1.25,9.43,9.43,0,0,0,.78-1.13,2.33,2.33,0,0,1,1-1A1.79,1.79,0,0,0,71,72.47a7.23,7.23,0,0,0,.84-1,2.76,2.76,0,0,1,1.36-1.06,0.23,0.23,0,0,0,.13-0.16,0.87,0.87,0,0,1,.53-0.68c0.21-.16.43-0.32,0.64-0.5s0.48-.49.73-0.69,0.65-.47,1-0.72c0.14-.11.27-0.25,0.41-0.36,0.4-.34.81-0.67,1.21-1,0.25-.2.51-0.38,0.77-0.56s0.79-.56,1.19-0.83,1-.69,1.54-1c0.33-.19.69-0.24,1-0.4a6.48,6.48,0,0,0,.54-0.39c0.26-.16.53-0.3,0.8-0.44s0.55-.31.83-0.45c0.69-.34,1.37-0.7,2.07-1a8.67,8.67,0,0,1,1-.25,1.29,1.29,0,0,0,.33-0.25c0.13-.1.24-0.26,0.42-0.08a0.46,0.46,0,0,0,.36-0.17c0.61-.32,1.21-0.69,1.83-0.95s1.07-.28,1.6-0.46,1-.42,1.49-0.6a2.6,2.6,0,0,0,.55,0A7.48,7.48,0,0,1,95,58.17a2.35,2.35,0,0,1,.87-0.23,3.65,3.65,0,0,1,.82.13A0.44,0.44,0,0,1,97,57.51c0.72-.16,1.44-0.26,2.16-0.42,0.36-.08.71-0.26,1.07-0.38a0.68,0.68,0,0,1,.25,0,6,6,0,0,1,1.61.13A1.86,1.86,0,0,1,103.52,58a0.47,0.47,0,0,0,.63.34,1.55,1.55,0,0,1,.59-0.06c0.37,0,.73.12,1.1,0.15a2,2,0,0,0,.33-0.16c0.47-.07.95-0.12,1.42-0.18a2.53,2.53,0,0,1,.29-0.05h1.93A4.1,4.1,0,0,1,111,58a2.65,2.65,0,0,0,.42,0l0.71,0.12,0,0.27a0.14,0.14,0,0,0,.08,0,0.53,0.53,0,0,1,.68-0.44c0.62,0,1.24,0,1.86,0,0.38,0,.76.18,1.14,0.19a12,12,0,0,1,1.94.21c0.49,0.1,1,.16,1.49.22s1.23,0.11,1.85.22c0.46,0.09.92,0.27,1.38,0.41L124,59.69l0.24,0.1c0.38,0.14.77,0.28,1.15,0.43s0.9,0.38,1.34.58l0.5,0.25c0.49,0.25,1,.49,1.47.75a7.77,7.77,0,0,1,1.9,1.48c0.7,0.73,1.41,1.43,2.08,2.23a8.08,8.08,0,0,1,1,1.6c0.36,0.73.68,1.53,1,2.34a10.79,10.79,0,0,1,.57,1.87c0.15,0.8.2,1.67,0.27,2.52,0.05,0.59.09,1.19,0.1,1.79a6.44,6.44,0,0,1-.09.88c-0.11.93-.19,1.89-0.35,2.8s-0.36,1.5-.55,2.24a10.54,10.54,0,0,1-.42,1.5c-0.08.19-.19,0.37-0.28,0.58-0.4.88-.81,1.74-1.24,2.58-0.32.62-.66,1.22-1,1.79-0.2.32-.43,0.57-0.65,0.86-0.42.56-.82,1.14-1.25,1.67s-0.64.72-1,1.09-0.5.64-.76,0.91a8.44,8.44,0,0,1-.7.56l-1.17,1c-0.51.42-1,.83-1.53,1.25-0.13.11-.23,0.3-0.36,0.4-0.61.49-1.21,1-1.83,1.43s-1,.51-1.46.81-0.95.7-1.42,1a2,2,0,0,0-.31.07,7.28,7.28,0,0,1-1.27.79c-0.31.2-.62,0.44-0.94,0.62s-0.78.36-1.16,0.59-0.82.64-1.25,0.84a3.4,3.4,0,0,0-.51.15c-0.34.21-.71,0.3-1.06,0.48-0.52.28-1,.59-1.54,0.9a3.22,3.22,0,0,1-1.08.63,2.69,2.69,0,0,0-.53.13c-0.35.1-.69,0.27-1,0.4a0.27,0.27,0,0,1-.16-0.08,1.17,1.17,0,0,1,0,.28c-0.58.23-1.17,0.42-1.75,0.68a3,3,0,0,1-1.27.43,1.89,1.89,0,0,0-.65.31l-1.25.52-0.81.31-0.46.14-1.14.39c-0.45.15-.89,0.31-1.34,0.42a1.65,1.65,0,0,0-.83.13c-0.29.26-.61,0-0.88,0.4a0.85,0.85,0,0,1-.64.19c-0.39.07-.78,0.11-1.16,0.19-0.19,0-.38.19-0.57,0.24-0.37.09-.74,0.14-1.11,0.21-0.2,0-.39,0-0.59.1A0.36,0.36,0,0,0,94.24,109.62ZM73.66,75.28C73.42,74,74,73.46,74.4,72.55a1.81,1.81,0,0,0-.24.15,3.35,3.35,0,0,1-1.37,1.17,0.14,0.14,0,0,0,0,.05c-0.58.65-1.17,1.29-1.75,1.95-0.26.3-.52,0.62-0.77,0.95-0.44.57-.89,1.1-1.3,1.74s-0.78,1.53-1.24,2.13a12.58,12.58,0,0,0-.86,1.72A18.14,18.14,0,0,0,66,84.35c-0.3.79-.58,1.61-0.86,2.42a6.83,6.83,0,0,0-.25.92c-0.13.65-.24,1.31-0.34,2-0.06.37-.11,0.76-0.14,1.14a13.91,13.91,0,0,0-.14,2c0,0.62,0,1.27,0,1.88,0.09,0.88.24,1.74,0.38,2.6a5.74,5.74,0,0,0,.22,1c0.1,0.27.2,0.54,0.29,0.78a16.58,16.58,0,0,0,1,1.87,7.39,7.39,0,0,0,.8,1.26,17.35,17.35,0,0,0,1.49,1.42c0.38,0.33.76,0.62,1.15,0.91a3.37,3.37,0,0,0,.33.13,1.63,1.63,0,0,0,.39.28c0.48,0.08.94,0.41,1.42,0.53a4.86,4.86,0,0,1,1.4.64,5.56,5.56,0,0,1,1.26.5,1.36,1.36,0,0,0,.77,0,4.63,4.63,0,0,1,.81.27,0.91,0.91,0,0,0,.24.13c0.28,0,.55-0.07.83,0s0.62,0.15.92,0.19c0.63,0.07,1.26.13,1.89,0.17s1,0,1.45.05,1,0.2,1.47.19c0.79,0,1.59-.11,2.38-0.17a8.05,8.05,0,0,1,.91,0,0.66,0.66,0,0,1,.22.22l0.28-.39,0.93,0.21s0-.09,0-0.1a0.45,0.45,0,0,1,.19-0.08,0.47,0.47,0,0,0,.14.07,1.05,1.05,0,0,1,1.17-.2,0.34,0.34,0,0,0,.14,0l2-.33a5.56,5.56,0,0,1,.61-0.14,6.18,6.18,0,0,1,1,0c0.32,0,.67-0.27,1-0.24a0.06,0.06,0,0,0,.06,0c0.28-.37.58,0,0.89-0.11a0.72,0.72,0,0,1,.11-0.29,3.85,3.85,0,0,1,.67-0.08,0.23,0.23,0,0,0,.15,0c0.11-.34.26-0.23,0.42-0.17a0.61,0.61,0,0,0,.31-0.06l1.2-.26a6.62,6.62,0,0,0,.84-0.2c0.31-.11.61-0.28,0.92-0.42H99.4c0.63-.29,1.31-0.1,1.93-0.61a9.68,9.68,0,0,1,1.13-.37,2.93,2.93,0,0,1,.82-0.19c0.16-.05.31-0.22,0.48-0.28a0.46,0.46,0,0,1,.25.13c0.09-.28.28-0.19,0.47-0.27a13.5,13.5,0,0,0,1.34-.71,1.2,1.2,0,0,1,.13.07,3.33,3.33,0,0,0,.52-0.17c0.1,0,.18-0.16.28-0.19a0.76,0.76,0,0,0,.24,0,2.26,2.26,0,0,0,.9-0.55,3.48,3.48,0,0,1,.57-0.17,1.59,1.59,0,0,1,.62-0.26,4.37,4.37,0,0,0,1-.41l0.37-.18c0.26-.14.52-0.28,0.77-0.44s0.4-.35.6-0.46c0.54-.3,1.09-0.57,1.64-0.84a0.24,0.24,0,0,1,.27,0c0.2,0.23.4,0,.52-0.13a2,2,0,0,1,1.49-.9,4.16,4.16,0,0,0,.83-0.46,5.1,5.1,0,0,0,.89-0.63c0.24-.14.51-0.09,0.75-0.24,0.4-.25.77-0.61,1.17-0.87,0.21-.13.4-0.53,0.67-0.22,0,0,.15-0.29.25-0.36,0.38-.26.77-0.47,1.16-0.71,0.19-.12.37-0.25,0.56-0.38a7.87,7.87,0,0,0,.73-0.43c0.36-.28.69-0.64,1-0.95s0.6-.49.9-0.71,0.48-.29.72-0.48a3.81,3.81,0,0,1,.41-0.45,2.54,2.54,0,0,0,.91-0.75,0.29,0.29,0,0,1,.19-0.07,2.18,2.18,0,0,1,.23-0.43c0.31-.33.65-0.6,1-0.94,0.49-.53,1-1.09,1.46-1.66a6.11,6.11,0,0,0,.93-1.27c0.51-1.07,1.16-1.86,1.64-3a20.55,20.55,0,0,0,1.15-2.94c0.09-.33.18-0.66,0.26-1a15.06,15.06,0,0,0,.44-3,14.52,14.52,0,0,0-.09-2.74A11.77,11.77,0,0,0,133,70a10.42,10.42,0,0,0-1-1.78,17.56,17.56,0,0,0-1.4-1.68c-0.59-.64-1.26-1-1.84-1.66a2.77,2.77,0,0,0-1-.56l-1.18-.63a13.36,13.36,0,0,0-1.31-.72c-0.45-.18-0.91-0.23-1.37-0.37-0.66-.22-1.32-0.49-2-0.7a14.41,14.41,0,0,0-1.59-.4c-0.57-.11-1.14-0.17-1.71-0.26a4,4,0,0,0-1-.18,9.52,9.52,0,0,0-1.88-.1,3,3,0,0,1-1-.21c-0.75-.05-1.49-0.06-2.24-0.07s-1.48,0-2.21,0h-2.42a4.8,4.8,0,0,1-.6-0.09c-0.13,0-.32-0.14-0.4,0a0.56,0.56,0,0,1-.6.2c-0.51.1-1,.07-1.55,0.14s-0.77.22-1.16,0.29c-0.68.11-1.36,0.18-2,.28s-1.18.15-1.77,0.28-1.29.36-1.93,0.52c-0.46.12-.92,0.19-1.38,0.31s-0.67.25-1,.38l-0.07-.18a0.85,0.85,0,0,1-.2.28c-0.57.2-1.14,0.38-1.71,0.54a7.78,7.78,0,0,0-1.33.59A21.69,21.69,0,0,1,90,65c-0.33.13-.65,0.31-1,0.47s-0.92.43-1.37,0.67c-0.18.1-.36,0.28-0.54,0.38-0.73.39-1.46,0.75-2.18,1.14-0.29.16-.58,0.38-0.87,0.56s-0.3.16-.45,0.25l-0.61.39-0.52.31c-0.17.11-.33,0.24-0.5,0.34l-1.57,1c-0.35.22-.69,0.46-1,0.71a8.59,8.59,0,0,0-.79.65,4,4,0,0,1-.52.58,2.86,2.86,0,0,0-.92.78,1.2,1.2,0,0,1-.47.53,1.62,1.62,0,0,0-1,.77,2.41,2.41,0,0,0-.35.62c-0.11.23-.21,0.48-0.31,0.73a0.85,0.85,0,0,1-.11.28,1.56,1.56,0,0,0-.63.73c-0.15.18-.23,0.09-0.35-0.05a3,3,0,0,0-.29-0.29l-0.06.11L73.5,75.38Z"/></svg>