<svg id="Layer_1" data-name="Layer 1" xmlns="http://www.w3.org/2000/svg" viewBox="0 0 200 200"><defs><style>.cls-1{fill:#2c3e50;}.cls-2{fill:#e64c3c;}.cls-3{fill:#fff;}</style></defs><title>dont_buy_stolen</title><path class="cls-1" d="M71.7,92a16.11,16.11,0,0,0-5.81,1.1L64.64,90H75.06a0.63,0.63,0,0,0,.6-0.45l1-3.24v0h0l2-6.39a0.62,0.62,0,0,0-.1-0.56A0.63,0.63,0,0,0,78,79.07H60.72l1-3.43a0.95,0.95,0,0,0-1-1.21l-7.4.63a1,1,0,0,0-.85.79c-0.06.39-.58,3.84,1.21,5.63A0.95,0.95,0,0,0,55,80.14c-0.73-.73-0.82-2.25-0.76-3.26l5.25-.45-0.85,2.9a0.93,0.93,0,0,0,0,.6c0.19,0.5.66,1.74,1.31,3.41a62.13,62.13,0,0,0-22.09,7.46L35,82.05A11.32,11.32,0,0,1,38.18,81a14.24,14.24,0,0,0,3.3-.32c0.24-.2.18-2-3.59-1.76s-3.47,0-7.61,0c-0.6,0-3.42,2.4.53,2.6a6.61,6.61,0,0,1,2.22.57h0s0,0,0,0l3.22,9.78a46.17,46.17,0,0,0-4.47,3.23,16.18,16.18,0,1,0,6.38,16.83l1.49,0.25A4,4,0,0,0,43,115.75v2.93a0.32,0.32,0,0,0,.32.32h2.6a0.32,0.32,0,0,0,.32-0.32V118a0.32,0.32,0,0,0-.32-0.32H44.58a0.32,0.32,0,0,1-.32-0.32v-1.67a4,4,0,0,0,2.56-6.36l15.94-19,1.4,3.49A16.17,16.17,0,1,0,71.7,92ZM71.26,80.33h5.91L76.66,82H71.26V80.33Zm0,2.91h5l-0.74,2.41H71.26V83.24Zm0,3.67h3.89l-0.56,1.81H71.26V86.92Zm-4.62-6.58H70V82H66.64V80.33Zm0,2.91H70v2.41H66.64V83.24Zm0,3.67H70v1.81H66.64V86.92Zm-1.26-6.58V82H61.59L61,80.33h4.4Zm-43,41.14a13.22,13.22,0,1,1,7.07-24.36,37.2,37.2,0,0,0-6,7.29,4,4,0,1,0,2.57,5.48l9.14,1.53A13.22,13.22,0,0,1,22.42,121.47Zm2.75-13.22a2.75,2.75,0,1,1-2.75-2.75A2.76,2.76,0,0,1,25.18,108.25Zm10.34,1.3L26.41,108a4,4,0,0,0-1.22-2.67,37,37,0,0,1,5.89-7,13.13,13.13,0,0,1,4.57,9.91A13,13,0,0,1,35.52,109.54Zm4.41,0.74L38.5,110a16.33,16.33,0,0,0,.11-1.79,16.13,16.13,0,0,0-5.25-11.9c1.07-.87,2.26-1.73,3.55-2.58l4.79,14.54A4,4,0,0,0,39.93,110.28Zm4.34,4.14v-1.8a1,1,0,0,0,.42-0.82,1.05,1.05,0,1,0-1.68.82v1.8a2.71,2.71,0,0,1-2.12-2.63,2.75,2.75,0,1,1,5.51,0A2.71,2.71,0,0,1,44.26,114.43ZM61.87,88.51L45.37,108.19a4,4,0,0,0-1.73-.41H43.51l-5-15.09A59.59,59.59,0,0,1,60.7,85.14c0.39,1,.83,2.12,1.29,3.28A1,1,0,0,0,61.87,88.51ZM62,83.24h3.33v2.41H62.94Zm2.09,5.48-0.71-1.81h2v1.81H64.14Zm7.57,32.68a13.18,13.18,0,0,1-6.39-24.73c1.32,3.19,2.63,6.22,3.74,8.52a4,4,0,1,0,2.66-1,3.84,3.84,0,0,0-1,.15c-1-2.17-2.31-5.16-3.67-8.46A13.07,13.07,0,0,1,71.7,95,13.23,13.23,0,1,1,71.7,121.41Zm0.9-13.65a11,11,0,0,1-1.33-2.25,3,3,0,0,1,.43-0.09A2.75,2.75,0,1,1,69,108.18a2.71,2.71,0,0,1,.69-1.77,12.87,12.87,0,0,0,1.62,2.69,0.94,0.94,0,0,0,.67.28A0.94,0.94,0,0,0,72.6,107.76Z"/><path class="cls-2" d="M104.51,91.47h11.13l2.44-4.9H122l-2.46,4.9h4.61v4.06h-6.63l-1.88,3.75h8.51v4.08H113.6L111,108.56h-3.9l2.59-5.21h-5.19V99.27h7.23l1.86-3.75h-9.09V91.47Z"/><rect class="cls-3" x="146.9" y="76.24" width="41.89" height="47.52"/><rect class="cls-1" x="146.4" y="70" width="1" height="60"/><rect class="cls-1" x="188.29" y="70" width="1" height="60"/><line class="cls-3" x1="193.76" y1="76.24" x2="140.77" y2="76.24"/><rect class="cls-1" x="140.77" y="75.74" width="52.99" height="1"/><line class="cls-3" x1="193.76" y1="123.76" x2="140.77" y2="123.76"/><rect class="cls-1" x="140.77" y="123.26" width="52.99" height="1"/><path class="cls-1" d="M153.37,80.44l1.6,7.28h-0.79l-0.43-2.16h-1.86l-0.43,2.16h-0.79l1.6-7.28h1.09ZM152,84.9h1.63L152.83,81h0Z"/><path class="cls-1" d="M155.73,80.44h1.35c1.53,0,2.46.85,2.46,3.64s-0.93,3.64-2.46,3.64h-1.35V80.44Zm0.79,6.62h0.42c1.15,0,1.82-.48,1.82-3s-0.67-3-1.82-3h-0.42v6Z"/><path class="cls-1" d="M161.65,84V85H160.8V84h0.85Zm0,2.74v0.95H160.8V86.77h0.85Z"/><path class="cls-2" d="M153.85,92.63a1.17,1.17,0,0,0-1.12-1.31,0.93,0.93,0,0,0-1,1c0,1.64,2.92,1.66,2.92,4a1.7,1.7,0,0,1-1.87,1.86,1.85,1.85,0,0,1-1.85-2.06h0.73a1.2,1.2,0,0,0,1.2,1.39,1,1,0,0,0,1.08-1.2c0-1.65-2.92-1.85-2.92-3.92a1.63,1.63,0,0,1,1.75-1.69,1.79,1.79,0,0,1,1.8,2h-0.73Z"/><path class="cls-2" d="M155.63,90.75h1.71a2,2,0,0,1,0,4h-0.93V98h-0.79V90.75Zm0.79,3.33h0.83a1.33,1.33,0,0,0,0-2.66h-0.83v2.66Z"/><path class="cls-2" d="M163.54,90.75v0.67H161V93.9h1.88v0.67H161v2.8h2.66V98h-3.45V90.75h3.33Z"/><path class="cls-2" d="M168,90.75v0.67h-2.54V93.9h1.88v0.67h-1.88v2.8h2.66V98h-3.45V90.75H168Z"/><path class="cls-2" d="M169.17,90.75h1.35c1.53,0,2.46.85,2.46,3.64S172.05,98,170.52,98h-1.35V90.75ZM170,97.37h0.42c1.15,0,1.82-.48,1.82-3s-0.67-3-1.82-3H170v6Z"/><path class="cls-2" d="M174.56,90.75l1.25,3.19L177,90.75h0.85L176.19,95V98H175.4V95l-1.69-4.2h0.85Z"/><path class="cls-2" d="M153.1,108.45c-1.23,0-2.06-1-2.06-3.74s0.83-3.74,2.06-3.74,2.06,1,2.06,3.74S154.33,108.45,153.1,108.45Zm0-6.82c-0.71,0-1.27.61-1.27,3.08s0.56,3.08,1.27,3.08,1.27-.61,1.27-3.08S153.81,101.63,153.1,101.63Z"/><path class="cls-2" d="M156.29,101.07H158a1.81,1.81,0,0,1,2,1.89,1.75,1.75,0,0,1-1.17,1.79l1.23,3.61h-0.83l-1.17-3.45-1,0v3.41h-0.79v-7.28Zm0.79,3.19h0.69c1.13,0,1.49-.44,1.49-1.26s-0.36-1.26-1.49-1.26h-0.69v2.52Z"/><path class="cls-2" d="M163.46,101.07l1.6,7.28h-0.79l-0.43-2.16H162l-0.43,2.16h-0.79l1.6-7.28h1.09Zm-1.36,4.46h1.63l-0.81-3.91h0Z"/><path class="cls-2" d="M166.95,101.07l1.88,5.37h0v-5.37h0.79v7.28h-0.85L166.52,102h0v6.33h-0.79v-7.28h1.23Z"/><path class="cls-2" d="M173.89,103.31c-0.06-.95-0.34-1.67-1.14-1.67s-1.3.79-1.3,3.08,0.42,3.08,1.3,3.08a1,1,0,0,0,1.14-1.15v-1h-1v-0.67h1.77v3.41h-0.5l-0.1-.54a1.56,1.56,0,0,1-1.32.65c-1.28,0-2.09-1-2.09-3.74s0.81-3.74,2.09-3.74,1.83,1.17,1.93,2.34h-0.79Z"/><path class="cls-2" d="M179.24,101.07v0.67h-2.54v2.48h1.88v0.67h-1.88v2.8h2.66v0.67h-3.45v-7.28h3.33Z"/><path class="cls-2" d="M151.25,111.38H153a1.81,1.81,0,0,1,2,1.89,1.75,1.75,0,0,1-1.17,1.79l1.23,3.61h-0.83l-1.17-3.45-1,0v3.41h-0.79v-7.28Zm0.79,3.19h0.69c1.13,0,1.49-.44,1.49-1.26s-0.36-1.26-1.49-1.26H152v2.52Z"/><path class="cls-2" d="M158.41,111.38l1.6,7.28h-0.79l-0.43-2.16h-1.86l-0.43,2.16h-0.79l1.6-7.28h1.09ZM157,115.84h1.63l-0.81-3.91h0Z"/><path class="cls-2" d="M163.76,113.58c-0.1-1.15-.46-1.63-1.08-1.63-0.92,0-1.32.81-1.32,3.08s0.4,3.08,1.32,3.08c0.74,0,1.16-.5,1.18-1.86h0.79c0,1.61-.73,2.52-2,2.52s-2.11-1-2.11-3.74,0.81-3.74,2.11-3.74c1.08,0,1.75.75,1.87,2.3h-0.79Z"/><path class="cls-2" d="M169.15,111.38V112H166.6v2.48h1.88v0.67H166.6V118h2.66v0.67h-3.45v-7.28h3.33Z"/><path class="cls-2" d="M170.3,111.38h1.76a1.81,1.81,0,0,1,2,1.89,1.75,1.75,0,0,1-1.17,1.79l1.23,3.61h-0.83l-1.17-3.45-1,0v3.41H170.3v-7.28Zm0.79,3.19h0.69c1.13,0,1.49-.44,1.49-1.26S172.9,112,171.77,112h-0.69v2.52Z"/></svg>