<svg id="Layer_1" data-name="Layer 1" xmlns="http://www.w3.org/2000/svg" viewBox="0 0 200 200"><defs><style>.cls-1{fill:#efefef;stroke:#2c3e50;stroke-miterlimit:10;stroke-width:3px;}.cls-2,.cls-3{fill:#2c3e50;}.cls-3,.cls-4{fill-rule:evenodd;}.cls-4{fill:#fff;}</style></defs><title>dont_buy_stolen</title><polygon class="cls-1" points="150 145.54 100 175 50 145.54 50 25 150 25 150 145.54"/><path class="cls-2" d="M69.82,131.66a3.1,3.1,0,0,0-1.69.42,1.41,1.41,0,0,0-.66,1.27,1.48,1.48,0,0,0,.66,1.3,10,10,0,0,0,2.81,1,7.73,7.73,0,0,1,3.24,1.46,3.46,3.46,0,0,1,1.09,2.77,3.67,3.67,0,0,1-1.38,3A5.5,5.5,0,0,1,70.27,144a8.5,8.5,0,0,1-5.82-2.26l1.48-1.78a6.67,6.67,0,0,0,4.4,1.84,3,3,0,0,0,1.81-.49,1.53,1.53,0,0,0,.67-1.3,1.46,1.46,0,0,0-.63-1.26,6.62,6.62,0,0,0-2.17-.82,19.54,19.54,0,0,1-2.34-.68,5.28,5.28,0,0,1-1.42-.81A3.38,3.38,0,0,1,65,133.52a3.51,3.51,0,0,1,1.41-3,5.68,5.68,0,0,1,3.49-1,8.36,8.36,0,0,1,2.66.44,7,7,0,0,1,2.28,1.24l-1.26,1.78a4.76,4.76,0,0,0-1.68-.92A6.47,6.47,0,0,0,69.82,131.66Z"/><path class="cls-2" d="M88,129.82V132H80.55v3.7h6.7v2.1h-6.7v3.74h7.7v2.22H78.19v-14H88Z"/><path class="cls-2" d="M102.43,134.36q0,3.46-3,4.36l3.66,5.08h-3l-3.34-4.7h-3.1v4.7H91.27v-14h5.2q3.2,0,4.58,1.08A4.12,4.12,0,0,1,102.43,134.36Zm-3.14,2a2.49,2.49,0,0,0,.72-2,2.13,2.13,0,0,0-.74-1.88,4.92,4.92,0,0,0-2.64-.51h-3v5h2.94A4.32,4.32,0,0,0,99.29,136.34Z"/><path class="cls-2" d="M105.83,129.82h2.36v14h-2.36v-14Z"/><path class="cls-2" d="M114.05,140.62l-1.4,3.18h-2.52l6.16-14h2.52l6.16,14h-2.52l-1.4-3.18h-7Zm6-2.18-2.54-5.76L115,138.44h5.08Z"/><path class="cls-2" d="M126.91,143.8v-14h2.36v11.74h6.38v2.24h-8.74Z"/><path class="cls-3" d="M132.64,43.08l-6.45,1.86L125,47.27l0.6,2.08-6.2,1.79h0l-2,.56-0.57,2.17-11.57,3.34L87.59,62.3,76,65.64,74.39,64.1l-2,.56h0l-6.2,1.79-0.6-2.08-2.29-1.31L56.9,64.93a81.37,81.37,0,0,0,3.41,19.93C63.8,96.95,68,103.31,68,103.31l6.45-1.86,1.17-2.54L75.06,97l6.2-1.79h0l1.87-.54,0.54-2.46,11.61-3.35,17.67-5.1,11.61-3.35,1.77,1.79,1.87-.54h0l6.2-1.79,0.54,1.87,2.35,1.52,6.45-1.86s0.14-7.61-3.35-19.7A81.37,81.37,0,0,0,132.64,43.08Z"/><path class="cls-4" d="M78.82,89.39a3.92,3.92,0,0,1-.61-1.46c-0.16-.55-0.36-1.12-0.48-1.67S77.38,85,77.31,84.4a6,6,0,0,1,.34-2.64c0.08-.25.23-0.49,0.31-0.76s0.14-.39.22-0.6,0.17-.37.25-0.55c0.16-.36.36-0.73,0.5-1.12a5.5,5.5,0,0,1,.25-0.57,3.15,3.15,0,0,0,.19-0.47c0.09-.28.17-0.59,0.26-0.9s0.13-.39.17-0.6a4.85,4.85,0,0,0,.13-0.62,6.43,6.43,0,0,0,0-.7,9.08,9.08,0,0,0-.29-1.55,2.16,2.16,0,0,0-.44-1.06,1.17,1.17,0,0,0-.38-0.2,2,2,0,0,0-.72,0H77.88a3.4,3.4,0,0,0-.94.25,2.11,2.11,0,0,0-.69.47,4.77,4.77,0,0,0-.12.47,2.33,2.33,0,0,1,.08.8,1.24,1.24,0,0,1-.68.33,3,3,0,0,1-.8.16,0.78,0.78,0,0,0-.2-0.1,2.65,2.65,0,0,1-.35-1.4,2.73,2.73,0,0,1,.23-1.17,2,2,0,0,1,.6-0.71,9.6,9.6,0,0,1,2.28-.85,11,11,0,0,1,1.12-.3,4.67,4.67,0,0,1,.48,0,1.4,1.4,0,0,1,.78.19,2.61,2.61,0,0,1,.9.6c0.08,0.09.17,0.21,0.24,0.31a2.94,2.94,0,0,1,.23.33c0.1,0.21.13,0.48,0.22,0.71s0.09,0.15.12,0.22A12.57,12.57,0,0,1,82,74.65,2.86,2.86,0,0,1,82,76a18.74,18.74,0,0,1-1,2.86l-0.11.29c0,0.05,0,.12,0,0.16a2.62,2.62,0,0,0-.13.26c0,0.13-.11.29-0.15,0.42s-0.15.37-.22,0.56c-0.14.37-.31,0.73-0.43,1.12-0.06.19-.17,0.36-0.24,0.55A6.27,6.27,0,0,0,79.21,84a3.25,3.25,0,0,0,0,.67c0,0.27.18,0.64,0.28,1,0.16,0.54.24,1.32,0.63,1.42h0.16a4.13,4.13,0,0,0,1.28-.28c1.12-.32,2.34-0.7,3.33-0.91a0.72,0.72,0,0,0,.2.11c0.08,0.24.21,0.47,0.28,0.74a1.57,1.57,0,0,1,.09.73,2,2,0,0,1-.76.34l-0.81.3c-1.09.4-2.33,0.7-3.44,1A5.48,5.48,0,0,1,78.82,89.39Z"/><path class="cls-4" d="M116.62,77.65a3.69,3.69,0,0,1-.56-1.15c0-.1-0.11-0.17-0.14-0.26-0.22-.54-0.33-1.18-0.53-1.79s-0.38-1.18-.55-1.77c-0.68-2.34-1.38-4.75-2-7.12-0.16-.59-0.37-1.19-0.51-1.78a6.43,6.43,0,0,1-.38-2,5.5,5.5,0,0,1,.07-0.67c0.12-.12.19-0.31,0.32-0.48a3,3,0,0,1,.78-0.63,6.28,6.28,0,0,1,1-.32c0.32-.09.65-0.17,1-0.25a7.28,7.28,0,0,1,1.92-.33,2.27,2.27,0,0,1,.5.15,2.59,2.59,0,0,1,.49.17,2.07,2.07,0,0,1,.63.61,3.11,3.11,0,0,1,.29.64,1.63,1.63,0,0,1,.14.71,1.13,1.13,0,0,1-.69.39,1.51,1.51,0,0,1-.81.09,1.46,1.46,0,0,1-.25-0.44c-0.38-.63-1-0.69-1.86-0.36a3,3,0,0,0-1.38.68,1.48,1.48,0,0,0-.15.64,6.13,6.13,0,0,0,.25,1.17,12.12,12.12,0,0,0,.37,1.16c0.31,0.86.42,1.67,0.66,2.4a1,1,0,0,0,.53.69,5.06,5.06,0,0,0,1.67-.27,4.79,4.79,0,0,1,2.36-.26,2.23,2.23,0,0,1,1.11,1c0,0.06.1,0.11,0.14,0.17a6.49,6.49,0,0,1,.29.76,33.27,33.27,0,0,1,1.2,4,12.67,12.67,0,0,1,.37,1.59,4.31,4.31,0,0,1,0,.76A1.84,1.84,0,0,1,122,77a3.7,3.7,0,0,1-.6.24c-0.19.07-.39,0.19-0.58,0.25l-1.36.45a6.67,6.67,0,0,1-1.17.2,1.67,1.67,0,0,1-.69,0l-0.14,0A2.29,2.29,0,0,1,116.62,77.65ZM116.33,70a1.09,1.09,0,0,0,0,.8c0.1,0.49.24,1,.38,1.43s0.24,0.94.39,1.43,0.3,0.9.47,1.37a2.86,2.86,0,0,0,.55,1.24,1.43,1.43,0,0,0,.68,0,10.31,10.31,0,0,0,1.78-.65,1.31,1.31,0,0,0,.41-0.71,2.27,2.27,0,0,0,0-.28c0-.1,0-0.19,0-0.26-0.12-.68-0.38-1.45-0.62-2.26s-0.43-1.62-.68-2.24a1.15,1.15,0,0,0-.84-0.79C117.81,69.32,116.68,69.43,116.33,70Z"/><path class="cls-4" d="M90.78,69.67a10.18,10.18,0,0,0-.43-1.09l0,0-0.06-.09-0.18-.23A1.9,1.9,0,0,0,90,68a2.34,2.34,0,0,0-.81-0.5,1.59,1.59,0,0,0-.3-0.07,1.2,1.2,0,0,0-.47-0.05,4.71,4.71,0,0,0-.49,0,9.13,9.13,0,0,0-1,.27l-0.7.2c-0.45.14-.87,0.24-1.25,0.4l0,0a4.4,4.4,0,0,0-.53.27,2.09,2.09,0,0,0-.62.72,2.78,2.78,0,0,0-.24,1.19,2.7,2.7,0,0,0,.36,1.42,0.8,0.8,0,0,1,.2.1,3.05,3.05,0,0,0,.81-0.16,1.26,1.26,0,0,0,.69-0.34,2.37,2.37,0,0,0-.08-0.82,4.88,4.88,0,0,1,.13-0.47A2.61,2.61,0,0,1,86,69.93l0.31-.13,0.81-.3,0.25-.07h0.25a2,2,0,0,1,.73,0l0.08,0A2.08,2.08,0,0,1,89,70.62c0.27,0.94.46,1.67,0.69,2.62,0.12,0.5.33,1.05,0.39,1.52a1,1,0,0,1-.49,1.09,5.44,5.44,0,0,1-1,.39c-0.26.07-.57,0.09-0.53,0.43a2.25,2.25,0,0,0,.23.64,1.09,1.09,0,0,0,.3.49,0.92,0.92,0,0,0,.67-0.15c0.53-.18,1.3-0.38,1.62,0a2.44,2.44,0,0,1,.25.51c0.19,0.52.24,1,.4,1.58s0.27,1,.45,1.57a9.76,9.76,0,0,1,.58,1.76c0,0.06,0,.13,0,0.22s0,0.19,0,.24c-0.11.52-.75,0.58-1.45,0.8l-0.37.13a3,3,0,0,1-.53,0c-0.16,0-.28-0.11-0.44-0.14a5,5,0,0,1-.45-0.52,0.49,0.49,0,0,0-.16-0.25,1.24,1.24,0,0,0-.56.07,2.81,2.81,0,0,0-1,.34,1.26,1.26,0,0,0,.13.82,3.07,3.07,0,0,0,.74,1,1.59,1.59,0,0,0,.86.4,4.54,4.54,0,0,0,1.21,0c0.38-.12.76-0.26,1.15-0.37a8.2,8.2,0,0,0,1-.26c0.36-.16.66-0.44,1-0.6a1.46,1.46,0,0,0,.37-0.26,1,1,0,0,0,.17-0.2,1.19,1.19,0,0,0,.24-0.47,2.41,2.41,0,0,0,0-.62c-0.19-1.23-.73-2.67-1-3.95a15.58,15.58,0,0,0-.66-2.34,1.84,1.84,0,0,0-.58-0.8A0.73,0.73,0,0,1,91.9,76a2.42,2.42,0,0,1,.19-0.85,5.32,5.32,0,0,0-.3-1.72c-0.09-.3-0.16-0.6-0.22-0.9s-0.19-.63-0.25-0.93A15.81,15.81,0,0,0,90.78,69.67Z"/><path class="cls-4" d="M108.8,61.2a2.27,2.27,0,0,1,.34.76,1.74,1.74,0,0,1,.17.85,2.94,2.94,0,0,1-1.06.34c-0.44.11-.75,0.18-1.13,0.29a11,11,0,0,0-2.18.68,1,1,0,0,0-.53.72,3.25,3.25,0,0,0,.27,1c0,0.09.09,0.15,0.12,0.23a8.2,8.2,0,0,0,.73,2.16,1,1,0,0,0,.58-0.12c0.4-.13.9-0.21,1.36-0.34a5.16,5.16,0,0,1,1.29-.23c0.09,0,.21,0,0.35.06a2.19,2.19,0,0,1,.35,0,1.68,1.68,0,0,1,.22.09c0.08,0,.17,0,0.23.06a2.65,2.65,0,0,1,.38.29,2.16,2.16,0,0,1,.7.84,16.29,16.29,0,0,1,.65,2.06c0.35,1.13.7,2.17,1.06,3.31,0.28,0.87.39,1.66,0.57,2.47a6.46,6.46,0,0,1,.26,1.21,2.89,2.89,0,0,1,0,.56,0.52,0.52,0,0,0-.12.3,0.8,0.8,0,0,0-.15.27,4.67,4.67,0,0,1-.72.72,13.23,13.23,0,0,1-2.5.83,3.09,3.09,0,0,1-2.29,0,2.63,2.63,0,0,1-1-.95,2,2,0,0,1-.36-1.25,2,2,0,0,1,.76-0.34A1.94,1.94,0,0,1,108,78a1.38,1.38,0,0,1,.28.6c0.1,0.18.24,0.22,0.32,0.38a1.45,1.45,0,0,0,1.18.08,7.41,7.41,0,0,0,.87-0.29c0.15-.07.32-0.11,0.42-0.18s0.06-.08.11-0.12,0.11,0,.15-0.08A0.58,0.58,0,0,0,111.5,78a4.31,4.31,0,0,0-.23-1.71c-0.28-1.1-.55-2.16-0.87-3.26-0.08-.28-0.16-0.55-0.25-0.81S110,71.63,110,71.39s-0.22-.53-0.31-0.84a1.86,1.86,0,0,0-.67-1,2,2,0,0,0-1.29.09c-0.22.07-.46,0.13-0.64,0.2a1.66,1.66,0,0,0-.66.51,1.76,1.76,0,0,1-.38.64,1.17,1.17,0,0,1-.56,0,3.71,3.71,0,0,1-1-.22,1.07,1.07,0,0,1-.41-0.27,5.68,5.68,0,0,1-.29-0.9c-0.12-.31-0.21-0.66-0.29-0.94-0.38-1.32-.7-2.48-1.14-3.77A3.38,3.38,0,0,1,102,63.1a0.86,0.86,0,0,1,.35-0.17c0.54-.18,1.09-0.29,1.62-0.47s1.09-.28,1.63-0.44A29.84,29.84,0,0,1,108.8,61.2Z"/><path class="cls-4" d="M72.27,76.63c-0.27-.92-0.51-1.79-0.74-2.75a3.31,3.31,0,0,0-.66-1.62,0.84,0.84,0,0,0-.38,0c-0.54.13-1.06,0.33-1.59,0.46a1.24,1.24,0,0,0-.91.42,1.19,1.19,0,0,0,.12.49c0.05,0.17.11,0.33,0.16,0.5a1.33,1.33,0,0,0,.27.62,0.81,0.81,0,0,0,.5-0.12,1.92,1.92,0,0,1,.65-0.18,7.91,7.91,0,0,1,.44,1.27c0.09,0.32.08,0.66,0.19,1a4.12,4.12,0,0,1,.19.69,16.5,16.5,0,0,0,.65,2.07c0.28,0.9.62,1.76,0.82,2.68s0.46,1.84.7,2.75,0.52,1.59.67,2.41l0.09,0.32,0.11,0.42h0c0.14,0.59.35,1.43,0.52,2s0,0.7.63,0.63a4.2,4.2,0,0,0,.89-0.21L76,90.38a0.36,0.36,0,0,0,.17-0.08,0.51,0.51,0,0,0,0-.37L76,89.48l-0.24-.84a2.37,2.37,0,0,0-.12-0.38,2.48,2.48,0,0,1-.14-0.43l-0.14-.5c-0.18-.63-0.35-1.26-0.5-1.9A6.1,6.1,0,0,0,74.4,84c-0.18-.65-0.36-1.3-0.52-2a6.05,6.05,0,0,0-.46-1.42c-0.24-.84-0.47-1.65-0.68-2.55A6,6,0,0,0,72.27,76.63Z"/><path class="cls-4" d="M100.61,68.46c-0.27-.92-0.51-1.79-0.74-2.75a3.31,3.31,0,0,0-.66-1.62,0.84,0.84,0,0,0-.38,0c-0.4.1-1.38,0.22-1.29,0.78a24,24,0,0,0,.93,2.68c0.09,0.32.08,0.66,0.19,1a4.1,4.1,0,0,1,.19.69,16.55,16.55,0,0,0,.65,2.07c0.09,0.28.17,0.57,0.28,0.84a0.69,0.69,0,0,1,0,.84c-0.28.2-.69,0.13-1,0.32a4.82,4.82,0,0,1-1.13.36,2.68,2.68,0,0,1-.83.28,1.58,1.58,0,0,1-.43-1.06c-0.14-.52-0.28-1.05-0.41-1.58a6,6,0,0,0-.46-1.42C95.27,69,95,68.13,94.8,67.17a3.31,3.31,0,0,0-.66-1.62,0.84,0.84,0,0,0-.38,0c-0.4.1-1.38,0.22-1.29,0.78a23.91,23.91,0,0,0,.93,2.68c0.09,0.32.08,0.66,0.19,1a4.13,4.13,0,0,1,.19.69,16.51,16.51,0,0,0,.65,2.07c0.22,0.72.36,1.51,0.63,2.21a1.07,1.07,0,0,0,1,.8,7.76,7.76,0,0,0,1.69-.28,1.92,1.92,0,0,0,.47-0.23A6.9,6.9,0,0,1,99,75.08a3.56,3.56,0,0,1,.6-0.19c0.28-.05.82-0.39,1,0a2.65,2.65,0,0,1,0,.35c0,0.18.09,0.35,0.14,0.52l0.28,1c0.21,0.8.52,1.59,0.67,2.41l0.09,0.32,0.11,0.42h0c0.14,0.59.35,1.43,0.52,2s0,0.7.63,0.63a4.2,4.2,0,0,0,.89-0.21l0.43-.16a0.36,0.36,0,0,0,.17-0.08,0.51,0.51,0,0,0,0-.37l-0.12-.45-0.24-.84a2.37,2.37,0,0,0-.12-0.38,2.48,2.48,0,0,1-.14-0.43l-0.14-.5c-0.18-.63-0.35-1.26-0.5-1.9a6.11,6.11,0,0,0-.46-1.42c-0.18-.65-0.36-1.3-0.52-2a6.06,6.06,0,0,0-.46-1.42c-0.24-.84-0.47-1.65-0.68-2.55A6,6,0,0,0,100.61,68.46Z"/><path class="cls-4" d="M127.65,56.11a0.94,0.94,0,0,0-.21-0.13,3.23,3.23,0,0,0-.85.14c-0.31.07-.63,0.18-0.89,0.26-0.43.12-.92,0.2-1.4,0.33l-1.45.4a9.63,9.63,0,0,0-2.07.75,3.62,3.62,0,0,0,.49,1.65,5.82,5.82,0,0,0,1-.23c1-.27,2.18-0.61,3.14-0.87,0.11,0,.22-0.1.32-0.13a3.94,3.94,0,0,1,.57,0,2.07,2.07,0,0,1,.5,1,4,4,0,0,1,.27,1.2,7.2,7.2,0,0,1-.26,1.13c-0.13.87-.39,1.72-0.54,2.59a3.45,3.45,0,0,0-.13,1,8,8,0,0,0-.28,1.58c-0.06.39-.13,0.81-0.18,1.2,0,0.13-.06.27-0.07,0.4a6.51,6.51,0,0,0,.21,2.16c0,0.15.06,0.31,0.11,0.45a1.62,1.62,0,0,0,.13.25,8.75,8.75,0,0,1,.21.89l0.09,0.32,0.11,0.42h0c0.14,0.59.35,1.43,0.52,2s0,0.7.63,0.63a4.21,4.21,0,0,0,.89-0.21l0.43-.16a0.36,0.36,0,0,0,.17-0.08,0.51,0.51,0,0,0,0-.37l-0.12-.45-0.24-.84a2.36,2.36,0,0,0-.12-0.38,2.47,2.47,0,0,1-.14-0.43l-0.14-.5-0.19-.69h0l-0.13-.3q-0.12-.45-0.23-0.9a10,10,0,0,1-.27-1.33,6.13,6.13,0,0,1,.15-1.11c0.05-.47.15-0.93,0.22-1.39a5.79,5.79,0,0,1,.09-0.59c0-.18.06-0.37,0.1-0.58s0.07-.38.1-0.58,0.15-.63.19-0.94h0l0-.11c0.13-.52.16-1,0.26-1.56a5.37,5.37,0,0,0,.2-1.61,16.71,16.71,0,0,0-.59-2.06c-0.09-.38-0.18-0.77-0.28-1.14A2.81,2.81,0,0,0,127.65,56.11Z"/></svg>