<svg id="Layer_1" data-name="Layer 1" xmlns="http://www.w3.org/2000/svg" viewBox="0 0 200 200"><defs><style>.cls-1{fill:#efefef;stroke:#2c3e50;stroke-miterlimit:10;stroke-width:3px;}.cls-2{fill:#2c3e50;}</style></defs><title>dont_buy_stolen</title><polygon class="cls-1" points="150 145.54 100 175 50 145.54 50 25 150 25 150 145.54"/><path class="cls-2" d="M83.88,143.8H77.76v-14h5.44a7.86,7.86,0,0,1,2.45.34,3.36,3.36,0,0,1,1.53.92,3.57,3.57,0,0,1,1,2.44,2.88,2.88,0,0,1-1,2.44,4.56,4.56,0,0,1-.52.35l-0.5.23a3.67,3.67,0,0,1,2.07,1.17,3.26,3.26,0,0,1,.77,2.21,3.76,3.76,0,0,1-1,2.58Q86.74,143.8,83.88,143.8Zm-3.76-8.18h3q2.56,0,2.56-1.74a1.64,1.64,0,0,0-.62-1.44,3.35,3.35,0,0,0-1.92-.44h-3v3.62Zm0,6h3.7a3.94,3.94,0,0,0,2-.41,1.65,1.65,0,0,0,.69-1.55q0-1.86-3-1.86h-3.4v3.82Z"/><path class="cls-2" d="M91.88,129.82h2.36v14H91.88v-14Z"/><path class="cls-2" d="M98.13,129.82h2.36v6.82l6.4-6.82h3l-5.62,6.12,5.7,7.86h-2.8l-4.64-6.12-2,2.2v3.92H98.13v-14Z"/><path class="cls-2" d="M122,129.82V132h-7.46v3.7h6.7v2.1h-6.7v3.74h7.7v2.22H112.21v-14H122Z"/><path class="cls-2" d="M123.64,69.58a17.08,17.08,0,0,0-6.59,1.32l-5.38-18H118c0.31,1.11.59,3-.33,3.91a1,1,0,1,0,1.46,1.46c2.34-2.35.64-6.6,0.57-6.78a1,1,0,0,0-1-.64h-8.41a1,1,0,0,0-.82.42,1,1,0,0,0-.16.91L113,64.49l-23.5,1-1.43-4.95a18.35,18.35,0,0,1,4.33-1.38c2.24-.14,3.88-0.14,4.18-0.37s0.23-2.31-4.55-2-4.39,0-9.62,0c-0.76,0-4.32,2.75.67,3a9.09,9.09,0,0,1,2.81.65l1.73,6-3.74,5.58a17.21,17.21,0,1,0,6.25,23.24,6.36,6.36,0,0,0,4.22,1.95v4.74a0.31,0.31,0,0,0,.34.23h2.7a0.35,0.35,0,0,0,.34-0.34v-0.62a0.34,0.34,0,0,0-.34-0.34h-1.5a0.34,0.34,0,0,1-.34-0.34V97.08A6.32,6.32,0,0,0,99.81,87l14.87-16.84,0.5,1.69A17.16,17.16,0,1,0,123.64,69.58Zm-35.29-.65,4.57,15.76a5.85,5.85,0,0,0-.67.21,17.14,17.14,0,0,0-6.68-11.83ZM84,75.35a14.41,14.41,0,0,1,5.63,11.41c0,0.06,0,.12,0,0.17a6.39,6.39,0,0,0-.88,1.57L76.94,86Zm-8.81,25.85a14.44,14.44,0,1,1,7.1-27l-7,10.46a2.2,2.2,0,0,0-.58-0.12,2.21,2.21,0,1,0,0,4.43,2.17,2.17,0,0,0,1.8-1l11.82,2.55c0,0.09,0,.16,0,0.25a6.34,6.34,0,0,0,.19,1.47A14.41,14.41,0,0,1,75.24,101.21ZM95.54,95V92.23a0.85,0.85,0,0,0,0-.34,1,1,0,0,1,.21-0.25,0.66,0.66,0,0,0,.14-0.45,0.91,0.91,0,0,0-1.82,0,0.66,0.66,0,0,0,.14.45,1,1,0,0,1,.21.25,0.85,0.85,0,0,0,0,.34v2.83A4.26,4.26,0,1,1,95.54,95Zm18.27-27L98.33,85.54A6.32,6.32,0,0,0,95,84.43L90.08,67.49l23.52-1,0.4,1.34A0.89,0.89,0,0,0,113.81,68Zm9.83,33.19A14.42,14.42,0,0,1,116,74.54a57.07,57.07,0,0,0,4.63,10.74,2.5,2.5,0,1,0,1.55-1.38,58.27,58.27,0,0,1-4.34-10.35A14.44,14.44,0,1,1,123.64,101.21Z"/></svg>