<svg id="Layer_1" data-name="Layer 1" xmlns="http://www.w3.org/2000/svg" viewBox="0 0 200 200"><defs><style>.cls-1{fill:#2c3e50;}</style></defs><title>dont_buy_stolen</title><path class="cls-1" d="M131.21,106.6a14.11,14.11,0,0,0-5.44,1.09l-1.55.77A14.18,14.18,0,1,0,131.21,106.6Zm0,24a9.76,9.76,0,0,1-4.81-18.25l1.06-.53A9.76,9.76,0,1,1,131.21,130.56Z"/><path class="cls-1" d="M124.48,107.76c0.74,2.28,2.92,8.54,5.41,12.57a2.93,2.93,0,1,0,1.82-1.62,68.16,68.16,0,0,1-5.07-12.11"/><path class="cls-1" d="M127.62,110.49l-11.8-43.08h9c0.37,1.3.69,3.48-.39,4.57a1.21,1.21,0,0,0,1.71,1.7c2.74-2.75.75-7.72,0.66-7.93a1.21,1.21,0,0,0-1.12-.75H114.2a1.22,1.22,0,0,0-1,.49,1.18,1.18,0,0,0-.19,1.06l5.81,22.29L91.36,90l-2.2,1-4.38,6.53a20.13,20.13,0,1,0,7.31,27.18A7.44,7.44,0,0,0,97,127v5.55a0.36,0.36,0,0,0,.4.27h3.16a0.41,0.41,0,0,0,.4-0.4v-0.73a0.4,0.4,0,0,0-.4-0.4H98.83a0.4,0.4,0,0,1-.4-0.4V127a7.39,7.39,0,0,0,5-11.81l17.39-19.7,4.6,16.12M90,94l5.35,18.44a6.84,6.84,0,0,0-.78.24,20,20,0,0,0-7.82-13.83Zm-5,7.51a16.85,16.85,0,0,1,6.58,13.35c0,0.07,0,.14,0,0.2a7.47,7.47,0,0,0-1,1.84l-13.85-3ZM74.69,131.79A16.89,16.89,0,1,1,83,100.21l-8.2,12.24a2.57,2.57,0,0,0-.67-0.14,2.59,2.59,0,1,0,0,5.18,2.54,2.54,0,0,0,2.1-1.16l13.83,3c0,0.1,0,.19,0,0.29a7.42,7.42,0,0,0,.22,1.72A16.86,16.86,0,0,1,74.69,131.79Zm23.74-7.24v-3.26a1,1,0,0,0,0-.4,1.13,1.13,0,0,1,.24-0.29,0.78,0.78,0,0,0,.17-0.52,1.07,1.07,0,0,0-2.13,0,0.78,0.78,0,0,0,.17.52,1.14,1.14,0,0,1,.24.29,1,1,0,0,0,0,.4v3.31A5,5,0,1,1,98.43,124.55ZM119.81,93l-18.1,20.5a7.39,7.39,0,0,0-3.9-1.29L92.06,92.36l27.51-1.13L120,92.79A1,1,0,0,0,119.81,93Zm7.81,21"/><path class="cls-1" d="M118.79,77.9a0.18,0.18,0,0,0-.18.24l3.33,12a0.35,0.35,0,0,0,.32.24h13.37a0.4,0.4,0,0,0,.34-0.23l4.78-12a0.16,0.16,0,0,0-.16-0.23h-21.8Zm15.14,9.18a0.25,0.25,0,0,1,.25-0.25H136a0.16,0.16,0,0,1,.16.23l-0.65,1.65a0.4,0.4,0,0,1-.34.23h-1a0.25,0.25,0,0,1-.25-0.25V87.08Zm0-4.29a0.25,0.25,0,0,1,.25-0.25h3.39a0.16,0.16,0,0,1,.16.23l-0.86,2.35a0.39,0.39,0,0,1-.34.23h-2.35a0.25,0.25,0,0,1-.25-0.25V82.79Zm0-3.4a0.25,0.25,0,0,1,.25-0.25h4.64a0.16,0.16,0,0,1,.16.23l-0.54,1.46a0.39,0.39,0,0,1-.34.23h-3.93a0.25,0.25,0,0,1-.25-0.25V79.39Zm-5.39,7.69a0.25,0.25,0,0,1,.25-0.25h3.42a0.25,0.25,0,0,1,.25.25v1.61a0.25,0.25,0,0,1-.25.25h-3.42a0.25,0.25,0,0,1-.25-0.25V87.08Zm0-4.29a0.25,0.25,0,0,1,.25-0.25h3.42a0.25,0.25,0,0,1,.25.25V85.1a0.25,0.25,0,0,1-.25.25h-3.42a0.25,0.25,0,0,1-.25-0.25V82.79Zm0-3.4a0.25,0.25,0,0,1,.25-0.25h3.42a0.25,0.25,0,0,1,.25.25v1.43a0.25,0.25,0,0,1-.25.25h-3.42a0.25,0.25,0,0,1-.25-0.25V79.39Zm-5.94,7.68a0.17,0.17,0,0,1,.18-0.24h4a0.25,0.25,0,0,1,.25.25v1.61a0.25,0.25,0,0,1-.25.25h-3.4a0.36,0.36,0,0,1-.32-0.24Zm-1.32-4.29a0.17,0.17,0,0,1,.18-0.24h5.36a0.25,0.25,0,0,1,.25.25V85.1a0.25,0.25,0,0,1-.25.25h-4.5a0.36,0.36,0,0,1-.32-0.24ZM121,81.06a0.36,0.36,0,0,1-.32-0.24l-0.44-1.45a0.17,0.17,0,0,1,.18-0.24h6.41a0.25,0.25,0,0,1,.25.25v1.43a0.25,0.25,0,0,1-.25.25H121Z"/><path class="cls-1" d="M91.93,92.3l-3.7-10.57c1.06-.85,2.34-2.22,3.53-2.49,2-.45,3.5-0.6,3.73-1s-0.2-3.69-4.49-2.73-8.55-.19-10.13,1.21c-1,.87-2.07,4.57,2.51,4.42a5.46,5.46,0,0,1,2.67.75h0l4,11.08"/></svg>