<svg id="Layer_1" data-name="Layer 1" xmlns="http://www.w3.org/2000/svg" viewBox="0 0 200 200"><defs><style>.cls-1{fill:#fff;}.cls-2{fill:#e64c3c;}.cls-3{fill:#2c3e50;}</style></defs><title>dont_buy_stolen</title><rect class="cls-1" x="56.6" y="72.42" width="86.82" height="45.92"/><path class="cls-2" d="M65.35,80.63a1.94,1.94,0,1,1-1.93,1.93A1.94,1.94,0,0,1,65.35,80.63Z"/><path class="cls-3" d="M72.91,82.52h2.18v3.93H74.44l-0.25-.58a1.55,1.55,0,0,1-1.34.69,1.78,1.78,0,0,1-1.78-2v-4a1.84,1.84,0,0,1,2-2,1.94,1.94,0,0,1,2,2.13V81.2H73.76c0-1.16-.24-1.46-0.76-1.46-0.32,0-.59.19-0.59,0.85v4a0.65,0.65,0,0,0,.62.82c0.54,0,.73-0.3.73-1.07V83.57H72.91V82.52Z"/><path class="cls-3" d="M77.77,86.45H76.44V78.69h1.87c1.49,0,2.26.63,2.26,2.29a1.89,1.89,0,0,1-.94,2l1.13,3.51H79.41l-0.95-3.21a6.45,6.45,0,0,1-.69,0v3.18Zm0-4.28h0.47c0.72,0,1-.27,1-1.19s-0.27-1.19-1-1.19H77.77v2.39Z"/><path class="cls-3" d="M82.58,79.85H81.29V78.69h3.91v1.16H83.92v6.6H82.58v-6.6Z"/><path class="cls-3" d="M88.37,78.69h2a1.82,1.82,0,0,1,2.06,2.05,1.67,1.67,0,0,1-.92,1.62,1.78,1.78,0,0,1,1.07,1.84,2,2,0,0,1-2.08,2.25H88.37V78.69Zm1.33,3.18h0.48a1.06,1.06,0,0,0,0-2.08H89.7v2.08Zm0,3.48h0.56c0.71,0,1-.41,1-1.19A1,1,0,0,0,90.13,83H89.7v2.39Z"/><path class="cls-3" d="M96.15,86.45H94.82V83.22l-1.61-4.53h1.35l0.93,3h0l0.89-3h1.35l-1.61,4.53v3.22Z"/><path class="cls-3" d="M101.2,81.28v-0.6a0.76,0.76,0,0,0-.64-0.94c-0.54,0-.71.28-0.71,0.86v3.93c0,0.58.17,0.86,0.71,0.86a0.62,0.62,0,0,0,.64-0.78V83.68h1.33v0.89a2,2,0,0,1-4,0v-4a1.86,1.86,0,0,1,2-2,1.92,1.92,0,0,1,2,2.13v0.57H101.2Z"/><path class="cls-3" d="M106.29,86.45H105V83.22l-1.61-4.53h1.35l0.93,3h0l0.89-3h1.35l-1.61,4.53v3.22Z"/><path class="cls-3" d="M111.34,81.28v-0.6a0.76,0.76,0,0,0-.64-0.94c-0.54,0-.71.28-0.71,0.86v3.93c0,0.58.17,0.86,0.71,0.86a0.62,0.62,0,0,0,.64-0.78V83.68h1.33v0.89a2,2,0,0,1-4,0v-4a1.86,1.86,0,0,1,2-2,1.92,1.92,0,0,1,2,2.13v0.57h-1.33Z"/><path class="cls-3" d="M114,86.45V78.69h1.33v6.6h2.1v1.16H114Z"/><path class="cls-3" d="M118.2,86.45V78.69h3.57v1.16h-2.23v2h1.72V83h-1.72v2.28h2.39v1.16H118.2Z"/><path class="cls-3" d="M127.2,84.58h-2.32v-1l2.26-4.9h1.29v4.9h0.71v1h-0.71v1.87H127.2V84.58Zm0-1v-3h0l-1.3,3h1.32Z"/><path class="cls-3" d="M132.51,78.69h1.33v5.86a0.72,0.72,0,1,0,1.42,0V78.69h1.33v5.8a2,2,0,1,1-4.08,0v-5.8Z"/><path class="cls-2" d="M65.35,95.92a1.94,1.94,0,1,1-1.93,1.93A1.94,1.94,0,0,1,65.35,95.92Z"/><path class="cls-3" d="M73.5,95.89A0.76,0.76,0,0,0,72.79,95a0.65,0.65,0,0,0-.67.76c0,1.32,2.71,2,2.71,4.06a1.9,1.9,0,0,1-2.11,2,2,2,0,0,1-2-2.15L72,99.51c0.05,0.78.37,1.17,0.8,1.17a0.68,0.68,0,0,0,.77-0.71c0-1.54-2.71-1.94-2.71-4.17a1.82,1.82,0,0,1,2.06-1.93,1.86,1.86,0,0,1,1.85,1.88Z"/><path class="cls-3" d="M75.84,101.73V94h1.33v3.16h1.42V94h1.33v7.76H78.59V98.3H77.17v3.44H75.84Z"/><path class="cls-3" d="M83.52,94h1.1l0.9,4.94h0L86.28,94h1.25l-1.36,7.76H85l-1-5.13h0l-0.9,5.13H82L80.56,94h1.25l0.82,4.94h0Z"/><path class="cls-3" d="M88.56,101.73V94h1.33v7.76H88.56Z"/><path class="cls-3" d="M91.36,101.73V94h1.24l1.62,4.44h0V94h1.2v7.76H94.28l-1.7-4.85h0v4.85h-1.2Z"/><path class="cls-3" d="M101.83,94h1.31l-1.62,7.76h-1.33L98.56,94h1.31l1,5.38h0Z"/><path class="cls-3" d="M104.06,101.73V94h1.33v7.76h-1.33Z"/><path class="cls-3" d="M106.87,101.73V94h1.24l1.62,4.44h0V94H111v7.76h-1.16l-1.7-4.85h0v4.85h-1.2Z"/><path class="cls-3" d="M113,95.14h-1.29V94h3.91v1.16h-1.29v6.6H113v-6.6Z"/><path class="cls-3" d="M117,101.73h-1.29L117.14,94h1.65l1.43,7.76h-1.29L118.7,100h-1.46Zm0.43-2.88h1.07L118,95.52h0Z"/><path class="cls-3" d="M122.83,97.8H125v3.93h-0.64l-0.25-.58a1.55,1.55,0,0,1-1.34.69,1.78,1.78,0,0,1-1.78-2v-4a1.84,1.84,0,0,1,2-2,1.94,1.94,0,0,1,2,2.13v0.49h-1.27c0-1.16-.24-1.46-0.76-1.46-0.32,0-.59.19-0.59,0.85v4c0,0.49.16,0.82,0.62,0.82s0.73-.3.73-1.07V98.85h-0.85V97.8Z"/><path class="cls-3" d="M126.36,101.73V94h3.57v1.16H127.7v2h1.72V98.3H127.7v2.28h2.39v1.16h-3.72Z"/><path class="cls-3" d="M76.26,104.72v7.76H75.1v-6.06h0l-1.2,6.06H73.23L72,106.41h0v6.06H70.84v-7.76H72.6l0.95,4.53h0l0.95-4.53h1.75Z"/><path class="cls-3" d="M77.48,106.6a2,2,0,0,1,4.08,0v4a2,2,0,0,1-4.08,0v-4Zm1.33,4c0,0.58.17,0.86,0.71,0.86s0.71-.28.71-0.86v-3.93c0-.58-0.17-0.86-0.71-0.86s-0.71.28-.71,0.86v3.93Z"/><path class="cls-3" d="M82.85,104.72h1.33v5.86a0.72,0.72,0,1,0,1.42,0v-5.86h1.33v5.8a2,2,0,1,1-4.08,0v-5.8Z"/><path class="cls-3" d="M88.22,112.47v-7.76h1.24l1.62,4.44h0v-4.44h1.2v7.76H91.14l-1.7-4.85h0v4.85h-1.2Z"/><path class="cls-3" d="M94.37,105.88H93.08v-1.16H97v1.16H95.7v6.6H94.37v-6.6Z"/><path class="cls-3" d="M100.15,104.72h2a1.82,1.82,0,0,1,2.06,2.05,1.67,1.67,0,0,1-.92,1.62,1.78,1.78,0,0,1,1.07,1.84,2,2,0,0,1-2.08,2.25h-2.11v-7.76Zm1.33,3.18H102a1.06,1.06,0,0,0,0-2.08h-0.51v2.08Zm0,3.48H102c0.71,0,1-.41,1-1.19a1,1,0,0,0-1.1-1.19h-0.43v2.39Z"/><path class="cls-3" d="M105.71,112.47v-7.76H107v7.76h-1.33Z"/><path class="cls-3" d="M108.45,112.47v-7.76h1.33v2.87h0l1.4-2.87h1.33l-1.44,2.89,1.62,4.87h-1.35l-1.09-3.61h0l-0.47.86v2.75h-1.33Z"/><path class="cls-3" d="M113.28,112.47v-7.76h3.57v1.16h-2.23v2h1.72V109h-1.72v2.28H117v1.16h-3.72Z"/><path class="cls-3" d="M139.6,65H60.4A6.42,6.42,0,0,0,54,71.41v47.94a6.42,6.42,0,0,0,6.41,6.41h79.2a6.42,6.42,0,0,0,6.41-6.41V71.41A6.42,6.42,0,0,0,139.6,65Zm3,54.34a3,3,0,0,1-3,3H60.4a3,3,0,0,1-3-3V71.41a3,3,0,0,1,3-3h79.2a3,3,0,0,1,3,3v47.94Z"/><rect class="cls-3" x="56.6" y="67.56" width="86.82" height="4.86"/><rect class="cls-3" x="56.6" y="118.33" width="86.82" height="4.86"/><rect class="cls-3" x="92.58" y="123.19" width="14.83" height="9.37"/><rect class="cls-3" x="83.82" y="131.57" width="32.36" height="3.43"/></svg>