<svg id="Layer_1" data-name="Layer 1" xmlns="http://www.w3.org/2000/svg" viewBox="0 0 200 200"><defs><style>.cls-1,.cls-3{fill:#2c3e50;}.cls-2{fill:#fff;}.cls-3{stroke:#2c3e50;}.cls-3,.cls-4{stroke-miterlimit:10;}.cls-4{fill:none;stroke:#e64c3c;stroke-width:2px;}</style></defs><title>dont_buy_stolen</title><path class="cls-1" d="M139.6,65H60.4A6.42,6.42,0,0,0,54,71.41v47.94a6.42,6.42,0,0,0,6.41,6.41h79.2a6.42,6.42,0,0,0,6.41-6.41V71.41A6.42,6.42,0,0,0,139.6,65Zm3,54.34a3,3,0,0,1-3,3H60.4a3,3,0,0,1-3-3V71.41a3,3,0,0,1,3-3h79.2a3,3,0,0,1,3,3v47.94Z"/><rect class="cls-1" x="56.6" y="67.56" width="86.82" height="4.86"/><rect class="cls-1" x="56.6" y="118.33" width="86.82" height="4.86"/><rect class="cls-1" x="92.58" y="123.19" width="14.83" height="9.37"/><rect class="cls-1" x="83.82" y="131.57" width="32.36" height="3.43"/><rect class="cls-2" x="56.6" y="72.42" width="85.98" height="46.93"/><path class="cls-1" d="M73,81.13A1,1,0,0,0,72,80a0.87,0.87,0,0,0-.89,1c0,1.76,3.61,2.61,3.61,5.41a2.53,2.53,0,0,1-2.81,2.65,2.73,2.73,0,0,1-2.66-2.87L71,86c0.07,1,.49,1.56,1.06,1.56a0.91,0.91,0,0,0,1-.95c0-2-3.61-2.59-3.61-5.56a2.42,2.42,0,0,1,2.75-2.58,2.48,2.48,0,0,1,2.46,2.51Z"/><path class="cls-1" d="M76.09,88.92V78.58h4.76v1.55h-3v2.66h2.29v1.55H77.87v3H81v1.55h-5Z"/><path class="cls-1" d="M82.36,88.92V78.58h1.78v8.8h2.79v1.55H82.36Z"/><path class="cls-1" d="M87.93,88.92V78.58h1.78v8.8H92.5v1.55H87.93Z"/><path class="cls-1" d="M93.59,88.92V78.58h4.76v1.55h-3v2.66h2.29v1.55H95.36v3h3.18v1.55h-5Z"/><path class="cls-1" d="M101.72,88.92H99.94V78.58h2.49c2,0,3,.84,3,3.05,0,1.66-.64,2.33-1.25,2.61l1.5,4.68H103.9l-1.26-4.28a8.47,8.47,0,0,1-.92,0v4.24Zm0-5.7h0.63c1,0,1.32-.36,1.32-1.59S103.31,80,102.35,80h-0.63v3.18Z"/><path class="cls-1" d="M108.78,80.73h-1.4v-1a10.82,10.82,0,0,0,2.11-1.33h0.9V88.92h-1.6V80.73Z"/><path class="cls-1" d="M112.08,88.92V87.53c2.21-3.22,3.41-5,3.41-6.52,0-.82-0.32-1.17-0.8-1.17a0.91,0.91,0,0,0-.86,1.07v0.7h-1.69V81.13a2.53,2.53,0,0,1,2.64-2.69,2.31,2.31,0,0,1,2.41,2.29c0,1.63-.52,2.84-3.29,6.73H117v1.46h-4.94Z"/><path class="cls-1" d="M119.79,85.93v0.7a0.84,0.84,0,0,0,.8,1c0.52,0,.85-0.36.85-1.22V85.65c0-1.12-.43-1.46-1.52-1.46v-1.4c1,0,1.45-.34,1.45-1.58,0-1-.19-1.38-0.72-1.38s-0.8.24-.8,1.06v0.43h-1.6V80.84a2.25,2.25,0,0,1,2.42-2.41A2.38,2.38,0,0,1,123,81.08c0,1.2-.2,1.88-1.12,2.38,1,0.54,1.27,1.16,1.27,2.56,0,2.06-.82,3-2.58,3-1.48,0-2.36-.75-2.36-2.52V85.93h1.6Z"/><path class="cls-1" d="M69.49,101.19V93.81h1.82c1.56,0,2.29.6,2.29,2.18s-0.73,2.18-2.29,2.18H70.76v3H69.49Zm1.27-4.07h0.49c0.83,0,1.08-.26,1.08-1.13s-0.26-1.13-1.08-1.13H70.76v2.27Z"/><path class="cls-1" d="M74.6,101.19V93.81h1.27v3h1.35v-3h1.27v7.38H77.22V97.92H75.87v3.27H74.6Z"/><path class="cls-1" d="M79.72,95.6a1.94,1.94,0,0,1,3.88,0v3.8a1.94,1.94,0,0,1-3.88,0V95.6ZM81,99.37c0,0.55.16,0.82,0.67,0.82s0.67-.27.67-0.82V95.63c0-.55-0.16-0.82-0.67-0.82S81,95.08,81,95.63v3.74Z"/><path class="cls-1" d="M84.83,101.19V93.81H86L87.55,98h0V93.81h1.14v7.38h-1.1L86,96.58h0v4.61H84.83Z"/><path class="cls-1" d="M89.94,101.19V93.81h3.39v1.1H91.21v1.9h1.64v1.1H91.21v2.17h2.27v1.1H89.94Z"/><path class="cls-1" d="M94.4,98.35V97.14h1.21v1.21H94.4Zm0,2.84V100h1.21v1.21H94.4Z"/><path class="cls-1" d="M69.49,113.46v-7.38h3.39v1.1H70.76v1.9h1.64v1.1H70.76v2.17H73v1.1H69.49Z"/><path class="cls-1" d="M79.11,106.08v7.38H78V107.7h0l-1.14,5.76H76.23l-1.14-5.76h0v5.76H74v-7.38h1.67l0.9,4.31h0l0.9-4.31h1.67Z"/><path class="cls-1" d="M81,113.46H79.79l1.36-7.38h1.57l1.36,7.38H82.85l-0.22-1.64H81.24Zm0.41-2.74h1l-0.5-3.17h0Z"/><path class="cls-1" d="M85,113.46v-7.38h1.27v7.38H85Z"/><path class="cls-1" d="M87.6,113.46v-7.38h1.27v6.28h2v1.1H87.6Z"/><path class="cls-1" d="M91.56,110.62v-1.21h1.21v1.21H91.56Zm0,2.84v-1.21h1.21v1.21H91.56Z"/><line class="cls-3" x1="99.29" y1="100.85" x2="130.72" y2="100.85"/><line class="cls-3" x1="99.29" y1="113.99" x2="130.72" y2="113.99"/><line class="cls-4" x1="63.96" y1="111.8" x2="136.04" y2="79.44"/></svg>