<svg id="Layer_1" data-name="Layer 1" xmlns="http://www.w3.org/2000/svg" viewBox="0 0 200 200"><defs><style>.cls-1{fill:#2c3e50;}.cls-2{fill:#e64c3c;}</style></defs><title>dont_buy_stolen</title><path class="cls-1" d="M116.74,96.78a11.79,11.79,0,0,0-4.55.91l-3.71-12.46h4.34c0.22,0.77.41,2.06-.23,2.7a0.71,0.71,0,1,0,1,1c1.62-1.62.44-4.56,0.39-4.68a0.71,0.71,0,0,0-.66-0.44h-5.8a0.72,0.72,0,0,0-.57.29,0.7,0.7,0,0,0-.11.63l2.55,8.54-16.22.67-1-3.41a12.66,12.66,0,0,1,3-1A14,14,0,0,0,98,89.31c0.2-.16.16-1.6-3.14-1.39s-3,0-6.64,0c-0.53,0-3,1.9.46,2.06a6.27,6.27,0,0,1,1.94.45l1.19,4.11L89.28,98.4a11.88,11.88,0,1,0,4.32,16,4.39,4.39,0,0,0,2.91,1.34v3.27a0.21,0.21,0,0,0,.24.16h1.87a0.24,0.24,0,0,0,.24-0.24v-0.43a0.24,0.24,0,0,0-.24-0.24h-1a0.24,0.24,0,0,1-.24-0.23v-2.32a4.36,4.36,0,0,0,3-7l10.26-11.63,0.35,1.17A11.84,11.84,0,1,0,116.74,96.78Zm-24.36-.45,3.15,10.88a4,4,0,0,0-.46.14,11.83,11.83,0,0,0-4.61-8.16Zm-3,4.43a10,10,0,0,1,3.88,7.88s0,0.08,0,.12a4.41,4.41,0,0,0-.61,1.09l-8.17-1.76Zm-6.08,17.84A10,10,0,1,1,88.23,100l-4.84,7.22a1.52,1.52,0,0,0-.4-0.08,1.53,1.53,0,1,0,0,3.06,1.5,1.5,0,0,0,1.24-.69l8.16,1.76c0,0.06,0,.11,0,0.17a4.38,4.38,0,0,0,.13,1A10,10,0,0,1,83.33,118.61Zm14-4.27v-1.92a0.59,0.59,0,0,0,0-.24,0.67,0.67,0,0,1,.14-0.17,0.46,0.46,0,0,0,.1-0.31,0.63,0.63,0,0,0-1.26,0,0.46,0.46,0,0,0,.1.31,0.67,0.67,0,0,1,.14.17,0.58,0.58,0,0,0,0,.24v2A2.94,2.94,0,1,1,97.34,114.33ZM110,95.69l-10.68,12.1A4.36,4.36,0,0,0,97,107L93.58,95.34l16.23-.67,0.28,0.92A0.61,0.61,0,0,0,110,95.69Zm6.79,22.91a10,10,0,0,1-5.27-18.41,39.39,39.39,0,0,0,3.2,7.42,1.73,1.73,0,1,0,1.07-1,40.22,40.22,0,0,1-3-7.14A10,10,0,1,1,116.74,118.61Z"/><path class="cls-1" d="M32.27,133a2.4,2.4,0,0,0,1-.2,3.52,3.52,0,0,0,.89-0.64l0.74,0.76a3.4,3.4,0,0,1-2.62,1.2,3.51,3.51,0,0,1-2.56-1,3.6,3.6,0,0,1,0-5,3.59,3.59,0,0,1,2.62-1A3.42,3.42,0,0,1,35,128.21l-0.73.8a3.19,3.19,0,0,0-.92-0.65,2.57,2.57,0,0,0-1-.18,2.41,2.41,0,0,0-1.73.67,2.25,2.25,0,0,0-.7,1.7,2.35,2.35,0,0,0,.69,1.73A2.25,2.25,0,0,0,32.27,133Z"/><path class="cls-1" d="M37.29,132.46L36.61,134H35.38l3-6.79H39.6l3,6.79H41.37l-0.68-1.55h-3.4Zm2.94-1.06L39,128.6l-1.23,2.8h2.47Z"/><path class="cls-1" d="M49,129.41a2,2,0,0,1-1.47,2.12L49.27,134H47.81l-1.62-2.28H44.68V134H43.54v-6.79h2.53a3.66,3.66,0,0,1,2.23.52A2,2,0,0,1,49,129.41Zm-1.53,1a1.21,1.21,0,0,0,.35-1,1,1,0,0,0-.36-0.91,2.39,2.39,0,0,0-1.28-.25H44.68v2.43h1.43A2.1,2.1,0,0,0,47.44,130.38Z"/><path class="cls-1" d="M53.59,134h-3v-6.79h2.64a3.81,3.81,0,0,1,1.19.17,1.64,1.64,0,0,1,.74.45,1.74,1.74,0,0,1,.47,1.19,1.4,1.4,0,0,1-.51,1.19l-0.25.17-0.24.11a1.78,1.78,0,0,1,1,.57,1.58,1.58,0,0,1,.37,1.07,1.83,1.83,0,0,1-.49,1.25A2.56,2.56,0,0,1,53.59,134Zm-1.83-4h1.46q1.24,0,1.24-.85a0.8,0.8,0,0,0-.3-0.7,1.63,1.63,0,0,0-.93-0.21H51.76V130Zm0,2.92h1.8a1.91,1.91,0,0,0,1-.2,0.8,0.8,0,0,0,.34-0.75q0-.9-1.45-0.9H51.76v1.86Z"/><path class="cls-1" d="M63.16,133.06a3.73,3.73,0,0,1-5.09,0,3.57,3.57,0,0,1,0-5,3.73,3.73,0,0,1,5.09,0A3.57,3.57,0,0,1,63.16,133.06Zm-0.84-4.25a2.38,2.38,0,0,0-3.41,0,2.54,2.54,0,0,0,0,3.49,2.38,2.38,0,0,0,3.41,0A2.54,2.54,0,0,0,62.32,128.81Z"/><path class="cls-1" d="M70.74,127.21h1.15V134H70.64l-3.85-5v5H65.64v-6.79h1.15l3.95,5.07v-5.07Z"/><path class="cls-1" d="M81.86,129.41a2,2,0,0,1-1.47,2.12L82.17,134H80.71l-1.62-2.28H77.58V134H76.43v-6.79H79a3.66,3.66,0,0,1,2.23.52A2,2,0,0,1,81.86,129.41Zm-1.53,1a1.21,1.21,0,0,0,.35-1,1,1,0,0,0-.36-0.91,2.39,2.39,0,0,0-1.28-.25H77.58v2.43H79A2.1,2.1,0,0,0,80.33,130.38Z"/><path class="cls-1" d="M84.47,132.46L83.79,134H82.57l3-6.79h1.22l3,6.79H88.55l-0.68-1.55h-3.4Zm2.94-1.06-1.23-2.8-1.23,2.8h2.47Z"/><path class="cls-1" d="M93.82,133a2.4,2.4,0,0,0,1-.2,3.52,3.52,0,0,0,.89-0.64l0.74,0.76a3.4,3.4,0,0,1-2.62,1.2,3.51,3.51,0,0,1-2.56-1,3.6,3.6,0,0,1,0-5,3.59,3.59,0,0,1,2.62-1,3.42,3.42,0,0,1,2.64,1.17l-0.73.8a3.19,3.19,0,0,0-.92-0.65,2.57,2.57,0,0,0-1-.18,2.41,2.41,0,0,0-1.73.67,2.25,2.25,0,0,0-.7,1.7,2.35,2.35,0,0,0,.69,1.73A2.25,2.25,0,0,0,93.82,133Z"/><path class="cls-1" d="M97.88,127.21H99V134H97.88v-6.79Z"/><path class="cls-1" d="M106,127.21h1.15V134h-1.24l-3.85-5v5h-1.15v-6.79h1.15l3.95,5.07v-5.07Z"/><path class="cls-1" d="M113.74,130.7h1.15V133a3.53,3.53,0,0,1-2.75,1.06,3.47,3.47,0,0,1-2.52-1,3.6,3.6,0,0,1,0-5,3.45,3.45,0,0,1,2.5-1,3.56,3.56,0,0,1,2.44.86l-0.61.87a2.39,2.39,0,0,0-.8-0.47,3,3,0,0,0-.94-0.13,2.41,2.41,0,0,0-1.73.67,2.39,2.39,0,0,0,1.63,4.15,2.94,2.94,0,0,0,1.62-.42V130.7Z"/><path class="cls-1" d="M122,134h-3v-6.79h2.64a3.81,3.81,0,0,1,1.19.17,1.64,1.64,0,0,1,.74.45,1.74,1.74,0,0,1,.47,1.19,1.4,1.4,0,0,1-.51,1.19l-0.25.17-0.24.11a1.78,1.78,0,0,1,1,.57,1.58,1.58,0,0,1,.37,1.07,1.83,1.83,0,0,1-.49,1.25A2.56,2.56,0,0,1,122,134Zm-1.83-4h1.46q1.24,0,1.24-.85a0.8,0.8,0,0,0-.3-0.7,1.63,1.63,0,0,0-.93-0.21H120.2V130Zm0,2.92H122a1.91,1.91,0,0,0,1-.2,0.8,0.8,0,0,0,.34-0.75q0-.9-1.45-0.9H120.2v1.86Z"/><path class="cls-1" d="M125.92,127.21h1.15V134h-1.15v-6.79Z"/><path class="cls-1" d="M129,127.21h1.15v3.31l3.11-3.31h1.46l-2.73,3,2.77,3.82h-1.36l-2.26-3-1,1.07V134H129v-6.79Z"/><path class="cls-1" d="M140.57,127.21v1.08h-3.63v1.8h3.26v1h-3.26v1.82h3.74V134H135.8v-6.79h4.77Z"/><path class="cls-1" d="M142.12,131.49a0.71,0.71,0,0,1-.21-0.52,0.71,0.71,0,0,1,.72-0.72,0.71,0.71,0,0,1,.52.21,0.69,0.69,0,0,1,.21.51,0.73,0.73,0,0,1-.73.73A0.69,0.69,0,0,1,142.12,131.49Zm0,2.38a0.71,0.71,0,0,1-.21-0.52,0.71,0.71,0,0,1,.72-0.72,0.71,0.71,0,0,1,.52.21,0.69,0.69,0,0,1,.21.51,0.73,0.73,0,0,1-.73.73A0.69,0.69,0,0,1,142.12,133.87Z"/><path class="cls-1" d="M149.47,134.7V134a4.22,4.22,0,0,1-2.39-1.06l0.71-.85a3.37,3.37,0,0,0,1.68.85V131a4,4,0,0,1-1.61-.69,1.56,1.56,0,0,1-.51-1.27,1.77,1.77,0,0,1,.59-1.38,2.38,2.38,0,0,1,1.53-.58v-0.49h0.62v0.5a4.06,4.06,0,0,1,2,.73l-0.63.89a3.14,3.14,0,0,0-1.39-.56V130h0a3.94,3.94,0,0,1,1.64.71,1.61,1.61,0,0,1,.52,1.3,1.76,1.76,0,0,1-.6,1.38,2.5,2.5,0,0,1-1.59.58v0.7h-0.62Zm-0.69-6.27a0.69,0.69,0,0,0-.25.54,0.69,0.69,0,0,0,.19.52,2,2,0,0,0,.74.36v-1.68A1.16,1.16,0,0,0,148.79,128.43Zm2,4.26a0.75,0.75,0,0,0,.06-1.1,2.12,2.12,0,0,0-.8-0.37V133A1.36,1.36,0,0,0,150.83,132.69Z"/><path class="cls-1" d="M156.35,129.86a1.36,1.36,0,0,0,.29-0.81,0.91,0.91,0,0,0-.31-0.7,1.12,1.12,0,0,0-.79-0.29,1.62,1.62,0,0,0-1.39.86l-0.92-.53a3.39,3.39,0,0,1,1-1,2.57,2.57,0,0,1,1.39-.34,2.25,2.25,0,0,1,1.49.54,1.82,1.82,0,0,1,.64,1.47,2,2,0,0,1-.27,1,6.73,6.73,0,0,1-1,1.23l-1.59,1.62H158V134H153.3v-1l2.06-2.07A11,11,0,0,0,156.35,129.86Z"/><path class="cls-1" d="M159.73,133.12a5.1,5.1,0,0,1,0-5.12,2.74,2.74,0,0,1,4.16,0,5.1,5.1,0,0,1,0,5.12A2.74,2.74,0,0,1,159.73,133.12Zm0.82-4.4a4.39,4.39,0,0,0,0,3.67,1.35,1.35,0,0,0,1.26.7,1.33,1.33,0,0,0,1.25-.7,4.51,4.51,0,0,0,0-3.68,1.33,1.33,0,0,0-1.25-.7A1.35,1.35,0,0,0,160.55,128.72Z"/><path class="cls-1" d="M166.42,133.12a5.1,5.1,0,0,1,0-5.12,2.74,2.74,0,0,1,4.16,0,5.1,5.1,0,0,1,0,5.12A2.74,2.74,0,0,1,166.42,133.12Zm0.82-4.4a4.39,4.39,0,0,0,0,3.67,1.35,1.35,0,0,0,1.26.7,1.33,1.33,0,0,0,1.25-.7,4.51,4.51,0,0,0,0-3.68,1.33,1.33,0,0,0-1.25-.7A1.35,1.35,0,0,0,167.24,128.72Z"/><path class="cls-2" d="M100,75.69a1,1,0,0,1-1-1V66.3a1,1,0,1,1,2,0v8.39A1,1,0,0,1,100,75.69Z"/><path class="cls-2" d="M114.45,77.35a1,1,0,0,1-.87-1.5l4.19-7.27a1,1,0,1,1,1.73,1l-4.19,7.27A1,1,0,0,1,114.45,77.35Z"/><path class="cls-2" d="M128.36,84.62a1,1,0,0,1-.5-1.87l7.27-4.19a1,1,0,1,1,1,1.73l-7.27,4.19A1,1,0,0,1,128.36,84.62Z"/><path class="cls-2" d="M85.61,77.35a1,1,0,0,1-.87-0.5l-4.2-7.27a1,1,0,0,1,1.73-1l4.2,7.27A1,1,0,0,1,85.61,77.35Z"/><path class="cls-2" d="M69.85,84.06a1,1,0,0,1-.5-0.13l-7.27-4.19a1,1,0,1,1,1-1.73l7.27,4.19A1,1,0,0,1,69.85,84.06Z"/><path class="cls-2" d="M62.58,101.09H54.19a1,1,0,1,1,0-2h8.39A1,1,0,1,1,62.58,101.09Z"/><path class="cls-2" d="M145.88,101.09h-8.39a1,1,0,1,1,0-2h8.39A1,1,0,1,1,145.88,101.09Z"/></svg>