<svg id="Layer_1" data-name="Layer 1" xmlns="http://www.w3.org/2000/svg" viewBox="0 0 200 200"><defs><style>.cls-1{fill:#efefef;stroke:#2c3e50;stroke-miterlimit:10;stroke-width:3px;}.cls-2{fill:#2c3e50;}.cls-3{fill:#fff;}</style></defs><title>dont_buy_stolen</title><polygon class="cls-1" points="150 145.54 100 175 50 145.54 50 25 150 25 150 145.54"/><path class="cls-2" d="M68.19,131.66a3.1,3.1,0,0,0-1.69.42,1.4,1.4,0,0,0-.66,1.27,1.48,1.48,0,0,0,.66,1.3,10,10,0,0,0,2.81,1,7.73,7.73,0,0,1,3.24,1.46,3.46,3.46,0,0,1,1.09,2.77,3.67,3.67,0,0,1-1.38,3A5.5,5.5,0,0,1,68.64,144a8.5,8.5,0,0,1-5.82-2.26l1.48-1.78a6.67,6.67,0,0,0,4.4,1.84,3,3,0,0,0,1.81-.49,1.53,1.53,0,0,0,.67-1.3,1.46,1.46,0,0,0-.63-1.26,6.62,6.62,0,0,0-2.17-.82,19.51,19.51,0,0,1-2.34-.68,5.27,5.27,0,0,1-1.42-.81,3.38,3.38,0,0,1-1.24-2.88,3.51,3.51,0,0,1,1.41-3,5.68,5.68,0,0,1,3.49-1,8.36,8.36,0,0,1,2.66.44,7,7,0,0,1,2.28,1.24L72,132.94a4.77,4.77,0,0,0-1.68-.92A6.47,6.47,0,0,0,68.19,131.66Z"/><path class="cls-2" d="M86.38,129.82V132H78.92v3.7h6.7v2.1h-6.7v3.74h7.7v2.22H76.56v-14h9.82Z"/><path class="cls-2" d="M89.64,143.8v-14H92v11.74h6.38v2.24H89.64Z"/><path class="cls-2" d="M101,143.8v-14h2.36v11.74h6.38v2.24H101Z"/><path class="cls-2" d="M122.1,129.82V132h-7.46v3.7h6.7v2.1h-6.7v3.74h7.7v2.22H112.28v-14h9.82Z"/><path class="cls-2" d="M136.52,134.36q0,3.46-3,4.36l3.66,5.08h-3l-3.34-4.7h-3.1v4.7h-2.36v-14h5.2q3.2,0,4.58,1.08A4.12,4.12,0,0,1,136.52,134.36Zm-3.14,2a2.49,2.49,0,0,0,.72-2,2.13,2.13,0,0,0-.74-1.88,4.93,4.93,0,0,0-2.64-.51h-3v5h2.94A4.32,4.32,0,0,0,133.38,136.34Z"/><path class="cls-2" d="M107.34,85.87a23.49,23.49,0,0,1-1-6c6.19-3,10.56-10.12,10.56-18.48,0-11-7.58-20-16.93-20s-16.93,8.93-16.93,20c0,8.36,4.37,15.51,10.56,18.48a23.49,23.49,0,0,1-1,6c-1.38,3.35-18.17.39-18.17,7.35v17.63h51V93.22C125.51,86.26,108.72,89.22,107.34,85.87Z"/><path class="cls-3" d="M101.54,66.25H97.92v-2a4.54,4.54,0,0,1,.3-1.9,7,7,0,0,1,1.33-1.65l2.34-2.34a2.82,2.82,0,0,0,.74-2,2.7,2.7,0,0,0-.77-2,2.66,2.66,0,0,0-2-.78,2.89,2.89,0,0,0-2,.75,3,3,0,0,0-.94,2H93A6.56,6.56,0,0,1,95.25,52,7.09,7.09,0,0,1,100,50.35a6.83,6.83,0,0,1,4.64,1.55,5.43,5.43,0,0,1,1.79,4.34,4.86,4.86,0,0,1-1.06,3.2,13.86,13.86,0,0,1-.93,1.09l-0.85.82-0.9.86q-0.37.37-.59,0.62a3.05,3.05,0,0,0-.58,2v1.44Zm-1.74,7.1A2.47,2.47,0,0,1,98,72.67,2.19,2.19,0,0,1,97.31,71,2.27,2.27,0,0,1,98,69.33a2.39,2.39,0,0,1,1.73-.7,2.47,2.47,0,0,1,1.74.69,2.2,2.2,0,0,1,.74,1.66,2.27,2.27,0,0,1-.72,1.68A2.38,2.38,0,0,1,99.79,73.36Z"/></svg>