<svg id="Layer_1" data-name="Layer 1" xmlns="http://www.w3.org/2000/svg" viewBox="0 0 200 200"><defs><style>.cls-1{fill:#2c3e50;}.cls-2{fill:#e64c3c;}.cls-3{fill:#fff;}</style></defs><title>dont_buy_stolen</title><path class="cls-1" d="M175.91,96.76c5-7,.52-12.37-7.29-15.37a23.5,23.5,0,0,0-18.31.78,17.52,17.52,0,0,0-1.67-.75c-7.63-2.93-17.1-.84-21.16,4.66-2.82,3.82-2.28,8.28.86,11.63a14.72,14.72,0,0,0-1.91,2.09c-5.06,6.86-1.46,15.37,8,19a25.78,25.78,0,0,0,21.48-1.51c8.58,2.68,18.71.21,23.18-5.84C182.72,106.59,182.16,100.18,175.91,96.76Z"/><ellipse class="cls-1" cx="51.43" cy="97.43" rx="29.93" ry="18.46"/><path class="cls-2" d="M150.78,77a1,1,0,0,1-1-1V65a1,1,0,0,1,2,0V76A1,1,0,0,1,150.78,77Z"/><path class="cls-2" d="M155.68,133.25a1,1,0,0,1-1-1l-0.06-8.84a1,1,0,0,1,1-1h0a1,1,0,0,1,1,1l0.06,8.84a1,1,0,0,1-1,1h0Z"/><path class="cls-2" d="M180.51,85.51a1,1,0,0,1-.59-1.81l6.94-5A1,1,0,1,1,188,80.28l-6.94,5A1,1,0,0,1,180.51,85.51Z"/><path class="cls-2" d="M183.39,98.78a1,1,0,0,1-.17-2l8.11-1.41a1,1,0,1,1,.34,2l-8.11,1.41h-0.17Z"/><path class="cls-2" d="M191.5,117.2a1,1,0,0,1-.27,0l-8.72-2.43a1,1,0,0,1,.54-1.93l8.72,2.43A1,1,0,0,1,191.5,117.2Z"/><path class="cls-2" d="M176.58,131.06a1,1,0,0,1-.89-0.55l-4.22-8.38a1,1,0,0,1,1.79-.9l4.22,8.38A1,1,0,0,1,177,131,1,1,0,0,1,176.58,131.06Z"/><path class="cls-2" d="M169.61,78.3l-0.22,0a1,1,0,0,1-.75-1.2l1.92-8.46a1,1,0,0,1,2,.44l-1.92,8.46A1,1,0,0,1,169.61,78.3Z"/><path class="cls-2" d="M121.7,89a1,1,0,0,1-.35-0.06l-9.8-3.67a1,1,0,1,1,.7-1.87L122,87A1,1,0,0,1,121.7,89Z"/><path class="cls-2" d="M108.66,108.29a1,1,0,0,1-.18-2l10.37-1.88a1,1,0,1,1,.36,2l-10.37,1.88Z"/><path class="cls-2" d="M119,127.63a1,1,0,0,1-.63-1.78l7.94-6.44A1,1,0,0,1,127.6,121l-7.94,6.44A1,1,0,0,1,119,127.63Z"/><path class="cls-2" d="M136.64,136l-0.19,0a1,1,0,0,1-.79-1.17l1.88-9.78a1,1,0,0,1,2,.38l-1.88,9.78A1,1,0,0,1,136.64,136Z"/><path class="cls-2" d="M131,79.73a1,1,0,0,1-1-.71l-2.92-9.8a1,1,0,1,1,1.92-.57l2.92,9.8A1,1,0,0,1,131,79.73Z"/><path class="cls-3" d="M140.47,97.07a3.41,3.41,0,0,0,1.45-.28,5,5,0,0,0,1.27-.9l1,1.08a4.83,4.83,0,0,1-3.72,1.7,5,5,0,0,1-3.63-1.41,5.12,5.12,0,0,1,0-7.15,5.1,5.1,0,0,1,3.71-1.44,4.86,4.86,0,0,1,3.75,1.66l-1,1.13a4.52,4.52,0,0,0-1.3-.92,3.67,3.67,0,0,0-1.44-.26,3.43,3.43,0,0,0-2.46.95,3.19,3.19,0,0,0-1,2.42,3.33,3.33,0,0,0,1,2.46A3.2,3.2,0,0,0,140.47,97.07Z"/><path class="cls-3" d="M147.59,96.35l-1,2.19h-1.74l4.25-9.65h1.74l4.25,9.65h-1.74l-1-2.19h-4.83Zm4.17-1.5-1.75-4-1.75,4h3.5Z"/><path class="cls-3" d="M156.46,98.54V88.9h1.63V97h4.4v1.55h-6Z"/><path class="cls-3" d="M164.28,98.54V88.9h1.63V97h4.4v1.55h-6Z"/><path class="cls-3" d="M140.53,101.32h1.63V111h-1.77l-5.46-7v7H133.3v-9.65h1.63l5.6,7.2v-7.2Z"/><path class="cls-3" d="M152.9,109.63a5.29,5.29,0,0,1-7.23,0,5.07,5.07,0,0,1,0-7.12,5.29,5.29,0,0,1,7.23,0A5.06,5.06,0,0,1,152.9,109.63Zm-1.19-6a3.38,3.38,0,0,0-4.84,0,3.6,3.6,0,0,0,0,5,3.38,3.38,0,0,0,4.84,0A3.6,3.6,0,0,0,151.71,103.59Z"/><path class="cls-3" d="M159.34,108.26l2.15-6.94H163l2.15,6.94,2.43-6.94h1.75L165.92,111H164.3l-2-6.61h-0.11l-2,6.61h-1.61l-3.37-9.65h1.75Z"/><path class="cls-3" d="M171.5,111.07a1,1,0,1,1,.72-0.3A1,1,0,0,1,171.5,111.07Zm-1-10h1.93v1.78l-0.41,5h-1.1l-0.41-5v-1.78Z"/><path class="cls-2" d="M51.43,74.65a1,1,0,0,1-1-1V65.79a1,1,0,0,1,2,0v7.86A1,1,0,0,1,51.43,74.65Z"/><path class="cls-2" d="M51.43,129.36a1,1,0,0,1-1-1V120.5a1,1,0,0,1,2,0v7.86A1,1,0,0,1,51.43,129.36Z"/><path class="cls-2" d="M64.92,76.2a1,1,0,0,1-.87-1.5L68,67.9a1,1,0,0,1,1.73,1l-3.93,6.8A1,1,0,0,1,64.92,76.2Z"/><path class="cls-2" d="M34.59,127.09a1,1,0,0,1-.87-1.5l3.93-6.8a1,1,0,0,1,1.73,1l-3.93,6.8A1,1,0,0,1,34.59,127.09Z"/><path class="cls-2" d="M78,83a1,1,0,0,1-.5-1.87l6.8-3.93a1,1,0,0,1,1,1.73l-6.8,3.93A1,1,0,0,1,78,83Z"/><path class="cls-2" d="M18.1,117.74a1,1,0,0,1-.5-1.87l6.8-3.93a1,1,0,0,1,1,1.73l-6.8,3.93A1,1,0,0,1,18.1,117.74Z"/><path class="cls-2" d="M37.92,76.2a1,1,0,0,1-.87-0.5l-3.93-6.8a1,1,0,0,1,1.73-1l3.93,6.8A1,1,0,0,1,37.92,76.2Z"/><path class="cls-2" d="M68.85,127.09a1,1,0,0,1-.87-0.5l-3.93-6.8a1,1,0,0,1,1.73-1l3.93,6.8A1,1,0,0,1,68.85,127.09Z"/><path class="cls-2" d="M23.16,82.49a1,1,0,0,1-.5-0.13l-6.8-3.93a1,1,0,1,1,1-1.73l6.8,3.93A1,1,0,0,1,23.16,82.49Z"/><path class="cls-2" d="M84.75,117.74a1,1,0,0,1-.5-0.13l-6.8-3.93a1,1,0,0,1,1-1.73l6.8,3.93A1,1,0,0,1,84.75,117.74Z"/><path class="cls-2" d="M16.35,98.43H8.5a1,1,0,0,1,0-2h7.86A1,1,0,0,1,16.35,98.43Z"/><path class="cls-2" d="M94.35,98.43H86.5a1,1,0,0,1,0-2h7.86A1,1,0,0,1,94.35,98.43Z"/><path class="cls-3" d="M32.67,93.19a2.49,2.49,0,0,0-1.36.34,1.13,1.13,0,0,0-.53,1,1.19,1.19,0,0,0,.53,1,8,8,0,0,0,2.26.78,6.22,6.22,0,0,1,2.61,1.17,2.78,2.78,0,0,1,.88,2.23,3,3,0,0,1-1.11,2.39,4.43,4.43,0,0,1-2.91.92,6.85,6.85,0,0,1-4.68-1.82l1.19-1.43a5.36,5.36,0,0,0,3.54,1.48,2.42,2.42,0,0,0,1.46-.39,1.23,1.23,0,0,0,.54-1,1.18,1.18,0,0,0-.51-1,5.35,5.35,0,0,0-1.75-.66,15.76,15.76,0,0,1-1.88-.55A4.26,4.26,0,0,1,29.79,97a2.72,2.72,0,0,1-1-2.32,2.82,2.82,0,0,1,1.13-2.41,4.57,4.57,0,0,1,2.81-.85,6.74,6.74,0,0,1,2.14.35,5.61,5.61,0,0,1,1.83,1l-1,1.43a3.84,3.84,0,0,0-1.35-.74A5.2,5.2,0,0,0,32.67,93.19Z"/><path class="cls-3" d="M39.4,103V91.71h1.9v9.45h5.14V103h-7Z"/><path class="cls-3" d="M48.51,91.71h1.9V103h-1.9V91.71Z"/><path class="cls-3" d="M58.67,101.24a4,4,0,0,0,1.69-.33,5.81,5.81,0,0,0,1.48-1.05l1.22,1.26a5.63,5.63,0,0,1-4.34,2,5.81,5.81,0,0,1-4.23-1.64,6,6,0,0,1,0-8.34,5.94,5.94,0,0,1,4.33-1.67,5.66,5.66,0,0,1,4.37,1.93L62,94.69a5.27,5.27,0,0,0-1.52-1.08,4.27,4.27,0,0,0-1.68-.31A4,4,0,0,0,56,94.41a3.72,3.72,0,0,0-1.16,2.82,3.89,3.89,0,0,0,1.15,2.87A3.73,3.73,0,0,0,58.67,101.24Z"/><path class="cls-3" d="M65.39,91.71h1.9V97.2l5.15-5.49h2.42l-4.52,4.93L74.92,103H72.66L68.93,98l-1.64,1.77V103h-1.9V91.71Z"/></svg>