<svg xmlns="http://www.w3.org/2000/svg" viewBox="0 0 806.19 806.47">
  <path style="fill: #52a7e0; opacity: 0.25;" d="M801.79,406.79l4-1.5.35-7.51-3.63-1.44a35.3,35.3,0,0,1-16.64-8.83q-.38-9.51-1.23-18.93c4-7.84,14.4-11.87,14.4-11.87l3.83-2-.59-7.5-3.78-1A35.26,35.26,0,0,1,781,339.63q-1.57-9.46-3.61-18.76c3-8.23,12.76-13.48,12.76-13.48l3.55-2.47-1.53-7.36-3.87-.48a35.31,35.31,0,0,1-18.2-4.34q-2.75-9.22-6-18.25c2-8.52,11-14.93,11-14.93l3.21-2.88-2.42-7.11H772a35.37,35.37,0,0,1-18.59-2q-3.91-8.79-8.22-17.32c.93-8.73,9-16.21,9-16.21l2.82-3.28L753.7,204l-3.87.49a35.21,35.21,0,0,1-18.73.33q-4.95-8.19-10.29-16.11c-.19-8.77,6.91-17.26,6.91-17.26l2.4-3.59L726,161.54l-3.78,1a35.41,35.41,0,0,1-18.62,2.67q-5.88-7.45-12.13-14.57c-1.36-8.73,4.67-18.1,4.67-18.1l1.93-3.88-4.87-5.72-3.62,1.45a35.36,35.36,0,0,1-18.17,5q-6.75-6.63-13.82-12.93c-2.45-8.48,2.37-18.55,2.37-18.55l1.43-4.08-5.56-5.06-3.42,1.89a35.24,35.24,0,0,1-17.37,7.21q-7.55-5.74-15.38-11.14c-3.45-8.1.05-18.64.05-18.64l.9-4.23-6.14-4.33-3.16,2.3a35.29,35.29,0,0,1-16.26,9.32q-8.26-4.81-16.78-9.21c-4.36-7.61-2.22-18.4-2.22-18.4l.37-4.31-6.64-3.52L567,38.32a35.26,35.26,0,0,1-14.9,11.26q-8.84-3.73-17.91-7c-5.24-7-4.47-18-4.47-18l-.17-4.32-7-2.66-2.48,3A35.31,35.31,0,0,1,506.6,33.69Q497.4,31.1,488,29c-6.12-6.27-6.72-17.29-6.72-17.29l-.71-4.25-7.31-1.76L471.19,9a35.31,35.31,0,0,1-11.71,14.67q-9.37-1.39-18.87-2.31C433.67,15.91,431.67,5,431.67,5L430.43.83,423,0l-1.66,3.52a35.4,35.4,0,0,1-9.83,16.09c-2.79-.06-5.59-.1-8.39-.1q-5.28,0-10.54.15C385,15.14,381.61,4.52,381.61,4.52L379.86.58l-7.51.1-1.2,3.7a35.53,35.53,0,0,1-7.71,17.16q-9.53,1-18.92,2.42c-8-3.57-12.63-13.59-12.63-13.59l-2.24-3.71-7.42,1.06-.73,3.83A35.42,35.42,0,0,1,316,29.46q-9.38,2.19-18.58,4.83c-8.36-2.57-14.17-11.88-14.17-11.88L280.59,19l-7.24,2-.24,3.9a35.42,35.42,0,0,1-3.17,18.44q-9,3.36-17.81,7.13c-8.63-1.48-15.56-10-15.56-10l-3.09-3-6.93,2.87.24,3.9a35.52,35.52,0,0,1-.85,18.74q-8.47,4.43-16.68,9.26c-8.78-.35-16.78-8-16.78-8L189,61.59l-6.52,3.72.73,3.83a35.51,35.51,0,0,1,1.48,18.77q-7.79,5.43-15.3,11.22c-8.78.8-17.72-5.81-17.72-5.81L148,91.17l-6,4.5,1.2,3.71A35.51,35.51,0,0,1,147,117.84q-7,6.34-13.76,13c-8.61,1.9-18.32-3.54-18.32-3.54l-4-1.68-5.39,5.23,1.65,3.53a35.36,35.36,0,0,1,6.1,17.81q-6.21,7.2-12.07,14.7c-8.29,2.94-18.57-1.23-18.57-1.23l-4.16-1.16-4.69,5.86,2.09,3.29a35.46,35.46,0,0,1,8.27,16.88Q78.86,198.47,74,206.67c-7.86,3.92-18.54,1.09-18.54,1.09l-4.27-.63-3.92,6.4,2.48,3A35.4,35.4,0,0,1,60,232.2q-4.26,8.55-8.12,17.37c-7.3,4.85-18.2,3.38-18.2,3.38l-4.32-.1-3.1,6.85,2.84,2.68a35.38,35.38,0,0,1,12.18,14.2q-3.16,9-5.87,18.29c-6.64,5.71-17.63,5.63-17.63,5.63l-4.3.46-2.21,7.17,3.15,2.3A35.36,35.36,0,0,1,28.33,323q-2,9.33-3.5,18.79C19,348.36,8,349.67,8,349.67l-4.21,1L2.49,358l3.42,1.88a35.31,35.31,0,0,1,15.39,10.82q-.79,9.41-1.11,18.93c-5,7.3-15.78,10-15.78,10l-4,1.51L0,408.69l3.62,1.44a35.32,35.32,0,0,1,16.64,8.82q.39,9.55,1.23,18.95c-4,7.84-14.38,11.85-14.38,11.85l-3.84,2,.59,7.49,3.78,1a35.44,35.44,0,0,1,17.55,6.61q1.58,9.49,3.61,18.8C25.74,493.85,16,499.08,16,499.08l-3.55,2.47L14,508.91l3.87.49a35.27,35.27,0,0,1,18.18,4.32q2.77,9.24,6,18.28c-2,8.5-11,14.89-11,14.89l-3.21,2.89,2.42,7.11h3.9a35.32,35.32,0,0,1,18.59,2c2.6,5.86,5.34,11.66,8.22,17.36-.94,8.71-9,16.19-9,16.19l-2.82,3.27,3.29,6.75,3.87-.48a35.28,35.28,0,0,1,18.71-.33q5,8.2,10.3,16.13c.19,8.78-6.9,17.24-6.9,17.24l-2.4,3.61,4.12,6.27L84,644a35.47,35.47,0,0,1,18.6-2.67q5.89,7.45,12.15,14.61C116,664.61,110,674,110,674l-1.92,3.87,4.87,5.72,3.62-1.43a35.2,35.2,0,0,1,18.16-5q6.76,6.64,13.84,12.94c2.43,8.48-2.38,18.54-2.38,18.54l-1.42,4.09,5.55,5.06,3.42-1.88a35.27,35.27,0,0,1,17.35-7.22q7.56,5.78,15.41,11.17c3.44,8.1-.06,18.62-.06,18.62l-.9,4.23L191.7,747l3.16-2.3a35.54,35.54,0,0,1,16.25-9.32q8.27,4.83,16.82,9.23c4.34,7.6,2.21,18.38,2.21,18.38l-.36,4.31,6.64,3.53,2.84-2.68a35.38,35.38,0,0,1,14.88-11.25q8.85,3.74,17.93,7c5.23,7,4.46,17.92,4.46,17.92l.18,4.32,7,2.67,2.48-3a35.33,35.33,0,0,1,13.38-13q9.22,2.59,18.61,4.71c6.1,6.29,6.71,17.26,6.71,17.26l.72,4.27,7.3,1.76L335,797.5a35.46,35.46,0,0,1,11.7-14.67q9.39,1.39,18.92,2.31c6.91,5.45,8.91,16.35,8.91,16.35l1.25,4.15,7.45.83,1.67-3.54a35.5,35.5,0,0,1,9.81-16.06c2.79.07,5.59.11,8.39.11,3.55,0,7.07-.06,10.58-.16,7.56,4.52,10.91,15.12,10.91,15.12l1.75,4,7.51-.12,1.2-3.71a35.45,35.45,0,0,1,7.7-17.12q9.56-1,19-2.43c8,3.57,12.62,13.59,12.62,13.59l2.23,3.72,7.44-1.07.73-3.83A35.42,35.42,0,0,1,490.16,777q9.4-2.19,18.61-4.83c8.35,2.56,14.15,11.88,14.15,11.88l2.68,3.39,7.24-2,.25-3.9a35.47,35.47,0,0,1,3.16-18.42q9-3.36,17.85-7.14c8.61,1.49,15.55,10,15.55,10l3.08,3,6.94-2.87-.25-3.91a35.37,35.37,0,0,1,.85-18.72q8.48-4.43,16.71-9.28c8.77.36,16.76,8,16.76,8l3.44,2.62,6.52-3.72-.73-3.84a35.46,35.46,0,0,1-1.49-18.76q7.8-5.42,15.32-11.22c8.77-.8,17.71,5.81,17.71,5.81l3.74,2.17,6-4.5L663,707.08a35.44,35.44,0,0,1-3.81-18.44q7-6.34,13.78-13c8.61-1.88,18.31,3.55,18.31,3.55l4,1.67,5.39-5.23L699,672.07a35.44,35.44,0,0,1-6.1-17.79q6.22-7.2,12.08-14.71c8.29-2.93,18.56,1.24,18.56,1.24l4.16,1.16,4.69-5.86-2.08-3.29A35.28,35.28,0,0,1,722,615.94q5.3-7.95,10.19-16.16c7.85-3.91,18.53-1.08,18.53-1.08l4.28.64,3.92-6.41-2.49-3a35.39,35.39,0,0,1-10.31-15.65q4.27-8.57,8.12-17.38c7.31-4.83,18.2-3.36,18.2-3.36l4.31.09,3.09-6.85L777,544.09a35.15,35.15,0,0,1-12.16-14.21q3.16-9,5.87-18.28c6.63-5.72,17.63-5.63,17.63-5.63l4.3-.44,2.21-7.19L791.72,496a35.36,35.36,0,0,1-13.87-12.59q2-9.31,3.5-18.79c5.86-6.55,16.84-7.86,16.84-7.86l4.21-1,1.29-7.41-3.41-1.88a35.46,35.46,0,0,1-15.39-10.83q.78-9.4,1.11-18.93C791,409.49,801.79,406.79,801.79,406.79ZM474,62.21C602,71.63,660.4,173,660.4,173c13.15,33.61-20.61,46.42-20.61,46.42l-34.35,6c-34.56,9-61.26-18.26-61.26-18.26-20.38-17.93-44.63-26-44.63-26-24.39-7.45-40-38.68-40-38.68L445.48,99.82C442.9,63,474,62.21,474,62.21ZM623.68,294.39a16.18,16.18,0,1,1,5.91-22.12A16.15,16.15,0,0,1,623.68,294.39Zm5.91,239.81a16.16,16.16,0,1,1-5.92-22.11A16.17,16.17,0,0,1,629.59,534.21ZM403.09,141.32a16.18,16.18,0,1,1-16.16,16.18A16.17,16.17,0,0,1,403.09,141.32ZM143.66,171.2C215.76,65,332.63,65,332.63,65,368.27,70.35,362.46,106,362.46,106l-12,32.78c-9.53,34.45-46.41,44-46.41,44-25.69,8.71-44.75,25.74-44.75,25.74-18.65,17.42-53.46,15.34-53.46,15.34l-43.92-9.12C128.74,198.58,143.66,171.2,143.66,171.2ZM182.5,294.39a16.18,16.18,0,1,1,22.08-5.93A16.2,16.2,0,0,1,182.5,294.39ZM204.57,518a16.17,16.17,0,1,1-22.08-5.92A16.2,16.2,0,0,1,204.57,518Zm-85.06.17c-30.57,20.67-46.8-6-46.8-6-55.82-115.66,2.61-217,2.61-217,22.49-28.22,50.44-5.33,50.44-5.33l22.35,26.81c25,25.49,14.83,62.24,14.83,62.24-5.31,26.64-.13,51.69-.13,51.69,5.75,24.89-13.45,54-13.45,54ZM332.13,744.26c-127.92-9.41-186.36-110.77-186.36-110.77-13.15-33.6,20.61-46.41,20.61-46.41l34.36-6c34.56-9,61.25,18.26,61.25,18.26,20.39,17.92,44.63,25.95,44.63,25.95,24.39,7.46,40,38.69,40,38.69l14.06,42.66C363.28,743.52,332.13,744.26,332.13,744.26Zm71-79.09A16.18,16.18,0,1,1,419.25,649,16.18,16.18,0,0,1,403.09,665.18Zm0-57.39c-112.79,0-204.24-91.58-204.24-204.55S290.29,198.7,403.09,198.7s204.25,91.58,204.25,204.54S515.89,607.79,403.09,607.79ZM662.52,635.3c-72.11,106.24-189,106.24-189,106.24-35.64-5.39-29.84-41.08-29.84-41.08l12-32.79c9.54-34.44,46.42-44,46.42-44,25.69-8.71,44.76-25.73,44.76-25.73,18.64-17.42,53.46-15.34,53.46-15.34l43.92,9.13C677.44,607.9,662.52,635.3,662.52,635.3Zm68.34-124c-22.48,28.21-50.44,5.33-50.44,5.33L658.07,489.8c-25-25.5-14.84-62.25-14.84-62.25,5.31-26.64.13-51.69.13-51.69-5.75-24.88,13.45-54,13.45-54l29.86-33.53c30.57-20.67,46.8,6,46.8,6C789.29,409.92,730.86,511.28,730.86,511.28Z"/>
</svg>
