<svg xmlns="http://www.w3.org/2000/svg" viewBox="0 0 110.98 110.98">
  <defs>
    <style>
      .cls-1 {
        fill: none;
        stroke: #3498db;
        stroke-miterlimit: 10;
        stroke-width: 8px;
      }

      .cls-2 {
        fill: #fff;
      }
    </style>
  </defs>
  <title>Asset 1</title>
  <g id="Layer_2" data-name="Layer 2">
    <g id="Layer_10" data-name="Layer 10">
      <circle class="cls-1" cx="55.49" cy="55.49" r="51.49"/>
      <path class="cls-2" d="M75.78,46.64a13.91,13.91,0,0,0-5.36,1.08L66,33h5.12c.26.9.49,2.43-.27,3.18a.84.84,0,0,0,1.19,1.19c1.9-1.91.52-5.38.46-5.53a.84.84,0,0,0-.77-.52H64.91a.85.85,0,0,0-.67.34.82.82,0,0,0-.13.74l3,10.07L48,43.26l-1.17-4a15.12,15.12,0,0,1,3.53-1.12,16.56,16.56,0,0,0,3.4-.29c.24-.18.18-1.89-3.69-1.64s-3.58,0-7.83,0c-.61,0-3.52,2.24.55,2.43a7.37,7.37,0,0,1,2.29.53L46.45,44l-3.07,4.55a14,14,0,1,0,4.94,19.19l.16-.27a5.18,5.18,0,0,0,3.44,1.61v3.86a.25.25,0,0,0,.28.19h2.18a.28.28,0,0,0,.28-.28v-.51a.28.28,0,0,0-.28-.28H53.14a.28.28,0,0,1-.28-.28V69a5.15,5.15,0,0,0,3.48-8.22L68.5,47.09l.41,1.38a14,14,0,1,0,6.87-1.83ZM47,46.11l3.72,12.83a4.76,4.76,0,0,0-.54.17,14,14,0,0,0-5.44-9.63Zm-3.51,5.23a11.74,11.74,0,0,1,4.58,9.3v.14a5.2,5.2,0,0,0-.72,1.28L37.76,60ZM36.36,72.4a11.76,11.76,0,1,1,5.78-22l-5.71,8.52a1.79,1.79,0,0,0-.47-.09,1.81,1.81,0,1,0-.21,3.61H36a1.76,1.76,0,0,0,1.46-.81l9.63,2.08v.2a5.17,5.17,0,0,0,.15,1.23A11.74,11.74,0,0,1,36.36,72.4Zm16.53-5V65.08a.69.69,0,0,0,0-.28.79.79,0,0,1,.17-.2.54.54,0,0,0,.12-.36.74.74,0,1,0-1.49,0,.54.54,0,0,0,.12.36.79.79,0,0,1,.17.2.69.69,0,0,0,0,.28v2.3a3.47,3.47,0,1,1,.92,0Zm14.88-22L55.17,59.63a5.14,5.14,0,0,0-2.72-.9l-4-13.79,19.15-.79.33,1.09a.72.72,0,0,0-.16.12Zm8,27a11.75,11.75,0,0,1-6.22-21.72,46.58,46.58,0,0,0,3.77,8.75,2,2,0,1,0,1.27-1.13,47.46,47.46,0,0,1-3.53-8.43A11.75,11.75,0,1,1,75.78,72.4Z"/>
    </g>
  </g>
</svg>
