<svg xmlns="http://www.w3.org/2000/svg" viewBox="0 0 31.75 23.54">
  <defs>
    <style>
      .cls-1 {
        fill: #3498db;
      }
    </style>
  </defs>
  <title>Asset 4</title>
  <g id="Layer_2" data-name="Layer 2">
    <g id="Wireframes">
      <path class="cls-1" d="M15.68,2.74q-2,1-3.8,2.11a25.37,25.37,0,0,0-3,2.11A13.08,13.08,0,0,0,6.43,9.64a14.15,14.15,0,0,0-1.65,3.69H6.64a5,5,0,0,1,3.93,1.35,4.41,4.41,0,0,1,1.19,3,6.07,6.07,0,0,1-1.61,4,5.46,5.46,0,0,1-4.39,1.89,5.43,5.43,0,0,1-4.36-1.65A6.45,6.45,0,0,1,0,17.54a13.41,13.41,0,0,1,1.52-6.38A20.73,20.73,0,0,1,5.34,6a25.06,25.06,0,0,1,4.71-3.61Q12.51,1,14.37,0Zm16.07,0q-2,1-3.8,2.11a25.37,25.37,0,0,0-3,2.11A13.08,13.08,0,0,0,22.5,9.64a14.15,14.15,0,0,0-1.65,3.69h1.87a5,5,0,0,1,3.93,1.35,4.41,4.41,0,0,1,1.19,3,6.07,6.07,0,0,1-1.61,4,5.46,5.46,0,0,1-4.39,1.89,5.43,5.43,0,0,1-4.36-1.65,6.45,6.45,0,0,1-1.41-4.34,13.41,13.41,0,0,1,1.52-6.38A20.73,20.73,0,0,1,21.41,6a25.06,25.06,0,0,1,4.71-3.61Q28.57,1,30.44,0Z"/>
    </g>
  </g>
</svg>
