<svg enable-background="new -1 -0.996 120 117" height="117" viewBox="-1 -.996 120 117" width="120" xmlns="http://www.w3.org/2000/svg">
  <path d="m117.8 8.938c-1.447 10.877-3.278 20.004-8.089 35.829l5.971.045-9.463 14.105 9.951 16.088h-19.427c-8.777 16.085-21.488 31.545-38.002 39.749-17.009-8.847-28.527-22.964-38.06-39.749h-11.449l.001-26.275s-1.456-4.179-2.362-7.449c-2.717-9.805-3.846-13.109-6.871-32.29 42.24-12.283 76.732-11.673 117.8-.053z" fill="#000"/>
  <g fill="#fff">
    <path d="m13.986 49.438h2.625v21.778h-2.625zm3.203 21.778v-21.778h2.624v21.778z"/>
    <path d="m26.699 71.216h-2.434v-22.068c0-.191.097-.351.45-.065l13.738 11.377v-11.022h2.436v16.108l-14.19-11.625zm2.976-10.95v10.95h-2.4v-16.078l14.19 11.625v-17.325h2.4v22.099c0 .255-.095.351-.446.064z"/>
    <path d="m48.188 49.438h8.425c6.274 0 11.016 4.132 11.016 10.889s-4.741 10.889-11.016 10.889h-8.425zm2.625 19.599h5.478c5.057 0 8.647-3.331 8.647-8.71s-3.59-8.71-8.647-8.71h-5.478zm.579-16.844h4.899c4.741 0 8.07 3.136 8.07 8.134 0 4.995-3.329 8.138-8.07 8.138h-4.899zm4.578 14.089c3.526 0 5.703-2.338 5.703-5.956s-2.177-5.959-5.703-5.959h-1.952v11.915z"/>
    <path d="m70.765 49.438h15.277v2.179h-12.65v17.456h13.101v2.144h-15.728zm13.709 10.538h-10.504v-7.783h12.072v2.144h-9.447v3.586h7.879zm2.019 8.52h-12.523v-7.948h10.504v2.022h-7.879v3.747h9.897v2.179z"/>
    <path d="m89.437 49.438h2.947l6.212 9.931-7.654 11.847h-2.69l7.526-11.69zm9.544 10.442 7.078 11.335h-2.885l-4.384-7.398-4.487 7.398h-2.656zm-5.893-10.442h2.848l3.27 5.51 3.232-5.51h2.627l-6.084 9.446zm13.707 21.778-7.431-11.847 6.438-9.931h2.69l-6.311 9.832 7.496 11.946z"/>
    <path d="m25.022 24.763h9.302c4.256 0 6.996 1.954 6.996 5.552 0 2.551-1.259 3.972-2.961 4.604 1.988.566 3.881 2.017 3.881 5.075 0 3.909-2.873 6.211-8.198 6.211h-9.02zm8.515 8.388c1.576 0 2.175-.725 2.175-1.923 0-1.196-.536-1.956-2.114-1.956h-3.025v3.878h2.964zm.471 8.545c1.864 0 2.492-.853 2.492-2.24 0-1.385-.662-2.206-2.492-2.206h-3.436v4.445h3.436z"/>
    <path d="m45.644 24.763h5.738v21.441h-5.738z"/>
    <path d="m68.063 24.763h6.21l-7.124 9.302 7.977 12.139h-6.778l-5.109-7.786-1.795 2.206v5.58h-5.741v-21.441h5.741v8.892z"/>
    <path d="m77.679 24.763h15.045v4.825h-9.304v3.531h7.755v4.573h-7.755v3.689h9.743v4.823h-15.484z"/>
  </g>
  <g fill="#3498db">
    <path d="m18.641 46.176c-4.321-12.729-6.528-23.763-7.509-29.647 7.278-1.988 24.969-6.057 47.921-6.057 16.436 0 32.56 2.062 47.963 6.133-1.015 5.907-3.272 16.93-7.608 29.571h5.468c4.722-14.19 6.879-26.167 7.637-31.061l.353-2.276-2.221-.618c-16.525-4.597-33.886-6.929-51.592-6.929-26.436 0-46.164 5.273-51.583 6.893l-2.154.643.334 2.225c.73 4.884 2.829 16.854 7.526 31.124h5.465z"/>
    <path d="m86.558 74.421c-6.763 11.363-15.777 22.313-27.609 29.563-11.826-7.25-20.815-18.2-27.548-29.563h-5.975c7.49 13.347 17.933 26.537 32.226 34.817l1.297.755 1.301-.755c14.293-8.28 24.767-21.471 32.295-34.817z"/>
  </g>
</svg>
