<?xml version="1.0" encoding="utf-8"?>
<!-- Generator: Adobe Illustrator 15.0.2, SVG Export Plug-In  -->
<!DOCTYPE svg PUBLIC "-//W3C//DTD SVG 1.1//EN" "http://www.w3.org/Graphics/SVG/1.1/DTD/svg11.dtd" [
	<!ENTITY ns_flows "http://ns.adobe.com/Flows/1.0/">
]>
<svg version="1.1"
	 xmlns="http://www.w3.org/2000/svg" xmlns:xlink="http://www.w3.org/1999/xlink" xmlns:a="http://ns.adobe.com/AdobeSVGViewerExtensions/3.0/"
	 x="0px" y="0px" width="1000px" height="1000px" viewBox="-34 -222.485 1000 1000"
	 overflow="visible" enable-background="new -34 -222.485 1000 1000" xml:space="preserve">
<defs>
</defs>
<circle fill="none" stroke="#000000" stroke-width="40" cx="181" cy="393.78" r="161"/>
<circle fill="none" stroke="#000000" stroke-width="40" cx="756" cy="390.78" r="161"/>
<g id="XMLID_2_">
	<g>
		<path d="M647.44,106.46C776.9,394.589,781.3,400.19,781.55,409.57c-2.229,27.66-17.569,16.03-206.21,17.84
			c-143.53-5.72-43.47,39.91-310.18-241.45c-72.99,226.669-64.14,222.26-85.19,224.39c-10.13-0.681-18.18-8.59-17.97-18.57
			c0.3-12.85-6.02,7.13,52.08-176.02C285.4-13.45,262.92,1.54,395.48,0.25l-0.77,36.43c-96.13-0.17-84.07-4.82-105.43,69.78
			l317.07-0.78l12.4-34.89C547.69,55.03,527.96,55.12,542,35.91h158.93l1.551,35.66l-42.641,0.77L647.44,106.46z M732.31,390.589
			l-104.52-231.6L539.77,390.04L732.31,390.589z M500.71,385.089l89.67-240.95l-310.27,0.55L500.71,385.089z"/>
	</g>
	<g>
	</g>
</g>
</svg>
