<svg enable-background="new -34 -222.485 1000 1000" height="1000" viewBox="-34 -222.485 1000 1000" width="1000" xmlns="http://www.w3.org/2000/svg"><circle cx="181" cy="393.78" fill="none" r="161" stroke="#000" stroke-width="40"/><circle cx="756" cy="390.78" fill="none" r="161" stroke="#000" stroke-width="40"/><path d="m647.44 106.46c129.46 288.129 133.86 293.73 134.11 303.11-2.229 27.66-17.569 16.03-206.21 17.84-143.53-5.72-43.47 39.91-310.18-241.45-72.99 226.669-64.14 222.26-85.19 224.39-10.13-.681-18.18-8.59-17.97-18.57.3-12.85-6.02 7.13 52.08-176.02 71.32-229.21 48.84-214.22 181.4-215.51l-.77 36.43c-96.13-.17-84.07-4.82-105.43 69.78l317.07-.78 12.4-34.89c-71.06-15.76-90.79-15.67-76.75-34.88h158.93l1.551 35.66-42.641.77zm84.87 284.129-104.52-231.6-88.02 231.051zm-231.6-5.5 89.67-240.95-310.27.55z"/></svg>