<svg height="512pt" viewBox="0 0 512 512" width="512pt" xmlns="http://www.w3.org/2000/svg"><path d="m256 60c8.285156 0 15-6.714844 15-15v-30c0-8.285156-6.714844-15-15-15s-15 6.714844-15 15v30c0 8.285156 6.714844 15 15 15zm0 0"/><path d="m326.605469 85.605469 30-30c5.859375-5.859375 5.859375-15.355469 0-21.210938-5.855469-5.859375-15.355469-5.859375-21.210938 0l-30 30c-5.859375 5.855469-5.859375 15.351563 0 21.210938 5.855469 5.859375 15.355469 5.859375 21.210938 0zm0 0"/><path d="m185.394531 85.605469c5.855469 5.859375 15.355469 5.859375 21.210938 0 5.859375-5.859375 5.859375-15.355469 0-21.210938l-30-30c-5.855469-5.859375-15.351563-5.859375-21.210938 0-5.859375 5.855469-5.859375 15.351563 0 21.210938zm0 0"/><path d="m135 212c0-33.085938-26.914062-60-60-60s-60 26.914062-60 60 26.914062 60 60 60 60-26.914062 60-60zm-60 30c-16.542969 0-30-13.457031-30-30s13.457031-30 30-30 30 13.457031 30 30-13.457031 30-30 30zm0 0"/><path d="m497 212c0-33.085938-26.914062-60-60-60s-60 26.914062-60 60 26.914062 60 60 60 60-26.914062 60-60zm-60 30c-16.542969 0-30-13.457031-30-30s13.457031-30 30-30 30 13.457031 30 30-13.457031 30-30 30zm0 0"/><path d="m437 272h-30c-57.457031 0-106-48.542969-106-106 0-24.8125-20.1875-45-45-45s-45 20.1875-45 45c0 57.457031-48.542969 106-106 106h-30c-41.355469 0-75 33.644531-75 75v150c0 8.285156 6.714844 15 15 15h120c8.28125 0 14.996094-6.710938 15-14.992188l.078125-140.273437c40.011719-9.546875 76.480469-31.875 103.734375-63.75.722656-.84375 1.429688-1.699219 2.136719-2.554687 27.339843 33.015624 64.691406 56.453124 105.972656 66.300781l.078125 140.277343c.003906 8.28125 6.71875 14.992188 15 14.992188h120c8.285156 0 15-6.714844 15-15v-150c0-41.355469-33.644531-75-75-75zm-304.414062 57.695312c-7.214844 1.21875-12.496094 7.464844-12.5 14.78125l-.078126 137.523438h-90.007812v-135c0-24.8125 20.1875-45 45-45h30c36.007812 0 70.074219-14.234375 95.917969-40.082031 25.847656-25.84375 40.082031-59.910157 40.082031-95.917969 0-8.269531 6.730469-15 15-15s15 6.730469 15 15c0 79.992188-59.503906 150.367188-138.414062 163.695312zm349.414062 152.304688h-90.007812l-.078126-137.523438c-.003906-7.316406-5.285156-13.5625-12.5-14.78125-41.804687-7.0625-79.761718-30.53125-105.480468-64.898437 5.957031-10.121094 10.980468-20.722656 15.023437-31.667969 5.980469 10.371094 13.386719 20.050782 22.125 28.792969 25.84375 25.84375 59.910157 40.078125 95.917969 40.078125h30c24.8125 0 45 20.1875 45 45zm0 0"/></svg>