<?xml version="1.0" encoding="utf-8"?>
<!-- Generator: Adobe Illustrator 15.0.2, SVG Export Plug-In  -->
<!DOCTYPE svg PUBLIC "-//W3C//DTD SVG 1.1//EN" "http://www.w3.org/Graphics/SVG/1.1/DTD/svg11.dtd" [
	<!ENTITY ns_flows "http://ns.adobe.com/Flows/1.0/">
]>
<svg version="1.1"
	 xmlns="http://www.w3.org/2000/svg" xmlns:xlink="http://www.w3.org/1999/xlink" xmlns:a="http://ns.adobe.com/AdobeSVGViewerExtensions/3.0/"
	 x="0px" y="0px" width="300px" height="300px" viewBox="-62.876 -62.902 300 300"
	 overflow="visible" enable-background="new -62.876 -62.902 300 300" xml:space="preserve">
<defs>
</defs>
<path fill="#FFFFFF" d="M105.188,88.992c0-9.426-7.703-17.095-17.174-17.095c-9.467,0-17.171,7.67-17.171,17.095
	c0,9.428,7.704,17.098,17.171,17.098C97.485,106.089,105.188,98.419,105.188,88.992z M130.7,0H43.547C19.535,0,0,19.45,0,43.357
	v12.081h64.08c6.761-4.795,15.02-7.628,23.935-7.628c8.916,0,17.176,2.833,23.939,7.628h62.293V43.357
	C174.247,19.45,154.712,0,130.7,0L130.7,0z M148.336,41.236c0,2.649-2.177,4.818-4.838,4.818h-14.951
	c-2.662,0-4.838-2.168-4.838-4.818V26.35c0-2.649,2.176-4.817,4.838-4.817h14.951c2.661,0,4.838,2.167,4.838,4.817V41.236
	L148.336,41.236z M129.38,88.992c0,22.71-18.557,41.184-41.365,41.184c-22.808,0-41.363-18.474-41.363-41.184
	c0-6.252,1.414-12.181,3.929-17.496H0v59.344c0,23.908,19.535,43.356,43.547,43.356H130.7c24.012,0,43.547-19.448,43.547-43.356
	V71.496H125.45C127.966,76.811,129.38,82.739,129.38,88.992L129.38,88.992z"/>
</svg>
