<svg enable-background="new -62.876 -62.902 300 300" height="300" viewBox="-62.876 -62.902 300 300" width="300" xmlns="http://www.w3.org/2000/svg"><path d="m105.188 88.992c0-9.426-7.703-17.095-17.174-17.095-9.467 0-17.171 7.67-17.171 17.095 0 9.428 7.704 17.098 17.171 17.098 9.471-.001 17.174-7.671 17.174-17.098zm25.512-88.992h-87.153c-24.012 0-43.547 19.45-43.547 43.357v12.081h64.08c6.761-4.795 15.02-7.628 23.935-7.628 8.916 0 17.176 2.833 23.939 7.628h62.293v-12.081c0-23.907-19.535-43.357-43.547-43.357zm17.636 41.236c0 2.649-2.177 4.818-4.838 4.818h-14.951c-2.662 0-4.838-2.168-4.838-4.818v-14.886c0-2.649 2.176-4.817 4.838-4.817h14.951c2.661 0 4.838 2.167 4.838 4.817zm-18.956 47.756c0 22.71-18.557 41.184-41.365 41.184s-41.363-18.474-41.363-41.184c0-6.252 1.414-12.181 3.929-17.496h-50.581v59.344c0 23.908 19.535 43.356 43.547 43.356h87.153c24.012 0 43.547-19.448 43.547-43.356v-59.344h-48.797c2.516 5.315 3.93 11.243 3.93 17.496z" fill="#fff"/></svg>