<?xml version="1.0" encoding="utf-8"?>
<!-- Generator: Adobe Illustrator 15.0.2, SVG Export Plug-In  -->
<!DOCTYPE svg PUBLIC "-//W3C//DTD SVG 1.1//EN" "http://www.w3.org/Graphics/SVG/1.1/DTD/svg11.dtd" [
	<!ENTITY ns_flows "http://ns.adobe.com/Flows/1.0/">
]>
<svg version="1.1"
	 xmlns="http://www.w3.org/2000/svg" xmlns:xlink="http://www.w3.org/1999/xlink" xmlns:a="http://ns.adobe.com/AdobeSVGViewerExtensions/3.0/"
	 x="0px" y="0px" width="500px" height="500px" viewBox="-0.413 -10.929 500 500"
	 overflow="visible" enable-background="new -0.413 -10.929 500 500" xml:space="preserve">
<defs>
</defs>
<g id="XMLID_26_">
	<g>
		<path fill="#F47AB2" d="M305.194,154.807c2.214,3.52-17.431,9.34-20.61,10.418c-6.387,2.47-16.096,6.813-22.114,8.687
			c6.813-2.47,6.813-11.383-1.59-12.604c1.59-0.823,12.292-3.52,18.963-5.195c3.662-0.937,15.925-5.223,21.063-4.485
			C301.844,151.77,304.91,154.296,305.194,154.807z"/>
	</g>
	<g>
	</g>
</g>
<g id="XMLID_25_">
	<g>
		<path fill="#E26F9E" d="M359.345,184.065c0.993,1.987,1.788,5.081,1.788,6.5c-5.677,0-15.527-5.479-20.694-7.381
			c-5.252-1.902-24.271-12.973-28.984-15.329c-5.224-2.356-17.089-9.368-17.089-9.368c1.419-14.194,27.962,6.387,33.128,8.999
			C338.792,173.164,347.989,179.324,359.345,184.065z"/>
	</g>
	<g>
	</g>
</g>
<g id="XMLID_24_">
	<g>
		<path fill="#B3B3B3" d="M337.994,290.301c0.749,19.279-0.804,96.736-1.888,115.499c0,0-13.212,9.354-21.722,2.557
			c-6.704-4.335,1.14-28.201-2.805-38.102c-3.861-9.197,8.356-64.193,7.041-74.443c-1.432-10.979-1.202-22.591-1.032-34.541
			c-1.678-43.878,1.139-60.037-0.591-140.762c-0.367-17.007-8.392-20.436-19.797-27.271c-20.245-12.074-72.716-20.533-97.997-20.223
			c-33.143,0.596-64.958-2.167-98.547,1.483c-26.685,2.769-43.386,0.013-53.189,25.141c-7.357,17.345-0.79,46.843-0.962,65.469
			c-0.573,22.44-1.547,45.426-3.197,65.499c-1.761,21.372,2.917,43.311-4.167,61.974c-4.079,10.838-0.456,23.141-1.583,34.467
			c-0.848,13.517,4,25.731-15.089,26.729c0,0-6.492-31.895-0.607-46.835c-4.015-30.747,3.329-54.261,5.54-84.322
			c2.41-28.628-0.484-57.29,1.014-85.783c1.294-16.57-4.283-53.08,8.785-66.684c11.467-12.689,45.731-11.201,61.153-13.23
			c49.84-6.49,103.571,1.881,154.168,1.204c37.5-0.426,68.067,16.342,79.267,48.396c12.679,37.088,5.71,68.595,6.402,107.229
			C338.061,239.842,337.212,264.346,337.994,290.301z"/>
	</g>
	<g>
	</g>
</g>
<g id="XMLID_23_">
	<g>
		<path fill="#CCCCCC" d="M330.662,299.103c0.758,19.491-0.577,91.531-1.674,110.5c0,0-14.877,2.859-18.832-0.4
			c-6.777-4.384-2.211-19.255-6.199-29.264c-3.869-9.301,8.448-64.901,7.119-75.264c-1.447-11.1,0.831-22.836,1.003-34.917
			c-1.696-44.362,1.151-60.699-0.562-142.315c-0.371-17.194-8.483-20.661-20.051-27.57c-20.468-12.208-73.518-20.76-99.077-20.446
			c-33.508,0.603-65.639-2.191-99.598,1.499c-27.014,2.8-43.9,0.015-53.811,25.419c-7.438,17.537-0.798,47.359-0.973,66.191
			c-0.58,22.687-1.564,45.926-3.232,66.22c-1.78,21.607,2.95,43.788-4.178,62.656c-4.159,10.959-0.496,23.397-1.636,34.849
			c-0.857,13.665,6.091,18.215-13.208,19.223c0,0-8.611-24.446-2.626-39.553c-4.059-31.085,3.366-54.859,5.566-85.25
			c2.437-28.944-0.49-57.922,1.06-86.729c1.308-16.753-4.366-53.664,8.846-67.418c11.594-12.83,46.235-11.325,61.863-13.377
			c50.389-6.561,104.677,1.903,155.833,1.218c37.914-0.431,64.705,13.808,76.027,46.216c12.819,37.497,6.658,71.493,7.358,110.553
			C329.583,247.519,329.907,272.86,330.662,299.103z"/>
	</g>
	<g>
	</g>
</g>
<g id="XMLID_18_">
	<g>
		<path fill="#E26F9E" d="M141.997,245.024c-1.744,2.163-1.837,4.198-2.227,5.943c7.333-1.519,20.995-5.379,27.594-7.327
			c6.829-2.004,43.521-16.497,49.856-18.065c6.952-1.424,4.349-3.171,4.349-3.171c0.423-3.353,1.914-3.409-0.681-2.766
			c-10.896,2.78-28.295,8.044-33.951,10.286C172.387,235.669,156.895,239.983,141.997,245.024z"/>
	</g>
	<g>
	</g>
</g>
<path fill-rule="evenodd" clip-rule="evenodd" fill="#FFFFFF" d="M334.577,11.189c0.046,1.635-0.706,2.004-1.792,1.258
	C332.739,11.214,333.703,11.267,334.577,11.189z"/>
<path fill-rule="evenodd" clip-rule="evenodd" fill="#FFFFFF" d="M138.966,57.862c2.33-1.589,3.918-2.02,4.625-0.942
	C141.668,57.98,139.388,59.523,138.966,57.862z"/>
<path fill-rule="evenodd" clip-rule="evenodd" fill="#BDC3C7" d="M194.125,228.087c0.427-1.98,1.364-2.908-0.277-4.339
	c0.841-1.22,0.434-4.323-0.749-7.014"/>
<path fill-rule="evenodd" clip-rule="evenodd" fill="#FFFFFF" d="M327.381,270.336c1.154-0.041,0.744,0.987,1.563,1.17
	c-0.197,0.502-0.794,0.479-0.951,1.034C327.102,272.281,327.214,271.319,327.381,270.336z"/>
<path fill-rule="evenodd" clip-rule="evenodd" fill="#FFFFFF" d="M398.111,283.682c0.96-0.131,1.221,0.284,1.839,0.417
	c-0.357,0.314-0.494,0.807-0.458,1.44C398.536,285.298,397.757,284.931,398.111,283.682z"/>
<path fill-rule="evenodd" clip-rule="evenodd" fill="#FFFFFF" d="M363.151,421.348c1.404-0.276,0.518,1.714,1.58,1.764
	C364.026,424.143,363.004,422.385,363.151,421.348z"/>
<path fill-rule="evenodd" clip-rule="evenodd" fill="#FFFFFF" d="M77.438,410.929c0.377,0.005,0.759,0.014,1.143,0.022
	c-0.139,0.282,0.186,0.32,0.532,0.349c-0.023,0.228-0.046,0.449-0.069,0.671c-0.481-0.071-0.555,0.12-0.601,0.327
	c-0.382-0.008-0.763-0.011-1.138-0.02c0.131-0.282-0.194-0.327-0.537-0.352c0.021-0.225,0.044-0.444,0.067-0.671
	C77.312,411.327,77.383,411.134,77.438,410.929z"/>
<path fill-rule="evenodd" clip-rule="evenodd" fill="#FFFFFF" d="M394.904,463.744c0.299-0.703,2.575-0.062,2.403,0.848
	C395.919,464.809,395.614,464.1,394.904,463.744z"/>
<path fill="#2C3E50" d="M495.726,300.362c-0.952-10.191-1.392-25.49-3.892-36.125c0.987-0.127,0.016-1.924,0.868-2.158
	c-2.105-2.504-1.384-6.667-1.756-10.236c-0.499-4.821-2.6-9.555-3.615-14.75c-4.135-21.145-7.697-42.281-14.487-61.014
	c-4.552-12.564-3.701-24.313-10.302-34.909c-1.236-1.983-3.617-3.424-4.695-5.023c-6.66-9.869-20.79-19.309-31.161-25.868
	c-6.017-2.429-12.281-4.333-15.249-8.353c-3.563-1.07-7.489-0.12-10.932-1.293c1.363-24.7-8.034-43.536-7.968-62.827
	c0.017-4.653,0.038-12.519,2.328-15.145c2.021-0.322,2.421-0.326,4.473-0.069c4.79-2.838,15.017-1.816,20.673-3.397
	c6.111,1.641,14.744,1.844,20.42,4.742c1.137,0.333,0.917-0.473,1.866-0.299c8.131,3.669,19.202,9.464,24.839,18.081
	c6.59,10.072,6.98,20.258,4.294,27.868c-4.242,1.701-13.745,4.9-18.702-0.039c-1.588-1.584-1.286-3.045-1.945-4.454
	c-3.066-6.548-8.848-8.66-18.891-8.438c-1.513,0.603-2.544,1.587-4.507,1.868c-0.683,5.716,1.113,14.074,8.146,19.544
	c1.528,1.187,3.701,1.71,5.213,2.889c2.813,2.191,4.621,4.531,7.321,6.314c6.617,1.816,9.253,5.205,15.619,6.56
	c4.776,1.016,9.72,0.063,13.717-0.798c14.085-3.028,19.289-17.885,14.016-34.19c-2.629-8.13-6.342-18.04-11.249-25.042
	c-0.449-0.639-1.53-1.227-1.952-1.894c-2.416-3.842-3.714-7.639-6.153-10.897c-6.297-8.416-13.067-15.231-21.62-18.854
	C440.087,2.534,433.046,0.011,423.076,0c-1.174,0.16-1.3,1.322-2.566,1.387c-17.535-1.006-34.698,2.205-50.545,1.876
	c-4.325-0.092-7.986,0.387-12.206,0.468c-10.321,0.2-15.824,1.381-20.8,0.554c-7.312-0.762-17.868-2.638-24.909-0.369
	c-4.152,4.161-3.57,15.885,1.057,19.864c3.584,2.027,7.594,3.75,12.445,4.707c5.288,3.054,14.868,3.358,20.137,7.298
	c1.777,2.531,3.667,4.929,5.483,7.338c7.873,12.787,9.691,37.505,0.541,50.711c2.989-1.823,2.454-3.08,2.56-4.614
	c-1.536-0.037-4.1,0.392-5.662,0.3c-7.501,4.202-19.101,3.697-27.604,6.17c-0.535-5.194-3.582-11.306-11.245-12.435
	c-7.476,0.75-8.795,9.298-9.867,16.905c-10.454,3.408-43.433-0.344-48.729-0.576c-0.941-0.56-68.452,3.206-72.082,4.421
	c-1.763-8.239-3.335-13.767-4.693-21.146c-1.451-7.891-2.448-20.096-2.726-25.591c-0.156-3.104-0.348-5.459,1.811-6.66
	c7.133,0.454,14.734,0.44,20.753,0.854c1.667-0.881,2.111-2.251,4.278-1.874c6.397-3.498,3.826-18.542-10.187-22.461
	c-4.303-3.04-8.886-7.497-14.029-8.2c-14.198-7.306-17.871-18.406-36.284-7.609c-5.406,7.345-12.288,12.621-15.501,19.714
	c-1.165,2.572-0.987,5.406-1.348,7.174c-0.232,1.144-1.634,2.415-2.037,3.698c-1.627,5.184-0.161,6.799,0.039,9.823
	c0.521,7.9,1.117,10.438,6.129,12.918c4.105,2.036,9.059,0.803,13.949-1.513c4.859-2.303,8.809-4.436,12.42-8.055
	c0.085,0.24,0.29,0.228,0.659-0.091c5.147,7.042,1.922,20.735,3.157,33.959c0.937,10.04,2.457,19.39,4.365,28.792
	c-1.113,1.803,0.153,0.982,0.272,2.433c0.763,9.294-4.624,15.757-5.687,25.522c-0.761,0.245-0.827,0.941-1.562,1.211
	c1.242,1.457-0.906,4.965-2.099,4.743c-6.849-11.219-14.303-20.622-24.75-25.205c-1.918,1.213-1.924-0.09-3.401,0.495
	c0.295-1.361-0.862-0.893-1.132-1.533c-2.437,0.279-4.071-1.786-6.473-0.394c-4.529-1.916-11.363-2.229-18.402-1.553
	c-5.6,0.538-12.591,0.926-18.333,2.692c-5.563,1.71-13.603,6.363-17.303,8.38c-1.196,0.651-3.147,1.747-4.374,2.449
	c-1.969,1.129-3.378,2.539-5.408,3.356c-0.889,2.977-4.9,3.738-5.093,7.245c-2.889,0.646-3.397,3.022-6.063,3.764
	c-7.928,14.564-19.089,30.32-24.172,45.378c-1.813,0.513-2.888,3.253-1.016,3.002c-3.718,2.415-3.232,9.027-4.867,14.395
	c-0.785,2.573-0.865,4.83-1.397,7.23c-0.499,2.245-2.144,4.26-2.761,6.613c-4.723,18.007-4.676,33.142-4.797,49.664
	c-0.918,0.513-0.331,1.944-0.325,3.073c0.018,3.069-1.009,7.011-0.601,9.682c0.062,0.413,0.671,1.151,0.69,1.608
	c0.037,0.864-0.498,2.042-0.495,2.877c0.035,8.86,1.314,18.872,2.306,29.16c0.382,3.968,0.844,6.414,2.013,9.399
	c0.716,0.531,0.846,0.849,1.352,0.959c-1.035,1.042,0.795,2.367,1.382,4.023c1.141,3.219,1.925,7.632,2.626,10.624
	c2.461,2.715,3.706,7.372,5.057,11.628c3.073,2.109,1.935,6.411,5.537,9.219c-0.11,0.662-0.846,0.852-0.663,1.734
	c3.737,5.375,5.213,12.272,9.06,18.378c0.815,0.144,1.144-0.538,1.405,0c0.753,4.118,4.911,5.941,7.23,10.751
	c3.483,1.513,4.707,5.474,8.734,5.532c3.624,4.598,11.798,5.768,17.619,8.708c1.311,0.027,2.57,0.021,3.227-0.377
	c-1.287,0.837,1.358,1.098,2.617,1.353c0.256-0.588-0.75-0.87,0.068-1.026c2.038,2.557,6.857,0.062,9.189,2.44
	c2.065-1.397,6.787,0.033,7.015-1.497c2.738,1.396,5.874-1.126,9.897,0.848c-0.97-1.675,2.022-0.448,3.155-0.787
	c1.438-0.432,2.018-1.446,3.387-1.741c2.168-0.473,5.296-0.122,7.002-0.691c0.557-0.186-0.066-1.164,0.269-1.316
	c1.341-0.613,3.492,0.388,2.757-1.057c1.353,1.533,4.822-1.062,5.445-1.384c0.742,0.166,0.302,0.413-0.146,0.66
	c19.134-6.964,31.566-16.425,41.281-29.438c3.779,0.059,8.991,3.175,11.145,1.381c0.471,0.783,1.833,1.028,2.889,1.467
	c1.195-0.838,1.881,0.262,3.146-0.632c6.355,2.247,11.863,1.028,17.17,3.783c0.873-1.308,2.376-1.455,3.649-1.914
	c1.276-6.194,4.122-18.601,3.333-27.143c1.476-4.31,0.859-10.047,1.401-15.464c1.544-1.42,1.951-3.673,3.306-3.319
	c0.083-0.672,0.06-1.234-0.103-1.648c2.001-0.925,2.853-5.044,4.028-7.357c-0.245-2.335,0.831-2.832,0.534-6.064
	c0.819,0.203,0.082-2.538,0.709-2.687c0.094-10.148-0.042-20.686-1.756-32.903c-1.375-5.758-2.615-9.246-4.153-13.684
	c0.86-0.168-0.854-1.921-0.131-1.961c-0.141-1.144,0.361-1.498,1.738-1.484c6.754-11.535,17.398-20.488,26.857-30.879
	c1.469,0.767,2.811-2.857,4.823-4.687c1.325-1.208,3.817-1.282,2.544-2.52c1.038,0.147,2.288-1.337,2.515-2.161
	c0.612,1.064,1.502-1.455,2.109-0.388c1.198-2.338,3.497-3.157,5.592-4.305c1.375-3.591,8.354-5.166,10.093-9.901
	c1.871,0.352,2.815-2.576,4.44-3.712c3.462-2.42,5.744-5.549,8.815-8.138c0.887-0.746,2.166-0.887,2.978-1.555
	c6.503-5.348,12.033-10.714,15.941-15.335c1.873,0.502,1.668-1.425,3.275-1.216c1.999-3.758,6-5.002,8.275-8.225
	c4.523-1.864,7.379-4.21,10.762-7.833c10.615-6.531,23.416-12.952,36.178-22.707c0.062-1.091,1.447-2.751,2.296-2.019
	c-0.61,1.042-1.366,1.957-2.684,2.341c-0.727,6.233-5.758,10.669-5.281,17.517c-0.66,0.215-1.09,0.667-1.882,0.746
	c-4.421,12.378-6.074,24.282-7.176,39.053c-1.681,3.366-2.577,8.084-2.431,13.587c-2.136,2.555-1.292,7.598-2.425,11.128
	c-0.81,2.521-3.147,2.888-1.592,5.722c-0.452-0.66-1.104-0.652-1.204,0.287c-0.279,4.717-2.695,5.978-1.914,10.785
	c-0.077,0.972-0.765,1.002-1.028,1.69c1.209,4.044-2.399,7.909-0.203,10.964c-0.628-0.127-1.378-0.413-1.292,0.478
	c0.488,5.091-2.729,9.338-0.756,13.61c-0.829,2.241-1.722,7.824-1.648,11.521c0.031,1.415,0.896,2.744,0.932,3.988
	c-0.012-0.086-0.912,0.066-0.948,0.7c-0.093,1.61,0.931,4.315,0.766,6.06c-0.499,5.304-1.765,10.418-0.805,15.583
	c-0.986-0.157-1.473,0.226-1.457,1.151c2.025,6.316-1.26,11.281,1.685,17.273c-1.019,0.782-0.889,2.648-1.624,3.698
	c1,5.037,1.73,9.846,1.798,13.861c0.159,9.364,4.889,18.55,5.465,27.713c1.219,0.667,1.221,2.32,2.48,2.963
	c-0.75,4.554,1.42,9.143,3.339,13.946c0.097,1.639-0.037,3.491,0.699,4.593c-0.083,1.121,1.31-1.004,1.434,0.253
	c0.596,3.613,0.26,6.451,2.812,8.77c3.179,11.312,7.481,21.129,11.421,32.888c1.627,1.809,30.42,28.244,55.138,32.259
	c12.464-3.648,24.346-6.57,33.705-14.472c7.463-3.238,32.696-26.979,41.816-45.657c8.425-17.242,11.095-35.632,11.616-55.49
	c0.27-10.094,0.072-20.919,1.749-31.64C495.155,316.366,496.475,308.407,495.726,300.362z M402.711,124.009
	c0.721,3.109,2.944,5.006,3.432,8.329c-0.074,0.825,1.725,0.167,2.435,0.383c0.092,1.076-1.367,0.951-1.929,1.522
	c2.56,14.128,5.458,32.01,4.831,44.711c2.232,8.329-0.546,19.583,3.763,27.596c-0.146,0.898-1.736,0.649-1.486,1.855
	c1.22,10.8-0.734,21.089,1.819,32.904c-2.383,7.628,5.089,1.741,1.778,8.014c2.45,6.999,1.07,15.558,3.022,23.406
	c-3.876-0.489-10.363,1.138-14.306,0.98c-2.098-1.494-2.078-4.546-4.721-5.592c-1.965-0.495-2.031,0.526-3.235,0.637
	c-0.709-1.03-1.122-2.293-2.268-2.972c-4.962,1.369-2.595,7.418-3.542,9.755c-0.375,0.061-0.417-0.158-0.437-0.377
	c-1.377-2.15-5.253-3.324-8.363-2.683c-0.688-2.63,0.49-6.145-1.187-8.749c2.013-2.645,0.41-6.987,0-10.19
	c0.366-18.64-3.882-19.628-3.591-40.604c0.209-0.833-0.729-0.469-0.768-1.048c3.169-23.556-1.683-49.552-0.532-76.438
	C383.259,129.717,391.866,121.261,402.711,124.009z M363.456,11.189c18.463,0.889,23.922-3.698,40.613-3.859
	c0.618,3.109,2.058,3.069,2.364,6.623c-7.854,2.15-12.811,0.324-19.871,3.076c-1.104,6.013-0.543,14.578-0.474,20.818
	c0.216,19.159,6.099,37.926,5.915,57.102c-0.027,2.879,0.069,2.483-0.238,6.203c-2.312,0.699-1.754,2.211-3.074,3.643
	c-3.673,0.021-3.503,2.978-6.431,3.583c-1.402,1.867-4.185,2.995-5.785,5.217c-0.749,1.04-1.521,3.498-2.568,5.575
	c-0.599,2.75-1.159,6.295-1.655,10.349c0.546,0.953,1.095,1.822,1.099,2.263c0.027,2.832,0.986,5.821,0.939,8.375
	c-0.022,1.309-1.312,2.926,0,3.272c-0.535,4.403-4.015,12.5-2.692,18.203c-0.848,1.747-1.99,5.213-0.41,5.869
	c0.107,0.935-0.279,1.487,0,2.586c0.618,7.947,0.479,16.182,0,26.496c-0.053,0.498,4.188,42.345,4.2,42.951
	c-0.571,0.611-4.101-22.123-4.2-25.918c-0.05-1.834,0.131-3.811,0-5.678c-0.069-1.013,0.321-8.592,0-11.355
	c-0.443-3.826-1.022-9.737-2.467-12.775c-0.054-0.877,2.325-1.202,2.467-1.892c-1.824-12.507-0.897-36.348,1.064-52.396
	c-0.594-1.035-1.184-2.167-1.064-2.96c0.327-2.181,1.486-4.935,2.72-7.388c0.784-3.587-0.584-3.535,0.27-3.689
	c2.505-0.956,8.139-10.572,10.717-11.631c4.156-1.708-3.374-20.568-4.244-20.345c1.211-2.742,0.805-30.229-1.894-34.62
	c1.075-9.132,1.263-25.823-0.809-33.77C376.062,15.543,362.402,14.623,363.456,11.189z M368.721,110.842
	c1.485-1.465,4.313-4.358,4.938-1.771C372.232,109.919,369.937,112.084,368.721,110.842z M355.139,24.065
	c3.665-1.909,12.653-1.055,15.649,1.664c-0.052,5.431-0.482,8.658,0.051,13.234C365.274,35.047,361.64,28.292,355.139,24.065z
	 M344.784,99.726c-1.982,5.119-3.23,3.887-10.206,4.958c-5.04,0.773-2.43,0.949-5.634-2.994
	C337.467,99.304,336.681,102.051,344.784,99.726z M193.772,209.205c-1.221-27.075-4.073-54.058-7.004-80.992
	c1.98-0.943,27.371,0.802,37.636,1.496c2.441-0.633,22.184-2.528,23.567-2.18c2.039,0.516,62.461-5.452,62.165-6.971
	c4.375,2.041,8.193,5.609,13.462,5.429c5.682,2.962,10.887,2.411,15.814,1.928c0.314,1.203-0.639,1.227-0.442,2.313
	c-5.133,3.049-9.503,6.432-13.248,10.047c-3.322,1.146-5.989,2.035-8.825,3.951c-0.567,0.382-0.392,1.542-1.03,1.946
	c-0.601,0.378-1.623,0.041-1.977,0.385c-1.389,1.35-2.536,2.108-4.386,3.076c-2.115,1.105-3.007,2.886-4.692,4.702
	c-1.005,1.083-3.111,1.222-4.069,2.31c-0.574,0.645-0.07,1.933-0.645,2.545c-0.681,0.723-2.619,0.273-2.465,2.209
	c-8.781,4.079-12.785,12.526-20.832,18.736c-3.082,4.246-9.096,7.048-13.821,11.389c-0.294,0.68-0.624,1.33-0.755,2.207
	c-3.297,1.216-5.827,3.331-7.023,7.195c-1.283,0.582-2.129,1.691-3.503,2.19c-2.234,5.856-7.995,7.757-10.88,13.555
	c-0.406-0.483-0.539-0.154-1.076,0.014c-4.734,5.263-9.21,7.871-13.198,13.025c-6.179,4.75-11.518,9.933-17.238,14.249
	c0.616,0.941-0.617,0.162-0.744,1.687c-4.426,1.845-7.133,5.362-11.054,7.612c-0.641,0.002-0.775-0.458-1.458-0.421
	c-1.613-8.875-2.329-14.492-1.175-21.384c-0.135-0.388-0.298-3.066,0.26-2.433 M151.771,326.621
	c1.102,7.95-3.801,13.687-2.829,18.728c-3.977,6.498-8.011,14.111-11.589,22.241c-12.497,12.354-22.281,26.126-51.983,26.471
	c-3.037,0.036-6.729-0.277-11.114,0.235c-15.352-6.277-26.331-17.185-33.226-25.44c-0.819-5.007-7.962-9.367-9.043-14.428
	c-0.388-0.702-1.178-1.178-2.344-1.426c0.148-3.828-2.957-7.685-5.887-11.191c0.108-0.913,0.127-1.934-0.247-2.802
	c-0.371-0.863-1.033-0.226-1.673-1.016c-0.984-1.22-0.338-4.57-1.592-6.97c-0.577-1.098-1.953-1.979-2.233-2.72
	c-0.7-1.849,0.564-4.905,0.334-7.636c-0.236-2.819-0.997-5.114-1.46-7.621c-1.211-6.567,0.956-13.304,0.169-17.896
	c-0.205-1.21-1.669-2.605,0.259-4.19c-1.677-1.521-0.962-5.868,0.013-7.914c-0.474-0.007-0.403,0.363-0.527,0.603
	c-0.369-2.216,1.915-7.456-0.838-9.043c1.946-6.77,0.941-14.174,1.754-21.274c0.304-2.641,1.215-5.201,1.316-7.881
	c0.118-3.089,2.235-5.965,3.101-9.068c0.719-2.581-0.761-5.361,2.61-7.721c0.542-1.053-1.323-0.663-0.781-1.723
	c1.982-1.12,2.719-4.979,2.825-8.094c0.413,0.072,0.467,0.359,0.997,0.359c1.573-7.527,5.658-13.146,6.916-21.237
	c6.233-10.648,11.923-21.959,17.906-32.179c2.724-3.274,7.851-6.662,8.417-10.191c1.477,0.035,1.814-0.654,2.641-1.036
	c4.701-4.493,10.252-9.426,18.396-11.297c2.52,0.464,5.152-0.961,8.158-1.345c6.881-0.881,14.078,0.392,19.057,0.582
	c12.221,9.599,18.842,24.453,20.814,43.669c0.68,1.063,1.281,2.187,2.337,2.944c-1.333,1.499-2.019,5.015-3.902,4.975
	c-0.021,0.661,0.711,0.768,0.634,1.459c-4.386,1.712-3.146,6.37-7.871,8.447c-0.638,5.313-9.517,9.013-10.518,14.829
	c-1.551,0.256-2.015,1.227-3.191,1.738c-4.817,9.28-14.107,13.862-18.527,22.932c-2.526-0.561-0.182,1.487-2.717,0.929
	c-1.604,3.89-7.353,8.159-11.334,12.476c0.356,0.269,0.011,0.843-0.023,0.643c-5.037,3.196-10.047,6.603-11.441,11.13
	c2.826,2.333,0.201,8.018,8.112,9.865c-3.716,2.833,15.125,9.475,18.045,12.794c1.173,0.056,1.763,0.087,2.935,0.143
	c4.086,2.661,8.074,5.636,14.746,6.349c14.783,8.111,32.65,17.604,46.039,26.678C153.431,325.577,151.976,325.686,151.771,326.621z
	 M117.05,280.182c0.158-1.561,2.033,0.81,2.771,1.099c1.241-0.204,2.681-0.295,3.279-0.823c11.023,2.348,19.724-0.638,27.116,1.301
	c2.147,13.994-0.054,20.801-0.055,33.428c-9.163-2.791-13.183-8.926-23.501-12.049c-6.364-5.683-17.905-7.481-24.582-12.534
	c-1.739,0.052-1.591-0.678-3.634-0.501c-3.339-3.392-10.26-5.283-14.626-8.151c11.228-1.007,21.998-1.909,34.631-1.053
	C118.26,280.535,117.078,280.611,117.05,280.182z M205.356,288.069c0.106,0.434,1.071,2.954,0.937,2.269
	c0.383,0.212,0.055,0.616-0.233,0.629c1.598,6.571,1.675,14.646,1.885,19.286c0.37,8.192,0.309,19.102-4.751,24.555
	c-1.476-7.041-0.56-13.786-2.648-21.227c-1.058-0.548-1.342,0.407-2.07-0.504c-2.827,2.714,2.514,11.48,0.17,12.577
	c1.066,2.784,1.445,7.454,0.326,11.219c0.062,2.268-0.172,4.532-0.574,6.718c0.124,0.008,0.23-0.023,0.352,0.002
	c0.016,2.937-0.471,4.194-0.118,6.649c-0.916,3.721-1.408,8.719-1.628,13.338c-0.075,1.585,0.545,2.879,0.425,4.083
	c-0.265,2.672-3.057,6.194-2.04,10.438c-0.96-0.222-0.633,1.411-0.686,2.545c-6.549,0.657-13.577-1.91-19.83-1.731
	c-5.176-0.559-8.559-1.022-15.319-3.196c-0.735-1.722-0.844-3.294,1.314-4.033c6.03,2.424,12.213-0.582,16.193,1.995
	c2.742-0.943,7.901,1.125,11.06,1.221c4.478-0.82,5.355-5.311,4.738-10.09c0.26,0.138,0.282,0.46,0.613,0.545
	c-0.186-5.435,1.382-12.76,1.324-19.509c-0.216-0.219-0.399-0.494-0.469-0.869c-0.559-2.988,0.1-5.906,0.411-8.851
	c0.042-0.395,0.191-0.683,0.397-0.883c0.344-5.643,0.198-8.983-1.584-12.905c0.083-0.456,0.611,0.071,0.725,0.454
	c-0.013-4.604,0.019-5.416-1.492-8.862c-1.793-0.529-2.405,0.224-3.555,0.473c1.603,5.977,2.367,14.87,1.872,23.576
	c-2.649,0.533-6.635-2.253-10.849-3.036c-1.832-2.367-3.656-4.812-7.149-6.215c-1.841-3.469-3.887-6.533-5.859-9.551
	c-0.106-3.789-1.45-8.243-1.767-12.354c-0.222-2.875,1.114-5.665,0.052-7.329c2.307-10.611,5.435-22.959,15.296-29.405
	c1.005,0.078,1.501,0.117,2.474,0.195c1.916-2.079,6.009-4.837,9.591-1.764c0.468-0.898,0.699-0.143,2.089-0.136
	c0.396,0.854,0.342,1.464,1.198,2.115C200.237,273.593,203.663,281.121,205.356,288.069z M191.712,349.522
	c-3.155,4.816-1.39,13.03-3.198,20.471c-6.717-0.188-13.556-0.569-21.362-1.202c2.536-7.916,4.751-20.309,8.993-30.265
	c5.561,1.457,9.203,4.199,14.141,3.915C191.818,344.558,189.865,347.511,191.712,349.522z M172.945,242.518
	c-0.112,0.953,1.528,2.09,1.619,3.085c0.267,2.901-1.957,6.283-0.291,10.135c1.154,1.539,2.284,3.066,2.417,5.35
	c-2.618,0.315-3.798-0.224-7.24,0.18c0.706-7.478-3.17-16.889-1.478-23.132c-1.623-4.943,0.522-8.995-2.089-14.655
	c2.493-5.428-0.834-9.543-0.371-16.349c3.405-0.713,3.781-4.166,5.253-6.702c2.581,3.103,2.716,12.605,3.021,15.131
	C171.535,227.181,173.954,234.003,172.945,242.518z M177.28,265.696c-0.334-0.082-0.608-0.161-0.004-0.05
	c0.316-0.521,0.285-0.36,0.04,0.011c0.843,0.231,0.376,0.139-0.027,0.041c-0.002,0.002-0.005,0.006-0.007,0.009
	c0.081,0.399-1.157,1.925,1.6,0.723c-1.611,2.379-0.13,2.433-3.368,3.756c-0.269-2.544-1.758-1.237-2.035-3.188
	c0.033-0.362,1.482-0.03,1.502,0.15c0.958,0.263,1.888-0.829,2.301-1.442C177.281,265.704,177.281,265.7,177.28,265.696z
	 M291.621,183.513c0.14,0.597-2.286,1.563-1.984,3.642c-4.748,0.744-15.202,9.791-14.965,10.827
	c-1.954,1.534-2.636,0.077-4.021,2.857c-0.89-0.198-2.916,2.089-0.587,3.238c-9.861,10.999-20.925,17.492-33.005,25.86
	c-0.052,2.071-1.004,3.685-0.996,5.852c-2.014,0.714-3.533,2.076-4.396,4.305c-2.216,0.329-3.544,1.863-4.461,3.915
	c-2.672,0.856-6.513,5.163-7.744,7.668c-0.653,0.841-1.051-0.755-0.701,1.045c-1.965-0.298-4.312,3.504-4.888,5.044
	c-5.223,2.372-7.219,8.42-11.607,11.392c-0.058,0.793-0.43,1.226-0.188,2.355c-2.57-3.002-4.556-6.73-7.295-9.847
	c-4.227-0.479-4.994-2.519-8.978-2.42c-1.623-7.794-2.946-11.949-5.101-17.565c-0.028-10.328,0.653-19.438,0-31.759
	c1.19-1.716-2.562-5.615-1.27-9.491c-0.312-1.136,0.34-1.351-0.228-2.22c1.41-3.843-1.288-8.659,1.187-11.355
	c-1.43-0.202-4.56-2.462-2.839-3.415c-0.459-1.497-1.186-1.858-2.218-1.686c-0.989-5.03-0.224-6.172-0.709-11.576
	c-0.446-4.939-0.717-12.786-1.425-14.904c-0.617-1.837-4.71-11.347-6.048-11.355c-2.835-0.018-8.613,12.445-8.075,12.419
	c-5.208,8.633-15.916,32.455-15.679,36.55c-1.028-0.761-2.046,3.583-2.662,4.081c-2.843,4.386-5.038,7.087-9.049,10.113
	c-0.01,1.563-2.985,1.088-2.483,2.484c-2.892,0.265-6.306,4.466-6.743,7.807c-7.202,5.397-13.391,11.1-15.994,18.069
	c-0.839,0.324-20.495,21.725-21.375,22.085c0.025,0,0.152,0.984,0.178,0.984c0.216-0.006-4.456,1.97-2.992,1.936
	c0.936-0.549,3.021,8.877,4.375,8.877c1.221,0,4.798,2.916,5.678,3.371c7.394-1.182,7.75-15.564,10.519-15.502h0.063
	c4.591-0.017,7.652-3.054,8.047-4.195c4.896-3.841,7.671-7.158,10.32-12.623c3.922-4.037,8.116-6.428,9.67-10.734
	c0.514-0.259,2.473-6.107,3.459-6.032c3.392-5.351-1.863-2.346,3.133-6.768c2.109,4.497-1.988-1.407-0.178,2.484
	c0.265,0.841-0.484,1.873-0.533,2.452c1.884,3.248,0.329,1.175,0.71,5.354c-3.435,3.905-4.981,6.974-8.339,11.001
	c-3.6,1.75-11.779,11.885-12.631,12.274c-0.739,0.337-4.941,4.13-6.755,7.352c-2.098-0.35-4.479-0.51-6.967-0.566
	c-2.286,0.01-5.416,0.062-8.425,0.122c1.671,0.874-0.913,3.09-0.478,4.829c2.109-0.039,7.789-1.011,9.234-1.696
	c3.975,1.373,2.4,3.285,6.469,2.61c0.21,0.537,3.12,0.574,3.099,0.991c12.32-1.105,22.295,0.133,31.89,0.802
	c0.542-0.89,0.751,0.964,0,0c-14.1-0.657-32.129-1.105-50.898-1.69c-0.953,2.071,0.501,6.98-2.475,6.98
	c-2.414,0-4.5,1.022-5.583-0.472c-7.903,6.172,18.334,2.912,19.923,2.871c16.044-0.409,26.539-0.248,40.602,1.279
	c0.381,2.56,2.118,0.253,3.372,1.242c-17.093,1.434-45.69-1.761-66.997,0.909c-0.359,0.998-4.277-12.504-0.62-13.12
	c0.295-1.894-3.229-1.957-1.53-2.976c-0.911,0.02,5.549-2.342,4.728-2.346c-0.029,0.001-0.076,0.003-0.076,0.003
	s0.004-0.005,0.006-0.005c-0.91-0.004-1.77-0.023-2.537-0.072c0.562-2.844,6.943-4.99,4.264-6.72
	c6.728-4.708,12.94-8.215,16.014-14.297c5.227-5.458,17.491-20.975,18.182-20.904c3.795-7.022,11.737-11.864,14.877-20.146
	c7.984-6.165,12.836-17.289,16.323-26.757c1.531-1.247,21.767-63.397,23.655-61.698c0.838,0.751,2.755,2.139,3.368,5.048
	c11.228-1.816,107.438,1.306,118.988-2.05c2.388,4.541,5.826,4.628,9.752,8.403c-4.922,1.888-12.977-0.032-18.392,1.137
	c-0.977-0.38-1.462-0.568-2.427-0.953c-1.571,0.342-4.032-0.43-4.97,0.584c-1.371-1.007-4.339-1.714-4.458-0.261
	c-4.259-1.875-6.378-0.753-10.79-1.585c-0.048,0.427-0.487,0.557-0.796,1.307c-9.756-3.092-15.274,3.352-26.602-0.34
	c-1.44-0.79-1.126,0.707-2.193,0.419c-5.287-2.685-7.792-1.616-9.893,0.072c-6.859-2.062-13.738-2.428-18.201,0.76
	c-2.704-2.29-4.884,0.399-6.92-1.05c-2.033,4.033-9.556-3.531-9.933,1.53c-4.163-2.633-5.505,3.909-10.467,3.503
	c-0.771,0.033-3.121,1.236-4.101,1.062c3.561,23.522,5.299,40.769,8.265,58.551c-0.58,2.031,0.109,5.153,1.3,7.298
	c-0.467,7.203-1.205,14.347-0.636,22.274c0.248,3.482-0.558,7.032,1.167,9.135c-0.114,1.088-1.04,1.587-2.01,2.103
	c2.743,12.865-1.23,15.471,0.843,25.075c-3.195,2.353,5.475,8.76,3.474,11.493c0.269,1.3,7.426,3.709,8.338,4.403
	c2.727-2.334,2.638-6.93,6.743-7.911c0.937-6.107,9.626-6.834,12.78-12.4c-0.418,1.69-1.013-2.143-2.246-2.835
	c1.611-0.218,4.635,2.176,5.354-0.414c0.829,0.041,1.88-2.378,2.603-3.029c-0.004-0.161,3.683,0.467,2.129-1.088
	c5.031-5.004,8.792-11.284,14.873-18.077c1.633-0.28,1.808-1.335,2.997-3.267c4.063-1.324,9.303-0.275,11.226-4.11
	c3.595-2.815,88.797-76.018,91.079-78.066c2.631-2.362,4.228-5.366,5.913-8.517c4.844-2.538,3.024,2.21,3.188,7.895
	C346.786,139.287,296.726,180.84,291.621,183.513z M143.878,259.29c-6.477-0.063-16.489-1.556-24.953-1.828
	c1.719-6.169,10.299-6.617,10.931-13.203c0.503,0.023,0.853,0.04,1.249,0.06c0.448-0.581,1.004-1.073,1.66-1.466
	c2.84-3.592,4.971-6.098,8.671-9.34c1.382,1.217,1.798,4.623,0.821,6.681C143.648,240.621,143.878,259.29,143.878,259.29z
	 M466.647,352.693c2.139,11.82-0.558,23.577-4.805,37.152c-3.985,12.744-9.503,28.27-19.298,38.309
	c-4.1,10.463-27.862,16.915-39.789,15.607c-1.309,0.094-33.146-12.88-36.438-23.895c-0.289-0.332-0.722-0.537-1.185-0.697
	c-5.725-17.98-11.222-37.094-14.537-57.919c-1.927-12.106-3.291-24.688-5.601-36.545c-0.264-4.751-0.851-10.838-1.735-16.077
	c-0.072-0.435-1.633-3.235-1.633-3.276c0.006-0.895,5.517-16.304,4.233-17.946c0.222-1.31-0.671-1.743-1.189-2.483
	c0.688-9.037,0.142-19.865-0.103-27.585c0.735-5.371,1.829-12.264,1.236-17.094c2.182-7.296,0.635-1.575,1.52-9.052
	c1.84-15.573,4.413-30.533,8.062-45.798c-0.11-1.131,1.086-0.907,1.389-1.615c0.586-6.281,2.445-9.979,4.399-15.568
	c2.897,18.688,2.853,33.719,3.072,52.769c0.011,0.91,0.526,1.231,0.64,2.17c0.488,4.041-1.68,8.444,0.316,13.164
	c-0.086,1.125-0.852,1.476-0.804,2.761c-0.577,1.734,1.591,1.137,1.322,2.631c-0.302,0.276-0.981,0.109-1.101,0.595
	c0.391,1.77,2.362-2.864,2.869-4.27c-0.014-0.031-0.041-0.047-0.047-0.085c0.222-0.489,0.205-0.356,0.047,0.085
	c0.133,0.324,0.662,0.311,1.062,0.402c-1.405,13.187-0.141,23.636-0.443,37.611c0.407,1.473,2.662,1.329,3.909,2.046
	c2.783,8.503,14.41,1.475,20.726,4.372c0.36,4.674,2.179,17.176,7.208,19.49c4.458-1.2,3.765-14.34,4.686-18.458
	c7.801-1.732,16.512-3.72,25.449-3.13c2.129-0.966,2.267-3.422,4.147-4.58c-0.656-15.572,3.293-25.625-0.526-42.295
	c2.521-18.241-3.916-27.535-4.803-44.267c-0.225-4.25-0.865-8.824-1.686-13.046c-2.263-11.663-3.986-22.971-3.418-33.373
	c7.346,8.803,12.972,19.001,17.512,29.786c1.515-0.711,1.055,4.033,3.718,4.836c0.153,6.101,5.592,12.185,6.939,18.254
	c1.087,4.882,2.351,10.346,3.745,15.296c1.056,3.749,2.93,7.677,3.164,11.065c0.166,2.399-0.672,4.722-0.475,7.099
	c0.294,3.564,1.728,7.052,2.62,10.608c0.728,2.893,0.127,5.931,0.564,9c0.281,1.963,1.733,3.975,2.036,5.905
	c0.553,3.542-0.456,7.056,0.003,10.554c0.129,1.002,1.333,1.958,1.516,2.969c0.232,1.302-0.571,2.729-0.505,3.988
	c0.493,9.798,1.459,20.309,1.511,30.264c0.069,13.094-0.895,26.387,2.016,39.754C466.121,345.724,468.713,349.194,466.647,352.693z"
	/>
<path fill-rule="evenodd" clip-rule="evenodd" fill="#2C3E50" d="M76.834,411.256c-0.022,0.227-0.046,0.446-0.067,0.671
	c0.342,0.024,0.668,0.069,0.537,0.352c0.375,0.009,0.756,0.012,1.138,0.02c0.046-0.207,0.12-0.398,0.601-0.327
	c0.023-0.222,0.046-0.443,0.069-0.671c-0.346-0.028-0.67-0.066-0.532-0.349c-0.384-0.009-0.766-0.018-1.143-0.022
	C77.383,411.134,77.312,411.327,76.834,411.256z"/>
<path fill-rule="evenodd" clip-rule="evenodd" fill="#224099" d="M350.945,94.949c-1.982,5.119-9.243,11.209-16.219,12.281
	c-5.04,0.773-8.547-2.137-11.751-6.08C331.499,98.763,342.842,97.274,350.945,94.949z"/>
<path fill-rule="evenodd" clip-rule="evenodd" fill="#224099" d="M372,93.448c1.15,2.432,0.385,6.347,1.003,9.983
	c-4.475,0.108-5.894,4.791-9.547,6.501C366.483,104.592,369.935,99.613,372,93.448z"/>
<path fill-rule="evenodd" clip-rule="evenodd" fill="#224099" d="M373.658,109.071c-1.426,0.848-3.722,3.013-4.938,1.771
	C370.206,109.377,373.034,106.484,373.658,109.071z"/>
<path fill-rule="evenodd" clip-rule="evenodd" fill="#224099" d="M412.006,129.708c3.414,2.243,4.794,4.939,6.623,9.01
	c-0.981,10.723,1.587,17.952,0.783,27.896c3.896,9.048,1.469,22.059,5.407,29.26c-2.492,2.161-0.047,3.298,0.575,5.75
	c0.163,0.653-0.664,1.52-0.502,1.877c0.404,0.901,1.494,0.657,1.554,1.606c0.106,1.651-1.701,2.885-1.493,4.89
	c-0.443,1.203,1.345,0.851,1.555,1.592c-0.881,5.588-2.067,14.201,0.2,21.358c-0.205,6.726,0.882-0.882,2.86,4.073
	c-1.674,0.007-0.371,0.616-1.021,1.779c1.979,11.681,0.467,25.017-1.553,35.985c-2.228-0.453-1.341-2.294-0.51-3.294
	c-1.396-9.43-2.129-20.85-3.582-31.438c-0.276-0.814,0.981-0.487,1.026-1.057c-0.992-4.186-3.57,4.998-3.311,0.583
	c0.603-10.138-1.971-22.504-0.806-30.956c0.937-6.805-2.363-14.143-2.737-21.106c-0.403-7.528-0.481-14.959-1.23-22.564
	C414.688,153.157,414.033,141.456,412.006,129.708z"/>
<path fill-rule="evenodd" clip-rule="evenodd" fill="#224099" d="M96.552,267.505c19.518,0.774,35.901-1.865,50.207-1.197
	c0.542-0.89,0.416-1.985-0.335-2.948c-9.594-0.67-21.474-2.67-33.794-1.565c0.021-0.417,0.831-0.421,0.62-0.958
	c-4.069,0.675-6.091,0.983-10.066-0.39c-1.445,0.686-3.496,0.988-5.604,1.027C98.092,263.522,97.748,265.791,96.552,267.505z"/>
<path fill-rule="evenodd" clip-rule="evenodd" fill="#224099" d="M173.201,265.049c-14.295,1.955-32.313,7.491-66.892,6.552
	c-1.562,0.048-19.471-1.688-20.6-3.814c-0.178-1.774-1.254-3.437-0.911-5.643c-3.658,0.616-7.255,0.98-10.033,2.459
	c-6.642,3.539-0.21,9.573,5.856,13.434c1.946-0.152,0.682,0.951,1.042-0.047c20.459-2.563,69.807,2.908,91.536-5.45
	c0.898-0.346,2.683-3.965,3.49-4.361C175.652,265.518,173.582,267.609,173.201,265.049z"/>
<path fill-rule="evenodd" clip-rule="evenodd" fill="#224099" d="M379.615,247.323c-0.246,0.98-1.084,1.382-1.5,2.182
	c0.25,0.965,0.707,1.737,1.12,2.554c-1.355,7.294-0.626,17.572,0,25.841c-1.22-0.083-1.549,0.663-2.982,0.347
	c-2.875-2.812,0.016-6.765-3.81-8.538c-0.335-9.778,0.447-20.402-0.211-30.23c-0.56-8.339-3.881-5.274-3.986-14.744
	c-0.041-3.912,0.565-7.64,0.466-11.436c-0.05-1.833-1.153-3.47-1.283-5.337c-0.069-1.014,0.674-2.202,0.679-3.222
	c0.022-3.137-0.643-6.463-0.965-9.226c-0.442-3.826,0.76-9.012-0.685-12.049c-0.053-0.877,0.521-1.134,0.663-1.822
	c-2.887-19.791-2.548-40.111-2.127-63.301c3.205-2.546,7.306-4.407,11.397-5.148c1.27-1.753,2.328-5.797,2.231-8.583
	c-0.056-1.57-1.031-2.098-1.467-3.559c-1.236-4.164-0.593-9.365-1.081-13.438c-0.472-0.381-1.569,0.071-2.44,0.293
	c1.212-2.742,1.426-6.392,2.796-9.075c-0.265-4.066,2.184-8.254-0.01-9.04c2.027-5.684,1.266-16.735-1.433-21.126
	c1.075-9.132,1.021-19.582-1.051-27.528c-1.885,0.43-2.423-1.339-3.879-2.376c-3.56,0.122-7.097-0.334-11.385-0.543
	c-0.776-2.831-2.608-6.539-1.556-9.972c18.464,0.889,36.799-2.206,53.491-2.366c0.618,3.109,2.071,5.491,2.378,9.044
	c-7.854,2.15-16.244,1.959-23.306,4.71c-1.104,6.013-1.749,11.798-1.68,18.038c0.215,19.159,7.207,37.799,7.024,56.974
	c-0.028,2.879,1.247,6.362,0.939,10.082c-2.312,0.699-4.407,1.567-5.728,3c-3.673,0.02-5.287,1.512-8.214,2.116
	c-1.403,1.867-3.804,2.018-5.278,4.305c-1.514,2.35-2.163,8.273-2.767,12.301c-0.228,1.522,2.639,4.156,2.647,5.075
	c0.027,2.833-0.662,5.727-0.71,8.279c-0.021,1.309-1.785,3.441-0.474,3.786c-0.535,4.403-2.476,12.711-1.153,18.413
	c-0.849,1.747-0.888,6.08,0.693,6.735c0.107,0.935-1.295,0.625-1.015,1.725c0.618,7.946,1.149,15.028,0.671,25.342
	c-0.053,0.498,1.984,2.757,2.135,1.816c-1.997,13.598,0.315,34.058,0.599,36.229c0.31,0.066,0.354-0.143,0.371-0.363
	C378.115,235.64,376.641,243.729,379.615,247.323z"/>
<path fill="#224099" d="M139.415,209.005c-4.995,4.421-1.967,6.591-5.358,11.941c-0.987-0.074-3.035,2.314-3.549,2.573
	c-1.554,4.307-4.241,7.23-8.162,11.266c-2.649,5.466-5.838,7.426-10.734,11.267c-0.263,0.764-3.022,2.35-3.459,3.194
	c0.133,2.927-8.473,10.043-10.574,12.229c2.695,0.042,9.247-0.185,11.505,0.191c1.814-3.221,8.946-9.528,8.946-9.528
	s-1.418-0.577-1.298-0.714c0.834-0.912,5.479-1.748,6.726-3.401c0.6-2.497,3.758-6.399,7.357-8.149
	c3.359-4.027,5.994-8.532,9.429-12.437c-0.381-4.179,1.858-4.362-0.025-7.609c0.049-0.58,1.287-0.2,1.022-1.042
	C139.431,214.895,141.525,213.501,139.415,209.005z"/>
<path fill="#224099" d="M362.402,111.951c-3.939,2.294-7.577,8.039-12.419,10.576c-1.687,3.151-3.832,6.788-6.463,9.15
	c-2.282,2.048-7.308,5.37-8.683,5.698c-0.037,2.043-2.238,2.026-2.817,3.51c-0.729-0.16-1.304-0.172-1.671,0.016
	c-4.849,5.485-12.466,7.549-16.432,12.62c-5,1.164-6.068,6.035-10.229,7.545c-3.537,5.321-9.964,7.129-13.077,12.822
	c-6.54,4.263-10.091,11.655-19.984,16.29c-0.901,1.555-1.845,3.138-4.185,3.227c-0.224,1.774-2.622,3.478-5.039,4.079
	c-1.694,4.567-5.338,7.224-8.934,10.04c-1.923,3.833-4.597,6.983-8.66,8.307c-1.189,1.932-1.364,2.987-2.997,3.267
	c-6.077,6.787-13.506,12.624-18.549,17.611c0.058,0.007,0.109,0.052,0.113,0.205c-0.723,0.65-0.839,0.042-1.668,0.001
	c-0.72,2.589-3.244,4.571-4.855,4.79c1.232,0.692-0.786,2.027-0.367,0.338c-3.153,5.565-10.793,7.177-11.73,13.284
	c-4.104,0.981-5.104,5.168-7.831,7.502c-0.912-0.695-2.708-0.587-2.978-1.888c2.002-2.733-4.705-8.677-1.511-11.03
	c-2.072-9.604,0.607-15.358-2.136-28.223c0.97-0.516,1.571,1.192,1.684,0.104c-1.724-2.102-1.963-6.161-2.21-9.643
	c-0.568-7.927-0.243-15.899,0.224-23.101c-1.19-2.146-1.204-4.26-0.625-6.291c-1.609-18.195-3.893-34.292-7.454-57.814
	c0.98,0.174,122.679-4.508,127.6-6.396c-3.926-3.775-6.447-8.895-8.835-13.436c-11.549,3.356-108.191,2.53-119.419,4.346
	c-0.613-2.91-3.559-1.771-4.397-2.523c-1.888-1.699-2.91-7.804-3.418-10.673c-0.014-0.076,0.679-1.128,0.607-1.49
	c-1.463-7.164-4.665-17.621-4.162-24.771c0.16-2.26-0.296-2.774-0.75-5.135c-1.313-6.814,0.428-9.602-0.713-12.191
	c1.411-0.812,0.325-2.827,0.255-3.791c-3.361,0.446-8.489,1.089-11.065,3.927c3.117,0.797,2.18,6.583,2.341,10.645
	c0.503,12.654-0.188,31.577,5.282,43.738c-0.155,1.159-1.539,1.219-2.162,1.986c0.69,4.117,0.622,5.23,1.366,8.176
	c0.889-0.328,1.513-0.178,1.714,0.672c0.964,4.276-1.32,7.313-0.387,10.187c-5.278,10.261-7.116,21.282-12.211,32.84
	c-0.855-0.261-1.787,4.78-3.318,6.026c-3.487,9.468-6.911,20.73-14.895,26.896c-3.14,8.281-10.09,13.625-13.885,20.647
	c-0.691-0.07-1.342-0.624-1.76-0.066c1.692,0.701-1.012,4.079-3.694,4.409c-2.74,7.011-7.916,11.257-13.152,15.678
	c-3.074,6.082-8.896,10.927-15.624,15.636c2.68,1.729-11.88,12.105-12.441,14.949c2.731,0.175,6.638-1.561,10.667-1.703
	c0.059-0.164,0.186-0.398,0.267-0.587c0.116-2.226,1.18-4.368,3.186-5.514c2.763-4.141,6.583-9.027,9.676-11.926
	c0.103-0.098,0.261,0.033,0.399,0.04c2.367-2.357,7.559-4.021,7.024-8.041c0.85-0.324,2.372-0.259,3.212-0.583
	c2.603-6.97,10.792-13.953,17.994-19.35c0.437-3.341,2.53-5.854,5.421-6.119c-0.502-1.396-0.131-1.159-0.121-2.723
	c4.011-3.026,8.262-7.477,11.104-11.863c0.616-0.497,0.869-1.187,1.897-0.425c-0.237-4.095,5.238-9.524,7.424-14.629
	c0.935,0.909,0.842-0.162-0.037-0.44c5.57-7.445,6.161-17.503,11.369-26.136c-0.538,0.025-1.047,0.01-0.978-0.847
	c2.713-0.894,1.865-4.705,4.7-4.686c1.339,0.008,3.5,3.297,4.117,5.134c0.708,2.118,1.34,9.951,1.787,14.889
	c0.487,5.405,0.42,8.075,1.409,13.105c1.032-0.172,1.821-1.062,2.28,0.435c-1.721,0.954-0.21,3.14,1.22,3.342
	c-2.474,2.696-0.817,6.904-2.228,10.748c0.569,0.869,1.242,1.617,1.554,2.751c-1.292,3.875,1.743,8.066,0.552,9.782
	c0.653,12.321,0.049,21.295,0.076,31.623c2.156,5.615,2.457,12.457,4.08,20.251c3.984-0.098,7.061,1.026,11.287,1.505
	c2.739,3.117,6.369,5.245,8.939,8.247c-0.242-1.129,0.13-1.562,0.188-2.355c4.388-2.972,6.384-9.02,11.607-11.392
	c0.576-1.54,2.923-5.342,4.888-5.044c-0.35-1.8,0.048-0.204,0.701-1.045c1.231-2.505,5.072-6.812,7.744-7.668
	c0.917-2.052,2.245-3.586,4.461-3.915c0.864-2.229,2.383-3.591,4.396-4.305c-0.008-2.167,1.791-1.833,1.843-3.904
	c12.08-8.368,22.297-16.81,32.158-27.808c1.034,0.36,1.036-0.46,1.926-0.262c1.385-2.781,3.87-4.068,5.824-5.602
	c-0.236-1.036,0.51-0.85,0.394-1.72c5.058-2.357,29.33-26.438,32.771-26.111c1.493-3.961,4.658-6.214,9.578-6.996
	c2.248-4.262,8.428-4.857,12.675-7.796c0.52,0.122,0.587,0.535,1.233,0.568c0.159-2.446,3.879-1.524,3.773-4.286
	c9.193-3.443,13.661-12.34,22.093-18.594C360.168,127.593,359.25,117.866,362.402,111.951z"/>
<path fill-rule="evenodd" clip-rule="evenodd" fill="#224099" d="M173.201,265.049c0.034-0.363,0.436-0.149,0.456,0.03
	c1.587,0.435,4.448-0.8,3.619,0.567c1.678,0.458,1.139-0.722,2.494-0.472c0.225,0.3,0.451,0.609,0.933,0.717
	c-1.611,2.379-3.822,4.291-7.06,5.615C173.374,268.962,173.478,266.999,173.201,265.049z"/>
<path fill-rule="evenodd" clip-rule="evenodd" fill="#BDC3C7" d="M203.194,334.808c-1.476-7.041-0.56-13.786-2.648-21.227
	c-1.058-0.548-1.342,0.407-2.07-0.504c-2.827,2.714,2.514,11.48,0.17,12.577c1.265,3.307,1.099,9.697-0.335,13.133
	c-1.325-0.559-1.827,0.278-3.281-0.241c-0.056-7.338,0.634-11.551-1.48-16.207c0.083-0.456,0.611,0.071,0.725,0.454
	c-0.013-4.604,0.019-5.416-1.492-8.862c-1.793-0.529-2.405,0.224-3.555,0.473c1.603,5.977,2.367,14.87,1.872,23.576
	c-2.649,0.533-6.635-2.253-10.849-3.036c-1.832-2.367-3.656-4.812-7.149-6.215c-1.841-3.469-3.887-6.533-5.859-9.551
	c-0.106-3.789-1.45-8.243-1.767-12.354c-0.222-2.875,1.114-5.665,0.052-7.329c2.307-10.611,5.435-22.959,15.296-29.405
	c0.841,0.065,1.666,0.131,2.474,0.195c1.916-2.079,6.009-4.837,9.591-1.764c0.468-0.898,0.699-0.143,2.089-0.136
	c0.396,0.854,0.342,1.464,1.198,2.115c4.06,3.092,7.485,10.62,9.179,17.568c0.106,0.434,1.071,2.954,0.937,2.269
	c0.383,0.212,0.055,0.616-0.233,0.629c1.598,6.571,1.675,14.646,1.885,19.286C208.315,318.445,208.255,329.354,203.194,334.808z"/>
<path fill-rule="evenodd" clip-rule="evenodd" fill="#BDC3C7" d="M193.111,336.386c0.891,0.111,4.585-1.094,6.221-0.781
	c0.051,2.939-1.052,12.183-0.699,14.638c-0.916,3.721-1.408,8.719-1.628,13.338c-0.075,1.585,0.545,2.879,0.425,4.083
	c-0.265,2.672-3.057,6.194-2.04,10.438c-0.96-0.222-0.633,1.411-0.686,2.545c-6.549,0.657-13.577-1.91-19.83-1.731
	c-5.176-0.559-8.559-1.022-15.319-3.196c-0.735-1.722-0.844-3.294,1.314-4.033c6.03,2.424,12.213-0.582,16.193,1.995
	c2.742-0.943,7.901,1.125,11.06,1.221c4.478-0.82,5.355-5.311,4.738-10.09c0.26,0.138,0.282,0.46,0.613,0.545
	C193.273,359.506,193.685,343.48,193.111,336.386z"/>
<path fill-rule="evenodd" clip-rule="evenodd" fill="#224099" d="M167.94,177.812c1.276,3.151,2.847,6.012,3.14,8.69
	c0.687,6.265,0.389,3.045-2.042,8.986c1.175,0.608,0.354,0.902,1.024,1.355c-1.98,0.347-4.133,3.626-3.814,6.084
	c-2.5-3.171-5.32-11.318,0.048-12.856C167.193,184.972,167.104,181.536,167.94,177.812z"/>
<g id="XMLID_15_">
	<g>
		<path fill="#FF7BAC" d="M359.641,184.661c0.852,1.817,3.038,7.268-0.113,9.624c-7.693,5.706-30.205,3.378-37.16,2.129
			c-17.345-4.344-37.216-17.913-53-26.23c-0.738-5.139,5.28-8.176,5.28-8.176c14.733,4.627,23.903,15.784,42.752,21.858
			C327.108,186.989,359.271,187.698,359.641,184.661z"/>
	</g>
	<g>
	</g>
</g>
<g id="XMLID_14_">
	<g>
		<path fill="#FF7BAC" d="M260.341,161.13c7.75-0.965,10.646,9.595,2.498,12.661C257.417,174.984,254.834,164.367,260.341,161.13z"
			/>
	</g>
	<g>
	</g>
</g>
<g id="XMLID_13_">
	<g>
		<path fill="#F47AB2" d="M141.565,245.583c-1.045,1.552-3.542,5.82-0.604,7.646c11.519,3.208,23.626,0.452,29.958-0.605
			c13.884-2.314,23.878-7.062,37.681-12.125l0.778-2.241c0.623-3.521-1.709-2.879-4.555-3.569
			c-13.318,2.637-15.293,5.634-32.707,9.093C163.235,245.555,141.875,247.382,141.565,245.583z"/>
	</g>
	<g>
	</g>
</g>
<g id="XMLID_4_">
	<g>
		<path fill="#FF7BAC" d="M224.817,223.356c0.005-3.529-6.472-5.938-8.393-4.737c-3.521,2.187-8.793,8.902-11.738,11.627
			c-3.257,2.967-6.03,6.262-7.98,9.339c2.82-0.285,7.146,3.156,9.495,8.2c1.727-0.372,6.918-8.337,10.093-12.465
			C217.507,233.739,223.464,225.364,224.817,223.356z"/>
	</g>
	<g>
	</g>
</g>
<g id="XMLID_3_">
	<g>
		<path fill="#EF75A7" d="M207.831,243.503c-1.31-7.699-12.511-9.752-13.094,1.51c0.647,8.551,12.695,5.932,13.157-1.203
			L207.831,243.503z"/>
	</g>
	<g>
	</g>
</g>
</svg>
