<svg enable-background="new -0.413 -10.929 500 500" height="500" viewBox="-.413 -10.929 500 500" width="500" xmlns="http://www.w3.org/2000/svg"><path d="m305.194 154.807c2.214 3.52-17.431 9.34-20.61 10.418-6.387 2.47-16.096 6.813-22.114 8.687 6.813-2.47 6.813-11.383-1.59-12.604 1.59-.823 12.292-3.52 18.963-5.195 3.662-.937 15.925-5.223 21.063-4.485.938.142 4.004 2.668 4.288 3.179z" fill="#f47ab2"/><path d="m359.345 184.065c.993 1.987 1.788 5.081 1.788 6.5-5.677 0-15.527-5.479-20.694-7.381-5.252-1.902-24.271-12.973-28.984-15.329-5.224-2.356-17.089-9.368-17.089-9.368 1.419-14.194 27.962 6.387 33.128 8.999 11.298 5.678 20.495 11.838 31.851 16.579z" fill="#e26f9e"/><path d="m337.994 290.301c.749 19.279-.804 96.736-1.888 115.499 0 0-13.212 9.354-21.722 2.557-6.704-4.335 1.14-28.201-2.805-38.102-3.861-9.197 8.356-64.193 7.041-74.443-1.432-10.979-1.202-22.591-1.032-34.541-1.678-43.878 1.139-60.037-.591-140.762-.367-17.007-8.392-20.436-19.797-27.271-20.245-12.074-72.716-20.533-97.997-20.223-33.143.596-64.958-2.167-98.547 1.483-26.685 2.769-43.386.013-53.189 25.141-7.357 17.345-.79 46.843-.962 65.469-.573 22.44-1.547 45.426-3.197 65.499-1.761 21.372 2.917 43.311-4.167 61.974-4.079 10.838-.456 23.141-1.583 34.467-.848 13.517 4 25.731-15.089 26.729 0 0-6.492-31.895-.607-46.835-4.015-30.747 3.329-54.261 5.54-84.322 2.41-28.628-.484-57.29 1.014-85.783 1.294-16.57-4.283-53.08 8.785-66.684 11.467-12.689 45.731-11.201 61.153-13.23 49.84-6.49 103.571 1.881 154.168 1.204 37.5-.426 68.067 16.342 79.267 48.396 12.679 37.088 5.71 68.595 6.402 107.229-.13 26.09-.979 50.594-.197 76.549z" fill="#b3b3b3"/><path d="m330.662 299.103c.758 19.491-.577 91.531-1.674 110.5 0 0-14.877 2.859-18.832-.4-6.777-4.384-2.211-19.255-6.199-29.264-3.869-9.301 8.448-64.901 7.119-75.264-1.447-11.1.831-22.836 1.003-34.917-1.696-44.362 1.151-60.699-.562-142.315-.371-17.194-8.483-20.661-20.051-27.57-20.468-12.208-73.518-20.76-99.077-20.446-33.508.603-65.639-2.191-99.598 1.499-27.014 2.8-43.9.015-53.811 25.419-7.438 17.537-.798 47.359-.973 66.191-.58 22.687-1.564 45.926-3.232 66.22-1.78 21.607 2.95 43.788-4.178 62.656-4.159 10.959-.496 23.397-1.636 34.849-.857 13.665 6.091 18.215-13.208 19.223 0 0-8.611-24.446-2.626-39.553-4.059-31.085 3.366-54.859 5.566-85.25 2.437-28.944-.49-57.922 1.06-86.729 1.308-16.753-4.366-53.664 8.846-67.418 11.594-12.83 46.235-11.325 61.863-13.377 50.389-6.561 104.677 1.903 155.833 1.218 37.914-.431 64.705 13.808 76.027 46.216 12.819 37.497 6.658 71.493 7.358 110.553-.097 26.375.227 51.716.982 77.959z" fill="#ccc"/><path d="m141.997 245.024c-1.744 2.163-1.837 4.198-2.227 5.943 7.333-1.519 20.995-5.379 27.594-7.327 6.829-2.004 43.521-16.497 49.856-18.065 6.952-1.424 4.349-3.171 4.349-3.171.423-3.353 1.914-3.409-.681-2.766-10.896 2.78-28.295 8.044-33.951 10.286-14.55 5.745-30.042 10.059-44.94 15.1z" fill="#e26f9e"/><path clip-rule="evenodd" d="m334.577 11.189c.046 1.635-.706 2.004-1.792 1.258-.046-1.233.918-1.18 1.792-1.258z" fill="#fff" fill-rule="evenodd"/><path clip-rule="evenodd" d="m138.966 57.862c2.33-1.589 3.918-2.02 4.625-.942-1.923 1.06-4.203 2.603-4.625.942z" fill="#fff" fill-rule="evenodd"/><path clip-rule="evenodd" d="m194.125 228.087c.427-1.98 1.364-2.908-.277-4.339.841-1.22.434-4.323-.749-7.014" fill="#bdc3c7" fill-rule="evenodd"/><path clip-rule="evenodd" d="m327.381 270.336c1.154-.041.744.987 1.563 1.17-.197.502-.794.479-.951 1.034-.891-.259-.779-1.221-.612-2.204z" fill="#fff" fill-rule="evenodd"/><path clip-rule="evenodd" d="m398.111 283.682c.96-.131 1.221.284 1.839.417-.357.314-.494.807-.458 1.44-.956-.241-1.735-.608-1.381-1.857z" fill="#fff" fill-rule="evenodd"/><path clip-rule="evenodd" d="m363.151 421.348c1.404-.276.518 1.714 1.58 1.764-.705 1.031-1.727-.727-1.58-1.764z" fill="#fff" fill-rule="evenodd"/><path clip-rule="evenodd" d="m77.438 410.929c.377.005.759.014 1.143.022-.139.282.186.32.532.349-.023.228-.046.449-.069.671-.481-.071-.555.12-.601.327-.382-.008-.763-.011-1.138-.02.131-.282-.194-.327-.537-.352.021-.225.044-.444.067-.671.477.072.548-.121.603-.326z" fill="#fff" fill-rule="evenodd"/><path clip-rule="evenodd" d="m394.904 463.744c.299-.703 2.575-.062 2.403.848-1.388.217-1.693-.492-2.403-.848z" fill="#fff" fill-rule="evenodd"/><path d="m495.726 300.362c-.952-10.191-1.392-25.49-3.892-36.125.987-.127.016-1.924.868-2.158-2.105-2.504-1.384-6.667-1.756-10.236-.499-4.821-2.6-9.555-3.615-14.75-4.135-21.145-7.697-42.281-14.487-61.014-4.552-12.564-3.701-24.313-10.302-34.909-1.236-1.983-3.617-3.424-4.695-5.023-6.66-9.869-20.79-19.309-31.161-25.868-6.017-2.429-12.281-4.333-15.249-8.353-3.563-1.07-7.489-.12-10.932-1.293 1.363-24.7-8.034-43.536-7.968-62.827.017-4.653.038-12.519 2.328-15.145 2.021-.322 2.421-.326 4.473-.069 4.79-2.838 15.017-1.816 20.673-3.397 6.111 1.641 14.744 1.844 20.42 4.742 1.137.333.917-.473 1.866-.299 8.131 3.669 19.202 9.464 24.839 18.081 6.59 10.072 6.98 20.258 4.294 27.868-4.242 1.701-13.745 4.9-18.702-.039-1.588-1.584-1.286-3.045-1.945-4.454-3.066-6.548-8.848-8.66-18.891-8.438-1.513.603-2.544 1.587-4.507 1.868-.683 5.716 1.113 14.074 8.146 19.544 1.528 1.187 3.701 1.71 5.213 2.889 2.813 2.191 4.621 4.531 7.321 6.314 6.617 1.816 9.253 5.205 15.619 6.56 4.776 1.016 9.72.063 13.717-.798 14.085-3.028 19.289-17.885 14.016-34.19-2.629-8.13-6.342-18.04-11.249-25.042-.449-.639-1.53-1.227-1.952-1.894-2.416-3.842-3.714-7.639-6.153-10.897-6.297-8.416-13.067-15.231-21.62-18.854-10.356.378-17.397-2.145-27.367-2.156-1.174.16-1.3 1.322-2.566 1.387-17.535-1.006-34.698 2.205-50.545 1.876-4.325-.092-7.986.387-12.206.468-10.321.2-15.824 1.381-20.8.554-7.312-.762-17.868-2.638-24.909-.369-4.152 4.161-3.57 15.885 1.057 19.864 3.584 2.027 7.594 3.75 12.445 4.707 5.288 3.054 14.868 3.358 20.137 7.298 1.777 2.531 3.667 4.929 5.483 7.338 7.873 12.787 9.691 37.505.541 50.711 2.989-1.823 2.454-3.08 2.56-4.614-1.536-.037-4.1.392-5.662.3-7.501 4.202-19.101 3.697-27.604 6.17-.535-5.194-3.582-11.306-11.245-12.435-7.476.75-8.795 9.298-9.867 16.905-10.454 3.408-43.433-.344-48.729-.576-.941-.56-68.452 3.206-72.082 4.421-1.763-8.239-3.335-13.767-4.693-21.146-1.451-7.891-2.448-20.096-2.726-25.591-.156-3.104-.348-5.459 1.811-6.66 7.133.454 14.734.44 20.753.854 1.667-.881 2.111-2.251 4.278-1.874 6.397-3.498 3.826-18.542-10.187-22.461-4.303-3.04-8.886-7.497-14.029-8.2-14.198-7.306-17.871-18.406-36.284-7.609-5.406 7.345-12.288 12.621-15.501 19.714-1.165 2.572-.987 5.406-1.348 7.174-.232 1.144-1.634 2.415-2.037 3.698-1.627 5.184-.161 6.799.039 9.823.521 7.9 1.117 10.438 6.129 12.918 4.105 2.036 9.059.803 13.949-1.513 4.859-2.303 8.809-4.436 12.42-8.055.085.24.29.228.659-.091 5.147 7.042 1.922 20.735 3.157 33.959.937 10.04 2.457 19.39 4.365 28.792-1.113 1.803.153.982.272 2.433.763 9.294-4.624 15.757-5.687 25.522-.761.245-.827.941-1.562 1.211 1.242 1.457-.906 4.965-2.099 4.743-6.849-11.219-14.303-20.622-24.75-25.205-1.918 1.213-1.924-.09-3.401.495.295-1.361-.862-.893-1.132-1.533-2.437.279-4.071-1.786-6.473-.394-4.529-1.916-11.363-2.229-18.402-1.553-5.6.538-12.591.926-18.333 2.692-5.563 1.71-13.603 6.363-17.303 8.38-1.196.651-3.147 1.747-4.374 2.449-1.969 1.129-3.378 2.539-5.408 3.356-.889 2.977-4.9 3.738-5.093 7.245-2.889.646-3.397 3.022-6.063 3.764-7.928 14.564-19.089 30.32-24.172 45.378-1.813.513-2.888 3.253-1.016 3.002-3.718 2.415-3.232 9.027-4.867 14.395-.785 2.573-.865 4.83-1.397 7.23-.499 2.245-2.144 4.26-2.761 6.613-4.723 18.007-4.676 33.142-4.797 49.664-.918.513-.331 1.944-.325 3.073.018 3.069-1.009 7.011-.601 9.682.062.413.671 1.151.69 1.608.037.864-.498 2.042-.495 2.877.035 8.86 1.314 18.872 2.306 29.16.382 3.968.844 6.414 2.013 9.399.716.531.846.849 1.352.959-1.035 1.042.795 2.367 1.382 4.023 1.141 3.219 1.925 7.632 2.626 10.624 2.461 2.715 3.706 7.372 5.057 11.628 3.073 2.109 1.935 6.411 5.537 9.219-.11.662-.846.852-.663 1.734 3.737 5.375 5.213 12.272 9.06 18.378.815.144 1.144-.538 1.405 0 .753 4.118 4.911 5.941 7.23 10.751 3.483 1.513 4.707 5.474 8.734 5.532 3.624 4.598 11.798 5.768 17.619 8.708 1.311.027 2.57.021 3.227-.377-1.287.837 1.358 1.098 2.617 1.353.256-.588-.75-.87.068-1.026 2.038 2.557 6.857.062 9.189 2.44 2.065-1.397 6.787.033 7.015-1.497 2.738 1.396 5.874-1.126 9.897.848-.97-1.675 2.022-.448 3.155-.787 1.438-.432 2.018-1.446 3.387-1.741 2.168-.473 5.296-.122 7.002-.691.557-.186-.066-1.164.269-1.316 1.341-.613 3.492.388 2.757-1.057 1.353 1.533 4.822-1.062 5.445-1.384.742.166.302.413-.146.66 19.134-6.964 31.566-16.425 41.281-29.438 3.779.059 8.991 3.175 11.145 1.381.471.783 1.833 1.028 2.889 1.467 1.195-.838 1.881.262 3.146-.632 6.355 2.247 11.863 1.028 17.17 3.783.873-1.308 2.376-1.455 3.649-1.914 1.276-6.194 4.122-18.601 3.333-27.143 1.476-4.31.859-10.047 1.401-15.464 1.544-1.42 1.951-3.673 3.306-3.319.083-.672.06-1.234-.103-1.648 2.001-.925 2.853-5.044 4.028-7.357-.245-2.335.831-2.832.534-6.064.819.203.082-2.538.709-2.687.094-10.148-.042-20.686-1.756-32.903-1.375-5.758-2.615-9.246-4.153-13.684.86-.168-.854-1.921-.131-1.961-.141-1.144.361-1.498 1.738-1.484 6.754-11.535 17.398-20.488 26.857-30.879 1.469.767 2.811-2.857 4.823-4.687 1.325-1.208 3.817-1.282 2.544-2.52 1.038.147 2.288-1.337 2.515-2.161.612 1.064 1.502-1.455 2.109-.388 1.198-2.338 3.497-3.157 5.592-4.305 1.375-3.591 8.354-5.166 10.093-9.901 1.871.352 2.815-2.576 4.44-3.712 3.462-2.42 5.744-5.549 8.815-8.138.887-.746 2.166-.887 2.978-1.555 6.503-5.348 12.033-10.714 15.941-15.335 1.873.502 1.668-1.425 3.275-1.216 1.999-3.758 6-5.002 8.275-8.225 4.523-1.864 7.379-4.21 10.762-7.833 10.615-6.531 23.416-12.952 36.178-22.707.062-1.091 1.447-2.751 2.296-2.019-.61 1.042-1.366 1.957-2.684 2.341-.727 6.233-5.758 10.669-5.281 17.517-.66.215-1.09.667-1.882.746-4.421 12.378-6.074 24.282-7.176 39.053-1.681 3.366-2.577 8.084-2.431 13.587-2.136 2.555-1.292 7.598-2.425 11.128-.81 2.521-3.147 2.888-1.592 5.722-.452-.66-1.104-.652-1.204.287-.279 4.717-2.695 5.978-1.914 10.785-.077.972-.765 1.002-1.028 1.69 1.209 4.044-2.399 7.909-.203 10.964-.628-.127-1.378-.413-1.292.478.488 5.091-2.729 9.338-.756 13.61-.829 2.241-1.722 7.824-1.648 11.521.031 1.415.896 2.744.932 3.988-.012-.086-.912.066-.948.7-.093 1.61.931 4.315.766 6.06-.499 5.304-1.765 10.418-.805 15.583-.986-.157-1.473.226-1.457 1.151 2.025 6.316-1.26 11.281 1.685 17.273-1.019.782-.889 2.648-1.624 3.698 1 5.037 1.73 9.846 1.798 13.861.159 9.364 4.889 18.55 5.465 27.713 1.219.667 1.221 2.32 2.48 2.963-.75 4.554 1.42 9.143 3.339 13.946.097 1.639-.037 3.491.699 4.593-.083 1.121 1.31-1.004 1.434.253.596 3.613.26 6.451 2.812 8.77 3.179 11.312 7.481 21.129 11.421 32.888 1.627 1.809 30.42 28.244 55.138 32.259 12.464-3.648 24.346-6.57 33.705-14.472 7.463-3.238 32.696-26.979 41.816-45.657 8.425-17.242 11.095-35.632 11.616-55.49.27-10.094.072-20.919 1.749-31.64 1.141-7.259 2.461-15.218 1.712-23.263zm-93.015-176.353c.721 3.109 2.944 5.006 3.432 8.329-.074.825 1.725.167 2.435.383.092 1.076-1.367.951-1.929 1.522 2.56 14.128 5.458 32.01 4.831 44.711 2.232 8.329-.546 19.583 3.763 27.596-.146.898-1.736.649-1.486 1.855 1.22 10.8-.734 21.089 1.819 32.904-2.383 7.628 5.089 1.741 1.778 8.014 2.45 6.999 1.07 15.558 3.022 23.406-3.876-.489-10.363 1.138-14.306.98-2.098-1.494-2.078-4.546-4.721-5.592-1.965-.495-2.031.526-3.235.637-.709-1.03-1.122-2.293-2.268-2.972-4.962 1.369-2.595 7.418-3.542 9.755-.375.061-.417-.158-.437-.377-1.377-2.15-5.253-3.324-8.363-2.683-.688-2.63.49-6.145-1.187-8.749 2.013-2.645.41-6.987 0-10.19.366-18.64-3.882-19.628-3.591-40.604.209-.833-.729-.469-.768-1.048 3.169-23.556-1.683-49.552-.532-76.438 5.833-5.731 14.44-14.187 25.285-11.439zm-39.255-112.82c18.463.889 23.922-3.698 40.613-3.859.618 3.109 2.058 3.069 2.364 6.623-7.854 2.15-12.811.324-19.871 3.076-1.104 6.013-.543 14.578-.474 20.818.216 19.159 6.099 37.926 5.915 57.102-.027 2.879.069 2.483-.238 6.203-2.312.699-1.754 2.211-3.074 3.643-3.673.021-3.503 2.978-6.431 3.583-1.402 1.867-4.185 2.995-5.785 5.217-.749 1.04-1.521 3.498-2.568 5.575-.599 2.75-1.159 6.295-1.655 10.349.546.953 1.095 1.822 1.099 2.263.027 2.832.986 5.821.939 8.375-.022 1.309-1.312 2.926 0 3.272-.535 4.403-4.015 12.5-2.692 18.203-.848 1.747-1.99 5.213-.41 5.869.107.935-.279 1.487 0 2.586.618 7.947.479 16.182 0 26.496-.053.498 4.188 42.345 4.2 42.951-.571.611-4.101-22.123-4.2-25.918-.05-1.834.131-3.811 0-5.678-.069-1.013.321-8.592 0-11.355-.443-3.826-1.022-9.737-2.467-12.775-.054-.877 2.325-1.202 2.467-1.892-1.824-12.507-.897-36.348 1.064-52.396-.594-1.035-1.184-2.167-1.064-2.96.327-2.181 1.486-4.935 2.72-7.388.784-3.587-.584-3.535.27-3.689 2.505-.956 8.139-10.572 10.717-11.631 4.156-1.708-3.374-20.568-4.244-20.345 1.211-2.742.805-30.229-1.894-34.62 1.075-9.132 1.263-25.823-.809-33.77-1.886.426-15.546-.494-14.492-3.928zm5.265 99.653c1.485-1.465 4.313-4.358 4.938-1.771-1.427.848-3.722 3.013-4.938 1.771zm-13.582-86.777c3.665-1.909 12.653-1.055 15.649 1.664-.052 5.431-.482 8.658.051 13.234-5.565-3.916-9.199-10.671-15.7-14.898zm-10.355 75.661c-1.982 5.119-3.23 3.887-10.206 4.958-5.04.773-2.43.949-5.634-2.994 8.523-2.386 7.737.361 15.84-1.964zm-151.012 109.479c-1.221-27.075-4.073-54.058-7.004-80.992 1.98-.943 27.371.802 37.636 1.496 2.441-.633 22.184-2.528 23.567-2.18 2.039.516 62.461-5.452 62.165-6.971 4.375 2.041 8.193 5.609 13.462 5.429 5.682 2.962 10.887 2.411 15.814 1.928.314 1.203-.639 1.227-.442 2.313-5.133 3.049-9.503 6.432-13.248 10.047-3.322 1.146-5.989 2.035-8.825 3.951-.567.382-.392 1.542-1.03 1.946-.601.378-1.623.041-1.977.385-1.389 1.35-2.536 2.108-4.386 3.076-2.115 1.105-3.007 2.886-4.692 4.702-1.005 1.083-3.111 1.222-4.069 2.31-.574.645-.07 1.933-.645 2.545-.681.723-2.619.273-2.465 2.209-8.781 4.079-12.785 12.526-20.832 18.736-3.082 4.246-9.096 7.048-13.821 11.389-.294.68-.624 1.33-.755 2.207-3.297 1.216-5.827 3.331-7.023 7.195-1.283.582-2.129 1.691-3.503 2.19-2.234 5.856-7.995 7.757-10.88 13.555-.406-.483-.539-.154-1.076.014-4.734 5.263-9.21 7.871-13.198 13.025-6.179 4.75-11.518 9.933-17.238 14.249.616.941-.617.162-.744 1.687-4.426 1.845-7.133 5.362-11.054 7.612-.641.002-.775-.458-1.458-.421-1.613-8.875-2.329-14.492-1.175-21.384-.135-.388-.298-3.066.26-2.433m-43.365 97.601c1.102 7.95-3.801 13.687-2.829 18.728-3.977 6.498-8.011 14.111-11.589 22.241-12.497 12.354-22.281 26.126-51.983 26.471-3.037.036-6.729-.277-11.114.235-15.352-6.277-26.331-17.185-33.226-25.44-.819-5.007-7.962-9.367-9.043-14.428-.388-.702-1.178-1.178-2.344-1.426.148-3.828-2.957-7.685-5.887-11.191.108-.913.127-1.934-.247-2.802-.371-.863-1.033-.226-1.673-1.016-.984-1.22-.338-4.57-1.592-6.97-.577-1.098-1.953-1.979-2.233-2.72-.7-1.849.564-4.905.334-7.636-.236-2.819-.997-5.114-1.46-7.621-1.211-6.567.956-13.304.169-17.896-.205-1.21-1.669-2.605.259-4.19-1.677-1.521-.962-5.868.013-7.914-.474-.007-.403.363-.527.603-.369-2.216 1.915-7.456-.838-9.043 1.946-6.77.941-14.174 1.754-21.274.304-2.641 1.215-5.201 1.316-7.881.118-3.089 2.235-5.965 3.101-9.068.719-2.581-.761-5.361 2.61-7.721.542-1.053-1.323-.663-.781-1.723 1.982-1.12 2.719-4.979 2.825-8.094.413.072.467.359.997.359 1.573-7.527 5.658-13.146 6.916-21.237 6.233-10.648 11.923-21.959 17.906-32.179 2.724-3.274 7.851-6.662 8.417-10.191 1.477.035 1.814-.654 2.641-1.036 4.701-4.493 10.252-9.426 18.396-11.297 2.52.464 5.152-.961 8.158-1.345 6.881-.881 14.078.392 19.057.582 12.221 9.599 18.842 24.453 20.814 43.669.68 1.063 1.281 2.187 2.337 2.944-1.333 1.499-2.019 5.015-3.902 4.975-.021.661.711.768.634 1.459-4.386 1.712-3.146 6.37-7.871 8.447-.638 5.313-9.517 9.013-10.518 14.829-1.551.256-2.015 1.227-3.191 1.738-4.817 9.28-14.107 13.862-18.527 22.932-2.526-.561-.182 1.487-2.717.929-1.604 3.89-7.353 8.159-11.334 12.476.356.269.011.843-.023.643-5.037 3.196-10.047 6.603-11.441 11.13 2.826 2.333.201 8.018 8.112 9.865-3.716 2.833 15.125 9.475 18.045 12.794 1.173.056 1.763.087 2.935.143 4.086 2.661 8.074 5.636 14.746 6.349 14.783 8.111 32.65 17.604 46.039 26.678.019 1.076-1.436 1.185-1.641 2.12zm-34.721-46.439c.158-1.561 2.033.81 2.771 1.099 1.241-.204 2.681-.295 3.279-.823 11.023 2.348 19.724-.638 27.116 1.301 2.147 13.994-.054 20.801-.055 33.428-9.163-2.791-13.183-8.926-23.501-12.049-6.364-5.683-17.905-7.481-24.582-12.534-1.739.052-1.591-.678-3.634-.501-3.339-3.392-10.26-5.283-14.626-8.151 11.228-1.007 21.998-1.909 34.631-1.053-.189-.364-1.371-.288-1.399-.717zm88.306 7.887c.106.434 1.071 2.954.937 2.269.383.212.055.616-.233.629 1.598 6.571 1.675 14.646 1.885 19.286.37 8.192.309 19.102-4.751 24.555-1.476-7.041-.56-13.786-2.648-21.227-1.058-.548-1.342.407-2.07-.504-2.827 2.714 2.514 11.48.17 12.577 1.066 2.784 1.445 7.454.326 11.219.062 2.268-.172 4.532-.574 6.718.124.008.23-.023.352.002.016 2.937-.471 4.194-.118 6.649-.916 3.721-1.408 8.719-1.628 13.338-.075 1.585.545 2.879.425 4.083-.265 2.672-3.057 6.194-2.04 10.438-.96-.222-.633 1.411-.686 2.545-6.549.657-13.577-1.91-19.83-1.731-5.176-.559-8.559-1.022-15.319-3.196-.735-1.722-.844-3.294 1.314-4.033 6.03 2.424 12.213-.582 16.193 1.995 2.742-.943 7.901 1.125 11.06 1.221 4.478-.82 5.355-5.311 4.738-10.09.26.138.282.46.613.545-.186-5.435 1.382-12.76 1.324-19.509-.216-.219-.399-.494-.469-.869-.559-2.988.1-5.906.411-8.851.042-.395.191-.683.397-.883.344-5.643.198-8.983-1.584-12.905.083-.456.611.071.725.454-.013-4.604.019-5.416-1.492-8.862-1.793-.529-2.405.224-3.555.473 1.603 5.977 2.367 14.87 1.872 23.576-2.649.533-6.635-2.253-10.849-3.036-1.832-2.367-3.656-4.812-7.149-6.215-1.841-3.469-3.887-6.533-5.859-9.551-.106-3.789-1.45-8.243-1.767-12.354-.222-2.875 1.114-5.665.052-7.329 2.307-10.611 5.435-22.959 15.296-29.405 1.005.078 1.501.117 2.474.195 1.916-2.079 6.009-4.837 9.591-1.764.468-.898.699-.143 2.089-.136.396.854.342 1.464 1.198 2.115 4.06 3.092 7.486 10.62 9.179 17.568zm-13.644 61.453c-3.155 4.816-1.39 13.03-3.198 20.471-6.717-.188-13.556-.569-21.362-1.202 2.536-7.916 4.751-20.309 8.993-30.265 5.561 1.457 9.203 4.199 14.141 3.915 1.532 2.117-.421 5.07 1.426 7.081zm-18.767-107.004c-.112.953 1.528 2.09 1.619 3.085.267 2.901-1.957 6.283-.291 10.135 1.154 1.539 2.284 3.066 2.417 5.35-2.618.315-3.798-.224-7.24.18.706-7.478-3.17-16.889-1.478-23.132-1.623-4.943.522-8.995-2.089-14.655 2.493-5.428-.834-9.543-.371-16.349 3.405-.713 3.781-4.166 5.253-6.702 2.581 3.103 2.716 12.605 3.021 15.131-2.251 11.62.168 18.442-.841 26.957zm4.335 23.178c-.334-.082-.608-.161-.004-.05.316-.521.285-.36.04.011.843.231.376.139-.027.041-.002.002-.005.006-.007.009.081.399-1.157 1.925 1.6.723-1.611 2.379-.13 2.433-3.368 3.756-.269-2.544-1.758-1.237-2.035-3.188.033-.362 1.482-.03 1.502.15.958.263 1.888-.829 2.301-1.442-.001-.002-.001-.006-.002-.01zm114.341-82.183c.14.597-2.286 1.563-1.984 3.642-4.748.744-15.202 9.791-14.965 10.827-1.954 1.534-2.636.077-4.021 2.857-.89-.198-2.916 2.089-.587 3.238-9.861 10.999-20.925 17.492-33.005 25.86-.052 2.071-1.004 3.685-.996 5.852-2.014.714-3.533 2.076-4.396 4.305-2.216.329-3.544 1.863-4.461 3.915-2.672.856-6.513 5.163-7.744 7.668-.653.841-1.051-.755-.701 1.045-1.965-.298-4.312 3.504-4.888 5.044-5.223 2.372-7.219 8.42-11.607 11.392-.058.793-.43 1.226-.188 2.355-2.57-3.002-4.556-6.73-7.295-9.847-4.227-.479-4.994-2.519-8.978-2.42-1.623-7.794-2.946-11.949-5.101-17.565-.028-10.328.653-19.438 0-31.759 1.19-1.716-2.562-5.615-1.27-9.491-.312-1.136.34-1.351-.228-2.22 1.41-3.843-1.288-8.659 1.187-11.355-1.43-.202-4.56-2.462-2.839-3.415-.459-1.497-1.186-1.858-2.218-1.686-.989-5.03-.224-6.172-.709-11.576-.446-4.939-.717-12.786-1.425-14.904-.617-1.837-4.71-11.347-6.048-11.355-2.835-.018-8.613 12.445-8.075 12.419-5.208 8.633-15.916 32.455-15.679 36.55-1.028-.761-2.046 3.583-2.662 4.081-2.843 4.386-5.038 7.087-9.049 10.113-.01 1.563-2.985 1.088-2.483 2.484-2.892.265-6.306 4.466-6.743 7.807-7.202 5.397-13.391 11.1-15.994 18.069-.839.324-20.495 21.725-21.375 22.085.025 0 .152.984.178.984.216-.006-4.456 1.97-2.992 1.936.936-.549 3.021 8.877 4.375 8.877 1.221 0 4.798 2.916 5.678 3.371 7.394-1.182 7.75-15.564 10.519-15.502h.063c4.591-.017 7.652-3.054 8.047-4.195 4.896-3.841 7.671-7.158 10.32-12.623 3.922-4.037 8.116-6.428 9.67-10.734.514-.259 2.473-6.107 3.459-6.032 3.392-5.351-1.863-2.346 3.133-6.768 2.109 4.497-1.988-1.407-.178 2.484.265.841-.484 1.873-.533 2.452 1.884 3.248.329 1.175.71 5.354-3.435 3.905-4.981 6.974-8.339 11.001-3.6 1.75-11.779 11.885-12.631 12.274-.739.337-4.941 4.13-6.755 7.352-2.098-.35-4.479-.51-6.967-.566-2.286.01-5.416.062-8.425.122 1.671.874-.913 3.09-.478 4.829 2.109-.039 7.789-1.011 9.234-1.696 3.975 1.373 2.4 3.285 6.469 2.61.21.537 3.12.574 3.099.991 12.32-1.105 22.295.133 31.89.802.542-.89.751.964 0 0-14.1-.657-32.129-1.105-50.898-1.69-.953 2.071.501 6.98-2.475 6.98-2.414 0-4.5 1.022-5.583-.472-7.903 6.172 18.334 2.912 19.923 2.871 16.044-.409 26.539-.248 40.602 1.279.381 2.56 2.118.253 3.372 1.242-17.093 1.434-45.69-1.761-66.997.909-.359.998-4.277-12.504-.62-13.12.295-1.894-3.229-1.957-1.53-2.976-.911.02 5.549-2.342 4.728-2.346-.029.001-.076.003-.076.003s.004-.005.006-.005c-.91-.004-1.77-.023-2.537-.072.562-2.844 6.943-4.99 4.264-6.72 6.728-4.708 12.94-8.215 16.014-14.297 5.227-5.458 17.491-20.975 18.182-20.904 3.795-7.022 11.737-11.864 14.877-20.146 7.984-6.165 12.836-17.289 16.323-26.757 1.531-1.247 21.767-63.397 23.655-61.698.838.751 2.755 2.139 3.368 5.048 11.228-1.816 107.438 1.306 118.988-2.05 2.388 4.541 5.826 4.628 9.752 8.403-4.922 1.888-12.977-.032-18.392 1.137-.977-.38-1.462-.568-2.427-.953-1.571.342-4.032-.43-4.97.584-1.371-1.007-4.339-1.714-4.458-.261-4.259-1.875-6.378-.753-10.79-1.585-.048.427-.487.557-.796 1.307-9.756-3.092-15.274 3.352-26.602-.34-1.44-.79-1.126.707-2.193.419-5.287-2.685-7.792-1.616-9.893.072-6.859-2.062-13.738-2.428-18.201.76-2.704-2.29-4.884.399-6.92-1.05-2.033 4.033-9.556-3.531-9.933 1.53-4.163-2.633-5.505 3.909-10.467 3.503-.771.033-3.121 1.236-4.101 1.062 3.561 23.522 5.299 40.769 8.265 58.551-.58 2.031.109 5.153 1.3 7.298-.467 7.203-1.205 14.347-.636 22.274.248 3.482-.558 7.032 1.167 9.135-.114 1.088-1.04 1.587-2.01 2.103 2.743 12.865-1.23 15.471.843 25.075-3.195 2.353 5.475 8.76 3.474 11.493.269 1.3 7.426 3.709 8.338 4.403 2.727-2.334 2.638-6.93 6.743-7.911.937-6.107 9.626-6.834 12.78-12.4-.418 1.69-1.013-2.143-2.246-2.835 1.611-.218 4.635 2.176 5.354-.414.829.041 1.88-2.378 2.603-3.029-.004-.161 3.683.467 2.129-1.088 5.031-5.004 8.792-11.284 14.873-18.077 1.633-.28 1.808-1.335 2.997-3.267 4.063-1.324 9.303-.275 11.226-4.11 3.595-2.815 88.797-76.018 91.079-78.066 2.631-2.362 4.228-5.366 5.913-8.517 4.844-2.538 3.024 2.21 3.188 7.895-8.429 6.256-58.489 47.809-63.594 50.482zm-147.743 75.777c-6.477-.063-16.489-1.556-24.953-1.828 1.719-6.169 10.299-6.617 10.931-13.203.503.023.853.04 1.249.06.448-.581 1.004-1.073 1.66-1.466 2.84-3.592 4.971-6.098 8.671-9.34 1.382 1.217 1.798 4.623.821 6.681 1.391.427 1.621 19.096 1.621 19.096zm322.769 93.403c2.139 11.82-.558 23.577-4.805 37.152-3.985 12.744-9.503 28.27-19.298 38.309-4.1 10.463-27.862 16.915-39.789 15.607-1.309.094-33.146-12.88-36.438-23.895-.289-.332-.722-.537-1.185-.697-5.725-17.98-11.222-37.094-14.537-57.919-1.927-12.106-3.291-24.688-5.601-36.545-.264-4.751-.851-10.838-1.735-16.077-.072-.435-1.633-3.235-1.633-3.276.006-.895 5.517-16.304 4.233-17.946.222-1.31-.671-1.743-1.189-2.483.688-9.037.142-19.865-.103-27.585.735-5.371 1.829-12.264 1.236-17.094 2.182-7.296.635-1.575 1.52-9.052 1.84-15.573 4.413-30.533 8.062-45.798-.11-1.131 1.086-.907 1.389-1.615.586-6.281 2.445-9.979 4.399-15.568 2.897 18.688 2.853 33.719 3.072 52.769.011.91.526 1.231.64 2.17.488 4.041-1.68 8.444.316 13.164-.086 1.125-.852 1.476-.804 2.761-.577 1.734 1.591 1.137 1.322 2.631-.302.276-.981.109-1.101.595.391 1.77 2.362-2.864 2.869-4.27-.014-.031-.041-.047-.047-.085.222-.489.205-.356.047.085.133.324.662.311 1.062.402-1.405 13.187-.141 23.636-.443 37.611.407 1.473 2.662 1.329 3.909 2.046 2.783 8.503 14.41 1.475 20.726 4.372.36 4.674 2.179 17.176 7.208 19.49 4.458-1.2 3.765-14.34 4.686-18.458 7.801-1.732 16.512-3.72 25.449-3.13 2.129-.966 2.267-3.422 4.147-4.58-.656-15.572 3.293-25.625-.526-42.295 2.521-18.241-3.916-27.535-4.803-44.267-.225-4.25-.865-8.824-1.686-13.046-2.263-11.663-3.986-22.971-3.418-33.373 7.346 8.803 12.972 19.001 17.512 29.786 1.515-.711 1.055 4.033 3.718 4.836.153 6.101 5.592 12.185 6.939 18.254 1.087 4.882 2.351 10.346 3.745 15.296 1.056 3.749 2.93 7.677 3.164 11.065.166 2.399-.672 4.722-.475 7.099.294 3.564 1.728 7.052 2.62 10.608.728 2.893.127 5.931.564 9 .281 1.963 1.733 3.975 2.036 5.905.553 3.542-.456 7.056.003 10.554.129 1.002 1.333 1.958 1.516 2.969.232 1.302-.571 2.729-.505 3.988.493 9.798 1.459 20.309 1.511 30.264.069 13.094-.895 26.387 2.016 39.754-2.041 3.543.551 7.013-1.515 10.512z" fill="#2c3e50"/><path clip-rule="evenodd" d="m76.834 411.256c-.022.227-.046.446-.067.671.342.024.668.069.537.352.375.009.756.012 1.138.02.046-.207.12-.398.601-.327.023-.222.046-.443.069-.671-.346-.028-.67-.066-.532-.349-.384-.009-.766-.018-1.143-.022-.054.204-.125.397-.603.326z" fill="#2c3e50" fill-rule="evenodd"/><g fill="#224099"><path clip-rule="evenodd" d="m350.945 94.949c-1.982 5.119-9.243 11.209-16.219 12.281-5.04.773-8.547-2.137-11.751-6.08 8.524-2.387 19.867-3.876 27.97-6.201z" fill-rule="evenodd"/><path clip-rule="evenodd" d="m372 93.448c1.15 2.432.385 6.347 1.003 9.983-4.475.108-5.894 4.791-9.547 6.501 3.027-5.34 6.479-10.319 8.544-16.484z" fill-rule="evenodd"/><path clip-rule="evenodd" d="m373.658 109.071c-1.426.848-3.722 3.013-4.938 1.771 1.486-1.465 4.314-4.358 4.938-1.771z" fill-rule="evenodd"/><path clip-rule="evenodd" d="m412.006 129.708c3.414 2.243 4.794 4.939 6.623 9.01-.981 10.723 1.587 17.952.783 27.896 3.896 9.048 1.469 22.059 5.407 29.26-2.492 2.161-.047 3.298.575 5.75.163.653-.664 1.52-.502 1.877.404.901 1.494.657 1.554 1.606.106 1.651-1.701 2.885-1.493 4.89-.443 1.203 1.345.851 1.555 1.592-.881 5.588-2.067 14.201.2 21.358-.205 6.726.882-.882 2.86 4.073-1.674.007-.371.616-1.021 1.779 1.979 11.681.467 25.017-1.553 35.985-2.228-.453-1.341-2.294-.51-3.294-1.396-9.43-2.129-20.85-3.582-31.438-.276-.814.981-.487 1.026-1.057-.992-4.186-3.57 4.998-3.311.583.603-10.138-1.971-22.504-.806-30.956.937-6.805-2.363-14.143-2.737-21.106-.403-7.528-.481-14.959-1.23-22.564-1.156-11.795-1.811-23.496-3.838-35.244z" fill-rule="evenodd"/><path clip-rule="evenodd" d="m96.552 267.505c19.518.774 35.901-1.865 50.207-1.197.542-.89.416-1.985-.335-2.948-9.594-.67-21.474-2.67-33.794-1.565.021-.417.831-.421.62-.958-4.069.675-6.091.983-10.066-.39-1.445.686-3.496.988-5.604 1.027.512 2.048.168 4.317-1.028 6.031z" fill-rule="evenodd"/><path clip-rule="evenodd" d="m173.201 265.049c-14.295 1.955-32.313 7.491-66.892 6.552-1.562.048-19.471-1.688-20.6-3.814-.178-1.774-1.254-3.437-.911-5.643-3.658.616-7.255.98-10.033 2.459-6.642 3.539-.21 9.573 5.856 13.434 1.946-.152.682.951 1.042-.047 20.459-2.563 69.807 2.908 91.536-5.45.898-.346 2.683-3.965 3.49-4.361-1.037-2.661-3.107-.57-3.488-3.13z" fill-rule="evenodd"/><path clip-rule="evenodd" d="m379.615 247.323c-.246.98-1.084 1.382-1.5 2.182.25.965.707 1.737 1.12 2.554-1.355 7.294-.626 17.572 0 25.841-1.22-.083-1.549.663-2.982.347-2.875-2.812.016-6.765-3.81-8.538-.335-9.778.447-20.402-.211-30.23-.56-8.339-3.881-5.274-3.986-14.744-.041-3.912.565-7.64.466-11.436-.05-1.833-1.153-3.47-1.283-5.337-.069-1.014.674-2.202.679-3.222.022-3.137-.643-6.463-.965-9.226-.442-3.826.76-9.012-.685-12.049-.053-.877.521-1.134.663-1.822-2.887-19.791-2.548-40.111-2.127-63.301 3.205-2.546 7.306-4.407 11.397-5.148 1.27-1.753 2.328-5.797 2.231-8.583-.056-1.57-1.031-2.098-1.467-3.559-1.236-4.164-.593-9.365-1.081-13.438-.472-.381-1.569.071-2.44.293 1.212-2.742 1.426-6.392 2.796-9.075-.265-4.066 2.184-8.254-.01-9.04 2.027-5.684 1.266-16.735-1.433-21.126 1.075-9.132 1.021-19.582-1.051-27.528-1.885.43-2.423-1.339-3.879-2.376-3.56.122-7.097-.334-11.385-.543-.776-2.831-2.608-6.539-1.556-9.972 18.464.889 36.799-2.206 53.491-2.366.618 3.109 2.071 5.491 2.378 9.044-7.854 2.15-16.244 1.959-23.306 4.71-1.104 6.013-1.749 11.798-1.68 18.038.215 19.159 7.207 37.799 7.024 56.974-.028 2.879 1.247 6.362.939 10.082-2.312.699-4.407 1.567-5.728 3-3.673.02-5.287 1.512-8.214 2.116-1.403 1.867-3.804 2.018-5.278 4.305-1.514 2.35-2.163 8.273-2.767 12.301-.228 1.522 2.639 4.156 2.647 5.075.027 2.833-.662 5.727-.71 8.279-.021 1.309-1.785 3.441-.474 3.786-.535 4.403-2.476 12.711-1.153 18.413-.849 1.747-.888 6.08.693 6.735.107.935-1.295.625-1.015 1.725.618 7.946 1.149 15.028.671 25.342-.053.498 1.984 2.757 2.135 1.816-1.997 13.598.315 34.058.599 36.229.31.066.354-.143.371-.363.376 2.152-1.098 10.241 1.876 13.835z" fill-rule="evenodd"/><path d="m139.415 209.005c-4.995 4.421-1.967 6.591-5.358 11.941-.987-.074-3.035 2.314-3.549 2.573-1.554 4.307-4.241 7.23-8.162 11.266-2.649 5.466-5.838 7.426-10.734 11.267-.263.764-3.022 2.35-3.459 3.194.133 2.927-8.473 10.043-10.574 12.229 2.695.042 9.247-.185 11.505.191 1.814-3.221 8.946-9.528 8.946-9.528s-1.418-.577-1.298-.714c.834-.912 5.479-1.748 6.726-3.401.6-2.497 3.758-6.399 7.357-8.149 3.359-4.027 5.994-8.532 9.429-12.437-.381-4.179 1.858-4.362-.025-7.609.049-.58 1.287-.2 1.022-1.042-1.81-3.891.284-5.285-1.826-9.781z"/><path d="m362.402 111.951c-3.939 2.294-7.577 8.039-12.419 10.576-1.687 3.151-3.832 6.788-6.463 9.15-2.282 2.048-7.308 5.37-8.683 5.698-.037 2.043-2.238 2.026-2.817 3.51-.729-.16-1.304-.172-1.671.016-4.849 5.485-12.466 7.549-16.432 12.62-5 1.164-6.068 6.035-10.229 7.545-3.537 5.321-9.964 7.129-13.077 12.822-6.54 4.263-10.091 11.655-19.984 16.29-.901 1.555-1.845 3.138-4.185 3.227-.224 1.774-2.622 3.478-5.039 4.079-1.694 4.567-5.338 7.224-8.934 10.04-1.923 3.833-4.597 6.983-8.66 8.307-1.189 1.932-1.364 2.987-2.997 3.267-6.077 6.787-13.506 12.624-18.549 17.611.058.007.109.052.113.205-.723.65-.839.042-1.668.001-.72 2.589-3.244 4.571-4.855 4.79 1.232.692-.786 2.027-.367.338-3.153 5.565-10.793 7.177-11.73 13.284-4.104.981-5.104 5.168-7.831 7.502-.912-.695-2.708-.587-2.978-1.888 2.002-2.733-4.705-8.677-1.511-11.03-2.072-9.604.607-15.358-2.136-28.223.97-.516 1.571 1.192 1.684.104-1.724-2.102-1.963-6.161-2.21-9.643-.568-7.927-.243-15.899.224-23.101-1.19-2.146-1.204-4.26-.625-6.291-1.609-18.195-3.893-34.292-7.454-57.814.98.174 122.679-4.508 127.6-6.396-3.926-3.775-6.447-8.895-8.835-13.436-11.549 3.356-108.191 2.53-119.419 4.346-.613-2.91-3.559-1.771-4.397-2.523-1.888-1.699-2.91-7.804-3.418-10.673-.014-.076.679-1.128.607-1.49-1.463-7.164-4.665-17.621-4.162-24.771.16-2.26-.296-2.774-.75-5.135-1.313-6.814.428-9.602-.713-12.191 1.411-.812.325-2.827.255-3.791-3.361.446-8.489 1.089-11.065 3.927 3.117.797 2.18 6.583 2.341 10.645.503 12.654-.188 31.577 5.282 43.738-.155 1.159-1.539 1.219-2.162 1.986.69 4.117.622 5.23 1.366 8.176.889-.328 1.513-.178 1.714.672.964 4.276-1.32 7.313-.387 10.187-5.278 10.261-7.116 21.282-12.211 32.84-.855-.261-1.787 4.78-3.318 6.026-3.487 9.468-6.911 20.73-14.895 26.896-3.14 8.281-10.09 13.625-13.885 20.647-.691-.07-1.342-.624-1.76-.066 1.692.701-1.012 4.079-3.694 4.409-2.74 7.011-7.916 11.257-13.152 15.678-3.074 6.082-8.896 10.927-15.624 15.636 2.68 1.729-11.88 12.105-12.441 14.949 2.731.175 6.638-1.561 10.667-1.703.059-.164.186-.398.267-.587.116-2.226 1.18-4.368 3.186-5.514 2.763-4.141 6.583-9.027 9.676-11.926.103-.098.261.033.399.04 2.367-2.357 7.559-4.021 7.024-8.041.85-.324 2.372-.259 3.212-.583 2.603-6.97 10.792-13.953 17.994-19.35.437-3.341 2.53-5.854 5.421-6.119-.502-1.396-.131-1.159-.121-2.723 4.011-3.026 8.262-7.477 11.104-11.863.616-.497.869-1.187 1.897-.425-.237-4.095 5.238-9.524 7.424-14.629.935.909.842-.162-.037-.44 5.57-7.445 6.161-17.503 11.369-26.136-.538.025-1.047.01-.978-.847 2.713-.894 1.865-4.705 4.7-4.686 1.339.008 3.5 3.297 4.117 5.134.708 2.118 1.34 9.951 1.787 14.889.487 5.405.42 8.075 1.409 13.105 1.032-.172 1.821-1.062 2.28.435-1.721.954-.21 3.14 1.22 3.342-2.474 2.696-.817 6.904-2.228 10.748.569.869 1.242 1.617 1.554 2.751-1.292 3.875 1.743 8.066.552 9.782.653 12.321.049 21.295.076 31.623 2.156 5.615 2.457 12.457 4.08 20.251 3.984-.098 7.061 1.026 11.287 1.505 2.739 3.117 6.369 5.245 8.939 8.247-.242-1.129.13-1.562.188-2.355 4.388-2.972 6.384-9.02 11.607-11.392.576-1.54 2.923-5.342 4.888-5.044-.35-1.8.048-.204.701-1.045 1.231-2.505 5.072-6.812 7.744-7.668.917-2.052 2.245-3.586 4.461-3.915.864-2.229 2.383-3.591 4.396-4.305-.008-2.167 1.791-1.833 1.843-3.904 12.08-8.368 22.297-16.81 32.158-27.808 1.034.36 1.036-.46 1.926-.262 1.385-2.781 3.87-4.068 5.824-5.602-.236-1.036.51-.85.394-1.72 5.058-2.357 29.33-26.438 32.771-26.111 1.493-3.961 4.658-6.214 9.578-6.996 2.248-4.262 8.428-4.857 12.675-7.796.52.122.587.535 1.233.568.159-2.446 3.879-1.524 3.773-4.286 9.193-3.443 13.661-12.34 22.093-18.594-.158-5.681-1.076-15.408 2.076-21.323z"/><path clip-rule="evenodd" d="m173.201 265.049c.034-.363.436-.149.456.03 1.587.435 4.448-.8 3.619.567 1.678.458 1.139-.722 2.494-.472.225.3.451.609.933.717-1.611 2.379-3.822 4.291-7.06 5.615-.269-2.544-.165-4.507-.442-6.457z" fill-rule="evenodd"/></g><path clip-rule="evenodd" d="m203.194 334.808c-1.476-7.041-.56-13.786-2.648-21.227-1.058-.548-1.342.407-2.07-.504-2.827 2.714 2.514 11.48.17 12.577 1.265 3.307 1.099 9.697-.335 13.133-1.325-.559-1.827.278-3.281-.241-.056-7.338.634-11.551-1.48-16.207.083-.456.611.071.725.454-.013-4.604.019-5.416-1.492-8.862-1.793-.529-2.405.224-3.555.473 1.603 5.977 2.367 14.87 1.872 23.576-2.649.533-6.635-2.253-10.849-3.036-1.832-2.367-3.656-4.812-7.149-6.215-1.841-3.469-3.887-6.533-5.859-9.551-.106-3.789-1.45-8.243-1.767-12.354-.222-2.875 1.114-5.665.052-7.329 2.307-10.611 5.435-22.959 15.296-29.405.841.065 1.666.131 2.474.195 1.916-2.079 6.009-4.837 9.591-1.764.468-.898.699-.143 2.089-.136.396.854.342 1.464 1.198 2.115 4.06 3.092 7.485 10.62 9.179 17.568.106.434 1.071 2.954.937 2.269.383.212.055.616-.233.629 1.598 6.571 1.675 14.646 1.885 19.286.371 8.193.311 19.102-4.75 24.556z" fill="#bdc3c7" fill-rule="evenodd"/><path clip-rule="evenodd" d="m193.111 336.386c.891.111 4.585-1.094 6.221-.781.051 2.939-1.052 12.183-.699 14.638-.916 3.721-1.408 8.719-1.628 13.338-.075 1.585.545 2.879.425 4.083-.265 2.672-3.057 6.194-2.04 10.438-.96-.222-.633 1.411-.686 2.545-6.549.657-13.577-1.91-19.83-1.731-5.176-.559-8.559-1.022-15.319-3.196-.735-1.722-.844-3.294 1.314-4.033 6.03 2.424 12.213-.582 16.193 1.995 2.742-.943 7.901 1.125 11.06 1.221 4.478-.82 5.355-5.311 4.738-10.09.26.138.282.46.613.545-.2-5.852.212-21.878-.362-28.972z" fill="#bdc3c7" fill-rule="evenodd"/><path clip-rule="evenodd" d="m167.94 177.812c1.276 3.151 2.847 6.012 3.14 8.69.687 6.265.389 3.045-2.042 8.986 1.175.608.354.902 1.024 1.355-1.98.347-4.133 3.626-3.814 6.084-2.5-3.171-5.32-11.318.048-12.856.897-5.099.808-8.535 1.644-12.259z" fill="#224099" fill-rule="evenodd"/><path d="m359.641 184.661c.852 1.817 3.038 7.268-.113 9.624-7.693 5.706-30.205 3.378-37.16 2.129-17.345-4.344-37.216-17.913-53-26.23-.738-5.139 5.28-8.176 5.28-8.176 14.733 4.627 23.903 15.784 42.752 21.858 9.708 3.123 41.871 3.832 42.241.795z" fill="#ff7bac"/><path d="m260.341 161.13c7.75-.965 10.646 9.595 2.498 12.661-5.422 1.193-8.005-9.424-2.498-12.661z" fill="#ff7bac"/><path d="m141.565 245.583c-1.045 1.552-3.542 5.82-.604 7.646 11.519 3.208 23.626.452 29.958-.605 13.884-2.314 23.878-7.062 37.681-12.125l.778-2.241c.623-3.521-1.709-2.879-4.555-3.569-13.318 2.637-15.293 5.634-32.707 9.093-8.881 1.773-30.241 3.6-30.551 1.801z" fill="#f47ab2"/><path d="m224.817 223.356c.005-3.529-6.472-5.938-8.393-4.737-3.521 2.187-8.793 8.902-11.738 11.627-3.257 2.967-6.03 6.262-7.98 9.339 2.82-.285 7.146 3.156 9.495 8.2 1.727-.372 6.918-8.337 10.093-12.465 1.213-1.581 7.17-9.956 8.523-11.964z" fill="#ff7bac"/><path d="m207.831 243.503c-1.31-7.699-12.511-9.752-13.094 1.51.647 8.551 12.695 5.932 13.157-1.203z" fill="#ef75a7"/></svg>