<svg enable-background="new 48.415 2.167 222 218" height="218" viewBox="48.415 2.167 222 218" width="222" xmlns="http://www.w3.org/2000/svg"><g fill="#34495e"><path d="m154.141 107.115h-3.967v24.181h3.967c7.149 0 11.569-4.745 11.569-12.09-.001-7.347-4.42-12.091-11.569-12.091z"/><path d="m154.79 101.523h-11.116v35.361h11.116c10.269 0 17.55-6.76 17.55-17.68s-7.279-17.681-17.55-17.681zm0 34.192h-9.944v-33.021h9.944c9.621 0 16.38 6.371 16.38 16.512s-6.759 16.509-16.38 16.509z"/><path d="m113.02 60.145c0-2.432-1.088-3.968-4.287-3.968h-6.145v7.872h6.016c3.201-.001 4.416-1.472 4.416-3.904z"/><path d="m109.562 72.369h-6.977v9.023h6.977c3.775 0 5.057-1.729 5.057-4.543 0-2.816-1.344-4.48-5.057-4.48z"/><path d="m270.333 0h-219-51.333v388.917h51.332 219 35.334v-388.917zm-196.079 141.305h-5.33v-44.201h5.33zm6.502 0h-5.332v-44.201h5.332zm45.51-63.369c0 7.936-5.824 12.607-16.639 12.607h-18.303v-43.518h18.879c8.639 0 14.207 3.968 14.207 11.264 0 5.184-2.561 8.062-6.016 9.343 4.032 1.153 7.872 4.097 7.872 10.304zm3.304 19.168v44.853c0 .521-.195.715-.91.131l-27.885-23.012v22.229h-4.875v-32.634l28.795 23.599v-35.166zm-10.984 22.361v-22.361h4.939v32.696l-28.795-23.595v35.102h-4.941v-44.787c0-.39.195-.715.91-.129zm44.237 99.019-2.638 1.524-2.638-1.524c-29.009-16.812-50.204-43.586-65.407-70.67h12.131c13.664 23.062 31.91 45.292 55.914 59.999 24.013-14.707 42.31-36.938 56.039-59.999h12.147c-15.281 27.084-36.537 53.858-65.548 70.67zm15.859-171.459h12.605l-14.463 18.879 16.189 24.638h-13.761l-10.364-15.808-3.646 4.479v11.327h-11.646v-43.515h11.646v18.047zm46.908 16.959v9.279h-15.74v7.486h19.771v9.792h-31.42l.002-43.517h30.523v9.791h-18.879v7.168zm-3.529 33.12h5.98l12.605 20.15-15.531 24.051h-5.461l15.272-23.726zm7.412 0h5.783l6.633 11.181 6.564-11.181h5.33l-12.352 19.176zm-17.487 17.226v4.161h-21.317v-15.796h24.506v4.354h-19.176v7.28zm0 5.331v4.095h-15.987v7.604h20.086v4.422h-25.416v-16.12zm3.188-22.557v4.42h-25.676v35.427h26.586v4.354h-31.916v-44.201zm-59.736 0c12.742 0 22.361 8.386 22.361 22.103 0 13.715-9.619 22.101-22.361 22.101h-17.095v-44.204zm-10.612-6.562h-11.645v-43.517h11.645zm105.122 50.763-8.904-15.016-9.103 15.016h-5.395l14.887-23.01 14.365 23.01zm7.345 0-15.08-24.051 13.064-20.15h5.461l-12.807 19.955 15.211 24.246zm11.605-113.866c-1.535 9.937-5.916 34.246-15.494 63.043h-11.104c8.803-25.655 13.383-48.028 15.447-60.015-31.268-8.264-63.99-12.448-97.355-12.448-46.582 0-82.489 8.252-97.261 12.295 1.992 11.938 6.469 34.328 15.242 60.166h-11.09c-9.537-28.957-13.795-53.254-15.277-63.17l-.676-4.513 4.371-1.305c10.998-3.281 51.041-13.992 104.694-13.992 35.937 0 71.168 4.734 104.72 14.068l4.502 1.252z"/></g></svg>