<svg enable-background="new 0 0 48 48" height="48" viewBox="0 0 48 48" width="48" xmlns="http://www.w3.org/2000/svg"><path d="m21.017 18c.001 2.218-1.797 4.018-4.015 4.019s-4.018-1.796-4.019-4.015c0-.001 0-.002 0-.004-.001-2.218 1.797-4.018 4.015-4.019s4.018 1.796 4.019 4.015z"/><path d="m15 31.25c6-7 12-7 18 0" fill="none" stroke="#000" stroke-linecap="round" stroke-width="4"/><path d="m21.352 18c0 2.218-1.797 4.018-4.017 4.019-2.219.001-4.019-1.796-4.021-4.015 0-.001 0-.002 0-.004 0-2.218 1.797-4.018 4.017-4.019 2.219-.001 4.019 1.796 4.021 4.015z" transform="translate(14)"/><circle cx="23.933" cy="23.933" fill="none" r="18.255" stroke="#000" stroke-width="4"/></svg>