<?xml version="1.0" encoding="utf-8"?>
<!-- Generator: Adobe Illustrator 15.0.2, SVG Export Plug-In . SVG Version: 6.00 Build 0)  -->
<!DOCTYPE svg PUBLIC "-//W3C//DTD SVG 1.1//EN" "http://www.w3.org/Graphics/SVG/1.1/DTD/svg11.dtd">
<svg version="1.1"
	 id="svg1872" xmlns:dc="http://purl.org/dc/elements/1.1/" xmlns:cc="http://web.resource.org/cc/" xmlns:svg="http://www.w3.org/2000/svg" xmlns:rdf="http://www.w3.org/1999/02/22-rdf-syntax-ns#" xmlns:sodipodi="http://sodipodi.sourceforge.net/DTD/sodipodi-0.dtd" xmlns:inkscape="http://www.inkscape.org/namespaces/inkscape" sodipodi:docname="face-sad.svg" inkscape:version="0.44" sodipodi:version="0.32" sodipodi:docbase="/home/luca/Artwork/blackwhite-icon-theme/scalable/emotes"
	 xmlns="http://www.w3.org/2000/svg" xmlns:xlink="http://www.w3.org/1999/xlink" x="0px" y="0px" width="48px" height="48px"
	 viewBox="0 0 48 48" enable-background="new 0 0 48 48" xml:space="preserve">
<sodipodi:namedview  borderopacity="1.0" pagecolor="#ffffff" bordercolor="#666666" id="base" inkscape:pageopacity="0.0" inkscape:pageshadow="2" inkscape:zoom="59.333333" inkscape:cx="19.68301" inkscape:cy="29.828502" inkscape:current-layer="layer1" showgrid="true" inkscape:grid-bbox="true" inkscape:document-units="px" inkscape:grid-points="true" inkscape:window-width="1280" inkscape:window-height="926" inkscape:window-y="25" inkscape:window-x="0">
	</sodipodi:namedview>
<path id="path5427" sodipodi:ry="4.0168543" sodipodi:cy="18" sodipodi:type="arc" sodipodi:rx="4.0168543" sodipodi:cx="15" d="
	M21.017,18c0.001,2.218-1.797,4.018-4.015,4.019c-2.218,0.001-4.018-1.796-4.019-4.015c0-0.001,0-0.002,0-0.004
	c-0.001-2.218,1.797-4.018,4.015-4.019c2.218-0.001,4.018,1.796,4.019,4.015C21.017,17.998,21.017,17.999,21.017,18z"/>
<path id="path6316" sodipodi:nodetypes="cc" fill="none" stroke="#000000" stroke-width="4" stroke-linecap="round" d="M15,31.25
	c6-7,12-7,18,0"/>
<g id="use7203" transform="translate(14,0)">
	
		<path id="path5427_1_" sodipodi:ry="4.0168543" sodipodi:cy="18" sodipodi:type="arc" sodipodi:rx="4.0168543" sodipodi:cx="15" d="
		M21.352,18c0,2.218-1.797,4.018-4.017,4.019c-2.219,0.001-4.019-1.796-4.021-4.015c0-0.001,0-0.002,0-0.004
		c0-2.218,1.797-4.018,4.017-4.019c2.219-0.001,4.019,1.796,4.021,4.015C21.352,17.998,21.352,17.999,21.352,18z"/>
</g>
<circle fill="none" stroke="#000000" stroke-width="4" cx="23.933" cy="23.933" r="18.255"/>
</svg>
