<?xml version="1.0" encoding="utf-8"?>
<!-- Generator: Adobe Illustrator 15.0.2, SVG Export Plug-In  -->
<!DOCTYPE svg PUBLIC "-//W3C//DTD SVG 1.1//EN" "http://www.w3.org/Graphics/SVG/1.1/DTD/svg11.dtd" [
	<!ENTITY ns_flows "http://ns.adobe.com/Flows/1.0/">
]>
<svg version="1.1"
	 xmlns="http://www.w3.org/2000/svg" xmlns:xlink="http://www.w3.org/1999/xlink" xmlns:a="http://ns.adobe.com/AdobeSVGViewerExtensions/3.0/"
	 x="0px" y="0px" width="32px" height="32px" viewBox="0 0 32 32" overflow="visible" enable-background="new 0 0 32 32"
	 xml:space="preserve">
<defs>
</defs>
<path fill="#3498DB" d="M31.043,12.872h-2.43c-0.306-1.229-0.809-2.434-1.475-3.546l1.713-1.714c0.375-0.375,0.375-0.98,0-1.354
	l-3.107-3.108c-0.375-0.375-0.98-0.375-1.355,0l-1.714,1.713c-1.12-0.672-2.314-1.169-3.546-1.475V0.957
	c0-0.53-0.428-0.957-0.957-0.957h-4.384c-0.53,0-0.956,0.427-0.956,0.957v2.431c-1.237,0.307-2.428,0.801-3.547,1.475L7.572,3.148
	c-0.375-0.375-0.98-0.375-1.355,0L3.108,6.257c-0.375,0.375-0.375,0.98,0,1.354l1.713,1.714c-0.667,1.115-1.131,2.319-1.435,3.546
	H0.957C0.427,12.872,0,13.298,0,13.828v4.384c0,0.53,0.427,0.956,0.957,0.956h2.391c0.307,1.238,0.801,2.428,1.474,3.547
	l-1.713,1.713c-0.375,0.375-0.375,0.98,0,1.355l3.108,3.108c0.375,0.375,0.98,0.375,1.355,0l1.713-1.714
	c1.124,0.678,2.31,1.128,3.547,1.436v2.43c0,0.53,0.426,0.957,0.956,0.957h4.384c0.529,0,0.957-0.427,0.957-0.957v-2.43
	c1.239-0.307,2.425-0.762,3.546-1.436l1.714,1.714c0.375,0.375,0.98,0.375,1.355,0l3.107-3.108c0.375-0.375,0.375-0.98,0-1.355
	l-1.713-1.713c0.674-1.117,1.166-2.316,1.475-3.547h2.43c0.53,0,0.957-0.426,0.957-0.956v-4.384
	C32,13.298,31.573,12.872,31.043,12.872z M20.403,20.164c-2.296,2.422-6.138,2.527-8.568,0.239c-2.427-2.302-2.541-6.14-0.239-8.568
	c1.151-1.213,2.674-1.832,4.224-1.873c1.549-0.042,3.13,0.482,4.343,1.634C22.592,13.898,22.705,17.736,20.403,20.164z"/>
</svg>
