<svg enable-background="new 0 0 32 32" height="32" viewBox="0 0 32 32" width="32" xmlns="http://www.w3.org/2000/svg"><path d="m31.043 12.872h-2.43c-.306-1.229-.809-2.434-1.475-3.546l1.713-1.714c.375-.375.375-.98 0-1.354l-3.107-3.108c-.375-.375-.98-.375-1.355 0l-1.714 1.713c-1.12-.672-2.314-1.169-3.546-1.475v-2.431c0-.53-.428-.957-.957-.957h-4.384c-.53 0-.956.427-.956.957v2.431c-1.237.307-2.428.801-3.547 1.475l-1.713-1.715c-.375-.375-.98-.375-1.355 0l-3.109 3.109c-.375.375-.375.98 0 1.354l1.713 1.714c-.667 1.115-1.131 2.319-1.435 3.546h-2.429c-.53.001-.957.427-.957.957v4.384c0 .53.427.956.957.956h2.391c.307 1.238.801 2.428 1.474 3.547l-1.713 1.713c-.375.375-.375.98 0 1.355l3.108 3.108c.375.375.98.375 1.355 0l1.713-1.714c1.124.678 2.31 1.128 3.547 1.436v2.43c0 .53.426.957.956.957h4.384c.529 0 .957-.427.957-.957v-2.43c1.239-.307 2.425-.762 3.546-1.436l1.714 1.714c.375.375.98.375 1.355 0l3.107-3.108c.375-.375.375-.98 0-1.355l-1.713-1.713c.674-1.117 1.166-2.316 1.475-3.547h2.43c.53 0 .957-.426.957-.956v-4.384c0-.53-.427-.956-.957-.956zm-10.64 7.292c-2.296 2.422-6.138 2.527-8.568.239-2.427-2.302-2.541-6.14-.239-8.568 1.151-1.213 2.674-1.832 4.224-1.873 1.549-.042 3.13.482 4.343 1.634 2.429 2.302 2.542 6.14.24 8.568z" fill="#3498db"/></svg>