<svg enable-background="new 0 0 360 216" height="216" viewBox="0 0 360 216" width="360" xmlns="http://www.w3.org/2000/svg"><path d="m2.362 14.106h327.4v189.297h-327.4z" fill="#fff"/><path d="m0 0h360v216h-360z" fill="#fff"/><path d="m2.362 14.106h327.4v36.635h-327.4z" fill="#3b97d3"/><path d="m2.362 64.994h327.4v36.635h-327.4z" fill="#2980ba"/><path d="m2.362 115.882h327.4v36.635h-327.4z" fill="#35495e"/><path d="m2.362 166.769h327.4v36.635h-327.4z" fill="#2c3e50"/><path d="m328.763 107.328 22.666-24.017-22.666-24.017z" fill="#2980ba"/><path d="m328.763 56.44 22.666-24.017-22.666-24.016z" fill="#3b97d3"/><path d="m328.763 158.216 22.666-24.017-22.666-24.017z" fill="#35495e"/><path d="m328.763 209.104 22.666-24.017-22.666-24.018z" fill="#2c3e50"/><g fill="#fff" font-family="'Ribbon'"><text font-size="42.8029" letter-spacing="2" transform="translate(24.4492 49.3066)">REGISTERED</text><text font-size="41.862" transform="translate(24.4492 201.1523)">bikeindex.org</text></g></svg>