<svg enable-background="new 0 0 360 216" height="216" viewBox="0 0 360 216" width="360" xmlns="http://www.w3.org/2000/svg"><path d="m32.6 13.015h327.4v189.297h-327.4z" fill="#fff"/><path d="m0 0h360v216h-360z" fill="#fff"/><path d="m32.6 13.015h327.4v36.635h-327.4z" fill="#3b97d3"/><path d="m32.6 63.903h327.4v36.635h-327.4z" fill="#2980ba"/><path d="m32.6 114.791h327.4v36.635h-327.4z" fill="#35495e"/><path d="m32.6 165.678h327.4v36.635h-327.4z" fill="#2c3e50"/><path d="m33.6 106.237-22.666-24.017 22.666-24.016z" fill="#2980ba"/><path d="m33.6 55.35-22.666-24.017 22.666-24.017z" fill="#3b97d3"/><path d="m33.6 157.125-22.666-24.017 22.666-24.017z" fill="#35495e"/><path d="m33.6 208.013-22.666-24.017 22.666-24.017z" fill="#2c3e50"/><g fill="#fff" font-family="'Ribbon'"><text font-size="42.8029" letter-spacing="2" transform="translate(54.4736 48.3057)">REGISTERED</text><text font-size="41.862" transform="translate(54.4736 201.1523)">bikeindex.org</text></g></svg>