<svg enable-background="new -50 -68.733 300 300" height="300" viewBox="-50 -68.733 300 300" width="300" xmlns="http://www.w3.org/2000/svg"><path d="m200 19.24c-7.358 3.264-15.267 5.469-23.566 6.461 8.471-5.078 14.978-13.119 18.041-22.701-7.929 4.703-16.71 8.117-26.057 9.957-7.484-7.975-18.148-12.957-29.95-12.957-22.66 0-41.033 18.371-41.033 41.031 0 3.216.363 6.348 1.062 9.351-34.101-1.711-64.336-18.047-84.573-42.872-3.532 6.06-5.556 13.108-5.556 20.628 0 14.236 7.244 26.795 18.254 34.153-6.726-.213-13.053-2.059-18.585-5.132-.004.171-.004.343-.004.516 0 19.88 14.144 36.464 32.915 40.234-3.443.938-7.068 1.439-10.81 1.439-2.644 0-5.214-.258-7.72-.736 5.222 16.301 20.375 28.165 38.331 28.495-14.043 11.006-31.735 17.565-50.96 17.565-3.312 0-6.578-.194-9.788-.574 18.159 11.643 39.727 18.437 62.899 18.437 75.473 0 116.746-62.524 116.746-116.747 0-1.779-.04-3.548-.119-5.309 8.016-5.784 14.972-13.01 20.473-21.239z" fill="#fff"/></svg>