<svg xmlns="http://www.w3.org/2000/svg" width="127" height="29" viewBox="0 0 127 29"><g><g><g><g><g><path fill="#261f42" d="M0 .49h5.075v10.978c.466-.795 1.188-1.476 2.17-2.04.982-.566 2.196-.849 3.642-.849 1.214 0 2.37.25 3.468.752a9.28 9.28 0 0 1 2.906 2.08c.84.886 1.505 1.945 1.996 3.178.49 1.232.736 2.58.736 4.045 0 1.463-.246 2.812-.736 4.044-.491 1.233-1.157 2.292-1.996 3.178a9.296 9.296 0 0 1-2.906 2.08 8.267 8.267 0 0 1-3.468.752c-1.446 0-2.66-.283-3.641-.848-.983-.565-1.705-1.245-2.17-2.042h-.31v2.273H0zm11.76 23.152a5.034 5.034 0 0 0 1.607-1.079 5.268 5.268 0 0 0 1.124-1.695c.283-.669.426-1.413.426-2.236 0-.822-.143-1.567-.426-2.236a5.284 5.284 0 0 0-1.124-1.696 5.066 5.066 0 0 0-1.608-1.079 4.873 4.873 0 0 0-1.918-.385c-.672 0-1.311.122-1.918.366a4.81 4.81 0 0 0-1.608 1.06 5.28 5.28 0 0 0-1.123 1.696c-.285.668-.426 1.426-.426 2.274 0 .848.141 1.606.426 2.274a5.275 5.275 0 0 0 1.123 1.696 4.802 4.802 0 0 0 1.608 1.06 5.08 5.08 0 0 0 1.918.366c.672 0 1.31-.128 1.918-.386z"/></g></g><g><path fill="#261f42" d="M25.045 6.65c.904 0 1.678-.313 2.325-.942.645-.63.968-1.393.968-2.293 0-.898-.323-1.662-.968-2.292A3.213 3.213 0 0 0 25.045.18c-.44 0-.86.083-1.26.25a3.238 3.238 0 0 0-1.743 1.714 3.134 3.134 0 0 0-.252 1.27c0 .464.083.887.252 1.272A3.222 3.222 0 0 0 23.786 6.4c.4.168.82.25 1.259.25zM22.526 28.07h5.066V9.193h-5.066z"/></g><g><path fill="#261f42" d="M45.13 17.92l-3.47 4.691 3.461 5.457h6.006v-.304z"/></g><g><path fill="#261f42" d="M69.484 23.516a10.603 10.603 0 0 1-3.546 3.736c-1.485.95-3.3 1.426-5.443 1.426-1.448 0-2.784-.25-4.01-.751a9.658 9.658 0 0 1-3.198-2.1 9.591 9.591 0 0 1-2.11-3.178c-.504-1.22-.757-2.561-.757-4.025 0-1.36.246-2.652.736-3.872a9.857 9.857 0 0 1 2.054-3.197 9.93 9.93 0 0 1 3.12-2.177c1.2-.539 2.524-.808 3.97-.808 1.525 0 2.88.25 4.07.75 1.187.502 2.181 1.195 2.983 2.081.8.886 1.407 1.933 1.82 3.139.413 1.208.62 2.518.62 3.93v.462a2.56 2.56 0 0 0-.038.423c-.026.13-.039.27-.039.424H55.42c.103.77.316 1.432.64 1.984a4.815 4.815 0 0 0 1.2 1.387 4.66 4.66 0 0 0 1.57.808c.567.168 1.149.25 1.743.25 1.162 0 2.124-.262 2.887-.788a5.774 5.774 0 0 0 1.801-1.984zm-4.611-7.319c-.026-.334-.136-.706-.33-1.117a3.943 3.943 0 0 0-.852-1.156 4.468 4.468 0 0 0-1.395-.886c-.556-.23-1.22-.347-1.995-.347-1.085 0-2.04.308-2.867.925s-1.408 1.477-1.744 2.581z"/></g><g><path fill="#261f42" d="M96.817 26.058h-.31a8.546 8.546 0 0 1-2.15 1.85c-.84.513-1.919.77-3.236.77a7.894 7.894 0 0 1-2.77-.482 7.193 7.193 0 0 1-2.267-1.329 5.93 5.93 0 0 1-1.511-2.041c-.362-.796-.543-1.67-.543-2.62 0-.975.194-1.855.582-2.638a6.017 6.017 0 0 1 1.627-2.023c.698-.564 1.517-.994 2.46-1.29.943-.295 1.97-.444 3.08-.444 1.24 0 2.26.098 3.062.29.8.192 1.459.391 1.976.597v-.578c0-1.002-.4-1.83-1.202-2.485-.8-.655-1.795-.982-2.983-.982-1.757 0-3.242.732-4.456 2.196l-3.681-2.504c2.015-2.517 4.766-3.775 8.254-3.775 2.945 0 5.191.687 6.741 2.06 1.55 1.375 2.325 3.41 2.325 6.107V28.06h-4.998zm-1.84-6.336a8.119 8.119 0 0 0-2.074-.25c-1.214 0-2.15.263-2.808.79-.66.526-.989 1.174-.989 1.944s.316 1.387.95 1.85c.632.461 1.361.692 2.189.692.671 0 1.29-.12 1.86-.365a4.626 4.626 0 0 0 1.453-.963c.4-.398.71-.86.93-1.387a4.22 4.22 0 0 0 .329-1.637 10.657 10.657 0 0 0-1.84-.674z"/></g><g><path fill="#261f42" d="M107.445 6.66a3.21 3.21 0 0 0 2.325-.946c.645-.63.968-1.395.968-2.294 0-.9-.323-1.665-.968-2.295a3.212 3.212 0 0 0-2.325-.945c-.44 0-.86.084-1.26.25a3.24 3.24 0 0 0-1.743 1.717c-.169.385-.252.81-.252 1.273 0 .463.083.887.252 1.272a3.254 3.254 0 0 0 1.743 1.717c.4.167.82.25 1.26.25zm-2.518 21.41h5.065V9.19h-5.066z"/></g><g><path fill="#261f42" d="M113.11 9.186h4.766v2.62h.31c.233-.462.542-.886.93-1.271a6.74 6.74 0 0 1 1.298-1.008 7.349 7.349 0 0 1 1.55-.693 5.452 5.452 0 0 1 1.646-.264c.672 0 1.247.072 1.724.214.478.143.885.329 1.22.556l-1.355 4.507a4.797 4.797 0 0 0-1.027-.365c-.375-.09-.833-.136-1.375-.136-.697 0-1.33.137-1.899.408a4.165 4.165 0 0 0-1.453 1.141c-.4.491-.71 1.065-.93 1.724a6.757 6.757 0 0 0-.33 2.149v9.293h-5.075z"/></g><g><path fill="#24cd74" d="M52.037 1.454c-1.132-.787-2.705-.462-3.535.637L35.606 19.167V11.82c0-1.382-1.071-2.586-2.46-2.628a2.532 2.532 0 0 0-2.616 2.522v13.794a2.566 2.566 0 0 0 2.573 2.558h.526c.949 0 2.238-.448 2.801-1.207L52.628 5.012a2.508 2.508 0 0 0-.59-3.558"/></g><g><path fill="#261f42" d="M78.876 7.531c0-.854.282-1.47.663-1.999 1.185-1.643 3.8-.85 4.143-.758l.405-4.143C83.217.232 81.991 0 81.023 0c-1.068 0-2.044.162-2.929.485a6.715 6.715 0 0 0-2.303 1.398c-.651.608-1.153 1.359-1.504 2.252-.352.892-.527 2.656-.527 3.821V28.064h5.116V13.433h3.842l.424-4.348h-4.266z"/></g></g></g></g></svg>