<svg width="474" height="96" viewBox="0 0 474 96" fill="none" xmlns="http://www.w3.org/2000/svg">
<rect width="473.734" height="96" rx="8" fill="#FC5200"/>
<path fill-rule="evenodd" clip-rule="evenodd" d="M361.498 63.6388L361.497 63.6374H370.713L376.375 52.2533L382.037 63.6374H393.237L376.374 31.0803L360.368 61.9888L354.222 53.0153C358.017 51.1853 360.382 48.016 360.382 43.4633V43.3737C360.382 40.1604 359.4 37.8391 357.525 35.9641C355.338 33.7771 351.812 32.3934 346.277 32.3934H331.012V63.6388H341.457V54.7114H343.688L349.58 63.6388H361.498ZM425.908 31.0803L409.048 63.6374H420.248L425.909 52.2533L431.571 63.6374H442.771L425.908 31.0803ZM401.152 64.9184L418.012 32.3614H406.812L401.15 43.7455L395.488 32.3614H384.289L401.152 64.9184ZM345.965 47.2572C348.464 47.2572 349.982 46.1413 349.982 44.2221V44.1324C349.982 42.1239 348.419 41.142 346.01 41.142H341.457V47.2572H345.965ZM308.675 41.2313H299.48V32.3934H328.315V41.2313H319.12V63.6388H308.675V41.2313ZM274.029 52.3011L268.449 58.9519C272.422 62.4341 278.135 64.2191 284.473 64.2191C292.865 64.2191 298.266 60.2017 298.266 53.6398V53.5509C298.266 47.2572 292.91 44.9359 284.92 43.4633C281.617 42.8377 280.769 42.3028 280.769 41.4544V41.3652C280.769 40.6064 281.483 40.0708 283.045 40.0708C285.946 40.0708 289.473 41.0081 292.419 43.1505L297.508 36.0984C293.892 33.2415 289.429 31.8128 283.403 31.8128C274.787 31.8128 270.145 36.4108 270.145 42.3471V42.4367C270.145 49.0425 276.305 51.0518 283.313 52.4793C286.661 53.1492 287.642 53.6398 287.642 54.5328V54.6225C287.642 55.4701 286.839 55.9607 284.964 55.9607C281.304 55.9607 277.421 54.8903 274.029 52.3011Z" fill="white"/>
<path d="M235.836 62.3622V42.9241H239.834V50.5063H248.271V42.9241H252.269V62.3622H248.271V54.0355H239.834V62.3622H235.836Z" fill="white"/>
<path d="M221.917 62.3622V46.4257H215.686V42.9241H232.173V46.4257H225.915V62.3622H221.917Z" fill="white"/>
<path d="M208.037 62.3622V42.9241H212.035V62.3622H208.037Z" fill="white"/>
<path d="M184.203 62.3622L179.074 42.9241H183.293L185.498 53.4014C185.774 54.8075 186.022 55.938 186.27 57.675H186.381C186.656 56.2137 186.822 55.3038 187.263 53.3738L189.745 42.9241H193.935L196.417 53.3738C196.858 55.3038 197.023 56.2137 197.299 57.675H197.409C197.658 55.938 197.906 54.8075 198.181 53.4014L200.415 42.9241H204.606L199.477 62.3622H195.314L192.86 51.9952C192.529 50.5339 192.309 49.5689 191.895 47.5561H191.785C191.371 49.5689 191.151 50.5339 190.82 51.9952L188.366 62.3622H184.203Z" fill="white"/>
<path d="M159.989 62.3622V46.4257H153.758V42.9241H170.246V46.4257H163.987V62.3622H159.989Z" fill="white"/>
<path d="M143.048 62.7758C137.561 62.7758 133.949 58.7503 133.949 52.6293C133.949 46.536 137.561 42.5105 143.048 42.5105C147.377 42.5105 150.63 45.0471 151.154 48.6866L147.156 49.624C146.715 47.3907 145.171 46.0673 142.993 46.0673C139.96 46.0673 138.057 48.5763 138.057 52.6293C138.057 56.6824 139.96 59.219 142.993 59.219C145.171 59.219 146.715 57.8956 147.156 55.6898L151.154 56.6273C150.63 60.2667 147.377 62.7758 143.048 62.7758Z" fill="white"/>
<path d="M116.916 62.3622V42.9241H130.399V46.3154H120.914V50.7269H129.709V54.0079H120.914V58.9709H130.399V62.3622H116.916Z" fill="white"/>
<path d="M95.5312 62.3622V42.9241H99.9152L105.843 52.8223C106.753 54.3112 107.36 55.5795 108.021 56.9857H108.159L108.076 52.0228V42.9241H111.881V62.3622H107.497L101.542 52.4639C100.66 50.975 100.053 49.7343 99.3637 48.3006H99.2534L99.3362 53.2635V62.3622H95.5312Z" fill="white"/>
<path d="M74.1445 62.3622V42.9241H78.5284L84.4564 52.8223C85.3663 54.3112 85.9728 55.5795 86.6346 56.9857H86.7724L86.6897 52.0228V42.9241H90.4946V62.3622H86.1107L80.1552 52.4639C79.2729 50.975 78.6663 49.7343 77.977 48.3006H77.8667L77.9494 53.2635V62.3622H74.1445Z" fill="white"/>
<path d="M60.5805 62.7758C54.9283 62.7758 51.3164 58.64 51.3164 52.6293C51.3164 46.6463 54.9283 42.5105 60.5805 42.5105C66.2327 42.5105 69.8447 46.6463 69.8447 52.6293C69.8447 58.64 66.2327 62.7758 60.5805 62.7758ZM60.5805 59.219C63.6961 59.219 65.7365 56.8754 65.7365 52.6293C65.7365 48.3833 63.6961 46.0673 60.5805 46.0673C57.4649 46.0673 55.4246 48.3833 55.4246 52.6293C55.4246 56.8754 57.4649 59.219 60.5805 59.219Z" fill="white"/>
<path d="M39.9717 62.7758C34.485 62.7758 30.873 58.7503 30.873 52.6293C30.873 46.536 34.485 42.5105 39.9717 42.5105C44.3005 42.5105 47.554 45.0471 48.0778 48.6866L44.0799 49.624C43.6388 47.3907 42.0948 46.0673 39.9166 46.0673C36.8837 46.0673 34.9812 48.5763 34.9812 52.6293C34.9812 56.6824 36.8837 59.219 39.9166 59.219C42.0948 59.219 43.6388 57.8956 44.0799 55.6898L48.0778 56.6273C47.554 60.2667 44.3005 62.7758 39.9717 62.7758Z" fill="white"/>
</svg>
