<svg width="189" height="37" viewBox="176 0 189 37" fill="none" xmlns="http://www.w3.org/2000/svg">
<path fill-rule="evenodd" clip-rule="evenodd" d="M275.925 35.6008L275.924 35.5993H286.002L292.193 23.1514L298.384 35.5993H310.63L292.192 0L274.689 33.7968L267.969 23.9845C272.118 21.9836 274.705 18.5181 274.705 13.54V13.442C274.705 9.92849 273.631 7.39027 271.581 5.34009C269.189 2.94868 265.334 1.43574 259.282 1.43574H242.59V35.6008H254.011V25.8391H256.451L262.894 35.6008H275.925ZM346.353 0L327.918 35.5993H340.164L346.355 23.1514L352.546 35.5993H364.792L346.353 0ZM319.284 37L337.719 1.40071H325.473L319.282 13.8486L313.091 1.40071H300.845L319.284 37ZM258.941 17.6885C261.673 17.6885 263.333 16.4684 263.333 14.3698V14.2718C263.333 12.0756 261.624 11.0019 258.989 11.0019H254.011V17.6885H258.941ZM218.165 11.0994H208.112V1.43574H239.641V11.0994H229.587V35.6008H218.165V11.0994ZM180.283 23.2037L174.181 30.476C178.525 34.2835 184.773 36.2353 191.703 36.2353C200.879 36.2353 206.785 31.8425 206.785 24.6675V24.5703C206.785 17.6885 200.928 15.1502 192.191 13.5401C188.579 12.856 187.652 12.2712 187.652 11.3435V11.2459C187.652 10.4162 188.433 9.83056 190.141 9.83056C193.313 9.83056 197.17 10.8554 200.391 13.1981L205.955 5.48697C202.001 2.36309 197.121 0.800959 190.532 0.800959C181.112 0.800959 176.036 5.8286 176.036 12.3196V12.4176C176.036 19.6406 182.772 21.8376 190.434 23.3986C194.095 24.131 195.168 24.6675 195.168 25.644V25.742C195.168 26.6689 194.29 27.2053 192.24 27.2053C188.238 27.2053 183.992 26.0348 180.283 23.2037Z" fill="#FC5200"/>
</svg>
