<?xml version="1.0" encoding="utf-8"?>
<!-- Generator: Adobe Illustrator 15.0.2, SVG Export Plug-In  -->
<!DOCTYPE svg PUBLIC "-//W3C//DTD SVG 1.1//EN" "http://www.w3.org/Graphics/SVG/1.1/DTD/svg11.dtd" [
	<!ENTITY ns_flows "http://ns.adobe.com/Flows/1.0/">
]>
<svg version="1.1"
	 xmlns="http://www.w3.org/2000/svg" xmlns:xlink="http://www.w3.org/1999/xlink" xmlns:a="http://ns.adobe.com/AdobeSVGViewerExtensions/3.0/"
	 x="0px" y="0px" width="300px" height="300px" viewBox="0.057 -0.314 300 300"
	 overflow="visible" enable-background="new 0.057 -0.314 300 300" xml:space="preserve">
<defs>
</defs>
<path fill="#35495E" d="M300.038,140.947l-20.475-4.666c-1.036-10.145-3.231-19.943-6.443-29.269l16.61-12.546l-4.02-8.826
	l-0.004,0.005l-3.439-7.549l-20.53,4.464c-5.167-8.642-11.298-16.637-18.249-23.829l9.814-18.493l-7.355-6.291l-0.004,0.003
	l-6.293-5.382L222.866,41.37c-8.197-5.569-17.06-10.229-26.444-13.824l1.107-20.833l-9.314-2.579l-0.001,0.006l-7.968-2.208
	l-9.79,18.663c-6.66-1.057-13.484-1.612-20.436-1.612c-3.165,0-6.301,0.116-9.41,0.338L132.856,0l-9.525,1.615v0.006l-8.15,1.383
	l-1.018,21.007c-9.705,2.788-18.947,6.675-27.583,11.524L71.434,21.321l-7.956,5.508l0.003,0.005l-6.806,4.713l7.933,19.513
	c-7.47,6.526-14.195,13.892-20.024,21.952l-19.812-6.485l-4.894,8.367l0.006,0.005L15.7,82.058l15.414,14.327
	c-5.532,12.398-9.202,25.812-10.642,39.896L0,140.947l0.061,8.301H0.054l0.07,9.704l20.346,4.325
	c1.035,10.146,3.228,19.947,6.44,29.273l-16.571,12.9l3.548,7.5l-0.006,0.002l4.147,8.764l20.256-4.718
	c5.13,8.582,11.21,16.524,18.098,23.68l-9.597,18.737l6.373,5.291l-0.004,0.004l7.446,6.184l16.335-12.844
	c8.204,5.596,17.071,10.281,26.466,13.9l-0.813,21.062l8,2.09v0.006l9.352,2.444l9.417-18.607c6.731,1.079,13.63,1.646,20.662,1.646
	c3.061,0,6.1-0.107,9.108-0.315l8.156,19.499l8.129-1.501v0.006l9.502-1.753l0.707-20.887c9.693-2.763,18.93-6.628,27.562-11.445
	l15.589,14.202l6.734-4.812l0.004,0.006l7.875-5.624l-8.165-19.267c7.577-6.587,14.388-14.041,20.283-22.204l20.035,6.236
	l4.082-7.222l0.005,0.004l4.771-8.44l-15.445-13.94c5.518-12.389,9.182-25.793,10.614-39.857l20.347-4.326l0.071-9.705h-0.005
	L300.038,140.947z M150.019,264.832c-63.249,0-114.542-51.517-114.542-115.043c0-63.527,51.293-115.045,114.542-115.045
	c63.249,0,114.542,51.518,114.542,115.045C264.561,213.315,213.268,264.832,150.019,264.832z"/>
<path fill="#35495E" d="M191.057,138.394c0,8.359-6.102,14.792-14.424,14.792h-51.219c-8.324,0-16.357-6.433-16.357-14.792V91.995
	c0-8.36,8.033-14.81,16.357-14.81h51.219c8.323,0,14.424,6.449,14.424,14.81V138.394z M185.057,91.93
	c0-4.502-3.507-6.744-7.99-6.744h-50.901c-4.482,0-7.109,2.242-7.109,6.744v46.309c0,4.501,2.627,7.947,7.109,7.947h50.901
	c4.483,0,7.99-3.446,7.99-7.947V91.93z"/>
<path fill="#35495E" d="M187.115,177.186h-41.734c-1.919,0-3.478-1.57-3.478-3.5c0-1.929,1.558-3.5,3.478-3.5h41.734
	c1.921,0,3.478,1.571,3.478,3.5C190.593,175.615,189.036,177.186,187.115,177.186z"/>
<path fill="#35495E" d="M185.957,190.186h-1.16c-1.922,0-3.479-1.071-3.479-3c0-1.93,1.557-3,3.479-3h1.16
	c1.92,0,3.478,1.07,3.478,3C189.434,189.114,187.876,190.186,185.957,190.186z"/>
<path fill="#35495E" d="M146.095,134.864c-0.89,0-1.779-0.342-2.458-1.024l-13.754-13.814c-1.359-1.364-1.359-3.575,0-4.938
	c1.357-1.364,3.56-1.364,4.917,0l11.295,11.344l27.259-27.376c1.358-1.366,3.558-1.366,4.918,0c1.358,1.363,1.358,3.574,0,4.938
	l-29.717,29.847C147.874,134.522,146.985,134.864,146.095,134.864z"/>
<path fill="#35495E" d="M218.994,202.186h-8.114c-2.295,0-5.823-1.111-6.823-0.361V78.395c0-8.347-6.314-15.209-14.623-15.209
	h-77.671c-8.31,0-14.706,6.862-14.706,15.209v123.791h-9.059c-8.451,0-15.069,4.819-15.069,12c0,7.183,6.619,12,15.069,12h23.765
	h62.89h14.781c3.985,0,7.605-1.574,10.304-4.122c2.737,2.542,6.676,4.122,11.143,4.122h8.114c8.452,0,15.07-4.817,15.07-12
	C234.064,207.005,227.446,202.186,218.994,202.186z M111.763,219.186H99.085H87.999c-4.475,0-8.114-2.791-8.114-6
	c0-3.207,3.64-6,8.114-6h8.695h6.955h71.005c4.474,0,8.114,2.793,8.114,6c0,3.209-3.64,6-8.114,6H111.763z M189.434,219.186h-1.319
	c1.022-2,1.607-2.896,1.607-5.007c0-7.183-6.618-11.993-15.069-11.993h-72.596V78.395c0-4.493,5.233-7.209,9.706-7.209h77.671
	c4.473,0,8.623,2.716,8.623,7.209V207.4c-2,1.793-1.994,3.85-1.994,6.056c0,0.808-0.03,1.543,0.13,2.305
	C194.722,217.854,192.173,219.186,189.434,219.186z M218.994,219.186h-8.114c-3.15,0-5.884-1.253-7.229-3.141
	c-0.563-0.794-0.888-1.664-0.888-2.611c0-1.355,0.655-2.812,1.739-3.803c1.488-1.36,3.791-2.445,6.377-2.445h8.114
	c4.475,0,8.114,2.793,8.114,6C227.108,216.395,223.469,219.186,218.994,219.186z"/>
</svg>
