<svg enable-background="new 0.411 -0.051 300 300" height="300" viewBox=".411 -.051 300 300" width="300" xmlns="http://www.w3.org/2000/svg"><g fill="#2980ba"><path d="m300.471 141.45-20.504-4.684c-1.038-10.183-3.237-20.015-6.453-29.371l16.633-12.591-4.024-8.857-.006.005-3.442-7.578-20.56 4.482c-5.174-8.672-11.316-16.695-18.275-23.914l9.828-18.56-7.367-6.315-.004.004-6.302-5.401-16.807 12.847c-8.211-5.587-17.084-10.262-26.481-13.872l1.106-20.908-9.324-2.587-.003.006-7.979-2.216-9.807 18.73c-6.666-1.062-13.501-1.617-20.463-1.617-3.173 0-6.312.115-9.426.337l-7.763-19.39-9.538 1.622v.008l-8.162 1.385-1.02 21.082c-9.719 2.799-18.974 6.701-27.621 11.565l-15.17-14.265-7.968 5.528.004.004-6.816 4.729 7.946 19.583c-7.481 6.547-14.216 13.941-20.055 22.03l-19.84-6.506-4.9 8.396.006.005-4.191 7.181 15.436 14.379c-5.538 12.444-9.213 25.907-10.655 40.04l-20.504 4.684.061 8.329h-.006l.072 9.737 20.373 4.339c1.037 10.182 3.231 20.021 6.449 29.377l-16.596 12.951 3.555 7.522-.007.003 4.154 8.796 20.284-4.734c5.138 8.611 11.227 16.582 18.124 23.763l-9.61 18.803 6.382 5.31-.006.003 7.459 6.206 16.359-12.889c8.213 5.617 17.094 10.319 26.504 13.953l-.815 21.139 8.012 2.094v.006l9.365 2.454 9.429-18.676c6.742 1.083 13.651 1.651 20.695 1.651 3.064 0 6.107-.108 9.119-.315l8.166 19.568 8.143-1.509v.008l9.517-1.761.709-20.961c9.707-2.772 18.956-6.649 27.601-11.484l15.611 14.252 6.746-4.827.003.008 7.886-5.647-8.177-19.336c7.586-6.61 14.407-14.089 20.312-22.283l20.063 6.259 4.087-7.247.006.003 4.778-8.469-15.469-13.99c5.523-12.435 9.195-25.883 10.631-40.002l20.376-4.341.07-9.737h-.006zm-150.234 124.321c-63.344 0-114.708-51.701-114.708-115.452s51.365-115.448 114.708-115.448c63.34 0 114.704 51.698 114.704 115.449s-51.364 115.451-114.704 115.451z"/><path d="m150.237 63.082c-47.852 0-86.777 39.179-86.777 87.34 0 48.158 38.926 87.338 86.777 87.338 47.846 0 86.773-39.18 86.773-87.338.001-48.162-38.927-87.34-86.773-87.34zm-79.258 87.339c0-43.987 35.555-79.772 79.259-79.772 14.018 0 27.191 3.696 38.632 10.154l-84.432 134.663c-20.224-14.468-33.459-38.222-33.459-65.045zm79.258 79.771c-14.366 0-27.841-3.886-39.469-10.639l84.474-134.744c20.674 14.412 34.25 38.443 34.25 65.612 0 43.986-35.554 79.771-79.255 79.771z"/><path d="m183.173 174.608c0-31.17-54.066-25.792-53.796-47.023.132-9.671 7.003-15.055 18.214-15.055 12.414 0 20.227 8.919 22.626 16.919h.003c.684 3 3.392 4.984 6.037 4.391 2.648-.593 3.426-3.539 2.766-6.549-4.441-13.995-13.111-21.843-27.111-23.564v-7.805c0-2.29-.726-4.146-3-4.146s-3 1.857-3 4.146v7.542c-18 1.121-26.494 11.7-26.494 24.908 0 30.629 54.031 23.387 54.031 48.107 0 9.941-7.153 17.473-21.3 17.473-14.139 0-21.387-9.384-25.261-19.579l.001-.006c-.958-2.714-3.934-4.137-6.634-3.172-2.696.964-4.112 3.947-3.157 6.665l.33-.006c4.534 10.33 10.483 22.356 28.483 24.791v7.322c0 2.291.726 4.151 3 4.151s3-1.86 3-4.151v-6.908c25-.758 31.262-14.727 31.262-28.451z"/></g></svg>