<?xml version="1.0" encoding="utf-8"?>
<!-- Generator: Adobe Illustrator 15.0.2, SVG Export Plug-In  -->
<!DOCTYPE svg PUBLIC "-//W3C//DTD SVG 1.1//EN" "http://www.w3.org/Graphics/SVG/1.1/DTD/svg11.dtd" [
	<!ENTITY ns_flows "http://ns.adobe.com/Flows/1.0/">
]>
<svg version="1.1"
	 xmlns="http://www.w3.org/2000/svg" xmlns:xlink="http://www.w3.org/1999/xlink" xmlns:a="http://ns.adobe.com/AdobeSVGViewerExtensions/3.0/"
	 x="0px" y="0px" width="300px" height="300px" viewBox="0.411 -0.051 300 300"
	 overflow="visible" enable-background="new 0.411 -0.051 300 300" xml:space="preserve">
<defs>
</defs>
<path display="none" fill="#ECF0F1" d="M156.812,35.157c-63.285,0-114.607,51.552-114.607,115.122
	c0,63.568,51.322,115.122,114.607,115.122s114.607-51.554,114.607-115.122C271.419,86.709,220.097,35.157,156.812,35.157z
	 M156.812,265.143c-63.102,0-114.252-51.381-114.252-114.764c0-63.384,51.15-114.764,114.252-114.764
	c63.101,0,114.252,51.379,114.252,114.764C271.063,213.762,219.912,265.143,156.812,265.143z"/>
<path display="none" fill="#35495E" d="M306.917,141.431l-20.486-4.67c-1.037-10.149-3.232-19.956-6.449-29.287l16.621-12.554
	l-4.019-8.832l-0.007,0.004l-3.443-7.553l-20.539,4.464c-5.17-8.647-11.307-16.645-18.26-23.843l9.82-18.509l-7.36-6.293
	l-0.004,0.003l-6.299-5.384L229.7,41.788c-8.201-5.577-17.067-10.235-26.457-13.835l1.105-20.846l-9.32-2.583V4.53l-7.974-2.209
	l-9.796,18.676c-6.662-1.058-13.489-1.612-20.447-1.612c-3.167,0-6.305,0.116-9.415,0.338L139.64,0.389l-9.531,1.615v0.007
	l-8.154,1.383l-1.018,21.021c-9.711,2.79-18.958,6.68-27.598,11.534L78.183,21.725l-7.963,5.508l0.005,0.007l-6.81,4.716
	l7.939,19.526c-7.476,6.529-14.207,13.903-20.039,21.97l-19.822-6.491l-4.898,8.371l0.008,0.006l-4.188,7.162l15.424,14.337
	c-5.536,12.407-9.209,25.833-10.648,39.923l-20.484,4.67l0.061,8.309H6.761l0.07,9.711l20.356,4.325
	c1.037,10.154,3.229,19.964,6.444,29.294l-16.58,12.913l3.549,7.501l-0.004,0.004l4.149,8.77l20.267-4.719
	c5.133,8.584,11.216,16.536,18.107,23.692l-9.601,18.751l6.376,5.292l-0.004,0.008l7.449,6.188l16.346-12.855
	c8.209,5.6,17.081,10.287,26.479,13.913l-0.812,21.078l8.004,2.09v0.006l9.355,2.449l9.424-18.625
	c6.733,1.079,13.638,1.645,20.674,1.645c3.062,0,6.104-0.106,9.116-0.313l8.159,19.514l8.133-1.503v0.006l9.51-1.757l0.708-20.9
	c9.696-2.763,18.938-6.629,27.577-11.453l15.596,14.215l6.739-4.816l0.005,0.01l7.88-5.633l-8.171-19.278
	c7.58-6.593,14.396-14.05,20.295-22.22l20.047,6.239l4.082-7.227l0.006,0.005l4.773-8.442l-15.453-13.951
	c5.521-12.397,9.187-25.811,10.621-39.888l20.359-4.329l0.071-9.71h-0.007L306.917,141.431z M156.812,265.4
	c-63.285,0-114.607-51.554-114.607-115.122c0-63.569,51.322-115.122,114.607-115.122s114.607,51.552,114.607,115.122
	C271.419,213.847,220.097,265.4,156.812,265.4z"/>
<path display="none" fill="#35495E" d="M201.911,179.927c0,8.365-6.51,15.522-14.838,15.522H92.482
	c-8.328,0-15.571-7.157-15.571-15.522V81.698c0-8.365,7.243-16.249,15.571-16.249h94.591c8.328,0,14.838,7.884,14.838,16.249
	V179.927z M196.911,82.74c0-4.504-3.192-8.291-7.678-8.291H93.522c-4.485,0-7.611,3.787-7.611,8.291v97.751
	c0,4.504,3.126,6.958,7.611,6.958h95.711c4.485,0,7.678-2.454,7.678-6.958V82.74z"/>
<path display="none" fill="#35495E" d="M240.911,215.269c0,8.365-7.126,16.181-15.455,16.181h-94.59
	c-8.327,0-14.955-7.815-14.955-16.181v-98.227c0-8.366,6.628-15.592,14.955-15.592h94.59c8.329,0,15.455,7.227,15.455,15.592
	V215.269z M233.911,116.476c0-4.504-3.408-8.027-7.891-8.027h-95.716c-4.485,0-6.394,3.522-6.394,8.027v97.752
	c0,4.502,1.908,9.221,6.394,9.221h95.716c4.482,0,7.891-4.719,7.891-9.221V116.476z"/>
<path display="none" fill="#35495E" d="M154.295,164.943c-0.892,0-1.781-0.343-2.461-1.025l-13.763-13.825
	c-1.358-1.364-1.358-3.576,0-4.941s3.563-1.365,4.92,0l11.304,11.354l27.273-27.396c1.36-1.364,3.562-1.364,4.922,0
	c1.358,1.365,1.358,3.576,0,4.941l-29.734,29.868C156.074,164.601,155.186,164.943,154.295,164.943z"/>
<path fill="#2980BA" d="M300.471,141.45l-20.504-4.684c-1.038-10.183-3.237-20.015-6.453-29.371l16.633-12.591l-4.024-8.857
	l-0.006,0.005l-3.442-7.578l-20.56,4.482c-5.174-8.672-11.316-16.695-18.275-23.914l9.828-18.56l-7.367-6.315l-0.004,0.004
	l-6.302-5.401l-16.807,12.847c-8.211-5.587-17.084-10.262-26.481-13.872l1.106-20.908l-9.324-2.587l-0.003,0.006l-7.979-2.216
	L170.7,20.67c-6.666-1.062-13.501-1.617-20.463-1.617c-3.173,0-6.312,0.115-9.426,0.337L133.048,0l-9.538,1.622v0.008l-8.162,1.385
	l-1.02,21.082c-9.719,2.799-18.974,6.701-27.621,11.565l-15.17-14.265l-7.968,5.528l0.004,0.004l-6.816,4.729l7.946,19.583
	c-7.481,6.547-14.216,13.941-20.055,22.03l-19.84-6.506l-4.9,8.396l0.006,0.005l-4.191,7.181l15.436,14.379
	c-5.538,12.444-9.213,25.907-10.655,40.04L0,141.45l0.061,8.329H0.055l0.072,9.737l20.373,4.339
	c1.037,10.182,3.231,20.021,6.449,29.377l-16.596,12.951l3.555,7.522l-0.007,0.003l4.154,8.796l20.284-4.734
	c5.138,8.611,11.227,16.582,18.124,23.763l-9.61,18.803l6.382,5.31l-0.006,0.003l7.459,6.206l16.359-12.889
	c8.213,5.617,17.094,10.319,26.504,13.953l-0.815,21.139l8.012,2.094v0.006l9.365,2.454l9.429-18.676
	c6.742,1.083,13.651,1.651,20.695,1.651c3.064,0,6.107-0.108,9.119-0.315l8.166,19.568l8.143-1.509v0.008l9.517-1.761l0.709-20.961
	c9.707-2.772,18.956-6.649,27.601-11.484l15.611,14.252l6.746-4.827l0.003,0.008l7.886-5.647l-8.177-19.336
	c7.586-6.61,14.407-14.089,20.312-22.283l20.063,6.259l4.087-7.247l0.006,0.003l4.778-8.469l-15.469-13.99
	c5.523-12.435,9.195-25.883,10.631-40.002l20.376-4.341l0.07-9.737h-0.006L300.471,141.45z M150.237,265.771
	c-63.344,0-114.708-51.701-114.708-115.452S86.894,34.871,150.237,34.871c63.34,0,114.704,51.698,114.704,115.449
	S213.577,265.771,150.237,265.771z"/>
<path fill="#2980BA" d="M150.237,63.082c-47.852,0-86.777,39.179-86.777,87.34c0,48.158,38.926,87.338,86.777,87.338
	c47.846,0,86.773-39.18,86.773-87.338C237.011,102.26,198.083,63.082,150.237,63.082z M70.979,150.421
	c0-43.987,35.555-79.772,79.259-79.772c14.018,0,27.191,3.696,38.632,10.154l-84.432,134.663
	C84.214,200.998,70.979,177.244,70.979,150.421z M150.237,230.192c-14.366,0-27.841-3.886-39.469-10.639l84.474-134.744
	c20.674,14.412,34.25,38.443,34.25,65.612C229.492,194.407,193.938,230.192,150.237,230.192z"/>
<path fill="#2980BA" d="M183.173,174.608c0-31.17-54.066-25.792-53.796-47.023c0.132-9.671,7.003-15.055,18.214-15.055
	c12.414,0,20.227,8.919,22.626,16.919h0.003c0.684,3,3.392,4.984,6.037,4.391c2.648-0.593,3.426-3.539,2.766-6.549
	c-4.441-13.995-13.111-21.843-27.111-23.564v-7.805c0-2.29-0.726-4.146-3-4.146s-3,1.857-3,4.146v7.542
	c-18,1.121-26.494,11.7-26.494,24.908c0,30.629,54.031,23.387,54.031,48.107c0,9.941-7.153,17.473-21.3,17.473
	c-14.139,0-21.387-9.384-25.261-19.579l0.001-0.006c-0.958-2.714-3.934-4.137-6.634-3.172c-2.696,0.964-4.112,3.947-3.157,6.665
	l0.33-0.006c4.534,10.33,10.483,22.356,28.483,24.791v7.322c0,2.291,0.726,4.151,3,4.151s3-1.86,3-4.151v-6.908
	C176.911,202.301,183.173,188.332,183.173,174.608z"/>
</svg>
