<?xml version="1.0" encoding="utf-8"?>
<!-- Generator: Adobe Illustrator 15.0.2, SVG Export Plug-In  -->
<!DOCTYPE svg PUBLIC "-//W3C//DTD SVG 1.1//EN" "http://www.w3.org/Graphics/SVG/1.1/DTD/svg11.dtd" [
	<!ENTITY ns_flows "http://ns.adobe.com/Flows/1.0/">
]>
<svg version="1.1"
	 xmlns="http://www.w3.org/2000/svg" xmlns:xlink="http://www.w3.org/1999/xlink" xmlns:a="http://ns.adobe.com/AdobeSVGViewerExtensions/3.0/"
	 x="0px" y="0px" width="300px" height="300px" viewBox="0.057 0.352 300 300"
	 overflow="visible" enable-background="new 0.057 0.352 300 300" xml:space="preserve">
<defs>
</defs>
<path display="none" fill="#35495E" d="M300.038,141.481l-20.475-4.67c-1.036-10.152-3.231-19.959-6.443-29.292l16.61-12.557
	l-4.02-8.833l-0.004,0.005l-3.439-7.555l-20.53,4.468c-5.167-8.649-11.298-16.651-18.249-23.849l9.814-18.508l-7.355-6.296
	l-0.004,0.003l-6.293-5.386l-16.782,12.812c-8.197-5.574-17.06-10.237-26.444-13.836l1.107-20.851l-9.314-2.581l-0.001,0.006
	l-7.968-2.209l-9.79,18.678c-6.66-1.058-13.484-1.613-20.436-1.613c-3.165,0-6.301,0.116-9.41,0.338l-7.752-19.338l-9.525,1.616
	v0.006l-8.15,1.384l-1.018,21.024c-9.705,2.791-18.947,6.68-27.583,11.534L71.434,21.756l-7.956,5.512l0.003,0.005l-6.806,4.717
	l7.933,19.529c-7.47,6.532-14.195,13.903-20.024,21.971l-19.812-6.491l-4.894,8.375l0.006,0.005L15.7,82.542l15.414,14.339
	c-5.532,12.409-9.202,25.834-10.642,39.929L0,141.481l0.061,8.308H0.054l0.07,9.712l20.346,4.329
	c1.035,10.154,3.228,19.964,6.44,29.298l-16.571,12.911l3.548,7.506l-0.006,0.002l4.147,8.771l20.256-4.721
	c5.13,8.589,11.21,16.538,18.098,23.699l-9.597,18.753l6.373,5.295l-0.004,0.004l7.446,6.189l16.335-12.854
	c8.204,5.6,17.071,10.29,26.466,13.912l-0.813,21.081l8,2.091v0.006l9.352,2.446l9.417-18.623c6.731,1.08,13.63,1.647,20.662,1.647
	c3.061,0,6.1-0.108,9.108-0.316l8.156,19.515l8.129-1.502v0.006l9.502-1.754l0.707-20.904c9.693-2.765,18.93-6.634,27.562-11.455
	l15.589,14.214l6.734-4.816l0.004,0.006l7.875-5.629l-8.165-19.283c7.577-6.592,14.388-14.053,20.283-22.223l20.035,6.241
	l4.082-7.227l0.005,0.003l4.771-8.447l-15.445-13.952c5.518-12.399,9.182-25.814,10.614-39.891l20.347-4.33l0.071-9.713h-0.005
	L300.038,141.481z M150.019,265.469c-63.249,0-114.542-51.56-114.542-115.139c0-63.581,51.293-115.141,114.542-115.141
	c63.249,0,114.542,51.561,114.542,115.141C264.561,213.91,213.268,265.469,150.019,265.469z"/>
<path display="none" fill="#35495E" d="M191.057,138.925c0,8.367-6.102,14.927-14.424,14.927h-51.219
	c-8.324,0-16.357-6.56-16.357-14.927V92.488c0-8.367,8.033-14.636,16.357-14.636h51.219c8.323,0,14.424,6.269,14.424,14.636V138.925
	z M185.057,92.423c0-4.505-3.507-7.571-7.99-7.571h-50.901c-4.482,0-7.109,3.065-7.109,7.571v46.347
	c0,4.505,2.627,8.082,7.109,8.082h50.901c4.483,0,7.99-3.577,7.99-8.082V92.423z"/>
<path display="none" fill="#35495E" d="M187.115,177.852h-41.734c-1.919,0-3.478-1.569-3.478-3.5s1.558-3.5,3.478-3.5h41.734
	c1.921,0,3.478,1.569,3.478,3.5S189.036,177.852,187.115,177.852z"/>
<path display="none" fill="#35495E" d="M185.957,190.852h-1.16c-1.922,0-3.479-1.07-3.479-3c0-1.931,1.557-3,3.479-3h1.16
	c1.92,0,3.478,1.069,3.478,3C189.434,189.782,187.876,190.852,185.957,190.852z"/>
<path display="none" fill="#35495E" d="M146.095,135.394c-0.89,0-1.779-0.342-2.458-1.026l-13.754-13.826
	c-1.359-1.365-1.359-3.578,0-4.943c1.357-1.365,3.56-1.365,4.917,0l11.295,11.354l27.259-27.399c1.358-1.367,3.558-1.367,4.918,0
	c1.358,1.365,1.358,3.578,0,4.942l-29.717,29.872C147.874,135.051,146.985,135.394,146.095,135.394z"/>
<path display="none" fill="#35495E" d="M218.994,202.852h-8.114c-2.295,0-5.823-1.194-6.823-0.443V78.876
	c0-8.354-6.314-15.024-14.623-15.024h-77.671c-8.31,0-14.706,6.671-14.706,15.024v123.976h-9.059c-8.451,0-15.069,4.813-15.069,12
	c0,7.188,6.619,12,15.069,12h23.765h62.89h14.781c3.985,0,7.605-1.576,10.304-4.125c2.737,2.544,6.676,4.125,11.143,4.125h8.114
	c8.452,0,15.07-4.812,15.07-12C234.064,207.666,227.446,202.852,218.994,202.852z M111.763,219.852H99.085H87.999
	c-4.475,0-8.114-2.788-8.114-6c0-3.21,3.64-6,8.114-6h8.695h6.955h71.005c4.474,0,8.114,2.79,8.114,6c0,3.212-3.64,6-8.114,6
	H111.763z M189.434,219.852h-1.319c1.022-2,1.607-2.892,1.607-5.004c0-7.188-6.618-11.996-15.069-11.996h-72.596V78.876
	c0-4.497,5.233-7.024,9.706-7.024h77.671c4.473,0,8.623,2.528,8.623,7.024V207.99c-2,1.794-1.994,3.853-1.994,6.061
	c0,0.808-0.03,1.578,0.13,2.34C194.722,218.486,192.173,219.852,189.434,219.852z M218.994,219.852h-8.114
	c-3.15,0-5.884-1.287-7.229-3.177c-0.563-0.794-0.888-1.683-0.888-2.63c0-1.357,0.655-2.785,1.739-3.776
	c1.488-1.361,3.791-2.417,6.377-2.417h8.114c4.475,0,8.114,2.79,8.114,6C227.108,217.064,223.469,219.852,218.994,219.852z"/>
<path fill="#2980BA" d="M299.913,141.28l-20.43-4.677c-1.034-10.168-3.224-19.99-6.429-29.338l16.574-12.575l-4.011-8.847
	l-0.004,0.005l-3.431-7.567l-20.484,4.474c-5.155-8.662-11.275-16.675-18.209-23.885l9.792-18.537l-7.339-6.307l-0.004,0.003
	l-6.279-5.395l-16.746,12.833c-8.18-5.582-17.021-10.252-26.385-13.857l1.104-20.882l-9.293-2.584l-0.001,0.005l-7.951-2.212
	l-9.768,18.706c-6.645-1.059-13.455-1.615-20.391-1.615c-3.159,0-6.288,0.116-9.389,0.339L133.099,0l-9.504,1.619v0.006
	l-8.131,1.386l-1.016,21.056c-9.684,2.794-18.906,6.691-27.521,11.552L71.813,21.373l-7.94,5.521l0.005,0.004l-6.791,4.723
	l7.917,19.559c-7.454,6.542-14.166,13.925-19.983,22.006l-19.768-6.501l-4.883,8.387l0.006,0.005l-4.176,7.175l15.38,14.362
	c-5.52,12.426-9.181,25.874-10.619,39.99L0.535,141.28l0.061,8.32H0.588l0.072,9.728l20.301,4.334
	c1.034,10.171,3.221,19.995,6.426,29.342l-16.535,12.933l3.539,7.516l-0.005,0.001l4.138,8.785l20.209-4.728
	c5.122,8.602,11.186,16.562,18.059,23.735l-9.574,18.782l6.357,5.302l-0.003,0.005l7.429,6.198l16.3-12.875
	c8.186,5.611,17.032,10.306,26.409,13.935l-0.813,21.114l7.982,2.093v0.006l9.331,2.45l9.397-18.651
	c6.715,1.081,13.6,1.648,20.617,1.648c3.054,0,6.086-0.106,9.088-0.316l8.138,19.546l8.111-1.506v0.006l9.482-1.758l0.705-20.935
	c9.672-2.769,18.888-6.643,27.501-11.472l15.555,14.236l6.718-4.823l0.005,0.006l7.858-5.638l-8.147-19.312
	c7.56-6.604,14.357-14.073,20.238-22.257l19.993,6.252l4.071-7.238l0.006,0.003l4.759-8.46l-15.411-13.974
	c5.506-12.417,9.161-25.853,10.591-39.953l20.302-4.336l0.07-9.728h-0.004L299.913,141.28z M150.224,265.458
	c-63.11,0-114.29-51.639-114.29-115.315c0-63.677,51.18-115.316,114.29-115.316c63.11,0,114.29,51.639,114.29,115.316
	C264.514,213.819,213.334,265.458,150.224,265.458z"/>
<path fill="#2980BA" d="M191.057,139.608c0,8.379-6.098,15.244-14.404,15.244h-51.264c-8.306,0-14.332-6.865-14.332-15.244V92.712
	c0-8.379,6.026-15.86,14.332-15.86h51.264c8.307,0,14.404,7.481,14.404,15.86V139.608z M186.057,92.146
	c0-4.511-4.372-8.294-8.843-8.294h-50.79c-4.472,0-9.367,3.783-9.367,8.294v46.418c0,4.512,4.895,9.288,9.367,9.288h50.79
	c4.471,0,8.843-4.776,8.843-9.288V92.146z"/>
<path fill="#2980BA" d="M187.238,176.852h-41.642c-1.916,0-3.471-1.066-3.471-3c0-1.933,1.555-3,3.471-3h41.642
	c1.917,0,3.47,1.067,3.47,3C190.708,175.786,189.155,176.852,187.238,176.852z"/>
<path fill="#2980BA" d="M186.082,190.852h-1.157c-1.918,0-3.47-1.067-3.47-3c0-1.936,1.552-3,3.47-3h1.157
	c1.916,0,3.471,1.064,3.471,3C189.553,189.785,187.998,190.852,186.082,190.852z"/>
<path fill="#2980BA" d="M146.308,135.182c-0.888,0-1.776-0.342-2.453-1.025l-13.725-13.848c-1.355-1.368-1.355-3.583,0-4.951
	c1.354-1.367,3.552-1.367,4.907,0l11.27,11.371l27.199-27.441c1.355-1.368,3.551-1.368,4.908,0c1.355,1.367,1.355,3.584,0,4.95
	l-29.651,29.918C148.084,134.84,147.196,135.182,146.308,135.182z"/>
<path fill="#2980BA" d="M219.047,200.852h-8.096c-2.29,0-5.894,0.697-6.894,1.448V78.58c0-8.367-6.214-15.728-14.504-15.728h-77.5
	c-8.292,0-13.996,7.361-13.996,15.728v122.272h-9.716c-8.433,0-15.038,6.303-15.038,13.5c0,7.2,6.605,13.5,15.038,13.5h23.711
	h62.751h14.749c3.976,0,7.588-1.578,10.281-4.131c2.73,2.547,6.661,4.131,11.118,4.131h8.096c8.434,0,15.037-6.3,15.037-13.5
	C234.084,207.155,227.481,200.852,219.047,200.852z M112.053,218.852h-12.65H88.341c-4.465,0-8.098-2.781-8.098-6
	c0-3.218,3.632-6,8.098-6h8.675h6.94h70.847c4.464,0,8.096,2.782,8.096,6c0,3.219-3.631,6-8.096,6H112.053z M189.553,218.852h-1.316
	c1.02-2,1.604-3.38,1.604-5.499c0-7.196-6.604-12.501-15.036-12.501h-70.747V78.58c0-4.503,3.531-9.728,7.996-9.728h77.5
	c4.463,0,7.504,5.224,7.504,9.728v129.31c-1,1.798-1.44,3.859-1.44,6.071c0,0.81,0.244,1.122,0.404,1.886
	C194.554,217.945,192.286,218.852,189.553,218.852z M219.047,218.852h-8.096c-3.144,0-5.871-0.83-7.211-2.722
	c-0.562-0.795-0.887-1.455-0.887-2.406c0-1.357,0.653-3.123,1.736-4.116c1.484-1.361,3.781-2.756,6.362-2.756h8.096
	c4.465,0,8.097,2.782,8.097,6C227.145,216.071,223.512,218.852,219.047,218.852z"/>
</svg>
