<svg enable-background="new 0.057 0.352 300 300" height="300" viewBox=".057 .352 300 300" width="300" xmlns="http://www.w3.org/2000/svg"><g fill="#2980ba"><path d="m299.913 141.28-20.43-4.677c-1.034-10.168-3.224-19.99-6.429-29.338l16.574-12.575-4.011-8.847-.004.005-3.431-7.567-20.484 4.474c-5.155-8.662-11.275-16.675-18.209-23.885l9.792-18.537-7.339-6.307-.004.003-6.279-5.395-16.746 12.833c-8.18-5.582-17.021-10.252-26.385-13.857l1.104-20.882-9.293-2.584-.001.005-7.951-2.212-9.768 18.706c-6.645-1.059-13.455-1.615-20.391-1.615-3.159 0-6.288.116-9.389.339l-7.74-19.367-9.504 1.619v.006l-8.131 1.386-1.016 21.056c-9.684 2.794-18.906 6.691-27.521 11.552l-15.114-14.246-7.94 5.521.005.004-6.791 4.723 7.917 19.559c-7.454 6.542-14.166 13.925-19.983 22.006l-19.768-6.501-4.883 8.387.006.005-4.176 7.175 15.38 14.362c-5.52 12.426-9.181 25.874-10.619 39.99l-20.426 4.676.061 8.32h-.008l.072 9.728 20.301 4.334c1.034 10.171 3.221 19.995 6.426 29.342l-16.535 12.933 3.539 7.516-.005.001 4.138 8.785 20.209-4.728c5.122 8.602 11.186 16.562 18.059 23.735l-9.574 18.782 6.357 5.302-.003.005 7.429 6.198 16.3-12.875c8.186 5.611 17.032 10.306 26.409 13.935l-.813 21.114 7.982 2.093v.006l9.331 2.45 9.397-18.651c6.715 1.081 13.6 1.648 20.617 1.648 3.054 0 6.086-.106 9.088-.316l8.138 19.546 8.111-1.506v.006l9.482-1.758.705-20.935c9.672-2.769 18.888-6.643 27.501-11.472l15.555 14.236 6.718-4.823.005.006 7.858-5.638-8.147-19.312c7.56-6.604 14.357-14.073 20.238-22.257l19.993 6.252 4.071-7.238.006.003 4.759-8.46-15.411-13.974c5.506-12.417 9.161-25.853 10.591-39.953l20.302-4.336.07-9.728h-.004zm-149.689 124.178c-63.11 0-114.29-51.639-114.29-115.315 0-63.677 51.18-115.316 114.29-115.316s114.29 51.639 114.29 115.316c0 63.676-51.18 115.315-114.29 115.315z"/><path d="m191.057 139.608c0 8.379-6.098 15.244-14.404 15.244h-51.264c-8.306 0-14.332-6.865-14.332-15.244v-46.896c0-8.379 6.026-15.86 14.332-15.86h51.264c8.307 0 14.404 7.481 14.404 15.86zm-5-47.462c0-4.511-4.372-8.294-8.843-8.294h-50.79c-4.472 0-9.367 3.783-9.367 8.294v46.418c0 4.512 4.895 9.288 9.367 9.288h50.79c4.471 0 8.843-4.776 8.843-9.288z"/><path d="m187.238 176.852h-41.642c-1.916 0-3.471-1.066-3.471-3 0-1.933 1.555-3 3.471-3h41.642c1.917 0 3.47 1.067 3.47 3 0 1.934-1.553 3-3.47 3z"/><path d="m186.082 190.852h-1.157c-1.918 0-3.47-1.067-3.47-3 0-1.936 1.552-3 3.47-3h1.157c1.916 0 3.471 1.064 3.471 3 0 1.933-1.555 3-3.471 3z"/><path d="m146.308 135.182c-.888 0-1.776-.342-2.453-1.025l-13.725-13.848c-1.355-1.368-1.355-3.583 0-4.951 1.354-1.367 3.552-1.367 4.907 0l11.27 11.371 27.199-27.441c1.355-1.368 3.551-1.368 4.908 0 1.355 1.367 1.355 3.584 0 4.95l-29.651 29.918c-.679.684-1.567 1.026-2.455 1.026z"/><path d="m219.047 200.852h-8.096c-2.29 0-5.894.697-6.894 1.448v-123.72c0-8.367-6.214-15.728-14.504-15.728h-77.5c-8.292 0-13.996 7.361-13.996 15.728v122.272h-9.716c-8.433 0-15.038 6.303-15.038 13.5 0 7.2 6.605 13.5 15.038 13.5h23.711 62.751 14.749c3.976 0 7.588-1.578 10.281-4.131 2.73 2.547 6.661 4.131 11.118 4.131h8.096c8.434 0 15.037-6.3 15.037-13.5 0-7.197-6.603-13.5-15.037-13.5zm-106.994 18h-12.65-11.062c-4.465 0-8.098-2.781-8.098-6 0-3.218 3.632-6 8.098-6h8.675 6.94 70.847c4.464 0 8.096 2.782 8.096 6 0 3.219-3.631 6-8.096 6zm77.5 0h-1.316c1.02-2 1.604-3.38 1.604-5.499 0-7.196-6.604-12.501-15.036-12.501h-70.747v-122.272c0-4.503 3.531-9.728 7.996-9.728h77.5c4.463 0 7.504 5.224 7.504 9.728v129.31c-1 1.798-1.44 3.859-1.44 6.071 0 .81.244 1.122.404 1.886-1.468 2.098-3.736 3.005-6.469 3.005zm29.494 0h-8.096c-3.144 0-5.871-.83-7.211-2.722-.562-.795-.887-1.455-.887-2.406 0-1.357.653-3.123 1.736-4.116 1.484-1.361 3.781-2.756 6.362-2.756h8.096c4.465 0 8.097 2.782 8.097 6 .001 3.219-3.632 6-8.097 6z"/></g></svg>