<?xml version="1.0" encoding="utf-8"?>
<!-- Generator: Adobe Illustrator 15.0.2, SVG Export Plug-In  -->
<!DOCTYPE svg PUBLIC "-//W3C//DTD SVG 1.1//EN" "http://www.w3.org/Graphics/SVG/1.1/DTD/svg11.dtd" [
	<!ENTITY ns_flows "http://ns.adobe.com/Flows/1.0/">
]>
<svg version="1.1"
	 xmlns="http://www.w3.org/2000/svg" xmlns:xlink="http://www.w3.org/1999/xlink" xmlns:a="http://ns.adobe.com/AdobeSVGViewerExtensions/3.0/"
	 x="0px" y="0px" width="300px" height="300px" viewBox="0.092 -0.149 300 300"
	 overflow="visible" enable-background="new 0.092 -0.149 300 300" xml:space="preserve">
<defs>
</defs>
<path fill="#35495E" d="M192.885,115.442V100.15c0-23.115-19.252-41.922-42.914-41.922c-23.26,0-42.914,19.446-42.914,42.464v14.75
	c-6.029,1.768-10.438,7.352-10.438,13.981v78.094c0,8.047,6.49,14.571,14.498,14.571h77.709c8.004,0,14.497-6.524,14.497-14.571
	v-78.094C203.323,122.794,198.915,117.21,192.885,115.442z M149.971,64.055c20.465,0,37.115,16.194,37.115,36.096v14.702h-6.959
	v-14.766c0-15.752-13.812-29.061-30.158-29.061c-16.344,0-30.153,13.476-30.153,29.428v14.399h-6.959v-14.16
	C112.857,80.833,129.852,64.055,149.971,64.055z M174.326,114.853h-48.712v-14.399c0-12.791,11.154-23.6,24.355-23.6
	c13.204,0,24.356,10.639,24.356,23.233V114.853z M197.523,207.518c0,4.83-3.895,8.742-8.697,8.742h-77.709
	c-4.804,0-8.698-3.912-8.698-8.742v-78.094c0-4.829,3.895-8.743,8.698-8.743h77.709c4.803,0,8.697,3.914,8.697,8.743V207.518z"/>
<path fill="#35495E" d="M150.213,150.373c-5.085,0-9.207,4.143-9.207,9.251c0,3.778,2.255,7.021,5.484,8.46v23.232
	c0,1.607,1.56,2.911,3.48,2.911c1.922,0,3.479-1.304,3.479-2.911v-23.041c3.484-1.318,5.97-4.689,5.97-8.651
	C159.419,154.516,155.295,150.373,150.213,150.373z"/>
<path fill="#35495E" d="M300.184,141.102l-20.484-4.671c-1.037-10.156-3.23-19.966-6.447-29.3l16.618-12.56l-4.02-8.837
	l-0.006,0.005l-3.441-7.558l-20.537,4.469c-5.17-8.651-11.309-16.654-18.261-23.854l9.817-18.514l-7.358-6.299l-0.003,0.003
	l-6.298-5.389l-16.788,12.816c-8.204-5.575-17.068-10.24-26.458-13.84l1.107-20.856l-9.318-2.581l-0.003,0.006l-7.971-2.21
	l-9.797,18.684c-6.66-1.058-13.488-1.614-20.445-1.614c-3.167,0-6.305,0.117-9.413,0.339L132.921,0l-9.532,1.617v0.006l-8.151,1.385
	l-1.018,21.029c-9.71,2.791-18.956,6.683-27.595,11.537L71.469,21.345l-7.961,5.514l0.005,0.004l-6.809,4.718l7.937,19.534
	c-7.474,6.534-14.203,13.907-20.037,21.977L24.784,66.6l-4.896,8.377l0.007,0.004l-4.188,7.166L31.127,96.49
	c-5.533,12.412-9.204,25.842-10.645,39.94L0,141.102l0.061,8.311H0.054l0.071,9.715l20.355,4.328
	c1.037,10.159,3.229,19.971,6.444,29.307l-16.579,12.916l3.549,7.508l-0.005,0.001l4.149,8.774l20.265-4.722
	c5.134,8.59,11.215,16.541,18.106,23.704l-9.6,18.76l6.375,5.294l-0.004,0.004l7.448,6.191l16.346-12.858
	c8.208,5.604,17.078,10.293,26.477,13.918l-0.813,21.086l8.004,2.09v0.008l9.356,2.446l9.42-18.629
	c6.735,1.08,13.637,1.646,20.673,1.646c3.063,0,6.104-0.104,9.115-0.314l8.157,19.521l8.133-1.503v0.006l9.51-1.756l0.705-20.91
	c9.698-2.765,18.941-6.632,27.577-11.456l15.595,14.219l6.738-4.817l0.005,0.006l7.879-5.632l-8.171-19.287
	c7.582-6.595,14.397-14.057,20.294-22.229l20.045,6.244l4.083-7.229l0.006,0.002l4.774-8.448l-15.455-13.956
	c5.522-12.402,9.186-25.821,10.623-39.903l20.354-4.33l0.072-9.714h-0.006L300.184,141.102z M150.091,265.124
	c-63.28,0-114.596-51.574-114.596-115.17c0-63.598,51.316-115.171,114.596-115.171s114.6,51.574,114.6,115.171
	C264.691,213.55,213.372,265.124,150.091,265.124z"/>
</svg>
