<svg enable-background="new 0.092 0.352 300 300" height="300" viewBox=".092 .352 300 300" width="300" xmlns="http://www.w3.org/2000/svg"><g fill="#2980ba"><path d="m192.975 115.897v-15.352c0-23.207-19.259-42.088-42.931-42.088-23.269 0-42.929 19.523-42.929 42.632v14.808c-6.032 1.774-10.442 7.38-10.442 14.036v78.402c0 8.078 6.493 14.628 14.503 14.628h77.739c8.008 0 14.503-6.55 14.503-14.628v-78.402c-.001-6.656-4.412-12.262-10.443-14.036zm-42.931-51.589c20.474 0 37.13 16.256 37.13 36.237v14.76h-6.962v-14.825c0-15.813-13.817-29.175-30.17-29.175-16.349 0-30.165 13.529-30.165 29.544v14.456h-6.962v-14.216c.001-19.937 17.003-36.781 37.129-36.781zm24.366 50.997h-48.731v-14.456c0-12.842 11.158-23.694 24.364-23.694 13.209 0 24.367 10.682 24.367 23.325zm23.207 93.03c0 4.849-3.896 8.776-8.702 8.776h-77.739c-4.806 0-8.702-3.928-8.702-8.776v-78.402c0-4.849 3.896-8.777 8.702-8.777h77.739c4.806 0 8.702 3.928 8.702 8.777z"/><path d="m150.287 150.965c-5.086 0-9.21 4.158-9.21 9.287 0 3.794 2.256 7.05 5.486 8.493v23.323c0 1.615 1.56 2.924 3.481 2.924 1.923 0 3.48-1.31 3.48-2.924v-23.13c3.485-1.325 5.972-4.708 5.972-8.687.001-5.128-4.124-9.286-9.209-9.286z"/><path d="m300.315 141.658-20.491-4.689c-1.037-10.196-3.234-20.044-6.449-29.417l16.623-12.608-4.021-8.872-.006.004-3.44-7.586-20.548 4.486c-5.171-8.685-11.311-16.719-18.266-23.949l9.82-18.586-7.361-6.323-.004.002-6.299-5.409-16.795 12.867c-8.207-5.597-17.075-10.28-26.468-13.895l1.108-20.938-9.322-2.592-.004.006-7.974-2.218-9.798 18.759c-6.665-1.062-13.495-1.62-20.453-1.62-3.169 0-6.308.117-9.418.34l-7.76-19.42-9.535 1.623v.006l-8.155 1.39-1.019 21.112c-9.714 2.802-18.963 6.709-27.606 11.583l-15.16-14.285-7.964 5.535.004.005-6.812 4.736 7.941 19.611c-7.477 6.56-14.209 13.962-20.044 22.064l-19.829-6.519-4.897 8.41.006.004-4.189 7.195 15.426 14.4c-5.535 12.46-9.208 25.943-10.65 40.098l-20.49 4.689.061 8.343h-.007l.072 9.753 20.363 4.346c1.038 10.198 3.231 20.048 6.446 29.421l-16.585 12.968 3.55 7.536-.005.002 4.151 8.808 20.272-4.741c5.137 8.625 11.221 16.608 18.113 23.799l-9.604 18.833 6.377 5.316-.005.005 7.452 6.215 16.351-12.909c8.211 5.625 17.085 10.333 26.489 13.971l-.814 21.17 8.007 2.099v.007l9.36 2.456 9.424-18.702c6.738 1.084 13.642 1.653 20.682 1.653 3.063 0 6.105-.107 9.117-.317l8.161 19.599 8.137-1.509v.006l9.512-1.763.706-20.991c9.703-2.776 18.947-6.66 27.587-11.502l15.601 14.274 6.742-4.835.004.006 7.883-5.654-8.174-19.363c7.583-6.621 14.401-14.112 20.301-22.316l20.054 6.268 4.084-7.257.006.003 4.774-8.481-15.461-14.015c5.524-12.45 9.189-25.923 10.627-40.06l20.363-4.347.072-9.754h-.007zm-150.148 124.508c-63.305 0-114.642-51.776-114.642-115.622 0-63.847 51.337-115.625 114.642-115.625 63.304 0 114.641 51.777 114.641 115.625-.001 63.846-51.338 115.622-114.641 115.622z"/></g></svg>