<?xml version="1.0" encoding="utf-8"?>
<!-- Generator: Adobe Illustrator 15.0.2, SVG Export Plug-In  -->
<!DOCTYPE svg PUBLIC "-//W3C//DTD SVG 1.1//EN" "http://www.w3.org/Graphics/SVG/1.1/DTD/svg11.dtd" [
	<!ENTITY ns_flows "http://ns.adobe.com/Flows/1.0/">
]>
<svg version="1.1"
	 xmlns="http://www.w3.org/2000/svg" xmlns:xlink="http://www.w3.org/1999/xlink" xmlns:a="http://ns.adobe.com/AdobeSVGViewerExtensions/3.0/"
	 x="0px" y="0px" width="300px" height="300px" viewBox="0.092 0.352 300 300"
	 overflow="visible" enable-background="new 0.092 0.352 300 300" xml:space="preserve">
<defs>
</defs>
<path display="none" fill="#35495E" d="M192.885,115.944v-15.292c0-23.115-19.252-41.922-42.914-41.922
	c-23.26,0-42.914,19.446-42.914,42.464v14.75c-6.029,1.768-10.438,7.352-10.438,13.981v78.094c0,8.047,6.49,14.571,14.498,14.571
	h77.709c8.004,0,14.497-6.524,14.497-14.571v-78.094C203.323,123.295,198.915,117.711,192.885,115.944z M149.971,64.556
	c20.465,0,37.115,16.194,37.115,36.096v14.702h-6.959v-14.766c0-15.752-13.812-29.061-30.158-29.061
	c-16.344,0-30.153,13.476-30.153,29.428v14.399h-6.959v-14.16C112.857,81.334,129.852,64.556,149.971,64.556z M174.326,115.354
	h-48.712v-14.399c0-12.791,11.154-23.6,24.355-23.6c13.204,0,24.356,10.639,24.356,23.233V115.354z M197.523,208.019
	c0,4.83-3.895,8.742-8.697,8.742h-77.709c-4.804,0-8.698-3.912-8.698-8.742v-78.094c0-4.829,3.895-8.743,8.698-8.743h77.709
	c4.803,0,8.697,3.914,8.697,8.743V208.019z"/>
<path display="none" fill="#35495E" d="M150.213,150.875c-5.085,0-9.207,4.143-9.207,9.251c0,3.778,2.255,7.021,5.484,8.46v23.232
	c0,1.607,1.56,2.911,3.48,2.911c1.922,0,3.479-1.304,3.479-2.911v-23.041c3.484-1.318,5.97-4.689,5.97-8.651
	C159.419,155.017,155.295,150.875,150.213,150.875z"/>
<path display="none" fill="#35495E" d="M300.184,141.603l-20.484-4.671c-1.037-10.156-3.23-19.966-6.447-29.3l16.618-12.56
	l-4.02-8.837l-0.006,0.005l-3.441-7.558l-20.537,4.469c-5.17-8.651-11.309-16.654-18.261-23.854l9.817-18.514l-7.358-6.299
	l-0.003,0.003l-6.298-5.389l-16.788,12.816c-8.204-5.575-17.068-10.24-26.458-13.84l1.107-20.856l-9.318-2.581l-0.003,0.006
	l-7.971-2.21l-9.797,18.684c-6.66-1.058-13.488-1.614-20.445-1.614c-3.167,0-6.305,0.117-9.413,0.339l-7.757-19.344l-9.532,1.617
	v0.006l-8.151,1.385l-1.018,21.029c-9.71,2.791-18.956,6.683-27.595,11.537L71.469,21.846l-7.961,5.514l0.005,0.004l-6.809,4.718
	l7.937,19.534c-7.474,6.534-14.203,13.907-20.037,21.977l-19.821-6.492l-4.896,8.377l0.007,0.004l-4.188,7.166l15.419,14.344
	c-5.533,12.412-9.204,25.842-10.645,39.94L0,141.603l0.061,8.311H0.054l0.071,9.715l20.355,4.328
	c1.037,10.159,3.229,19.971,6.444,29.307l-16.579,12.916l3.549,7.508l-0.005,0.001l4.149,8.774l20.265-4.722
	c5.134,8.59,11.215,16.541,18.106,23.704l-9.6,18.76l6.375,5.294l-0.004,0.004l7.448,6.191l16.346-12.858
	c8.208,5.604,17.078,10.293,26.477,13.918l-0.813,21.086l8.004,2.09v0.008l9.356,2.446l9.42-18.629
	c6.735,1.08,13.637,1.646,20.673,1.646c3.063,0,6.104-0.104,9.115-0.314l8.157,19.521l8.133-1.503v0.006l9.51-1.756l0.705-20.91
	c9.698-2.765,18.941-6.632,27.577-11.456l15.595,14.219l6.738-4.817l0.005,0.006l7.879-5.632l-8.171-19.287
	c7.582-6.595,14.397-14.057,20.294-22.229l20.045,6.244l4.083-7.229l0.006,0.002l4.774-8.448l-15.455-13.956
	c5.522-12.402,9.186-25.821,10.623-39.903l20.354-4.33l0.072-9.714h-0.006L300.184,141.603z M150.091,265.625
	c-63.28,0-114.596-51.574-114.596-115.17c0-63.598,51.316-115.171,114.596-115.171s114.6,51.574,114.6,115.171
	C264.691,214.051,213.372,265.625,150.091,265.625z"/>
<path fill="#2980BA" d="M192.975,115.897v-15.352c0-23.207-19.259-42.088-42.931-42.088c-23.269,0-42.929,19.523-42.929,42.632
	v14.808c-6.032,1.774-10.442,7.38-10.442,14.036v78.402c0,8.078,6.493,14.628,14.503,14.628h77.739
	c8.008,0,14.503-6.55,14.503-14.628v-78.402C203.417,123.277,199.006,117.671,192.975,115.897z M150.044,64.308
	c20.474,0,37.13,16.256,37.13,36.237v14.76h-6.962V100.48c0-15.813-13.817-29.175-30.17-29.175
	c-16.349,0-30.165,13.529-30.165,29.544v14.456h-6.962v-14.216C112.916,81.152,129.918,64.308,150.044,64.308z M174.41,115.305
	h-48.731v-14.456c0-12.842,11.158-23.694,24.364-23.694c13.209,0,24.367,10.682,24.367,23.325V115.305z M197.617,208.335
	c0,4.849-3.896,8.776-8.702,8.776h-77.739c-4.806,0-8.702-3.928-8.702-8.776v-78.402c0-4.849,3.896-8.777,8.702-8.777h77.739
	c4.806,0,8.702,3.928,8.702,8.777V208.335z"/>
<path fill="#2980BA" d="M150.287,150.965c-5.086,0-9.21,4.158-9.21,9.287c0,3.794,2.256,7.05,5.486,8.493v23.323
	c0,1.615,1.56,2.924,3.481,2.924c1.923,0,3.48-1.31,3.48-2.924v-23.13c3.485-1.325,5.972-4.708,5.972-8.687
	C159.497,155.123,155.372,150.965,150.287,150.965z"/>
<path fill="#2980BA" d="M300.315,141.658l-20.491-4.689c-1.037-10.196-3.234-20.044-6.449-29.417l16.623-12.608l-4.021-8.872
	l-0.006,0.004l-3.44-7.586l-20.548,4.486c-5.171-8.685-11.311-16.719-18.266-23.949l9.82-18.586l-7.361-6.323l-0.004,0.002
	l-6.299-5.409l-16.795,12.867c-8.207-5.597-17.075-10.28-26.468-13.895l1.108-20.938l-9.322-2.592l-0.004,0.006l-7.974-2.218
	L170.62,20.7c-6.665-1.062-13.495-1.62-20.453-1.62c-3.169,0-6.308,0.117-9.418,0.34L132.989,0l-9.535,1.623v0.006l-8.155,1.39
	l-1.019,21.112c-9.714,2.802-18.963,6.709-27.606,11.583L71.514,21.429l-7.964,5.535l0.004,0.005l-6.812,4.736l7.941,19.611
	c-7.477,6.56-14.209,13.962-20.044,22.064L24.81,66.861l-4.897,8.41l0.006,0.004l-4.189,7.195l15.426,14.4
	c-5.535,12.46-9.208,25.943-10.65,40.098l-20.49,4.689l0.061,8.343H0.07l0.072,9.753l20.363,4.346
	c1.038,10.198,3.231,20.048,6.446,29.421l-16.585,12.968l3.55,7.536l-0.005,0.002l4.151,8.808l20.272-4.741
	c5.137,8.625,11.221,16.608,18.113,23.799l-9.604,18.833l6.377,5.316l-0.005,0.005l7.452,6.215l16.351-12.909
	c8.211,5.625,17.085,10.333,26.489,13.971l-0.814,21.17l8.007,2.099v0.007l9.36,2.456l9.424-18.702
	c6.738,1.084,13.642,1.653,20.682,1.653c3.063,0,6.105-0.107,9.117-0.317l8.161,19.599l8.137-1.509v0.006l9.512-1.763l0.706-20.991
	c9.703-2.776,18.947-6.66,27.587-11.502l15.601,14.274l6.742-4.835l0.004,0.006l7.883-5.654l-8.174-19.363
	c7.583-6.621,14.401-14.112,20.301-22.316l20.054,6.268l4.084-7.257l0.006,0.003l4.774-8.481L269.2,204.159
	c5.524-12.45,9.189-25.923,10.627-40.06l20.363-4.347l0.072-9.754h-0.007L300.315,141.658z M150.167,266.166
	c-63.305,0-114.642-51.776-114.642-115.622c0-63.847,51.337-115.625,114.642-115.625c63.304,0,114.641,51.777,114.641,115.625
	C264.807,214.39,213.47,266.166,150.167,266.166z"/>
</svg>
