<?xml version="1.0" encoding="utf-8"?>
<!-- Generator: Adobe Illustrator 15.0.2, SVG Export Plug-In  -->
<!DOCTYPE svg PUBLIC "-//W3C//DTD SVG 1.1//EN" "http://www.w3.org/Graphics/SVG/1.1/DTD/svg11.dtd" [
	<!ENTITY ns_flows "http://ns.adobe.com/Flows/1.0/">
]>
<svg version="1.1"
	 xmlns="http://www.w3.org/2000/svg" xmlns:xlink="http://www.w3.org/1999/xlink" xmlns:a="http://ns.adobe.com/AdobeSVGViewerExtensions/3.0/"
	 x="0px" y="0px" width="300px" height="300px" viewBox="-6.295 -0.439 300 300"
	 overflow="visible" enable-background="new -6.295 -0.439 300 300" xml:space="preserve">
<defs>
</defs>
<path fill="#ECF0F1" d="M150.105,34.768C86.82,34.768,35.498,86.32,35.498,149.89c0,63.568,51.322,115.122,114.607,115.122
	s114.607-51.554,114.607-115.122C264.713,86.32,213.391,34.768,150.105,34.768z M150.105,264.754
	c-63.102,0-114.252-51.381-114.252-114.764c0-63.384,51.15-114.764,114.252-114.764c63.101,0,114.252,51.379,114.252,114.764
	C264.357,213.373,213.206,264.754,150.105,264.754z"/>
<path fill="#35495E" d="M300.211,141.042l-20.486-4.67c-1.037-10.149-3.232-19.956-6.449-29.287l16.621-12.554l-4.019-8.832
	l-0.007,0.004l-3.443-7.553l-20.539,4.464c-5.17-8.647-11.307-16.645-18.26-23.843l9.82-18.509l-7.36-6.293l-0.004,0.003
	l-6.299-5.384l-16.792,12.812c-8.201-5.577-17.067-10.235-26.457-13.835l1.105-20.846l-9.32-2.583v0.007l-7.974-2.209l-9.796,18.676
	c-6.662-1.058-13.489-1.612-20.447-1.612c-3.167,0-6.305,0.116-9.415,0.338L132.934,0l-9.531,1.615v0.007l-8.154,1.383
	l-1.018,21.021c-9.711,2.79-18.958,6.68-27.598,11.534L71.477,21.336l-7.963,5.508l0.005,0.007l-6.81,4.716l7.939,19.526
	c-7.476,6.529-14.207,13.903-20.039,21.97l-19.822-6.491l-4.898,8.371l0.008,0.006l-4.188,7.162l15.424,14.337
	c-5.536,12.407-9.209,25.833-10.648,39.923L0,141.042l0.061,8.309H0.055l0.07,9.711l20.356,4.325
	c1.037,10.154,3.229,19.964,6.444,29.294l-16.58,12.913l3.549,7.501l-0.004,0.004l4.149,8.77l20.267-4.719
	c5.133,8.584,11.216,16.536,18.107,23.692l-9.601,18.751l6.376,5.292l-0.004,0.008l7.449,6.188l16.346-12.855
	c8.209,5.6,17.081,10.287,26.479,13.913l-0.812,21.078l8.004,2.09v0.006l9.355,2.449l9.424-18.625
	c6.733,1.079,13.638,1.645,20.674,1.645c3.062,0,6.104-0.106,9.116-0.313l8.159,19.514l8.133-1.503v0.006l9.51-1.757l0.708-20.9
	c9.696-2.763,18.938-6.629,27.577-11.453l15.596,14.215l6.739-4.816l0.005,0.01l7.88-5.633l-8.171-19.278
	c7.58-6.593,14.396-14.05,20.295-22.22l20.047,6.239l4.082-7.227l0.006,0.005l4.773-8.442l-15.453-13.951
	c5.521-12.397,9.187-25.811,10.621-39.888l20.359-4.329l0.071-9.71h-0.007L300.211,141.042z M150.105,265.012
	c-63.285,0-114.607-51.554-114.607-115.122c0-63.569,51.322-115.122,114.607-115.122S264.713,86.32,264.713,149.89
	C264.713,213.458,213.391,265.012,150.105,265.012z"/>
<path fill="#35495E" d="M195.205,179.538c0,8.365-6.51,15.522-14.838,15.522H85.776c-8.328,0-15.571-7.157-15.571-15.522V81.31
	c0-8.365,7.243-16.249,15.571-16.249h94.591c8.328,0,14.838,7.884,14.838,16.249V179.538z M190.205,82.352
	c0-4.504-3.192-8.291-7.678-8.291H86.816c-4.485,0-7.611,3.787-7.611,8.291v97.751c0,4.504,3.126,6.958,7.611,6.958h95.711
	c4.485,0,7.678-2.454,7.678-6.958V82.352z"/>
<path fill="#35495E" d="M234.205,214.88c0,8.365-7.126,16.181-15.455,16.181h-94.59c-8.327,0-14.955-7.815-14.955-16.181v-98.227
	c0-8.366,6.628-15.592,14.955-15.592h94.59c8.329,0,15.455,7.227,15.455,15.592V214.88z M227.205,116.087
	c0-4.504-3.408-8.027-7.891-8.027h-95.716c-4.485,0-6.394,3.522-6.394,8.027v97.752c0,4.502,1.908,9.221,6.394,9.221h95.716
	c4.482,0,7.891-4.719,7.891-9.221V116.087z"/>
<path fill="#35495E" d="M147.589,164.555c-0.892,0-1.781-0.343-2.461-1.025l-13.763-13.825c-1.358-1.364-1.358-3.576,0-4.941
	s3.563-1.365,4.92,0l11.304,11.354l27.273-27.396c1.36-1.364,3.562-1.364,4.922,0c1.358,1.365,1.358,3.576,0,4.941l-29.734,29.868
	C149.368,164.212,148.479,164.555,147.589,164.555z"/>
</svg>
