<?xml version="1.0" standalone="no"?>
<!DOCTYPE svg PUBLIC "-//W3C//DTD SVG 20010904//EN"
 "http://www.w3.org/TR/2001/REC-SVG-20010904/DTD/svg10.dtd">
<svg version="1.0" xmlns="http://www.w3.org/2000/svg"
 width="450.000000pt" height="265.000000pt" viewBox="0 0 450.000000 265.000000"
 preserveAspectRatio="xMidYMid meet">
<metadata>
Created by potrace 1.16, written by Peter Selinger 2001-2019
</metadata>
<g transform="translate(0.000000,265.000000) scale(0.100000,-0.100000)"
fill="#000000" stroke="none">
<path d="M2860 2586 c-17 -22 -8 -56 20 -77 14 -11 80 -33 148 -51 110 -28
125 -34 138 -59 19 -39 31 -43 60 -24 l25 16 40 -87 c22 -48 38 -92 35 -99 -2
-7 -24 -23 -47 -36 -58 -32 -83 -95 -75 -191 l6 -68 -42 -21 c-63 -32 -149
-92 -185 -130 -60 -63 -129 -192 -152 -284 -22 -86 -81 -210 -128 -265 -29
-35 -91 -50 -203 -50 -80 0 -112 16 -43 22 30 2 38 8 46 31 13 40 -3 53 -88
70 -82 16 -105 11 -118 -28 -8 -24 -6 -31 12 -46 30 -24 27 -41 -6 -33 -16 4
-33 12 -39 18 -6 6 -37 76 -68 156 -32 80 -81 187 -108 239 -43 82 -48 98 -39
119 13 28 7 42 -19 42 -18 0 -77 86 -66 97 3 3 51 21 107 39 108 35 139 55
139 89 0 50 -19 59 -151 65 -93 5 -147 13 -216 34 -80 24 -97 26 -128 16 -66
-22 -87 -110 -38 -156 15 -14 32 -40 38 -57 13 -40 53 -57 89 -38 36 20 50 9
65 -47 11 -44 10 -54 -4 -76 -22 -33 -13 -71 20 -88 24 -13 21 -16 -137 -131
l-162 -118 -65 69 c-139 145 -284 215 -500 242 -143 17 -323 -15 -452 -81
-123 -62 -278 -184 -339 -266 -24 -32 -56 -75 -72 -95 -15 -20 -28 -45 -28
-55 0 -10 -6 -27 -14 -38 -24 -36 -68 -157 -62 -172 10 -26 30 0 71 92 21 47
44 85 51 85 18 0 19 1 -15 -69 -61 -130 -66 -318 -12 -479 68 -203 123 -295
238 -395 151 -131 274 -172 501 -165 l137 4 105 50 c135 66 212 123 289 218
80 97 120 165 157 260 18 49 34 76 44 76 8 0 53 -7 100 -15 47 -9 167 -18 268
-22 100 -3 185 -10 188 -15 3 -5 3 -20 0 -34 -5 -20 -12 -24 -46 -24 -44 0
-60 -18 -60 -70 0 -37 19 -46 133 -62 92 -13 105 -6 114 61 5 39 4 42 -26 52
-33 12 -38 29 -21 73 5 15 17 26 27 26 58 0 189 93 213 150 8 20 33 41 78 66
36 20 100 70 142 111 86 81 117 133 191 317 48 121 60 133 201 220 105 65 172
90 188 71 9 -11 6 -19 -17 -37 -72 -60 -169 -159 -214 -219 -51 -69 -129 -225
-129 -259 0 -45 49 -35 80 17 33 57 32 33 -2 -58 -32 -82 -33 -88 -33 -239 0
-147 2 -159 28 -222 54 -129 100 -201 182 -283 124 -124 235 -172 453 -195
239 -26 420 38 587 205 105 104 140 168 179 319 43 163 30 333 -39 526 -82
231 -360 433 -600 434 -44 1 -107 -2 -140 -6 -84 -11 -38 7 56 21 49 8 91 8
124 2 58 -11 98 2 103 35 10 72 -182 108 -349 64 -41 -10 -77 -16 -80 -12 -3
4 -30 72 -59 152 -29 80 -66 174 -81 209 -16 35 -29 67 -29 72 0 4 20 22 45
39 52 36 61 60 45 121 -13 50 -155 285 -177 293 -8 3 -23 1 -33 -4 -14 -7 -30
-6 -57 5 -56 22 -203 55 -244 55 -20 0 -42 -7 -49 -14z m400 -839 c0 -1 4 -16
9 -34 l9 -32 -76 -24 c-43 -14 -85 -29 -95 -33 -17 -6 -18 -5 -5 15 24 41 158
132 158 108z m-2141 -167 c158 -48 245 -93 324 -168 62 -61 82 -92 57 -92 -6
0 -25 16 -42 36 -33 37 -172 135 -243 172 -143 72 -317 86 -480 38 -186 -55
-380 -177 -469 -295 -26 -35 -42 -49 -49 -42 -13 13 57 100 138 170 58 51 190
132 277 171 127 56 322 60 487 10z m840 -176 c53 -47 101 -161 101 -238 0 -67
18 -60 -215 -76 -93 -6 -184 -14 -202 -17 -31 -5 -33 -3 -63 63 -17 37 -27 71
-23 75 21 20 35 10 56 -41 16 -41 28 -56 45 -58 13 -2 25 3 28 13 6 15 -11 92
-30 136 -5 11 9 26 50 55 43 29 192 116 211 123 2 1 21 -15 42 -35z m-898 -3
c31 -10 78 -33 105 -51 57 -38 154 -130 154 -145 0 -5 -19 -23 -43 -39 -23
-16 -99 -72 -169 -124 -123 -93 -128 -95 -185 -97 -55 -2 -68 3 -268 100 -115
56 -220 106 -232 109 -35 11 -28 30 35 94 63 65 139 106 282 154 77 26 94 28
175 22 49 -3 114 -14 146 -23z m2259 11 c-49 -33 -152 -138 -177 -179 -22 -38
-43 -56 -43 -37 0 27 209 235 235 233 6 0 -1 -8 -15 -17z m595 -84 c88 -22
180 -93 245 -190 57 -86 78 -164 86 -321 l6 -132 -42 -80 c-152 -287 -240
-345 -520 -345 -167 0 -252 38 -358 158 -126 143 -148 205 -138 387 8 157 10
165 50 165 30 0 302 -116 333 -141 7 -7 13 -22 13 -36 0 -139 191 -184 260
-61 27 47 31 128 9 173 -12 26 -27 37 -89 65 -8 4 -41 65 -73 136 -86 192 -91
204 -80 215 26 26 206 30 298 7z m-432 -145 c67 -105 148 -245 144 -249 -2 -2
-44 19 -92 47 -49 28 -120 66 -157 85 -38 19 -72 42 -75 50 -10 26 93 134 128
134 4 0 28 -30 52 -67z m-2065 -113 c3 -24 -1 -26 -65 -37 -37 -7 -69 -11 -70
-9 -7 7 103 75 117 73 8 -1 16 -14 18 -27z m-865 -85 c100 -53 216 -116 257
-140 41 -24 86 -44 100 -44 14 -1 91 -13 170 -27 80 -15 192 -34 250 -43 l105
-17 -1 -30 c-2 -53 -52 -136 -147 -249 -107 -126 -153 -165 -234 -195 -128
-48 -345 -41 -437 14 -128 77 -184 140 -264 299 -69 139 -82 178 -82 253 0 77
65 274 91 274 6 0 92 -43 192 -95z m2017 52 c0 -4 -25 -19 -55 -33 l-54 -25
-35 34 -34 34 89 -1 c49 -1 89 -5 89 -9z m1241 -127 c40 -22 18 -154 -30 -180
-37 -19 -88 -12 -110 16 -26 33 -27 49 -3 39 58 -24 71 -27 94 -22 40 10 54
56 34 107 -22 56 -21 59 15 40z m-1810 -58 c4 -4 10 -22 14 -40 l7 -34 -54 6
c-29 3 -102 8 -163 11 -150 8 -165 12 -165 39 0 13 3 26 8 30 8 10 344 -2 353
-12z m-541 -2 c0 -13 -110 -13 -130 0 -10 7 7 10 58 10 41 0 72 -4 72 -10z
m-136 -25 c116 -14 160 -25 100 -25 -40 1 -275 38 -244 39 14 0 79 -6 144 -14z
m665 -64 c33 -3 56 -11 59 -20 4 -12 -13 -13 -104 -7 -126 8 -303 32 -313 42
-6 7 268 -4 358 -15z"/>
</g>
</svg>
