<?xml version="1.0" standalone="no"?>
<!DOCTYPE svg PUBLIC "-//W3C//DTD SVG 20010904//EN"
 "http://www.w3.org/TR/2001/REC-SVG-20010904/DTD/svg10.dtd">
<svg version="1.0" xmlns="http://www.w3.org/2000/svg"
 width="434.000000pt" height="260.000000pt" viewBox="0 0 434.000000 260.000000"
 preserveAspectRatio="xMidYMid meet">
<metadata>
Created by potrace 1.16, written by Peter Selinger 2001-2019
</metadata>
<g transform="translate(0.000000,260.000000) scale(0.100000,-0.100000)"
fill="#000000" stroke="none">
<path d="M3630 2543 c-27 -10 -50 -36 -50 -57 0 -23 -30 -91 -51 -118 -27 -34
-191 -58 -399 -58 -174 0 -189 -1 -214 -21 -22 -17 -26 -28 -26 -70 0 -63 18
-183 36 -234 8 -23 14 -44 14 -48 0 -12 -293 -7 -540 9 -129 8 -327 17 -440
20 -112 2 -207 8 -211 12 -10 12 -69 160 -69 174 0 10 31 12 151 10 165 -4
190 -1 219 28 49 49 12 122 -69 136 -20 4 -47 12 -61 19 -14 8 -44 16 -65 20
-22 4 -94 24 -160 45 -157 50 -246 60 -308 32 -58 -26 -82 -62 -82 -124 0 -40
5 -53 33 -80 20 -21 56 -41 94 -53 l62 -20 21 -90 c12 -49 32 -121 44 -158 20
-58 21 -70 9 -86 -7 -11 -48 -69 -91 -130 -43 -61 -81 -111 -84 -111 -2 0 -23
15 -44 34 -55 47 -199 93 -334 107 -187 20 -302 -11 -463 -125 -91 -64 -259
-216 -320 -289 -113 -136 -198 -422 -172 -582 24 -152 75 -240 225 -391 111
-112 127 -124 225 -172 132 -64 235 -89 425 -103 256 -19 427 4 558 73 34 18
101 71 150 117 74 71 94 98 125 163 l37 79 50 -8 c28 -4 100 -8 162 -8 102 0
113 2 135 22 14 13 31 23 39 23 13 0 109 -100 109 -114 0 -3 -20 -14 -44 -25
-69 -30 -84 -74 -41 -117 l26 -26 142 7 c167 9 206 19 225 59 27 54 -17 102
-104 113 -48 6 -50 7 -117 99 l-68 93 21 40 c14 28 20 59 20 106 0 36 4 65 10
65 5 0 33 30 63 68 30 37 89 105 132 152 66 73 255 313 405 513 23 32 45 55
48 52 3 -3 13 -36 22 -73 l17 -67 -91 -90 c-128 -127 -194 -261 -216 -442 -19
-151 13 -364 72 -475 49 -94 210 -256 293 -297 184 -91 407 -130 571 -100 62
11 147 51 268 123 86 52 181 159 231 261 46 92 85 280 92 445 5 116 4 133 -21
219 -73 253 -230 425 -451 494 -59 18 -93 21 -215 21 -164 -1 -251 -14 -323
-51 -27 -13 -53 -21 -57 -16 -4 4 -31 96 -60 203 -51 194 -68 294 -53 317 5 6
65 16 143 22 257 22 328 48 432 159 47 50 69 82 74 107 7 41 -3 105 -16 105
-6 0 -10 6 -10 14 0 16 -47 56 -64 55 -6 0 -18 -3 -26 -6z m-1445 -768 c105
-8 255 -19 335 -25 80 -6 191 -14 248 -18 l102 -7 -91 -110 c-50 -60 -153
-173 -229 -250 -75 -77 -163 -171 -195 -210 -32 -38 -80 -94 -107 -124 l-49
-54 -27 20 c-21 16 -40 56 -88 194 -34 96 -104 270 -157 387 -54 118 -97 216
-97 219 0 3 37 3 83 -1 45 -4 168 -13 272 -21z m-497 -177 c34 -87 182 -520
182 -533 0 -10 -10 -15 -28 -15 -26 0 -32 7 -62 76 -34 78 -97 169 -187 271
l-52 59 57 87 c31 48 62 87 67 87 6 0 16 -15 23 -32z m-663 -93 c75 -16 235
-87 235 -105 0 -5 -61 -102 -137 -215 -124 -187 -139 -206 -173 -215 -59 -16
-100 -72 -100 -135 0 -29 9 -45 44 -83 44 -47 45 -47 113 -48 49 -1 92 -10
153 -32 47 -17 154 -47 239 -66 85 -20 157 -38 160 -41 3 -3 -35 -46 -85 -96
-145 -148 -251 -189 -485 -189 -101 0 -145 5 -220 24 -135 34 -178 56 -254
128 -84 78 -135 154 -165 248 -20 63 -22 84 -17 178 4 73 12 125 26 163 47
124 216 321 357 415 130 87 176 97 309 69z m2685 -86 c90 -14 145 -43 216
-113 106 -106 161 -254 151 -412 -8 -125 -50 -316 -82 -369 -47 -81 -115 -143
-219 -200 -77 -42 -112 -55 -160 -60 -115 -13 -289 25 -409 88 -66 34 -184
156 -193 197 -3 14 -12 41 -19 60 -51 130 -45 363 12 477 29 59 109 142 121
128 5 -6 19 -34 31 -64 13 -30 38 -77 56 -105 17 -28 47 -76 66 -106 19 -30
49 -72 68 -93 25 -28 36 -52 42 -90 21 -134 166 -160 249 -45 35 48 36 68 11
124 -23 50 -74 84 -128 84 -37 0 -41 3 -63 48 -12 26 -38 71 -58 101 -31 47
-112 229 -112 251 0 4 30 20 68 35 191 78 226 85 352 64z m-2230 -200 c42 -51
50 -66 48 -97 -1 -20 1 -51 6 -68 l7 -32 -58 -6 c-131 -12 -275 -18 -272 -9 9
21 202 273 210 273 4 0 31 -27 59 -61z m460 -308 c16 -31 13 -33 -32 -26 -77
13 -94 45 -23 45 34 0 47 -5 55 -19z m1645 -67 c11 4 21 -5 32 -29 14 -29 14
-39 4 -62 l-13 -28 -13 39 c-8 22 -24 53 -36 70 -14 19 -16 26 -6 17 9 -7 24
-11 32 -7z m-2280 -99 c107 -6 242 -21 278 -31 18 -6 25 -58 8 -68 -14 -9
-391 73 -436 95 l-40 19 40 -5 c22 -2 90 -7 150 -10z m2175 -15 c16 -11 43
-23 60 -26 39 -8 21 -24 -27 -24 -22 0 -38 8 -52 26 -36 45 -27 57 19 24z
m-1552 -62 c6 -6 12 -16 12 -23 0 -6 14 -31 31 -54 l30 -42 -48 6 c-120 17
-118 17 -116 65 3 66 8 73 45 65 18 -4 39 -12 46 -17z"/>
</g>
</svg>
