<?xml version="1.0" standalone="no"?>
<!DOCTYPE svg PUBLIC "-//W3C//DTD SVG 20010904//EN"
 "http://www.w3.org/TR/2001/REC-SVG-20010904/DTD/svg10.dtd">
<svg version="1.0" xmlns="http://www.w3.org/2000/svg"
 width="450.000000pt" height="284.000000pt" viewBox="0 0 450.000000 284.000000"
 preserveAspectRatio="xMidYMid meet">
<metadata>
Created by potrace 1.16, written by Peter Selinger 2001-2019
</metadata>
<g transform="translate(0.000000,284.000000) scale(0.100000,-0.100000)"
fill="#000000" stroke="none">
<path d="M1171 2782 c-13 -4 -33 -19 -44 -34 -19 -26 -19 -28 -3 -53 10 -14
55 -51 101 -80 46 -30 86 -58 89 -64 3 -5 37 -29 74 -54 l68 -45 43 -138 c24
-77 45 -146 47 -155 3 -9 -2 -22 -11 -29 -21 -17 -19 -39 9 -101 14 -30 42
-121 62 -202 l37 -148 -50 -52 c-27 -29 -67 -77 -88 -107 -51 -73 -147 -187
-281 -336 -198 -219 -304 -343 -304 -353 0 -6 12 -17 28 -25 57 -29 582 -133
725 -143 68 -5 90 -10 95 -22 18 -50 140 -171 174 -171 4 0 8 -15 8 -33 0 -28
-7 -38 -37 -58 -60 -38 -58 -109 2 -135 55 -23 109 -18 145 13 31 25 32 29 26
79 -6 56 1 114 15 114 32 0 126 49 169 87 87 79 113 157 86 264 -14 54 -15 65
-2 83 8 12 85 98 172 191 169 183 285 319 433 510 51 66 96 121 101 123 8 3
40 -75 40 -99 0 -9 -18 -29 -40 -44 -101 -70 -256 -270 -285 -367 -23 -79 -38
-259 -32 -392 8 -193 55 -307 176 -426 156 -155 428 -251 711 -251 139 0 218
12 321 52 138 53 220 119 330 264 93 123 130 213 154 376 30 197 -30 408 -180
634 -63 94 -115 146 -209 209 -123 81 -221 106 -425 108 -95 0 -134 -4 -216
-26 -55 -14 -102 -26 -106 -26 -11 0 -109 268 -109 298 0 48 19 64 68 56 l42
-7 0 -47 c0 -32 7 -57 23 -80 51 -77 156 -94 384 -65 127 17 140 21 166 47 34
33 31 70 -6 102 -23 19 -75 19 -279 0 -88 -9 -138 1 -138 26 0 22 19 26 151
34 213 12 594 130 629 195 29 55 -4 111 -66 111 -20 0 -82 -15 -137 -34 -98
-34 -265 -68 -394 -82 -60 -6 -64 -5 -98 25 -35 30 -39 31 -131 31 -109 0
-130 -8 -150 -56 -14 -33 -16 -34 -54 -28 -86 14 -130 -21 -130 -102 l0 -52
-292 -6 c-892 -18 -1028 -18 -1028 -3 0 8 -16 28 -35 44 -32 26 -36 36 -55
133 -15 75 -19 124 -14 171 l6 66 -56 32 c-31 18 -54 36 -51 40 2 5 39 14 82
21 90 14 109 22 118 50 9 28 -10 57 -47 69 -150 48 -465 92 -527 73z m1749
-906 c0 -12 -77 -102 -192 -223 -53 -57 -196 -220 -318 -363 -122 -143 -226
-260 -232 -260 -16 0 -2 111 18 147 23 39 12 76 -30 102 -43 27 -100 27 -126
1 -24 -24 -25 -43 -3 -80 14 -24 15 -39 7 -87 -6 -38 -14 -59 -24 -61 -12 -2
-25 38 -59 185 -24 104 -72 289 -106 413 -35 124 -61 227 -60 230 6 9 1125 5
1125 -4z m682 -408 c28 -55 32 -73 32 -138 -1 -71 -30 -180 -53 -195 -11 -6
-171 318 -171 346 0 9 107 47 137 48 18 1 29 -12 55 -61z m-1831 -210 c68
-292 66 -270 36 -310 -14 -18 -36 -60 -48 -93 -12 -33 -25 -64 -29 -68 -4 -5
-45 -3 -91 3 -123 16 -472 70 -486 75 -32 11 -8 48 86 135 55 51 163 162 240
248 130 145 228 238 238 228 3 -2 27 -100 54 -218z m1501 30 c81 -138 132
-238 124 -246 -4 -4 -56 -7 -114 -6 -78 0 -122 6 -162 20 -65 22 -72 40 -41
109 19 44 126 215 135 215 2 0 28 -42 58 -92z m776 50 c5 -7 30 -53 55 -103
73 -146 84 -275 36 -432 -37 -120 -59 -134 -145 -92 -70 33 -134 150 -155 281
-17 105 15 188 117 298 57 61 74 70 92 48z m-606 -612 c121 -57 188 -158 188
-283 l0 -72 -36 -7 c-43 -8 -149 0 -222 16 -78 18 -189 95 -240 168 -45 65
-82 142 -82 173 0 33 37 39 191 35 132 -3 150 -6 201 -30z M1515 1194 c-49
-59 -137 -150 -194 -204 l-105 -98 60 -7 c32 -3 131 -15 220 -25 88 -11 167
-20 176 -20 19 0 38 63 38 127 0 86 -70 333 -94 333 -6 0 -51 -48 -101 -106z
M763 1845 c-174 -49 -369 -194 -475 -353 -113 -167 -178 -321 -214 -499 -16
-80 -16 -103 -6 -192 6 -56 21 -129 33 -164 30 -91 101 -234 149 -300 45 -62
147 -138 254 -188 89 -42 246 -80 357 -86 82 -5 109 -2 198 21 185 48 309 120
423 249 127 143 224 293 196 302 -7 2 -76 9 -153 15 -160 13 -541 74 -591 95
-47 19 -74 50 -74 85 0 24 25 59 127 177 70 82 174 198 232 258 57 61 138 150
179 199 l74 89 -49 49 c-63 65 -234 178 -331 219 -66 27 -91 33 -177 36 -67 2
-117 -2 -152 -12z"/>
</g>
</svg>
