<?xml version="1.0" standalone="no"?>
<!DOCTYPE svg PUBLIC "-//W3C//DTD SVG 20010904//EN"
 "http://www.w3.org/TR/2001/REC-SVG-20010904/DTD/svg10.dtd">
<svg version="1.0" xmlns="http://www.w3.org/2000/svg"
 width="458.000000pt" height="263.000000pt" viewBox="0 0 458.000000 263.000000"
 preserveAspectRatio="xMidYMid meet">
<metadata>
Created by potrace 1.16, written by Peter Selinger 2001-2019
</metadata>
<g transform="translate(0.000000,263.000000) scale(0.100000,-0.100000)"
fill="#000000" stroke="none">
<path d="M650 2567 c-50 -13 -73 -45 -63 -87 3 -14 59 -77 123 -140 65 -63
124 -128 133 -145 26 -52 75 -207 86 -272 8 -54 19 -74 70 -140 70 -92 139
-160 241 -238 95 -72 111 -80 310 -153 91 -33 234 -88 319 -121 304 -122 369
-143 414 -136 85 14 183 97 266 225 54 82 66 123 51 160 -30 73 -121 61 -206
-26 -59 -60 -74 -68 -165 -84 -61 -11 -66 -11 -208 35 -487 156 -576 195 -746
333 -84 68 -163 215 -205 381 -7 24 -25 57 -41 73 -25 26 -34 29 -67 23 -54
-9 -70 11 -53 63 11 32 10 44 -3 77 -23 54 -77 117 -132 154 -52 34 -58 35
-124 18z M2188 2395 c-15 -8 -33 -25 -39 -37 -19 -35 -59 -170 -59 -199 0 -40
36 -79 71 -79 44 0 65 15 95 65 14 25 28 45 31 45 3 0 29 -16 57 -37 82 -59
264 -173 355 -222 l85 -46 17 -80 c17 -75 17 -80 0 -105 -10 -14 -42 -70 -71
-125 -150 -280 -344 -515 -426 -515 -55 0 -203 53 -301 109 -97 54 -177 88
-388 163 -282 99 -294 101 -353 58 -26 -19 -48 -28 -55 -23 -7 4 -37 27 -67
50 -66 50 -130 76 -241 99 -145 29 -300 0 -474 -89 -89 -45 -212 -159 -259
-239 -102 -175 -140 -446 -85 -607 27 -77 104 -210 156 -270 125 -143 401
-259 592 -249 273 14 562 239 652 506 12 34 28 66 37 71 43 23 683 223 728
228 36 4 65 0 96 -11 56 -22 107 -18 122 9 6 11 48 77 93 147 71 110 124 170
138 157 2 -2 -14 -39 -34 -81 -62 -127 -94 -318 -71 -419 23 -104 85 -214 168
-301 168 -175 396 -278 617 -278 129 0 265 59 403 174 205 171 266 297 288
602 5 70 3 110 -11 170 -22 101 -51 157 -124 243 l-60 69 80 4 c69 4 84 8 106
30 20 20 24 32 19 53 -7 27 -37 61 -71 81 -17 10 -17 13 14 58 29 42 36 47 60
41 74 -20 115 -16 166 14 59 34 97 84 125 164 33 94 22 164 -36 218 -13 12
-24 29 -24 37 0 8 21 50 46 92 43 73 48 78 86 83 74 10 105 74 59 120 -20 20
-34 22 -167 25 -120 3 -149 1 -170 -12 -47 -31 -25 -95 39 -111 15 -4 27 -12
27 -17 0 -6 -16 -36 -35 -67 -32 -54 -38 -59 -94 -74 -68 -19 -136 -68 -162
-116 -10 -19 -22 -38 -26 -42 -12 -12 -219 -46 -418 -69 -99 -12 -251 -36
-338 -54 -108 -22 -160 -29 -166 -22 -16 23 -51 129 -51 158 0 43 -32 69 -300
245 -324 212 -390 243 -452 208z m1750 -667 c4 -37 -24 -50 -106 -46 l-67 3
70 37 c80 43 99 44 103 6z m-408 -37 c0 -15 -31 -22 -129 -26 -114 -6 -92 9
34 23 44 5 83 10 88 11 4 0 7 -3 7 -8z m-210 -71 l75 -6 -120 -58 c-171 -82
-165 -82 -198 0 -22 53 -25 69 -15 76 12 8 55 6 258 -12z m574 -2 c-3 -13 -13
-35 -20 -50 -14 -27 -15 -27 -93 -21 -75 5 -80 5 -100 -19 l-22 -25 -52 18
c-29 10 -69 18 -89 19 -21 0 -38 4 -38 10 0 5 28 24 63 42 56 29 73 33 177 38
63 4 130 7 148 8 30 2 33 0 26 -20z m-986 -145 l24 -57 -27 -21 c-40 -29 -147
-95 -157 -95 -15 0 -8 17 43 101 71 118 79 129 87 129 4 0 17 -26 30 -57z
m657 -168 c106 -57 233 -174 277 -256 21 -40 23 -57 23 -174 -1 -164 -18 -235
-82 -328 -53 -78 -170 -182 -252 -223 -66 -34 -139 -41 -253 -25 -181 26 -366
159 -448 323 -46 92 -51 149 -25 273 27 129 130 302 183 307 20 3 30 -11 74
-95 l50 -98 -21 -65 c-41 -125 -23 -207 58 -261 73 -49 150 -52 246 -9 99 45
141 112 124 200 -11 59 -29 93 -71 132 -43 41 -82 60 -139 68 l-46 7 -38 95
c-30 72 -36 97 -27 106 21 21 146 47 233 47 74 1 93 -3 134 -24z m-2637 -10
c29 -9 67 -28 84 -44 l31 -27 -59 -51 c-32 -29 -97 -82 -144 -120 -47 -38 -94
-82 -105 -99 -10 -16 -33 -39 -50 -49 -40 -27 -66 -83 -72 -158 -7 -81 12
-127 66 -163 40 -26 41 -28 24 -47 -10 -10 -35 -28 -56 -38 -46 -24 -63 -61
-47 -100 19 -45 88 -58 130 -24 22 17 449 159 457 151 4 -3 -39 -51 -94 -105
-112 -110 -174 -146 -268 -159 -137 -17 -247 21 -377 133 -90 78 -140 147
-174 239 -40 110 -28 218 41 362 55 115 251 288 358 315 47 12 194 3 255 -16z
m524 -86 c23 -12 84 -37 137 -56 53 -19 100 -38 105 -43 7 -7 -100 -19 -213
-23 -45 -2 -45 -2 -83 61 -21 35 -36 67 -33 72 10 16 43 12 87 -11z m-265
-134 c7 -21 5 -22 -42 -30 l-40 -6 28 25 c32 30 45 32 54 11z m834 -119 c55
-27 88 -47 79 -50 -118 -43 -277 -99 -412 -146 l-168 -59 0 72 c0 40 -7 96
-14 125 -8 28 -13 52 -13 53 2 1 394 46 418 48 9 0 59 -19 110 -43z m1364 -1
c48 -27 75 -75 75 -128 0 -46 -49 -90 -118 -107 -69 -16 -104 -6 -146 41 -40
43 -41 47 -25 102 l10 38 47 -52 c41 -46 92 -79 122 -79 18 0 11 69 -15 132
-14 34 -25 65 -25 70 0 15 33 8 75 -17z m-2145 -54 c14 -26 11 -206 -3 -255
-12 -38 -16 -41 -97 -73 -126 -49 -360 -126 -367 -120 -2 3 5 19 17 35 19 25
21 38 16 76 -7 45 -7 45 32 65 52 26 97 93 95 140 -1 20 -3 45 -5 55 -2 16 10
23 82 43 72 20 188 49 212 52 4 1 12 -8 18 -18z m-356 -117 c11 -28 6 -42 -25
-73 -53 -54 -138 -35 -155 35 -10 38 2 40 32 5 36 -43 70 -39 103 12 27 41 36
45 45 21z"/>
</g>
</svg>
