<?xml version="1.0" standalone="no"?>
<!DOCTYPE svg PUBLIC "-//W3C//DTD SVG 20010904//EN"
 "http://www.w3.org/TR/2001/REC-SVG-20010904/DTD/svg10.dtd">
<svg version="1.0" xmlns="http://www.w3.org/2000/svg"
 width="551.000000pt" height="319.000000pt" viewBox="0 0 551.000000 319.000000"
 preserveAspectRatio="xMidYMid meet">
<metadata>
Created by potrace 1.16, written by Peter Selinger 2001-2019
</metadata>
<g transform="translate(0.000000,319.000000) scale(0.100000,-0.100000)"
fill="#000000" stroke="none">
<path d="M2171 3130 c-85 -13 -121 -48 -107 -106 12 -44 61 -56 200 -49 100 6
129 4 166 -10 25 -9 58 -20 75 -24 l30 -7 -59 -39 c-63 -41 -96 -85 -96 -125
0 -14 11 -64 24 -110 13 -47 32 -120 41 -163 l17 -78 -26 -28 c-25 -26 -33
-65 -18 -86 4 -6 17 -17 30 -25 23 -15 44 -67 114 -275 34 -104 175 -653 213
-830 14 -66 37 -168 52 -227 15 -59 24 -110 19 -115 -4 -4 -112 -7 -239 -6
-206 2 -233 4 -242 19 -5 10 -28 40 -51 69 l-41 51 30 52 c29 52 29 52 78 52
78 0 116 54 68 99 -23 22 -67 33 -201 52 -103 15 -138 7 -153 -35 -9 -25 -6
-31 23 -57 l33 -29 -18 -31 c-18 -30 -19 -31 -76 -24 -32 3 -64 8 -71 11 -6 2
-77 132 -156 287 -80 155 -176 329 -214 386 -59 88 -67 107 -58 122 16 25 15
56 0 66 -7 4 -31 10 -53 13 -38 5 -42 9 -88 90 -27 47 -71 115 -98 153 -47 64
-48 68 -31 85 9 11 22 27 28 37 8 14 28 20 87 26 136 13 210 70 158 122 -20
20 -33 22 -164 25 -102 2 -180 10 -278 29 -151 29 -191 27 -233 -12 -54 -50
-24 -145 51 -160 15 -3 41 -12 56 -20 16 -8 34 -15 40 -15 6 0 24 -12 39 -27
25 -24 36 -27 83 -25 l55 2 -6 -28 c-4 -22 6 -52 44 -125 28 -53 65 -117 82
-142 28 -40 30 -50 21 -76 -16 -46 7 -79 57 -79 15 0 39 -33 95 -132 42 -73
79 -142 83 -153 11 -31 -70 64 -179 208 -104 138 -210 257 -248 278 -29 16
-318 17 -724 2 -222 -8 -276 -12 -306 -27 -43 -20 -62 -56 -49 -90 15 -39 47
-50 165 -56 l110 -5 0 -47 c0 -34 6 -53 23 -70 12 -13 22 -29 22 -34 0 -5 -36
-45 -81 -89 -171 -170 -302 -431 -244 -488 25 -26 52 -5 87 68 21 47 33 62 45
58 17 -7 15 -21 -16 -133 -31 -109 -32 -296 -2 -403 42 -151 99 -229 249 -339
118 -88 181 -122 293 -158 84 -28 102 -31 169 -25 98 9 248 47 324 83 79 37
201 136 255 206 50 64 65 71 112 53 19 -8 62 -20 96 -27 97 -20 102 -26 67
-91 l-29 -54 -62 -6 c-70 -7 -93 -20 -93 -55 0 -56 62 -79 247 -90 100 -6 109
-5 126 14 27 30 19 73 -20 97 -37 23 -36 45 3 85 23 23 32 25 117 25 81 1 101
5 167 33 117 49 172 105 194 194 l6 27 218 3 217 3 32 -29 c29 -27 36 -28 102
-24 50 2 78 9 98 24 23 17 54 22 183 32 85 6 216 20 290 31 74 11 209 25 300
31 91 6 207 16 257 22 l93 11 51 78 c28 43 58 84 67 91 13 11 14 9 9 -17 -3
-17 -20 -72 -38 -123 l-33 -93 12 -97 c28 -222 153 -387 371 -491 69 -33 84
-36 161 -35 187 0 307 52 451 194 178 176 243 363 189 541 -29 99 -71 175
-133 244 -77 87 -221 172 -320 189 -32 6 -38 11 -35 29 3 19 9 22 43 20 22 -2
67 -13 101 -25 68 -24 97 -20 92 14 -6 40 -99 86 -209 103 -36 5 -37 7 -43 58
-9 86 -21 151 -29 165 -10 16 -52 16 -65 -1 -6 -7 -12 -30 -14 -52 -3 -38 -5
-41 -53 -57 -73 -24 -80 -22 -51 13 29 34 34 80 12 98 -9 8 -28 10 -49 6 -40
-8 -359 35 -522 70 -237 51 -593 103 -989 145 -104 11 -190 21 -191 22 -1 2
-14 42 -28 89 -41 132 -67 156 -141 125 -42 -18 -48 -42 -23 -97 11 -24 71
-246 132 -494 62 -247 126 -492 143 -543 31 -97 30 -109 -14 -100 -20 4 -53
106 -90 288 -15 69 -61 249 -104 400 -43 151 -94 356 -114 455 -20 100 -48
223 -62 275 -24 92 -24 95 -7 127 20 38 12 60 -30 81 -27 13 -34 31 -76 199
-12 45 -21 86 -21 91 0 5 16 24 35 43 69 66 101 138 84 189 -14 37 -96 80
-155 80 -37 0 -44 4 -62 34 -15 25 -32 38 -59 45 -43 12 -141 12 -222 1z
m-1007 -1332 c14 -18 22 -34 18 -35 -4 -2 -56 8 -117 21 l-110 23 75 10 c41 6
83 11 92 12 9 0 28 -14 42 -31z m-499 2 c2 -4 -26 -16 -63 -28 -37 -12 -89
-35 -115 -52 -45 -28 -47 -28 -57 -10 -5 10 -10 37 -10 59 l0 41 121 -2 c66
-1 122 -5 124 -8z m380 -115 c33 -9 83 -27 112 -40 28 -14 56 -25 61 -25 5 0
15 -6 21 -14 9 -10 8 -16 -3 -25 -11 -10 -23 -8 -55 8 -22 12 -81 29 -131 38
-67 13 -92 22 -96 35 -6 21 2 38 19 38 7 0 40 -7 72 -15z m-275 -10 c0 -19
-26 -32 -88 -46 -28 -5 -71 -24 -97 -40 -49 -31 -79 -32 -73 -2 9 48 258 133
258 88z m-288 -125 c0 -5 1 -13 2 -17 1 -5 -41 -48 -91 -97 -63 -60 -98 -86
-108 -82 -26 10 5 55 92 135 74 68 101 83 105 61z m994 -92 c75 -77 151 -173
177 -223 25 -49 48 -148 36 -160 -15 -15 -41 7 -53 46 -11 33 -39 86 -98 181
-27 44 -69 86 -147 151 -26 22 -32 32 -27 52 10 41 37 29 112 -47z m-677 -148
c7 -69 15 -138 18 -154 4 -19 2 -27 -5 -25 -14 5 -162 229 -162 245 0 22 117
81 131 65 3 -3 11 -62 18 -131z m275 105 c20 -8 36 -17 36 -20 0 -2 -28 -50
-62 -106 l-63 -102 -6 109 c-3 60 -3 115 -1 122 6 17 52 15 96 -3z m3744 -37
c-3 -7 -18 -14 -34 -16 -28 -2 -28 -2 -10 13 24 18 49 20 44 3z m-4161 -124
c29 -49 53 -92 53 -97 0 -10 -196 89 -205 103 -8 14 72 93 88 87 7 -2 36 -44
64 -93z m655 9 c54 -55 118 -166 104 -180 -7 -8 -317 -24 -328 -17 -7 5 150
254 161 254 4 0 32 -26 63 -57z m3586 -5 c-3 -21 -11 -24 -73 -30 -64 -6 -99
1 -82 18 8 9 105 32 135 33 19 1 23 -4 20 -21z m-408 -149 c-14 -25 -89 -99
-101 -99 -20 0 -6 21 47 69 61 56 70 61 54 30z m-3923 -67 c65 -32 142 -68
170 -80 l53 -22 -7 -46 c-6 -44 -5 -46 44 -93 57 -55 152 -98 368 -168 77 -25
144 -49 148 -53 10 -9 -55 -63 -148 -122 -168 -109 -229 -123 -387 -90 -150
31 -225 70 -312 163 -100 106 -128 156 -134 238 -7 100 45 331 74 331 7 0 66
-26 131 -58z m4312 -44 c-1 -29 -4 -84 -8 -123 l-6 -70 -33 98 c-17 53 -32
104 -32 111 0 8 12 19 28 24 49 18 52 16 51 -40z m156 18 c81 -37 150 -134
189 -265 21 -72 20 -119 -4 -199 -29 -94 -122 -190 -243 -252 -85 -43 -86 -43
-170 -38 -68 5 -95 11 -137 34 -63 34 -121 98 -155 171 -30 62 -65 191 -65
237 0 45 19 106 35 112 7 3 35 -6 61 -19 27 -13 92 -41 145 -61 l97 -37 5 -42
c7 -50 36 -77 84 -77 75 0 111 90 57 141 -26 24 -26 26 -20 119 13 189 15 200
45 200 14 0 49 -11 76 -24z m-391 -100 c14 -25 26 -49 26 -55 0 -11 -94 32
-104 47 -6 11 5 26 29 40 11 6 21 12 22 12 0 0 13 -20 27 -44z m-3665 0 c16
-19 3 -45 -25 -52 -30 -8 -44 2 -44 31 0 34 47 48 69 21z m479 -56 c2 -19 -2
-59 -8 -89 l-12 -53 -49 6 c-50 7 -270 70 -301 87 -26 14 -22 44 9 69 25 19
37 20 192 18 l166 -3 3 -35z m206 -42 c22 -31 20 -74 -4 -98 -24 -24 -55 -27
-46 -4 3 9 9 40 12 70 7 59 15 65 38 32z m466 0 c70 -21 133 -111 113 -164
-23 -65 -108 -123 -160 -109 -35 8 -23 29 22 36 52 9 95 56 95 105 0 108 -105
156 -205 94 -30 -19 -35 -27 -35 -60 0 -35 -23 -71 -36 -57 -4 3 -9 26 -11 50
-7 58 23 94 92 112 50 12 61 12 125 -7z"/>
</g>
</svg>
