<?xml version="1.0" standalone="no"?>
<!DOCTYPE svg PUBLIC "-//W3C//DTD SVG 20010904//EN"
 "http://www.w3.org/TR/2001/REC-SVG-20010904/DTD/svg10.dtd">
<svg version="1.0" xmlns="http://www.w3.org/2000/svg"
 width="421.000000pt" height="253.000000pt" viewBox="0 0 421.000000 253.000000"
 preserveAspectRatio="xMidYMid meet">
<metadata>
Created by potrace 1.16, written by Peter Selinger 2001-2019
</metadata>
<g transform="translate(0.000000,253.000000) scale(0.100000,-0.100000)"
fill="#000000" stroke="none">
<path d="M2575 2471 c-49 -4 -96 -10 -102 -14 -20 -13 -35 -82 -24 -110 18
-47 68 -53 275 -34 224 22 222 22 206 1 -20 -24 -78 -44 -126 -44 -97 0 -119
-35 -83 -132 20 -54 20 -60 5 -77 -9 -9 -16 -29 -16 -43 0 -24 -4 -26 -57 -32
-32 -3 -245 -7 -473 -7 -228 -1 -458 -2 -510 -3 l-95 -1 -29 84 c-23 67 -27
87 -17 100 6 9 21 31 32 49 20 30 25 32 78 32 83 0 106 33 55 81 -26 24 -26
24 -247 24 -246 -1 -297 -6 -297 -34 0 -21 29 -53 78 -86 20 -14 56 -41 80
-60 33 -26 53 -35 81 -35 l38 0 27 -87 c14 -49 26 -94 26 -102 0 -8 -24 -44
-53 -80 -41 -50 -146 -189 -174 -230 -1 -2 -33 10 -70 27 -83 37 -153 51 -303
59 -141 7 -202 -6 -345 -77 -173 -84 -274 -184 -364 -360 -62 -119 -85 -190
-107 -315 -22 -128 -15 -283 16 -375 49 -147 154 -301 256 -378 138 -104 239
-138 447 -149 235 -12 425 47 600 186 82 66 115 108 172 221 20 41 39 76 40
78 4 5 139 -30 149 -38 4 -5 -1 -37 -13 -72 -21 -62 -23 -64 -66 -76 -69 -18
-85 -75 -29 -100 34 -16 212 -15 244 1 19 9 26 22 28 50 3 36 1 39 -37 55 -27
11 -39 22 -37 32 2 8 7 31 10 51 6 35 8 36 57 42 67 8 132 42 180 95 70 75 84
138 53 237 l-16 51 151 182 c83 100 206 241 274 314 67 73 151 169 187 212
l64 78 17 -38 c10 -22 18 -45 18 -53 1 -7 -28 -44 -64 -82 -125 -133 -216
-340 -230 -519 -9 -117 8 -320 34 -401 26 -83 118 -214 221 -317 64 -64 93
-83 200 -136 l125 -61 119 -3 c376 -11 685 142 811 403 67 139 94 239 106 401
13 175 6 220 -51 360 -46 112 -102 193 -202 291 -73 72 -120 99 -248 145 -166
58 -404 75 -546 37 -43 -11 -85 -22 -93 -22 -16 -2 -39 55 -40 101 -1 18 -16
74 -35 125 -19 51 -37 103 -41 117 -4 14 -16 39 -26 56 -10 17 -20 46 -21 64
-3 31 -1 34 34 42 71 15 150 78 162 130 8 36 -15 92 -47 113 -13 8 -49 18 -78
22 -30 3 -65 14 -78 25 -25 19 -80 21 -266 9z m-1055 -255 c0 -21 -21 -31 -30
-15 -5 7 -6 17 -4 21 9 14 34 9 34 -6z m-110 -46 c0 -5 -13 -10 -29 -10 -17 0
-33 5 -36 10 -4 6 8 10 29 10 20 0 36 -4 36 -10z m1250 -377 c-18 -21 -93
-114 -168 -208 -75 -93 -190 -235 -257 -315 -66 -80 -140 -172 -165 -203 -25
-31 -46 -54 -48 -49 -1 4 1 33 5 62 7 44 12 55 28 58 51 7 65 14 75 32 13 24
-1 56 -27 64 -54 17 -169 26 -200 15 -44 -14 -56 -54 -24 -80 12 -10 26 -19
31 -21 10 -3 -19 -148 -30 -148 -4 0 -45 118 -93 263 -86 260 -145 472 -134
483 9 9 118 31 252 50 81 12 220 19 430 24 171 3 320 7 333 8 23 2 22 1 -8
-35z m-1141 -150 c5 -21 17 -67 26 -103 9 -36 50 -168 91 -293 41 -125 74
-234 74 -242 0 -21 -20 -29 -35 -14 -8 8 -23 52 -35 99 -29 116 -96 251 -167
334 -32 38 -64 76 -70 85 -11 15 -5 29 40 94 28 42 55 77 59 77 4 0 12 -17 17
-37z m2087 -164 c121 -48 146 -63 197 -118 49 -53 102 -155 131 -252 30 -99
14 -331 -29 -434 -30 -71 -114 -202 -158 -245 -28 -28 -75 -57 -142 -87 -186
-84 -188 -84 -314 -85 -100 -1 -127 3 -197 25 -92 30 -137 60 -226 150 -55 54
-68 75 -102 162 -32 83 -41 120 -49 217 -13 144 2 232 62 353 36 73 132 197
143 185 3 -3 28 -50 57 -105 58 -111 149 -230 228 -296 28 -25 57 -59 63 -77
31 -86 165 -87 200 -2 26 62 -14 122 -90 135 -32 5 -49 18 -95 72 -92 108
-145 189 -175 265 -45 120 -45 115 -9 133 64 34 148 45 290 40 123 -4 144 -7
215 -36z m-2536 1 c66 -19 67 -21 8 -101 -30 -41 -92 -135 -138 -209 -75 -120
-108 -162 -187 -230 -28 -24 -30 -64 -4 -105 16 -27 38 -36 212 -92 107 -34
235 -73 284 -87 50 -13 103 -29 118 -35 28 -11 28 -11 11 -43 -29 -56 -92
-130 -172 -200 -90 -79 -129 -100 -236 -128 -145 -37 -254 -24 -410 49 -289
136 -365 349 -262 739 36 135 81 233 139 299 61 69 177 122 312 142 85 12 283
13 325 1z m321 -273 c43 -94 71 -200 55 -209 -6 -3 -107 -4 -224 -1 l-211 6
19 26 c11 14 70 95 132 179 l111 153 43 -41 c24 -25 56 -72 75 -113z m-78
-307 c129 0 147 -2 147 -16 0 -14 -9 -16 -62 -11 -35 4 -112 9 -173 13 -60 4
-117 11 -125 16 -10 6 -2 7 25 4 22 -3 106 -6 188 -6z m647 -27 c-1 -26 -20
-36 -51 -27 -51 15 -49 34 5 34 25 0 46 -3 46 -7z m-152 -70 c-2 -20 -9 -29
-25 -31 -27 -4 -29 5 -7 36 21 30 36 28 32 -5z m248 -50 c8 -43 3 -48 -41 -33
-39 13 -40 28 -8 79 15 23 16 24 29 6 8 -10 17 -34 20 -52z m-873 17 c67 -6
155 -13 195 -16 81 -6 79 -3 47 -81 l-13 -32 -199 66 c-109 36 -200 67 -202
69 -7 6 43 5 172 -6z m641 -89 c7 -11 -13 -71 -24 -71 -12 0 -50 50 -50 66 0
16 65 20 74 5z m-144 -98 c0 -3 -63 9 -67 12 -2 1 5 21 14 44 l16 42 19 -48
c10 -26 18 -49 18 -50z m318 63 c16 -17 -58 -59 -95 -54 l-26 3 28 33 c24 29
33 33 58 28 17 -3 32 -8 35 -10z"/>
</g>
</svg>
