<?xml version="1.0" standalone="no"?>
<!DOCTYPE svg PUBLIC "-//W3C//DTD SVG 20010904//EN"
 "http://www.w3.org/TR/2001/REC-SVG-20010904/DTD/svg10.dtd">
<svg version="1.0" xmlns="http://www.w3.org/2000/svg"
 width="458.000000pt" height="284.000000pt" viewBox="0 0 458.000000 284.000000"
 preserveAspectRatio="xMidYMid meet">
<metadata>
Created by potrace 1.16, written by Peter Selinger 2001-2019
</metadata>
<g transform="translate(0.000000,284.000000) scale(0.100000,-0.100000)"
fill="#000000" stroke="none">
<path d="M2605 2755 c-30 -30 -34 -92 -7 -124 25 -31 245 -140 316 -156 34 -8
87 -15 119 -15 52 0 58 -2 67 -26 6 -14 10 -41 10 -59 0 -39 -16 -53 -99 -86
-108 -43 -129 -85 -87 -173 14 -30 26 -71 26 -90 0 -31 -4 -36 -27 -42 -227
-49 -339 -150 -500 -451 -67 -124 -115 -188 -171 -227 -53 -36 -157 -60 -225
-52 l-55 7 -52 127 c-29 70 -77 182 -106 250 -30 68 -54 125 -54 127 0 2 17 9
38 16 23 7 66 37 110 78 63 59 72 71 72 102 0 24 -7 42 -22 57 -42 38 -75 44
-203 37 -119 -6 -121 -6 -170 22 -101 56 -246 17 -285 -77 -28 -67 53 -211
137 -246 18 -8 60 -14 93 -14 l61 0 16 -37 c8 -21 18 -54 20 -73 4 -30 0 -40
-31 -70 l-36 -34 -58 61 c-98 104 -273 203 -432 244 -151 38 -391 15 -521 -51
-85 -44 -277 -226 -373 -355 -70 -93 -126 -175 -126 -185 0 -15 28 -30 43 -24
9 3 63 60 121 127 121 139 172 190 271 269 85 68 112 82 206 108 115 32 263
28 379 -9 81 -26 197 -87 187 -98 -3 -2 -33 6 -68 18 -130 43 -398 32 -553
-24 -120 -44 -340 -232 -433 -371 -113 -169 -149 -420 -86 -606 44 -129 155
-287 288 -408 69 -64 97 -78 240 -128 109 -37 111 -38 270 -38 191 0 272 15
391 74 91 44 209 146 249 214 13 22 33 74 44 115 11 41 23 76 26 79 3 3 46 -2
97 -11 51 -9 147 -24 213 -32 142 -19 155 -22 155 -40 0 -8 7 -30 17 -49 16
-34 15 -35 -10 -66 -33 -38 -34 -73 -6 -101 47 -47 215 1 254 74 20 36 20 36
0 51 -11 9 -34 18 -51 21 -24 5 -35 17 -56 59 l-25 53 55 57 c30 31 80 70 111
86 166 83 256 206 385 525 72 177 165 322 232 361 56 33 78 35 82 9 2 -13 -9
-28 -33 -44 -59 -39 -131 -126 -191 -227 -94 -162 -110 -228 -99 -421 7 -115
9 -128 31 -150 40 -40 48 -27 55 93 7 125 36 233 103 383 51 116 91 181 111
181 20 0 20 0 -16 -78 -102 -224 -149 -389 -149 -524 0 -96 0 -97 51 -197 88
-177 241 -345 371 -406 122 -58 214 -78 363 -78 113 -1 141 3 218 26 104 32
143 51 257 124 96 63 242 204 285 277 98 168 119 414 51 613 -61 181 -159 320
-314 446 -149 122 -277 164 -471 154 -64 -3 -138 -12 -166 -20 -27 -8 -61 -17
-75 -21 -34 -9 107 65 145 76 17 5 89 13 162 18 72 6 143 14 157 20 32 12 34
44 4 64 -37 23 -170 40 -265 33 -76 -6 -99 -12 -184 -53 -54 -26 -128 -66
-166 -90 -37 -23 -71 -40 -75 -36 -6 7 -81 241 -112 354 -9 31 -21 60 -26 63
-18 11 -11 24 21 40 47 25 111 86 126 122 20 49 16 139 -11 224 -37 119 -37
119 -109 119 -89 0 -194 32 -333 100 -67 33 -131 60 -143 60 -12 0 -33 -11
-46 -25z m389 -971 c12 -32 5 -44 -46 -70 -80 -40 -131 -86 -196 -177 -75
-104 -119 -184 -177 -322 -61 -146 -105 -221 -157 -273 l-44 -42 -66 64 c-43
43 -79 69 -106 77 -48 14 -47 24 5 34 127 23 238 128 363 340 147 249 191 297
327 355 80 34 89 35 97 14z m878 -305 c80 -12 115 -31 206 -111 108 -94 179
-205 222 -346 19 -62 21 -89 18 -190 -6 -160 -26 -209 -126 -314 -129 -135
-281 -222 -436 -249 -119 -20 -311 20 -406 86 -75 52 -177 182 -238 304 -51
102 -57 123 -60 187 -4 71 17 166 51 231 19 35 111 143 123 143 5 0 30 -30 55
-67 24 -37 77 -100 117 -139 49 -50 72 -80 72 -96 0 -14 7 -47 15 -75 25 -85
111 -142 195 -130 45 6 119 54 155 101 53 70 40 139 -44 236 l-39 45 -82 0
-82 0 -44 50 c-59 67 -154 206 -154 226 0 25 82 77 156 98 80 23 217 27 326
10z m-2769 -44 c32 -8 77 -24 100 -36 46 -23 107 -77 107 -94 0 -7 -17 -25
-37 -42 -21 -17 -100 -89 -176 -162 -118 -111 -141 -129 -157 -121 -24 13 -66
13 -90 0 -52 -28 -78 -137 -46 -198 42 -79 143 -126 187 -86 16 14 28 12 151
-25 73 -22 164 -47 201 -57 38 -9 71 -23 74 -30 2 -7 -3 -39 -12 -70 -31 -108
-158 -209 -302 -239 -91 -19 -273 -19 -348 0 -138 36 -269 141 -360 288 -64
105 -95 192 -95 270 1 165 61 273 224 400 243 189 408 247 579 202z m613 -32
c94 -247 125 -335 121 -340 -3 -3 -44 -7 -90 -10 -87 -6 -127 4 -127 32 0 8
-14 58 -31 111 -17 53 -29 97 -27 99 2 2 30 33 63 69 33 36 65 65 70 65 6 1
15 -11 21 -26z m-310 -301 l7 -32 -59 0 -59 1 45 39 c25 21 48 35 52 32 4 -4
11 -22 14 -40z m2318 -173 c14 -17 26 -34 26 -38 0 -10 -29 -35 -57 -50 -27
-14 -63 1 -63 25 0 12 8 15 34 12 30 -3 33 -2 25 13 -12 23 -12 69 0 69 5 0
21 -14 35 -31z m-2801 -148 c6 -9 2 -8 -11 3 -12 11 -22 29 -21 40 0 19 1 19
10 -3 5 -14 15 -32 22 -40z m856 -57 c106 -16 112 -18 136 -50 l26 -34 -23 0
c-45 0 -262 50 -275 63 -16 16 -6 50 12 43 8 -3 63 -12 124 -22z"/>
</g>
</svg>
