<?xml version="1.0" standalone="no"?>
<!DOCTYPE svg PUBLIC "-//W3C//DTD SVG 20010904//EN"
 "http://www.w3.org/TR/2001/REC-SVG-20010904/DTD/svg10.dtd">
<svg version="1.0" xmlns="http://www.w3.org/2000/svg"
 width="407.000000pt" height="276.000000pt" viewBox="0 0 407.000000 276.000000"
 preserveAspectRatio="xMidYMid meet">
<metadata>
Created by potrace 1.16, written by Peter Selinger 2001-2019
</metadata>
<g transform="translate(0.000000,276.000000) scale(0.100000,-0.100000)"
fill="#000000" stroke="none">
<path d="M2438 2695 c-39 -22 -45 -56 -18 -100 25 -41 30 -42 182 -49 64 -2
124 -9 135 -14 15 -9 120 -249 111 -257 -2 -1 -23 -8 -48 -16 -59 -18 -90 -64
-90 -130 0 -27 11 -103 25 -169 14 -66 24 -124 21 -129 -3 -4 -31 -13 -63 -20
-32 -7 -119 -33 -193 -58 -74 -25 -180 -58 -235 -73 -55 -15 -140 -40 -190
-54 -49 -15 -164 -45 -255 -66 -91 -22 -175 -42 -187 -46 -19 -5 -27 5 -73 97
-29 56 -63 120 -76 140 -13 21 -24 41 -24 43 0 3 25 12 54 20 105 31 213 77
235 100 17 18 22 33 19 66 -5 68 -25 77 -213 95 -88 8 -196 22 -240 30 -104
19 -189 19 -225 0 -43 -22 -80 -82 -80 -129 0 -51 37 -86 162 -151 l96 -50 71
-170 c39 -93 71 -175 71 -181 0 -10 -202 -196 -221 -202 -5 -2 -31 16 -57 40
-97 90 -228 143 -383 154 -138 9 -224 -6 -339 -63 -79 -38 -109 -60 -181 -132
-137 -136 -170 -226 -173 -461 -1 -118 2 -144 23 -209 30 -92 98 -197 189
-293 124 -130 244 -185 433 -198 161 -11 256 1 344 44 149 74 251 219 305 433
l11 43 72 -6 c40 -3 158 1 262 9 105 8 192 13 194 11 2 -2 -10 -19 -28 -39
-35 -40 -38 -60 -15 -93 21 -30 71 -29 172 3 89 28 182 88 196 126 13 37 0 78
-30 91 -23 11 -71 1 -140 -28 -7 -3 -29 15 -49 40 l-37 45 13 52 c14 54 20 60
129 122 25 14 104 80 175 147 72 68 180 161 240 209 61 47 159 127 219 178 59
51 112 91 116 88 4 -2 22 -43 40 -90 l33 -85 -94 -98 c-110 -112 -154 -173
-179 -245 -29 -81 -50 -223 -50 -327 1 -107 16 -164 71 -256 43 -74 187 -219
259 -261 134 -78 374 -114 525 -79 82 19 252 100 312 148 52 41 157 166 183
218 31 61 60 197 60 280 0 160 -64 328 -178 472 -155 195 -451 315 -651 264
-50 -13 -66 -14 -72 -4 -4 6 -28 77 -54 157 -26 80 -69 214 -96 297 -27 82
-49 155 -49 161 0 7 20 31 46 55 49 47 70 106 58 162 -8 38 -89 246 -116 299
-26 51 -66 73 -156 85 -151 21 -274 24 -304 7z m17 -1215 c-12 -19 -172 -139
-374 -280 -190 -133 -205 -141 -218 -124 -38 52 -124 217 -117 224 5 4 32 13
59 19 28 7 124 34 215 61 314 93 450 125 435 100z m-941 -281 c-3 -5 -17 -9
-30 -9 -15 0 -38 -13 -56 -30 -24 -25 -29 -37 -25 -59 6 -27 4 -29 -44 -38
-75 -15 -76 6 -3 70 32 29 75 67 94 84 l35 33 17 -21 c10 -12 15 -25 12 -30z
m1940 17 c120 -44 166 -74 221 -148 50 -67 62 -102 71 -209 8 -93 -8 -193 -43
-272 -67 -150 -298 -274 -492 -265 -121 5 -242 73 -311 173 -68 98 -94 328
-49 418 32 63 116 191 138 211 19 18 21 16 59 -61 54 -106 171 -282 211 -316
39 -33 83 -35 112 -6 35 35 22 90 -45 198 -53 87 -131 284 -120 303 3 5 38 8
79 8 59 0 93 -7 169 -34z m-2554 -42 c36 -17 81 -46 100 -64 l35 -33 -55 -49
c-71 -64 -109 -80 -189 -79 -77 1 -128 -24 -165 -80 -48 -72 -46 -136 6 -195
57 -65 82 -71 296 -79 106 -4 195 -11 197 -15 10 -16 -73 -176 -103 -202 -74
-62 -220 -91 -347 -69 -85 15 -163 54 -240 121 -84 72 -113 107 -144 170 -24
50 -26 65 -25 175 1 99 5 130 23 178 38 98 165 215 269 248 15 4 83 7 152 6
117 -2 129 -4 190 -33z m692 -171 c21 -18 24 -53 6 -54 -12 0 -234 0 -250 1
-5 0 -8 6 -8 14 0 9 31 20 98 34 123 25 132 26 154 5z m-29 -262 c46 -8 110
-52 95 -66 -3 -3 -67 -9 -142 -12 l-136 -6 0 36 c0 24 6 39 18 46 20 12 97 13
165 2z m-403 -51 c0 -19 -6 -20 -107 -19 -140 1 -185 13 -88 23 39 4 79 8 90
10 11 2 39 4 63 5 36 1 42 -2 42 -19z"/>
</g>
</svg>
