<?xml version="1.0" standalone="no"?>
<!DOCTYPE svg PUBLIC "-//W3C//DTD SVG 20010904//EN"
 "http://www.w3.org/TR/2001/REC-SVG-20010904/DTD/svg10.dtd">
<svg version="1.0" xmlns="http://www.w3.org/2000/svg"
 width="422.000000pt" height="254.000000pt" viewBox="0 0 422.000000 254.000000"
 preserveAspectRatio="xMidYMid meet">
<metadata>
Created by potrace 1.16, written by Peter Selinger 2001-2019
</metadata>
<g transform="translate(0.000000,254.000000) scale(0.100000,-0.100000)"
fill="#000000" stroke="none">
<path d="M3107 2465 c-16 -8 -58 -38 -94 -66 -62 -50 -70 -53 -181 -76 -131
-26 -152 -40 -152 -102 0 -20 7 -58 15 -85 8 -27 15 -57 15 -66 0 -18 -193
-115 -425 -213 -71 -30 -205 -87 -296 -125 -177 -74 -273 -102 -292 -83 -16
16 -7 20 87 42 85 21 140 48 160 82 9 15 6 23 -17 43 -33 28 -66 30 -152 9
-78 -19 -300 -19 -379 0 -67 16 -97 9 -122 -30 -21 -32 -7 -72 37 -104 44 -33
150 -81 179 -81 14 0 35 -8 48 -18 19 -15 23 -26 20 -62 -3 -42 -7 -48 -67
-93 -59 -45 -65 -47 -85 -33 -171 122 -343 211 -453 233 -63 13 -97 14 -207 4
-228 -19 -351 -67 -466 -182 -68 -68 -147 -191 -173 -270 -9 -26 -24 -88 -33
-138 -16 -81 -17 -107 -6 -224 7 -73 19 -160 27 -192 19 -72 71 -185 113 -241
40 -55 180 -160 268 -200 104 -48 257 -78 364 -69 178 14 308 48 457 121 75
37 104 59 166 123 41 43 87 99 102 124 30 53 32 53 187 61 54 2 100 1 103 -4
13 -21 -15 -57 -55 -69 -50 -15 -80 -43 -80 -76 0 -40 29 -48 133 -36 51 6
123 13 161 17 78 7 119 34 109 73 -7 28 -23 39 -69 49 -39 8 -39 9 -36 52 2
36 11 52 48 92 53 57 83 118 84 169 0 43 42 104 216 320 60 75 150 194 199
265 107 155 224 310 258 342 l24 23 31 -63 c18 -35 47 -80 65 -102 28 -33 38
-38 73 -38 22 0 46 2 54 4 8 2 15 -4 17 -12 2 -10 -27 -30 -91 -63 -114 -58
-172 -103 -227 -177 -116 -155 -159 -319 -139 -527 12 -135 30 -204 79 -307
92 -195 261 -336 485 -400 156 -46 328 -30 502 44 130 55 167 78 253 154 76
66 117 120 171 223 27 53 34 81 43 173 7 80 7 128 -1 177 -6 38 -16 104 -23
148 -12 91 -60 245 -92 298 -23 37 -169 168 -230 206 -78 48 -307 101 -436
101 l-56 0 -28 74 c-44 117 -89 143 -202 116 -47 -11 -43 -15 -117 110 -49 83
-88 183 -88 227 0 18 7 23 38 29 83 14 169 33 193 43 32 12 73 59 105 122 31
63 30 84 -5 120 -33 33 -70 37 -114 14z m-533 -712 c-16 -21 -79 -112 -142
-203 -132 -193 -314 -439 -324 -440 -5 0 -8 25 -8 55 0 51 2 56 28 65 47 18
71 32 77 48 17 44 -107 99 -202 89 -67 -7 -100 -27 -111 -70 l-8 -32 -47 90
c-26 50 -47 95 -47 101 0 6 39 26 88 44 229 86 498 193 597 239 61 28 114 51
119 51 4 0 -4 -17 -20 -37z m-1562 -394 c145 -63 172 -79 190 -113 9 -16 6
-24 -14 -40 -14 -12 -72 -59 -129 -105 l-103 -84 -72 6 c-64 6 -75 4 -105 -16
-48 -32 -79 -91 -79 -152 0 -42 6 -59 40 -109 44 -64 41 -81 -13 -70 -41 8
-77 -18 -77 -57 0 -22 10 -41 35 -66 l36 -36 127 7 c487 24 473 25 432 -42
-41 -66 -252 -143 -435 -158 -156 -13 -312 42 -433 151 -38 35 -67 71 -80 103
-26 61 -53 219 -55 327 -2 75 1 85 40 167 30 62 57 102 95 138 62 60 192 148
281 191 88 43 135 37 319 -42z m2530 31 c218 -45 301 -127 363 -360 34 -128
40 -199 25 -306 -16 -126 -67 -222 -159 -298 -134 -112 -283 -154 -473 -135
-66 6 -99 16 -157 45 -129 66 -203 149 -257 289 -53 135 -33 344 47 512 22 46
54 99 71 119 31 35 122 94 146 94 22 0 129 -271 115 -293 -4 -7 -20 -29 -37
-50 -25 -31 -31 -49 -34 -100 -4 -59 -2 -66 29 -107 19 -24 54 -54 79 -67 39
-21 56 -24 125 -21 92 3 111 14 169 92 63 85 47 176 -49 271 -46 46 -53 61
-96 187 -25 76 -44 140 -41 143 9 8 29 6 134 -15z m-1852 -180 c33 -66 60
-122 60 -125 0 -3 -26 -5 -57 -3 l-57 3 -50 90 -49 89 38 33 c21 18 42 33 47
33 4 0 35 -54 68 -120z m273 13 c27 -5 28 -8 22 -47 -4 -22 -10 -45 -15 -49
-4 -5 -21 17 -39 47 -36 64 -37 71 -13 61 9 -3 30 -9 45 -12z m-635 -151 c2
-7 -7 -12 -23 -12 -24 0 -26 2 -15 15 14 17 31 16 38 -3z m1987 -139 c26 -88
52 -132 89 -150 83 -39 158 44 140 156 -8 52 0 52 26 0 27 -53 20 -86 -31
-138 -37 -39 -42 -41 -99 -41 -107 0 -180 59 -180 146 0 33 21 84 35 84 2 0
11 -26 20 -57z m-1565 38 c0 -18 -49 -61 -64 -55 -9 3 -16 9 -16 13 0 3 -3 16
-6 29 -6 20 -3 22 40 22 25 0 46 -4 46 -9z m-380 -24 c0 -9 -34 -12 -119 -12
-66 0 -118 2 -115 4 5 6 218 28 227 23 4 -2 7 -9 7 -15z m-6 -198 c6 -5 6 -23
0 -46 l-9 -38 -170 -6 c-93 -3 -201 -10 -239 -14 -64 -7 -69 -7 -63 9 4 10 7
26 7 37 0 37 73 62 200 69 130 7 260 2 274 -11z m366 -38 c15 -29 13 -31 -31
-31 -33 0 -40 3 -35 16 3 9 6 20 6 25 0 17 49 9 60 -10z"/>
</g>
</svg>
