<?xml version="1.0" standalone="no"?>
<!DOCTYPE svg PUBLIC "-//W3C//DTD SVG 20010904//EN"
 "http://www.w3.org/TR/2001/REC-SVG-20010904/DTD/svg10.dtd">
<svg version="1.0" xmlns="http://www.w3.org/2000/svg"
 width="355.000000pt" height="262.000000pt" viewBox="0 0 355.000000 262.000000"
 preserveAspectRatio="xMidYMid meet">
<metadata>
Created by potrace 1.16, written by Peter Selinger 2001-2019
</metadata>
<g transform="translate(0.000000,262.000000) scale(0.100000,-0.100000)"
fill="#000000" stroke="none">
<path d="M2400 2563 c-8 -3 -37 -19 -63 -35 -57 -36 -83 -78 -67 -108 14 -26
30 -25 89 5 l49 24 11 -31 c22 -63 4 -116 -64 -184 -46 -46 -46 -75 4 -234 22
-69 49 -163 61 -210 12 -47 44 -154 71 -237 27 -84 49 -154 49 -155 0 -2 -111
-3 -247 -3 -239 0 -299 -5 -603 -46 -99 -13 -293 -56 -352 -79 l-46 -17 -32
81 c-69 174 -277 789 -294 871 -6 27 -2 32 34 53 23 13 45 35 51 49 7 18 14
23 27 18 9 -4 36 -10 60 -12 51 -7 82 15 82 58 0 36 -36 64 -108 83 -31 9 -84
25 -117 37 -202 72 -310 82 -354 35 -45 -47 -31 -155 21 -175 13 -5 30 -16 37
-25 7 -9 19 -16 26 -16 21 0 94 -99 106 -144 33 -129 75 -263 110 -356 48
-124 179 -504 179 -516 0 -5 -25 -22 -55 -38 -30 -15 -104 -68 -164 -117
l-110 -88 -54 24 c-113 50 -210 51 -356 6 -120 -37 -188 -94 -254 -212 -59
-105 -81 -203 -74 -334 7 -164 26 -206 146 -326 91 -91 100 -98 171 -120 59
-19 98 -24 180 -24 100 0 109 2 174 34 50 24 94 58 158 122 50 49 98 89 107
89 9 0 27 7 40 16 19 13 22 22 17 48 -14 69 -17 66 81 106 l92 38 27 -29 c33
-35 120 -69 174 -69 91 0 208 71 262 159 13 19 28 61 34 91 8 42 15 56 30 58
10 2 60 14 109 28 76 21 98 23 140 15 69 -13 100 2 100 49 0 33 -4 37 -63 66
-156 77 -217 81 -238 14 -10 -29 -18 -36 -49 -44 -35 -8 -40 -7 -59 20 -11 16
-37 45 -58 65 l-38 36 63 89 c35 48 74 96 88 105 45 33 163 50 396 56 227 6
373 -5 439 -32 24 -10 35 -25 52 -70 12 -31 22 -63 22 -71 0 -8 -17 -38 -39
-67 -56 -76 -116 -192 -140 -271 -38 -123 -24 -218 52 -356 60 -110 107 -155
207 -202 118 -55 178 -64 280 -44 100 21 173 52 255 111 125 89 194 192 221
332 19 100 18 132 -7 205 -28 84 -79 160 -165 246 -57 57 -91 82 -161 115
l-88 42 -126 -1 -127 -2 -81 247 c-130 398 -157 508 -191 770 -11 84 -10 100
6 147 17 50 17 55 -1 119 -28 106 -74 143 -145 118z m-1466 -232 c8 -12 -67
-25 -94 -16 -11 3 -20 11 -20 16 0 12 107 12 114 0z m640 -1203 c-72 -119 -84
-132 -124 -144 l-42 -12 -19 41 c-29 66 -26 74 34 91 143 41 163 44 151 24z
m-347 -130 c31 -89 32 -92 14 -114 -17 -22 -19 -22 -33 -6 -14 15 -84 119
-102 149 -6 12 57 63 79 63 5 0 24 -41 42 -92z m-97 -113 c33 -55 60 -105 60
-112 0 -13 -54 -31 -108 -35 -33 -3 -34 -1 -57 59 -12 35 -35 79 -50 98 -15
20 -24 39 -21 42 3 3 27 21 53 39 34 23 50 29 56 21 4 -7 35 -57 67 -112z
m1956 69 c72 -34 182 -143 218 -217 31 -61 35 -144 11 -225 -43 -142 -275
-273 -432 -243 -84 16 -196 108 -238 198 -39 83 6 350 68 402 13 10 19 3 40
-44 83 -180 285 -337 295 -229 2 24 -9 50 -44 105 -42 65 -117 219 -126 258
-9 39 122 36 208 -5z m-2425 -31 c8 -8 1 -25 -29 -65 -22 -29 -47 -67 -55 -84
-13 -25 -25 -33 -55 -38 -29 -4 -50 -17 -81 -51 -36 -39 -41 -50 -41 -92 0
-57 31 -125 66 -143 13 -8 47 -14 74 -14 40 0 57 6 86 30 20 16 45 45 55 63
10 19 22 37 26 41 4 4 54 10 111 13 96 6 102 5 102 -13 0 -10 -10 -26 -21 -34
-19 -13 -25 -13 -50 0 -38 19 -55 18 -79 -6 -31 -31 -25 -65 22 -116 l43 -46
-57 -53 c-74 -69 -136 -98 -219 -103 -172 -10 -255 60 -330 277 -26 76 -26
201 2 261 44 98 96 140 208 171 73 21 202 22 222 2z m908 -57 c15 -18 4 -46
-18 -46 -9 0 -22 -5 -29 -12 -20 -20 -23 -2 -6 36 19 38 34 45 53 22z m-696
-104 c16 -29 27 -56 23 -59 -7 -8 -199 -33 -205 -28 -8 9 124 146 137 143 8
-2 28 -27 45 -56z m767 -79 c0 -17 -35 -83 -43 -83 -6 0 -57 75 -57 82 0 9 28
15 68 17 24 1 32 -3 32 -16z m-280 -33 c0 -18 -30 -70 -40 -70 -11 0 -30 33
-30 54 0 14 17 23 53 25 9 0 17 -4 17 -9z m-860 -26 c-21 -54 26 -85 100 -66
46 12 51 2 16 -33 -48 -48 -116 -42 -137 12 -16 41 -14 71 6 93 24 26 26 25
15 -6z m625 -14 c-47 -22 -68 -25 -63 -8 5 14 40 26 78 26 21 0 19 -2 -15 -18z
m373 -44 c-2 -12 -15 -25 -31 -30 -41 -15 -50 2 -30 52 l16 42 24 -22 c13 -12
23 -31 21 -42z"/>
</g>
</svg>
