<?xml version="1.0" standalone="no"?>
<!DOCTYPE svg PUBLIC "-//W3C//DTD SVG 20010904//EN"
 "http://www.w3.org/TR/2001/REC-SVG-20010904/DTD/svg10.dtd">
<svg version="1.0" xmlns="http://www.w3.org/2000/svg"
 width="342.000000pt" height="212.000000pt" viewBox="0 0 342.000000 212.000000"
 preserveAspectRatio="xMidYMid meet">
<metadata>
Created by potrace 1.16, written by Peter Selinger 2001-2019
</metadata>
<g transform="translate(0.000000,212.000000) scale(0.100000,-0.100000)"
fill="#000000" stroke="none">
<path d="M2665 2051 c-16 -10 -43 -32 -58 -49 -25 -26 -38 -31 -100 -37 -76
-8 -166 -45 -200 -83 -30 -33 -24 -74 20 -140 23 -34 43 -78 47 -103 8 -50 11
-46 -139 -161 -44 -34 -119 -95 -168 -135 -48 -40 -129 -100 -180 -134 -50
-34 -138 -98 -195 -141 -57 -44 -108 -78 -113 -76 -14 5 -100 203 -102 235 -2
21 5 28 49 44 130 49 222 201 168 278 -20 28 -72 51 -113 51 -17 0 -61 -12
-98 -26 -107 -41 -168 -38 -276 13 -95 46 -143 59 -183 49 -37 -10 -112 -82
-119 -117 -15 -68 37 -137 140 -185 69 -33 156 -122 199 -203 32 -63 90 -211
84 -217 -2 -1 -48 -14 -103 -28 -111 -28 -98 -32 -145 45 -36 59 -153 156
-235 194 -98 46 -228 85 -281 85 -50 0 -202 -48 -276 -88 -85 -45 -154 -157
-204 -330 -23 -83 -26 -106 -22 -220 3 -128 3 -129 45 -213 62 -126 138 -203
263 -270 41 -22 56 -24 175 -23 197 1 330 45 440 146 66 60 95 107 136 219 17
46 36 87 42 92 7 4 109 7 228 6 230 -2 247 1 268 48 6 13 11 38 11 56 1 34 30
154 43 174 4 6 101 83 215 171 114 88 270 212 347 276 77 64 143 116 146 116
7 0 79 -241 79 -264 0 -9 -4 -16 -10 -16 -5 0 -38 -27 -73 -60 -70 -65 -118
-153 -138 -251 -17 -86 -14 -306 5 -358 33 -88 138 -196 246 -250 91 -46 219
-84 280 -83 83 1 205 44 287 101 141 99 217 212 260 387 15 60 15 71 0 141
-21 95 -111 286 -163 343 -53 58 -98 85 -205 121 -79 26 -102 30 -168 26 -42
-2 -88 -8 -103 -12 -26 -7 -27 -5 -52 77 -14 46 -39 142 -56 213 -47 201 -52
214 -77 251 -12 19 -23 39 -23 44 0 19 91 11 121 -11 71 -50 147 -44 198 18
57 69 58 159 4 224 -48 57 -115 73 -168 40z m-1972 -1082 c105 -38 226 -128
215 -160 -2 -7 -44 -25 -93 -40 -91 -29 -124 -29 -177 -3 -95 48 -195 -56
-145 -153 23 -44 90 -100 136 -114 35 -10 44 -9 81 10 51 26 207 31 216 6 21
-53 -88 -184 -181 -218 -62 -22 -221 -43 -259 -33 -16 4 -57 35 -92 68 -75 71
-124 160 -124 222 0 23 23 109 50 192 58 172 77 199 176 239 67 28 80 27 197
-16z m2243 17 c88 -32 118 -63 172 -176 57 -118 63 -166 31 -257 -20 -57 -35
-80 -94 -139 -72 -72 -107 -94 -188 -116 -51 -13 -83 -8 -191 32 -68 26 -168
106 -186 149 -9 22 -11 68 -8 154 3 109 7 130 31 178 14 30 38 65 51 78 24 23
24 23 35 3 6 -12 24 -57 41 -101 62 -168 102 -221 167 -221 25 0 43 8 64 29
36 37 38 74 4 150 -38 87 -95 237 -95 250 0 20 96 12 166 -13z m-1527 -283 c7
-14 8 -30 4 -34 -12 -12 -216 -34 -238 -26 -9 4 -15 15 -13 24 2 13 27 23 98
39 126 29 134 29 149 -3z"/>
</g>
</svg>
