<?xml version="1.0" standalone="no"?>
<!DOCTYPE svg PUBLIC "-//W3C//DTD SVG 20010904//EN"
 "http://www.w3.org/TR/2001/REC-SVG-20010904/DTD/svg10.dtd">
<svg version="1.0" xmlns="http://www.w3.org/2000/svg"
 width="413.000000pt" height="269.000000pt" viewBox="0 0 413.000000 269.000000"
 preserveAspectRatio="xMidYMid meet">
<metadata>
Created by potrace 1.16, written by Peter Selinger 2001-2019
</metadata>
<g transform="translate(0.000000,269.000000) scale(0.100000,-0.100000)"
fill="#000000" stroke="none">
<path d="M3297 2618 c-9 -7 -24 -35 -34 -63 -27 -74 -74 -105 -219 -143 -66
-17 -153 -36 -194 -43 -93 -14 -137 -33 -155 -70 -20 -37 -19 -55 6 -145 11
-41 18 -81 15 -89 -2 -7 -20 -16 -38 -20 -18 -4 -74 -20 -125 -36 -144 -44
-758 -113 -774 -87 -13 20 -31 140 -22 148 8 7 86 24 155 35 22 4 44 15 53 28
17 24 20 63 6 71 -14 9 -237 72 -318 90 -92 21 -224 21 -263 1 -37 -19 -60
-52 -60 -87 0 -50 86 -125 169 -147 18 -5 30 -25 56 -91 18 -47 35 -92 39
-101 5 -12 -36 -64 -149 -190 -86 -96 -163 -175 -170 -177 -16 -4 -112 56
-169 104 -70 60 -200 86 -325 65 -121 -20 -351 -134 -437 -218 -59 -56 -237
-328 -260 -394 -14 -43 -18 -87 -18 -209 -1 -213 19 -279 135 -460 53 -83 110
-142 211 -217 106 -81 167 -105 273 -110 80 -4 103 -1 213 31 148 42 256 88
337 141 83 55 237 205 286 279 l41 61 101 6 c71 3 129 14 191 33 82 26 96 34
162 97 l73 69 65 0 66 0 0 -44 c0 -58 8 -76 36 -87 53 -20 78 11 135 164 36
96 37 136 6 165 -40 38 -91 21 -122 -39 -15 -28 -18 -29 -85 -29 l-70 0 0 34
c0 29 14 50 91 138 51 57 195 232 321 390 126 157 235 289 242 291 9 4 20 -21
35 -79 11 -47 21 -93 21 -102 0 -10 -25 -42 -56 -72 -64 -63 -123 -149 -182
-266 -66 -131 -74 -179 -70 -400 l3 -191 48 -96 c129 -261 281 -389 503 -425
303 -49 682 98 858 332 116 155 136 207 136 356 0 202 -106 466 -257 639 -86
99 -307 228 -427 250 -87 16 -218 13 -297 -6 -38 -9 -71 -14 -73 -12 -3 2 -25
83 -50 179 -25 96 -54 202 -66 235 -23 67 -21 85 12 85 13 1 39 7 58 15 208
82 274 93 335 55 40 -25 50 -59 31 -104 -17 -41 -86 -76 -151 -76 -53 0 -65
-14 -68 -79 -3 -72 14 -86 106 -86 61 0 79 4 119 27 83 49 148 148 148 227 0
14 4 32 8 38 13 20 68 -33 106 -101 l34 -59 7 31 c3 18 11 32 17 32 7 0 9 22
5 67 -8 79 -22 103 -132 222 -51 55 -86 104 -105 146 -16 35 -38 68 -49 74
-26 15 -63 14 -84 -1z m-970 -1080 c-269 -338 -325 -403 -344 -403 -13 0 -25
27 -50 115 -51 179 -105 417 -101 447 l3 28 130 7 c132 8 536 55 545 64 2 3 6
1 8 -5 2 -5 -84 -119 -191 -253z m-677 110 c0 -2 23 -113 50 -247 28 -134 50
-248 50 -253 0 -9 -127 -11 -183 -1 -33 5 -41 12 -64 56 -14 28 -41 74 -60
103 -22 34 -33 60 -29 70 14 37 236 292 236 272z m1645 -139 c120 -16 146 -25
231 -80 97 -62 135 -98 184 -169 127 -186 193 -432 146 -545 -24 -56 -103
-161 -159 -211 -98 -86 -293 -164 -447 -179 -78 -7 -185 8 -252 37 -87 37
-221 206 -264 331 -13 38 -15 79 -12 205 l3 157 42 85 c49 102 120 210 137
210 7 0 27 -37 46 -82 18 -46 53 -127 78 -181 39 -85 44 -101 34 -123 -31 -67
1 -153 76 -211 61 -46 121 -46 188 0 68 47 102 99 110 169 l7 56 -49 52 c-27
29 -78 67 -117 88 l-70 37 -63 160 c-45 115 -60 163 -53 172 10 11 71 29 109
32 8 1 51 -4 95 -10z m-2364 -52 c44 -14 198 -108 199 -121 0 -5 -35 -47 -77
-95 -88 -98 -95 -102 -237 -98 -78 2 -90 0 -100 -17 -6 -11 -30 -41 -53 -67
-60 -69 -74 -127 -52 -215 14 -53 80 -118 141 -136 22 -6 42 -18 45 -25 3 -7
-2 -34 -11 -60 -32 -92 -13 -173 40 -173 18 0 44 20 92 70 l67 70 169 0 168 0
-14 -23 c-29 -44 -183 -167 -252 -201 -83 -41 -301 -106 -354 -106 -50 0 -117
34 -201 100 -175 138 -258 338 -234 560 l11 92 97 145 c102 152 130 179 240
236 73 37 197 76 245 76 19 0 51 -6 71 -12z m357 -284 c14 -23 14 -23 -32 -23
l-47 0 18 25 c21 29 40 28 61 -2z m84 -168 c6 -14 9 -27 6 -30 -3 -3 -47 -1
-99 5 -52 5 -120 10 -151 10 -32 0 -58 4 -58 8 0 26 30 32 157 32 133 0 133 0
145 -25z m337 9 c2 -2 -4 -15 -13 -29 -32 -49 -106 -28 -106 30 0 15 7 16 58
10 31 -4 59 -9 61 -11z m1618 -50 c47 -36 44 -67 -12 -121 -26 -25 -55 -43
-68 -43 -30 0 -64 25 -82 61 -16 29 -9 39 12 18 6 -6 29 -15 51 -19 39 -7 40
-6 46 23 3 16 6 47 6 68 0 22 3 39 7 39 3 0 21 -11 40 -26z m-2064 -158 c76
-7 140 -16 143 -19 4 -3 3 -22 0 -42 l-7 -35 -210 0 c-160 0 -218 -3 -244 -14
-33 -14 -35 -14 -35 4 0 10 13 28 30 40 16 11 37 34 47 50 16 28 21 30 78 30
33 -1 122 -7 198 -14z m485 -48 c23 -18 42 -35 42 -39 0 -12 -43 -19 -112 -19
l-68 0 0 38 c0 48 4 52 55 52 31 0 52 -8 83 -32z"/>
</g>
</svg>
