<?xml version="1.0" standalone="no"?>
<!DOCTYPE svg PUBLIC "-//W3C//DTD SVG 20010904//EN"
 "http://www.w3.org/TR/2001/REC-SVG-20010904/DTD/svg10.dtd">
<svg version="1.0" xmlns="http://www.w3.org/2000/svg"
 width="392.000000pt" height="238.000000pt" viewBox="0 0 392.000000 238.000000"
 preserveAspectRatio="xMidYMid meet">
<metadata>
Created by potrace 1.16, written by Peter Selinger 2001-2019
</metadata>
<g transform="translate(0.000000,238.000000) scale(0.100000,-0.100000)"
fill="#000000" stroke="none">
<path d="M1063 2310 c-13 -11 -23 -32 -23 -45 0 -31 23 -46 130 -85 47 -17 93
-37 103 -44 12 -10 28 -56 48 -142 29 -127 29 -128 9 -146 -30 -28 -23 -50 20
-66 21 -8 32 -31 73 -154 26 -79 47 -147 47 -150 0 -4 -15 -16 -34 -27 l-34
-22 -86 56 c-118 77 -151 90 -311 120 -161 31 -212 30 -350 -10 -266 -77 -473
-273 -568 -538 -79 -221 -22 -477 152 -679 59 -68 237 -208 320 -252 104 -54
177 -70 318 -69 106 1 139 6 235 33 195 55 321 136 402 259 l48 71 54 0 c45 0
54 -3 53 -17 -1 -36 -15 -53 -59 -75 -37 -19 -46 -28 -48 -55 -3 -25 2 -35 22
-48 22 -15 43 -16 180 -8 174 10 196 19 196 79 0 49 -37 74 -112 74 -55 0 -59
1 -56 22 2 17 14 24 63 35 105 24 160 68 216 173 20 38 24 60 24 137 l1 91 49
64 c27 35 108 137 180 228 72 91 165 212 206 269 183 255 189 261 208 187 6
-25 11 -49 11 -54 0 -5 -37 -37 -83 -70 -130 -94 -203 -195 -263 -363 -35 -98
-37 -111 -38 -229 -1 -153 15 -221 89 -377 64 -135 93 -174 160 -219 73 -50
287 -131 365 -139 135 -14 391 47 518 122 147 87 294 280 346 453 35 116 30
317 -10 436 -57 170 -132 258 -314 367 -219 130 -433 167 -571 97 -22 -12 -43
-19 -46 -16 -12 12 -93 334 -91 361 l3 30 122 3 c95 3 128 0 151 -12 41 -21
46 -32 32 -67 -15 -36 -48 -55 -115 -64 -28 -4 -53 -13 -57 -19 -13 -19 -9
-75 7 -106 15 -29 18 -30 83 -30 83 0 136 23 183 79 39 45 59 98 59 157 0 56
20 30 40 -53 l16 -68 19 29 c23 35 25 111 4 151 -9 17 -37 64 -63 106 -28 47
-46 88 -46 107 0 64 -44 132 -85 132 -28 0 -55 -30 -55 -60 0 -29 -33 -83 -63
-102 -14 -10 -66 -17 -152 -22 -166 -9 -210 -18 -241 -47 -22 -20 -25 -31 -22
-74 l3 -49 -135 -13 c-74 -8 -216 -27 -315 -43 -99 -16 -246 -38 -326 -49 -80
-12 -181 -30 -224 -41 -107 -27 -109 -27 -102 15 5 28 2 38 -15 49 -30 21 -98
206 -98 265 0 5 45 23 99 40 55 17 107 38 115 47 19 19 21 60 4 71 -7 4 -98 9
-203 9 -104 1 -226 4 -270 8 -73 7 -82 6 -102 -14z m1427 -631 c-56 -61 -157
-178 -225 -259 l-123 -147 -59 -6 c-123 -13 -198 -28 -215 -44 -25 -22 -23
-68 3 -87 l22 -15 -23 -56 c-15 -38 -26 -52 -31 -43 -4 7 -30 78 -57 158 -28
80 -74 206 -102 280 -29 74 -54 142 -57 151 -5 19 6 22 242 66 161 30 669 111
703 112 19 1 5 -19 -78 -110z m780 -258 c153 -48 328 -177 369 -270 56 -130
69 -315 31 -427 -50 -144 -165 -288 -278 -347 -120 -63 -335 -108 -424 -88
-48 11 -179 61 -240 92 -74 38 -157 178 -179 305 -21 123 23 327 104 474 42
76 143 188 157 173 4 -4 25 -51 45 -103 21 -52 55 -132 76 -178 l38 -83 -24
-46 c-43 -79 -24 -166 48 -230 83 -72 165 -66 241 18 89 99 80 203 -26 279
-22 16 -55 32 -74 36 -18 3 -37 11 -42 18 -26 35 -139 363 -128 373 3 3 29 12
58 19 67 17 164 11 248 -15z m-2287 -5 c104 -20 139 -31 192 -62 36 -21 65
-43 65 -49 0 -5 -22 -26 -47 -45 -26 -19 -93 -79 -150 -134 l-104 -99 -39 18
c-61 27 -102 15 -170 -53 -66 -67 -87 -122 -69 -188 16 -55 75 -109 138 -124
76 -18 95 -68 41 -108 -23 -17 -30 -30 -30 -56 0 -41 13 -52 65 -59 22 -3 67
-12 100 -21 33 -9 121 -19 194 -23 l135 -6 -48 -44 c-68 -61 -119 -88 -211
-113 -156 -41 -275 -37 -389 14 -61 28 -246 175 -304 242 -51 59 -115 181
-131 249 -39 158 5 294 143 442 96 103 229 187 358 224 83 23 110 23 261 -5z
m569 -163 c23 -40 96 -226 107 -273 7 -30 5 -42 -6 -51 -20 -17 -27 -5 -53 91
-13 47 -36 115 -52 152 -28 66 -36 108 -20 108 4 0 15 -12 24 -27z m-150 -224
c29 -102 34 -139 17 -139 -5 0 -41 7 -80 16 -38 9 -99 19 -136 22 l-66 7 107
98 c59 54 113 96 119 94 7 -2 24 -46 39 -98z m608 91 c0 -5 -4 -10 -10 -10 -5
0 -10 5 -10 10 0 6 5 10 10 10 6 0 10 -4 10 -10z m1214 -252 c25 -44 16 -81
-30 -125 -41 -38 -79 -43 -126 -15 -49 28 -81 106 -59 141 7 11 17 2 41 -37
30 -48 34 -52 71 -52 50 0 57 16 35 84 -9 29 -16 58 -16 65 0 22 63 -24 84
-61z m-2384 41 c-16 -28 8 -62 60 -85 37 -17 39 -19 23 -36 -26 -29 -68 -23
-97 15 -30 39 -33 73 -10 105 19 28 39 29 24 1z m860 -134 c0 -8 -9 -15 -20
-15 -20 0 -26 11 -13 23 12 13 33 7 33 -8z m-432 -49 l157 -31 -2 -38 c-2 -21
-11 -58 -22 -83 l-20 -44 -153 1 c-84 0 -175 4 -203 7 l-50 7 4 70 c2 46 8 73
17 78 8 4 23 26 34 47 19 37 21 39 51 28 17 -6 101 -25 187 -42z m716 18 c14
-36 7 -47 -26 -40 -43 8 -45 12 -17 35 29 25 35 25 43 5z m-261 -111 c9 -5
-31 -53 -43 -53 -8 0 -30 46 -30 61 0 10 53 4 73 -8z m183 -42 c22 -18 23 -19
5 -35 -31 -28 -51 -20 -51 19 0 39 11 43 46 16z"/>
</g>
</svg>
