<?xml version="1.0" standalone="no"?>
<!DOCTYPE svg PUBLIC "-//W3C//DTD SVG 20010904//EN"
 "http://www.w3.org/TR/2001/REC-SVG-20010904/DTD/svg10.dtd">
<svg version="1.0" xmlns="http://www.w3.org/2000/svg"
 width="441.000000pt" height="271.000000pt" viewBox="0 0 441.000000 271.000000"
 preserveAspectRatio="xMidYMid meet">
<metadata>
Created by potrace 1.16, written by Peter Selinger 2001-2019
</metadata>
<g transform="translate(0.000000,271.000000) scale(0.100000,-0.100000)"
fill="#000000" stroke="none">
<path d="M2776 2638 c-37 -52 -15 -100 56 -124 l52 -17 -67 -33 c-95 -48 -100
-64 -63 -198 17 -59 13 -75 -18 -76 -5 0 -46 -21 -90 -47 -122 -72 -313 -226
-520 -420 l-110 -103 -142 0 c-79 0 -154 4 -167 9 -21 8 -27 22 -41 83 -9 40
-15 102 -14 138 l3 65 -35 11 c-32 10 -38 18 -62 85 -15 41 -27 79 -27 85 -1
16 37 29 154 54 54 11 107 28 117 37 24 22 23 56 -3 79 -18 16 -43 20 -178 26
-99 4 -174 12 -205 22 -64 21 -226 22 -265 1 -16 -8 -31 -22 -35 -30 -29 -76
26 -137 160 -178 49 -15 99 -27 111 -27 17 0 24 -8 32 -37 37 -141 40 -158 31
-167 -19 -19 -11 -65 15 -88 19 -18 30 -48 50 -137 14 -62 34 -145 46 -183 11
-39 18 -72 16 -74 -3 -3 -27 24 -55 58 -93 118 -187 194 -302 244 -64 28 -69
29 -245 29 -264 0 -379 -32 -552 -154 -116 -82 -273 -279 -313 -394 -72 -204
-72 -468 -1 -658 23 -61 123 -192 204 -266 67 -61 197 -127 301 -153 187 -47
530 -4 691 86 82 46 262 232 341 352 4 6 145 25 150 20 9 -10 -16 -59 -33 -65
-53 -19 -70 -74 -33 -108 18 -16 33 -17 144 -12 156 7 196 25 196 86 0 25 -33
52 -72 60 -29 6 -33 10 -29 36 5 45 17 61 62 87 55 31 68 60 76 170 l6 93 79
85 c116 125 198 245 289 425 45 88 106 197 135 241 54 82 197 234 220 234 7 0
24 -20 38 -45 29 -48 46 -60 108 -78 41 -12 49 -24 77 -125 9 -32 9 -33 -86
-109 -146 -117 -213 -221 -259 -400 -24 -91 -25 -111 -22 -283 5 -206 26 -314
77 -389 58 -87 283 -260 424 -326 102 -49 202 -66 392 -68 l160 -2 95 46 c235
114 417 328 481 569 33 123 34 354 2 455 -39 121 -107 229 -213 335 -84 85
-107 102 -200 147 -185 91 -337 118 -515 93 -145 -21 -131 -27 -170 70 -35 84
-71 130 -103 130 -9 0 -34 5 -54 10 -35 10 -37 14 -49 68 -6 31 -33 120 -60
197 l-49 140 22 17 c13 10 46 29 73 42 64 31 86 55 95 108 11 56 6 63 -48 86
-42 18 -242 82 -255 82 -3 0 -13 -10 -21 -22z m21 -615 c3 -7 -22 -25 -54 -42
-153 -76 -257 -200 -380 -448 -46 -95 -103 -201 -125 -235 -56 -86 -167 -228
-179 -228 -6 0 -9 22 -7 52 3 50 4 52 38 60 68 17 92 80 44 117 -22 18 -41 21
-111 21 -110 0 -143 -16 -143 -72 0 -18 10 -34 29 -50 29 -23 29 -23 17 -72
-10 -40 -18 -52 -40 -59 -16 -5 -31 -5 -36 -1 -8 10 -70 226 -70 247 0 8 35
30 78 50 42 20 104 54 137 76 55 36 100 73 335 278 108 93 296 238 371 284 64
39 89 45 96 22z m-1703 -495 c33 -11 94 -43 135 -71 76 -52 171 -140 171 -158
0 -6 -46 -32 -103 -58 -106 -50 -203 -107 -294 -173 -51 -37 -54 -38 -97 -27
-58 14 -105 0 -145 -46 -57 -65 -54 -150 8 -215 36 -38 41 -40 99 -40 40 0 62
-4 62 -11 0 -7 -18 -31 -40 -55 -34 -37 -40 -50 -40 -87 0 -35 6 -49 31 -73
36 -34 40 -35 307 -15 101 7 186 10 190 6 13 -13 -125 -133 -190 -163 -127
-61 -450 -88 -568 -48 -129 43 -248 141 -335 275 -84 129 -78 415 12 600 37
77 207 247 296 296 164 90 350 114 501 63z m2555 -14 c165 -40 293 -129 388
-269 91 -136 123 -230 123 -365 0 -200 -84 -370 -248 -505 -83 -70 -185 -121
-254 -130 -47 -6 -216 12 -298 32 -69 16 -243 124 -366 227 -87 73 -121 190
-111 381 7 117 30 259 52 311 7 18 30 51 51 74 38 42 147 125 172 132 9 2 34
-54 76 -172 l62 -175 -23 -45 c-34 -67 -48 -146 -34 -196 27 -100 109 -174
191 -174 129 1 240 118 240 254 0 109 -63 177 -192 206 l-56 13 -21 83 c-12
46 -37 127 -56 181 -19 54 -35 101 -35 104 0 10 49 28 100 38 73 14 169 12
239 -5z m-1820 -10 c7 -6 -91 -44 -100 -38 -5 3 -9 16 -9 29 0 23 2 24 53 18
28 -3 54 -7 56 -9z m-335 -374 c28 -71 31 -70 -111 -70 -102 0 -125 3 -115 13
15 14 181 95 198 96 7 1 19 -17 28 -39z m2042 -136 c97 -46 101 -161 7 -245
-78 -70 -158 -58 -207 30 -28 52 -33 101 -15 164 16 58 33 35 25 -35 -7 -55
-6 -60 22 -88 40 -40 73 -46 119 -23 45 22 78 81 68 120 -3 14 -23 41 -43 60
-39 36 -30 42 24 17z m-2008 -46 c3 -26 2 -26 -71 -33 -109 -10 -419 -11 -442
-2 -19 8 -19 9 6 22 23 12 82 20 294 39 22 1 78 3 125 2 84 -1 85 -1 88 -28z
m-650 -78 c7 -11 27 -26 45 -34 l32 -14 -32 -1 c-23 -1 -37 6 -52 25 -12 15
-21 31 -21 35 0 16 15 10 28 -11z m667 -81 c7 -22 -29 -117 -57 -151 -22 -27
-28 -28 -223 -48 -110 -12 -209 -23 -220 -25 -12 -3 -31 5 -47 20 l-28 24 26
48 c21 39 24 56 20 95 -4 28 -2 48 4 50 6 2 125 3 265 3 229 1 256 -1 260 -16z
m-665 -5 l35 -14 -35 5 c-19 3 -39 10 -44 15 -14 14 2 12 44 -6z m889 -145
c-16 -10 -53 -12 -62 -3 -3 4 -2 15 4 25 9 18 12 18 41 3 24 -12 28 -18 17
-25z"/>
</g>
</svg>
