<?xml version="1.0" standalone="no"?>
<!DOCTYPE svg PUBLIC "-//W3C//DTD SVG 20010904//EN"
 "http://www.w3.org/TR/2001/REC-SVG-20010904/DTD/svg10.dtd">
<svg version="1.0" xmlns="http://www.w3.org/2000/svg"
 width="438.000000pt" height="279.000000pt" viewBox="0 0 438.000000 279.000000"
 preserveAspectRatio="xMidYMid meet">
<metadata>
Created by potrace 1.16, written by Peter Selinger 2001-2019
</metadata>
<g transform="translate(0.000000,279.000000) scale(0.100000,-0.100000)"
fill="#000000" stroke="none">
<path d="M2852 2724 c-31 -21 -30 -80 3 -128 14 -20 25 -40 25 -44 0 -4 -20
-28 -45 -52 -65 -64 -77 -95 -66 -173 5 -35 19 -83 31 -106 11 -23 20 -49 18
-57 -2 -10 -57 -33 -148 -63 -301 -99 -581 -219 -858 -368 -50 -27 -54 -27
-66 -10 -11 14 -11 24 -3 48 15 38 2 60 -41 71 -18 5 -32 10 -32 12 0 28 -72
230 -105 297 -45 89 -54 119 -35 119 5 0 29 17 51 38 40 36 45 37 114 37 87 0
115 18 115 72 0 40 -35 77 -81 87 -51 10 -254 7 -309 -5 -41 -9 -59 -8 -97 5
-63 22 -105 20 -137 -5 -39 -31 -36 -81 7 -122 53 -50 117 -93 176 -119 l53
-23 64 -193 c35 -105 67 -200 73 -210 6 -12 5 -25 -5 -42 -20 -36 -17 -48 15
-78 16 -15 32 -41 36 -59 6 -30 4 -33 -31 -48 -21 -8 -59 -29 -86 -45 -27 -17
-53 -30 -58 -30 -5 0 -33 18 -62 41 -67 51 -215 123 -294 143 -78 20 -158 20
-282 0 -166 -26 -279 -71 -407 -162 -135 -95 -236 -219 -286 -351 -22 -59 -43
-238 -42 -366 2 -194 128 -432 296 -559 119 -89 353 -193 492 -217 54 -9 77
-8 142 6 107 24 278 89 338 129 116 78 239 205 300 311 10 17 19 17 145 5 219
-21 266 -19 330 12 53 27 56 27 73 9 18 -17 18 -20 2 -50 -15 -30 -15 -35 -1
-56 21 -31 65 -40 195 -38 127 1 156 16 156 79 0 35 -4 41 -35 56 -19 10 -54
18 -78 18 -35 0 -52 7 -100 46 -31 26 -61 50 -66 54 -4 5 0 29 9 54 13 34 16
61 12 105 -8 71 -38 24 300 454 51 65 154 210 230 322 75 113 140 205 144 205
9 0 24 -47 39 -123 l11 -57 -33 -27 c-119 -97 -246 -289 -293 -443 -26 -85
-31 -261 -11 -352 30 -135 118 -291 223 -394 141 -138 445 -257 608 -238 101
12 353 87 440 131 71 36 140 100 211 196 167 223 211 386 180 653 -35 299
-118 415 -397 559 -186 96 -251 116 -384 122 -132 6 -196 -5 -295 -52 -39 -19
-76 -35 -81 -35 -14 0 -43 72 -111 275 -33 99 -80 219 -104 267 -24 48 -44 95
-44 103 0 9 22 40 48 68 95 101 99 120 51 216 -42 83 -96 111 -147 75z m-1312
-374 c0 -11 -82 -50 -105 -50 -20 0 -40 39 -23 45 50 16 128 19 128 5z m1310
-366 c0 -11 -71 -124 -78 -124 -4 0 -25 7 -47 15 -22 8 -58 14 -79 15 -47 0
-56 -9 -214 -215 -105 -137 -224 -288 -309 -394 -55 -68 -56 -95 -3 -156 44
-51 50 -83 20 -110 -18 -17 -21 -16 -74 6 l-56 22 -26 79 c-14 44 -53 145 -85
226 -32 80 -59 153 -59 161 0 10 46 40 123 80 67 35 165 88 217 117 52 29 178
89 280 132 102 44 219 96 260 115 68 32 130 47 130 31z m770 -375 c102 -23
348 -157 412 -225 90 -96 146 -392 104 -549 -33 -126 -167 -326 -258 -388 -93
-63 -329 -137 -435 -137 -98 0 -337 101 -425 179 -56 50 -129 157 -166 243
-24 57 -27 75 -26 188 0 145 12 187 91 322 44 75 161 208 183 208 5 0 31 -44
58 -97 26 -54 72 -135 101 -181 49 -76 52 -84 38 -100 -29 -32 -59 -114 -59
-162 0 -53 18 -93 59 -131 53 -50 92 -64 178 -64 67 0 88 5 130 27 60 32 99
70 119 120 20 47 20 118 1 165 -17 41 -97 131 -134 152 -24 13 -99 11 -148 -4
-18 -6 -27 1 -53 42 -39 61 -160 303 -160 320 0 50 268 100 390 72z m-2532
-69 c97 -39 187 -90 187 -107 0 -6 -45 -45 -100 -87 -55 -42 -130 -104 -168
-137 -63 -56 -73 -62 -130 -69 -89 -11 -142 -36 -187 -87 -85 -97 -80 -195 14
-281 63 -58 105 -74 193 -74 40 0 73 -2 73 -5 0 -2 -11 -19 -25 -37 -25 -32
-32 -70 -17 -92 18 -28 55 -32 270 -32 123 0 226 -3 230 -7 4 -4 -36 -48 -88
-99 -109 -106 -171 -140 -321 -181 -133 -35 -175 -33 -322 18 -147 52 -187 74
-285 159 -93 79 -141 151 -178 264 -27 82 -29 101 -29 234 0 128 3 151 23 199
82 194 305 373 544 437 125 33 203 29 316 -16z m591 -110 c10 -25 48 -123 84
-218 37 -95 67 -178 67 -184 0 -6 -11 -1 -25 12 -19 18 -24 31 -20 50 7 34
-20 59 -81 75 -45 11 -48 14 -69 72 -12 34 -38 84 -58 112 -21 28 -37 53 -37
56 0 11 95 75 108 73 8 -2 22 -23 31 -48z m-200 -221 l31 -56 -25 -17 c-25
-16 -32 -49 -17 -73 4 -7 26 -19 47 -26 22 -8 40 -20 40 -28 0 -12 -40 -14
-225 -17 l-225 -2 -13 32 c-11 30 -10 35 15 59 16 15 88 72 162 128 l134 102
23 -23 c12 -13 36 -48 53 -79z m-727 -175 c-46 -39 -68 -95 -59 -151 4 -20 2
-31 -4 -28 -14 9 -11 93 5 124 14 27 80 91 93 91 4 0 -12 -16 -35 -36z m2864
1 c59 -63 54 -146 -11 -204 -103 -90 -255 -22 -255 114 0 58 24 56 83 -7 29
-30 65 -63 81 -74 28 -17 29 -17 42 1 22 30 17 52 -31 126 -25 38 -45 72 -45
74 0 3 23 5 51 5 46 0 55 -4 85 -35z m-2776 -15 c0 -6 -12 -33 -26 -60 -23
-44 -24 -53 -14 -85 13 -38 36 -56 89 -64 39 -7 42 -23 6 -33 -35 -9 -97 8
-117 32 -28 34 -39 90 -28 132 14 48 90 114 90 78z m929 -105 c20 -19 -15 -75
-46 -75 -20 0 -23 5 -23 43 0 24 3 47 7 50 9 9 44 -1 62 -18z m-211 -22 c3
-30 1 -33 -25 -33 -43 0 -355 39 -378 48 -23 8 160 19 305 18 l95 -1 3 -32z
m495 1 c3 -4 2 -15 -4 -26 -10 -19 -12 -19 -30 -2 -10 9 -19 21 -19 26 0 9 44
11 53 2z m-126 -83 c13 -22 8 -31 -19 -31 -19 0 -22 8 -12 34 8 21 17 20 31
-3z m-666 -81 c89 -22 179 -40 200 -40 21 0 40 -4 44 -10 3 -5 -5 -31 -17 -57
l-23 -48 -70 1 c-104 2 -315 20 -323 28 -4 4 -9 43 -11 87 -3 74 -2 79 17 79
12 0 94 -18 183 -40z m-319 4 c-20 -9 -43 -12 -60 -7 l-27 7 35 7 c19 3 46 7
60 7 23 0 22 -1 -8 -14z m998 -64 c0 -25 -17 -35 -35 -20 -20 17 -19 38 3 43
24 5 32 -1 32 -23z m-223 -8 c10 -6 41 -48 67 -89 5 -10 -10 -13 -63 -13 -79
0 -80 1 -60 73 10 37 29 46 56 29z m322 -26 c9 -11 8 -15 -5 -20 -23 -9 -24
-8 -24 14 0 23 13 26 29 6z"/>
</g>
</svg>
