<?xml version="1.0" standalone="no"?>
<!DOCTYPE svg PUBLIC "-//W3C//DTD SVG 20010904//EN"
 "http://www.w3.org/TR/2001/REC-SVG-20010904/DTD/svg10.dtd">
<svg version="1.0" xmlns="http://www.w3.org/2000/svg"
 width="656.000000pt" height="249.000000pt" viewBox="0 0 656.000000 249.000000"
 preserveAspectRatio="xMidYMid meet">
<metadata>
Created by potrace 1.16, written by Peter Selinger 2001-2019
</metadata>
<g transform="translate(0.000000,249.000000) scale(0.100000,-0.100000)"
fill="#000000" stroke="none">
<path d="M2747 2419 c-8 -11 -12 -29 -10 -40 7 -25 59 -69 84 -69 30 0 23 -16
-41 -92 -33 -40 -60 -80 -60 -89 0 -10 10 -29 23 -43 18 -20 54 -32 187 -65
91 -22 192 -45 225 -51 125 -24 221 -52 238 -71 10 -10 28 -19 41 -19 20 0 24
-9 40 -76 10 -42 14 -79 10 -84 -9 -8 -57 -16 -354 -56 -102 -13 -239 -36
-305 -49 -66 -13 -205 -40 -310 -60 -104 -20 -257 -54 -338 -77 -84 -23 -152
-37 -156 -32 -5 5 -25 66 -46 136 -27 92 -35 131 -27 141 7 8 7 27 1 59 -8 36
-15 47 -32 50 -16 2 -26 18 -43 68 -12 36 -19 68 -15 71 3 3 47 12 96 18 118
16 159 35 163 78 2 23 -2 34 -15 41 -10 5 -92 12 -183 14 -157 5 -171 7 -285
43 -162 51 -175 53 -229 21 -49 -28 -60 -53 -44 -98 21 -60 211 -153 298 -146
34 3 35 1 54 -51 13 -35 16 -56 9 -58 -5 -2 -18 -10 -28 -17 -16 -11 -16 -17
-5 -52 16 -49 28 -64 51 -64 11 0 19 -1 19 -3 0 -1 4 -17 9 -34 l9 -33 -82
-49 c-46 -28 -90 -53 -98 -56 -11 -4 -39 15 -84 55 -84 76 -176 132 -296 177
-80 31 -108 36 -205 40 -224 10 -393 -37 -584 -163 -86 -57 -184 -154 -236
-233 -59 -91 -123 -286 -130 -401 -7 -103 11 -265 37 -333 63 -166 234 -353
395 -435 70 -35 238 -89 310 -100 122 -19 250 -1 385 53 63 25 138 57 165 72
108 56 243 176 291 259 l25 42 124 7 c86 5 143 4 187 -5 49 -10 79 -10 129 -1
79 13 149 14 169 1 12 -8 12 -11 -3 -28 -23 -25 -22 -65 3 -87 17 -16 34 -17
147 -13 71 3 140 10 156 17 38 15 54 58 34 93 -8 14 -12 29 -9 33 4 3 189 3
412 0 223 -3 525 -2 671 2 231 7 269 11 293 27 27 17 28 17 52 -5 21 -20 22
-24 9 -39 -16 -18 -20 -58 -7 -76 17 -26 55 -34 154 -33 119 0 166 13 187 51
32 56 -29 103 -118 91 -36 -5 -44 -1 -103 48 -34 29 -62 60 -61 68 1 9 8 34
17 56 8 22 15 53 16 69 0 49 133 207 410 491 102 105 241 250 309 323 68 72
129 132 135 132 11 0 57 -85 92 -167 l14 -32 -63 -43 c-103 -70 -172 -150
-228 -264 -52 -107 -69 -169 -93 -329 -32 -221 21 -398 180 -601 104 -134 218
-209 353 -234 33 -6 80 -17 102 -25 87 -31 165 -37 263 -20 201 34 327 78 500
175 154 86 250 191 309 340 30 77 82 282 92 362 8 70 -9 167 -40 228 -31 61
-155 220 -230 295 -99 99 -267 173 -500 220 -165 34 -261 31 -439 -11 -80 -19
-83 -18 -112 65 -45 130 -71 196 -117 294 -28 59 -47 110 -44 113 3 4 50 20
104 35 104 32 133 50 133 84 0 27 -16 41 -106 94 -72 42 -101 49 -135 31 -34
-19 -20 -89 21 -103 19 -6 11 -9 -95 -32 -44 -10 -88 -24 -97 -33 -25 -21 -22
-63 8 -138 14 -36 24 -68 21 -71 -3 -2 -56 -15 -118 -29 -61 -13 -187 -44
-280 -69 -92 -24 -272 -63 -401 -86 -128 -22 -260 -47 -293 -55 -33 -7 -68
-14 -77 -14 -25 0 -71 105 -69 160 1 39 -3 49 -29 70 -16 14 -33 39 -36 56
l-6 31 98 6 c156 11 237 63 176 114 -23 20 -39 23 -109 23 -98 0 -249 28 -387
71 -113 35 -141 37 -185 14 -41 -21 -63 -56 -59 -97 3 -28 12 -38 73 -75 48
-30 93 -48 147 -60 50 -10 78 -21 78 -30 0 -7 -4 -13 -8 -13 -24 0 -269 51
-328 68 -38 12 -88 26 -111 32 -24 6 -43 15 -43 21 0 5 20 39 45 76 25 36 45
71 45 79 0 24 -44 62 -113 98 -79 41 -119 46 -140 15z m2018 -613 c-20 -25
-98 -99 -173 -165 -75 -66 -219 -207 -319 -313 -273 -290 -251 -271 -312 -263
l-51 7 -30 101 c-32 106 -127 408 -136 431 -5 14 66 29 416 91 80 14 217 46
305 70 197 55 306 83 323 84 7 1 -3 -19 -23 -43z m-3660 -219 c68 -19 107 -40
190 -102 84 -63 112 -92 99 -104 -5 -5 -81 -62 -169 -125 -122 -89 -165 -115
-180 -110 -57 19 -115 16 -170 -10 -49 -22 -59 -32 -80 -78 -33 -71 -40 -112
-26 -158 22 -74 74 -116 160 -129 l45 -6 -51 -57 c-64 -70 -71 -92 -45 -127
l19 -26 248 4 c281 4 279 5 179 -66 -160 -113 -346 -181 -465 -169 -79 8 -272
78 -336 122 -68 47 -169 155 -211 226 -64 109 -81 313 -36 446 46 139 83 201
166 284 65 65 95 86 190 133 62 31 133 60 158 65 60 12 252 4 315 -13z m2509
-231 c42 -123 76 -229 76 -234 0 -6 -39 -8 -102 -5 -110 4 -145 -5 -162 -42
-9 -20 -17 -21 -640 -20 -464 1 -637 4 -652 13 -16 8 -27 34 -44 102 -33 133
-41 120 85 146 408 86 1237 247 1356 263 4 1 41 -100 83 -223z m2161 130 c115
-30 245 -89 298 -136 50 -44 202 -247 216 -289 17 -53 13 -124 -14 -235 -62
-256 -109 -328 -275 -424 -110 -63 -193 -96 -321 -127 -137 -33 -217 -33 -311
1 -154 56 -213 89 -286 160 -87 86 -126 147 -158 249 -23 70 -25 91 -20 168 3
49 15 134 27 190 16 83 29 115 66 174 42 67 144 173 168 173 12 0 40 -51 137
-244 l70 -140 -12 -52 c-7 -28 -10 -65 -6 -80 15 -59 104 -114 183 -114 41 0
93 37 120 85 48 85 20 148 -89 200 -72 34 -73 35 -97 97 -13 35 -53 121 -88
192 -35 70 -62 134 -59 141 2 7 40 20 83 29 108 21 242 15 368 -18z m-3942
-28 c2 -13 19 -86 36 -162 17 -77 30 -140 28 -141 -11 -8 -93 -23 -98 -17 -3
4 -13 35 -23 70 -9 35 -30 89 -45 121 -16 32 -26 62 -23 67 10 14 103 84 112
84 4 0 10 -10 13 -22z m-282 -293 c19 -56 23 -82 15 -86 -6 -3 -78 -3 -160 0
l-149 6 119 83 c65 45 126 81 134 80 9 -2 26 -36 41 -83z m-593 -64 c-85 -12
-138 -73 -138 -161 0 -33 -3 -41 -10 -30 -16 24 -11 67 12 116 25 54 78 84
143 82 l40 -1 -47 -6z m630 -95 c2 -10 0 -22 -5 -26 -4 -5 -62 -2 -128 5 -66
8 -152 14 -192 15 -77 0 -106 7 -97 21 3 5 95 8 212 7 192 -3 207 -4 210 -22z
m271 -15 c28 -38 27 -41 -13 -41 -40 0 -50 11 -42 46 8 32 30 30 55 -5z m1624
-6 c96 -13 112 -18 146 -47 34 -28 37 -35 28 -55 -9 -21 -15 -23 -56 -18 -104
12 -575 25 -902 25 l-349 0 -17 28 c-9 15 -30 42 -47 61 l-31 34 560 -7 c412
-4 588 -10 668 -21z m2117 -35 c11 -11 20 -27 20 -35 0 -24 -27 -72 -44 -78
-12 -5 -12 -2 -1 20 12 24 10 46 -10 96 -10 23 10 22 35 -3z m-3470 -10 c13
-8 12 -13 -7 -32 l-23 -22 -25 24 c-14 13 -25 27 -25 32 0 11 62 10 80 -2z
m1875 -12 c15 -22 14 -23 -17 -35 -45 -16 -48 -16 -48 6 0 53 36 69 65 29z
m-125 -24 c0 -17 -26 -19 -36 -3 -7 12 15 31 28 23 4 -3 8 -12 8 -20z m-2959
-12 c-7 -2 -18 1 -23 6 -8 8 -4 9 13 5 13 -4 18 -8 10 -11z m4541 -24 l23 -33
-25 16 c-14 9 -26 24 -28 33 -5 24 4 19 30 -16z m-4412 -13 c-7 -9 -15 -13
-17 -11 -7 7 7 26 19 26 6 0 6 -6 -2 -15z m1189 -21 c16 -45 6 -55 -36 -38
-37 16 -41 29 -16 56 24 27 37 22 52 -18z m-869 0 c91 -9 169 -20 174 -24 13
-13 -35 -139 -65 -171 -26 -28 -31 -29 -121 -29 -51 0 -149 -3 -218 -6 l-125
-7 -11 38 c-10 33 -9 42 7 69 10 17 19 37 19 45 0 7 21 36 48 62 44 46 50 49
87 44 22 -2 114 -12 205 -21z m-410 -14 c0 -5 -9 -10 -19 -10 -11 0 -23 5 -26
10 -4 6 5 10 19 10 14 0 26 -4 26 -10z m3080 -8 c0 -10 -6 -26 -13 -36 -13
-18 -15 -18 -42 0 l-28 18 39 18 c21 10 40 18 42 18 1 0 2 -8 2 -18z m-2195
-72 c7 -30 15 -67 19 -81 7 -26 7 -26 -64 -33 -39 -3 -75 -4 -80 -1 -5 3 1 33
12 68 38 114 35 109 70 105 30 -3 32 -6 43 -58z m1973 38 c-3 -7 -11 -13 -18
-13 -7 0 -15 6 -17 13 -3 7 4 12 17 12 13 0 20 -5 18 -12z m-1809 -17 c11 -7
10 -13 -4 -35 -20 -30 -30 -25 -40 17 -6 22 -4 27 11 27 11 0 25 -4 33 -9z
m1886 -42 c10 -15 -1 -23 -20 -15 -9 3 -13 10 -10 16 8 13 22 13 30 -1z
m-1748 -16 c2 -6 -5 -13 -17 -16 -12 -3 -20 0 -20 7 0 26 29 33 37 9z m628 -3
c209 -5 450 -14 535 -19 85 -6 207 -11 270 -11 94 0 120 -3 143 -18 15 -10 24
-22 20 -25 -3 -4 -310 -7 -682 -7 l-675 0 -33 32 c-26 26 -30 34 -22 51 8 14
17 17 37 13 15 -4 198 -11 407 -16z"/>
</g>
</svg>
