<?xml version="1.0" standalone="no"?>
<!DOCTYPE svg PUBLIC "-//W3C//DTD SVG 20010904//EN"
 "http://www.w3.org/TR/2001/REC-SVG-20010904/DTD/svg10.dtd">
<svg version="1.0" xmlns="http://www.w3.org/2000/svg"
 width="470.000000pt" height="287.000000pt" viewBox="0 0 470.000000 287.000000"
 preserveAspectRatio="xMidYMid meet">
<metadata>
Created by potrace 1.16, written by Peter Selinger 2001-2019
</metadata>
<g transform="translate(0.000000,287.000000) scale(0.100000,-0.100000)"
fill="#000000" stroke="none">
<path d="M2601 2812 c-20 -4 -42 -18 -54 -34 -18 -24 -18 -30 -7 -58 20 -49
38 -55 282 -95 53 -9 102 -14 107 -11 11 7 129 -30 148 -46 7 -5 33 -48 58
-95 l45 -86 -45 -48 c-25 -26 -45 -53 -45 -58 0 -6 9 -30 21 -53 l21 -44 -34
-36 -33 -36 -155 -7 c-271 -11 -515 -57 -855 -160 -82 -26 -159 -48 -171 -51
-18 -5 -25 6 -59 86 -21 50 -42 93 -47 96 -13 8 -9 42 6 51 8 4 16 19 18 33 3
24 8 26 103 37 55 6 106 12 113 12 27 2 72 58 72 90 0 42 -22 51 -128 51 -51
0 -142 10 -209 22 -65 13 -156 23 -201 23 -82 0 -84 -1 -113 -33 -42 -46 -40
-92 6 -137 29 -30 34 -40 28 -66 -4 -21 -1 -34 8 -40 19 -12 106 -11 114 1 10
17 22 12 63 -27 34 -32 43 -51 62 -123 39 -145 41 -134 -28 -169 -33 -17 -88
-48 -122 -70 l-62 -39 -106 54 c-194 100 -356 133 -546 114 -178 -18 -272 -51
-393 -137 -200 -142 -353 -368 -400 -592 -16 -74 -16 -80 0 -105 35 -53 67
-24 97 89 29 110 143 297 170 280 16 -10 12 -20 -40 -96 -61 -89 -85 -150
-106 -276 -34 -201 12 -429 121 -590 90 -131 210 -230 345 -282 129 -50 277
-74 410 -68 314 14 516 139 666 411 l36 66 61 -8 c34 -4 127 -7 207 -7 115 0
156 4 199 19 l53 18 31 -30 31 -31 -27 -10 c-24 -10 -27 -15 -27 -61 0 -31 5
-52 13 -55 25 -10 237 -23 268 -16 38 8 51 39 40 93 -7 32 -8 33 -71 41 -62 7
-68 10 -125 67 -52 53 -58 62 -47 78 31 43 62 126 62 166 0 42 2 46 47 71 91
54 184 160 311 355 188 290 250 375 336 467 l81 85 37 -18 c32 -15 40 -26 53
-70 8 -29 15 -56 15 -61 0 -5 -28 -29 -62 -53 -107 -78 -189 -167 -235 -255
-82 -159 -143 -379 -143 -517 0 -75 23 -80 43 -10 10 33 20 48 34 50 19 3 20
-5 26 -110 11 -195 48 -296 147 -401 113 -121 268 -210 476 -273 195 -59 415
-27 649 94 85 45 247 200 292 282 139 248 137 522 -5 764 -103 176 -321 331
-549 392 -143 38 -306 39 -418 1 -85 -28 -116 -34 -99 -17 24 24 166 62 271
72 88 9 130 9 200 -1 127 -19 147 -19 151 1 8 40 -62 73 -205 98 -109 19 -223
8 -346 -35 -56 -19 -107 -35 -113 -35 -6 0 -20 24 -32 53 -17 39 -21 64 -16
97 5 41 -1 58 -60 181 -36 74 -74 143 -85 153 -35 32 -35 62 0 106 17 21 44
43 60 49 46 16 39 53 -15 90 -28 19 -60 57 -91 106 -53 85 -102 126 -235 198
-119 64 -261 96 -349 79z m527 -827 c20 -44 14 -59 -47 -113 l-59 -52 -119 40
c-65 21 -164 47 -220 56 -57 9 -103 20 -103 24 0 7 144 29 360 54 173 20 175
20 188 -9z m-400 -184 c129 -27 215 -58 209 -76 -3 -7 -28 -43 -55 -81 -28
-38 -80 -123 -117 -189 -125 -221 -212 -334 -329 -427 -49 -39 -49 -39 -70
-20 -29 27 -91 57 -157 76 l-55 16 -58 168 c-32 92 -85 240 -118 330 -40 108
-57 167 -51 173 6 6 48 17 95 25 224 38 535 41 706 5z m-1637 -87 c83 -15 241
-74 268 -100 32 -29 -2 -24 -103 15 -129 50 -225 65 -371 57 -188 -11 -262
-41 -406 -168 -69 -61 -90 -74 -98 -64 -21 25 181 192 279 231 112 44 290 56
431 29z m788 -229 c40 -110 90 -237 111 -282 l39 -83 -77 -1 c-42 -1 -90 -3
-107 -4 -41 -4 -65 4 -65 20 0 8 -20 53 -45 100 -25 47 -43 85 -40 85 3 0 30
-34 61 -76 31 -41 62 -78 70 -81 24 -9 44 17 44 56 0 59 -124 263 -209 345
-17 17 -31 35 -31 41 0 6 35 32 77 58 60 36 80 44 88 34 7 -6 44 -102 84 -212z
m1481 41 c0 -7 -12 -22 -27 -32 -50 -32 -175 -158 -215 -218 -55 -80 -107
-195 -123 -273 -15 -70 -28 -94 -45 -77 -15 15 12 98 70 214 74 148 120 212
222 313 84 83 118 104 118 73z m-1816 -27 c23 -18 36 -49 20 -49 -14 0 -73 53
-68 61 8 14 19 11 48 -12z m-409 -19 c28 -7 56 -14 63 -16 8 -2 -7 -29 -41
-71 -51 -63 -155 -242 -199 -340 -10 -24 -21 -43 -24 -43 -6 0 -285 225 -343
276 l-44 40 83 77 c61 56 93 79 124 86 56 13 319 7 381 -9z m2772 -26 c26 -9
85 -34 130 -55 175 -83 319 -269 374 -480 21 -81 21 -86 5 -154 -19 -78 -87
-213 -148 -293 -74 -95 -229 -192 -358 -223 -133 -32 -383 0 -487 63 -70 42
-168 131 -199 180 -40 64 -76 185 -78 265 0 39 4 76 9 81 10 8 489 -4 530 -13
11 -3 29 -19 40 -37 30 -48 70 -73 116 -73 81 0 113 86 69 182 -21 47 -48 59
-104 49 -32 -6 -35 -4 -75 58 -80 123 -200 391 -183 408 6 6 28 14 49 18 21 5
61 15 88 23 67 20 164 21 222 1z m-2257 -69 c20 -24 6 -28 -15 -5 -10 11 -13
20 -8 20 6 0 16 -7 23 -15z m-272 -48 l22 -23 -111 -87 c-62 -48 -114 -85
-117 -83 -15 15 140 216 167 216 9 0 27 -10 39 -23z m2108 -99 c58 -115 100
-182 171 -270 31 -38 54 -71 51 -73 -8 -8 -527 11 -535 19 -11 10 25 142 58
211 15 33 40 75 56 93 27 31 131 111 145 112 4 0 29 -42 54 -92z m-1984 -26
c32 -35 65 -98 57 -107 -4 -3 -226 -39 -324 -51 l-40 -5 29 22 c16 13 72 58
125 101 53 43 101 78 107 78 7 0 27 -17 46 -38z m-842 -107 c62 -49 136 -108
164 -131 28 -22 52 -49 54 -60 8 -51 14 -64 42 -84 40 -29 342 -138 510 -185
74 -21 139 -42 144 -46 5 -4 -1 -27 -14 -51 -63 -122 -237 -259 -364 -288 -74
-16 -332 -13 -401 5 -161 42 -270 120 -352 249 -74 117 -83 147 -85 274 -2
180 29 300 104 410 l29 42 28 -22 c16 -13 79 -63 141 -113z m3228 -237 c16
-35 6 -77 -22 -87 -24 -9 -54 -1 -55 14 -1 10 3 11 34 14 8 0 15 9 15 20 0 10
-7 24 -15 31 -8 7 -15 19 -15 27 0 25 44 10 58 -19z m-1758 4 c0 -36 -23 -54
-65 -50 l-39 3 33 33 c36 36 71 43 71 14z m-942 -16 c81 -13 207 -32 279 -42
73 -10 138 -21 144 -25 14 -8 2 -109 -13 -109 -34 0 -550 167 -575 186 -17 13
-17 13 0 14 9 0 84 -11 165 -24z m1056 5 c23 -25 17 -55 -12 -59 -16 -3 -25 4
-32 24 -20 50 10 73 44 35z m-294 -113 c5 -13 11 -35 14 -50 3 -14 18 -40 32
-58 15 -17 24 -33 22 -36 -7 -6 -186 16 -214 26 -20 8 -21 12 -13 47 5 21 12
50 15 66 6 26 9 27 70 27 57 0 65 -2 74 -22z m150 -19 c14 -24 6 -49 -14 -49
-18 0 -58 49 -50 61 10 17 53 9 64 -12z"/>
</g>
</svg>
