<svg enable-background="new 0 0 219 213" height="213" viewBox="0 0 219 213" width="219" xmlns="http://www.w3.org/2000/svg"><g fill="#2c3e50"><path d="m17.592 89.604h5.33v44.201h-5.33zm6.5 44.201v-44.201h5.331v44.201z"/><path d="m43.397 133.805h-4.94v-44.786c0-.39.195-.715.91-.13l27.886 23.076v-22.361h4.94v32.696l-28.796-23.596zm6.045-22.23v22.229h-4.875v-32.631l28.796 23.596v-35.165h4.875v44.852c0 .521-.195.715-.91.131z"/><path d="m87.011 89.604h17.096c12.741 0 22.36 8.385 22.36 22.102 0 13.715-9.619 22.101-22.36 22.101h-17.096zm5.331 39.781h11.115c10.271 0 17.551-6.76 17.551-17.68 0-10.921-7.279-17.681-17.551-17.681h-11.115zm1.17-34.191h9.945c9.621 0 16.381 6.37 16.381 16.511 0 10.14-6.76 16.51-16.381 16.51h-9.945zm9.295 28.601c7.15 0 11.57-4.745 11.57-12.09 0-7.346-4.42-12.091-11.57-12.091h-3.965v24.181z"/><path d="m132.836 89.604h31.006v4.42h-25.676v35.426h26.586v4.354h-31.916zm27.82 21.386h-21.32v-15.796h24.506v4.355h-19.176v7.28h15.99zm4.096 17.29h-25.416v-16.12h21.32v4.095h-15.99v7.604h20.086z"/><path d="m170.73 89.604h5.979l12.608 20.15-15.534 24.051h-5.46l15.275-23.726zm19.372 21.191 14.365 23.01h-5.851l-8.905-15.016-9.1 15.016h-5.396zm-11.961-21.191h5.785l6.631 11.18 6.564-11.18h5.33l-12.35 19.176zm27.82 44.201-15.08-24.051 13.066-20.15h5.459l-12.805 19.955 15.211 24.246z"/><path d="m39.992 39.525h18.878c8.64 0 14.207 3.968 14.207 11.264 0 5.184-2.56 8.063-6.016 9.343 4.032 1.152 7.872 4.096 7.872 10.303 0 7.935-5.824 12.607-16.639 12.607h-18.302zm17.279 17.023c3.2 0 4.416-1.472 4.416-3.904s-1.088-3.968-4.288-3.968h-6.144v7.872zm.959 17.343c3.775 0 5.056-1.728 5.056-4.543 0-2.816-1.344-4.48-5.056-4.48h-6.976v9.023z"/><path d="m81.848 39.525h11.646v43.517h-11.646z"/><path d="m127.35 39.525h12.606l-14.463 18.879 16.19 24.638h-13.759l-10.366-15.807-3.648 4.479v11.327h-11.646v-43.516h11.646v18.047z"/><path d="m146.871 39.525h30.525v9.792h-18.879v7.167h15.742v9.279h-15.742v7.487h19.773v9.792h-31.42z"/><path d="m27.042 82.981c-8.773-25.838-13.249-48.228-15.241-60.167 14.771-4.042 50.677-12.295 97.261-12.295 33.364 0 66.088 4.185 97.354 12.449-2.064 11.986-6.645 34.359-15.447 60.014h11.104c9.579-28.797 13.958-53.106 15.495-63.042l.716-4.619-4.503-1.252c-33.549-9.335-68.782-14.069-104.719-14.069-53.653 0-93.696 10.711-104.691 13.993l-4.371 1.305.676 4.512c1.482 9.916 5.739 34.213 15.276 63.171z"/><path d="m164.891 140.314c-13.729 23.062-32.027 45.291-56.038 59.998-24.004-14.707-42.251-36.936-55.915-59.998h-12.131c15.204 27.084 36.399 53.859 65.409 70.67l2.636 1.527 2.639-1.527c29.011-16.811 50.267-43.586 65.548-70.67z"/></g></svg>