<svg enable-background="new 12.983 -2.489 147 62" height="62" viewBox="12.983 -2.489 147 62" width="147" xmlns="http://www.w3.org/2000/svg"><g fill="#2c3e50"><path d="m107.945 24.335h1.344v11.148h-1.344zm1.64 11.148v-11.148h1.343v11.148z"/><path d="m114.453 35.483h-1.246v-11.296c0-.098.05-.18.23-.033l7.032 5.824v-5.642h1.247v8.246l-7.264-5.951v8.852zm1.524-5.605v5.605h-1.229v-8.23l7.264 5.951v-8.869h1.229v11.312c0 .131-.049.18-.229.033z"/><path d="m125.453 24.335h4.312c3.212 0 5.639 2.115 5.639 5.574s-2.427 5.574-5.639 5.574h-4.312zm1.344 10.033h2.804c2.589 0 4.427-1.705 4.427-4.459 0-2.753-1.838-4.458-4.427-4.458h-2.804zm.296-8.622h2.508c2.427 0 4.131 1.605 4.131 4.164 0 2.557-1.704 4.166-4.131 4.166h-2.508zm2.344 7.212c1.805 0 2.919-1.197 2.919-3.049s-1.114-3.05-2.919-3.05h-.999v6.099z"/><path d="m137.01 24.335h7.82v1.115h-6.476v8.935h6.706v1.098h-8.051v-11.148zm7.017 5.394h-5.377v-3.984h6.18v1.098h-4.836v1.835h4.033zm1.034 4.362h-6.41v-4.068h5.377v1.035h-4.033v1.918h5.066z"/><path d="m146.567 24.335h1.509l3.18 5.083-3.918 6.064h-1.377l3.853-5.984zm4.886 5.346 3.623 5.803h-1.476l-2.244-3.787-2.297 3.787h-1.359zm-3.016-5.346h1.458l1.674 2.82 1.654-2.82h1.345l-3.114 4.835zm7.016 11.148-3.804-6.064 3.296-5.083h1.377l-3.23 5.033 3.837 6.115h-1.476z"/><path d="m113.595 11.705h4.762c2.179 0 3.581 1 3.581 2.842 0 1.306-.645 2.033-1.516 2.356 1.018.29 1.986 1.032 1.986 2.598 0 2.001-1.471 3.18-4.196 3.18h-4.617zm4.358 4.294c.807 0 1.113-.371 1.113-.984 0-.612-.274-1.001-1.082-1.001h-1.549v1.985zm.241 4.374c.954 0 1.275-.437 1.275-1.146s-.339-1.129-1.275-1.129h-1.759v2.275z"/><path d="m124.15 11.705h2.938v10.975h-2.938z"/><path d="m135.627 11.705h3.179l-3.646 4.762 4.083 6.214h-3.47l-2.615-3.985-.919 1.129v2.856h-2.939v-10.976h2.938v4.552z"/><path d="m140.549 11.705h7.701v2.47h-4.763v1.808h3.97v2.341h-3.97v1.889h4.987v2.469h-7.926v-10.977z"/><path d="m110.328 22.666c-2.212-6.516-3.342-12.164-3.844-15.176 3.726-1.018 12.781-3.101 24.53-3.101 8.413 0 16.667 1.056 24.552 3.14-.52 3.023-1.675 8.666-3.895 15.137h2.799c2.417-7.264 3.521-13.395 3.909-15.899l.181-1.165-1.137-.316c-8.459-2.354-17.346-3.547-26.409-3.547-13.532 0-23.631 2.699-26.404 3.528l-1.103.329.171 1.139c.374 2.5 1.448 8.627 3.853 15.932h2.797z"/><path d="m145.094 37.124c-3.462 5.816-8.076 11.422-14.133 15.133-6.054-3.711-10.655-9.316-14.102-15.133h-3.059c3.834 6.832 9.18 13.584 16.496 17.822l.664.387.666-.387c7.316-4.238 12.678-10.99 16.531-17.822z"/><path d="m115.612 48.933-115.52.002v8.391h124.062c-3.193-2.452-6.015-5.275-8.542-8.393z"/><path d="m110.408 41.49-7.423.021v-11.041h-102.893v15.406h113.199c-1.008-1.415-1.969-2.877-2.883-4.386z"/></g><path d="m102.92 25.011c-.25-1.779-.992-3.499-1.512-5.36-.731-2.617-1.417-5.327-1.941-8.103h-99.376v15.406h102.83c-.037-.634.086-1.308-.001-1.943z" fill="#3b97d3"/><path d="m97.92 1.901c0-.2-.083-.411-.083-.611 1.439-.45 2.902-.877 4.377-1.291l-102.213.001-.001 8.391h98.905c-.367-2.136-.63-4.294-.985-6.49z" fill="#3b97d3"/></svg>