<?xml version="1.0" encoding="utf-8"?>
<!-- Generator: Adobe Illustrator 15.0.2, SVG Export Plug-In  -->
<!DOCTYPE svg PUBLIC "-//W3C//DTD SVG 1.1//EN" "http://www.w3.org/Graphics/SVG/1.1/DTD/svg11.dtd" [
	<!ENTITY ns_flows "http://ns.adobe.com/Flows/1.0/">
]>
<svg version="1.1"
	 xmlns="http://www.w3.org/2000/svg" xmlns:xlink="http://www.w3.org/1999/xlink" xmlns:a="http://ns.adobe.com/AdobeSVGViewerExtensions/3.0/"
	 x="0px" y="0px" width="147px" height="62px" viewBox="12.892 -2.489 147 62"
	 overflow="visible" enable-background="new 12.892 -2.489 147 62" xml:space="preserve">
<defs>
</defs>
<g>
	<g>
		<g>
			<path fill="#2C3E50" d="M108.855,24.335h1.344v11.148h-1.344V24.335z M110.495,35.483V24.335h1.343v11.148H110.495z"/>
			<path fill="#2C3E50" d="M115.363,35.483h-1.246V24.187c0-0.098,0.05-0.18,0.23-0.033l7.032,5.824v-5.642h1.247v8.246
				l-7.264-5.951V35.483z M116.887,29.878v5.605h-1.229v-8.23l7.264,5.951v-8.869h1.229v11.312c0,0.131-0.049,0.18-0.229,0.033
				L116.887,29.878z"/>
			<path fill="#2C3E50" d="M126.363,24.335h4.312c3.212,0,5.639,2.115,5.639,5.574c0,3.459-2.427,5.574-5.639,5.574h-4.312V24.335z
				 M127.707,34.368h2.804c2.589,0,4.427-1.705,4.427-4.459c0-2.753-1.838-4.458-4.427-4.458h-2.804V34.368z M128.003,25.746h2.508
				c2.427,0,4.131,1.605,4.131,4.164c0,2.557-1.704,4.166-4.131,4.166h-2.508V25.746z M130.347,32.958
				c1.805,0,2.919-1.197,2.919-3.049c0-1.852-1.114-3.05-2.919-3.05h-0.999v6.099H130.347z"/>
			<path fill="#2C3E50" d="M137.92,24.335h7.82v1.115h-6.476v8.935h6.706v1.098h-8.051V24.335z M144.938,29.729h-5.377v-3.984h6.18
				v1.098h-4.836v1.835h4.033V29.729z M145.971,34.091h-6.41v-4.068h5.377v1.035h-4.033v1.918h5.066V34.091z"/>
			<path fill="#2C3E50" d="M147.478,24.335h1.509l3.18,5.083l-3.918,6.064h-1.377l3.853-5.984L147.478,24.335z M152.363,29.681
				l3.623,5.803h-1.477l-2.244-3.787l-2.297,3.787h-1.359L152.363,29.681z M149.347,24.335h1.458l1.674,2.82l1.654-2.82h1.345
				l-3.114,4.835L149.347,24.335z M156.363,35.483l-3.804-6.064l3.296-5.083h1.377l-3.23,5.033l3.837,6.115H156.363z"/>
		</g>
		<g>
			<path fill="#2C3E50" d="M114.505,11.705h4.762c2.179,0,3.581,1,3.581,2.842c0,1.306-0.645,2.033-1.516,2.356
				c1.018,0.29,1.986,1.032,1.986,2.598c0,2.001-1.471,3.18-4.196,3.18h-4.617V11.705z M118.863,15.999
				c0.807,0,1.113-0.371,1.113-0.984c0-0.612-0.274-1.001-1.082-1.001h-1.549v1.985H118.863z M119.104,20.373
				c0.954,0,1.275-0.437,1.275-1.146c0-0.709-0.339-1.129-1.275-1.129h-1.759v2.275H119.104z"/>
			<path fill="#2C3E50" d="M125.061,11.705h2.938V22.68h-2.938V11.705z"/>
			<path fill="#2C3E50" d="M136.537,11.705h3.179l-3.646,4.762l4.083,6.214h-3.47l-2.615-3.985l-0.919,1.129v2.856h-2.938V11.705
				h2.938v4.552L136.537,11.705z"/>
			<path fill="#2C3E50" d="M141.459,11.705h7.701v2.47h-4.763v1.808h3.97v2.341h-3.97v1.889h4.987v2.469h-7.926V11.705z"/>
		</g>
		<g>
			<path fill="#2C3E50" d="M111.238,22.666c-2.212-6.516-3.342-12.164-3.844-15.176c3.726-1.018,12.781-3.101,24.53-3.101
				c8.413,0,16.667,1.056,24.552,3.14c-0.52,3.023-1.675,8.666-3.895,15.137h2.799c2.417-7.264,3.521-13.395,3.909-15.899
				l0.181-1.165l-1.137-0.316c-8.459-2.354-17.346-3.547-26.409-3.547c-13.532,0-23.631,2.699-26.404,3.528l-1.103,0.329
				l0.171,1.139c0.374,2.5,1.448,8.627,3.853,15.932H111.238z"/>
			<path fill="#2C3E50" d="M146.004,37.124c-3.462,5.816-8.076,11.422-14.133,15.133c-6.054-3.711-10.655-9.316-14.102-15.133
				h-3.059c3.834,6.832,9.18,13.584,16.496,17.822l0.664,0.387l0.666-0.387c7.316-4.238,12.678-10.99,16.531-17.822H146.004z"/>
		</g>
	</g>
</g>
<path fill="#2C3E50" d="M115.521,48.933L0.001,48.935v8.391h124.062C120.87,54.874,118.048,52.051,115.521,48.933z"/>
<path fill="#2C3E50" d="M110.317,41.49c-2.44,0-4.88,0-7.32,0c-0.357-3.839,0.071-7.462,0.194-11.021H0.001v15.406H113.2
	C112.192,44.461,111.231,42.999,110.317,41.49z"/>
<path fill="#3B97D3" d="M102.998,25.051c-0.25-1.779-1.16-3.539-1.68-5.4c-0.731-2.617-1.32-5.327-1.844-8.103L0,11.548v15.406
	h103.176C103.14,26.32,103.084,25.686,102.998,25.051z"/>
<path fill="#3B97D3" d="M97.837,1.891c0-0.2,0-0.4,0-0.601c1.439-0.45,2.902-0.877,4.377-1.291L0.001,0L0,8.391h98.905
	C98.538,6.255,98.192,4.087,97.837,1.891z"/>
</svg>
