<?xml version="1.0" encoding="utf-8"?>
<!-- Generator: Adobe Illustrator 15.0.2, SVG Export Plug-In  -->
<!DOCTYPE svg PUBLIC "-//W3C//DTD SVG 1.1//EN" "http://www.w3.org/Graphics/SVG/1.1/DTD/svg11.dtd" [
	<!ENTITY ns_flows "http://ns.adobe.com/Flows/1.0/">
]>
<svg version="1.1"
	 xmlns="http://www.w3.org/2000/svg" xmlns:xlink="http://www.w3.org/1999/xlink" xmlns:a="http://ns.adobe.com/AdobeSVGViewerExtensions/3.0/"
	 x="0px" y="0px" width="120px" height="117px" viewBox="-1 -0.996 120 117"
	 overflow="visible" enable-background="new -1 -0.996 120 117" xml:space="preserve">
<defs>
</defs>
<path fill="#FFFFFF" d="M117.8,8.938c-1.447,10.877-3.278,20.004-8.089,35.829l5.971,0.045l-9.463,14.105l9.951,16.088H96.743
	c-8.777,16.085-21.488,31.545-38.002,39.749c-17.009-8.847-28.527-22.964-38.06-39.749H9.232l0.001-26.275
	c0,0-1.456-4.179-2.362-7.449C4.154,31.476,3.025,28.172,0,8.991C42.24-3.292,76.732-2.682,117.8,8.938z"/>
<g>
	<g>
		<g>
			<path fill="#2C3E50" d="M13.986,49.438h2.625v21.778h-2.625V49.438z M17.189,71.216V49.438h2.624v21.778H17.189z"/>
			<path fill="#2C3E50" d="M26.699,71.216h-2.434V49.148c0-0.191,0.097-0.351,0.45-0.065L38.453,60.46V49.438h2.436v16.108
				l-14.19-11.625V71.216z M29.675,60.266v10.95h-2.4V55.138l14.19,11.625V49.438h2.4v22.099c0,0.255-0.095,0.351-0.446,0.064
				L29.675,60.266z"/>
			<path fill="#2C3E50" d="M48.188,49.438h8.425c6.274,0,11.016,4.132,11.016,10.889c0,6.757-4.741,10.889-11.016,10.889h-8.425
				V49.438z M50.813,69.037h5.478c5.057,0,8.647-3.331,8.647-8.71c0-5.379-3.59-8.71-8.647-8.71h-5.478V69.037z M51.392,52.193
				h4.899c4.741,0,8.07,3.136,8.07,8.134c0,4.995-3.329,8.138-8.07,8.138h-4.899V52.193z M55.97,66.282
				c3.526,0,5.703-2.338,5.703-5.956c0-3.618-2.177-5.959-5.703-5.959h-1.952v11.915H55.97z"/>
			<path fill="#2C3E50" d="M70.765,49.438h15.277v2.179h-12.65v17.456h13.101v2.144H70.765V49.438z M84.474,59.976H73.97v-7.783
				h12.072v2.144h-9.447v3.586h7.879V59.976z M86.493,68.496H73.97v-7.948h10.504v2.022h-7.879v3.747h9.897V68.496z"/>
			<path fill="#2C3E50" d="M89.437,49.438h2.947l6.212,9.931l-7.654,11.847h-2.69l7.526-11.69L89.437,49.438z M98.981,59.88
				l7.078,11.335h-2.885l-4.384-7.398l-4.487,7.398h-2.656L98.981,59.88z M93.088,49.438h2.848l3.27,5.51l3.232-5.51h2.627
				l-6.084,9.446L93.088,49.438z M106.795,71.216l-7.431-11.847l6.438-9.931h2.69l-6.311,9.832l7.496,11.946H106.795z"/>
		</g>
		<g>
			<path fill="#2C3E50" d="M25.022,24.763h9.302c4.256,0,6.996,1.954,6.996,5.552c0,2.551-1.259,3.972-2.961,4.604
				c1.988,0.566,3.881,2.017,3.881,5.075c0,3.909-2.873,6.211-8.198,6.211h-9.02V24.763z M33.537,33.151
				c1.576,0,2.175-0.725,2.175-1.923c0-1.196-0.536-1.956-2.114-1.956h-3.025v3.878H33.537z M34.008,41.696
				c1.864,0,2.492-0.853,2.492-2.24c0-1.385-0.662-2.206-2.492-2.206h-3.436v4.445H34.008z"/>
			<path fill="#2C3E50" d="M45.644,24.763h5.738v21.441h-5.738V24.763z"/>
			<path fill="#2C3E50" d="M68.063,24.763h6.21l-7.124,9.302l7.977,12.139h-6.778l-5.109-7.786l-1.795,2.206v5.58h-5.741V24.763
				h5.741v8.892L68.063,24.763z"/>
			<path fill="#2C3E50" d="M77.679,24.763h15.045v4.825h-9.304v3.531h7.755v4.573h-7.755v3.689h9.743v4.823H77.679V24.763z"/>
		</g>
		<g>
			<path fill="#2C3E50" d="M18.641,46.176c-4.321-12.729-6.528-23.763-7.509-29.647c7.278-1.988,24.969-6.057,47.921-6.057
				c16.436,0,32.56,2.062,47.963,6.133c-1.015,5.907-3.272,16.93-7.608,29.571h5.468c4.722-14.19,6.879-26.167,7.637-31.061
				l0.353-2.276l-2.221-0.618C94.12,7.624,76.759,5.292,59.053,5.292c-26.436,0-46.164,5.273-51.583,6.893l-2.154,0.643l0.334,2.225
				c0.73,4.884,2.829,16.854,7.526,31.124H18.641z"/>
			<path fill="#2C3E50" d="M86.558,74.421c-6.763,11.363-15.777,22.313-27.609,29.563c-11.826-7.25-20.815-18.2-27.548-29.563
				h-5.975c7.49,13.347,17.933,26.537,32.226,34.817l1.297,0.755l1.301-0.755c14.293-8.28,24.767-21.471,32.295-34.817H86.558z"/>
		</g>
	</g>
</g>
</svg>
