<?xml version="1.0" encoding="utf-8"?>
<!-- Generator: Adobe Illustrator 15.0.2, SVG Export Plug-In  -->
<!DOCTYPE svg PUBLIC "-//W3C//DTD SVG 1.1//EN" "http://www.w3.org/Graphics/SVG/1.1/DTD/svg11.dtd" [
	<!ENTITY ns_flows "http://ns.adobe.com/Flows/1.0/">
]>
<svg version="1.1"
	 xmlns="http://www.w3.org/2000/svg" xmlns:xlink="http://www.w3.org/1999/xlink" xmlns:a="http://ns.adobe.com/AdobeSVGViewerExtensions/3.0/"
	 x="0px" y="0px" width="72px" height="69px" viewBox="-0.6 -1.05 72 69"
	 overflow="visible" enable-background="new -0.6 -1.05 72 69" xml:space="preserve">
<defs>
</defs>
<path fill="#FFFFFF" d="M38.28,0c11.41,0.51,21.09,2.75,30.24,5.52c-0.88,5.841-1.78,11.66-3.24,16.92
	c1.48,0.279,3.48,0.039,5.16,0.119c-2.19,3.811-4.7,7.311-6.96,11.041c2.23,4.17,5.3,8.15,7.32,12.119c-4.96,0-9.92,0-14.88,0
	c-5.41,8.75-12.24,16.09-21.72,20.76c-9.54-4.619-16.38-11.939-21.72-20.76c-2.44,0-4.88,0-7.32,0c-0.54-5.799,0.73-11.109,0-16.439
	C4.91,27.5,4,25.741,3.48,23.879C1.92,18.299,1,12.31,0,6.12c0-0.2,0-0.4,0-0.601C9.08,2.68,18.79,0.47,30.24,0
	C32.92,0,35.6,0,38.28,0z"/>
<g>
	<g>
		<g>
			<path fill="#2C3E50" d="M11.018,28.564h1.344v11.148h-1.344V28.564z M12.658,39.712V28.564H14v11.148H12.658z"/>
			<path fill="#2C3E50" d="M17.526,39.712H16.28V28.416c0-0.098,0.05-0.18,0.23-0.033l7.032,5.824v-5.642h1.247v8.246l-7.264-5.951
				V39.712z M19.049,34.107v5.605h-1.229v-8.23l7.264,5.951v-8.869h1.229v11.312c0,0.131-0.049,0.18-0.229,0.033L19.049,34.107z"/>
			<path fill="#2C3E50" d="M28.526,28.564h4.312c3.212,0,5.639,2.115,5.639,5.574c0,3.459-2.427,5.574-5.639,5.574h-4.312V28.564z
				 M29.87,38.597h2.804c2.589,0,4.427-1.705,4.427-4.459c0-2.753-1.838-4.458-4.427-4.458H29.87V38.597z M30.166,29.975h2.508
				c2.427,0,4.131,1.605,4.131,4.164c0,2.557-1.704,4.166-4.131,4.166h-2.508V29.975z M32.509,37.187
				c1.805,0,2.919-1.197,2.919-3.049c0-1.852-1.114-3.05-2.919-3.05H31.51v6.099H32.509z"/>
			<path fill="#2C3E50" d="M40.083,28.564h7.82v1.115h-6.476v8.935h6.706v1.098h-8.051V28.564z M47.1,33.958h-5.377v-3.984h6.18
				v1.098h-4.836v1.835H47.1V33.958z M48.133,38.32h-6.41v-4.068H47.1v1.035h-4.033v1.918h5.066V38.32z"/>
			<path fill="#2C3E50" d="M49.64,28.564h1.509l3.18,5.083l-3.918,6.064h-1.377l3.853-5.984L49.64,28.564z M54.526,33.91
				l3.623,5.803h-1.477l-2.244-3.787l-2.297,3.787h-1.359L54.526,33.91z M51.509,28.564h1.458l1.674,2.82l1.654-2.82h1.345
				L54.526,33.4L51.509,28.564z M58.526,39.712l-3.804-6.064l3.296-5.083h1.377l-3.23,5.033l3.837,6.115H58.526z"/>
		</g>
		<g>
			<path fill="#2C3E50" d="M16.667,15.934h4.762c2.179,0,3.581,1,3.581,2.842c0,1.306-0.645,2.033-1.516,2.356
				c1.018,0.29,1.986,1.032,1.986,2.598c0,2.001-1.471,3.18-4.196,3.18h-4.617V15.934z M21.026,20.228
				c0.807,0,1.113-0.371,1.113-0.984c0-0.612-0.274-1.001-1.082-1.001h-1.549v1.985H21.026z M21.267,24.602
				c0.954,0,1.275-0.437,1.275-1.146c0-0.709-0.339-1.129-1.275-1.129h-1.759v2.275H21.267z"/>
			<path fill="#2C3E50" d="M27.223,15.934h2.938v10.976h-2.938V15.934z"/>
			<path fill="#2C3E50" d="M38.7,15.934h3.179l-3.646,4.762l4.083,6.214h-3.47l-2.615-3.985l-0.919,1.129v2.856h-2.938V15.934h2.938
				v4.552L38.7,15.934z"/>
			<path fill="#2C3E50" d="M43.622,15.934h7.701v2.47H46.56v1.808h3.97v2.341h-3.97v1.889h4.987v2.469h-7.926V15.934z"/>
		</g>
		<g>
			<path fill="#2C3E50" d="M13.401,26.895c-2.212-6.516-3.342-12.164-3.844-15.176c3.726-1.018,12.781-3.101,24.53-3.101
				c8.413,0,16.667,1.056,24.552,3.14c-0.52,3.023-1.675,8.666-3.895,15.137h2.799c2.417-7.264,3.521-13.395,3.909-15.899
				l0.181-1.165l-1.137-0.316C52.038,7.16,43.151,5.967,34.087,5.967c-13.532,0-23.631,2.699-26.404,3.528L6.581,9.824l0.171,1.139
				c0.374,2.5,1.448,8.627,3.853,15.932H13.401z"/>
			<path fill="#2C3E50" d="M48.167,41.353c-3.462,5.816-8.076,11.422-14.133,15.133c-6.054-3.711-10.655-9.316-14.102-15.133h-3.059
				c3.834,6.832,9.18,13.584,16.496,17.822l0.664,0.387l0.666-0.387c7.316-4.238,12.678-10.99,16.531-17.822H48.167z"/>
		</g>
	</g>
</g>
</svg>
