<?xml version="1.0" encoding="utf-8"?>
<!-- Generator: Adobe Illustrator 15.0.2, SVG Export Plug-In  -->
<!DOCTYPE svg PUBLIC "-//W3C//DTD SVG 1.1//EN" "http://www.w3.org/Graphics/SVG/1.1/DTD/svg11.dtd" [
	<!ENTITY ns_flows "http://ns.adobe.com/Flows/1.0/">
]>
<svg version="1.1"
	 xmlns="http://www.w3.org/2000/svg" xmlns:xlink="http://www.w3.org/1999/xlink" xmlns:a="http://ns.adobe.com/AdobeSVGViewerExtensions/3.0/"
	 x="0px" y="0px" width="280px" height="280px" viewBox="-30.857 -33.744 280 280"
	 overflow="visible" enable-background="new -30.857 -33.744 280 280" xml:space="preserve">
<defs>
</defs>
<path fill="#FFFFFF" d="M17.592,89.604h5.33v44.201h-5.33V89.604z M24.092,133.806V89.604h5.331v44.201H24.092z"/>
<path fill="#FFFFFF" d="M43.397,133.806h-4.941V89.02c0-0.391,0.195-0.715,0.91-0.13l27.887,23.076V89.604h4.939v32.696
	L43.397,98.705V133.806z M49.442,111.575v22.23h-4.875v-32.631l28.795,23.596V89.604h4.876v44.852c0,0.52-0.194,0.715-0.91,0.131
	L49.442,111.575z"/>
<path fill="#FFFFFF" d="M87.011,89.604h17.097c12.74,0,22.36,8.386,22.36,22.102c0,13.715-9.62,22.1-22.36,22.1H87.011V89.604z
	 M92.342,129.386h11.115c10.271,0,17.551-6.76,17.551-17.68c0-10.921-7.28-17.681-17.551-17.681H92.342V129.386z M93.512,95.195
	h9.945c9.621,0,16.381,6.369,16.381,16.511c0,10.14-6.76,16.51-16.381,16.51h-9.945V95.195z M102.807,123.796
	c7.15,0,11.57-4.745,11.57-12.09c0-7.347-4.42-12.091-11.57-12.091h-3.965v24.181H102.807z"/>
<path fill="#FFFFFF" d="M132.836,89.604h31.006v4.421h-25.676v35.426h26.586v4.354h-31.916V89.604z M160.656,110.99h-21.32V95.195
	h24.506v4.354h-19.176v7.28h15.99V110.99z M164.752,128.28h-25.416v-16.12h21.32v4.095h-15.99v7.605h20.086V128.28z"/>
<path fill="#FFFFFF" d="M170.73,89.604h5.98l12.609,20.15l-15.535,24.051h-5.46l15.276-23.726L170.73,89.604z M190.102,110.796
	l14.365,23.01h-5.851l-8.905-15.016l-9.1,15.016h-5.396L190.102,110.796z M178.141,89.604h5.785l6.631,11.181l6.564-11.181h5.33
	l-12.35,19.176L178.141,89.604z M205.961,133.806l-15.08-24.051l13.066-20.15h5.459l-12.805,19.955l15.211,24.246H205.961z"/>
<path fill="#FFFFFF" d="M39.992,39.525H58.87c8.64,0,14.207,3.968,14.207,11.264c0,5.184-2.56,8.062-6.016,9.344
	c4.032,1.151,7.872,4.096,7.872,10.303c0,7.936-5.824,12.607-16.639,12.607H39.992V39.525z M57.271,56.549
	c3.2,0,4.416-1.473,4.416-3.904s-1.088-3.968-4.288-3.968h-6.144v7.872H57.271z M58.23,73.891c3.775,0,5.056-1.728,5.056-4.543
	c0-2.816-1.344-4.48-5.056-4.48h-6.976v9.023H58.23z"/>
<path fill="#FFFFFF" d="M81.848,39.525h11.646v43.518H81.848V39.525z"/>
<path fill="#FFFFFF" d="M127.35,39.525h12.606l-14.463,18.879l16.191,24.639h-13.759l-10.367-15.807l-3.648,4.479v11.328h-11.646
	V39.525h11.646v18.047L127.35,39.525z"/>
<path fill="#FFFFFF" d="M146.871,39.525h30.525v9.791h-18.879v7.168h15.743v9.279h-15.743v7.487h19.774v9.792h-31.421V39.525z"/>
<path fill="#FFFFFF" d="M27.042,82.981c-8.773-25.838-13.249-48.228-15.241-60.167c14.771-4.042,50.677-12.296,97.261-12.296
	c33.364,0,66.089,4.185,97.354,12.448c-2.064,11.986-6.645,34.359-15.447,60.015h11.104c9.58-28.797,13.958-53.106,15.496-63.042
	l0.715-4.619l-4.503-1.252C180.233,4.734,144.999,0,109.062,0C55.409,0,15.366,10.712,4.371,13.994L0,15.299l0.676,4.512
	c1.482,9.916,5.739,34.213,15.276,63.171H27.042z"/>
<path fill="#FFFFFF" d="M164.891,140.314c-13.73,23.063-32.028,45.292-56.038,59.999c-24.004-14.707-42.251-36.936-55.915-59.999
	H40.807c15.204,27.084,36.399,53.86,65.409,70.671l2.636,1.527l2.639-1.527c29.011-16.811,50.267-43.587,65.548-70.671H164.891z"/>
</svg>
