<svg enable-background="new -1.038 -0.668 144 144" height="144" viewBox="-1.038 -.668 144 144" width="144" xmlns="http://www.w3.org/2000/svg"><g fill="#fff"><path d="m132.777 142.663c.877-.156 9.031-8.742 9.146-9.596l-30.785-34.831-9.365 10.237z"/><path d="m63.67 127.414c-17.455 0-33.587-6.589-45.424-18.553-11.668-11.794-18.148-27.701-18.245-44.793-.199-35.128 28.218-63.868 63.345-64.067l.369-.001c16.939 0 32.888 6.579 44.906 18.525 12.021 11.951 18.696 27.868 18.792 44.82.2 35.127-28.216 63.868-63.345 64.067zm.045-118.361-.316.001c-30.138.171-54.516 24.827-54.345 54.963.176 30.98 23.656 54.343 54.616 54.344l.348-.001c30.136-.171 54.514-24.828 54.343-54.963-.17-29.966-24.683-54.344-54.646-54.344z"/></g></svg>