<?xml version="1.0" encoding="utf-8"?>
<!-- Generator: Adobe Illustrator 15.0.2, SVG Export Plug-In  -->
<!DOCTYPE svg PUBLIC "-//W3C//DTD SVG 1.1//EN" "http://www.w3.org/Graphics/SVG/1.1/DTD/svg11.dtd" [
	<!ENTITY ns_flows "http://ns.adobe.com/Flows/1.0/">
]>
<svg version="1.1"
	 xmlns="http://www.w3.org/2000/svg" xmlns:xlink="http://www.w3.org/1999/xlink" xmlns:a="http://ns.adobe.com/AdobeSVGViewerExtensions/3.0/"
	 x="0px" y="0px" width="144px" height="144px" viewBox="-1.038 -0.668 144 144"
	 overflow="visible" enable-background="new -1.038 -0.668 144 144" xml:space="preserve">
<defs>
</defs>
<path fill="#D25627" d="M96.709,54.24l3.203-5.492l7.662,1.145l0.747-6.174l-28.476-4.767c-3.066,2.88,0.471,3.457,12.748,8.297
	l-3.226,5.625l-56.831-9.376c5.973-12.181,3.679-11.745,20.897-8.831l1.187-6.238c-23.788-3.755-19.329-5.658-38.702,31.6
	c-2.003,3.799-3.721,7.057-5.197,9.859c0.426,3.698,1.276,7.305,2.509,10.763c2.772-5.342,6.754-13.062,12.698-24.212
	c39.69,56.359,23.075,45.515,48.627,50.802c4.924,0.778,9.18,1.494,12.866,2.137c2.877-1.467,5.6-3.192,8.132-5.149l-26.297-4.476
	l22.419-37.073l10.078,35.875c2.007-2.172,3.822-4.524,5.415-7.036C104.88,83.398,101.547,71.578,96.709,54.24z M62.401,97.728
	L29.794,49.792L85.4,59.004L62.401,97.728z"/>
<path fill="#414042" d="M132.777,142.663c0.877-0.156,9.031-8.742,9.146-9.596l-30.785-34.831l-9.365,10.237L132.777,142.663z"/>
<path fill="#414042" d="M63.67,127.414c-17.455,0-33.587-6.589-45.424-18.553C6.578,97.067,0.098,81.16,0.001,64.068
	C-0.198,28.94,28.219,0.2,63.346,0.001L63.715,0c16.939,0,32.888,6.579,44.906,18.525c12.021,11.951,18.696,27.868,18.792,44.82
	c0.2,35.127-28.216,63.868-63.345,64.067L63.67,127.414z M63.715,9.053l-0.316,0.001C33.261,9.225,8.883,33.881,9.054,64.017
	c0.176,30.98,23.656,54.343,54.616,54.344l0.348-0.001c30.136-0.171,54.514-24.828,54.343-54.963
	C118.191,33.431,93.678,9.053,63.715,9.053z"/>
</svg>
