<svg enable-background="new -1.038 -0.668 144 144" height="144" viewBox="-1.038 -.668 144 144" width="144" xmlns="http://www.w3.org/2000/svg"><path d="m96.709 54.24 3.203-5.492 7.662 1.145.747-6.174-28.476-4.767c-3.066 2.88.471 3.457 12.748 8.297l-3.226 5.625-56.831-9.376c5.973-12.181 3.679-11.745 20.897-8.831l1.187-6.238c-23.788-3.755-19.329-5.658-38.702 31.6-2.003 3.799-3.721 7.057-5.197 9.859.426 3.698 1.276 7.305 2.509 10.763 2.772-5.342 6.754-13.062 12.698-24.212 39.69 56.359 23.075 45.515 48.627 50.802 4.924.778 9.18 1.494 12.866 2.137 2.877-1.467 5.6-3.192 8.132-5.149l-26.297-4.476 22.419-37.073 10.078 35.875c2.007-2.172 3.822-4.524 5.415-7.036-2.288-8.121-5.621-19.941-10.459-37.279zm-34.308 43.488-32.607-47.936 55.606 9.212z" fill="#d25627"/><g fill="#414042"><path d="m132.777 142.663c.877-.156 9.031-8.742 9.146-9.596l-30.785-34.831-9.365 10.237z"/><path d="m63.67 127.414c-17.455 0-33.587-6.589-45.424-18.553-11.668-11.794-18.148-27.701-18.245-44.793-.199-35.128 28.218-63.868 63.345-64.067l.369-.001c16.939 0 32.888 6.579 44.906 18.525 12.021 11.951 18.696 27.868 18.792 44.82.2 35.127-28.216 63.868-63.345 64.067zm.045-118.361-.316.001c-30.138.171-54.516 24.827-54.345 54.963.176 30.98 23.656 54.343 54.616 54.344l.348-.001c30.136-.171 54.514-24.828 54.343-54.963-.17-29.966-24.683-54.344-54.646-54.344z"/></g></svg>