<?xml version="1.0" encoding="utf-8"?>
<!-- Generator: Adobe Illustrator 15.0.2, SVG Export Plug-In  -->
<!DOCTYPE svg PUBLIC "-//W3C//DTD SVG 1.1//EN" "http://www.w3.org/Graphics/SVG/1.1/DTD/svg11.dtd" [
	<!ENTITY ns_flows "http://ns.adobe.com/Flows/1.0/">
]>
<svg version="1.1"
	 xmlns="http://www.w3.org/2000/svg" xmlns:xlink="http://www.w3.org/1999/xlink" xmlns:a="http://ns.adobe.com/AdobeSVGViewerExtensions/3.0/"
	 x="0px" y="0px" width="166px" height="163px" viewBox="0 0 166 163" overflow="visible" enable-background="new 0 0 166 163"
	 xml:space="preserve">
<defs>
</defs>
<path fill="#FFFFFF" d="M0,12.021c0,0,39.074-12.482,87-12.008L166,0v163.018l-80.881-0.331c-26.621-9-48.745-44.166-54.745-56.166
	c0,0-8.911,0.312-17.486,0.083c0.25-5.75,1.144-37.406,1.144-37.406C8.531,59.896,0,12.021,0,12.021z"/>
<g>
	<g>
		<g>
			<path fill="#2C3E50" d="M19.562,71.24h3.802v31.533h-3.802V71.24z M24.198,102.773V71.24h3.803v31.533H24.198z"/>
			<path fill="#2C3E50" d="M37.971,102.773h-3.524V70.822c0-0.278,0.139-0.509,0.649-0.092l19.893,16.461V71.24h3.524v23.325
				L37.971,77.732V102.773z M42.282,86.914v15.859h-3.477V79.494l20.542,16.833V71.24h3.479v31.996c0,0.371-0.139,0.511-0.649,0.094
				L42.282,86.914z"/>
			<path fill="#2C3E50" d="M69.084,71.24H81.28c9.089,0,15.953,5.982,15.953,15.768c0,9.783-6.863,15.766-15.953,15.766H69.084
				V71.24z M72.887,99.62h7.929c7.327,0,12.521-4.822,12.521-12.612c0-7.792-5.194-12.614-12.521-12.614h-7.929V99.62z
				 M73.721,75.228h7.095c6.864,0,11.686,4.544,11.686,11.779c0,7.232-4.822,11.777-11.686,11.777h-7.095V75.228z M80.352,95.632
				c5.102,0,8.253-3.387,8.253-8.625c0-5.241-3.151-8.626-8.253-8.626h-2.828v17.251H80.352z"/>
			<path fill="#2C3E50" d="M101.774,71.24h22.12v3.154h-18.316v25.272h18.965v3.107h-22.769V71.24z M121.621,86.498h-15.209v-11.27
				h17.482v3.107h-13.681v5.193h11.407V86.498z M124.543,98.832h-18.131V87.331h15.209v2.921h-11.407v5.426h14.329V98.832z"/>
			<path fill="#2C3E50" d="M128.809,71.24h4.266l8.994,14.375l-11.082,17.158h-3.894l10.897-16.926L128.809,71.24z M142.627,86.357
				l10.248,16.416h-4.174l-6.354-10.711l-6.49,10.711h-3.85L142.627,86.357z M134.094,71.24h4.127l4.731,7.976l4.683-7.976h3.802
				l-8.81,13.68L134.094,71.24z M153.941,102.773l-10.758-17.158l9.32-14.375h3.895l-9.134,14.236l10.851,17.297H153.941z"/>
		</g>
		<g>
			<path fill="#2C3E50" d="M35.542,35.515h13.467c6.163,0,10.135,2.831,10.135,8.035c0,3.698-1.826,5.752-4.291,6.666
				c2.876,0.821,5.615,2.922,5.615,7.35c0,5.66-4.155,8.994-11.87,8.994H35.542V35.515z M47.867,47.658
				c2.284,0,3.151-1.049,3.151-2.784c0-1.734-0.777-2.831-3.059-2.831h-4.382v5.615H47.867z M48.553,60.031
				c2.694,0,3.606-1.232,3.606-3.241c0-2.009-0.958-3.196-3.606-3.196h-4.976v6.437H48.553z"/>
			<path fill="#2C3E50" d="M65.401,35.515h8.308v31.044h-8.308V35.515z"/>
			<path fill="#2C3E50" d="M97.861,35.515h8.992L96.537,48.983l11.551,17.576h-9.816l-7.395-11.276l-2.604,3.196v8.08h-8.308V35.515
				h8.308v12.875L97.861,35.515z"/>
			<path fill="#2C3E50" d="M111.787,35.515h21.776V42.5h-13.468v5.113h11.23v6.62h-11.23v5.341h14.106v6.985h-22.415V35.515z"/>
		</g>
		<g>
			<path fill="#2C3E50" d="M26.303,66.516c-6.258-18.432-9.452-34.405-10.872-42.922c10.537-2.883,36.151-8.771,69.383-8.771
				c23.801,0,47.146,2.985,69.449,8.881c-1.471,8.55-4.738,24.51-11.018,42.813h7.922c6.834-20.543,9.957-37.885,11.055-44.974
				l0.51-3.295l-3.213-0.893c-23.932-6.658-49.066-10.036-74.705-10.036c-38.274,0-66.84,7.641-74.684,9.982l-3.12,0.931
				l0.483,3.219c1.058,7.074,4.095,24.407,10.898,45.065H26.303z"/>
			<path fill="#2C3E50" d="M124.643,107.416c-9.795,16.453-22.85,32.311-39.977,42.803c-17.125-10.492-30.141-26.35-39.889-42.803
				h-8.654c10.847,19.321,25.967,38.423,46.662,50.414l1.88,1.091l1.882-1.091c20.697-11.99,35.859-31.093,46.762-50.414H124.643z"
				/>
		</g>
	</g>
</g>
</svg>
