<svg enable-background="new 0 0 98 95" height="95" viewBox="0 0 98 95" width="98" xmlns="http://www.w3.org/2000/svg"><g fill="#fff"><path d="m58.657 40.42h12.786v1.823h-10.588v14.608h10.963v1.797h-13.161zm11.474 8.82h-8.792v-6.515h10.104v1.796h-7.907v3.002h6.595zm1.687 7.13h-10.479v-6.647h8.792v1.688h-6.595v3.137h8.282z"/><path d="m74.285 40.42h2.466l5.2 8.311-6.406 9.918h-2.251l6.3-9.783zm7.988 8.738 5.925 9.49h-2.413l-3.674-6.191-3.752 6.191h-2.227zm-4.932-8.738h2.386l2.735 4.61 2.706-4.61h2.198l-5.093 7.908zm11.471 18.228-6.217-9.918 5.387-8.312h2.252l-5.279 8.229 6.271 9.998h-2.414z"/><path d="m20.37 19.768h7.785c3.563 0 5.859 1.637 5.859 4.645 0 2.138-1.056 3.326-2.48 3.854 1.663.475 3.246 1.689 3.246 4.249 0 3.272-2.402 5.199-6.862 5.199h-7.548zm7.124 7.02c1.321 0 1.822-.606 1.822-1.61 0-1.002-.449-1.636-1.768-1.636h-2.533v3.246zm.397 7.152c1.557 0 2.084-.712 2.084-1.874 0-1.161-.554-1.847-2.084-1.847h-2.876v3.721z"/><path d="m37.63 19.768h4.803v17.946h-4.803z"/><path d="m56.396 19.768h5.196l-5.964 7.786 6.678 10.161h-5.675l-4.274-6.519-1.504 1.848v4.671h-4.803v-17.947h4.804v7.442z"/><path d="m64.445 19.768h12.589v4.038h-7.786v2.956h6.493v3.827h-6.493v3.087h8.154v4.038h-12.957z"/><path d="m15.029 37.689c-3.617-10.655-5.464-19.889-6.285-24.813 6.091-1.667 20.898-5.071 40.109-5.071 13.758 0 27.254 1.726 40.147 5.134-.852 4.943-2.738 14.169-6.369 24.75h4.579c3.95-11.875 5.756-21.901 6.39-25.999l.295-1.904-1.856-.516c-13.835-3.849-28.365-5.802-43.185-5.802-22.126 0-38.64 4.417-43.173 5.771l-1.805.538.28 1.861c.611 4.089 2.367 14.109 6.299 26.051z"/><path d="m58.657 40.42h12.786v1.823h-10.588v14.608h10.963v1.797h-13.161zm11.474 8.82h-8.792v-6.515h10.104v1.796h-7.907v3.002h6.595zm1.687 7.13h-10.479v-6.647h8.792v1.688h-6.595v3.137h8.282z"/><path d="m74.285 40.42h2.466l5.2 8.311-6.406 9.918h-2.251l6.3-9.783zm7.988 8.738 5.925 9.49h-2.413l-3.674-6.191-3.752 6.191h-2.227zm-4.932-8.738h2.386l2.735 4.61 2.706-4.61h2.198l-5.093 7.908zm11.471 18.228-6.217-9.918 5.387-8.312h2.252l-5.279 8.229 6.271 9.998h-2.414z"/><path d="m20.37 19.768h7.785c3.563 0 5.859 1.637 5.859 4.645 0 2.138-1.056 3.326-2.48 3.854 1.663.475 3.246 1.689 3.246 4.249 0 3.272-2.402 5.199-6.862 5.199h-7.548zm7.124 7.02c1.321 0 1.822-.606 1.822-1.61 0-1.002-.449-1.636-1.768-1.636h-2.533v3.246zm.397 7.152c1.557 0 2.084-.712 2.084-1.874 0-1.161-.554-1.847-2.084-1.847h-2.876v3.721z"/><path d="m37.63 19.768h4.803v17.946h-4.803z"/><path d="m56.396 19.768h5.196l-5.964 7.786 6.678 10.161h-5.675l-4.274-6.519-1.504 1.848v4.671h-4.803v-17.947h4.804v7.442z"/><path d="m64.445 19.768h12.589v4.038h-7.786v2.956h6.493v3.827h-6.493v3.087h8.154v4.038h-12.957z"/><path d="m15.029 37.689c-3.617-10.655-5.464-19.889-6.285-24.813 6.091-1.667 20.898-5.071 40.109-5.071 13.758 0 27.254 1.726 40.147 5.134-.852 4.943-2.738 14.169-6.369 24.75h4.579c3.95-11.875 5.756-21.901 6.39-25.999l.295-1.904-1.856-.516c-13.835-3.849-28.365-5.802-43.185-5.802-22.126 0-38.64 4.417-43.173 5.771l-1.805.538.28 1.861c.611 4.089 2.367 14.109 6.299 26.051z"/><path d="m75.288 62.117h-20.099v-25.165h19.724v11.038h-1.313v3.088h1.688z"/><path d="m27.917 41.183h-11.016v-24.884h11.253c5.579 0 9.327 3.261 9.327 8.113 0 1.239-.242 2.382-.698 3.388.949 1.289 1.464 2.896 1.464 4.715.001 3.998-2.705 8.668-10.33 8.668z"/><path d="m34.162 16.299h11.74v24.883h-11.74z"/><path d="m68.736 41.183h-13.976l-.44-.668v.668h-11.738v-24.884h11.738v.446l.332-.446h13.968l-8.738 11.409z"/><path d="m80.872 41.183h-19.895v-24.884h19.526v10.975h-1.294v2.934h1.663z"/><path d="m96.581 36.952h-5.484c3.661-11.452 5.358-21.023 5.933-24.731l.766-4.951-4.826-1.342c-14.14-3.934-28.982-5.928-44.116-5.928-22.594 0-39.517 4.527-44.166 5.915l-4.688 1.399.726 4.836c.583 3.9 2.377 14.3 6.435 26.625l.503 1.528v21.815h9.506l.511.911c7.769 13.84 17.277 24.084 28.259 30.447l2.826 1.639 2.828-1.639c10.979-6.36 20.504-16.602 28.313-30.439l.519-.92h17.071l-8.435-13.446z"/></g><path d="m11.132 40.42h2.198v18.229h-2.198zm2.68 18.228v-18.228h2.198v18.229h-2.198z" fill="#2c3e50"/><path d="m21.774 58.648h-2.038v-18.47c0-.161.081-.294.375-.053l11.5 9.516v-9.221h2.038v13.484l-11.875-9.731zm2.493-9.168v9.168h-2.01v-13.456l11.874 9.73v-14.502h2.011v18.496c0 .215-.081.295-.375.055z" fill="#2c3e50"/><path d="m39.76 40.42h7.05c5.254 0 9.222 3.458 9.222 9.115 0 5.654-3.968 9.113-9.222 9.113h-7.05zm2.198 16.406h4.583c4.236 0 7.238-2.788 7.238-7.291 0-4.505-3.002-7.292-7.238-7.292h-4.583zm.482-14.1h4.101c3.968 0 6.755 2.626 6.755 6.81 0 4.181-2.787 6.81-6.755 6.81h-4.101zm3.833 11.795c2.95 0 4.771-1.957 4.771-4.985 0-3.03-1.822-4.987-4.771-4.987h-1.635v9.973h1.635z" fill="#2c3e50"/><path d="m58.657 40.42h12.786v1.823h-10.588v14.608h10.963v1.797h-13.161zm11.474 8.82h-8.792v-6.515h10.104v1.796h-7.907v3.002h6.595zm1.687 7.13h-10.479v-6.647h8.792v1.688h-6.595v3.137h8.282z" fill="#2c3e50"/><path d="m74.285 40.42h2.466l5.2 8.311-6.406 9.918h-2.251l6.3-9.783zm7.988 8.738 5.925 9.49h-2.413l-3.674-6.191-3.752 6.191h-2.227zm-4.932-8.738h2.386l2.735 4.61 2.706-4.61h2.198l-5.093 7.908zm11.471 18.228-6.217-9.918 5.387-8.312h2.252l-5.279 8.229 6.271 9.998h-2.414z" fill="#2c3e50"/><path d="m20.37 19.768h7.785c3.563 0 5.859 1.637 5.859 4.645 0 2.138-1.056 3.326-2.48 3.854 1.663.475 3.246 1.689 3.246 4.249 0 3.272-2.402 5.199-6.862 5.199h-7.548zm7.124 7.02c1.321 0 1.822-.606 1.822-1.61 0-1.002-.449-1.636-1.768-1.636h-2.533v3.246zm.397 7.152c1.557 0 2.084-.712 2.084-1.874 0-1.161-.554-1.847-2.084-1.847h-2.876v3.721z" fill="#2c3e50"/><path d="m37.63 19.768h4.803v17.946h-4.803z" fill="#2c3e50"/><path d="m56.396 19.768h5.196l-5.964 7.786 6.678 10.161h-5.675l-4.274-6.519-1.504 1.848v4.671h-4.803v-17.947h4.804v7.442z" fill="#2c3e50"/><path d="m64.445 19.768h12.589v4.038h-7.786v2.956h6.493v3.827h-6.493v3.087h8.154v4.038h-12.957z" fill="#2c3e50"/><path d="m15.029 37.689c-3.617-10.655-5.464-19.889-6.285-24.813 6.091-1.667 20.898-5.071 40.109-5.071 13.758 0 27.254 1.726 40.147 5.134-.852 4.943-2.738 14.169-6.369 24.75h4.579c3.95-11.875 5.756-21.901 6.39-25.999l.295-1.904-1.856-.516c-13.835-3.849-28.365-5.802-43.185-5.802-22.126 0-38.64 4.417-43.173 5.771l-1.805.538.28 1.861c.611 4.089 2.367 14.109 6.299 26.051z" fill="#2c3e50"/><path d="m71.877 61.332c-5.662 9.512-13.209 18.679-23.109 24.744-9.899-6.065-17.424-15.232-23.06-24.744h-5.002c6.27 11.17 15.011 22.212 26.974 29.145l1.087.631 1.088-.631c11.965-6.932 20.729-17.975 27.031-29.145z" fill="#2c3e50"/></svg>