<?xml version="1.0" encoding="utf-8"?>
<!-- Generator: Adobe Illustrator 15.0.2, SVG Export Plug-In  -->
<!DOCTYPE svg PUBLIC "-//W3C//DTD SVG 1.1//EN" "http://www.w3.org/Graphics/SVG/1.1/DTD/svg11.dtd" [
	<!ENTITY ns_flows "http://ns.adobe.com/Flows/1.0/">
]>
<svg version="1.1"
	 xmlns="http://www.w3.org/2000/svg" xmlns:xlink="http://www.w3.org/1999/xlink" xmlns:a="http://ns.adobe.com/AdobeSVGViewerExtensions/3.0/"
	 x="0px" y="0px" width="98px" height="95px" viewBox="0 0 98 95" overflow="visible" enable-background="new 0 0 98 95"
	 xml:space="preserve">
<defs>
</defs>
<path fill="#FFFFFF" d="M11.132,40.42h2.198v18.229h-2.198V40.42z M13.812,58.648V40.42h2.198v18.229H13.812z"/>
<path fill="#FFFFFF" d="M21.774,58.648h-2.038v-18.47c0-0.161,0.081-0.294,0.375-0.053l11.5,9.516V40.42h2.038v13.484l-11.875-9.731
	V58.648z M24.267,49.48v9.168h-2.01V45.192l11.874,9.73V40.42h2.011v18.496c0,0.215-0.081,0.295-0.375,0.055L24.267,49.48z"/>
<path fill="#FFFFFF" d="M39.76,40.42h7.05c5.255,0,9.222,3.458,9.222,9.115c0,5.655-3.967,9.113-9.222,9.113h-7.05V40.42z
	 M41.958,56.826h4.583c4.236,0,7.239-2.788,7.239-7.291c0-4.505-3.003-7.292-7.239-7.292h-4.583V56.826z M42.44,42.726h4.101
	c3.968,0,6.755,2.626,6.755,6.81c0,4.181-2.787,6.809-6.755,6.809H42.44V42.726z M46.273,54.521c2.95,0,4.771-1.957,4.771-4.985
	c0-3.03-1.822-4.987-4.771-4.987h-1.635v9.972H46.273z"/>
<path fill="#FFFFFF" d="M58.657,40.42h12.787v1.823H60.855v14.609h10.964v1.796H58.657V40.42z M70.131,49.24h-8.792v-6.515h10.105
	v1.796h-7.908v3.002h6.595V49.24z M71.819,56.37h-10.48v-6.648h8.792v1.688h-6.595v3.137h8.283V56.37z"/>
<path fill="#FFFFFF" d="M74.285,40.42h2.466l5.2,8.311l-6.406,9.918h-2.251l6.3-9.785L74.285,40.42z M82.273,49.158l5.925,9.49
	h-2.413l-3.673-6.191l-3.753,6.191h-2.225L82.273,49.158z M77.341,40.42h2.386l2.735,4.61l2.706-4.61h2.198l-5.093,7.908
	L77.341,40.42z M88.813,58.648l-6.218-9.918l5.388-8.311h2.251l-5.279,8.23l6.272,9.998H88.813z"/>
<path fill="#FFFFFF" d="M20.37,19.768h7.785c3.563,0,5.859,1.637,5.859,4.645c0,2.138-1.056,3.326-2.48,3.854
	c1.663,0.475,3.246,1.689,3.246,4.249c0,3.272-2.402,5.199-6.862,5.199H20.37V19.768z M27.494,26.788
	c1.321,0,1.822-0.606,1.822-1.61c0-1.002-0.449-1.636-1.768-1.636h-2.533v3.246H27.494z M27.891,33.94
	c1.557,0,2.084-0.712,2.084-1.874c0-1.161-0.554-1.847-2.084-1.847h-2.876v3.721H27.891z"/>
<path fill="#FFFFFF" d="M37.63,19.768h4.803v17.946H37.63V19.768z"/>
<path fill="#FFFFFF" d="M56.396,19.768h5.198l-5.964,7.786l6.677,10.161h-5.674l-4.275-6.519l-1.505,1.848v4.671H46.05V19.768h4.803
	v7.442L56.396,19.768z"/>
<path fill="#FFFFFF" d="M64.445,19.768h12.589v4.038h-7.786v2.956h6.493v3.827h-6.493v3.087h8.155v4.038H64.445V19.768z"/>
<path fill="#FFFFFF" d="M15.029,37.689C11.412,27.034,9.565,17.8,8.744,12.876c6.091-1.667,20.898-5.071,40.109-5.071
	c13.759,0,27.254,1.726,40.147,5.134c-0.851,4.943-2.739,14.169-6.369,24.75h4.579c3.95-11.875,5.756-21.901,6.39-25.999
	l0.295-1.904L92.039,9.27C78.204,5.421,63.674,3.468,48.854,3.468c-22.126,0-38.64,4.417-43.173,5.771L3.876,9.777l0.28,1.861
	c0.611,4.089,2.367,14.109,6.299,26.051H15.029z"/>
<path fill="#FFFFFF" d="M71.877,61.332c-5.662,9.512-13.209,18.679-23.109,24.744c-9.899-6.065-17.424-15.232-23.06-24.744h-5.002
	c6.27,11.17,15.011,22.212,26.974,29.145l1.087,0.63l1.088-0.63c11.965-6.932,20.729-17.975,27.032-29.145H71.877z"/>
<path fill="#FFFFFF" d="M11.132,40.42h2.198v18.229h-2.198V40.42z M13.812,58.648V40.42h2.198v18.229H13.812z"/>
<path fill="#FFFFFF" d="M21.774,58.648h-2.038v-18.47c0-0.161,0.081-0.294,0.375-0.053l11.5,9.516V40.42h2.038v13.484l-11.875-9.731
	V58.648z M24.267,49.48v9.168h-2.01V45.192l11.874,9.73V40.42h2.011v18.496c0,0.215-0.081,0.295-0.375,0.055L24.267,49.48z"/>
<path fill="#FFFFFF" d="M39.76,40.42h7.05c5.255,0,9.222,3.458,9.222,9.115c0,5.655-3.967,9.113-9.222,9.113h-7.05V40.42z
	 M41.958,56.826h4.583c4.236,0,7.239-2.788,7.239-7.291c0-4.505-3.003-7.292-7.239-7.292h-4.583V56.826z M42.44,42.726h4.101
	c3.968,0,6.755,2.626,6.755,6.81c0,4.181-2.787,6.809-6.755,6.809H42.44V42.726z M46.273,54.521c2.95,0,4.771-1.957,4.771-4.985
	c0-3.03-1.822-4.987-4.771-4.987h-1.635v9.972H46.273z"/>
<path fill="#FFFFFF" d="M58.657,40.42h12.787v1.823H60.855v14.609h10.964v1.796H58.657V40.42z M70.131,49.24h-8.792v-6.515h10.105
	v1.796h-7.908v3.002h6.595V49.24z M71.819,56.37h-10.48v-6.648h8.792v1.688h-6.595v3.137h8.283V56.37z"/>
<path fill="#FFFFFF" d="M74.285,40.42h2.466l5.2,8.311l-6.406,9.918h-2.251l6.3-9.785L74.285,40.42z M82.273,49.158l5.925,9.49
	h-2.413l-3.673-6.191l-3.753,6.191h-2.225L82.273,49.158z M77.341,40.42h2.386l2.735,4.61l2.706-4.61h2.198l-5.093,7.908
	L77.341,40.42z M88.813,58.648l-6.218-9.918l5.388-8.311h2.251l-5.279,8.23l6.272,9.998H88.813z"/>
<path fill="#FFFFFF" d="M20.37,19.768h7.785c3.563,0,5.859,1.637,5.859,4.645c0,2.138-1.056,3.326-2.48,3.854
	c1.663,0.475,3.246,1.689,3.246,4.249c0,3.272-2.402,5.199-6.862,5.199H20.37V19.768z M27.494,26.788
	c1.321,0,1.822-0.606,1.822-1.61c0-1.002-0.449-1.636-1.768-1.636h-2.533v3.246H27.494z M27.891,33.94
	c1.557,0,2.084-0.712,2.084-1.874c0-1.161-0.554-1.847-2.084-1.847h-2.876v3.721H27.891z"/>
<path fill="#FFFFFF" d="M37.63,19.768h4.803v17.946H37.63V19.768z"/>
<path fill="#FFFFFF" d="M56.396,19.768h5.198l-5.964,7.786l6.677,10.161h-5.674l-4.275-6.519l-1.505,1.848v4.671H46.05V19.768h4.803
	v7.442L56.396,19.768z"/>
<path fill="#FFFFFF" d="M64.445,19.768h12.589v4.038h-7.786v2.956h6.493v3.827h-6.493v3.087h8.155v4.038H64.445V19.768z"/>
<path fill="#FFFFFF" d="M15.029,37.689C11.412,27.034,9.565,17.8,8.744,12.876c6.091-1.667,20.898-5.071,40.109-5.071
	c13.759,0,27.254,1.726,40.147,5.134c-0.851,4.943-2.739,14.169-6.369,24.75h4.579c3.95-11.875,5.756-21.901,6.39-25.999
	l0.295-1.904L92.039,9.27C78.204,5.421,63.674,3.468,48.854,3.468c-22.126,0-38.64,4.417-43.173,5.771L3.876,9.777l0.28,1.861
	c0.611,4.089,2.367,14.109,6.299,26.051H15.029z"/>
<path fill="#FFFFFF" d="M71.877,61.332c-5.662,9.512-13.209,18.679-23.109,24.744c-9.899-6.065-17.424-15.232-23.06-24.744h-5.002
	c6.27,11.17,15.011,22.212,26.974,29.145l1.087,0.63l1.088-0.63c11.965-6.932,20.729-17.975,27.032-29.145H71.877z"/>
<rect x="7.664" y="36.952" fill="#FFFFFF" width="11.815" height="25.166"/>
<path fill="#FFFFFF" d="M36.038,62.586c-0.882,0-1.712-0.312-2.467-0.931l-5.836-4.815v5.277H16.268V40.179
	c0-1.48,0.822-2.729,2.038-3.308v-0.024l0.019,0.016c0.462-0.217,0.98-0.337,1.53-0.337c0.609,0,1.528,0.159,2.453,0.916
	l5.835,4.828v-5.318H39.61v21.964c0,1.48-0.811,2.729-2.011,3.314v0.018l-0.014-0.011C37.12,62.461,36.596,62.586,36.038,62.586z"/>
<path fill="#FFFFFF" d="M46.81,62.117H36.292V36.952H46.81c7.354,0,12.69,5.292,12.69,12.583
	C59.5,56.825,54.163,62.117,46.81,62.117z"/>
<polygon fill="#FFFFFF" points="75.288,62.117 55.189,62.117 55.189,36.952 74.913,36.952 74.913,47.99 73.599,47.99 73.599,51.078 
	75.288,51.078 "/>
<polygon fill="#FFFFFF" points="97.497,62.117 78.81,62.117 82.081,59.201 80.313,62.117 66.936,62.117 75.482,48.842 
	68.008,36.952 81.702,36.952 82.446,38.206 83.183,36.952 96.581,36.952 89.062,48.671 "/>
<path fill="#FFFFFF" d="M27.917,41.183H16.901V16.299h11.253c5.579,0,9.327,3.261,9.327,8.113c0,1.239-0.242,2.382-0.698,3.388
	c0.949,1.289,1.464,2.896,1.464,4.715C38.248,36.513,35.542,41.183,27.917,41.183z"/>
<rect x="34.162" y="16.299" fill="#FFFFFF" width="11.74" height="24.883"/>
<polygon fill="#FFFFFF" points="68.736,41.183 54.76,41.183 54.321,40.515 54.321,41.183 42.582,41.183 42.582,16.299 
	54.321,16.299 54.321,16.745 54.653,16.299 68.62,16.299 59.882,27.708 "/>
<polygon fill="#FFFFFF" points="80.872,41.183 60.977,41.183 60.977,16.299 80.503,16.299 80.503,27.274 79.209,27.274 
	79.209,30.208 80.872,30.208 "/>
<path fill="#FFFFFF" d="M89.712,41.158H77.774l1.576-4.594c2.902-8.461,4.665-16.054,5.649-21.058
	c-11.653-2.809-23.798-4.231-36.146-4.231c-16.185,0-29.232,2.497-36.126,4.161c0.957,4.999,2.69,12.609,5.586,21.139l1.556,4.584
	H7.946l-0.785-2.384C3.103,26.45,1.309,16.05,0.726,12.15L0,7.314l4.688-1.399C9.337,4.527,26.26,0,48.854,0
	c15.134,0,29.976,1.994,44.115,5.928l4.826,1.342l-0.766,4.951c-0.604,3.904-2.45,14.306-6.527,26.563L89.712,41.158z"/>
<path fill="#FFFFFF" d="M48.766,95.115l-2.826-1.639C34.958,87.113,25.45,76.869,17.681,63.03l-2.9-5.167h12.903l1.008,1.701
	c5.799,9.789,12.545,17.31,20.075,22.389c7.536-5.081,14.301-12.604,20.129-22.395l1.009-1.695h12.921l-2.919,5.174
	c-7.809,13.838-17.334,24.079-28.313,30.44L48.766,95.115z"/>
<path fill="#FFFFFF" d="M87.482,11.464c-4.19-3.403-10.104-3.762-15.272-4.219c-0.94-0.083-1.882-0.153-2.823-0.229
	c-0.149-0.012-0.298-0.027-0.448-0.04c-0.087-0.014-0.196-0.03-0.331-0.05c-0.582-0.094-1.165-0.178-1.749-0.261
	c-4.247-0.603-8.459-0.947-12.675,0.104c-1.106,0.276-2.053,0.967-2.755,1.868c-0.078-0.003-0.156-0.012-0.236-0.012
	c-4.96,0.014-9.91,0.294-14.861,0.569c-4.786,0.264-9.682,0.713-14.473,0.379C17.5,9.27,13.055,9.321,9.727,12.602
	c-3.95,3.894-2.315,9.466-1.076,14.098c0.518,1.935,0.839,3.892,1.469,5.801c0.674,2.044,1.57,4.039,2.563,5.947
	c1.792,3.443,4.203,6.537,6.497,9.652c1.61,2.185,3.041,4.429,4.348,6.759c-1.12,2.07-0.958,4.906,0.889,6.528
	c0.421,0.37,0.815,0.762,1.196,1.173c0.177,0.191,0.729,0.885,0.888,1.076c0.586,0.805,1.138,1.637,1.672,2.478
	c0.772,1.725,1.667,3.331,2.884,4.685c0.835,1.37,1.682,2.734,2.579,4.066c4.022,5.971,9.287,11.358,17.065,10.289
	c3.759-0.516,7.102-3.181,9.86-5.594c3.35-2.928,6.14-6.52,8.716-10.125c5.305-7.424,8.165-15.271,11.918-23.235
	c1.694-3.596,3.314-7.242,4.607-11.002c0.911-2.649,1.339-5.391,2.1-8.076C89.241,22.387,92.196,15.291,87.482,11.464z
	 M44.076,37.378c0.11-0.038,0.22-0.076,0.326-0.121c-0.052,0.077-0.104,0.154-0.156,0.23c-0.03,0.043-0.06,0.087-0.09,0.132
	C44.129,37.54,44.103,37.459,44.076,37.378z M48.065,54.545c-0.006,0.062-0.011,0.112-0.015,0.162
	c-0.026,0.135-0.049,0.271-0.081,0.406c-0.013-0.316-0.023-0.633-0.03-0.949c-0.008-0.5,0.018-1,0.05-1.499
	c-0.04,0.599,0.021,0.464,0.104,0.125C48.1,53.375,48.1,53.961,48.065,54.545z"/>
<path fill="#FFFFFF" d="M48.745,85.578L48.745,85.578c-7.386,0-12.298-6.023-15.349-10.553c-0.925-1.374-1.79-2.771-2.586-4.078
	c-1.059-1.172-1.991-2.684-2.901-4.717c-0.593-0.927-1.121-1.709-1.642-2.426l-0.22-0.27c-0.224-0.276-0.525-0.648-0.646-0.779
	c-0.399-0.432-0.784-0.809-1.175-1.152c-2.032-1.785-2.054-4.707-1.027-6.741c-1.329-2.356-2.72-4.515-4.251-6.593l-0.901-1.217
	c-1.991-2.683-4.05-5.458-5.62-8.473c-1.111-2.133-1.956-4.092-2.581-5.989c-0.391-1.185-0.667-2.401-0.935-3.578
	c-0.167-0.736-0.34-1.497-0.539-2.239L8.27,26.395c-1.207-4.497-2.708-10.092,1.254-13.999c2.904-2.863,6.551-3.23,9.404-3.23
	c0.848,0,1.785,0.038,2.95,0.119c1.141,0.08,2.329,0.119,3.631,0.119c2.702,0,5.459-0.171,8.126-0.337
	c0.896-0.056,1.79-0.111,2.68-0.16l0.327-0.019c4.764-0.264,9.691-0.538,14.549-0.551c0.036,0,0.071,0.001,0.105,0.003
	c0.772-0.945,1.743-1.583,2.816-1.851c1.846-0.46,3.791-0.685,5.946-0.685c2.476,0,4.956,0.307,6.84,0.575
	c0.586,0.083,1.171,0.168,1.754,0.262l0.756,0.087l0.949,0.075c0.626,0.049,1.252,0.099,1.877,0.154l0.758,0.066
	c4.976,0.433,10.615,0.923,14.672,4.216c4.309,3.498,2.419,9.683,1.04,14.2c-0.188,0.613-0.368,1.203-0.525,1.761
	c-0.307,1.083-0.564,2.198-0.813,3.276c-0.366,1.586-0.745,3.228-1.291,4.814c-1.374,3.997-3.106,7.819-4.619,11.032
	c-0.906,1.923-1.773,3.868-2.611,5.749c-2.723,6.109-5.295,11.879-9.333,17.531c-2.37,3.316-5.265,7.119-8.761,10.176
	c-3.022,2.642-6.327,5.156-10.012,5.662C50.068,85.531,49.397,85.578,48.745,85.578z M18.929,9.744c-4.074,0-6.85,0.945-8.999,3.063
	c-3.723,3.67-2.331,8.859-1.102,13.438l0.102,0.38c0.202,0.753,0.375,1.52,0.544,2.261c0.264,1.163,0.538,2.366,0.919,3.524
	c0.616,1.867,1.449,3.798,2.545,5.903c1.549,2.975,3.593,5.73,5.571,8.396l0.902,1.219c1.574,2.137,3.002,4.358,4.366,6.789
	l0.078,0.14l-0.076,0.139c-0.968,1.791-1.007,4.564,0.826,6.175c0.406,0.356,0.805,0.747,1.217,1.194
	c0.126,0.135,0.439,0.521,0.671,0.808l0.228,0.278c0.54,0.742,1.074,1.533,1.693,2.508c0.905,2.014,1.806,3.479,2.855,4.646
	c0.825,1.343,1.686,2.734,2.604,4.099C36.853,79.123,41.634,85,48.745,85h0c0.626,0,1.271-0.045,1.915-0.134
	c3.534-0.485,6.756-2.942,9.71-5.524c3.452-3.018,6.32-6.787,8.672-10.076c4.004-5.605,6.564-11.35,9.275-17.432
	c0.838-1.883,1.707-3.83,2.615-5.759c1.507-3.198,3.231-7.002,4.596-10.973c0.536-1.559,0.912-3.184,1.274-4.757
	c0.251-1.084,0.51-2.206,0.82-3.303c0.159-0.561,0.34-1.154,0.528-1.772c1.406-4.602,3.155-10.33-0.851-13.582
	c-3.92-3.182-9.465-3.664-14.358-4.089l-0.758-0.066c-0.623-0.056-1.247-0.104-1.872-0.154l-1.748-0.167
	C67.981,7.117,67.4,7.033,66.818,6.95c-1.865-0.265-4.319-0.569-6.759-0.569c-2.107,0-4.007,0.218-5.807,0.667
	c-0.991,0.247-1.89,0.857-2.596,1.765l-0.092,0.118l-0.244-0.012c-0.043-0.003-0.086-0.006-0.129-0.006
	C46.35,8.927,41.432,9.2,36.675,9.464l-0.328,0.018c-0.889,0.049-1.781,0.104-2.676,0.16c-2.675,0.166-5.441,0.338-8.162,0.338
	c-1.316,0-2.517-0.039-3.671-0.12C20.688,9.781,19.763,9.744,18.929,9.744z M47.772,57.274l-0.09-2.149
	c-0.014-0.318-0.024-0.637-0.031-0.955c-0.008-0.523,0.019-1.037,0.05-1.516c0-0.003,0-0.006,0-0.008l0.129,0.008l0.532-2.158
	l0.021,2.291c0.004,0.533,0.007,1.154-0.03,1.775l-0.038,0.293c-0.02,0.107-0.04,0.215-0.064,0.322L47.772,57.274z M44.069,38.269
	l-0.356-1.066l0.267-0.097c0.129-0.045,0.221-0.077,0.309-0.114l0.896-0.38L44.069,38.269z"/>
<path fill="#2C3E50" d="M11.132,40.42h2.198v18.229h-2.198V40.42z M13.812,58.648V40.42h2.198v18.229H13.812z"/>
<path fill="#2C3E50" d="M21.774,58.648h-2.038v-18.47c0-0.161,0.081-0.294,0.375-0.053l11.5,9.516V40.42h2.038v13.484l-11.875-9.731
	V58.648z M24.267,49.48v9.168h-2.01V45.192l11.874,9.73V40.42h2.011v18.496c0,0.215-0.081,0.295-0.375,0.055L24.267,49.48z"/>
<path fill="#2C3E50" d="M39.76,40.42h7.05c5.255,0,9.222,3.458,9.222,9.115c0,5.655-3.967,9.113-9.222,9.113h-7.05V40.42z
	 M41.958,56.826h4.583c4.236,0,7.239-2.788,7.239-7.291c0-4.505-3.003-7.292-7.239-7.292h-4.583V56.826z M42.44,42.726h4.101
	c3.968,0,6.755,2.626,6.755,6.81c0,4.181-2.787,6.809-6.755,6.809H42.44V42.726z M46.273,54.521c2.95,0,4.771-1.957,4.771-4.985
	c0-3.03-1.822-4.987-4.771-4.987h-1.635v9.972H46.273z"/>
<path fill="#2C3E50" d="M58.657,40.42h12.787v1.823H60.855v14.609h10.964v1.796H58.657V40.42z M70.131,49.24h-8.792v-6.515h10.105
	v1.796h-7.908v3.002h6.595V49.24z M71.819,56.37h-10.48v-6.648h8.792v1.688h-6.595v3.137h8.283V56.37z"/>
<path fill="#2C3E50" d="M74.285,40.42h2.466l5.2,8.311l-6.406,9.918h-2.251l6.3-9.785L74.285,40.42z M82.273,49.158l5.925,9.49
	h-2.413l-3.673-6.191l-3.753,6.191h-2.225L82.273,49.158z M77.341,40.42h2.386l2.735,4.61l2.706-4.61h2.198l-5.093,7.908
	L77.341,40.42z M88.813,58.648l-6.218-9.918l5.388-8.311h2.251l-5.279,8.23l6.272,9.998H88.813z"/>
<path fill="#2C3E50" d="M20.37,19.768h7.785c3.563,0,5.859,1.637,5.859,4.645c0,2.138-1.056,3.326-2.48,3.854
	c1.663,0.475,3.246,1.689,3.246,4.249c0,3.272-2.402,5.199-6.862,5.199H20.37V19.768z M27.494,26.788
	c1.321,0,1.822-0.606,1.822-1.61c0-1.002-0.449-1.636-1.768-1.636h-2.533v3.246H27.494z M27.891,33.94
	c1.557,0,2.084-0.712,2.084-1.874c0-1.161-0.554-1.847-2.084-1.847h-2.876v3.721H27.891z"/>
<path fill="#2C3E50" d="M37.63,19.768h4.803v17.946H37.63V19.768z"/>
<path fill="#2C3E50" d="M56.396,19.768h5.198l-5.964,7.786l6.677,10.161h-5.674l-4.275-6.519l-1.505,1.848v4.671H46.05V19.768h4.803
	v7.442L56.396,19.768z"/>
<path fill="#2C3E50" d="M64.445,19.768h12.589v4.038h-7.786v2.956h6.493v3.827h-6.493v3.087h8.155v4.038H64.445V19.768z"/>
<path fill="#2C3E50" d="M15.029,37.689C11.412,27.034,9.565,17.8,8.744,12.876c6.091-1.667,20.898-5.071,40.109-5.071
	c13.759,0,27.254,1.726,40.147,5.134c-0.851,4.943-2.739,14.169-6.369,24.75h4.579c3.95-11.875,5.756-21.901,6.39-25.999
	l0.295-1.904L92.039,9.27C78.204,5.421,63.674,3.468,48.854,3.468c-22.126,0-38.64,4.417-43.173,5.771L3.876,9.777l0.28,1.861
	c0.611,4.089,2.367,14.109,6.299,26.051H15.029z"/>
<path fill="#2C3E50" d="M71.877,61.332c-5.662,9.512-13.209,18.679-23.109,24.744c-9.899-6.065-17.424-15.232-23.06-24.744h-5.002
	c6.27,11.17,15.011,22.212,26.974,29.145l1.087,0.63l1.088-0.63c11.965-6.932,20.729-17.975,27.032-29.145H71.877z"/>
</svg>
