<?xml version="1.0" encoding="utf-8"?>
<!-- Generator: Adobe Illustrator 15.0.2, SVG Export Plug-In  -->
<!DOCTYPE svg PUBLIC "-//W3C//DTD SVG 1.1//EN" "http://www.w3.org/Graphics/SVG/1.1/DTD/svg11.dtd" [
	<!ENTITY ns_flows "http://ns.adobe.com/Flows/1.0/">
]>
<svg version="1.1"
	 xmlns="http://www.w3.org/2000/svg" xmlns:xlink="http://www.w3.org/1999/xlink" xmlns:a="http://ns.adobe.com/AdobeSVGViewerExtensions/3.0/"
	 x="0px" y="0px" width="37px" height="37px" viewBox="0 0 37 37" overflow="visible" enable-background="new 0 0 37 37"
	 xml:space="preserve">
<defs>
</defs>
<path fill="#ECF0F1" d="M30.076,26.803c2.141-2.828,3.406-6.354,3.385-10.168c-0.025-4.451-1.777-8.631-4.936-11.77
	C25.369,1.729,21.181,0,16.733,0h-0.097C7.412,0.053-0.051,7.6,0,16.824c0.026,4.489,1.728,8.667,4.792,11.764
	c3.107,3.141,7.345,4.871,11.928,4.871h0.105c4.109-0.023,7.865-1.535,10.767-4.02l7.276,8.025c0.23-0.041,2.372-2.297,2.402-2.52
	L30.076,26.803z M16.812,31.083H16.72c-8.13,0-14.296-6.135-14.342-14.271C2.333,8.897,8.735,2.422,16.65,2.377h0.083
	c7.868,0,14.306,6.402,14.351,14.271C31.128,24.563,24.726,31.038,16.812,31.083z"/>
</svg>
