<svg enable-background="new 0 0 37 37" height="37" viewBox="0 0 37 37" width="37" xmlns="http://www.w3.org/2000/svg"><path d="m30.076 26.803c2.141-2.828 3.406-6.354 3.385-10.168-.025-4.451-1.777-8.631-4.936-11.77-3.156-3.136-7.344-4.865-11.792-4.865h-.097c-9.224.053-16.687 7.6-16.636 16.824.026 4.489 1.728 8.667 4.792 11.764 3.107 3.141 7.345 4.871 11.928 4.871h.105c4.109-.023 7.865-1.535 10.767-4.02l7.276 8.025c.23-.041 2.372-2.297 2.402-2.52zm-13.264 4.28h-.092c-8.13 0-14.296-6.135-14.342-14.271-.045-7.915 6.357-14.39 14.272-14.435h.083c7.868 0 14.306 6.402 14.351 14.271.044 7.915-6.358 14.39-14.272 14.435z" fill="#ecf0f1"/></svg>